<svg xmlns="http://www.w3.org/2000/svg" xmlns:xlink="http://www.w3.org/1999/xlink" viewBox="0 0 267 267"><title>Antarctic Treaty System flag</title><defs><clipPath id="e"><use xlink:href="#a" width="267" height="267"/></clipPath><path id="a" d="m146.4 44.92-.63-.27zm17.83 176.42-2.4-1.42-7.14 1.78-6.24-3.92v1.51l-1.52-2.05 1.78-1.78-.26-5.35h2.05l1.25-3.56 1.42-.62-1.16-1.78 1.79-.63-.27-2.67-1.78-.9 2.31-.26-1.42-6.5-3.57-3.57-2.14.9.9 2.93h-7.4l-6.25-2.67-2.4-1.16-11.86-2.67-.9 1.42-4.19.36h-1.16l-1.78 2.94-5.08-3.56-2.68.89.36 2.4-6.6-3.56-.27 2.32-6.5-2.94-.36.26-3.21 1.25-.63-2.4-7.75-3.84-8.3-2.67-1.51-6.86v-1.52l-3.21-5.88 1.43-7.12-2.68-.9-.89-3.02 4.46-.54h-2.05l.26-4.45-6.5 2.05-.27-1.79-.9 3.3-3.56 1.43-2.4-2.32-.9-2.4-.89-4.73 2.05-1.51.9 1.15.62-1.42-1.52-10.7 2.4.54 1.17-11.23.35-.35 2.32-1.43-2.94.27-1.16-2.67 5.35-5.97-4.81-.9-3.57 3.57-1.43-4.1-2.14 2.94-.53-2.05-2.68.9-1.78.88 1.43-5.34-1.16-.63.62-1.51-1.51.36-.27-3.03h5.61l-.26-1.43h-1.79l-3.3-5.7-1.78.62-1.16-2.05-.62 1.79-1.78-1.25 1.78-1.16-2.68-.9.63-1.5-2.14-1.16-.54-4.73-2.14-.62 1.25-.9-2.4-6.23.26-2.05.9-6.24h1.78l-.54 3.84 4.46 6.23 3.2 4.2 6.6 1.77v.27l.9-1.51 3.57 4.18 1.78 2.05.89.9 10.08 4.8 1.78.9.62.53 4.73 5.7 2.67-1.24 19.62-4.46.62-3.56 1.43.62-.27-1.16.9-.62 4.19-1.52v-4.1l1.42-1.51 1.78-6.86-.89-2.67 4.2-10.07V59.8h2.04l2.41-3.56 2.94-.9.36-3.3 4.1-4.98 1.79.9 8.38-3.04.89-.89 1.78-1.78-.62-2.94h1.78l.9 4.72 9.18 2.14 1.51-1.52.63.27 8.02 1.78.27-.26 4.19-2.41.27 2.67 3.56.36 2.95 2.32.62.62 4.46 3.83 5.35.36 3.3.53 4.1-1.42.35 2.67 1.79 1.16 1.42-2.68h1.79l1.25 6.87 1.42.26-.26 2.4-.27.28h.53l3.57-1.79 3.3-1.15 9.18 3.2 1.79-.53.62 3.2 2.4.36-.62-1.51h2.05l.63 3.3 2.4-2.68 5.62 3.57 1.52 6.5-2.4.62.61 5 .9 1.5 6.24 15.78-3.3 2.94-.27 3.56-2.67 3.3 2.94 2.05-1.16.9 2.67 2.66 4.1.63 1.25 1.78 1.16 2.32L237 121l3.56-2.4 2.41.27-2.94 4.18 2.94 7.75-3.57 2.95 1.52 4.72-.9 4.19 1.79 2.4 4.73.9-4.73 6.5.9 1.15 1.15 1.25-2.05 3.21 2.05 1.25-10.43 8.55 2.4 5.97-.62 3.56-3.56 1.16-.9 3.03-4.1 1.78-1.25 3.84-.89 2.05 4.2 2.13-6.25.54 1.52 3.3-3.03 2.94-4.73.89-1.52 2.67 3.57 1.78-6.77 6.24 2.05 3.3-5.35-1.16-5.98 3.56-8.02 3.83-1.79 2.68-1.15-.9 1.15-2.67-5.35 2.05-1.15-2.05-8.03 4.72-3.57-1.15-6.5 1.15-1.79-.89M166.28 50l-.62-.62h-.27v.35h.62zm-2.05 171.34 1.78.9zm0 0 1.78.9M39.04 98.73l.36-2.14-3.3-2.05zm-7.13-16.4h-1.78l.89 2.68.9-2.32zm-.89-2.67-.9.9 1.8 1.24zm8.02 19.07.36-2.14-3.3-2.05zm-7.13-16.4h-1.78l.89 2.68.9-2.32zm-.89-2.67-.9.9 1.8 1.24zm8.02 19.07.36-2.14-3.3-2.05zm-7.13-16.4h-1.78l.89 2.68.9-2.32zm-.89-2.67-.9.9 1.8 1.24zm5.35-6.24v-2.31l-2.05.53.27 1.52zm-2.32-6.5.54 1.16 1.24-2.68-1.78 1.25zm2.32 6.5v-2.31l-2.05.53.27 1.52zm-2.32-6.5.54 1.16 1.24-2.68-1.78 1.25zm2.32 6.5v-2.31l-2.05.53.27 1.52zm-2.32-6.5.54 1.16 1.24-2.68-1.78 1.25zM65.8 157.8l-2.05.27-1.78 2.4 2.94-.62zm0 0-2.05.27-1.78 2.4 2.94-.62zm0 0-2.05.27-1.78 2.4 2.94-.62zm2.14-60.32-.62-.53-1.78-.9 1.78.9z" style="fill:#fff" transform="translate(0 -1.5)"/><g id="d" style="fill:none"><circle cx="133.5" cy="133.5" r="49.5"/><circle cx="133.5" cy="133.5" r="92.5"/><circle cx="133.5" cy="133.5" r="133"/><path id="c" d="M-100 133.5h467M133.5-100v467"/><use xlink:href="#c" width="267" height="267" transform="rotate(30 133.5 133.5)"/><use xlink:href="#c" width="267" height="267" transform="rotate(60 133.5 133.5)"/></g></defs><path d="M0 0h267v267H0z" style="fill:#072b5f;fill-opacity:1"/><use xlink:href="#d" width="267" height="267" style="stroke:#fff;stroke-width:3;stroke-miterlimit:4;stroke-dasharray:none"/><use xlink:href="#a" width="267" height="267"/><use xlink:href="#d" width="267" height="267" clip-path="url(#e)" style="stroke:#072b5f;stroke-width:3;stroke-miterlimit:4;stroke-opacity:1;stroke-dasharray:none"/></svg>