<svg xmlns="http://www.w3.org/2000/svg" xmlns:xlink="http://www.w3.org/1999/xlink" viewBox="0 0 800 500"><path fill="#74acdf" d="M0 0h800v500H0z"/><path fill="#fff" d="M0 166.67h800v166.67H0z"/><g id="c"><path id="a" fill="#f6b40e" stroke="#85340a" stroke-width="1.11" d="m396.84 251.31 28.45 62s.5 1.18 1.28.85c.8-.33.3-1.51.3-1.51l-23.71-63.96m-.68 24.12c-.35 9.43 5.45 14.62 4.7 23.04-.76 8.42 3.86 13.18 4.93 16.45s-1.16 5.23-.2 5.7c.97.46 3.07-2.12 2.39-6.78-.69-4.65-4.22-6.04-3.4-16.32.84-10.28-4.2-12.68-2.97-22.06"/><use xlink:href="#a" transform="rotate(22.5 400 250)"/><use xlink:href="#a" transform="rotate(45 400 250)"/><use xlink:href="#a" transform="rotate(67.5 400 250)"/><path id="b" fill="#85340a" d="M404.31 274.41c.45 9.05 5.59 13.06 4.58 21.31 2.21-6.52-3.12-11.58-2.82-21.22m-7.65-23.75 19.49 42.57-16.33-43.88"/><use xlink:href="#b" transform="rotate(22.5 400 250)"/><use xlink:href="#b" transform="rotate(45 400 250)"/><use xlink:href="#b" transform="rotate(67.5 400 250)"/></g><use xlink:href="#c" transform="rotate(90 400 250)"/><use xlink:href="#c" transform="rotate(180 400 250)"/><use xlink:href="#c" transform="rotate(270 400 250)"/><circle cx="400" cy="250" r="27.78" fill="#f6b40e" stroke="#85340a" stroke-width="1.5"/><path id="h" fill="#843511" d="M409.47 244.06a5.5 5.5 0 0 0-4.78 2.53c2.14 1.92 6.86 2.13 10.06-.22a7.3 7.3 0 0 0-5.28-2.31m-.03.44c1.85-.04 3.57.81 3.81 1.65-2.14 2.35-5.55 2.15-7.69.44a4.5 4.5 0 0 1 3.88-2.1"/><use xlink:href="#d" transform="matrix(-1 0 0 1 800.25 0)"/><use xlink:href="#e" transform="matrix(-1 0 0 1 800.25 0)"/><use xlink:href="#f" transform="translate(18.86)"/><use xlink:href="#g" transform="matrix(-1 0 0 1 800.25 0)"/><path fill="#85340a" d="M395.75 253.84a1.93 1.93 0 1 0 1.94 3c.74.56 1.76.62 2.31.62h.25a4 4 0 0 0 2.31-.62 1.92 1.92 0 1 0 1.94-3c.51.18.84.68.84 1.22a1.28 1.28 0 0 1-2.56.06 3.2 3.2 0 0 1-2.65 1.72 3.2 3.2 0 0 1-2.66-1.72 1.28 1.28 0 0 1-2.56-.06c0-.54.33-1.04.84-1.22m2.09 5.69c-2.14 0-2.98 1.94-4.9 3.22 1.06-.43 1.9-1.27 3.4-2.13s2.77.2 3.63.2h.03c.85 0 2.13-1.05 3.62-.2s2.37 1.7 3.44 2.13c-1.92-1.28-2.8-3.22-4.94-3.22-.43 0-1.27.23-2.12.66h-.04a6 6 0 0 0-2.12-.66"/><path fill="#85340a" d="M397.12 262.06c-.84.04-1.96.2-3.56.69 3.84-.86 4.7.44 6.4.44h.03c1.71 0 2.56-1.3 6.41-.44-4.27-1.28-5.12-.44-6.4-.44h-.04c-.8 0-1.43-.31-2.84-.25"/><path fill="#85340a" d="M393.75 262.72q-.37 0-.81.03c4.49.43 2.33 3 7.03 3h.03c4.7 0 2.57-2.57 7.06-3-4.7-.43-3.21 2.35-7.06 2.35h-.03c-3.6 0-2.5-2.43-6.22-2.38"/><path fill="#85340a" d="M403.85 269.66a3.85 3.85 0 0 0-7.7 0 3.96 3.96 0 0 1 7.7 0"/><path id="e" fill="#85340a" d="M382.73 244.02c4.91-4.27 11.11-4.91 14.53-1.7a8.4 8.4 0 0 1 1.6 3.56c.42 2.43-.34 5.06-2.24 7.76.21 0 .64.2.85.42a15.2 15.2 0 0 0 1.74-9.74q-.21-1.24-.67-2.44c-4.7-3.84-11.1-4.27-15.8 2.14z"/><path id="d" fill="#85340a" d="M390.42 242.74c2.78 0 3.42.64 4.7 1.71s1.92.85 2.14 1.07c.21.21 0 .85-.43.64s-1.28-.64-2.56-1.71c-1.29-1.07-2.57-1.07-3.85-1.07-3.85 0-5.98 3.2-6.4 3-.43-.22 2.13-3.64 6.4-3.64"/><use xlink:href="#h" transform="translate(-19.18)"/><circle id="f" cx="390.54" cy="246.15" r="1.92" fill="#85340a"/><path id="g" fill="#85340a" d="M385.29 247.44c3.63 2.78 7.27 2.56 9.4 1.28s2.14-1.7 1.71-1.7c-.42 0-.85.42-2.56 1.27s-4.27.86-8.55-.85"/></svg>