<svg xmlns="http://www.w3.org/2000/svg" viewBox="0 0 1000 500"><path fill="#006" d="M0 0h1000v500H0z"/><path fill="#bd1021" d="M0 250 1000 0v500z"/><path fill="#fff" d="M107.14 250 1000 26.79v446.42"/><g stroke="#000" stroke-width="1.72"><path fill="#9c3900" stroke-linejoin="round" d="M832.04 306.06s-6.24-5.1 1.14-13.34c-3.98-3.4-.29-9.93-.29-9.93s-6.81-2.55.28-13.05c-5.1-3.4-2.83-11.07-2.83-11.07s-16.75-6.24-.85-12.2c-13.06 5.67-25.26-7.66-25.26-7.66l-19.01.56c-3.22-15.8-28.29-2.08-9.65-47.39-4.82-.85-10.22-2.27-15.6 1.7-5.4 3.98-20.72 12.5-29.8 3.98s5.96-20.72 6.24-21 20.15-10.5 22.99-17.3c-.29-5.12-6.53-9.09-.86-20.16 6.53-10.5 46.54-20.43 64.7-23.83 8.8-3.98 12.77-11.64 12.77-11.64l2 7.38s40.29-11.92 42.27-17.6c1.99-5.67.85 5.11.85 5.11 15.9-1.42 36.04-15.04 38.88-8.8 13.34-2.55 38.88-13.9 38.88-13.9s8.8-.28 2.55 9.37c3.97 6.24-1.13 11.63-1.42 11.63-.28 0 1.7 6.24-3.4 9.65 1.7 5.39-3.13 9.65-3.13 9.65s2.28 6.52-6.8 9.93c.85 5.67-5.11 6.8-5.11 6.8s.85 5.97-3.12 8.52c0 4.54-4.54 6.81-4.54 6.81s2.83 1.7-1.14 4.54-45.12 28.1-45.12 27.81c0-.28 30.08 5.4 32.07 6.53 1.98 1.14 24.68 16.18 24.68 16.18l-22.98 28.37s-25.54-2.83-26.68-1.42c-1.13 1.42 5.4 1.99 6.81 4.26 1.42 2.27 3.7 7.66 8.23 7.1s-8.51 8.22-17.02 9.08c0 3.12 10.78 3.4 13.62.85 2.84-2.56-6.81 7.38-7.95 8.8s12.77-2 12.77-2-2.27 9.37-14.47 12.2c4.82 7.96 2.84 13.06 2.55 13.06-.28 0-7.94-7.94-15.32-6.52 1.99 7.66 7.95 14.75 9.65 15.89 1.7 1.13-13.34.85-15.32-3.4-2-4.27-3.7 10.2 1.7 14.75-6.24.28-11.64-3.4-11.64-3.4s-3.68 8.5-1.13 12.76-8.8-8.51-8.8-8.51l-21.56 9.08z"/><path fill="#ffc221" d="M665.36 289.17c.5 0 31.33-.5 45.48-8.6a84 84 0 0 0 16.68 18.7l4.54-16.16s11.12.5 12.13 3.03c-1.51 3.03-2.02 7.07-2.02 7.07s7.58.5 8.09 1.52c.5 1-2.03 9.6-2.03 9.6l32.35 7.58s2.52-12.63 5.05-11.12 13.64 17.18 29.31 18.2c15.66 1 16.68-13.15 16.68-13.15l3.53 2.03s6.57-14.15 7.58-14.15 2.53 2.02 11.12 2.02c2.53 3.03 3.54 10.1 3.54 10.1s-9.6 9.6-6.57 17.19c3.03 7.58 3.54 5.56 3.54 5.56l69.73 16.67s3.54 5.56-2.52 8.6c0 .5-70.25-16.18-70.25-16.18s-6.57 7.58-11.62 6.07c-5.05-1.52-1.51 3.03-1.51 3.03l75.8 6.06s5.55 7.08 1.51 9.1c-5.05.5-81.86-5.05-81.86-5.05s-4.55 9.6-9.6 1.51c-3.54 5.56-7.58-1.51-7.58-1.51s-6.57 5.05-7.58-.51c-5.56 4.04-9.1-2.53-9.1-2.53l-32.34-2.02-2.02 3.03s5.56 1.52-3.03 5.06 51.54 2.02 53.06 2.52c1.51.5-4.05 5.06-4.05 5.06s30.83 2.02 36.39-4.55-2.02 8.59-2.02 8.59 24.25-1.01 24.25-2.02-.5 7.58-17.18 6.57c10.1 6.57 22.74 10.6 22.74 10.6s-12.63 3.04-27.29-.5c2.53 6.57 13.65 12.64 13.65 12.64s-8.09 7.07-26.28-10.11c5.05 9.1 1 12.63.5 11.62-.5-1-9.1-13.64-29.3-18.19 12.63 8.09 7.07 11.62 7.07 11.62s-6.57-11.62-17.18 0c-4.04-10.6-19.71-16.67-38.91-17.68-6.07-7.08-9.6-5.06-23.75-9.1-8.09-9.1-19.71-19.2-19.71-19.2s.5-13.64 14.15-12.13c1.51 4.55 1.51 3.03 1.51 3.03s15.16-5.56 19.71 2.02c6.57-11.62 15.67-1.73 17.18 2.3 4.36.65 26.28 1.24 26.28 1.24s-2.53-4.55-1.01-4.04 13.64-4.55 13.14-6.06c-.5-1.52-1.01-6.57 1-6.07 2.03.5-17.17-2.53-27.79 5.56-3.53-3.54-1-13.14-1-13.14l-31.34-6.57-1.51 8.09s-9.1 1.51-8.6-.5c.51-2.03-2.01 7.07-2.01 7.07s-12.13-3.04-12.13-3.54 3.53-18.2 3.53-17.69-10.1 1.01-24.25 11.63c-4.04-12.64-35.88-29.31-35.88-29.82zm39.42-41.44s-21.22 18.2 0 28.8c1.01-7.07 2.53-8.08 2.53-8.08s17.68 6.57 28.3-9.1c-4.55-6.57-12.64-4.04-12.64-4.04s-16.67 0-18.19-7.58z"/><path fill="none" d="m722.47 255.82-14.65 12.63"/><g fill="#fff"><path stroke-linejoin="round" d="M705.48 247.88s2.84-2.84 3.69-6.24-1.14-7.1 2.27-10.22c3.4-3.12 48.24-22.13 51.93-25.82s10.5-11.64 11.35-13.34 3.4 8.51-4.26 13.06c8.23-2.28 13.62-4.83 17.03-3.7-3.4 4.83-12.49 12.78-16.74 12.78 9.93-3.7 19-6.82 21.56-4.83s-12.2 11.92-18.16 12.49c9.93-2.56 23.27-6.53 24.97-2.27-5.39 1.7-3.69 3.12-14.75 9.36-1.42 1.14-8.52 1.42-8.52 1.42 8.52-.85 20.15-4.26 21.29 1.99-6.81 2.55-9.37 5.96-15.04 7.37s-18.73 3.98-26.68 7.1-19.58 12.2-19.58 12.2-25.25.85-25.25.57-4.83-11.64-5.11-11.92z"/><path d="m921.99 230.57 49.1 9.36s5.38-6.24 2.55-9.64c7.37-1.7 5.39-11.35 5.39-11.35s8.51-3.7 1.42-12.2c4.82-4.83-1.14-8.52-1.14-8.52s1.99-8.51-4.25-9.36c1.7-6.81-10.79-9.08-10.79-9.08s-25.82 7.09-43.98 7.66c5.96 5.96-2.27 9.65-2.27 9.65s4.82 3.4 3.4 6.24.85 5.96-5.39 7.94c8.23 3.7-.85 9.94-.85 9.94s9.08 6.24 6.81 9.36z"/></g><g fill="none"><path d="m742.17 293.72-6.57 29.3m12.64-18.19-2.02 9.6m34.36-2.02-3.03 9.1m59.12 52.55c-.5 0-16.17 2.02-18.2 1.52-2.01-.5 24.77 8.08 24.77 11.62m-34.87-9.6s-15.67-10.1-18.2-9.1c-2.52 1.02 15.67-.5 17.19-2.02m-31.33-.5s-16.17.5-17.69-1.01 15.67 11.12 18.7 10.1M744.7 358.9c-.5 0-11.12-4.04-15.66-5.05 4.04 4.04 7.07 9.6 17.18 11.62m2.52-13.13c-.5-1.01-20.21-7.08-20.21-10.1 4.55 1.5 11.11 3.53 17.18 2.01m107.64-15.16-2.02 9.1m-83.73 5.37s3.38 3.72.35 8.27m70.74-4.55-5.56.5m-39.92-3.53 10.1 1.52m17.09-27.51s.28 10.22-8.23 9.93c-8.51-.28-5.68.29-5.68.29"/><path d="M826.93 316.55s3.4 1.14 2.55 3.69.85 9.93-9.08 17.03c-10.5 2.27-9.36-8.8-9.36-8.8"/><path d="M830.62 319.68s6.24-3.69 7.1 2.27c.84 5.96-5.11 17.03-9.37 18.73s-9.08-.28-8.51-3.12m18.44-15.33s5.68-4.54 7.38 1.42-4.54 19.3-7.1 19.58m7.67-19.58s2.84-1.42 4.82.28m-13.9 20.15c-1.13.28-5.96.57-7.66-3.12m-17.88-6.81c-.28 0-5.96.28-5.96.28m27.81 22.14-.57-9.36-2.27-3.13-3.97 3.98s-.57 9.36-2.27 10.21m2.27-10.5c-.28-.57-3.12-5.96-3.12-5.96l-4.83 5.96s-.56 8.51-2.27 9.37m2.27-9.65c0-.28-1.99-5.67-1.99-5.67s-5.67 3.12-6.24 5.39-.85 8.5-2.27 9.08m2.27-10.22s.57-5.1-1.13-5.1-9.37 7.09-9.65 13.33m-82.3-108.4s.28-5.67 2.84-7.66 15.32-6.81 18.16-11.07-4.26 7.38-3.12 10.5"/><path d="M722.5 237.38s6.24 2.27 4.82 7.1"/><path stroke-width="1.59" d="M729.88 240.65a4.68 4.68 0 1 1-9.36 0 4.68 4.68 0 1 1 9.36 0z"/><path d="M917.17 220.07s43.42 5.1 45.4 5.1c1.99 0 9.65 2.56 11.07 5.12m-54.2-12.77 60.44 1.42m-60.16-2.84s57.32-3.4 61.3-9.36m-59.59-3.13s57.6-6.24 58.17-5.4m-60.16-1.69s55.9-8.8 56.47-7.38m-215.95-28.66s17.6 19.3 15.9 32.35"/><path d="M774.72 182.61s5.68 8.23 7.95 9.08 22.13 1.99 23.26 10.5c1.14 5.4-4.25 3.69-3.4 7.66 1.42 5.11 14.76 11.64 29.23 3.98"/><path d="M818.42 217.8s11.92 17.6 29.51-1.42"/><path d="M838.85 224.05s14.47 7.66 26.39-12.2"/><path d="M849.92 225.75s7.1 5.96 21.85-1.99m20.43-7.94s21.85 4.54 23.27 5.96m-15.04-10.79c.28 0 15.32.57 15.32.57m-24.69-9.08s26.1-1.7 29.51 3.69m-40.86-11.92s36.6 1.42 38.3 3.4m-30.07 34.06s6.24-1.7 7.1-.85m-21.29 16.17s8.23 7.1 18.73 3.97m-14.19 7.95s9.36 4.26 20.43 1.7m-17.31 5.39s9.36 6.24 15.6 5.1m-19.85-1.41s6.53 4.82 6.81 7.38m-15.89-1.7s1.99 10.22 9.08 13.9m-13.91-9.36s-3.12 13.34 4.82 21.57m-13.05-11.07c0 .28-.57 6.24-.28 6.81m-50.8-58.46 15.32-.85s5.68-2.27 1.7-5.96m2 3.41c.28 0 14.47 1.14 18.16 5.4 3.69 4.25 8.23 12.76 10.79 14.18s3.12-.57 3.12-.57"/><path d="M848.78 252.14s-7.66 13.05-1.7 17.03"/><path d="M844.52 266.61s-6.81 9.08-1.42 13.62m-1.41-1.13s-5.4 8.8 1.14 14.76m-3.53-38.1c-.37.37-6.6 4.76-8.79 3.66m2.2 10.26s2.56 2.56 4.76 2.2m-4.46 11.1 4.09 2.8m-3.54 7.39 3.54 2.14m-67.63-141.3s7.46 3.88 13.43 0 34.61-18.5 42.07-20.89 11.64-16.11 13.13-22.08m-5.66 16.11 41.78-12.23s6.86-5.67 7.16-16.12"/><path d="M878.39 110.14s41.78-4.18 41.78-19.7"/><path d="M913.6 101.19s43.87-11.94 48.04-16.41m-170.38 78.77s26.56-13.73 30.74-15.22 13.72-13.43-.6-13.43"/><path d="M804.09 168.93c.3 0 21.78-14.02 28.95-15.81 3.87-5.38 1.79-11.05-4.78-9.85"/><path d="M834.82 149.53c.6-.3 11.64-.6 7.76 8.06-5.67 4.17-30.14 16.4-30.14 16.4m16.71-33.71 46.55-15.52s3.88-8.05-1.79-9.25m38.8-14.02c0 .3 5.97 3.58 2.39 8.95-6.57 3.88-37.6 11.34-37.6 11.34m82.35-25.07-43.86 12.24m40.58-2.39-38.2 11.64m34.92-2.09-33.72 10.14m27.45-.59c-.9 0-25.06 7.46-25.06 7.46m19.69 0-15.52 6.27m11.64 2.08c-.6 0-13.43 5.67-13.43 5.67m9.55 1.2-11.94 5.67m-8.65 7.16s1.5.6 1.2 2.39m-31.34 14.02s5.07 1.79.3 6.56c-2.39 3.29-9.25 2.4-13.43 8.36m45.66-81.76s6.27 1.5 1.5 9.55c-12.54 4.77-37.9 12.53-37.9 12.53s-1.2 2.1-4.48 3.88c-3.28 1.8-39.39 11.94-39.39 11.94"/><path d="M917.78 119.99s6.86 2.98 0 8.06c-7.76 4.47-34.91 12.83-34.91 12.83s-.3 2.38-1.5 3.28c-1.19.9-37 12.83-37 12.83m75.2-28.95s7.16 2.09.9 8.06c-7.46 4.47-31.34 12.53-31.34 12.53s-2.38 2.98-6.26 4.18-28.65 11.34-28.65 11.34m67.14-28.05c2.09.9 7.76 1.79.9 7.16-8.06 3.58-27.76 11.34-27.76 11.34l-1.79 3.28-31.33 13.43m61.77-27.15s2.98 3.58-3.58 7.76c-7.16 3.88-22.68 9.85-22.68 9.85m22.68-9.26s3.28 2.09-.9 5.07c-4.77 2.39-23.57 12.24-23.57 12.24l-12.23 8.05"/><path d="M876.6 125.06c0 .3 5.07 4.48 3.28 9.25 4.48 3.28 3.58 6.86 3.58 6.86s6.27 3.58 5.38 8.66c6.26 1.49 5.96 5.07 5.96 5.07l-2.09 3.28s6.27-.3.9 7.76c3.28 1.8 1.79 3.88 1.79 3.88m-1.79-3.58c-.9 0-21.78 7.76-27.15 12.53"/><path d="M843.18 156.99s6.27-.3 5.37 6.56c7.16-2.38 5.67 4.48 5.67 4.48s8.36-3.28 6.86 7.16c5.38-1.2 4.48 4.18 4.48 4.18s4.78-.3 4.78 2.39c3.28-2.99 6.86-1.5 6.86-1.5s2.39-3.28 5.67-2.38"/><path d="M848.85 163.26c0 .6-28.05 16.11-28.05 16.11m33.42-11.04-21.19 13.13m28.35-6.57c0 .3-18.5 11.04-18.5 11.04m22.68-6.86s-13.13 10.74-16.11 10.15m20.59-6.87s-7.46 5.67-13.73 8.36m21.48-10.74s2.39 2.98-12.53 10.74"/></g></g></svg>