<svg xmlns="http://www.w3.org/2000/svg" xmlns:xlink="http://www.w3.org/1999/xlink" viewBox="0 0 10080 5040"><defs><path id="a" d="m0-360 69.42 215.84 212.04-80.3L155.99-35.6 350.97 80.1 125.1 99.77l31.1 224.59L0 160l-156.2 164.35 31.1-224.6-225.87-19.64L-156-35.6l-125.47-188.86 212.04 80.3z"/><path id="e" d="M0-210 54.86-75.5l144.86 10.6L88.77 28.85l34.66 141.05L0 93.33l-123.43 76.56 34.66-141.05-110.95-93.73 144.86-10.62z"/><clipPath id="b"><path d="M0 0v1.5h7V3H6zm6 0H3v3.5H0V3z"/></clipPath><use xlink:href="#a" id="c" transform="scale(2.1)"/></defs><path fill="#00008b" d="M0 0h10080v5040H0z"/><path stroke="#fff" stroke-width="504" d="m0 0 5040 2520m0-2520L0 2520"/><path stroke="red" stroke-width=".4" d="m0 0 6 3m0-3L0 3" clip-path="url(#b)" transform="scale(840)"/><path stroke="#fff" stroke-width="840" d="M2520 0v2940M0 1260h5880"/><path stroke="red" stroke-width="504" d="M2520 0v2940M0 1260h5880"/><path fill="#00008b" d="M0 2520h5040V0h1680v3360H0z"/><g fill="#fff"><use xlink:href="#c" x="2520" y="3780"/><use xlink:href="#a" x="7560" y="4200"/><use xlink:href="#a" x="6300" y="2205"/><use xlink:href="#a" x="7560" y="840"/><use xlink:href="#a" x="8680" y="1869"/><use xlink:href="#e" x="8064" y="2730"/></g></svg>