<svg xmlns="http://www.w3.org/2000/svg" viewBox="0 0 1200 600"><clipPath id="a"><path d="M0 0v150h700v150H600zm600 0H300v350H0v-50z"/></clipPath><path fill="#00247d" d="M0 0h1200v600H0z"/><path stroke="#fff" stroke-width="60" d="m0 0 600 300m0-300L0 300"/><path stroke="#cf142b" stroke-width="40" d="m0 0 600 300m0-300L0 300" clip-path="url(#a)"/><path stroke="#fff" stroke-width="100" d="M300 0v350M0 150h700"/><path stroke="#cf142b" stroke-width="60" d="M300 0v350M0 150h700"/><path fill="#cf142b" d="M0 300h600V0h600v600H0z"/><path fill="#fff" d="M767.32 145.15V398.8c3 36.32 78.69 59.18 131.45 97.75 69.22-46.42 136.34-55.81 139.04-107.86l.85-243.53z"/><g fill="none"><path fill="#2f8f22" stroke="#000" stroke-width=".46" d="m767.3 395.16 2.83 14.48 9.44 11.34 68.34 44.09L898 496.25l97.62-53.23 33.7-25.82 6.61-33.7-4.1-7.87.95 8.19-2.52 6.61-2.83-1.89-1.89-12.28-.32 9.13-4.72 5.36-.94-6.62 1.26-4.72-1.9-5.35-.62 10.7-2.52 4.73-2.2-3.15.94-4.73-.32-4.4-1.57-2.21-.32 4.72-.94 1.58.31 2.83-1.89 1.89-1.26-3.78.63-3.46-.63-3.15-1.26-3.47.32 5.67-3.15 6.93-2.52 1.57-1.57-1.89.31-6.6-2.2-3.79.63 8.2-3.15 7.24-1.9-2.21-.94-2.2v-3.47l3.47-8.82-3.47 3.15-2.83 7.56-1.26 2.2-1.58-3.78 2.21-8.5-1.26-1.57-2.83 10.39-2.53 1.57-1.88-.63-1.26.63-152.43 8.5-4.1-5.98-.94 5.99-2.52 2.2-2.51-11.02-1.9 11.65-2.52-5.67 1.26-12.91-1.26-.94-1.88 6.92v9.77l-.95 6.61-1.89-1.26-2.52-5.98-.31-9.77.94-6.93-2.52 8.2v10.07l-.31 5.04-3.15-6.93-1.58-5.67-3.15-6.61 1.9 8.5V392l-5.36-4.73-2.83-13.22-.63 9.76 1.26 4.72-1.58 1.9-3.15-5.68-1.89-7.55-2.2-7.25v11.65l1.57 6.3-1.26 1.58-2.52-1.26-.94-6.93-.63-10.08-2.52 6.93-.63 7.24-.95 5.67-1.57 3.78z"/><path stroke="#4dcf4a" stroke-width=".91" d="M876.02 472.1c-.82-14.88 12.65-29.77-23.6-44.66"/><path stroke="#38bb26" stroke-width="1.14" d="M910.57 463.68q0-29.5-33.7-25.28"/><path stroke="#51c757" stroke-width=".91" d="M922.37 472.1c-11.88-14.3-27.74-12.64-46.35 0m75.84-18.53c-4.51-8.41-20.97-2.87-38.76 4.21"/><path stroke="#7acb73" stroke-width=".82" d="M1011.69 426.6q-6.75-19.38-23.6-21.9"/><path stroke="#4cb135" stroke-width="1.14" d="M1026.86 406.38c-2.98-6.68-6.1-13.08-13.48-10.96"/><path stroke="#60c85a" stroke-width="1.28" d="M845.69 459.47c3.92-13.48-.34-18.77-7.59-21.07"/><path stroke="#71ce5b" stroke-width="1.19" d="M781.65 409.75c7.5-3.26 13.49-9.53 24.43-5.9m-33.7-2.53c6.12.13 10.4 2.52 11.8 8.43"/></g><g stroke="#000" stroke-width=".46"><path d="M905.36 150.64c-3.54 3.26-7.18 6.25-12.28 4.96-3.5 1.43-.1 9.67-5.8 7.97-5.51-4.37-4.05 5.21-7.59 7.22-3.23 1.03-9.23 2.62-4.48 6.46 2.9 2.83 5.7 7.76.94 10.23-2.75 5.19-3.34-4.77-7.42 1.08-1.33 5.91 8.79 4.62 4.08 9.2-.78 2.75-3.6-6.75-6.44.8-2.22 3.13-2.3 7.75 1.95 9.14 3.62 2.08 11.21-1.08 6.69 5.02 0 3.6-5.95 9.59-3.69 2.8 4.06-4.71-1.84-6.02-4.5-2.8-5.5 3.74-3.21 12.07 2.14 14.47 1.6 3.32 3.2 4.2-.81 8.2.55 4-.29 7.45-5.57 7.2-2.95 2.8-4.93 7.46-10.55 6.76-5.39 2.17-6.74-1.37-7.76-5.65-1.74-4.25-8.86-6.68-11.46-1.98-3.12-1.26-7.17-7.19-10.37-1.36-2.85 3.9-7.34-2.28-10.35 2.8-3.5 3.83 2.18 7.41 3 10.34 4.67 3.77 2.16 6 1.16 10.86-1.7 4.42 6.18 7.15 3.74 10.69-3.5 2.73-9.13 5.89-7.78 11.13-4.96 1.75-4.3 7.44-2.76 11.38 2.5 5.63 13.09 5 12.58-1.9 2.8-.4 6.1 5.68 8.14 8.64-1.98 2.08-8.4-.43-11.95 1.37-4.65-.48-8.63 4.57-13.27 5.25-3.37 2-7.84 4.59-6.73 9.42.84 4.07 2.38 8.11 1.78 12.3-2.23 3.69-4.14 7.6-3.96 12.07-1.97 6.5 2.43 14.36-3.14 19.7-1.58 4.81 2.7 4.79 4.6 1.72 2.59 1.13 4.22-3.28 3.97-5.19 2.26 4.13 3.04-1.13 5.1 2.75 4.13-1.38-.95-13.3 1.64-8.32 1.98 2.9 3.02 9.06 5.87 9.5 3.17-1.26 1.56-12.91 3.85-3.85 2.47 8.08 3.75 16.6 7.83 24.03 2.4 6.98 8.72 13.5 16.71 12.15 2.27 2.14-3.51 6.58-4.62 9.62-3.57 2.7-7.99-.79-11.77-.94-3.79 1.48-8.14 2.28-10.84 5.54-1.72 3.79-3.04 7.1-3.43 10.85-.89 5.31.13 11.43 5.43 14.05 1.33-4.06.32-7.53 5.99-7.18 3.96 2.27-.44 8.1 3.09 11.68 1.78 3.7 6.91 8.34 5.22 1.03-2.02-5.74 3.35-5.8 6.61-8.16 4.3-4.53 4.97-.13 4.4 4.3 2.4 3.15 7.21-2.93 8.38-5.64 1.66-3.15.1-9.93 3.05-8.56 3.81-.98 6.28-4.47 9.27-6.94 2.69-5.24 7.73-.07 11.7.68 4.95 2.14 11.58 1.38 13.8 7.38-3.8-1.89-8.25 1.64-6.86 6.38 1.93 4.87 7.81 3.45 11.35 2.76 3.56 1.47 7.58-3 11.4.3 3.76-.82 7.9-.3 11.41-2.18 3.47-2.85 2.05-9.28-3.03-8.3 2.33-3.43 7.6-4.4 11.1-6.79 4.02-.36 7.53-4.83 11.05-4.17 5.03 3.48 7.53 9.1 11.85 13.11 4.23.5.31 6.38.76 9.98-1.13 4.34 1.3 10.36 4.93 4.42 2.19-3.95 8.2-2.82 8.52-8 1.68-4.39 2.81 6.4 7.1 5.82.3 3.34-.97 11.53 4.08 6.14 4.43-4.06 5.16-10.29 3.59-15.8.7-4.51 7.24 2.71 6.05 5.95 1 4.17 6.18-3.6 6.91-5.97.57-6.09.75-13.28-3.86-17.94-3.5-1.74-4.95-7.18-9.96-6.97-3.44 1.89-7.37 5.5-8.84-.83-4.54-4.03 3.08-4.32 5.63-6.17 5.12-3.24 7.92-8.8 8.96-14.56q2.83-7.95 4.69-16.17c4-1.44 7.76-4.38 10-6.8 4.55-8.56.2 6.4-1.43 9.93 3.48 1.54 8.03-1.25 9.52-4.93 2.24-2.49 2.74-12.25 3.9-4.43.52 2.7-4.3 10.75-.4 9.32 4.05-1.29 7.29-5.18 9.15-8.92 1.61-5.02 3.22-11.12 1.18-15.96 3.25-2.22-.23-11.52-3.75-6.47-4.51-.85-3.21-7.42-4.04-10.66 3.7-5.23.62-15.36-6.58-15.12-3.63-2.08-6.53-3.01-10.26-4.42-4.84 1.51-8.3-3.06-13.12-2.27-7.28.36.61-7.97 3.44-5.1 3.3 4.25 10.3 6.28 13.69 1.07-.16-3.92-.15-9.32-3.66-12.4-.7-4.38-1.86-8.52-4.88-11.94-3.7-5.45 3.11-6.71 5.35-10.1 1-4.4-1.66-9.2-4.29-12.79 2.83-2.82 5.67-8.06 2.64-11.65 1.13-3.42-6.57-4.02-9.07-3.68-4.99-.33-9.18 4.22-14.15 4.56-4.25 3.47-9.4 5.4-14.87 4.02-3.87-.96-6.9-5.21-8.98-7.74-5.04 2.76-.91-5.45-5-7.85-2.84-3.88-8.7-3.05-6.58 2.65-3.7 4.53-.47-6.09-2.79-8.26-3.02-7.27-1.78-2.05 2.3-.07 4.52 3.1 11.11 1.23 12.25-4.33-2.23-3.3.26-9.83-4.75-9.36-3.67.56-3.86 9.5-5.91 2.19-.56-4.03-2.83-7.39-4.87-10.85 2.73 4.8 8.02 9.98 13.9 7.02 3.14-2.06 4.26-7.18 2.37-10.24.17-10.61-5.95 5.63-8.76-2.76-6.5-1.93 12.46-8.93 4.68-11.25-2.65 3.68-8.4 1.95-9-1.91 3.28-1.84 6.4-8.92 4.24-11.27q-7.1-4.02-5.51-12.18c-2.77-2.97-9.86 2.25-10.28-4.43-.23-6.2-5.88.82-8.98-1.42-2.33-1.38-4.7-2.75-6.92-4.48z"/><g fill="#d40000"><path d="M904.1 194.54c-.3 6.88-6.21 5.43-7.9 3.55-1.63-6.29 7.8-8.01 7.9-3.55zm3.2-.4c.63 5.44 6.86 6.2 8.04 3.92 2.05-5.2-5.68-8.49-8.03-3.92z"/><path stroke-linejoin="round" d="M903.48 188.9v1.19l-.65.12-.24-.3-.18-1.84-.36-.18v-.84l.84-.05v-.78h-1.02l-.35.78-.18 1.07.42.9-.42.7-.78.42-1.07 1.02-.72.35-1.66.18-1.37-.65-1.38-1.31s-.6-.96-.65-1.2-.42-1.07-.42-1.07l-.36-.9-.65-.7-1.02-.13-.3 1.25-.35.48-.84.12-.89-.77-.6-1.02-.65-1.3-.54-.9-.77-1.13-.36-.66-.36-1.55-.9-1.13-.59-.95-.95-.78-1.01-.77h-1.2l-.77-.6-1.13-1.07-.83-1.13-.54-.66.12-.6.42-.53.9-.54.88-.06 1.02-.23 1.01-.54.18-.72.18-1.19 1.07-1.9.48-1.37.06-1.08 1.55-.24 1.49.18 1.07.3 1.13.36 1.31-.66 1.07-1.37.36-2.38.48-2.2.53-1.25h2.75l.95.65.77-.36.72-.35 1.72.17h.9s.71-1.13 1.01-1.3c.3-.19 1.73-2.1 1.73-2.1l1.84-.47.96.12 1.31 1.5 1.07.65.95.06 2.27 1.49s.71.6.95.47c.24-.12 2.27-1.01 2.27-1.01l1.78-.12 1.91-.66.66 1.5s.95 2.26 1.25 2.5c.3.23 1.49 2.5 1.49 2.5s.6-.3.9-.36c.29-.06 1.66.3 1.66.3l3.93.18.54-.6.41.72-.53 2.74.24 2.08.71 2.8.9 1.31 1.19.06 1.55 1.31.06 1.31-1.2.42-1.07-.36-1.37.78-2.14 1.25-1.8 1.79-1.54 2.2-1.01 2.2-1.02.72-.89-.36-.9.06-.41 1.07-.9 1.07-.77 2.75-1.67 1.84-1.73.84-1.25.95h-.83l-1.43-1.37-.65-.6-.18-2.14-1.38-1.07h-1l1.48 1.19.06 1.6-.83.72-.42-.12-.42-.83h-.47l-.06 1.6-1.8 2.1-1.78-1.5-.06-1.9z"/><path d="m874.3 173.86 2.67.09 1.37 2.06 1.2 1.29 1.2.94 1.04.17 1.98 2.92v.35l1.54 1.37.43 1.8.17.6-.08.78-.86.51-1.03-.17-.6-.43-1.9 1.63-1.2 1.63-.77.18-2.06 2.23-1.03.34-1.63 1.2-2.58-.08-1.63-1.98-.34-.77-.09-1.55 1.46-1.03.69.78-.34.77.08.95.86.34.86-.09 3.09-2.66.77-.43 1.8-1.8 1.12-.6-.08-1.12-1.3-1.98-.42-1.37-.34-1.29-.35-.94-1.2-1.38-.69-.77-.25-.77-1.2-.95-.35-.17z"/><path fill="#a00" d="M926 183.9h1.38l1.46-.68 1.12-.94H931l.69.68 1.12-.08.68-.86.26-1.03.95-1.29.25-1.29.86-1.8.26-1.3-2.15-.08-2.49 2.15-1.89.09-1.54 1.63-1.2.17-1.3 1.89-.42 1.12.17 1.11z"/><path stroke-linejoin="round" d="m899.47 201.17-1.63 1.64-.43 1.46.69 1.45 1.54.26 1.12-.6 1.03 1.2.17 2.06 2.06 2.24.95.25.77-.85.86-.86.09-.86 1.37-.6.34-2.58.78.94 1.28-.77 1.64-.17v-2.15l-.6-1.46-1.3-.94-1.97-.86-2.14-.77-1.03.08-1.9 1.12-2.06.69z"/><path stroke-linejoin="round" d="m912.4 200.64 3.1-.14c2.13-1.38 3.05-7 4.51-10.71 2.27-2.95 5.06-3.83 8.46-2.26l1.98.56 2.53 1.98h1.83l1.28.28 1.97.14 3.53-2.82-.14 2.96-2.4 2.12-4.94 1.83-3.8-2.26-.14.57 8.17 9.02h.7l1.42 1.4.7-.55.14-2.4 2.82-2.54.29 3.67.98 1.83v3.52l-2.68 3.39-4.23.56-4.93-3.1-.14-1.4-4.51-5.22v2.25l2.68 5.5.42 2.11.99 1 .7 1.68v2.12l1.27 2.96 2.26.28.56-1.4v-1.98l2.4-2.4 1.55-.14.56.85-.7.7-.28 1.55v.99l1.97 2.68.57 1.69-2.97 4.5-1.97.57-3.52-.56-2.12-1.41h-1.13l-3.24-4.94-.42-2.4-4.37-6.9-.15 1.4 1.7 2.13.84 3.24.85 5.78 2.53 4.93.14 9.17.85.98H932l1.4-1.12 1.14-1.55-.29-5.36h1.56l2.67 1.55 1.98 3.24.7 1.41v2.96l-.98.14-1.98 2.12-3.24 1.4h-5.64l-1.27-1.12h-1.13l-.84-.85h-1.55l-4.38-6.2-.14-10.3.57-2.25v-3.1h-.7v3.1l-.71 1.98-.14 2.82.14 7.75 4.65 7.48 3.38 1.69 1 1.13h-1.56l.14 1.12-1.27-.28-.28.57-.7-.29-1.27-.84-1.7.28-1.12.56h-2.96l-1.27-2.54-.99-1.97-3.38-3.1h-2.54l-.56-1.83.42-3.25.7-2.96v-7.9l-.56 9.03-1.55 5.08-.56.42-.15 5.78 1 2.68 3.94 4.37-2.68.28-1.97-.84-2.12.42-3.24-.7-3.67-1.28-2.4-2.4-1.12-2.67-.43-2.68-.56-2.82.56-2.25.29-2.26-1.13 2.54v6.06l-1.55-.42v-1.7l-1.27-1.69-.28-2.25-.43-3.39-.14-5.5.14-3.38.7-3.8-.56-.14-.42 4.79-.28 9.45-.99.28-2.25 3.1h-5.08l-1.97-1.7 3.8-4.08-.42-3.24-.42-3.8-.43-6.5-4.37 4.66-4.93 3.52h-4.23l-2.4-2.96-.42-3.38.28-2.4 2.54-3.38 1.83-.28.7-.7.43.56-.99 2.82-.98 2.1.84 1.98 2.4.29 3.1-4.8 2.4-5.64 1.83-2.82v-1.55l-1.7 1.27-1.97.42-5.77.15-3.39-2.12-.56-1.7.14-1.54.14-2.12 3.67-2.4.14 5.08 2.4-1.97v-.99l3.1-4.09 7.47-6.62h4.5l2.69 1.97 1.12.28 3.25 3.1.14 3.95 3.8 3.1-2.25 2.69.14 1.4 2.12 1.56 1.97-.57.84 5.22 2.4 1.4 1.27.15 4.8-5.64 2.1-.28 1.28-2.82-.57-2.26z"/><path d="M858.2 249.64v.83l1.67 2.25-.12 2.36-8.4 4.26-3.67.24-1.9 1.77-4.84 1.54-2.13-.47.35-1.18.24-2.02-.24-1.18-1.53-.83v-1.9l1.89-.58-.6-.83-1.06-.12.24-2.48.47-.95.12-.59-.12-1.18-.47-1.07-1.3-.35-3.79 1.54-.59-.6-1.77 1.9-.95.11-.12-1.53-1.9-2.49v-.47l-3.54-.6-2.48 3.2h-1.78l-1.3-.95h-1.06l-1.19.71-.7-.23-1.07 1.9h-.6l-.7-1.55-.95-1.54-.35-.94.47-1.9 1.54-.94 1.89-.95 1.42-.23 1.66.94.7 1.54 2.14-2.01 2.12-2.37 1.78-.7 2.25.35 2.48 3.31 2.37.23 2.84-2 1.06-.6 2.6.36 2.6 1.42 2.73 4.02.47 3.9.6 1.07 4.72-.36 4.97-.94z"/><path stroke="none" d="m861.05 244.32-1.3 5.8 1.53 1.65-.11 1.9.82.82 1.54-.83 1.54-1.06 1.53-.6 1.78-.94.24-1.06 1.89-.95 2.01-.6 2.6-.7 2.6-.36-1.89-1.3-5.44-3.55-2.25-.23-.83.7-3.19.13-1.77.47z"/><path d="m887.2 238.52-3.8-.12h-2.48l-2-.82-1.66-1.66-.24-1.54-1.18-1.89-1.19-1.18h-1.77l-2.48 1.65-1.07 2.13-.23 3.43 1.41 2.96 4.74 3.55 2.72.59 1.9-.83 4.25-1.89 2.72-1.77.95-1.54zm-9.12-5.44 2.13-2.25.12-5.08-.6-.48.6-2 .24-1.66h-.83l-4.62 4.37-3.2.48-1.64.94-.12 1.19 1.3.82 2.36-.23 1.3.12z"/><path d="m879.98 246.45 4.13-.36 3.32.24 1.65.47 3.32 1.78 1.9.95 3.66-.24-1.42-1.77-1.42-1.78-.95-1.77-.24-1.78-.82.24-.95-.24-1.18-1.54-.71-2.24-.48-2.96-.94-.12-.71 1.42.71.7.7 1.43-1.17 1.53-.12 1.19-1.54 1.18-2.13.95-2.01.83-2.25.82zm30.28-5.44.12 5.08 1.77 1.54h1.66l1.3-.7.36-1.07-1.19-.71-.47-1.42-2.49-2.72zm19.28 4.02 5.09 3.43 1.54.47 1.42-.47 2.36-1.9 1.18-2.6.12-1.89-1.18-.12-1.9 1.3-2.71.24-2.13.36h-1.66l-1.66.35zm14.67-3.9-.94 1.53-.95 2.37-2.13 2.25.12 1.65h-.95l.12 1.3 1.65 1.3 4.62.71 3.67-4.73v-1.3l-2.01-2.36-1.42-.36zm21.53 13.25 2.37 1.18v.83l-.95 1.3-.59 2.48-.24 1.54-2.84.12-2.95-1.07-1.66-1.06h-1.54l-.83-.71-1.41-.95-1.78-1.18-1.9-2.48-1.3-1.66v-1.18l1.78-2.25 1.78-.6h7.92l3.67-1.3 2.96-2.48 3.55-.7.82-.95 2.37-.48 5.91-3.07 3.32.59 3.31-.12 2.84.83 1.06.94-.59.36-1.54-.12-1.77.95-.24 3.2 1.42 2.6-.35.7-1.78-.11-1.18-.6-.6-1.06v-1.07l-1.17-1.65-.95-.36h-2.13l-.7 4.5h-1.07l-2.01-1.78-2.96-.35-2.01 1.77.7 2.37 2.97 2.84h1.53l1.42 1.65-.12 1.3-2.13-.47-2.13-.47-1.77-.83-1.42.24-1.66-.95-1.65-.71-1.07-.47zm7.98 52.85-1.88 1.7-1.25 2.42-.45 2.51-.8 3.14-.37 2.42.36 5.28.18 2.87 1.7 2.69.9.27 1.08 2.15 1.52-4.21.72.53.44 3.14 2.51 2.15s-2.33-1.16-2.86-1.16-.63.62-.63.62l.63 1.35 1.43 1.43 2.5.98 4.67.1-1.08 1.07h-3.22l-.81.62 1.17 1.7 1.43 2.25 2.6 1.25 2.68-.71h.9l-.45 1.07 1.35.98 1.16 1.08 1.08 1.17.9.17v1.35l-1.62 4.03-.36 1.88-.9 1.53-.53 2.32-1.61 2.78-.18.99h.8l1.17-1.53 1.7-.71 2.06-2.7s1.17.37 1.44-.17c.26-.54 1.52-4.3 1.52-4.3l1.25-.27.63-3.94 1.08 3.67.9 4.66-.37 3.94-2.33 4.3-.62.72.36 1.44h1.7l1.97-2.07 3.4-4.57 1.35-4.57.72-8.87 1.52 4.12 1.43 4.04.72 3.13-1.07 4.12-1.35 4.84 1.8-1.25 3.76-4.21 2.96-4.4.8-3.22.72-6.18-.45-4.84.18-1.8.63-.98-.1-3.22-.62-1.35-2.15 2.87-.9.18-2.5-1.7-.63-.18-1.43-2.07-.99-3.31.09-3.76h-.54s.27-3.14.54-3.95c.27-.8.63-2.32.63-2.32l-.45-3.32-1.7-3.14-2.06-1.79-3.32-.98-3.85-1.08-2.24-1.8-4.22-.44-2.15.27-4.03-1.88-2.6-.99-3.31-.09-3.14-.36zm-144.17.2-8.27-.17-1.32-.66-1.98 1.65h-3.8l-4.14 2.31-2.8 2.15-1.5-.16-5.78 5.29.83 4.3.66 1.15.33 4.13.16 5.95-1.32 1-1.98 4.96-1.16 4.3-.99 8.42.83 6.28-1.16 3.3-2.31 3.65-.5 1.81 1.98-1.32-.33-.66 1 1.48 2.47-4.46 1 1.66.99.16v-5.62l-1.16-8.76 2.8 9.1.67 3.3.5-.17.33-7.44 1.81 4.14.17 3.63.83.66.5-.99v-5.45l-2.98-8.76-1.49-8.1 3.97 10.57 2.31 2.15 2.15 5.79 1.82 3.3.33 2.15 1.32-.82.5-.83-1.16-.83.83-.66-.17-2.97-.99-6.94h-.99l-3.47-7.27 3.14 4.46h1.32l.17-1.16-1.5-2.97-.32-3.48 2.97 4.3 1-.5L814 339l-.33-5.45 1 2.31-.17 2.65 2.15 2.64 2.15 1.16 1.65-1.98-1.16-.83-.5-2.31-1.65-1.99v-2.64l2.32 4.13 2.15 1.49 2.14.5 2.15-1.5 3.64-4.13-.5-.5-3.8.17-2.97-1.98-2.65-2.48v-2.15l.5.33 1.15 2.32 2.15 2.15 2.48.33 3.14.16 3.47-3.14 1.82-5.95.5-3.3-.66-4.14-2.15-4.79-1.32-2.15zM951.2 399l-8.76 9.08-1.16-.33-3.14 2.65-.16 2.81 2.98 2.32 1.15 2.14.83-.16 2.97 3.63 2.82 3.97 1.15.66.83 1.82-1.49 2.15.5 1.32 2.31-.33 2.65.17 1.65.99.66 2.98v1.15l1.82-.99 1.49-2.15.16-5.29-.33-1.48.5-3.97.5 5.28 1.15 1.66.83-.66.99 3.47 2.15 2.15 1.15 1.98.17-1.32-.17-2.65 1.16-2.97 1.32-3.47 1.33-.83 1.15.5 1.66 1.65-.17.66 1.49-.17-.33-3.96-2.15-2.98-3.3-2.14-1.66-1.66-1.49-2.64 2.32 1.32 2.48 2.32 2.31 1.15 1.65.33 2.82 5.46 1.81 2.64.33-3.63 1.33-4.14 1.32-1.81 1.65-.17 2.15.66-.5-2.48-1.65-3.14-3.3-2.97-3.48-2.65-2.97-1.32-2.65 2.31-.82.33-1.49 1.33-1.16-.5-3.8-3.64-.99-.66-1.65-3.97-2.48-1.15-3.8.33zm-99.34-2.15 1.16 1.98 1 3.14 1.65 1.82-.17.99 2.31 1.98 2.32 3.64 3.8 3.14-2.81 2.48-6.61 4.96-2.15.66-2.81-1.66.33 3.97 1.16 1.82-2.98-.66-3.47.33-2.15 1.82-.5 1.82-.82-1.32-1.16-1.82-.33-.33-.66.5.5.32.16 3.3-.82.67-.17.99-3.8 2.48-1-2.48-1.32-2.81-2.31-1.16-2.48.33-2.81 1.66.83-2.32 1.65-2.64 3.14-2.65 3.14-1.98 2.48-.99.66-.33-.83-.83-4.62 1.32-3.31 2.15-3.47 2.48-2.65 3.8-1.32 1v-2.82l-1.49-3.8-.5-2.48-1.48-1.82h-1.82l-2.48.5 1.82-3.14 3.64-1.98 1.65-2.81 2.98-2.48 2.47-.5 3.64.5 1.82 1 3.47.15 2.15-.16 2.64-1.32 2.15-3.97 2.98-4.3 3.47-1.82z"/></g><path d="M892.88 173.3v2.08l-.78 1.25h-1.37l-.83.9-.24.7 1.55 1.44 1.43 1 .6.72.35.18 5.96-.06.71.72 1.32-.96 1.6-2.44 5.07.06 2.68 1.97.18 1.6.6.25 1.42-1.25 1.2-.06.59.77h1.07l3.52-3.16.6-.83 1.3-.06-.17-1.02-1.43-.35-1.25-1.25-.36-2.09-1.13-.18-1.97 1.02-3.4 1.66-1.13.84-1 .06s-.43-.36-.67-.36h-1.3l-1.08.9h-.83l-.3-.3-4.59-.36-3.81-.95-1.97-1.31-1.25-1.02-.36-.35z"/><path fill="#fff" d="M895.74 178.77h2.62l.66.54v.71l-1.25.54-2.21.12-1.55-.24-1.07-.95-.24-1.91 1.43-1.6h1.37l.12.53zm17.51-.12-.41.36v.72l.53.35 2.62.12 2.86-2.26.06-.9-1.72-1.49h-1.5l-.23.42.36.78.47.71-.47.95z"/><g fill="#48489c"><path fill="#5656a6" d="m819.4 249.53 1.55 2.72-.12 4.85-.6.59-2.24-1.9-1.18-1.65-1.19-2.01v-1.78l1.19-.94 1.53-.36zm4.74 7.8 3.43-7.1v-1.89l-1.3-1.9h-1.78l-1.89 1.78v6.27zm5.91 0 1.9-.83 4.61-4.37.71-1.3-.36-1.07-1.3-.95-.82-.23-1.9.82-1.06 1.07-2.13 3.78zm8.17 3.08-1.66 1.18-1.9-.12-3.42-2.36.12-.48 2.13-.35 1.89-.83 1.9.12 1.06.94.35 1.07z"/><path d="M970 256.98h2.72l1.54.82h3.07v1.2l-1.77 1.3-3.43.94-1.54.71-1.18-.12-.83-1.06v-1.66l.71-1.42zm18.8-3.67s1.9-1.07 2.25-1.9 1.19-2.6 1.19-2.6l.7-3.07-.94-2.6-1.77-.48-1.54.12-.83.83-.23 2.25.82 1.89.71 1.06-.11 2.01zm-7.09.94 1.9-.94 1.17-2.25.13-2.48-.95-1.9-1.3-1.41h-1.78l-.47 3.3 1.3 1.3zm-2.25 2.13.71-.82.36-1.78-.71-2.6-1.07-1.18-1.3-1.19-1.42-.94h-2.01l-1.3 1.06.35 2.13 2.37 1.78 1.9.35zm8.65-5.62v2.13l-2.14.3-.15-2.89z"/><path fill="#4f4d9f" d="m971.7 428.42-1.82 2.48v4.13l.83 1.98-.83 7.77 4.13-5.78 1.49-2.98-.16-3.97-1.16-1.82-1.32-1.15zm13.72-8.6-1.32.33-1.5 3.14-.32 4.13.82 2.15v2.98l.34 1.82 1.48-2.15 2.15-3.64.33-2.64v-3.64l-1-1.65zm-36.04 21.49 2.15-1.49 1.66-1.16 2.15-2.8-.34-2.15-1.32-1-1.65-.66-1.49.17-1.65 2.31.17 4.63z"/><path fill="#4748a5" d="m848.72 426.77 1.66.66v4.46l-2.81 3.14-3.14 2.31.16-2.97-.82-.99v-3.14l.66-.83v-1.49l2.8-1.49zm-21.49 2.64 2.32-.17 2.48 1.49.99 2.81-1.49 1.32-.82 1.32-.5 2.15.33 3.48.17 3.14-2.81-3.48-2.32-3.63-.16-3.64.82-3.14zm-7.93-4.13-.66 2.31-.83.5-.99 1.32v4.96l-1.65-1-1.82-2.3-.99-2.49.33-6.28.83-2.64 1.98-.66 1.98.66 1.65 3.8zm.17-16.03-1 2.47-2.64 1.98c-.4-2.64.96-4.02 3.64-4.45z"/></g></g><g stroke="#000" stroke-width=".46"><path fill="#dfda4d" d="m825.56 261.24 3.2 2.95 2.36 1.54 1.9.71 2.36 1.3h4.97l4.5-.47 2.24-.83 4.38-.12 3.55-1.66 2.6-1.77 2.6-.12 1.42-1.42h1.9l3.78-2.84 5.32-2.36 5.56-2.01 6.04-1.19 2.48.12.94.71 1.19 2.01.47.95-.59 2.01-2.25 1.3-.47-1.42 1.42-1.18-.36-.71-2.25-.36h-1.53l-1.42 1.42-.24 3.2 1.9 1.65 2 1.3 1.78.12 2.13-1.3 2.84-2.48 1.65-2.84-.47-4.14-.95-2.6-2.83-2.13-3.55-1.42-6.15.12-3.67.94-1.42.48-3.9 2.6-1.78.12-3.9 2.6-1.54.59-1.78.7-2.72 1.2-5.2 2.36-3.55 2.13-1.78.23-4.14 2.6-5.91.48-1.07-.6-2.72-.35-1.77-.7-1.78-.96-2.48-2.95-.7-.48h-2.26l-.7.95z"/><path fill="#d9d24d" d="m894.4 251.3.72 5.91-1.3 3.67 2.72.12h3.2l2.83-.6 2.72-.23 2.49.12 2 .23 2.5-.94.11-1.9-.6-1.65 1.19-3.67-.47-.83z"/><path fill="#d9d34a" d="m922.44 257.8-.7.48-1.07-.48-.6-1.65 1.2-1.07 2.6.12 2.36 2.13v3.08l-3.2 1.54-3.3.82-3.68-1.06-2.24-3.08-.6-2.13.48-3.66.6-2.37 3.19-2.37 3.43-1.06 4.02-.6 4.61 1.19 9.35 3.55 6.27 2.84 6.98 3.67 4.14 1.89 5.44 2.6 3.31 1.18 3.79-.47 1.65.12 3.31-1.07 2.25-.23 4.97-5.8 2.01-1.18-.23 2.6-3.32 3.67-2.84 3.2-1.18.11-1.54 1.3-2.95-.12-6.86.36-3.32-1.07-5.2-1.06-6.15-2.72-4.85-2.49-2.37-.35-3.67-1.9-2.24-.23-1.3-.95-4.03-1.18-3.31-1.18-3.2-.36-2.48-.35-1.18.7-1.18 1.66-.6 2.25.83 2.72 1.42.24 1.3-.6.48-.94z"/><path fill="#ddd457" d="m852.56 388.2-1.5 1.5-2.38-1.5 1.08-2.81 3.88-.65 2.16 3.24-.87 3.23-3.02 3.02-3.66 1.08-3.67.43-4.31-.22-5.83-1.3-4.53-5.38-3.45-6.9-2.58-5.83-3.02-11.86-1.51-4.96-.65-4.53-3.23-6.25 1.29-1.08 11.21-9.92h.65l2.37-2.16 4.1-7.76.43-.43 1.3-4.75-.22-8.2-1.08-3.88-2.58-4.3s-.87-1.52 0-1.3c.86.21-2.38-3.67-2.38-3.67l-3.88-4.1v-.86l-2.8-2.8-1.94-1.08h-1.51l-.65-.87-2.8-.86-1.3 1.3-.86 2.8v1.08l1.94.86.64-.43-.64-1.08.21-1.3 1.52-1.07 1.72 1.29-.22 3.23-1.29 1.52-3.23.21-2.6-1.3-1.07-2.15-.86-3.23.86-1.94 1.3-1.08 2.15.43 3.45-.86 1.08-.44 2.8.43 1.94 1.95 2.16 1.3 5.4 6.03 1.5 1.5 2.8 4.1 3.46 7.77.86 5.4-.43 5.38-2.8 7.77-3.24 4.96-4.53 5.6-7.76 6.48-1.08.21-1.73 2.16 3.02 6.47 4.75 19.84 3.88 8.2 5.6 5.82 4.32 2.37 5.61.65 4.96-1.3 2.16-1.93z"/><path fill="#dbd45d" d="m861.62 392.72-.65 1.08.87 1.72 2.16.43 1.5-1.94v-2.16l-1.3-2.37-1.71-.43-1.94.22-2.81 1.94-1.51 1.72-.86 4.1 2.15 6.69 3.46 4.53 8.62 5.6 9.28 3.45 5.82.86 4.31 4.32 2.16 5.17-1.94 3.24-2.59.22v-1.3l1.08-.21 1.3-1.3-.66-1.3-2.58-1.5-2.16 1.72-.22 3.89 1.94 1.94 2.8.64 2.17-.86 2.15-2.37.22-2.8-.86-4.1-3.67-5.18-3.88-1.94-9.7-3.45-6.26-2.37-4.53-3.24-4.1-4.31-2.37-6.25 1.08-4.1 2.37-1.73 1.3.43z"/><path fill="#e5dc5e" d="m939.9 392.93 1.73 1.08.22 1.73-1.94.86-2.59-.43v-2.59l1.5-3.23 4.32-.22 1.94 2.37 1.3 4.53-1.3 4.75-4.96 4.1-6.9 4.74-7.55 3.23-11.21 5.4-3.24 2.36-2.8 5.18 1.73 3.02 2.15.43v-1.07l-.64-.87.43-2.37 1.3-1.3 2.58 1.52.65 3.23-2.38 2.38-2.59.43-4.1-1.95-1.29-2.15-.21-3.02 1.72-2.8 3.45-3.46 5.4-3.02 7.76-3.23 11.43-5.6 7.98-8.64v-3.44l-1.73-2.16z"/><path fill="#d7d643" d="M949.83 386.68v1.94h1.5l1.52-.22.64-2.58-1.29-1.73-1.73-.21-2.15.43-2.37 1.72-.22 3.45 1.08 2.37 2.15 3.24 3.89 1.94 3.88 1.08 5.82-.43 6.69-3.24 6.25-4.52 2.59-6.26 3.23-11.43 4.1-14.45 2.59-5.39 2.15-1.94-.64-.86h-1.94l-4.96-3.67-5.18-3.23-6.69-7.98-3.45-6.69-1.07-9.49 1.94-9.27 4.1-6.9 6.68-5.61 6.04-4.31 6.04-.22.86 2.37-.86 1.95-1.3-1.08-1.94-.22-.86 3.24 2.15 1.07 3.89-.43 1.08-2.58-.43-3.67-2.8-2.59-4.97.43-3.67.43-4.53 2.6-4.74 4.95-3.23 4.75-4.1 6.68-1.3 6.04.22 10.57 5.4 11.43 4.74 6.04 9.27 6.25 1.5 1.08-2.8 6.25-4.1 13.16-2.58 10.56-2.15 4.53-6.9 6.04-7.77 3.02-6.69-.21-3.23-2.38-.86-2.15-.22-3.24z"/><g fill="#5db7d2"><path fill="#44b3cc" d="m890.87 284.62-.33 3.3 1 7.27 3.63 20h1.82l.16-3.14z"/><path fill="#50aece" d="m900.13 313.7-6.61-28.92 4.95 29.42z"/><path fill="#50afce" d="m901.29 313.38 2.3-.83-8.59-27.77z"/><path fill="#50abce" d="m897.48 283.13 10.09 28.92-1.99.66z"/><path fill="#50b0ce" d="m909.05 311.39-9.75-29.25 12.4 28.92z"/><path fill="#50b3ce" d="m912.69 309.9-11.57-27.93 14.38 28.26z"/><path fill="#64b4d1" d="m822.1 258.77-1.57.24-1.92 1.56-.84 2.03.13 3.72 1.31 2.28 2.28 2.4 1.08 1.8-.6 3.23-3.24 2.04-3.47 2.52-1.32 2.04-.48 2.28.12 2.4.48.6 2.64-.13 1.55-.47 2.4-.24 2.28.36 3.48 2.4 4.91 4.43 2.16 2.52-1.56-3.72-.84-4.43-.6-4.44.73-2.64 1.2-1.68 1.31.72 1.08-.6 1.44.72 1.2-.72 1.92.6 2.4-1.2 3.6-2.75h2.51l.72.6 1.44-.6.84 1.2 3-2.28 2.4-1.2 2.4.96 3.11.72 1.2-1.08 2.52-.12 3.48-.48 1.68 1.2 1.68 4.07 1.2 1.32 1.8.36.95.48 1.68 4.2 1.2 3.36.6 4.07-.24 1.08 1.08-.12 1.68 1.68 1.44.72 1.2 1.32.35 2.16.96-.12.84-1.08 1.68.36 1.44 1.56 1.44.12-2.52-16.67-2.4-1.32-.12-3.84 5.64-2.04.12-1.43-.84-2.4-1.08-2.16-2.16.24 1.68-5.4 4.2 4.32-1.92.24 1.68 6.6 7.2-1.2 1.31 1.8-.48 1.55.6 1.08.36 1.92 2.16 2.76 5.64 12.23 5.4 11.03 2.4-2.52 2.51-.6 2.76-1.92 1.68-.6 1.2-1.55 3.11-.12 4.68 4.2.72-1.09 4.44-.24 1.43 2.88.24 1.2 1.8-.72 4.92 1.08 3 2.4 2.27.96.6 1.2 1.32-1.56.96.12 1.56.36 4.92-.36 2.52-5.04s2.28-4.67 3.36-5.87 5.51-6 5.51-6l5.4-3.6 4.08-2.28 3.83-.48 3.6-.12-.12-3.23-1.44-3.12-3.6-4.68-.72-3.71v-2.28l3.12-2.04 3.72-3 .12-3.12-1.08-3.84-2.16-3.23-.72-.6-1.2-.24-1.67 1.08-3.36 4.67-3.72 3.72-4.56 2.76-5.27.6-8.4-1.32-5.87-1.8-7.32-2.76-7.67-3.6-4.2-.84-6.36-3.11-2.4-.12-.11 1.08 1.91 1.91-.47 3.36-1.68 1.8-3.12.12s.36.24-1.44.72-3.36 0-3.36 0l-3-1.8-2.87-.48h-5.76l-6.35.6-7.2.6-3.6 3.12-3.12.48-3.35-.84-3.48-4.08.12-2.27 2.52-3.12-1.32-.12-7.92 2.88-4.91 2.75-2.64 1.68-1.92-.12-2.52 2.28-3.12.24-1.8 1.92-.6-.24-5.03 1.32-4.56.84s-5.75.84-6.35.84-6.12-.72-6.12-.72l-4.08-2.04-1.91-2.16-1.8-1.2-2.4-2.52.12-1.92z"/><path d="m893.77 318.6-.17 3.74 2.73-.68-.34-3.57zm3.58-1.03v3.07h1.19v-3.23zm2.72-.68v3.4l1.7-.5-.17-3.07zm3.57-.68.18 2.56h1.52l.18-3.07zm3.4-.68v2.73h2.39l-.34-3.07zm3.75-.85v2.55l2.04-.5-.51-2.73z"/></g><g fill="#ccc"><path fill="#fffcfc" d="M973.63 345.67v2.69l.63.36.18.9 2.78.44-.27-.9-1.8-1.7-.44-1.25z"/><path d="m916.93 309.9-.46-.92 1.53-1.68 2.9-.6 2.28-1.84 2.9-1.83 3.04-.76 3.97 3.35-1.38 1.07-1.37-.15-2.59 1.68-1.98 1.22-1.68-.3-1.52-.47-.91.77h-1.38l-1.07.6zm18.6-4.28 1.52-.6h2.29l1.22 3.35v1.06l1.98-.6h3.66l2.59 1.21 2.28 2.3 2.44 1.36h1.98v-1.06h1.98l.46.6 2.13.31 1.53-.46.45 1.38-.3 1.82-.46 1.38.61 5.79 2.74 9.9 5.19 8.39-1.98-.92-4.43-.6-1.37.6-1.83-.15-2.13 1.98-1.07.15-.91.76-1.68-2.28-6.4-8.54-1.67-1.82-3.66-7.93-5.03-10.82-.3-4.42-1.23-1.22-.6-.15zm-1.83 58.99 2.59 1.22-.15-1.22 1.82 1.22s1.68.3 2.6.15c.9-.15 2.9-2.13 2.9-2.13l.6-4.12 3.96-6.86 2.9-1.67.91-.16 2.74-3.05 5.19-2.74 2.44-.91 3.96.76 2.9 1.37.6 2.44.46 6.55 1.83 1.38 1.53-.77 1.37-1.67 3.35-1.22 2.44.3-.16 3.05-1.06 5.64-1.68 5.94-2.74 9.45-2.59 6.7-6.4 4.89-5.03 3.2h-8.08l-2.44-2.3 3.05-.76 1.07-1.82.3-3.2-2.74-1.98-2.74.15-3.66 2.13-1.37 1.83-.77 2.13h-1.37l-3.05-.15-2.28 1.53-1.68 2.13-.46 3.2.77 2.29 1.67 1.06 3.05-.15.76-.6h.61l-2.74 3.04-3.5 3.66-4.58 3.04-3.04.92-5.03 1.83-3.66 1.67-4.12.16-4.27 3.8-2.9 2.3-1.97 2.74-.92 4.72v3.5l2.29 3.05-.3.92-1.38-.16-.76-.6h-3.35l-.92-1.38-1.68.3-2.43.77-1.07 1.07-1.83-.92 1.07-2.74.15-2.59-.76-3.5-2.29-4.58-1.98-2.13-3.5-2.14-6.71-1.98-7.31-2.74-5.34-2.6-1.98-3.04-.76-3.8 1.22 1.21-1.07-4.27 1.52 1.98 1.07.15 3.05 3.82 2.44.46.61.3h.76l.15-.3 2.29 1.22 2.6.76h3.65l-3.2-.76-3.97-1.83-4.11-2.3-2.29-3.04-.3-1.37-1.22-.15.15-.92.92-1.06 1.22.15.3.91 1.22-.46 1.98 1.53 3.36.3 2.43.3-2.13-1.21-3.35-1.83-3.36-3.05-1.06-.15-3.36-5.18-1.83-5.03-1.52-5.33v-6.25l1.98-5.03 2.9-4.57 1.67-1.53 1.37.46 3.5-2.6 2.45-.75 3.2.15 2.44.76 3.5 1.07 1.68 2.13 1.67.15.46 1.22-.91.3 1.22 1.68-.46 1.07 1.07 1.37-.15 1.98-1.98 2.29 1.37 2.28-.16.77 1.68 1.83 1.52 2.28 2.6.46 6.09.15 4.42-.46 2.59-.15-1.07-1.22 1.83-.46 2.29-.45 4.11-3.2s3.2-5.5 3.81-6.25c.61-.76 1.83-3.36 1.83-3.36l5.18-5.33 1.98-.76 4.58-2.29h4.72l1.22 1.38 1.98.3 1.83 2.29.92 6.25-2.9 1.98h-2.44l-1.67-1.07-.46.91zm-73.96 22.46s.36-.72.72-.72 1.17-.09 1.17-.09l.08-4.66s-.62-.35-.71-.71c-.1-.36-.1-2.06-.1-2.06l-.62-.63-.09-18.82-1.8-4.84-1.51-2.6-1.26-.98-1.97-.18-2.24 1.43-1.35.72-2.86-.63-1.08-.72-1.7-.08-1.53-2.78-3.13-.99-1.43-.44-4.3-.36-1.26-.1-1.61 1.08-1.89 2.24-1.34 2.6-.18 4.21.99 1.35v1.97l.45.8v1.7l-1.44-1.7-1.43-3.49-.72-2.15-.63.9.18 2.86.1 2.33.8 2.15.8 3.05 1.35 3.85 1.08 4.13.98 3.94 1.88 3.58 1.62 2.24 3.67 3.68 2.33 1.6 3.58 1.26 4.04-.08 1.25-.9-1.61-1.52s-.27-.99-.27-1.35.54-2.15.54-2.15l1.7-1.8 4.93-.89 1.7 1.26 2.24 2.5zm53.94-73.24v2.55l1.53-.34-.34-2.2zm2.55-.68v2.04h1.03V313zm2.22-.17.17 1.87 1.7-.34-.17-2.21zm3.4-1.36v2.55h1.02l.34-2.55zm2.9-.51v2.21l1.35.17-.34-2.38zm2.72-.68v2.55l1.36.17v-2.21zm2.72-.85-.51 2.89h1.53l-.17-2.21zm2.04 0v2.38l2.21-1.02-.34-2.56z"/></g><path fill="#76401b" stroke="none" d="m890.05 266.6-1.5 4.46 5.13-.83z"/><g fill="#784421"><path d="m932.2 351.56-4.8 1.32-3.3 2.65-4.3 4.46-3.47 6.28-3.97 4.8-7.27 2.97-6.62.16-5.12-1.48-1.82-2.82-.5-3.63-.65-4.46-1.5-2.81-2.3-2.81-2.65-1.82 2.81-11.9.83-2.65v-3.47l.5-4.63 2.47-4.13 2.48-2.31 4.3-1.99 7.6-1.98 7.6-2.48 7.94-1.82 8.92-2.15 3.8-.33-.32 4.96.99 1.82-.17 12.9-.82 11.4zm1.81-.17 4.63 1 3.64 2.14 1.48 2.15 1.99-1.65.82-2.81 3.47-1.98 5.3-4.63-4.47-6.78-2.31-3.3-3.14-3.64-3.8-6.94-4.3-9.43H935l-.33 18.68.17 6.78z"/><path fill="#a05a2c" d="m886.9 279.33.17 3.47 14.22-4.47v-1.32z"/></g><path fill="none" d="m846.53 359.35.64 3.21 2.14 3.85 4.06 3.53-3.42-2.46 2.56 3.43-4.38-2.78 4.28 2.78-4.5-6.42zm-5.25 14.23-1.6 1.7-2.78-.42.1 3.53 3.86 5.67-3.85-5.35.1-3.63 2.68.2zm-4.6 9.84-.85-2.46v-2.78z"/><g fill="#666"><path d="m887.28 369.73-1.29 1.28-2.14.54s-2.14-.22-2.56-.54a71 71 0 0 0-2.79-1.71l2.79 1.5h4.92zm3.42 5.03.53 3.1 2.14 3.74 1.39 1.82z"/><path fill="gray" d="m898.08 383.53-2.04-.64-1.81-1.72-2.57-4.6 2.67 3.43z"/><path stroke-width=".14" d="m880.22 371.01.32 9.1.85 3.52 1.28 2.57 1.72 2.67.43-1.06 1.81 1.28.54-.54-1.82-1.81-1.82-2.47-1.07-2.56-1.17-4.39-.43-4.7h1.5l-.43-.86z"/><path fill="gray" stroke-width=".14" d="m920.64 385.34 3.43-.32 3.2-2.67.54-1.82 1.5-1.07-.22 3.1.75 1.6 2.03.65 1.28 1.17 2.25.22 3.21-2.03 2.35-2.46 2.04-1.82 1.5-.64.53-3h.96l.21-1.39-.42-2.67-.97-2.57-1.28-1.71-2.14-1.93-.96.43 2.35 2.25 1.93 2.46.1 3.85-.53 1.5-2.89 3.31-3.74 4.07-1.82.85-3.85-.53-1.39-1.82-.32-1.28-.43-1.29v-1.5l.54-1.06-3.96 4.49-1.6.1z"/><path fill="gray" stroke-width=".23" d="m972.09 357.32.85-.75.97 1.4.21 3.84.1.11v2.57l-1.49 2.78-3.2 3.42-3.75 1.6-3.42.43-2.36-.53-.85-1.4-.54-1.38v-3.2l.65-1.3.2.65-.1 3.53 1.18 1.39 2.46.75 2.24-.75 2.68-.75 2.24-1.28.11-.75-.86-.1.22-.33h1.28l1.6-3.2.54-2.68v-2.14l-.64-.64-.32-.54z"/><path d="m887.38 406.84-5.35 2.57-4.92 1.5-2.67-.43 5.24 1.92 2.03-1.6 3.21-1.6z"/><path fill="#999" stroke-width=".18" d="m891.55 417.64 2.89.86 1.39.53 3 .43-2.25 1.4 2.88.63s-2.77.32-3.2.32-1.93.96-1.93.96-.32 1.72.64 1.61c.97-.1 2.36-.32 2.9-.32s2.24.32 2.24.32l1.07.86-.64.96-4.5.1.65.54h3.63l-3.53 2.35 4.28-.1 3.42 1.39v.85l-3.31.75-.75-1.28-4.28 1.17-.85 1.07-1.6-1.07 1.27-2.78-.1-2.88-.65-2.25-1.5-3.31z"/></g><g fill="#e2d67e"><path fill="#e4cb5e" stroke-width=".23" d="m868.89 274.85-3.45.42-2.43.3-1.6.95-1.31-.78-.78.48-2.9-1.55-3.4 1.85-1.6 1.42h-1l-.78-1-1.55 1.06-.89-.89-.95-.53-6.41 4.63-2.32-.77-1.01.9-.42.35-.24 1-.95-2.5-.83.6-1.42-.47-1.01 1.42-.24 3.75.6 4.7 1.54 5.16 1.42 2.14 1.2.24.35-1.49.65 2.8.95.94.3 5.05 3.86 8.68.36 4.45.18 7.73-1.43 1.72-1.84 2.8.06.82-1.9 3.63.12 5.52.41.48.12 5.29 1.49.12 1.19 1.3 2.61-.23v-1.6l.36 1.83 2.08 2.74 1.78 1.42 1.24.06.66-.95-.06-5.94.41 6.54 1.31-.06 1.67-1.49 2.2-.3.7.06s.6.36.9.9c.3.53 1.37 1 1.37 1l.77 1.61.95.36.47-1.01-.65-12.66-.65-10.34-.71-13.13-.72-16.75-.12-5.35-.83-.71.06-1.72 2.02-.6 1.19-.35-.54-1.6-.59-5.36v-2.02l.71-.59 1.43-.06 1.01 1.19 1.96 8.14 1.01.35 3.57-.05 8.08 12.77 2.85 4.28 3.92 7.3 5.11 7.31 1.6 2.14 1.07.12.36-7.78 2.26-1.96-1.9-13.43-1.55-.3-2.14-1.96-1.18.18-1.2 1.96-1.48-1.66-.18-1.9-1.36-.9h-1.01l-1.3-1.77-.72-.18-.83.77-.18-6.06-1.3-2.85-.25-1.72-2.43-3.45-2.56-.6s-1.12-2.55-1.12-2.9-.48-1.61-.48-1.61z"/><path fill="#dcc56a" d="m871.03 356.13-1.72-2.2-.6-2.32-.24-4.99-.53-4.75-.95-7.37-1.55-9.09-1.24-7.36-.48-4.34-1-5.11-.43-3.5-.41-2.92-.36-4.16 1.19 3.75 1.96 8.73 2.2 6.06.89 4.1v2.32l1.54 3.32 1.01 4.22 2.08 8.91 2.2 7.31 1.13 5.29.18 2.02-2.32.77-1.13.54z"/><path fill="#e2cc75" d="m882.61 354.35 1.25-6 1.49-4.58.65-3.09.48-2.5-.12-3.73-1.01-2.2-4.64-9.33-2.79-5.64-1.13-2.92-2.08-3.62-2.79-5.82-2.5-4.34-2.07-3.57-1.96-2.61-.6.54 1.78 6.65 1.49 5.7 1.42 6.3 2.38 8.26 1.37 5.7 1.36 3.5 1.31 4.94 3.62 11.76.72 3.1 1.78 3.56z"/><path fill="#ddd690" d="m864 357.56-1.87 1.87.17.68h2.2l.7-1.53zm-2.22-2.55.34 2.04 1.54-.17.85-1.53-.17-1.2-1.53.35zm3.75-.85.5 1.36h2.9v-1.02l-1.19-.51zm-.34-2.55.17 1.53h2.04l1.02-1.37-1.19-1.02zm-4.09.5-.34 1.03 1.03.5 2.21-.5v-.85zm0-2.55v1.2l2.22.17.68-1.02-.85-.68zm4.43-1.02-.34 1.02 2.04.51 1.02-.85-1.53-1.02zm-4.25-2.72-.34 1.53 1.36.17 1.19-.85.17-1.19-1.36-.17zm3.74-.68v1.53l2.21.5v-2.2l-1.02-.34zm-2.04-2.55h-2.05l-.17 2.38 2.38-1.02zm1.7-.68-.85 1.7h2.38l1.02-2.21-1.36-.34zm-.51-2.9.17 1.37 2.21-.34-.85-1.7zm-2.21.52-1.53-.34.17 1.87 2.2-.34zm-1.54-3.07-.17 1.7h2.73l-.51-1.7zm3.24-.85v2.04h2.55l-.51-2.04zm-1.36-1.53-1.7 2.04-.69-1.7 1.2-2.04zm1.53-1.53-.34 1.7h2.2v-1.7l-.84-.51zm-2.73-2.04h-1.19l-.17 1.36h2.04z"/><path d="m863.49 330-.34 1.53h1.7V330zm-.51-3.07-.34 1.53h2.38l.17-1.36zm-2.73.68-.34 2.22 2.04-.85v-1.2zm-.17-3.06-.68 1.36 1.02.51.86-1.19-.34-1.02zm2.81-1.15-.53 1.13.88 1.52 1.22-.3.06-1.7-1.38-.7zm-2.89-1.72-.44 1.23.88.79s.74-.3.74-.54.24-1.03.24-1.03l-.98-.6zm2.36-.63-.3 1.37.69.44 1.23.1s.04-.93.04-1.27c0-.35-.88-.74-.88-.74zm-2.6-1.87-.1 1.37 1.03.25s.54-.54.54-.73c0-.2-.5-1.08-.5-1.08zm2.3-.4-.2 1.14s.4.54.89.54.69-.5.69-.69c0-.2-.2-1.03-.2-1.03zm-2.4-1.51-.35 1.13.98.44.74-.98-.79-.54zm2.3-.69-.14 1.03s.68.49.93.34c.24-.14.54-.78.54-.78l-.89-.59zm-3-2.2-.24 1.27s.74.68.93.59 1.23-.4 1.23-.4l-.54-1.27s-.64-.15-.83-.15c-.2 0-.6 0-.54-.05zm2.56-.65-.3 1.23 1.67.3s.25-1.38-.1-1.38-1.17-.1-1.27-.15zm-2.4-1.67-.3.74.83.64.7-.4-.45-.93zm2.5-.49-.64.99 1.03.44.88-.69zm-2.46-2.15-.44.73.5.79.78-.64zm1.77-.5-.39.54.59.79.98-.54.1-.44-.44-.54zm-2.01-1.52-.44 1.03.98.54.54-.68-.34-.79zm1.86-.98-.54.69.74.73.93-.54-.63-.78zm-1.86-.74h-.4v.84l1.13-.1-.2-.84zm1.52-.98-.05.93 1.03-.14-.05-.84zm-1.77-.73-.34.49.59.78.59-.54s.2-.73 0-.73zm.1-1.62-.44.39.54.54.69-.34zm.15-1.23-.54.78h.93zm1.23.44.1.79h.78zm.05 1.28s-.2 1.03 0 1.03.73-.15.73-.15z"/><path fill="#d3c55f" d="m886.3 326.54-1.07 1.48.1 1.52 1.42 1.32 1.33-1.86z"/><path fill="#d3c75f" d="m888.22 324.43-1.32 1.92 1.27 2.01 1.33-.83s.2-1.67-.05-1.97-1.28-1.18-1.23-1.13z"/><path d="M885.77 321.73s-.6.89-.6 1.08.35 1.62.35 1.62l.84 1.08s.93-.3 1.03-.59l.44-1.42-1.13-1.47z"/><path fill="#d3c95f" d="m883.7 323.84-.24.5s-.14 1.17.15 1.37 1.18 1.13 1.18 1.13.78-.5.78-.74-.59-1.77-.59-1.77l-.68-.68z"/><path d="m881.7 320.46-.4.93.5 1.28.93.93s1.03-.2 1.03-.4v-1.37l-.64-1.08-1.08-.49zm2.2-.89-.24.74s.1 1.03.3 1.13l.97.49.69-1.13-.69-1.42zm-1.08-2.35-.49 1.08.3.78.68.35s.79-.4.79-.6v-1.02l-.88-.54zm-2.25.78-.64.84.24 1.03 1.08.34.74-.88-.6-1.18zm-.84-2.2-.54.48v.64l.83.64.79-.4-.2-.88-.39-.59zm2.16-.64-.34.78.49 1.03.78-.44-.15-.88zm-1.47-2.11-.2 1.76 1.23-.2.3-.92-.45-.7zm-1.28.39c-.2.05-.88.1-.88.1l.2 1.76.78-.1.3-.63-.1-.79zm-1.47-1.77-.59.74.59.98.54-.1.34-.73zm1.91-.5-.49.55.4.59.49.05.49-.6-.44-.53zm-3.14-1.26-.34.93.93.24.24-.59-.29-.54zm1.62-.5-.1 1.08 1.03-.1-.1-.88zm-2.8-1.22.05.93h1.03s.35-1.08-.1-1.03-.88.15-.98.1zm1.97-.44v.93l1.08-.15-.25-.83zm-1.43-.99h-1.08l.15.94.98-.1zm.7-.63-.16.88 1.13-.05v-.83zm-1.09-1.43-.05 1.03s1.23.2 1.23 0-.25-.88-.25-.88zm-.69.1h-.98l.1 1.13h1.18l.15-.79zm-2.3-3.34-.5.5 1.53 2.4h.93l-.88-1.23s.14-.59-.1-.68-.44-.1-.44-.1z"/><path d="m872.61 300.53-.34.44 1.82 1.23v1.03l.83.78.69.2-.25-.84-.34-.93-.69-.54-.49-.88-.44-.1c-.2-.05-.4-.34-.4-.34z"/></g><g fill="none"><path fill="#000" d="m851.58 283.38-.18 8 .52 2.54v4.43l.17 6.8v4.6l-3.92-4.77 4.09 5.1.68 4.94 1.02 1.87-.68 2.56.17 4.25v12.08l-3.92-9.53.34 19.74.35-11.4 1.36-2.04 2.21 5.61.34 2.56-.51-9.53"/><path d="m835.58 282.7-.68 5.1 1.36 3.57.18 4.94-.18-5.45-1.36-2.72zm4.94 3.06v6.46l1.19 1.53-.34 6.81 1.02 2.04v11.23m5.1-35.73-1.36 2.55.51 4.6.34 3.23-.5 5.1m31.98-3.06-.17 7.83.85 4.25.68 4.6m5.96-5.28 1.53 17.02m-45.26 8.33.34 9.87.68 4.26.17 4.6"/></g><path fill="#d38d5f" d="M893.26 345.48v-1.7l7.5-1.7-1.2.85.17 5.1m13.95-6.8V339l7.49-1.36-1.7.34.34 5.28m-22.3 14.46v-1.7l6.3-1.2-.17 6.3m8.85-5.78v-2.72l6.8-1.2.35 5.96m-29.27-24.33v4.25l-1.53.34v-2.04zm3.58-.68.17 4.25h-1.2l-.34-3.74zm2.71-.85-1.19.68v3.4l1.7-.34zm3.24-1.2-1.2 1.03v3.06l1.88-.17zm3.74-.84-1.7.68v3.4l1.88-.34zm3.58-1.03-1.53.18v4.25l1.87-.34zm4.59-.85-1.7.68.17 2.9 1.7-.51zm4.25-1.19-1.7.85v2.9h1.53zm3.4-1.02-1.35.68v3.24h1.7zm3.75-.34-1.36.85v2.55h1.87zm4.08-1.36-1.53.68.17 2.55 1.54-.34zm4.43-1.02-1.7.85v2.72l2.04-.17z"/><g stroke-width=".91"><path fill="#fffcfc" d="m891.56 368.79 26.38-5.95"/><path fill="#c87137" d="m885.1 352.29 2.72.34 44.92-10.21"/><path fill="#c87137" stroke-width=".87" d="m887.65 340.72 6.98-1.03 38.79-10.2"/><path fill="none" stroke-width="1.19" d="m935.12 327.96 6.64-1.2"/><path fill="#fffcfc" stroke-width="1.32" d="m935.12 341.9 14.63-3.9"/></g></g><path fill="none" stroke="#000" stroke-width="8.22" d="M767.32 145.15V398.8c3 36.32 78.69 59.18 131.45 97.75 69.22-46.42 136.34-55.81 139.04-107.86l.85-243.53z"/></svg>