<svg xmlns="http://www.w3.org/2000/svg" viewBox="0 0 1000 500"><path fill="red" d="M0 0h1000v500H0z"/><path fill="#fff" d="M250 0h500v500H250z"/><path fill="red" d="m500 46.88-34.12 63.62c-3.87 6.92-10.8 6.27-17.74 2.41l-24.7-12.79 18.4 97.73c3.88 17.85-8.54 17.85-14.67 10.13l-43.1-48.25-7 24.5c-.8 3.22-4.35 6.6-9.68 5.8l-54.5-11.46 14.32 52.04c3.06 11.59 5.45 16.38-3.1 19.43l-19.42 9.13 93.82 76.21a12.3 12.3 0 0 1 4.27 12.77l-8.21 26.94c32.3-3.72 61.24-9.32 93.56-12.77 2.86-.3 7.63 4.4 7.61 7.7l-4.28 98.73h15.71l-2.47-98.51c-.02-3.3 4.31-8.23 7.17-7.92 32.32 3.45 61.26 9.05 93.56 12.77l-8.2-26.94c-1.33-4.7.55-9.89 4.26-12.77l93.82-76.2-19.42-9.14c-8.55-3.05-6.16-7.84-3.1-19.43l14.32-52.04-54.5 11.46c-5.33.8-8.87-2.58-9.68-5.8l-7-24.5-43.1 48.25c-6.13 7.72-18.55 7.72-14.68-10.13l18.4-97.73-24.69 12.8c-6.93 3.85-13.87 4.5-17.74-2.42"/></svg>