<svg xmlns="http://www.w3.org/2000/svg" xmlns:xlink="http://www.w3.org/1999/xlink" viewBox="0 0 900 600"><path fill="#fff" d="M0 0h900v600H0z"/><path id="a" fill="#435125" d="M434.8 498.25a1 1 0 0 1-.35-.24l-.12-.12c-.33-.3-.86-.82-1.58-1.65a184 184 0 0 1-4.7-5.68c-3.1-3.88-5.68-7.23-6.17-7.86l-.8-1.03-7.76-2.4-5.67-2.64 3.03-3.4 10.4 4.45 7.78 1.6 14.36 10.56h-.01c-.03.03-2.1 1.75-4.14 3.6-.91.84-2.06 1.9-2.87 2.79a9 9 0 0 0-.93 1.14q-.2.32-.26.47l.9-.55.96.75-1.97.18zm-53.34-16.02c-6.78 0-13.47-1.87-19.9-5.57s.84-1.61 2.88-3.1c1.94-1.43 5.44-3.13 11.1-3.15h.12c6.7 0 14.9 2.27 24.37 6.77-.32.2-7.76 5.05-18.57 5.05l.01.01zm-29.37-6.51a4.2 4.2 0 0 1-3.17-1.33 6.4 6.4 0 0 1-1.42-2.88 15 15 0 0 1-.35-4.22 4 4 0 0 1 1.56-.35h.11c2.51 0 4.5 2.17 5.34 4.33q.72 1.85.27 3.07c-.3.81-1.24 1.37-2.34 1.37zm51.68-5.99c-17.36-2.48-24.72-8.76-27.83-13.58-3.33-5.15-2.64-9.91-2.64-9.96v-.02h.02s1.06-.29 2.66-.3c4.61 0 16.43 2.33 27.8 23.85v.01zm-35.58-3.44c-7.42 0-13.06-1.28-16.78-3.8a10.3 10.3 0 0 1-3.69-4.13 7 7 0 0 1-.6-2.02 23 23 0 0 1 8.95-1.68c5.73 0 14.45 1.87 23.64 10.78h.01c-4.2.56-8.09.85-11.54.85zm-35.91-1.38c-7.82 0-18.56-2.39-25.26-9.09H307l.02-.01a79 79 0 0 1 17-2.08c7.33 0 12.94 1.42 16.68 4.22q1.95 1.46 2.18 2.79c.13.74-.26 1.55-1.06 2.15-1.68 1.27-4.69 1.95-8.94 2.01l-.6.02zm-25.34-13a3.2 3.2 0 0 1-2.48-1.17 6 6 0 0 1-1.1-2.52c-.42-1.85-.3-3.65-.3-3.67v-.02a3 3 0 0 1 1.22-.28c1.16 0 2.04.63 2.6 1.16a7 7 0 0 1 1.68 2.65q.55 1.53.18 2.63a1.9 1.9 0 0 1-1.8 1.21zm58.53-1.32a4.2 4.2 0 0 1-3.17-1.33 6.4 6.4 0 0 1-1.42-2.88 15 15 0 0 1-.35-4.22 4 4 0 0 1 1.56-.35h.11c2.51 0 4.5 2.17 5.34 4.33q.72 1.85.27 3.07c-.3.82-1.25 1.37-2.34 1.37zm-28.51-1.18c-15.74-.55-23.9-5.03-27.98-8.68a18 18 0 0 1-4.24-5.45 12 12 0 0 1-.91-2.44h.02s1.49-.54 3.88-.59h.37c5.3 0 16.11 2.23 28.85 17.15zm17.09-1.59c-12.66-1.93-19.83-7.36-23.62-11.58-3.97-4.43-5.16-8.55-5.21-8.74a19 19 0 0 1 4.97-.47c6.37.14 17.94 3.02 23.86 20.78zm-65-6.08c-4.15 0-8.17-.48-11.96-1.43-6.63-1.65-9.47-4.19-10.7-6.02a6 6 0 0 1-1.02-2.53c-.09-.56-.04-1-.03-1.07l.03-.02c.01 0 4.4-1.23 10.46-1.32l.73-.01q4.4 0 8.56.83a27.2 27.2 0 0 1 16.05 10.14v.01c-.07.01-5.09 1.42-12.13 1.42zm29.39-10.68c-1.27 0-2.4-.46-3.17-1.3a6.5 6.5 0 0 1-1.42-2.91c-.5-2.02-.37-4-.35-4.19a4 4 0 0 1 1.56-.35h.11c2.5 0 4.49 2.18 5.34 4.34q.7 1.78.24 3.03c-.3.84-1.22 1.38-2.3 1.38zm-22.1-3.03a48 48 0 0 1-11.97-5.22c-5.54-3.42-12.32-9.45-13.15-18.83v-.01h.01s.52-.13 1.28-.16h.34c1.65 0 5.04.46 9.14 3.58 5.22 3.98 10.04 10.92 14.35 20.65zm14.43-.53c-.04-.01-4.23-1.7-9.47-6.08-4.88-4.1-11.74-11.46-16.71-23.33 0 0 1.14-.61 2.88-.72l.3-.01h.47c2.41.08 6.08 1.08 10.15 5.47 4.68 5.05 8.85 13.34 12.4 24.65l.02.03zm-37.39-1.09c-4.82 0-6.47-2.61-6.96-3.74-.8-1.85-.55-3.69-.55-3.7v-.03q1.19-.3 2.4-.31h.17c3.8 0 6.8 1.93 8.08 3.84.25.38 1.04 1.7.39 2.72q-.78 1.22-3.53 1.22m-10.68-13.47c-2.7 0-6.81-.16-11.14-.95-4.3-.78-6.73-4.43-8.01-7.36a26 26 0 0 1-1.8-6.25h.01c13.28.39 19.56 4.27 22.48 7.46 3.02 3.29 3.2 6.7 3.2 6.92-.02 0-1.9.18-4.74.18m13.83-13.82c-.02-.02-1.53-1.9-3.03-4.23-1.58-2.44-3.03-5-3.03-7.08a96 96 0 0 0-.76-8.62c-.36-2.99-.72-5.54-.75-5.76h.02c.33.13 8.3 3.12 8.3 10.6 0 7.49-.73 15.01-.74 15.09zm-10.33-.71-.25-.02c-2.36-.4-6.5-2.2-11.07-4.82-5.08-2.91-9.21-6.03-11.62-8.79-2.2-2.51-3.5-6.46-3.88-11.73-.27-3.73.05-6.85.08-7.16q.62-.2 1.32-.2c1.76.03 3.65.82 6.19 2.57a50 50 0 0 1 6.49 5.52 98 98 0 0 1 7.2 7.97l.03.04c.26.47 2.54 4.57 4.3 8.55a28 28 0 0 1 2.03 5.75c.15.8.19 1.31 0 1.78a1 1 0 0 1-.39.45q-.2.09-.44.09z"/><use xlink:href="#a" transform="matrix(-1 0 0 1 842.18 0)"/><path fill="#d47600" d="m698.83 95.48-2.35.93-.93.37-2.85-.16-2.68 1.29-4.74 3.24-.2.15-1.77.46-1.64-.71-.93.42-.33 1.92-.88 1.38-1.1.77-3.78.39-3.19 1.64-4.15-1.1-1.92.75-4.1 3.69-2.1.99-.73-.04-2.78-.14-1.17.38-1.75 1.7-3.32.25-1.03.72-1.62 3.26-1.75 1.8-1 .22-1.1-.4-.81.14-.37 2.09-.8.87-2.21.77-1.78 1.47-1.55.8-2.09-.05h-.47l-2.08 1.15-3.9.34-1.63 1.55-.36.33-.76.46-1.24.74-.3.18-1.5-.27-1.74.7-.71-1.1-1.21.73-1.6.07-2-.89-1.53-.67-1.11.16-.39 1.94-.04.2-1.17 1.56-2.18 1.32-.3.39-2.48 3.2-4.72 4.97-4 2.03-4.14 1.26-2.9 2.38-7.6 3.77-11.99 5.96-2.45.79-3.52.56-6.28 2.31-5.54 1.68-.3.09-1.1.33-7.81 2.36-3.64-.38-2.15.78-5.6-.62-3.9.08-2.47.51-4.63 2.22-7.83 3.77-2.59 2.36-4.02 2.1-4.72 1.5.01-1.98-.03-.09-1.63.52-1.18.37-3.83.6h-2.13l-1.32-.4-.2.08-7.82 2.57-8.72.84-4.36 1.4-3.26-.05-2.04.6-4 .5-1.42-.38-.32-.1-11.75.52-5.38-.61-2.56.58-4.3-1.44-6.27-.73-1.46-.44-3.3-.98-1.49.86-1.11.12-2.67-.96-.96-.03-2.2.8-1.27-.33-1.18-.94-2.76-.4-1.68-1.42-9.4 1.24-2.55-.75-8.56-2.49-1.36.07-1.7 1.27-2.54.93-2.21.58-3.01.1-3.5-.92-3.6-1.74-1.34-.32-2.97.3-.91.08-5.47-2.93-7.04-4.4-4.78-2.3-1.8-.3-.24.86.9 2.8.3 2.78-.1 2.56-.04 1.59.44 1.43 1.73 1.9.72 1.93.52 5.28v5.36l-.84 8.55-.28 1.3-1 4.44-.92 4.07-3.55 10.83-.97 1.34-2.39 1.63-5.42 3.69-3.99 2.3-1.26.52-3.24.25-2.02-.1-2.51-1.37-2.47-.63-3.23-2.33-3.6-.74-3.94-2.28-1.02-1.23-2.15-.2-2.98-.9-1.09-.33-.75-.22-3.8-.1-3.54-1.64-1.86-.45-2.55-.13-2.66 1.24-1.36.63-1.7-.68-1.24.08-1.4 2.11-.2.33-.97.51-1.2-.02-.94-.02-1.02.44-1.36.6-1.21.52-.6.26v-.01l-.36.07-.65.11-.8.16-1.4-.83-.76-.44-1.26-.25-.67.48-.14 2.3-.61 1.38-1.97 1.74-1.99 1.75-1.39 2.05-3.67 8.39-2.3 3.38-.72.8-2.4 2.65-2.15 1.66-4.92 3.81-4.66 1.74-4 .82-1.96.01-3.7-.5-3.32-1.01-3.65-2.28-4-3.22-5.8-5.72-.82-.5-.17-.11-1.82-1.17-1.36.04-.53.87-.29 1.26-.24 1.12-.67 6.37.05.37.35 2.62 4.4 6.15 1.36 3.27.22.37.91 1.53.7 1.16.06.12 1.5 4.49-1.05 2.53.53 1.7-1.33 1.03-.25 1.47 3.95 4.95.87 2.19-.97 3.03-1.53 1.67-.43.45.21 1.28 1.82 1.64 3.1 2.75 1.64 4.08 1.25 1.1 1.46-.3.8.6 1.23-.01 1.21 1.2.78.38 1.24.62.98 1.27.21 3.91 1.83 4.86.02 2.64.01.37 1.14 1.95.35 1.54-.6 4.07 1.44 1.3 1.57-.32 1.01.16 1.63 1.36 1.97 3 1.92-.28 1.23.59 5.9 5.33 1.34.68.07.04.96.48 1.2 1.2 1.86-1.22.2-.02 2.02-.18.89.6 1.7 1.14 2.24-.03 4.84 1.49 2.12.54 4.26 2.65 1.81 1.12 1.07.87 1.43 1.16 2.84 1.23 2.44.58 1.32.31 1 .39.02-.06h.02l-.03.06 5.29 2.03 2.86.66 2.65.98 1.92.7 1.42.03 2-1.69 1.94-.1 1.6.4 1.57-.27 2.49-1.53.48-.72 1.77-.84 5.94-.74 1.74.57 4.46-1.94 2.99.83 2.64-.94 5.78 1.28 1.54 1.08 1.71 1.97h.21l1.91.05-.8 1.33 2.53 2.64 2.28 3.45.15.45 1.66 4.87 1.23 1.72.86 2.4.04 1.57-1.34 1.03-.22.58-.07.21.27.66.5-.28.97-.53 1.17-.18 2.06.22 1.37.14 2.15-1.07 1.43-.7 2.29.98 2.52-.03 1.06.47 3 1.36 1.52.15.57-.38.36-.85-.19-1-1.14-1.32-2.53-2.94-1.04-1.5-.79-2.2-.24-2.79-.18-1.88.32-2.48.68-.88.5-1.97.13-.52 1.41-1.86 3.72-2.4 4-3.58 3.17-2.08 3.26-1.42.08-.4.37.16 8.29-2.82.13-.02 3.7-.64 24.92 1.75.92-.28.83-2.33.45-.43.3-.29 2.74-1.2 1.28-.19 3.56.88 1.45.36 2.33-1.3 1.66.02 3.41-1.86 2.12.05.8-.32 4.11-2.96 3.96-1.13 1.03-.55.36-.2 4.06-2.14 2.58-1.98 2.23-1.19 2.44-.63 6.38-.45 1.28-2.13 2.74-.37 1.66-1.87 1.9-.77 1.36-1.96 1.14-1.64 1.59-.92 5.1-.32 6.04.75.8-.49 1.37-4.87 1.43-.92 3.85-5.6.01-2.05v-1.71l.64-2.43-.43-4.4.5-4.44 2.4-5.65 2.11-2.28 3.4-2.3 1.73-.75 2.45-.42.36-.06.62-.1 8.44-.13c.11-.08 3.06-.04 3.06-.04l2.82-.04 7.11 1.27.5.09 2.41.78 2.77 2.15 2.94 2.87.55.54 1.9.8.58.25 1.57-.25 2.24-1.17 1.68-1.42 2.3-1.26.06-.08 1.3-1.95.04-.04h.02-.02l.52-.78 4.44-1.74 5.23-.3.6-.32.32-.17 1.38-1.63h1.3l3.13 1.13 2.2-.44 1.75.7 1.36-.16 2.57-.3 2.75 1.93 1.6.2 5.67 3.32.29.05.15.02.33.06.67-.2 1-.3.13-.03.12.17.65.91.88.13 1.04-1.4-.41-.63-.16-.23-2.02-.4-1.82-3.11 1.73-1.86-2.7-3.33-.46-.55-.15-.23-.94-1.43-4.75-7.23-6.18-4.94-2.16-1.73h-.02l-.76-.6-3.3-3.36-2.36-3.13-.3-.67-.5-1.07-1.4-3.07-2.47-1.9-2-2.19-.1-.13-4.14-5.63-.68-.94-.98-.56-2.07-.02-.19-.2-.12-.11.07-.08 1-.98 1.1-.28.48-1.09-2.11-6.1-.02-.22-.15-1.95 1.71-8.85.22-1.08 2.93-5.96 1.82-1.49 1.98-3.89 1.7-2.49 1.62-1.58.28-.17 2.94-1.77 2.46-.35 2.35-.33 4.1 1.26 3.9-.07.76-.08 1.77-.2 2.91-.92 1.37-.85.72-1.1 1.48-4.98.48-1.59.92-1.72 5.3-6.1 4.02-3.72 9.02-6.61 4.41-2.64 2.25-1.35 20.13-8.94 5.23-5.3 2.73-2.76 4.82-3.24 5.64-2.3 4.85-3.85 1.06-1.34 1.34-4.3 1.11-.27 1-2.17.3-.62 3.95-2.8.45-.21 15.39-7.71 2.23.3 1.2-1.79 4.48-.75.82-.14 1.1-.55.95-1.6v-.32l.12-4.27.96-1.16.52-2.81.5-.65.5-.68 1.27-.89-.22-.53z"/></svg>