<svg xmlns="http://www.w3.org/2000/svg" xmlns:xlink="http://www.w3.org/1999/xlink" viewBox="0 0 1200 600"><title>Flag of Dominica</title><path fill="#006b3f" d="M0 0h1200v600H0z"/><path fill="#fcd116" d="M525 0h75v600h-75z"/><path fill="#fcd116" d="M0 225h1200v75H0z"/><path fill="#fff" d="M600 0h75v600h-75z"/><path fill="#fff" d="M0 300h1200v75H0z"/><path d="M575 0h50v600h-50z"/><path d="M0 275h1200v50H0z"/><g fill="#006b3f" transform="translate(600 300)"><circle r="150" fill="#d41c30"/><g id="b"><path id="a" stroke="#000" d="M-4.81-118.41 0-132.13l4.37 13.5 14.65.22-11.59 8.85 5.25 15.05L0-103.8l-12.46 8.85 4.81-14.61-11.37-8.63z"/><use xlink:href="#a" transform="rotate(180)"/></g><use xlink:href="#b" transform="rotate(36)"/><use xlink:href="#b" transform="rotate(72)"/><use xlink:href="#b" transform="rotate(108)"/><use xlink:href="#b" transform="rotate(144)"/><g stroke="#000" stroke-width="2.5"><ellipse cx="680.21" cy="586.13" rx="30.8" ry="189.82" transform="matrix(.28955 -.03018 .01659 .23226 -186.12 -75.93)"/><ellipse cx="680.21" cy="586.13" rx="30.8" ry="189.82" transform="matrix(.30626 -.03184 .01669 .23225 -188.73 -74.89)"/><ellipse cx="680.21" cy="586.13" rx="30.8" ry="189.82" transform="matrix(.245 -.0259 .0179 .25675 -151.95 -90.94)"/><path fill="#9c4a00" stroke-width=".66" d="M-44.21 62.56c7.65-.31 4.33-4.41 8.2-6.6 3.86-2.17 9.36-.73 11.01 2s.33 5.4 2.45 5.43 59.93-2.39 62.01-.1c2.09 2.27 2.43 6.77.27 8.52-2.16 1.77-75.23 2.58-77.75.73-2.52-1.82-6.2-9.53-6.2-9.98z"/><path fill="#fcd116" stroke-width=".63" d="M-3.38 68.2c-.14 5.77 8.4 4.13 8.52 8.96-.25 5.11-14.32.31-14.46-9.04.59-9.35 14.36-13.97 14.53-8.63.13 4.44-8.45 2.93-8.59 8.7z"/><path fill="#fcd116" stroke-width=".63" d="M1.66 68.26c-.14 5.78 8.4 4.14 8.52 8.96-.25 5.12-14.32.32-14.46-9.04.59-9.34 14.36-13.96 14.53-8.62.13 4.43-8.45 2.93-8.59 8.7z"/><path fill="#fcd116" stroke-width=".63" d="M7.07 68.06c-.14 5.77 8.4 4.14 8.52 8.96-.26 5.11-14.32.31-14.46-9.04.59-9.35 14.36-13.96 14.53-8.63.12 4.44-8.45 2.93-8.59 8.7z"/><path fill="#fcd116" stroke-width=".63" d="M12.11 68.12c-.14 5.78 8.4 4.14 8.52 8.97-.26 5.11-14.32.31-14.46-9.04.59-9.35 14.36-13.97 14.53-8.63.12 4.44-8.45 2.93-8.59 8.7z"/><ellipse cx="478.38" cy="-41.09" fill="#9c4a00" stroke-width=".4" rx="3.53" ry="3.4" transform="matrix(1.37992 .02078 -.03062 1.45444 -625.23 117.2)"/><ellipse cx="427.11" cy="905" rx="20.81" ry="24.14" transform="matrix(.20742 -.0313 .04226 .39514 -119.98 -293.42)"/><ellipse cx="427.11" cy="905" rx="20.81" ry="24.14" transform="matrix(.20742 -.0313 .04226 .39514 -127.33 -294)"/><ellipse cx="427.11" cy="905" rx="20.81" ry="24.14" transform="matrix(.20742 -.0313 .04226 .39514 -132.6 -303.41)"/><ellipse cx="427.11" cy="905" rx="20.81" ry="24.14" transform="matrix(.19943 -.03154 .04632 .43593 -125.4 -340.63)"/><ellipse cx="427.11" cy="905" rx="20.81" ry="24.14" transform="matrix(.1995 -.03084 .04356 .40874 -112.65 -316.23)"/><ellipse cx="427.11" cy="905" rx="20.81" ry="24.14" transform="matrix(.1995 -.03084 .04356 .40874 -118.3 -319.64)"/><ellipse cx="427.11" cy="905" rx="20.81" ry="24.14" transform="matrix(.1995 -.03084 .04356 .40874 -125.44 -324.55)"/><ellipse cx="427.11" cy="905" rx="20.81" ry="24.14" transform="matrix(.1995 -.03084 .04356 .40874 -132.04 -327.53)"/><path fill="#9461c9" stroke-width=".57" d="M-14.73-52.69S-29.4-39.97-27.74-5.54c1.84 34.62 32.39 50.9 32.39 50.9s7.78-9.83 6.88-37.65C9.35-32.96-5.07-50.93-5.07-50.93z"/><ellipse cx="427.11" cy="905" rx="20.81" ry="24.14" transform="matrix(.20968 .00618 -.02884 .39634 -45.18 -309.4)"/><ellipse cx="427.11" cy="905" rx="20.81" ry="24.14" transform="matrix(.20968 .00618 -.02884 .39634 -52.32 -311.28)"/><ellipse cx="427.11" cy="905" rx="20.81" ry="24.14" transform="matrix(.20968 .00618 -.02884 .39634 -55.82 -321.49)"/><ellipse cx="427.11" cy="905" rx="20.81" ry="24.14" transform="matrix(.20186 .00451 -.03211 .4372 -42.11 -356.83)"/><ellipse cx="427.11" cy="905" rx="20.81" ry="24.14" transform="matrix(.2018 .00521 -.02998 .40996 -33.9 -330.55)"/><ellipse cx="427.11" cy="905" rx="20.81" ry="24.14" transform="matrix(.2018 .00521 -.02998 .40996 -38.86 -334.9)"/><ellipse cx="427.11" cy="905" rx="20.81" ry="24.14" transform="matrix(.2018 .00521 -.02998 .40996 -45 -341.01)"/><ellipse cx="427.11" cy="905" rx="20.81" ry="24.14" transform="matrix(.2018 .00521 -.02998 .40996 -50.97 -345.12)"/><ellipse cx="624.42" cy="606.11" fill="#d41c30" stroke-width="1pt" rx="58.28" ry="186.49" transform="matrix(.19787 -.07643 .08023 .1871 -155.84 -59.21)"/><ellipse cx="218.13" cy="356.75" stroke-width="1.46" rx="10.82" ry="12.9" transform="rotate(1.02 9092.79 -5670.78)scale(.49836 .36902)"/><ellipse cx="218.13" cy="356.75" stroke-width="1.55" rx="10.82" ry="12.9" transform="rotate(1.02 9467.27 -4810.43)scale(.44645 .36902)"/><ellipse cx="218.13" cy="356.75" stroke-width="1.55" rx="10.82" ry="12.9" transform="rotate(1.02 9470.53 -5176.52)scale(.44645 .36902)"/><ellipse cx="218.13" cy="356.75" stroke-width="1.56" rx="10.82" ry="12.9" transform="rotate(1.02 9297.8 -5356.74)scale(.46721 .34642)"/><ellipse cx="218.13" cy="356.75" stroke-width="1.56" rx="10.82" ry="12.9" transform="rotate(1.02 9614.73 -5391.8)scale(.46721 .34642)"/><ellipse cx="218.13" cy="356.75" stroke-width="1.55" rx="10.82" ry="12.9" transform="rotate(1.02 9681.1 -5528.13)scale(.44645 .36902)"/><ellipse cx="218.13" cy="356.75" stroke-width="1.56" rx="10.82" ry="12.9" transform="rotate(1.02 9873.42 -5450.68)scale(.44645 .36149)"/><ellipse cx="218.13" cy="356.75" stroke-width="1.46" rx="10.82" ry="12.9" transform="rotate(1.02 10017.6 -6533.65)scale(.49836 .36902)"/><ellipse cx="218.13" cy="356.75" stroke-width="1.56" rx="10.82" ry="12.9" transform="rotate(1.02 10009.68 -5602.9)scale(.46721 .34642)"/><ellipse cx="218.13" cy="356.75" stroke-width="1.56" rx="10.82" ry="12.9" transform="rotate(1.02 10258 -5725)scale(.44645 .36149)"/><ellipse cx="218.13" cy="356.75" stroke-width="1.55" rx="10.82" ry="12.9" transform="rotate(1.02 9993.66 -6295.45)scale(.44645 .36902)"/><ellipse cx="218.13" cy="356.75" stroke-width="1.56" rx="10.82" ry="12.9" transform="rotate(1.02 10043.11 -6204.24)scale(.44645 .36149)"/><ellipse cx="218.13" cy="356.75" stroke-width="1.56" rx="10.82" ry="12.9" transform="rotate(1.02 10264.57 -6091.05)scale(.44645 .36149)"/><ellipse cx="528.68" cy="564.48" stroke-width="2.54" rx="67.44" ry="205.64" transform="matrix(.21932 -.07743 .08683 .20202 -145.02 -72.56)"/><ellipse cx="528.68" cy="646.07" rx="13.32" ry="40.8" transform="matrix(.20574 -.09785 .09471 .21196 -137.12 -77.4)"/><path stroke-width=".57" d="M31.46 7.8c12.81 15.6 11.2 25.5 9.86 33.88-4.02-9.66-6.22-15.74-19.04-31.35-12.8-15.6-6.41-26.54-5.53-32.31 1.92 5 1.9 14.18 14.71 29.78z"/><path stroke-width=".57" d="M32.62 20.4C45.42 36 43.8 45.9 42.47 54.28c-4.02-9.66-6.22-15.74-19.03-31.35C10.63 7.33 17.02-3.6 17.9-9.38c1.93 5 1.9 14.18 14.72 29.78z"/><path stroke-width=".57" d="M33 30.55C46.12 45.87 44.7 55.8 43.53 64.2 39.32 54.63 37 48.6 23.88 33.27c-13.13-15.33-6.95-26.4-6.19-32.2C19.72 6.05 19.88 15.23 33 30.56z"/><ellipse cx="528.68" cy="646.07" stroke-width="1.39" rx="13.32" ry="40.8" transform="matrix(.40784 -.1038 .16694 .37767 -299.57 -196.03)"/><ellipse cx="528.68" cy="646.07" stroke-width="1.64" rx="13.32" ry="40.8" transform="matrix(.3669 -.0631 .12978 .31265 -259 -166.87)"/><ellipse cx="528.68" cy="646.07" stroke-width="1.64" rx="13.32" ry="40.8" transform="matrix(.36815 -.05532 .12326 .31531 -261.52 -166.82)"/><ellipse cx="528.68" cy="646.07" stroke-width="2.1" rx="13.32" ry="40.8" transform="matrix(.29658 -.05431 .11151 .23308 -211.07 -135.54)"/><ellipse cx="528.68" cy="646.07" stroke-width="2.1" rx="13.32" ry="40.8" transform="matrix(.29952 -.038 .0968 .23873 -208.27 -143.87)"/><path stroke-width=".57" d="M8.62-15.77c3.79 9.26 5.32 17.58 3.42 18.58s-6.51-5.7-10.3-14.96"/><ellipse cx="528.68" cy="646.07" stroke-width="2.1" rx="13.32" ry="40.8" transform="matrix(.29952 -.038 .0968 .23873 -208.9 -154.74)"/><ellipse cx="528.68" cy="646.07" stroke-width="2.1" rx="13.32" ry="40.8" transform="matrix(.30032 -.0321 .09144 .24056 -212.2 -155.99)"/><path stroke-width=".57" d="M2.03-28.34c3.67 6.26 5.65 12.1 4.41 13.04-1.23.94-5.22-3.37-8.9-9.62"/><path stroke-width=".57" d="M4.57-32.49c3.68 6.26 5.66 12.1 4.42 13.04S3.76-22.82.1-29.07m15.91-2.53c5.13 8.54 7.89 16.51 6.16 17.8-1.73 1.3-7.3-4.6-12.42-13.14"/><path stroke-width=".57" d="M8.45-36.08c3.7 6.9 5.69 13.35 4.45 14.38-1.23 1.04-5.23-3.72-8.93-10.63"/><path fill="#9461c9" stroke-width=".59" d="M8.12-46.09c-2.46 2.49-.05 7.13 2.21 8.8 2.53 2.3 16.74 17.3 26.77 4.68-8.03-.15-23.03-19-28.98-13.48z"/><path fill="#9461c9" stroke-width=".59" d="M6.37-53.49c-2.47 2.49-.05 7.13 2.2 8.8 2.54 2.3 16.75 17.3 26.77 4.68-8.03-.15-23.02-19-28.97-13.48z"/><path fill="#9461c9" stroke-width=".59" d="M4.12-60.58c-2.46 2.49-.05 7.13 2.2 8.8 2.54 2.3 16.75 17.3 26.78 4.68-8.04-.15-23.03-19-28.98-13.48z"/><path fill="#9461c9" stroke-width=".59" d="M-.76-68.69c-2.46 2.49-.05 7.13 2.2 8.8 2.54 2.3 16.75 17.3 26.78 4.68-8.04-.15-23.03-19-28.98-13.48z"/><path fill="#9461c9" stroke-width=".63" d="M-18.27-76.45c5.08-3.78 14.41-4.88 21.68-1.18 6.05 2.97 16.15 15.07 23.73 17.93-5.34.96-8.59.15-12-1.49C8.4-56.3 6-55.58-.86-54.62c-9.56 1.38-17.49-1.1-20.27-6.09-2.84-4.7-1.62-12.24 2.86-15.74z"/><ellipse cx="287.23" cy="323.04" fill="#d41c30" rx="14.15" ry="14.99" transform="matrix(.3091 .0055 -.00301 .16933 -95.3 -125.2)"/><ellipse cx="204.58" cy="348.26" fill="#fcd116" rx="23.25" ry="15.89" transform="matrix(.2458 -.09144 .08132 .21925 -99.45 -116.29)"/><circle cx="283.9" cy="333.86" r="5.83" fill="#000" stroke="none" transform="rotate(1.02 8292.5 -4733.72)scale(.26994 .23346)"/><path fill="#fcd116" stroke-width=".73" d="M-17.13-65.51c.4 1.94-1.04 4.58-4.18 5.51-3.2 1.32-5.62 4.32-7.01 9.23-4.86-11.19-1.77-15.92 3.38-17.07 4.44-1.41 7.11-1.23 7.81 2.33z"/><circle cx="198.98" cy="362.39" r="4.71" fill="#000" stroke="none" transform="matrix(.23597 -.01236 .01334 .24161 -73.6 -149.77)"/></g></g></svg>