<svg xmlns="http://www.w3.org/2000/svg" xmlns:xlink="http://www.w3.org/1999/xlink" viewBox="0 0 750 500"><path fill="#fff" d="M0 0h750v500H0z"/><path fill="#002d62" d="M0 0h325v200H0z"/><path fill="#ce1126" d="M0 300h325v200H0z"/><path fill="#002d62" d="M425 300h325v200H425z"/><path fill="#ce1126" d="M425 0h325v200H425z"/><g transform="translate(-25)scale(.8)"><path fill="#fff" d="M474.5 281.05c.07.43.03 36.78.03 40.54 0 3.6.04 5.87 1.75 8.15a11 11 0 0 0 6.08 4.13c1.63.33 7.63.2 9.72.2 4.63-.22 5.19.81 6.94 3.1 2-3.21 4.19-3.26 8.29-3.1 2.08 0 6.55.17 8.41-.23a9.4 9.4 0 0 0 5.38-3.36c2.35-2.7 2.22-6.06 2.22-9.59v-38.31c0-1.73-.2-1.3.68-2.2l5.78-6.06-61.67.04z"/><path fill="#002d62" d="M493.76 299.09v-24.77h-25.5l6.32 6.7.06 18.07z"/><path fill="#ce1126" d="M503.98 299.09v-24.77h25.99l-6.64 7.11v17.66zm-10.22 10.23h-19.3l-.06 15.6c.88 6.82 5.92 9.14 10.44 9.11 3.06.04 4.1-.02 8.92-.05z"/><path fill="#002d62" d="M503.98 309.32h19.42l-.06 15.6c-.46 6.76-5.92 9.14-10.44 9.11l-8.92-.05z"/><path fill="none" stroke="#000" stroke-width=".45" d="M474.61 281.05c.07.43.03 36.78.03 40.54 0 3.6 0 5.79 1.8 8.32a9.2 9.2 0 0 0 6.03 3.96c1.63.33 7.63.2 9.72.2 2.67 0 3.91-.13 5.7 1.67.56.53.69.8 1.11 1.46.23-.17.23-.2.36-.43a5.3 5.3 0 0 1 2.68-2.33c1.4-.57 3.75-.37 5.38-.37 2.08 0 6.55.17 8.41-.23a10.6 10.6 0 0 0 5.38-3.36c2.35-2.7 2.22-6.06 2.22-9.59v-38.31c0-1.73-.2-1.3.68-2.2l5.78-6.06-61.67.04z"/><path fill="#eac102" stroke="#000" stroke-width=".27" d="M497.92 280.41v2.77h-2.8v2.35h2.8v9.93h2.3v-9.93h2.84v-2.35h-2.84v-2.77z"/><g id="a"><path fill="#fff" d="m481.88 284.06.03 4.53-1.91-1.93.28 31.93c0 4.76 3.43 8.6 7.66 8.6 4.19 0 7.6-3.79 7.65-8.5l-.31-16.44-2.06-2.13-.03-1.68z"/><path fill="#002d62" d="m481.88 284.22.03 4.56-1.91-1.94.16 18.19 8.25 7.85.06-17.41-.31-.35v-2.93z"/><path fill="#ce1126" d="m490.77 295.51 2.42 3.08.02 1.04-2.45-2.5zm4.53 6.91.22 11.44c-1.18 2.21-3.57 1.01-3.57 1.01l.08-15.79z"/><path fill="#002d62" d="M495.55 319.64c-3.13 2.34-4-1.13-4-1.13a4.4 4.4 0 0 0 3.98-2.98z"/><path fill="#ce1126" d="M480.21 309.72c4.3 4.87 7.96 7.5 7.96 7.5.97 7.67 5.5 5.12 7.14 3.93-.92 3.6-3.87 6.22-7.36 6.22-4.23 0-7.66-3.86-7.66-8.62z"/><path fill="none" stroke="#000" stroke-width=".26" d="m493.2 299.63-.02-1.16-11.32-14.38.03 3.96z"/><path fill="none" stroke="#000" stroke-width=".32" d="m480 286.66.3 31.92c0 4.76 3.42 8.62 7.65 8.62 4.2 0 7.6-3.8 7.65-8.51l-.3-16.44z"/><g fill="#eac102" stroke="#000" stroke-width=".06"><path d="M486.17 281.23c-.78-1.46-.62-2.08-.08-2.64l-2.93-3 .81 4.2c.84-.22 1.43 0 2.2 1.44zm-3.02-5.65 3 5.62"/><path d="m498.07 300.74-.76.3-11.93-20.43.7-.4z"/><path d="M484.98 280.59c-.1-.19.1-.5.47-.7.36-.21.73-.22.84-.03s-.11.5-.47.7-.74.22-.84.03zm-3.96 1.63c-.95-1.34-.88-1.99-.41-2.6l-3.3-2.6 1.35 4.05c.8-.32 1.41-.18 2.36 1.15zm-3.7-5.2 3.69 5.18"/><path d="m495.28 300.01-.72.39-14.4-18.68.65-.49z"/><path d="M479.76 281.75c-.13-.17.04-.52.38-.76.33-.25.7-.31.82-.14.13.18-.04.52-.37.77-.33.24-.7.3-.83.13zm.42 4.61c-1.1-1.22-1.1-1.87-.7-2.54l-3.55-2.2 1.78 3.87c.76-.4 1.38-.35 2.47.87zm-4.25-4.75 4.24 4.72"/><path d="m495.66 302.86-16.38-16.9.59-.56 16.46 16.99z"/><path d="M478.88 286.03c-.14-.16-.01-.52.29-.8s.66-.39.8-.23.02.52-.28.8-.67.39-.81.23z"/></g></g><use xlink:href="#a" transform="matrix(-1 0 0 1 998.26 0)"/><g stroke="#000" stroke-width=".24"><path fill="#ce1126" d="m496.73 314.54-.63 10.1c-.64-.05-1.88-.16-1.97-.98-.06-.46 1.26-8.73 1.3-9.53.45.12.9.32 1.3.41z"/><path fill="#002d62" d="M495.77 314.12c-.06.4-.28 2.8-.22 3.1.19.97 1.38.82 2.04.86l.13-5.18c-.22.21-1.7 1.11-1.95 1.22z"/><path fill="#002d62" d="M495.88 327.04c1.66-2.08 4.78-.54 4.78-.54 3.42.77 2.57-3.13 2.57-3.13-.7-7.8-1.52-13.15-1.52-13.15l-4.99 3.34z"/><path fill="#002d62" stroke-width=".19" d="M495.86 327.17c-.36 2.32 1.96 1.98 1.96 1.98 2.76-.04 1.97-2.96 1.97-2.96-2.96-.85-3.93.98-3.93.98z"/><path fill="#ce1126" d="M497.83 312.74c-.17 8.07-.25 8.9-.25 8.9.12 2.2 2.54 1.01 2.54 1.01.57-.24 1.2-.06 1.2-.06l-.11-2.75c4.02-.3 3.09-2.64 3.09-2.64-1.64-7.62-1.75-7.29-1.75-7.29z"/><path fill="none" stroke-width=".23" d="M501.31 319.81c-2.54-.04-3.57.96-3.57.96l-.1.22"/><path fill="#fff" stroke-width=".21" d="m500.99 326.45-.88-15.2 1.76-1.17 1.51 14.22v.15c0 2.64-2.39 2-2.39 2z"/></g><g fill="#fff" stroke="#000"><path fill="#000" stroke-width=".04" d="m488.23 302.2 6.79 12.45 14.63-9.71-7.62-11.25z"/><path stroke-width=".27" d="m488.49 302.1 13.75-8.01 7.52 10.82-14.53 9.35z"/><path fill="#000" stroke-width=".04" d="m495.43 313.53 13.7-8.82-1.06-1.69-6.86-9.32-4.96 4-6.33 3.52-1.12-.7.22 1.5z"/><path stroke-width=".15" d="M496.18 297.77c-2.03-.96-4.38 2.07-5.06 2.67s-2.04.24-2.04.24l6.18 11.08c1.82.72 3-1.61 3.85-2.33 1.55-1.33 3.37-1.23 3.37-1.23z"/><path stroke-width=".15" d="M496.36 297.88c0-2.38 2.95-3.14 3.74-3.56.78-.42 1.03-1.9 1.03-1.9l6.93 10.56c-.13 2.08-2.6 2.29-3.55 2.83-1.76.98-2 2.5-2 2.5z"/><path stroke-width=".1" d="M495.02 311.82a596 596 0 0 0-6.13-11.02c-.1 1.33-.02 1.25-.02 1.25a128 128 0 0 1 6.5 11.4z"/><path fill="#000" stroke="none" d="m490.87 302.2.11.19q.05-.03.06-.1l-.02-.08.02.03.13.2c-.02.03-.03-.03-.06-.03-.03-.03-.09-.03-.1 0l.1.17q.02.02.06-.01.1-.05.1-.15c.02-.03-.02-.07.01-.09l.07.16-.39.25q-.01-.02.01-.03.05-.04 0-.1l-.2-.31q-.02-.05-.08 0v-.03l.37-.23.08.14c-.03.02-.04-.04-.07-.04q-.08-.03-.14.02zm.4-.28.24.4q.03.05.07.02v.02l-.16.1c-.02-.02.03-.03.01-.06q-.02-.06-.06-.1l-.16-.26a.04.04 0 0 0-.06-.03V302zm.52-.36.1.15c-.03.02-.04-.03-.07-.03-.05-.04-.14-.04-.18.02-.03.03-.02.1.03.1q.09.02.18 0 .09-.01.16.05.07.1.02.2a.2.2 0 0 1-.18.1q-.05.01-.05.06l-.01-.01-.1-.15c.02-.03.04.02.06.03q.1.07.2 0c.05-.03.05-.11 0-.13s-.12 0-.18 0-.13-.01-.17-.06c-.05-.07-.04-.17.02-.22a.2.2 0 0 1 .13-.05q.05-.01.03-.05zm.51.27q-.02.08-.08.12-.08.03-.1-.05 0-.08.04-.15.03-.03.04-.08l-.04-.07c-.04-.02-.1.02-.09.06q.06.01.06.05-.02.08-.1.04-.03-.07.02-.13a.2.2 0 0 1 .13-.08q.08 0 .1.06l.1.16q.03.02.04-.01.03.01.01.04-.02.06-.1.07zm-.01-.02-.07-.11q-.04.06-.02.12c0 .05.07.04.08 0zm.14-.44.02.04q.01-.08.09-.12.08-.02.11.05l.12.19q.02.03.05.01v.02l-.15.1c-.02-.03.02-.04 0-.06q-.02-.07-.07-.13l-.06-.1c-.04-.03-.07.04-.06.08l.1.18q.03.03.07.02l-.01.02-.15.1c-.02-.03.03-.04.01-.07l-.08-.14-.07-.1c0-.02-.04.02-.05-.01zm.31-.35.07.11.07-.04.02.03-.07.05.13.2c.01.04.06.04.06 0q0-.02.02-.03.01.09-.06.13-.08.03-.12-.05l-.12-.2-.04.03v-.06l.03-.16zm.31-.05a.2.2 0 0 1 .18 0q.1.07.1.18t-.07.15a.2.2 0 0 1-.15.02.2.2 0 0 1-.12-.28zm.02.02c-.05.03-.01.09 0 .12l.1.16c.04.04.1 0 .1-.04l-.06-.11-.08-.12q-.03-.02-.06 0zm-1.67 2.07.11.19q.05-.03.06-.1l-.02-.08.02.03.13.2c-.02.03-.03-.03-.06-.03q-.06-.04-.1 0l.1.17q.02.02.06-.01.1-.05.1-.15c.02-.03-.02-.07.01-.09l.07.16-.39.25q-.01-.02.01-.03.05-.04 0-.1l-.2-.31q-.02-.05-.08 0v-.03l.37-.23.08.14c-.03.02-.04-.04-.07-.04q-.08-.03-.14.02zm.7.18-.27-.2-.08-.01V303l.16-.1v.02c-.03.04.02.06.04.08l.12.08-.03-.17q0-.06-.06-.04v-.01l.1-.06-.02.05.02.13.04.24-.02.01zm.33-.3q-.02.08-.08.12c-.04.02-.1 0-.1-.05q0-.08.04-.15.03-.03.04-.08l-.04-.07c-.04-.02-.1.02-.09.06q.06.01.06.05-.02.08-.1.04-.03-.07.02-.13a.2.2 0 0 1 .13-.08q.08 0 .1.06l.1.16c.01.02.05.01.04-.01q.03.01 0 .04-.01.06-.08.07zm-.01-.02-.07-.11q-.04.06-.02.12c0 .05.07.04.08 0zm.15-.43.02.04q.02-.08.09-.12.08-.02.11.05l.12.19q.02.03.05.01v.02l-.15.1c-.02-.03.03-.04 0-.06q-.02-.07-.07-.13l-.06-.1c-.04-.03-.07.04-.06.08l.1.18.07.03-.01.01-.15.1c-.02-.03.03-.04.01-.07l-.08-.14-.07-.1c0-.02-.04.02-.05-.01zm.45-.28.1-.07.03.04-.06.04c.06 0 .1.08.08.13a.2.2 0 0 1-.1.12c-.05.02-.03.1.02.07q.08-.05.17-.08.06 0 .1.06a.2.2 0 0 1-.06.14.4.4 0 0 1-.17.1c-.05 0-.1-.05-.06-.1q.03-.01 0-.01a.1.1 0 0 1-.07-.07l.03-.1a.1.1 0 0 1-.13-.03c-.05-.05-.04-.14.01-.18a.2.2 0 0 1 .11-.06m-.05.04q-.05.05 0 .11.02.07.1.09c.03 0 .04-.06.02-.09l-.08-.1zm.2.37c-.04 0-.08.06-.03.08q.06.02.11-.04c.04-.02.09-.06.05-.1q-.06-.01-.12.04zm.33-.54-.17.1q.04.08.12.1.08-.01.08-.1 0-.02.02-.02v.03q0 .08-.05.13-.07.07-.15.03a.3.3 0 0 1-.13-.15q-.03-.12.07-.2a.12.12 0 0 1 .16.03zm-.1.03q-.02-.06-.08-.09-.07.02-.03.1l.02.05zm.09-.41.24.4q.03.05.07.02v.02l-.16.1c-.02-.02.03-.03.01-.06q-.02-.06-.06-.1l-.16-.26a.04.04 0 0 0-.06-.03v-.01zm.13-.11q.06-.02.09.04.01.07-.07.07-.06-.02-.04-.1zm.14.12.16.26q.01.05.06.02v.02l-.16.1c-.02-.02.03-.03.02-.05l-.05-.1-.1-.14q-.02-.03-.05-.01v-.02zm.21-.13a.2.2 0 0 1 .18 0q.1.08.1.2 0 .08-.08.13a.2.2 0 0 1-.15.01.2.2 0 0 1-.11-.27zm.02.02c-.05.03-.01.09 0 .12l.1.16c.04.04.1 0 .1-.04l-.06-.11-.08-.12q-.04-.02-.06 0zm-1.95 2.21.1.15c-.03.02-.04-.03-.07-.03-.05-.04-.14-.04-.18.02-.03.03-.02.1.03.1q.09.02.18 0 .09-.01.16.05.07.09.02.2a.2.2 0 0 1-.18.1q-.05.01-.05.06l-.01-.01-.1-.15c.02-.03.04.02.06.03q.1.07.2 0c.05-.03.05-.11 0-.13s-.12 0-.18 0-.13-.01-.17-.06a.15.15 0 0 1 .03-.22l.12-.05q.05-.01.03-.05zm.53.08-.17.1q.04.08.12.1.08-.01.08-.1 0-.02.02-.02v.03q0 .08-.05.13-.07.07-.15.03a.3.3 0 0 1-.13-.15q-.03-.12.07-.2a.12.12 0 0 1 .16.03zm-.1.03q-.03-.06-.08-.09-.07.02-.03.1l.02.05zm.24-.33.1-.07.03.04-.06.04c.06 0 .1.08.08.13a.2.2 0 0 1-.1.12c-.05.02-.03.1.02.07q.08-.06.17-.08.06 0 .1.06a.2.2 0 0 1-.06.14.4.4 0 0 1-.17.1c-.05 0-.1-.05-.06-.1q.03-.01 0-.01a.1.1 0 0 1-.07-.07l.03-.1a.1.1 0 0 1-.13-.03c-.05-.05-.04-.14.01-.18a.2.2 0 0 1 .11-.06m-.05.04q-.04.05 0 .11.02.08.1.09c.03 0 .04-.06.02-.09l-.08-.1zm.2.37c-.04 0-.08.06-.03.08q.06.02.11-.04c.04-.02.09-.06.05-.1q-.06-.01-.12.04zm.29-.69.16.26q.02.04.06.02v.02l-.12.07-.03-.04q0 .08-.08.12t-.11-.05l-.12-.18q-.03-.03-.05-.02v-.02l.11-.07.15.24c.01.04.07.03.08-.02v-.05l-.11-.17a.04.04 0 0 0-.06-.02v-.02zm.21-.13.02.04q.01-.08.09-.12.08-.02.11.05l.12.19q.02.03.05.01v.02l-.15.1c-.02-.03.03-.04 0-.06q-.02-.07-.07-.13l-.06-.1c-.04-.03-.07.04-.06.08l.1.18q.04.03.07.02l-.01.02-.15.1c-.02-.03.03-.04.01-.07l-.08-.14-.07-.1c0-.02-.04.02-.05-.01zm.62-.6.1.15c-.03.02-.04-.03-.07-.03-.05-.04-.14-.04-.18.02-.03.03-.02.1.03.1q.09.02.18 0 .09-.01.16.05.07.09.02.2a.2.2 0 0 1-.18.1q-.05.01-.05.06l-.01-.01-.1-.15c.02-.03.04.02.06.03q.1.07.2 0c.05-.03.05-.11 0-.13s-.12 0-.18 0-.13-.01-.17-.06a.2.2 0 0 1 .02-.22.2.2 0 0 1 .13-.05q.05-.01.03-.05zm.5.24q-.02.08-.08.12-.08.02-.1-.05a.2.2 0 0 1 .04-.14l.04-.09-.04-.07c-.04-.02-.1.02-.09.06q.06.01.06.05c0 .05-.06.07-.1.04q-.03-.07.02-.13a.2.2 0 0 1 .13-.08q.08 0 .1.06l.1.16c.01.02.05.01.04-.01q.03.01 0 .04-.01.06-.08.07zm-.01-.02-.07-.11q-.04.06-.02.12c0 .05.07.04.08 0zm.15-.42.02.04q.01-.08.09-.12.08-.02.11.05l.12.19q.02.03.05.01v.02l-.15.1c-.02-.03.03-.04 0-.06q-.02-.07-.07-.13l-.06-.1c-.04-.03-.07.04-.06.08l.1.18q.04.03.07.02l-.01.02-.15.1c-.02-.03.03-.04.01-.07l-.08-.14-.07-.1c0-.02-.04.02-.05-.01zm.42-.44v-.02l.23-.14v.02q-.06.03-.02.09l.16.25q.04.07.02.14a.2.2 0 0 1-.14.12q-.09.01-.13-.07 0-.07.07-.07c.05.01.03.06.05.1.04.02.1-.04.06-.08l-.13-.22-.08-.13q-.04-.03-.08 0zm.64-.23.16.26q.02.04.06.02v.02l-.12.07-.03-.04q0 .08-.07.12t-.12-.04l-.12-.2q-.03-.02-.05 0v-.03l.11-.07.15.24c.01.04.07.03.08-.02V302l-.11-.17a.04.04 0 0 0-.06-.02v-.02l.12-.07zm.41.1q-.02.08-.08.12-.08.02-.1-.05 0-.08.04-.15.03-.03.04-.08l-.04-.07c-.04-.02-.1.02-.09.06q.06.01.06.05-.02.08-.1.04-.03-.07.02-.13a.2.2 0 0 1 .13-.08q.08 0 .1.06l.1.16c.01.02.05.01.04-.01q.03.01 0 .04-.01.06-.08.07zm-.01-.02-.07-.11q-.04.06-.02.12c0 .05.07.04.08 0zm.14-.43.02.04q.02-.08.09-.12.08-.02.11.05l.12.19q.02.03.05.01v.02l-.15.1c-.02-.03.03-.04 0-.06q-.02-.07-.07-.13l-.06-.1c-.04-.03-.07.04-.06.08l.1.18q.03.03.07.02l-.01.02-.15.1c-.02-.03.03-.04.01-.07l-.08-.14-.07-.1c0-.02-.04.02-.05-.01zm-2.7 4.74.1.15c-.02.02-.04-.03-.06-.03a.2.2 0 0 0-.19 0 .2.2 0 0 0-.07.17q.02.12.1.2.06.1.17.08.13-.03.17-.15l.01-.07q.02.02 0 .05 0 .12-.1.18a.2.2 0 0 1-.23.03.3.3 0 0 1-.16-.39.3.3 0 0 1 .22-.16q.05-.02.03-.05zm.54.08-.17.11.02.13c0 .04.05.01.07 0v.03l-.13.08c-.02-.03.03-.04.02-.07l-.02-.15-.06-.4h.03l.4.29a.1.1 0 0 0 .1.01l-.17.12c-.03-.02.03-.02.02-.05q-.01-.04-.06-.06zm-.02-.02-.2-.13.04.23zm.3-.25.1.15q.02.06.08.02h.01l-.19.12v-.02q.07-.03.02-.1l-.2-.3a.05.05 0 0 0-.08-.02l-.01-.01.2-.13q.07-.04.16-.01c.07.03.1.14.05.2a.3.3 0 0 1-.14.1m-.01-.02q.07-.02.1-.09a.14.14 0 0 0-.1-.15q-.07 0-.12.05l.12.2zm.59-.05v.02l-.18.11v-.02q.06-.03.02-.09l-.2-.32q-.03-.05-.09-.01l-.01-.01.19-.12v.02q-.06.03-.02.09l.19.31q.03.07.09.03zm.13-.71.07.1c-.02.03-.03-.03-.06-.03q-.07-.01-.12.04l-.03.02.23.36q.02.05.08.01l.01.01-.18.1q.07-.04.01-.1l-.2-.34-.1.07q-.03.05 0 .1-.02.01-.03-.02l-.05-.09zm.36-.2v-.02l.14-.07q-.05.04 0 .1l.13.23q.05.07.03.15a.3.3 0 0 1-.17.15.2.2 0 0 1-.19-.06l-.14-.23q-.02-.04-.06-.07l-.06.02v-.02l.19-.11-.01.02q-.05.04 0 .1l.13.22q.03.07.11.09.1-.01.15-.1a.1.1 0 0 0 0-.12l-.11-.2-.07-.1q-.04-.01-.07.02m.74-.05q.01-.01.02.01 0 .07.03.13l-.35.22v-.02q.07-.04.01-.1l-.18-.3q-.04-.06-.09-.02l-.01-.01.2-.13c.02.02-.04.03-.04.05q-.03.05.02.1l.18.28c.02.05.07.02.1 0q.06-.03.1-.1.02-.05 0-.11zm.08-.5c.1-.07.24-.04.32.05q.1.12.08.28a.26.26 0 0 1-.28.19.3.3 0 0 1-.2-.14.3.3 0 0 1-.03-.25q.03-.09.11-.13m0 .03a.2.2 0 0 0-.06.15q.01.12.1.22.07.08.18.08a.2.2 0 0 0 .13-.16.4.4 0 0 0-.1-.21q-.05-.09-.16-.1zm.89-.59c.02.02-.02.03-.02.06l.01.14.07.4q-.01.02-.02 0l-.42-.28q-.05-.03-.09 0-.01-.02.01-.03l.17-.1c.02.02-.04.03-.03.06q.01.04.07.06l.26.19-.06-.35q-.01-.08-.08-.05v-.01zm.49.31v.02l-.18.11v-.02q.06-.03.02-.09l-.2-.32q-.03-.05-.09-.01l-.01-.01.19-.12v.02q-.06.03-.02.09l.19.31q.03.07.09.03zm.23-.15v.02l-.18.11v-.02q.06-.03.02-.09l-.2-.32q-.03-.05-.09-.01l-.01-.01.19-.12v.02q-.06.03-.02.09l.19.31q.03.07.09.03zm.22-.14v.02l-.18.11v-.02q.06-.03.02-.09l-.2-.32q-.03-.05-.09-.01l-.01-.01.19-.12v.02q-.06.03-.02.09l.19.31q.03.07.09.03zm-3.92 4.12q-.01-.09.04-.16.07-.05.14-.03.08.05.06.14-.02.03 0 .04.08 0 .14.06.06.12-.01.22l-.12.09q-.07 0-.04-.06c.04-.02.1 0 .13-.03a.1.1 0 0 0 0-.16.1.1 0 0 0-.12-.04l-.07.03c-.01-.02.03-.03.03-.05a.1.1 0 0 0 0-.14q-.06-.07-.14 0zm.36-.29.08-.12h.01l.24.4q.03.04.08.01h.02l-.17.12c-.02-.03.03-.03.03-.05q0-.05-.03-.08-.07-.13-.17-.27-.02-.06-.07-.02 0 .02-.02.01m.73-.51.16-.1c.02.02-.02.02-.02.04q-.03.07-.03.16v.2l.09.13q.04.04.08 0l-.17.1c.04 0 .03-.06 0-.09l-.06-.1-.28-.13q-.05-.02-.08 0-.01-.02.01-.02l.17-.11q.01.02-.02.04c-.03.03.03.06.06.07l.17.08v-.22q0-.07-.07-.04zm.82.04q0 .08-.1.12-.1.01-.17-.08a.2.2 0 0 1-.02-.23q.05-.07.13-.07l-.07-.12q-.04-.02-.06.01v-.02l.06-.08h.02l.24.39q.02.05.06.02.02-.02.01.01l-.06.09h-.02zm-.01-.02-.1-.16q-.05-.07-.12-.04-.06.06-.02.14.04.1.13.14.06 0 .1-.06zm.09-.24q.04.08.13.1.1 0 .12-.1v-.05q.02.01.02.04.01.09-.05.15a.2.2 0 0 1-.16.01.3.3 0 0 1-.1-.14.2.2 0 0 1 .04-.18q.07-.06.14-.03.05.03.07.07zm-.01-.02.14-.09q-.03-.05-.1-.05-.08.05-.05.12v.02zm.57-.22a.2.2 0 0 1-.01.17.13.13 0 0 1-.15.05q-.1-.03-.14-.13c-.03-.08 0-.18.07-.22a.1.1 0 0 1 .13 0c.03 0 .03.05 0 .06-.05.02-.06-.06-.11-.04q-.08.03-.06.11a.2.2 0 0 0 .13.15q.08.02.12-.06l.01-.09zm-.1-.44c.05-.03.09.05.03.07-.04.02-.07-.05-.03-.07m.13.14.16.26q.01.05.07.02v.02l-.14.08c-.02-.02.03-.02.02-.05q0-.04-.04-.07l-.09-.15q-.04-.03-.06 0l.06-.1zm.41.11q-.01.07-.06.1-.07.05-.13-.03-.02-.06.02-.12l.07-.1a.1.1 0 0 0-.06-.08c-.04 0-.1.04-.07.08l.01.05c-.01.04-.07.02-.07-.02q0-.08.08-.12.05-.04.11-.02l.07.08.08.13q.03.03.04-.02 0-.02.01 0t0 .06q-.04.07-.1.02zm-.01-.02-.07-.12q-.06.06-.07.13.01.07.08.07.05-.02.06-.08m.11-.61v-.02l.18-.11v.01q-.06.04-.02.09l.16.26q.04.07.02.15a.1.1 0 0 1-.1.08c-.05 0-.08-.07-.02-.09.03 0 .06.06.09.03q0-.05-.03-.09l-.18-.3q-.03-.05-.1-.02zm.42.09q.04.08.13.1.1 0 .12-.1v-.05q.02.01.02.04.01.09-.05.15a.2.2 0 0 1-.16.01.2.2 0 0 1-.1-.14.2.2 0 0 1 .04-.18q.07-.06.14-.03.05.03.07.07zm-.01-.02.14-.09q-.03-.06-.1-.05-.08.04-.05.12v.02zm.38-.39.06.1q-.02.01-.04-.02-.08-.04-.12.02-.03.08.05.08t.14 0a.1.1 0 0 1 .1.08q0 .09-.1.13-.04.01-.07.04h-.01l-.06-.1c.01-.02.02.02.04.02q.07.05.14-.01.02-.06-.03-.1h-.18c-.05-.01-.08-.08-.06-.13a.2.2 0 0 1 .1-.08q.03 0 .03-.02zm.35-.19.15.24c0 .03.05.02.06 0v.02l-.06.08s-.01.02-.01 0l-.04-.05q0 .08-.06.12t-.12-.01l-.08-.13q-.02-.05-.06-.08c-.02-.03-.05 0-.06 0v-.02l.1-.06.13.22q.05.07.1.01.04-.03.03-.08l-.1-.17q-.04-.05-.08-.01v-.02zm.26-.19.06.1q-.02.01-.04-.02-.08-.04-.12.02-.03.08.05.08t.14 0a.1.1 0 0 1 .1.08q0 .09-.1.13-.04.01-.07.04h-.01l-.06-.1c.01-.02.02.02.04.02q.07.05.14-.01.02-.06-.03-.1h-.19q-.08-.05-.04-.14a.1.1 0 0 1 .1-.06zm.57.02q-.02.06-.06.1-.07.05-.13-.03-.02-.06.02-.12l.07-.1a.1.1 0 0 0-.06-.08c-.04 0-.1.04-.07.08l.01.05c-.01.04-.07.02-.07-.02q0-.08.08-.12.05-.04.11-.02l.07.08.08.13q.03.03.04-.02 0-.02.01 0t0 .06q-.04.07-.1.02zm-.01-.02-.07-.12q-.06.06-.07.13.01.07.08.07.04-.03.06-.08m-4.5 3.47.26.42q.03.05.07.02v.01l-.14.09c-.02-.02.03-.02.02-.05q0-.04-.04-.08l-.17-.29q-.03-.04-.06-.01l-.02-.01.07-.1zm.33 0q.07-.05.16-.01.1.05.11.18a.2.2 0 0 1-.07.16.2.2 0 0 1-.16 0 .2.2 0 0 1-.12-.19q0-.1.08-.14m0 .03q-.06.04-.02.11.03.11.13.16.08.02.11-.04.03-.07-.02-.13-.05-.09-.14-.11zm.38-.27.06.1q-.02.01-.04-.02-.08-.04-.12.02-.03.08.05.08t.14 0a.1.1 0 0 1 .1.08q0 .09-.1.13-.04.01-.07.04h-.01l-.06-.1c.01-.02.02.02.04.02q.07.05.14-.01.02-.06-.03-.1h-.18q-.08-.03-.06-.13.03-.07.1-.07.03 0 .03-.03zm.22-.35c.05-.03.09.05.04.07s-.08-.04-.04-.07m.13.14.2.33q.04.08 0 .17-.03.06-.1.06c-.05-.03 0-.08.04-.06q.07 0 .05-.06l-.12-.19q-.03-.07-.1-.15c0-.03-.03.01-.05.01v-.02l.06-.08h.02zm.36-.21.15.24c0 .03.05.02.06 0v.02l-.06.08s-.01.02-.01 0l-.04-.05q0 .08-.06.12t-.12-.01l-.08-.13q-.02-.05-.06-.08c-.02-.03-.05 0-.06 0v-.02l.1-.06.13.22q.05.06.1.01.04-.03.03-.08l-.1-.17q-.04-.05-.08-.01v-.02zm.45.1q0 .08-.1.12-.1.01-.17-.08a.2.2 0 0 1-.02-.23q.05-.07.13-.07l-.07-.12q-.04-.02-.06.01v-.02l.06-.08h.02l.24.39q.02.05.06.02.02-.02.01 0l-.06.1h-.02zm-.01-.02-.1-.16q-.05-.06-.12-.04-.06.06-.02.14.03.1.13.14.06 0 .1-.06zm-.06-.56c.05-.03.09.05.03.07-.04.02-.07-.05-.03-.07m.13.14.16.26q.01.05.07.02v.02l-.14.08c-.02-.02.03-.02.02-.05q0-.04-.04-.07l-.09-.15q-.04-.03-.06 0l.06-.1zm.22-.15q.07-.05.16-.01.1.05.11.18a.2.2 0 0 1-.07.16.2.2 0 0 1-.16 0 .2.2 0 0 1-.12-.19q0-.1.08-.14m0 .03q-.06.04-.02.11.04.11.13.16.08.03.11-.04t-.02-.13q-.05-.09-.14-.11zm.39-.28.06.1c-.02.02-.03-.02-.06-.03-.04-.02-.11 0-.11.07q.02.06.1.04t.15.01q.06.06.03.14-.05.07-.13.08c-.01 0-.02.04-.03.02l-.06-.1c.02-.02.03.03.06.03q.07.03.13-.04c.01-.03-.02-.08-.06-.07h-.17a.1.1 0 0 1-.04-.16q.05-.05.11-.06zm.5-.32.25.4q.03.06.08.02v.02l-.15.09q-.01-.02.02-.03.02-.05-.02-.08l-.07-.12q-.01.08-.08.13-.1.04-.17-.05a.2.2 0 0 1-.04-.22q.03-.1.14-.1c.02 0 .02-.05.04-.06m.1.28-.1-.16q-.04-.06-.1-.02-.08.06-.04.15.03.09.13.12.09 0 .1-.08zm.25-.47.15.24c0 .03.05.02.06 0v.02l-.06.08s-.01.02-.01 0l-.04-.05q0 .08-.06.12t-.12-.01l-.08-.13q-.02-.05-.06-.08c-.02-.03-.05 0-.06 0v-.02l.1-.06.13.22c.02.04.08.05.1.01q.04-.04.03-.08l-.1-.17q-.04-.05-.08-.01v-.02zm.19.02q.04.08.13.1.1 0 .12-.1v-.05q.02.01.02.04.01.09-.05.15a.2.2 0 0 1-.16.01.2.2 0 0 1-.1-.14.2.2 0 0 1 .04-.18q.07-.06.14-.03.05.03.07.07zm-.01-.02.14-.09q-.03-.06-.1-.05-.08.04-.05.12v.02zm.37-.59.26.42q.03.05.07.02v.01l-.14.1c-.02-.03.03-.03.02-.06q0-.04-.04-.08l-.17-.29q-.03-.04-.06-.01l-.02-.01.07-.1zm.3.2q.04.08.13.1.1 0 .12-.1v-.05q.02.01.02.04.01.09-.05.15a.2.2 0 0 1-.16.01.2.2 0 0 1-.1-.14.2.2 0 0 1 .04-.18q.07-.06.14-.03.05.03.07.07zm-.01-.02.14-.09q-.03-.05-.1-.05-.08.04-.05.12v.02zm-3.72 3.19.14.22q0-.07.07-.13a.1.1 0 0 1 .12.04l.11.19q.03.03.07 0 .01.02-.01.03l-.13.08c-.02-.02.02-.02.02-.04q0-.04-.02-.07l-.1-.15c-.03-.05-.1-.02-.1.03q-.03.03-.01.06l.1.17c.02.04.06 0 .08 0q0 .02-.02.03l-.13.08c-.02-.02.04-.03.02-.06l-.05-.1-.17-.26q-.03-.05-.06 0v-.03l.06-.08zm.68.16q-.01.06-.06.1-.07.05-.13-.03-.02-.06.02-.12l.07-.1a.1.1 0 0 0-.06-.08c-.04 0-.1.04-.07.08l.01.05c-.01.04-.07.02-.07-.02q0-.08.08-.12.05-.04.11-.02l.07.08.08.13q.03.03.04-.02 0-.02.01 0t0 .06q-.04.07-.1.02zm-.01-.02-.07-.12q-.06.06-.07.13.01.07.08.07.05-.03.06-.08m.09-.33q0-.09.08-.13.1-.04.17.06.06.08.04.2a.2.2 0 0 1-.13.12q-.05.02-.08 0l-.22-.35q-.01-.05-.06-.02h-.01l.06-.1h.02zm.01.02.12.19q.07.01.12-.05.02-.1-.04-.17t-.13-.06q-.06.03-.07.1zm.2-.45c.05-.03.09.05.03.07-.04.02-.07-.05-.03-.07m.13.14.16.26q.01.05.07.02v.02l-.14.08c-.02-.02.03-.02.02-.05q0-.04-.04-.07l-.09-.15q-.04-.03-.06 0l.06-.1zm.41.11q-.02.06-.06.1-.07.05-.13-.03-.02-.06.02-.12l.07-.1a.1.1 0 0 0-.06-.08c-.04 0-.1.04-.07.08l.01.05c-.01.04-.07.02-.07-.02q0-.08.08-.12.05-.04.11-.02l.07.08.08.14q.03.01.04-.03 0-.02.01 0t0 .06q-.04.07-.1.02zm-.01-.02-.07-.12q-.06.06-.07.13.01.07.08.07.04-.03.06-.08m.11-.31q0-.09.07-.14.08-.02.12.05l.11.18q.03.04.07 0v.03l-.13.06c.03-.02 0-.06 0-.08l-.1-.15q-.04-.06-.1 0-.03.03-.02.08l.1.17q.04.04.08.01v.02l-.15.09.01-.03c.03-.02 0-.06 0-.08l-.11-.17c-.02-.03-.05 0-.06 0q-.02 0 0 0l.06-.1h.02zm.76-.3a.2.2 0 0 1-.01.17.13.13 0 0 1-.15.05q-.1-.03-.14-.13-.04-.14.07-.22.06-.04.13 0c.03 0 .03.05 0 .06-.05.02-.06-.06-.11-.04q-.07.03-.06.11a.2.2 0 0 0 .13.15q.08.02.12-.06l.01-.09zm.01-.28.04.07q-.01-.08.04-.12c.03-.03.1.02.06.06-.02.02-.07-.02-.08.03v.07l.1.15q.03.04.08.01v.02l-.15.1c-.02-.03.02-.03.02-.05q.01-.04-.02-.07l-.1-.16q-.04-.04-.06 0v-.01zm.25-.01q.04.08.13.1.1 0 .12-.1v-.05q.02.01.02.04.01.09-.05.15a.2.2 0 0 1-.16.01.2.2 0 0 1-.1-.14.2.2 0 0 1 .04-.18q.07-.06.14-.03.05.03.07.07zm-.01-.02.14-.09q-.04-.06-.1-.05-.08.04-.05.12v.02zm.17-.47c.05-.03.09.05.03.07-.04.02-.07-.05-.03-.07m.13.14.16.26q.01.05.07.02v.02l-.14.08c-.02-.02.03-.02.02-.05q0-.04-.04-.07l-.09-.15q-.04-.03-.06 0v-.01l.06-.09zm.47.11q-.01.08-.1.12-.11.01-.18-.1a.2.2 0 0 1 0-.2q.04-.08.12-.08l-.07-.12q-.04-.02-.06.01v-.02l.06-.08h.02l.24.39q.02.05.06.02.02-.02.01 0l-.06.1h-.02zm-.01-.02-.1-.16q-.05-.06-.12-.04-.06.06-.02.14.04.1.13.14.06 0 .1-.06zm.11-.43q.07-.05.16-.01.1.06.11.2 0 .09-.08.14a.2.2 0 0 1-.17 0 .2.2 0 0 1-.09-.24zm0 .03q-.06.04-.02.11.03.11.13.16.08.02.11-.04.03-.07-.02-.13-.05-.08-.14-.11zm-1.02-9.29.08.13c-.02.02-.03-.02-.04-.02-.05-.05-.14-.04-.17.02q-.03.08.04.1h.22q.1.03.1.14a.2.2 0 0 1-.14.13c-.03 0-.08.01-.06.04h-.01l-.08-.12c.02-.02.03.02.05.03.05.04.14.02.18-.03q.03-.07-.05-.12h-.16q-.08.01-.12-.05-.05-.1.03-.17.05-.03.12-.04zm.12-.11c.04-.03.07.05.03.06-.04.02-.06-.04-.03-.06m.1.12.14.23q.03.04.07.01v.01l-.12.08c-.02-.02.02-.02.02-.04q0-.04-.04-.07l-.07-.12q-.02-.04-.05 0v-.01zm.22-.11.12-.08v.02q-.02.02.01.05l.15.11-.03-.2q0-.03-.04-.02h-.01l.08-.06v.02q-.02.02 0 .06 0 .14.04.28h-.02l-.23-.17zm.43-.28q.07-.04.14 0 .1.05.1.18c-.01.07-.1.14-.17.12a.2.2 0 0 1-.13-.14q-.01-.08.02-.13zm0 .02q-.05.06-.01.13.05.09.12.11.07 0 .09-.06-.01-.07-.05-.12-.05-.07-.14-.06zm.33-.23.05.09-.03-.02c-.03-.03-.1-.02-.11.03-.02.05.04.06.08.05h.11q.08.05.05.12-.04.07-.12.08 0 .02-.02.02l-.06-.09c.02-.02.03.02.04.02q.08.05.13-.03 0-.07-.08-.06h-.12a.1.1 0 0 1-.03-.13q.04-.05.1-.06zm.19-.11q.07-.04.14 0 .1.05.1.18c-.01.07-.1.14-.17.12a.2.2 0 0 1-.13-.14q-.01-.08.03-.14zm0 .02q-.05.06-.01.13.05.09.12.11.07 0 .09-.06-.01-.08-.05-.12-.05-.07-.14-.06zm.18-.26.05.09.06-.04.02.02-.06.04.1.17q.03.05.06.01l.02-.04q.02.08-.04.1t-.09-.04l-.1-.17-.04.02q-.02-.01 0-.04.02-.06.01-.11zm.22-.02.04.06q-.01-.08.05-.11c.04 0 .05.06.01.06q-.04 0-.05.02v.06l.08.13q.04.04.07.01v.02l-.12.08q-.01-.02.02-.04l-.02-.06-.1-.14q-.01-.02-.04 0-.01 0 0 0l.05-.08zm.24-.15q.07-.05.14 0 .1.05.1.18c-.01.07-.1.14-.17.12a.2.2 0 0 1-.13-.14q-.01-.08.02-.13zm0 .02q-.05.06-.01.13t.12.11q.07 0 .09-.06-.01-.07-.05-.12-.05-.08-.14-.06zm.33-.23.05.09-.03-.02c-.03-.03-.1-.02-.11.03-.02.05.04.06.08.05h.11q.08.05.05.12-.04.07-.12.08 0 .02-.02.02l-.06-.09c.02-.02.03.02.04.02q.08.04.13-.03 0-.07-.08-.06h-.12a.1.1 0 0 1-.03-.13q.04-.05.1-.06zm-2.08 2.39.06-.08h.02q0 .03.03.05-.01-.08.04-.11.07-.04.13 0 .1.1.07.23a.1.1 0 0 1-.1.08h-.02l.06.1h.06v.01l-.13.08v-.02q.04-.03 0-.08l-.16-.25q-.02-.04-.05 0zm.12-.01.08.13q.06.05.1 0 .05-.07 0-.13-.03-.07-.12-.09-.06.02-.06.09m.27-.15q.03.07.11.08.11 0 .1-.09v-.04q.03.01.02.04.01.08-.04.13a.13.13 0 0 1-.15 0 .2.2 0 0 1-.09-.12.14.14 0 0 1 .06-.15.1.1 0 0 1 .12-.02l.05.06zm-.01-.02.12-.07c-.02-.05-.09-.06-.12-.02a.1.1 0 0 0 0 .1zm.23-.27.04.06q-.01-.08.05-.11c.04 0 .05.06.01.06q-.04 0-.05.02v.06l.08.13q.03.04.07.01v.02l-.12.08q-.01-.02.02-.04l-.02-.06-.1-.14q-.01-.02-.04 0-.02 0 0 0l.05-.08zm.24-.06q0-.08.07-.12.04-.01.09.02 0-.07.06-.12.07-.02.11.05l.1.15h.05q.01.02-.01.02l-.11.07c-.02-.02.03-.02.02-.05l-.04-.08-.07-.1c-.04-.04-.09.01-.1.05v.04l.1.15c0 .03.04 0 .06 0l-.02.02-.11.07c-.02-.02.03-.02.02-.05l-.03-.07-.07-.1q-.06-.04-.1.03v.05l.09.15c.01.03.04 0 .06 0l-.01.02-.12.07c-.01-.02.04-.02.02-.05l-.05-.1-.07-.1c-.01 0-.04.04-.04.01l.05-.08h.02zm.62-.16q-.02.08-.08.1c-.05.02-.1-.04-.09-.08q.03-.08.08-.15l-.01-.03q-.05-.06-.1 0v.04q.03.05-.02.05-.05-.05 0-.11t.12-.05q.04.01.06.07l.08.12c0 .02.04 0 .04-.01v-.02l.01.02c0 .03-.02.1-.07.07zm-.01-.02-.06-.1-.06.1c0 .05.06.1.09.06zm.09-.27q0-.08.06-.12.07-.02.1.04l.1.15q.02.04.06.01v.02l-.12.07v-.02q.03-.03 0-.07l-.07-.12q-.04-.05-.1-.01l-.02.07.1.15q.01.03.06.01v.01l-.13.08.01-.02c.03-.02 0-.05 0-.07l-.1-.14q-.01-.03-.05 0v-.02l.05-.07h.02zm.29-.12q.03.07.11.08.11 0 .1-.09v-.04q.03.01.02.04.01.08-.04.13a.13.13 0 0 1-.15 0 .2.2 0 0 1-.09-.12.14.14 0 0 1 .06-.15.1.1 0 0 1 .12-.02l.05.06zm-.01-.02.12-.07c-.02-.05-.09-.06-.12-.02a.1.1 0 0 0 0 .1zm.48-.19q.03.07-.01.15a.1.1 0 0 1-.13.04q-.08-.03-.12-.12c-.02-.06 0-.15.06-.18q.07-.05.13 0c.02.05-.05.08-.07.03-.03-.04-.1.01-.09.06q0 .07.06.12t.1.03q.08-.04.06-.12zm.04-.12q.03.07.11.08.11 0 .1-.09v-.04q.03.01.02.04.01.08-.04.13a.13.13 0 0 1-.15 0 .2.2 0 0 1-.09-.12.14.14 0 0 1 .06-.15.1.1 0 0 1 .12-.02l.05.06zm-.01-.02.12-.07c-.02-.05-.09-.06-.12-.02a.1.1 0 0 0 0 .1zm.24-.27.04.06q-.01-.08.05-.11c.04 0 .05.06.01.06q-.04 0-.05.02v.06l.08.13q.03.04.07.01v.02l-.12.08q-.01-.02.02-.04l-.02-.06-.1-.14q-.01-.02-.04 0-.01 0 0 0l.05-.08zm.22.01q.03.07.11.08.11 0 .1-.09v-.04q.02.01.02.04.01.08-.04.13a.13.13 0 0 1-.15 0 .2.2 0 0 1-.09-.12.14.14 0 0 1 .06-.15.1.1 0 0 1 .12-.02l.05.06zm-.01-.02.12-.07c-.02-.05-.09-.06-.12-.02a.1.1 0 0 0 0 .1zm.15-.4c.04-.03.07.05.03.06-.04.02-.06-.04-.03-.06m.1.12.14.23q.03.03.07.01v.01l-.12.08c-.02-.02.02-.02.02-.04q0-.04-.04-.07l-.07-.12q-.03-.04-.05 0-.02 0 0-.01zm.24-.16.05.09-.03-.02c-.03-.03-.1-.02-.11.03-.02.05.04.06.08.05h.11q.08.05.05.12-.05.07-.12.08 0 .02-.02.02l-.05-.09c0-.02.02.02.03.02q.08.04.13-.03 0-.07-.08-.06h-.12a.1.1 0 0 1-.03-.13q.04-.05.1-.06zm-2.72 2.92q.03.07.11.08.11 0 .1-.08v-.05q.02.01.02.04.01.08-.04.13a.1.1 0 0 1-.13.01.2.2 0 0 1-.1-.13.14.14 0 0 1 .04-.15.1.1 0 0 1 .13-.02l.05.06zm-.01-.02.12-.07c-.02-.05-.09-.06-.12-.02a.1.1 0 0 0 0 .1zm.26-.23q0-.08.06-.12.06-.02.1.04l.1.15q.02.04.06.01v.02l-.12.07v-.02q.03-.03 0-.07l-.07-.12q-.04-.05-.1-.01l-.02.07.1.15q.01.03.06.01v.01l-.13.08.01-.02c.03-.02 0-.05 0-.07l-.1-.14q-.01-.03-.05 0v-.02l.05-.07h.02zm.43-.27q0-.08.07-.12.05-.01.09.02 0-.08.06-.12.07-.02.11.05l.1.15q.02.02.05 0 .01.02-.01.02l-.11.07c-.02-.02.03-.02.02-.05l-.04-.08-.07-.1c-.04-.04-.09.01-.1.05v.05l.1.14c0 .03.04 0 .06 0l-.02.02-.11.07c-.02-.02.03-.02.02-.05l-.04-.07-.06-.1c-.03-.04-.09-.01-.1.03q-.02.03 0 .05l.09.15c.01.03.04 0 .06 0l-.01.02-.12.07c-.01-.02.04-.02.02-.05l-.05-.1-.07-.1c-.01 0-.04.04-.04.01l.05-.08h.02zm.33-.48c.04-.03.07.05.03.06-.04.02-.06-.04-.03-.06m.1.12.14.23q.03.03.07.01v.01l-.12.08c-.02-.02.02-.02.02-.04q0-.04-.04-.07l-.07-.12q-.02-.04-.05 0v-.01zm.22-.09.06-.08h.02q0 .03.03.05-.01-.08.04-.11.07-.04.13 0 .1.1.07.23a.1.1 0 0 1-.1.08h-.02l.06.1h.06v.01l-.13.08v-.02q.05-.03 0-.08l-.16-.25q-.02-.05-.05 0zm.12-.01.08.13q.06.05.1 0 .05-.07 0-.13-.03-.07-.12-.09-.06.02-.06.09m.47-.06q-.02.08-.08.1-.1.01-.09-.1.03-.08.09-.14-.02-.04-.06-.05-.07 0-.06.07.03.01.01.04-.05.04-.05-.04.01-.07.08-.1t.1.03l.1.15q.02.02.04-.01V299s.02.01.01.02c0 .03-.02.1-.07.07zm-.01-.02-.06-.1-.06.1c0 .05.06.1.09.06zm-.03-.49.22.36q.02.04.07.01v.02l-.13.07c-.01-.02.03-.02.02-.04q0-.04-.03-.07l-.15-.25q-.03-.04-.05-.01h-.02zm.46.24q-.02.08-.08.1-.1.01-.09-.1.03-.08.09-.14-.02-.04-.06-.05-.08 0-.06.07.03.01.01.04-.05.04-.05-.04.01-.07.08-.1t.1.03l.1.15q.02.02.04-.01v-.02s.02.01.01.02c0 .03-.02.1-.07.07zm-.01-.02-.06-.1-.06.1c0 .05.06.1.09.06zm.07-.28q0-.08.06-.11.1-.02.15.04a.2.2 0 0 1 .04.18.2.2 0 0 1-.13.1h-.06l-.18-.3q-.02-.05-.05 0l-.01-.02.05-.07s.02-.02.02 0zm.01.02.1.16q.08 0 .1-.06.02-.08-.05-.14-.04-.06-.12-.02zm.26-.25.04.06q-.01-.08.05-.11c.04 0 .05.06.01.06q-.04 0-.05.02v.06l.08.13q.04.04.07.01v.02l-.12.08q-.01-.02.02-.04l-.02-.06-.1-.14q-.01-.02-.04 0-.01 0 0 0l.05-.08zm.41.06q-.02.08-.08.1-.1.01-.09-.1.03-.08.09-.14-.02-.04-.06-.05-.07 0-.06.07.03.01.01.04-.05.04-.05-.04.01-.07.08-.1t.1.03l.1.15c0 .02.04.01.04-.01v-.02s.02.01.01.02c0 .03-.02.1-.07.07zm-.01-.02-.06-.1-.06.1c0 .05.06.1.09.06zm-2.57 2.34.05.09-.03-.02c-.03-.03-.1-.02-.11.03-.02.05.04.06.08.05h.11q.08.05.05.12-.04.07-.12.08 0 .02-.02.02l-.06-.09c.02-.02.03.02.04.02q.08.04.13-.03 0-.07-.08-.06h-.12a.1.1 0 0 1-.03-.13q.04-.05.1-.06zm.17.04q.03.07.11.08.11 0 .1-.09v-.04q.02.01.02.04.01.08-.04.13a.13.13 0 0 1-.15 0 .2.2 0 0 1-.09-.12.14.14 0 0 1 .06-.15.1.1 0 0 1 .12-.01q.03.01.05.05zm-.01-.02.12-.07c-.02-.05-.09-.06-.12-.02a.1.1 0 0 0 0 .1zm.23-.27.04.06q-.01-.08.05-.11c.04 0 .05.06.01.06q-.04 0-.05.02v.06l.08.13q.04.04.07.01v.02l-.12.08q-.01-.02.02-.04l-.02-.06-.1-.14q-.01-.02-.04 0-.01 0 0 0l.05-.08zm.23.01q.03.07.11.08.11 0 .1-.09v-.04q.02.01.02.04.01.08-.04.13a.13.13 0 0 1-.15 0 .2.2 0 0 1-.09-.12.14.14 0 0 1 .06-.15.1.1 0 0 1 .12-.01q.03.01.05.05zm-.01-.02.12-.07c-.02-.05-.09-.06-.12-.02a.1.1 0 0 0 0 .1zm.14-.39c.04-.03.07.05.03.06-.04.02-.06-.04-.03-.06m.1.12.14.23q.03.03.07.01v.01l-.12.08c-.02-.02.02-.02.02-.04q0-.04-.04-.07l-.07-.12q-.02-.04-.05 0v-.01zm.24-.16.05.09-.03-.02c-.03-.03-.1-.02-.11.03-.02.05.04.06.08.05h.11q.08.04.05.12-.04.07-.12.08 0 .02-.02.02l-.06-.09c.02-.02.03.02.04.02.04.03.11.02.13-.03q0-.07-.08-.06h-.12a.1.1 0 0 1-.03-.13q.04-.05.1-.06zm.19-.12.12-.08v.02q-.03.02.01.05l.15.11-.03-.2q0-.03-.04-.02h-.01l.08-.06v.02q-.02.02 0 .06 0 .14.04.28h-.02l-.23-.17h-.07zm.41-.12q.03.07.11.08.11 0 .1-.09v-.04q.02.01.02.04.01.08-.04.13a.13.13 0 0 1-.15 0 .2.2 0 0 1-.09-.12.14.14 0 0 1 .06-.15.1.1 0 0 1 .12-.01q.03.01.05.05zm-.01-.02.12-.07c-.02-.05-.09-.06-.12-.02a.1.1 0 0 0 0 .1zm.24-.27.04.06q-.01-.08.05-.11c.04 0 .05.06.01.06q-.04 0-.05.02v.06l.08.13q.04.04.07.01v.02l-.12.08q-.01-.02.02-.04l-.02-.06-.1-.14q-.01-.02-.04 0-.01 0 0 0l.05-.08zm.44.05a.1.1 0 0 1-.1.1q-.1 0-.14-.08a.2.2 0 0 1 0-.18q.03-.07.1-.06l-.06-.1q-.03-.02-.05 0v-.01l.05-.07h.02l.2.32q.01.06.06.03.01-.02 0 0l-.05.08h-.01zm-.01-.02-.09-.14q-.04-.05-.1-.02a.1.1 0 0 0 0 .13q.03.09.11.1.06 0 .08-.07m.27-.14q-.02.08-.08.1-.1.01-.09-.1.03-.08.09-.14-.02-.04-.06-.05-.08 0-.06.07.03.01.01.04-.05.04-.05-.04.01-.07.08-.1c.04-.02.1 0 .1.03l.1.15c0 .02.04 0 .04-.01v-.02s.02.01.01.02c0 .03-.02.1-.07.07zm-.01-.02-.06-.1-.06.1c0 .05.06.1.09.06zm.3-.17a.1.1 0 0 1-.1.1q-.1 0-.14-.08a.2.2 0 0 1 0-.18c.01-.04.07-.07.1-.06l-.06-.1h-.05v-.01l.05-.07h.02l.2.32q.01.06.06.03.01-.01 0 0l-.05.08h-.01zm-.01-.02-.09-.14q-.04-.06-.1-.02a.1.1 0 0 0 0 .13q.03.09.11.1.06 0 .08-.07m.08-.2q.03.07.11.08.11 0 .1-.09v-.04q.02.01.02.04.01.08-.04.13a.13.13 0 0 1-.15 0 .2.2 0 0 1-.09-.12.14.14 0 0 1 .06-.15.1.1 0 0 1 .12-.01q.03.01.05.05zm-.01-.02.12-.07c-.02-.05-.09-.06-.12-.02a.1.1 0 0 0 0 .1zm.24-.28.04.06q-.01-.08.05-.11c.04 0 .05.06.01.06q-.04 0-.05.02v.06l.08.13q.03.04.07.01v.02l-.12.08q-.01-.02.02-.04l-.02-.06-.1-.14q-.01-.02-.04 0-.01 0 0 0l.05-.08zm.41.07q-.02.08-.08.1-.1.01-.09-.1.03-.08.09-.14-.02-.04-.06-.05-.08 0-.06.07.03.01.01.04-.05.04-.05-.04.01-.07.08-.1t.1.03l.1.15q.02.02.04-.01v-.02s.02.01.01.02c0 .03-.02.1-.07.07zm-.01-.02-.06-.1-.06.1c0 .05.06.1.09.06zm.09-.27q0-.08.07-.12.05-.01.09.02 0-.08.06-.12.07-.02.11.05l.1.15q.02.02.05 0 .01.02-.01.02l-.11.07c-.02-.02.03-.02.02-.05l-.04-.08-.07-.1c-.04-.04-.09.01-.1.05v.04l.1.15c0 .03.04 0 .06 0l-.02.02-.11.07c-.02-.02.03-.02.02-.05l-.04-.07-.06-.1c-.03-.04-.09-.01-.1.03q-.02.03 0 .05l.09.15c.01.03.04 0 .06 0l-.01.02-.12.07c-.01-.02.04-.02.02-.05l-.05-.1-.07-.1c-.02 0-.04.04-.04.01l.05-.08h.02zm.44-.22q.03.07.11.08.11 0 .1-.09v-.04q.02.01.02.04.01.08-.04.13a.13.13 0 0 1-.15 0 .2.2 0 0 1-.09-.12.14.14 0 0 1 .06-.15.1.1 0 0 1 .12-.01q.03.01.05.05zm-.01-.02.12-.07c-.02-.05-.09-.06-.12-.02a.1.1 0 0 0 0 .1zm.28-.21q0-.07.06-.12.07-.02.1.04l.1.15q.02.04.06.01v.02l-.12.07v-.02q.03-.03 0-.07l-.07-.12q-.04-.05-.1-.01-.02.03-.02.07l.1.15q.01.04.06.01v.01l-.13.08.01-.02c.03-.02 0-.05 0-.07l-.1-.14q-.01-.03-.05 0v-.02l.05-.07h.02zm.2-.33.05.09.06-.04.02.02-.06.04.1.17q.03.05.06.01l.02-.04q.02.08-.04.1t-.09-.04l-.1-.17-.04.02v-.04q.02-.06.01-.11zm.24.11q.03.07.11.08.11 0 .1-.09v-.04q.02.01.02.04.01.08-.04.13a.13.13 0 0 1-.15 0 .2.2 0 0 1-.09-.12.14.14 0 0 1 .06-.15.1.1 0 0 1 .12-.01q.03.01.05.05zm-.01-.02.12-.07c-.02-.05-.09-.06-.12-.02a.1.1 0 0 0 0 .1zm-4.45 3.8q0-.08.07-.12.04-.01.09.02 0-.08.06-.12.07-.02.11.05l.1.15h.05q.01.02-.01.02l-.11.07c-.02-.02.03-.02.02-.05l-.04-.08-.07-.1c-.04-.04-.09.01-.1.05v.04l.1.15c0 .03.04 0 .06 0l-.02.02-.11.07c-.02-.02.03-.02.02-.05l-.04-.07-.06-.1q-.06-.04-.1.03v.05l.09.15c.01.03.04 0 .06 0l-.01.02-.12.07c-.01-.02.04-.02.02-.05l-.04-.08-.07-.11c-.02-.03-.05.03-.05 0l.05-.08h.02zm.32-.47c.04-.03.07.05.03.06-.04.02-.06-.04-.03-.06m.1.12.14.23q.03.03.07.01v.01l-.12.08c-.02-.02.02-.02.02-.04q0-.04-.04-.07l-.07-.12q-.02-.04-.05 0v-.01zm.25-.16.05.09-.03-.02c-.03-.03-.1-.02-.11.03-.02.05.04.06.08.05h.11q.08.04.05.12-.04.07-.12.08 0 .02-.02.02l-.06-.09c.02-.02.03.02.04.02q.08.04.13-.03 0-.07-.08-.06h-.12a.1.1 0 0 1-.03-.13q.04-.05.1-.06zm.54.01a.1.1 0 0 1-.1.1q-.1 0-.14-.08a.2.2 0 0 1 0-.18c.01-.04.07-.07.1-.06l-.06-.1c-.01-.03-.04 0-.05 0v-.01l.05-.07h.02l.2.32q.01.06.06.03.01-.02 0 0l-.05.08h-.01zm-.01-.02-.09-.14q-.04-.05-.1-.02a.1.1 0 0 0 0 .13q.03.09.11.1.06 0 .08-.07m-.05-.47c.04-.03.07.05.03.06-.04.02-.06-.04-.03-.06m.1.12.14.23q.03.03.07.01v.01l-.12.08c-.02-.02.02-.02.02-.04q0-.04-.04-.07l-.07-.12q-.02-.04-.05 0v-.01zm.24-.16.05.09-.03-.02c-.03-.03-.1-.02-.11.03-.02.05.04.06.08.05h.11q.08.04.05.12-.04.07-.12.08 0 .02-.02.02l-.06-.09c.02-.02.03.02.04.02.04.03.11.02.13-.03q0-.07-.08-.06h-.12a.1.1 0 0 1-.03-.13q.04-.05.1-.06zm.38-.01q.03.08-.01.15a.1.1 0 0 1-.13.04q-.08-.03-.12-.12c-.02-.06 0-.15.06-.18q.07-.04.13 0c.02.05-.05.08-.07.03-.03-.04-.1.01-.09.06q0 .07.06.12t.1.03q.08-.04.06-.12zm-.08-.36c.04-.03.07.05.03.06-.04.02-.06-.04-.03-.06m.1.12.14.23q.03.03.07.01v.01l-.12.08c-.02-.02.02-.02.02-.04q-.01-.04-.04-.07l-.07-.12q-.03-.04-.05 0-.02 0 0-.01zm.08 0 .06-.08h.02q0 .02.03.05-.01-.08.04-.11.07-.04.13 0 .1.1.07.23a.1.1 0 0 1-.1.08h-.02l.06.1q.04.02.06 0v.01l-.13.08v-.02q.05-.03 0-.08l-.16-.25q-.02-.04-.05 0zm.12-.01.08.13q.06.05.1 0 .04-.07 0-.13-.03-.08-.12-.09-.06.01-.06.09m.15-.4c.04-.03.07.05.03.06-.04.02-.06-.04-.03-.06m.1.12.14.23q.03.03.07.01v.01l-.12.08c-.02-.02.02-.02.02-.04q0-.04-.04-.07l-.07-.12q-.03-.04-.05 0-.02 0 0-.01zm.08-.23.22.36q.02.04.07.01v.02l-.13.07c-.01-.02.03-.02.02-.04q0-.04-.03-.07l-.15-.25q-.02-.04-.05-.01h-.02zm.28 0q.07-.05.14 0 .1.05.1.18c-.01.07-.1.14-.17.12a.2.2 0 0 1-.13-.14q-.01-.08.02-.13zm0 .02q-.05.06-.01.13t.12.11q.08 0 .09-.06-.01-.07-.05-.12-.05-.08-.14-.06zm.33-.23.05.09-.03-.02c-.03-.03-.1-.02-.11.03-.02.05.04.06.08.05h.11q.08.04.05.12-.04.07-.12.08 0 .02-.02.02l-.06-.09c.02-.02.03.02.04.02q.08.04.13-.03 0-.07-.08-.06h-.12a.1.1 0 0 1-.03-.13q.04-.05.1-.06zm-1.76 4.26q-.01-.08.04-.14.05-.04.12-.02.06.05.04.13-.02.02 0 .02.08 0 .13.07.05.1-.03.2l-.1.05c-.04 0-.04-.06 0-.06s.1 0 .11-.05q.03-.08-.05-.13-.06-.02-.12 0 0 .03-.01 0 .06-.04.04-.12-.03-.08-.11-.05-.05.04-.05.1zm.67-.1.02.1-.23.14q-.01-.04.01-.08.05-.12.03-.26-.02-.09-.1-.1-.1.01-.1.12v.02a.14.14 0 0 1 0-.15q.07-.07.17-.04.07.05.07.14l-.04.25q0 .02 0 0 .08-.03.13-.07.04-.04.03-.07zm.11-.04q.04-.01.05.02.01.04-.02.05a.04.04 0 0 1-.05-.03q0-.03.02-.04m.28-.65.13-.09q.01.03-.01.04-.03.07-.02.14v.16l.07.12q.03.04.07 0v.02l-.15.1v-.02q.05-.04 0-.1l-.05-.08-.24-.11q-.03-.01-.07 0l.02-.02.14-.1q.02.02-.01.04c-.03.03.02.05.04.06l.15.07v-.2q-.01-.05-.06-.02zm.71-.04q.03.08-.01.15a.1.1 0 0 1-.13.04q-.08-.03-.12-.12c-.02-.06 0-.15.06-.18q.07-.04.13 0c.02.05-.05.08-.07.03-.03-.04-.1.01-.09.06q0 .07.06.12t.1.03q.07-.04.06-.12zm.06-.27q.07-.05.14 0 .1.05.1.18c-.01.07-.1.14-.17.12a.2.2 0 0 1-.13-.14q-.02-.08.03-.14zm0 .02q-.05.06-.01.13t.12.11q.07 0 .09-.06-.01-.07-.05-.12-.05-.08-.14-.06zm.27-.13q0-.08.06-.12.07-.03.1.04l.1.15q.02.04.06.01v.02l-.12.07v-.02q.03-.03 0-.07l-.07-.12q-.04-.05-.1-.01l-.02.07.1.15q.01.03.06.01v.01l-.13.08.01-.02c.03-.02 0-.05 0-.07l-.1-.14q-.01-.03-.05 0v-.02l.05-.07h.02zm.31-.26q.07-.04.14 0 .1.06.1.17-.04.13-.16.13a.2.2 0 0 1-.14-.14q-.01-.08.03-.14zm0 .02q-.05.06-.01.13.05.09.12.11.07 0 .09-.06-.01-.07-.05-.12-.05-.07-.14-.06zm.49-.09q.03.08-.01.15a.1.1 0 0 1-.13.04q-.08-.03-.12-.12c-.02-.06 0-.15.06-.18q.07-.04.13 0c.02.05-.05.08-.07.03-.03-.04-.1.01-.09.06q0 .07.06.12t.1.03q.07-.04.06-.12zm.04-.12q.03.07.11.08.11 0 .1-.09v-.04q.02.01.02.04.01.08-.04.13a.13.13 0 0 1-.15 0 .2.2 0 0 1-.09-.12.14.14 0 0 1 .06-.15.1.1 0 0 1 .12-.02l.05.06zm-.01-.02.12-.07c-.02-.05-.09-.06-.12-.02a.1.1 0 0 0 0 .1zm.23-.27.04.06q-.01-.08.05-.11c.04 0 .05.06.01.06q-.04 0-.05.02v.06l.08.13q.03.04.07.01v.02l-.12.08q-.01-.02.02-.04l-.02-.06-.1-.14q-.01-.02-.04 0-.02 0 0 0l.05-.08zm.23.01q.03.07.11.08.11 0 .1-.09v-.04q.03.01.02.04.01.08-.04.13a.13.13 0 0 1-.15 0 .2.2 0 0 1-.09-.12.14.14 0 0 1 .06-.15.1.1 0 0 1 .12-.02l.05.06zm-.01-.02.12-.07c-.02-.05-.09-.06-.12-.02a.1.1 0 0 0 0 .1zm.14-.42c.04-.03.07.05.03.06-.04.02-.06-.04-.03-.06m.1.12.14.23q.03.03.07.01v.01l-.12.08c-.02-.02.02-.02.02-.04q0-.04-.04-.07l-.07-.12q-.03-.04-.05 0-.02 0 0-.01zm.25-.13.05.09-.03-.02c-.03-.03-.1-.02-.11.03-.02.05.04.06.08.05h.11q.08.04.05.12-.04.07-.12.08 0 .02-.02.02l-.06-.09c.02-.02.03.02.04.02q.08.05.13-.03 0-.07-.08-.06h-.12a.1.1 0 0 1-.03-.13q.04-.05.1-.06zm.2-.34.22.36q.02.04.07.01v.02l-.13.07c-.01-.02.03-.02.02-.04q0-.04-.03-.07l-.15-.25q-.02-.04-.05-.01h-.02zm.45.25q-.02.08-.08.1c-.05.02-.1-.04-.09-.08q.03-.08.08-.15l-.01-.03q-.05-.06-.1 0v.04q.03.05-.02.05-.05-.05 0-.11t.12-.05q.04.01.06.06l.08.13c0 .02.04 0 .04-.01v-.02s.02.01.01.02c0 .03-.02.1-.07.07zm-.01-.02-.06-.1-.06.1c0 .05.06.1.09.06zm-4.05 3.31.12-.08v.02q-.02.02.01.05l.15.11-.03-.2q0-.03-.04-.02h-.01l.08-.06v.02q-.02.02 0 .06 0 .15.04.28h-.02l-.23-.17h-.07zm.4-.14q.03.07.11.08.11 0 .1-.09v-.04q.02.01.02.04.01.08-.04.13a.13.13 0 0 1-.15 0 .2.2 0 0 1-.09-.12.14.14 0 0 1 .06-.15.1.1 0 0 1 .12-.01q.03.01.05.05zm-.01-.02.12-.07c-.02-.05-.09-.06-.12-.02a.1.1 0 0 0 0 .1zm.23-.27.04.06q-.01-.08.05-.11c.04 0 .05.06.01.06q-.04 0-.05.02v.06l.08.13q.03.04.07.01v.02l-.12.08q-.01-.02.02-.04l-.02-.06-.1-.14q-.01-.02-.04 0-.02 0 0 0l.05-.08zm.46.07a.1.1 0 0 1-.1.1q-.1 0-.14-.08a.2.2 0 0 1 0-.18c.01-.04.07-.07.1-.06l-.06-.1c-.01-.03-.04 0-.05 0v-.01l.05-.07h.02l.2.32q.01.06.06.03.01-.01 0 0l-.05.08h-.01zm-.01-.02-.09-.14q-.05-.05-.1-.02a.1.1 0 0 0 0 .13q.03.09.11.1.06 0 .08-.07m.25-.16q-.02.08-.08.1-.1.01-.09-.1.03-.08.09-.14-.02-.04-.06-.05-.07 0-.06.07.03.01.01.04-.05.04-.05-.04.01-.07.08-.1c.04-.02.1 0 .1.03l.1.15c0 .02.04 0 .04-.01v-.02s.02.01.01.02c0 .03-.02.1-.07.07zm-.01-.02-.06-.1-.06.1c0 .05.06.1.09.06zm.31-.15a.1.1 0 0 1-.1.1q-.1 0-.14-.08a.2.2 0 0 1 0-.18c.01-.04.07-.07.1-.06l-.06-.1c-.01-.03-.04 0-.05 0v-.01l.05-.07h.02l.2.32q.02.06.06.03.02-.01 0 0l-.05.08h-.01zm-.01-.02-.09-.14q-.04-.06-.1-.02a.1.1 0 0 0 0 .13q.03.09.11.1.06 0 .08-.07m.21.07c.02-.03.03-.1 0-.12l-.03.02q-.05.02-.05-.04.03-.06.1-.02.04.07 0 .13zm.04-.53.12-.08q.02.02-.01.03 0 .04.04.06l.13.08-.03-.19q-.01-.04-.05-.02l.01-.01.07-.05c.02.02-.01.03 0 .05l.02.2.03.17q.01.08-.05.12c-.04.03-.08-.03-.04-.06q.06.01.07-.04l-.02-.1-.22-.14zm.45-.49.22.36q.02.04.07.01v.02l-.13.07c-.01-.02.03-.02.02-.04q0-.04-.03-.07l-.15-.25q-.03-.04-.05-.01h-.02zm.44.23c-.02.04-.03.1-.08.1-.06.02-.1-.04-.09-.1q.03-.08.09-.14-.02-.04-.06-.05-.08 0-.06.07.03.01.01.04-.05.04-.05-.04.01-.07.08-.1c.04-.02.1 0 .1.03l.1.15c0 .02.04 0 .04-.01v-.02s.02.01.01.02c0 .03-.02.1-.07.07zm-.01-.02-.06-.1-.06.1c0 .05.06.1.09.06zm.12-.35.12-.08v.02q-.02.02.01.05l.15.11-.03-.2q0-.03-.04-.02h-.01l.08-.06v.02q-.02.02 0 .06 0 .15.04.28h-.02l-.23-.17h-.07zm.4-.14q.03.07.11.08.11 0 .1-.09v-.04q.03.01.02.04.01.08-.04.13a.13.13 0 0 1-.15 0 .2.2 0 0 1-.09-.12.14.14 0 0 1 .06-.15.1.1 0 0 1 .12-.01q.03.01.05.05zm-.01-.02.12-.07c-.02-.05-.09-.06-.12-.02a.1.1 0 0 0 0 .1zm.24-.27.04.06q-.01-.08.05-.11c.04 0 .05.06.01.06q-.04 0-.05.02v.06l.08.13q.04.04.07.01v.02l-.12.08q-.01-.02.02-.04l-.02-.06-.1-.14q-.01-.02-.04 0-.01 0 0 0l.05-.08zm.45.07a.1.1 0 0 1-.1.1q-.1 0-.14-.08a.2.2 0 0 1 0-.18q.03-.07.1-.06l-.06-.1c-.02-.03-.04 0-.05 0v-.01l.05-.07h.02l.2.32q.02.06.06.03.01-.01 0 0l-.05.08h-.01zm-.01-.02-.09-.14q-.05-.05-.1-.02a.1.1 0 0 0 0 .13q.03.09.11.1.06 0 .08-.07m.26-.16q-.02.08-.08.1-.1.01-.09-.1.03-.08.09-.14-.02-.04-.06-.05-.07 0-.06.07.03.01.01.04-.05.04-.05-.04.01-.06.08-.1.06-.03.1.03l.1.15q.02.02.04-.01v-.02s.02.01.01.02c0 .03-.02.1-.07.07zm-.01-.02-.06-.1-.06.1c0 .05.06.1.09.06zm.31-.15a.1.1 0 0 1-.1.1q-.1 0-.14-.08a.2.2 0 0 1 0-.18q.03-.07.1-.06l-.06-.1c-.01-.03-.04 0-.05 0v-.01l.05-.07h.02l.2.32q.01.06.06.03.01-.01 0 0l-.05.08h-.01zm-.01-.02-.09-.14q-.04-.06-.1-.02a.1.1 0 0 0 0 .13q.03.09.11.1.06 0 .08-.07m.24-.48q.07-.04.14 0 .1.05.1.18c-.01.07-.1.14-.17.12a.2.2 0 0 1-.13-.14q-.01-.08.03-.14zm0 .02q-.05.06-.01.13.04.09.12.11.08 0 .09-.06-.01-.08-.05-.12-.05-.07-.14-.06zm.33-.23.05.09-.03-.02c-.03-.03-.1-.02-.11.03-.02.05.04.06.08.05h.11q.08.04.05.12-.04.07-.12.08 0 .02-.02.02l-.06-.09c.02-.02.03.02.04.02q.08.05.13-.03 0-.07-.08-.06h-.12a.1.1 0 0 1-.03-.13q.04-.04.1-.06zm-4.61 3.76.12.2q0-.08.06-.12.07-.02.1.04l.1.15q.02.03.06 0l-.01.03-.12.07q0-.02.02-.03.02-.04-.02-.07l-.08-.13c-.03-.04-.09 0-.1.05l.01.04.09.14c.01.03.04 0 .06 0l-.01.02-.12.07c-.01-.02.04-.02.02-.05q-.01-.05-.05-.09l-.14-.22q-.02-.04-.05 0v-.02zm.6.15q-.02.08-.08.1-.1.01-.09-.1.03-.08.09-.14-.02-.04-.06-.05-.07 0-.06.06.03.03.01.05-.05.04-.05-.04.01-.07.08-.1t.1.03l.1.15c0 .02.04 0 .04-.01v-.02s.02.01.01.02c0 .03-.02.1-.07.07zm-.01-.02-.06-.1-.06.1c0 .05.06.1.09.06zm.05-.33.04.06q-.01-.08.05-.11c.04 0 .05.06.01.06q-.04 0-.05.02v.06l.08.13q.04.04.07.01v.02l-.12.08q-.01-.02.02-.04l-.02-.06-.1-.14q-.01-.02-.04 0-.01 0 0 0l.05-.08zm.4.07c-.02.04-.03.1-.08.1-.06.02-.1-.04-.09-.1q.03-.08.09-.14-.02-.04-.06-.05-.08 0-.06.06.03.03.01.05c-.02.04-.06 0-.05-.04q.01-.07.08-.1c.04-.02.1 0 .1.03l.1.15c0 .02.04.01.04-.01v-.02s.02.01.01.02c0 .03-.02.1-.07.07zm-.01-.02-.06-.1-.06.1c0 .05.06.1.09.06zm.13-.58.22.36q.02.04.07.01v.02l-.13.07c-.01-.02.03-.02.02-.04q0-.04-.03-.07l-.15-.25q-.02-.04-.05-.01h-.02zm.13-.09c.04-.03.07.05.03.06-.04.02-.06-.04-.03-.06m.1.12.14.23q.03.03.07.01v.01l-.12.08c-.02-.02.02-.02.02-.04q-.01-.04-.04-.07l-.07-.12q-.03-.04-.05 0v-.01zm.19-.04q0-.08.06-.11.1-.02.15.04a.2.2 0 0 1 .04.18.2.2 0 0 1-.13.1h-.06l-.18-.3q-.02-.04-.05 0l-.01-.02.05-.07s.02-.02.02 0zm.01.02.1.16q.08 0 .1-.06.02-.08-.05-.14-.04-.06-.12-.02zm.26-.25.04.06q-.01-.08.05-.11c.04 0 .05.06.01.06q-.04 0-.05.02v.06l.08.13q.04.04.07.01v.02l-.12.08q-.01-.02.02-.04l-.02-.06-.1-.14q-.01-.02-.04 0-.01 0 0 0l.05-.08zm.22.01q.03.07.11.08.11 0 .1-.09v-.04q.03.01.02.04.01.08-.04.13a.13.13 0 0 1-.15 0 .2.2 0 0 1-.09-.12.14.14 0 0 1 .06-.15.1.1 0 0 1 .12-.02l.05.06zm-.01-.02.12-.07c-.02-.05-.09-.06-.12-.02a.1.1 0 0 0 0 .1zm.33-.33.05.09-.03-.02c-.03-.03-.1-.02-.11.03-.02.05.04.06.08.05h.11q.08.04.05.12-.04.07-.12.08 0 .02-.02.02l-.06-.09c.02-.02.03.02.04.02q.08.04.13-.03 0-.07-.08-.06h-.12a.1.1 0 0 1-.03-.13q.04-.05.1-.06zm.24.14q.04-.01.05.02.01.04-.02.05a.04.04 0 0 1-.05-.03q0-.03.02-.04"/></g></g><path fill="#201b18" d="M362.48 203.9c-6.2-.11-12.45 1.3-17.65 4.53-2.4 1.48-2.96 1.98-1.64 4.37-.31.21-2.49.88-3.03 1.07-1.99.75-4.01 1.5-5.7 2.52-1.03.62-1.46 1.08-2.25 1.9l4.96-.38c-.15.32-.51.79-.71 1.1-.85 1.22-1.38 2.19-2.12 3.47 1.4-.95 2.67-1.84 4.3-2.63 3.54-1.8 9.93-1.84 12.55-4.99.67-.8.26-1.27-.3-2.56 1.94-.64 2.67-1.1 5.02-1.63 5.7-1.27 9.62.24 12.37-.44.86-.21 1.7-.68 1.76-1.59l-.4-2.87 9.24-.01c0 1.63-1.56 3.71 1.31 4.46 2.6.68 7.85-.8 12.38.45l5.02 1.63c-.02.24-.38.88-.49 1.21-.21.58-.19.89.18 1.3a8 8 0 0 0 1.93 1.55 21 21 0 0 0 5.21 1.81c5.23 1.27 5.72 1.6 9.74 4.29-.27-.78-2.18-3.57-2.81-4.56l4.94.4c-.85-1.3-3.46-2.67-4.97-3.26l-6.01-2.2c.54-1.04 1-1.92.45-2.78-.84-1.27-5.86-3.74-7.13-4.09a64 64 0 0 0-6.58-1.41c-2.14-.35-6.26-.64-6.26-.64-.3-.31.57-1.94-.75-3.09-.78-.61-1.9-.83-3.05-.95-4.6-.44-10.85-.3-15.5 0-1.33.09-2.28.23-3.04.95-.93.88-1.05 1.42-.97 3.07"/><g fill="#002d62"><path d="M363.77 207.17c.68-.6.78-.79 1.86-1.15 2.37-.8 6.1-.73 8.6-.73 2.04.01 4.02-.02 6.03.17 2.03.2 3.23.45 4.58 1.62.24-1.4.55-2.62.6-4.17.06-1.68-.89-2.17-2.37-2.47-2.45-.51-6.56-.46-9.2-.44-1.73.01-7.85.06-9.1.51-1.13.4-2.03 1.3-1.93 2.84.03.77.6 3.33.93 3.82"/><path d="M345.75 215.17c.42-.38.13-.76 2.07-1.84a32 32 0 0 1 8.66-3.18c2.43-.48 4.93-.47 7.46-.28 1.13.09 2.61.27 3.72.09 0 0 1.2-.28 1.54-.58.44-.39.41-1.29.41-1.29-.81-.65-3.13 1.6-5.24.9-.68-.23-.87-1.33-1.13-2.1l-.68-2.58c-3.86-.5-10.46 1.04-14.02 2.63-1.62.72-4.27 2.06-5.26 3.09-.89.9.02 2.22.52 2.88.64.83 1.49 1.8 1.95 2.26m33.14-7.14c-.22 1.36.78 1.75 1.97 1.92 2.48.35 6.18-.78 11.1.18 2.1.42 4.16 1.12 6 1.87.73.3 3.32 1.5 3.84 2.03l.94 1.11c.26-.14 1.68-1.85 1.97-2.22.55-.7 1.36-1.96.53-2.92-.73-.84-3.92-2.49-5.33-3.1a36 36 0 0 0-7.2-1.92c-2.37-.4-7.09-.74-7.09-.74s-.3 4.39-1.5 4.75c-2.36.7-3.51-1.27-5.23-.96"/><path d="M397.51 213.48c-.15.68-.45.74.8 1.77 2.9 2.4 7.79 2.51 10.85 3.83 1.56.68 2.42 1.24 3.8 2.07-.14-.4-1.92-2.98-2.36-3.66 1.36-.02 3.14.1 4.54.2-.07-.06-.1-.13-.2-.2-2.05-1.8-7.29-3.45-9.92-4.32-.76.89-1.48 1.75-2.32 2.62-.32.31-.52.53-1.17.35-.81-.23-1.45-.93-1.94-1.37-.48-.42-1.44-1.23-2.08-1.29m-18.55-5.88c1.48.1 1.69.37 2.81.87.45.2 1.03.3 1.62.25.8-.06.9-.17 1.1-.8.32-.9-1.2-1.5-1.9-1.65l-3.27-.48zm-9.45 0-.3-1.77c-.99-.1-5.53.66-5.2 2.06.17.66.31.76 1.03.83 1.97.18 2.28-1.05 4.47-1.11zm-23.39 7.84c.66 1.17 2.42-.93 3.44-1.69.59-.43.66-.42 1.32-.7l-.36-.57c-.56.12-1.97.9-2.5 1.18-.78.43-1.64.98-1.9 1.78"/><path d="M397.64 213.06c.22.1.43.13.68.28 1.47.86 3.27 3.15 3.97 2.3.43-.54-1.17-1.63-1.66-1.9l-2.6-1.24c-.14.12-.32.35-.39.56m-46.71.47c.15.67.45.73-.8 1.77-2.9 2.4-7.79 2.51-10.85 3.83-1.56.68-2.42 1.23-3.8 2.07.14-.4 1.92-2.98 2.36-3.66-1.36-.02-3.14.1-4.54.19.07-.05.1-.12.2-.19 2.05-1.8 7.29-3.45 9.92-4.32q.39.44.75.89c.31.38 1.22 1.4 1.57 1.73.32.31.52.52 1.17.35.81-.23 1.45-.93 1.94-1.37.48-.43 1.44-1.23 2.08-1.3z"/></g><path fill="#eac102" d="M351.62 206.83c-.42 0-.8.2-1.18.36-.12.03-.43.15-.19.26.19.08.19.32.27.48l.3.84q.23.69.48 1.34c.03.12-.1.4.13.29l.73-.27c.34-.11.65-.34.81-.66.1-.14.1-.3.15-.46a1 1 0 0 0 0-.4c-.04-.2-.05-.4-.14-.57-.1-.25-.2-.5-.4-.69a1.5 1.5 0 0 0-.63-.44 1 1 0 0 0-.33-.08m-.2.3c.28-.02.49.23.62.45l.31.7c.12.37.25.75.2 1.14-.05.21-.25.35-.42.46-.18.1-.36-.08-.36-.26l-.21-.56c-.14-.32-.22-.66-.37-.99a4 4 0 0 1-.2-.67c-.06-.21.22-.27.38-.28zm1.64-.82c.06.1.23.12.22.28q.11.28.18.58.06.24.15.47l.17.61q.11.3.18.6c.03.15.15.33.05.48-.07.07-.04.17.07.12.16-.01.3-.12.46-.12.1-.03.31-.03.3-.14-.1-.09-.23-.15-.23-.3l-.2-.7-.16-.5q-.04-.2-.1-.39l-.25-.82c-.04-.1-.08-.22.03-.32.03-.16-.22-.02-.31-.02zm2.72-.76a1 1 0 0 0-.64.3q-.3.34-.32.79c-.01.26-.03.52.04.78q.14.6.53 1.09.26.26.6.38.3.08.58.01c.32-.1.56-.37.66-.68.07-.22.14-.44.12-.68 0-.22-.07-.42-.11-.64a2 2 0 0 0-.3-.65q-.2-.26-.47-.5a1 1 0 0 0-.66-.2zm-.01.21c.27.04.45.28.55.52.18.36.25.75.36 1.12.05.16.04.32.08.48q.06.34-.06.67c-.12.18-.4.24-.57.09-.17-.11-.24-.32-.34-.49-.06-.23-.18-.45-.22-.7-.05-.18-.13-.36-.14-.56-.05-.3-.13-.63-.02-.93.06-.14.21-.2.36-.2m2.2-.47q-.18.21-.23.5c-.04.19.03.38.06.57q.1.27.36.42.38.25.8.43c.19.07.39.19.44.39q.08.22.02.43c-.07.15-.22.29-.4.24a.6.6 0 0 1-.44-.2 1 1 0 0 1-.34-.54c-.07-.14-.21 0-.17.1q-.06.25-.03.49c.1.1.26.16.39.24q.24.13.51.14c.17-.02.36-.01.5-.1q.28-.12.4-.38.17-.32.08-.68a1 1 0 0 0-.64-.8q-.27-.15-.57-.26c-.2-.1-.46-.22-.51-.48-.05-.17 0-.4.18-.47s.37 0 .5.12q.18.16.26.37c-.03.19.26.12.16-.03-.05-.15.16-.38-.04-.47a1 1 0 0 0-.52-.2 1 1 0 0 0-.59.08zm10.43-4.09c-.29 0-.56.08-.83.12-.11.09-.38-.02-.4.15q.16.16.19.4c.03.25-.03.51.04.77.01.18-.03.37.04.54.03.28-.04.56.05.82.03.17.08.39-.06.52-.16.13.1.2.2.12l.58-.06c.14-.04.05-.16-.03-.2-.11-.2-.08-.43-.1-.64v-.5c.2-.08.41-.06.6-.14.38-.09.75-.35.81-.75a1 1 0 0 0-.35-.95 1.4 1.4 0 0 0-.75-.2zm-.07.3c.23-.04.4.19.47.38q.07.27.04.53c-.01.28-.25.49-.51.53-.13.01-.35.05-.3-.14a3 3 0 0 1-.04-.63c-.01-.2-.12-.42 0-.61.08-.11.23-.03.34-.06m2.47-.44c-.17-.05-.33.12-.3.3-.06.21-.07.43-.14.64q-.06.48-.17.94c-.09.38-.14.77-.27 1.14-.01.1-.25.24-.12.31l.58-.01c.18-.07-.08-.2-.11-.3q-.02-.22.04-.44c.01-.08.02-.17.12-.14h.72c.02.19.14.38.12.58-.05.09-.12.3.06.25.22 0 .44-.08.67-.06.2-.06-.06-.19-.09-.29a4 4 0 0 1-.2-.65l-.23-.82-.13-.46q-.14-.46-.24-.93c-.01-.1-.22-.05-.3-.06zm-.14.75c.14.4.21.82.36 1.21.08.15-.07.23-.2.2s-.45.12-.45-.1q.08-.24.1-.49.08-.3.12-.61zm2.72-.86-1.16.02q.01.2-.06.36l-.05.37c.13.03.18-.13.26-.2.11-.12.24-.27.43-.27.1 0 .25-.05.2.1.01.16.07.31.05.48q.03 1.06.01 2.14c0 .1-.1.13-.15.22.04.05.23 0 .33.02h.55c.1.02.08-.13-.02-.13-.07-.17-.05-.35-.07-.53 0-.76-.03-1.53 0-2.3.1-.05.22-.11.32-.04l.26.15.17.26c-.02.02.19.1.14-.02 0-.15-.07-.28-.07-.43-.03-.11.02-.28-.16-.23-.32-.03-.65.03-.98.03m2.65-.09c-.25-.01-.5.07-.74.05-.08 0-.24.03-.11.1.15.1.1.3.1.44-.01.78.03 1.55-.01 2.33-.03.13-.05.27-.18.34.03.1.23.02.33.05l.6.01c0-.12-.17-.17-.12-.3v-1.08c.18-.05.3.06.32.24q.05.23.17.45.12.24.3.45c.13.11.25.26.4.35l.35.09c0-.15-.14-.23-.2-.35-.13-.21-.2-.46-.31-.69a2 2 0 0 1-.14-.47c-.1-.15.1-.13.18-.2q.26-.15.4-.4c.1-.17.08-.38.07-.57 0-.17-.12-.31-.21-.45q-.18-.17-.41-.27-.28-.09-.56-.11zm.23.26q.26 0 .43.2.11.17.12.39.02.21-.02.43c-.07.18-.21.36-.42.38q-.23.05-.45.02c-.04-.1 0-.23-.02-.34l.01-.87c.02-.2.19-.2.35-.21m2.07.3c0 .14-.05.28-.04.43q.01.37-.04.76c-.03.42 0 .85-.02 1.28a1 1 0 0 1-.15.35c-.05.06-.08.1.02.09.13-.02.25.03.37.05h.46c.15-.04-.08-.1-.06-.2-.08-.18-.04-.37 0-.55.02-.4-.02-.81.05-1.21.02-.25-.03-.5.02-.74.07-.15-.03-.34.13-.45.03-.06.09-.14-.02-.11q-.29.01-.56-.04c-.09 0-.3-.07-.3.04.04.1.16.18.14.3m2.34-.12c-.06.27-.18.52-.24.79l-.15.48-.26.78c-.1.32-.19.67-.41.94-.13.04-.1.25.05.17.15.01.3.06.45.05.13.04.16-.08.04-.13a.35.35 0 0 1-.06-.47c0-.19.14-.28.31-.23q.28.05.57.05c0 .18.08.35.08.53.03.13-.22.37.01.36l.59.06c.09 0 .22 0 .12-.11-.13-.26-.14-.56-.2-.84-.01-.3-.1-.58-.13-.88-.05-.3-.13-.6-.15-.9q0-.23-.08-.45.01-.19-.19-.15c-.11 0-.23-.06-.35-.05m.04.71c.09.19.06.4.1.6.04.23.05.47.12.7.07.27-.26.14-.4.13-.13 0-.37 0-.25-.19q.08-.21.13-.42l.12-.4c.1-.11.08-.3.16-.42zm5.95 3.29c0 .15.21.2.17.38q-.01.52.03 1.06c.01.54.04 1.08 0 1.62q0 .14-.1.22c-.1.08.07.11.14.1l1.63-.06q.08-.37.12-.73c0-.12-.11-.07-.13.02-.15.2-.35.42-.62.43-.13 0-.3.05-.4-.06-.06-.13-.04-.27-.06-.41a30 30 0 0 1-.01-2.19c-.02-.15.07-.29.12-.42zm2.22 3.3.88-.01c0-.18-.12-.08-.14-.33-.01-.22.02-2.55.04-2.7.04-.3.13-.18.13-.31l-.86-.02c0 .22.1.02.11.35v.45l-.01 2.23c-.02.22-.14.16-.15.33zm1.37-3.38c.03.13.17.22.13.38 0 .36-.07.72-.08 1.09q0 .63-.07 1.28c-.02.15 0 .31-.08.45-.06.03-.2.13-.06.16.36.07.73.04 1.09.13.26.06.53-.02.76-.15.32-.21.4-.65.3-1-.02-.17-.16-.28-.28-.39l-.31-.27a.7.7 0 0 0 .61-.55.7.7 0 0 0-.16-.68q-.07-.1-.18-.16a1 1 0 0 0-.42-.18q-.63-.09-1.25-.1zm.77.3c.17.02.38 0 .5.15.2.22.2.57.06.83-.02.11-.15.19-.26.22q-.2.04-.42 0c-.03-.27.04-.55.03-.82a.6.6 0 0 1 .1-.37zm-.17 1.46c.24 0 .52.05.68.26.16.2.11.46.12.69-.03.29-.31.56-.61.5q-.26 0-.23-.27-.02-.6.04-1.18m1.59 1.85c.07.12.23.08.35.13l.8.2.7.14c.04-.19.19-.33.2-.52.1-.13-.1-.22-.16-.08a.9.9 0 0 1-.81.14c-.2 0-.33-.17-.26-.35q.02-.58.16-1.14c.12-.04.27.02.39.07.16.07.24.23.32.38.1.08.1-.18.12-.25l.07-.68c-.18.03-.25.32-.47.21-.15-.06-.47.03-.39-.21q.06-.4.16-.78c.29-.1.6.04.78.28.1.09.17.31.27.34.06-.23.02-.46.02-.69-.09-.14-.3-.1-.43-.16q-.62-.17-1.25-.28c-.24-.05.08.17.02.29l-.22 1.52-.18 1.17a.5.5 0 0 1-.19.27m2.81-2.65q.14.29.05.6c-.1.49-.24.98-.3 1.48l-.18.9c-.03.13-.35.23-.1.32l.63.2c.21.01-.05-.21.02-.33l.13-.67c.04-.12 0-.35.17-.36.2.02.1.27.14.39q.1.54.32 1.05c.11.21.32.36.52.49.04-.14-.12-.35-.14-.52-.07-.23-.07-.47-.08-.7l-.03-.56c.2-.06.4-.1.54-.24.22-.24.3-.6.22-.9a1.3 1.3 0 0 0-.61-.78c-.35-.2-.76-.2-1.13-.34zm.75.44a.6.6 0 0 1 .55.35c.12.33.08.71-.11 1-.12.17-.34.18-.52.14-.15-.01-.35-.06-.25-.26l.18-.97q.05-.15.15-.26m1.42 1.08c.16.02.25-.16.4-.19.14-.05.32-.13.44 0 .1.1.03.26 0 .38l-.16.62-.36 1.52c-.05.14-.05.32-.23.36-.08.15.21.15.3.22q.27.12.54.2c-.01-.14-.13-.26-.07-.4.07-.4.19-.78.27-1.17q.17-.72.36-1.42c.2-.06.36.12.44.28.08.15.11.32.2.47.12-.09.07-.26.09-.39l.03-.37c-.25-.13-.53-.2-.78-.32l-.57-.23-.62-.23c-.11.17-.15.38-.27.55zm3.13.63c-.13.08-.17.25-.25.37q-.17.23-.3.45l-.8 1.31a1 1 0 0 1-.43.4c-.12.15.16.18.25.24.1.06.26.2.33.14-.03-.16-.14-.31-.05-.48.07-.12.1-.4.3-.28.18.12.4.2.56.35.05.15-.06.3-.03.46.05.16-.22.26-.14.38.14.11.3.17.46.26.1.05.3.2.24-.01 0-.22-.05-.44 0-.65.08-.16.04-.35.06-.53 0-.23.06-.47.07-.7l.12-1.17c.01-.12.11-.35-.07-.38-.1-.04-.2-.2-.32-.16m-.22.7c.02.05.06.1.04.16q-.09.6-.14 1.22c0 .2-.24-.02-.33-.05-.12-.08-.35-.13-.2-.3.12-.21.3-.4.4-.61q.14-.2.23-.43zm2.05.42c-.04.2-.01.42-.16.58q-.14.3-.33.56-.17.34-.36.64l-.5.84c-.1.03-.3.05-.14.17.12.16.3.27.42.43l.56.52c.3.21.72.3 1.02.08q.23-.2.43-.43a2 2 0 0 0 .4-1.46 2 2 0 0 0-.57-1.22q-.3-.26-.57-.52-.11-.08-.2-.2zm.55.82c.24.17.4.47.38.77-.02.49-.25.93-.52 1.32-.15.24-.32.52-.62.58-.22.06-.45-.1-.55-.28-.1-.22.06-.43.15-.62q.37-.61.73-1.26.11-.27.33-.47c.03-.01.06-.05.1-.04"/><path fill="#006300" d="M363.22 281.23c.6.2 1.83.78 2.33 1.01l1.7 3.16c.64.46.54.36 1.27.54l-4.04 1.67c-1.18.44-.7 1.46-.16 1.67.6.18 1.85-.33 2.3-.54 2-.92 3.83-1.88 5.63-3.03.29-.18 1.62-1.1 1.88-1.05l7.15 4.05c.52.24 1.56.9 2.13.5.24-.16.6-.52.47-.93-.1-.44-.39-.52-.73-.64-.54-.24-3.78-1.7-3.88-1.7l.86-.23c.26-.18-.2-.71.15-.61l1.78-2.91 2.21-.8c-.01-2.04-16.68-3.31-21.05-.16"/><path fill="#ff0" d="M364.38 288.1c-.6.18-.44 1.33.76.95.8-.29.18-1.26-.76-.95m17.74.04c-.18.44-.16.65.26.83.44.2.7.2 1-.1.38-.4.07-.55-.27-.73-.36-.2-.08-.18-.36-.1-.21.08-.37.05-.63.1"/><path fill="#006300" stroke="olive" stroke-width=".2" d="M399.22 221.87c-.06.08-.1.06.05.33 1.5 3.02.97 1.59 2.21 5.53-.24-.25-.55-.68-.79-1a29 29 0 0 1-1.81-2.83 1.3 1.3 0 0 0-.45-.54c-.11.3.42 1.88.55 2.32.55 1.94 2.03 4.15 3.1 5.9-.3-.15-.5-.4-.76-.65-.94-.78-.68-.58-1.23-1.55a19 19 0 0 1-1.32-2.9q-.38-1.04-.81-2.04c-.11.13-.03-.1-.11.19-.08.27.02.59.05.86q.21 1.7.5 3.4c-.76-.32-1.5-.84-2.24-1.24-.16-.08-.37-.22-.55-.27l-.21.02c-.16.4 1.29 1.7 1.55 1.92.34.27 1.82 1.3 1.98 1.67.58 1.35 1.1 2.4 2 3.48l.79 1.02-1.74-1.75c-1.26-1.16-1.76-1.64-3.18-2.77.02.4.52.75.79 1l2.18 2.44c.68.9 1.5 1.65 2.1 2.6l1.38 2.31a13 13 0 0 0-.77-1.04l-2.1-2.62c-.74-.89-1.55-1.5-2.5-2.26a9 9 0 0 0-2.24-1.46c-.05.24.26.43.44.59 1.06.86 1.98 1.84 2.98 2.78q.6.55 1.14 1.18c.37.4.7.76 1.05 1.2.63.86 1.26 1.85 1.81 2.8l.85 1.48c-.66-.24-3.71-3.72-4.45-4.47-.6-.62-.87-.98-1.63-1.35.05.37 2.13 2.75 2.6 3.26.21.22.3.35.45.54l.92 1.05c.6.73 1.71 2.02 2.14 2.83l.63 1.3a20 20 0 0 0-1.42-1.91 9 9 0 0 0-.8-.95c-.68-.75-1.81-2.03-2.63-2.6l-2.1-1.2c-.11.21.34.53.6.75l.8.75c.94.76 2.23 2.22 2.96 3.19.5.6.88 1.16 1.3 1.8-.27-.15-.48-.4-.66-.61-.3-.3-.42-.38-.69-.62-.39-.4-.92-.78-1.44-1.16l-3.4-1.68c.05.27 1.18.97 1.5 1.16.65.43 1.76 1.13 2.34 1.75.26.27.4.47.63.68.5.46.88.94 1.27 1.51.4.57.74 1 1.1 1.6.4.61.64 1.15.95 1.83l1.16 4.29c-.37-1.4-1.08-2.95-1.58-4.32-.4-1.06-1.26-3.61-2.6-3.15-.5.19-.74.72-.95 1.15-.32.6-.74-.21-1.8 1.94a17 17 0 0 0-1.23 3.97c-.06.24-.06.4 0 .65.26-.11.44-.84.55-1.16.53-1.32 1.06-2.1 1.8-3.35l-1.01 4.57c.34-.06.45-.66.58-.98.45-1.13.84-2.26 1.26-3.4 1.5 1.05 1.98 6.72 2.2 8.74-.17-.7-.75-2.2-1.06-2.88l-1.53-2.54c-.9.1-1 1.24-1.21 1.94-.27-.35-.53-.94-1.14-.88-.55.02-.76.67-.84 1.29q-.13 1 .03 2c.02.13.18 1.45.26 1.56l.19.18.31-3.88c.58.27 1.7 2.78 1.53 3.8-.58 3.76-.92 4.94-2.93 8.04q-.5.83-1.1 1.6a8 8 0 0 1-.58.75l-.66.73c1.03-1.78 1.47-2.49 2.21-4.54.53-1.53.98-3.15 1.16-4.8a3 3 0 0 0-.02-.78c-.21.08-.27.38-.35.62-1.74 5.4-1.97 5.58-4.81 10.39l.52-3.08c-.26.03-.21.16-.32.46l-.23.6a18 18 0 0 1-1.42 3.4c.05-.33.23-.76.34-1.09.29-1 .47-2.07.63-3.1l.02-.7c-.31-.03-.33.6-.47.97-.34 1.1-.84 2.08-1.34 3.1v-.3c.1-.67.29-1.7.16-2.37 0 0 .1.17-.08-.24-.27.08-.32.6-.37.84q-.13.5-.3.94c-.65 1.84-1.46 3.02-2.41 4.7-.56-.02-.12.03.12.05l-.13-.04c.39.05.3.05.13.04.79.2 5.28 1.05 5.28 1.05 2.6-.11 4.34-.32 6.92-.05.4.02 2 .32 2.24.13-.76-.43-1.5-.62-2.34-.9l-2.48-.61 7.03-.19-.63-.35c-1.16-.46-4.3-.65-5.53-.73 2.32-.22 4.03-.4 6.35-.43.6-.17 2.67.5 1.76-.43-.81-.57-3.47-.65-4.34-.62l4.16-.19c.66-.17 4.94.83 3.43-.16-1.19-.6-3.8-1.14-5.06-1.33.73-.43 1.4-.86 2.18-1.18a39 39 0 0 1 5-1.62c1.87-.29 3.26-1.17.82-.78-1.5.16-3.31.59-4.63.72l1.18-.64c1.16-.6 2.5-.84 3.77-1.27.23-.08.16 0 .24-.21l-.21-.08c-.24-.03-.45.08-.7.1.77-.46 2.88-.89 3.67-1.08q1.42-.33 2.85-.75c.29-.08.68-.08.84-.32l-.18-.11c-.3-.1-5.4.65-5.95.76-.5.08-1.46.3-1.88.3 1.55-.65 3.08-1.33 4.72-1.82.29-.08 1.48-.3 1.63-.56-.31-.14-.58-.06-1.02.02-1.53.25-3 .65-4.46 1.11-.5.16-1.19.43-1.66.54 5.24-2.03 3.24-1.43 8.1-2.38.54-.1 1-.05 1.04-.43l-2.79-.16c-.92.03-1.87.24-2.63.27l2.08-1.75c.57-.49.31-.62 1.31-.65.4-.03 1.6.06 1.85-.08-.71-.73-.92-.35-1.6-.73l.84-1.03c.2-.27.42-.5.57-.86.08-.16.08-.13.03-.24l-.34.06-2.16 1.77c-.37.27-.29.25-.84.28-.95.08-1.87.37-2.74.53a23 23 0 0 1 2.81-1.96c.5-.33 1.03-.6 1.56-.9.42-.21 1.47-.56 1.55-.83l-3.34.86c-.66.24-2.48 1.1-2.87 1.43a43 43 0 0 1 5.47-4.85c.21-.16.75-.43.82-.67-.13-.06-.18-.09-.32-.06-.92.19-3 1.59-3.7 2.05a34 34 0 0 0-3.54 2.56 26 26 0 0 1 2.48-2.4l.5-.46c.37-.3.66-.59 1.03-.89.7-.59 1.42-1.21 2.05-1.86l1.05-.92c.24-.21.95-.64.92-1.02a52 52 0 0 0-4.15 2.64c-.69.46-1.32.94-1.98 1.4-.5.33-1.53 1.27-1.92 1.46.81-1.32 1.66-2.7 2.71-3.83a43 43 0 0 1 4.4-4.13c.4-.32.76-.72 1.13-1v-.13c-.34-.03-1.48.81-1.74 1.03a36 36 0 0 0-4.45 3.8c-.23.24-.42.49-.66.7-.68.65-1.34 1.5-1.9 2.3a60 60 0 0 0-2.21 3.3c.45-2.04 1.9-3.63 3-4.84l2.53-2.78c.19-.2.27-.33.43-.52 1.69-1.85 2.5-3.29 2.84-5.46-.29.42-.7.91-1.34 1.7-.2.24-.37.42-.57.69l-5.13 5.9c.23-.83 1.23-2.6 1.7-3.3a59 59 0 0 1 5.3-7.03l.24-.24c.06-.36.35-.55.72-.86.42-.35.5-.54 1-.8-.47-.5-2.24.61-2.58.85-2.24 1.54-3.84 3.64-5.47 5.75a25 25 0 0 1 2.18-5.4c.52-.7 1-1.61 1.53-2.26l1.47-2.32c-.34.02-.73.54-.95.75l-.42.44c-1.97 2.1-3.14 4.44-4.5 7.03.07-1.3 1.24-3.47 1.87-4.52.82-1.4 1.74-2.6 2.58-3.94-.48-.14-1.87 1.54-2.1 1.89-.62.75-1.22 1.5-1.75 2.37a29 29 0 0 0-2.5 5.17l-.16.39c.11-1.7 1.8-5.75 2.53-7.07.45-.79.92-1.4 1.45-2.08.21-.24.34-.46.53-.7l1.05-1.32 1.03-1.38c-.66-.24-3.03 2.46-3.48 3.02a28 28 0 0 0-1.6 2.32c.26-1.3 1.23-3.1 1.94-4.18.64-.97 1.3-1.75 2-2.61q.35-.39.61-.87c-.73-.1-3.76 3.43-4.37 4.21q-.38.51-.71 1.02l-1 1.6-.16.3-.21.27c.16-1.25.9-3.84 1.3-4.97.54-1.46 1.3-2.78 1.94-4.2-.53-.09-1.53 1.26-1.82 1.7l-1.18 2.26c.13-1.05 1.76-4.72 2.31-6.07-.31.08-.52.57-.81 1a94 94 0 0 0-2.09 3.48c.11-1.19.88-2.43 1.4-3.46-.97.43-2.6 3.92-3 5.02-.19.46-.37 1-.5 1.51l-.21.54c-.05-2.67.5-5.4.89-8.01-.24.05-.29.32-.4.57l-.28.67c-.16.49-.35.94-.53 1.48l-.77 3.18c-1.13-1.59-1.41-4.52-3.65-7.84-.71-1.05-.95-1.16-1.9-1.84zm1.19 31.83c.92 2.57 1.29 3.46 1.97 6.18a.6.6 0 0 0-.26.27c-.1.27-.21.76-.4 1.13l-.68-2.37c-.26-.86.1-2.62-.18-2.92-.26.46-.19.54-.24 1.38-.16-.19-.31-.73-.42-1-.53-1.45-.6-1.02-.26-1.86.1-.24.26-.7.47-.8z"/><g fill="#008f4c"><path d="M407.34 249.25c.34-3.56 4.73-11.98 6.02-12.16.19-.03-1.45 2.35-2.58 4.7a53 53 0 0 0-2.76 6.84 16 16 0 0 1-.75 2.42c-.04-.06-.01-.88.07-1.8m9.55-2.19c-.01.06-.81.85-1.8 1.75a42 42 0 0 0-8.98 12.9c-1.9 4.7-1.41 3.5-.86 1.23 1.45-4.92 5.4-11.15 9.07-14.2 1.3-1.08 2.61-1.93 2.57-1.68m-11.06-8c0-3.25.31-4.38 2.18-8.28 1.19-2.5 1.64-3.32 1.77-3.13.08.13-.02.59-.25 1.02-1.1 2.13-2.9 8.22-3.22 10.88-.1.9-.26 1.64-.34 1.65s-.15-.94-.14-2.14m-5.25 18.12a19 19 0 0 1-1.33 8.3c-.67 1.73-3.31 5.73-3.94 5.98-.31.12-.24-.05.46-.86a20.8 20.8 0 0 0 4.65-12.61c-.16-2.43 0-2.75.16-.8z"/><path d="M408.62 254.13c.38 1.13.44 3.81.03 5.2-1 3.34-3.38 5.78-6.77 6.96-.66.23-1.23.4-1.28.35-.03-.03.48-.32 1.16-.63a11.6 11.6 0 0 0 6.9-10.44c0-.83-.17-1.24-.21-1.45-.08-.34-.16-.61-.05-.7.06-.04-.05-.12.22.7z"/><path d="M417.87 261.24c-.04.04-1.88.39-4.08.77-2.2.37-5.04.9-6.3 1.18-1.92.42-2.31.47-2.43.3a1 1 0 0 1-.14-.27c0-.08 5.97-1.15 9.35-1.66 2.46-.37 3.79-.49 3.6-.32m-17.36-37.26c1.41 1.7 1.74 2.43 2.46 5.33.46 1.86.58 2.5.43 2.46-.1-.03-.24-.32-.31-.65a32 32 0 0 0-3.04-7.18 4 4 0 0 1-.54-1.02c.04-.05.49.42 1 1.06"/><path d="M398.98 226.06c.67 2.12 1.1 2.8 3.13 4.95 1.3 1.38 1.75 1.82 1.8 1.67.03-.11-.14-.38-.37-.62a32 32 0 0 1-4.34-6.43 4 4 0 0 0-.56-1c-.07 0 .09.64.34 1.43m12.62 6.6c-2.23 2.04-5.85 8.59-5.32 9.61.08.15 1.01-1.35 2.02-3.36 1.02-2 2.48-4.44 3.24-5.45.76-.99 1.31-1.78 1.25-1.77s-.6.44-1.18.97zm1.02 1.67c-2.5 2.29-6.55 9.6-5.96 10.74.1.17 1.13-1.51 2.26-3.75a51 51 0 0 1 3.62-6.1c.85-1.1 1.47-1.98 1.4-1.97s-.67.5-1.32 1.08m-14.33-6.71c.4 2.2.74 2.93 2.47 5.33 1.11 1.54 1.52 2.04 1.58 1.9.04-.1-.09-.4-.29-.66-1-1.3-2.96-5.2-3.5-6.96a4 4 0 0 0-.43-1.07c-.06 0 .01.65.17 1.46"/><path d="M396.68 229.17c1.57 1.55 2.26 1.93 5.02 2.83 1.78.59 2.39.75 2.36.59-.03-.1-.3-.27-.61-.36a31 31 0 0 1-6.78-3.54 3 3 0 0 0-.96-.61c-.05.03.39.52.97 1.09m20.21 10.59c-3.4 2.36-9.48 10.57-8.94 12.05.08.22 1.61-1.64 3.34-4.18a62 62 0 0 1 5.36-6.8 18 18 0 0 0 2.02-2.16c-.08 0-.9.5-1.78 1.09m-.52 5.02c-1.49 2.99-7.18 8.7-8.37 8.4-.18-.05 1.1-1.47 2.88-3.11a49 49 0 0 0 4.69-5 15 15 0 0 1 1.46-1.84c0 .07-.29.77-.66 1.55m-20.03 20.59c-.61 2.94-4.25 9.26-5.34 9.29-.17 0 .62-1.54 1.78-3.4a45 45 0 0 0 2.93-5.44c.44-1.15.83-2 .85-1.95s-.08.73-.22 1.5m9.31-17.67c-.6-1.88-2.27-4.15-4.59-6.2-2.32-2.1-3.03-2.42-.99-.47a27 27 0 0 1 5.09 6.9c.36.77.7 1.39.78 1.33.1-.04-.03-.74-.3-1.56zm1.75 23.9c-2.61-.75-9.32-.68-9.86.12-.08.12 1.51.17 3.52.07a45 45 0 0 1 7.63.27 9 9 0 0 0-1.29-.45zm-2.87 1.17c-2.64-.66-9.35-.3-9.85.5-.07.13 1.52.12 3.52-.06a45 45 0 0 1 7.64-.04 10 10 0 0 0-1.31-.4m-2.95 1.43c-2.66-.59-9.35-.06-9.83.77-.08.12 1.51.07 3.51-.16a45 45 0 0 1 7.64-.24c-.04-.04-.64-.2-1.32-.37"/><path d="M399.83 275.88c-2.25-.85-8.09-1-8.57-.22-.08.12 1.3.22 3.06.2a34 34 0 0 1 6.62.52 8 8 0 0 0-1.1-.5zm10.43-8.28c-5.5 1.57-12.16 2.52-12.54 3.84-.06.2 2.43-.2 4.87-1.18 2.45-.97 5.6-1.95 7.05-2.24 1.42-.27 2.53-.58 2.5-.73-.05-.04-.97.31-1.88.31m7.19-3.54c-.06.05-2.25.46-4.86.92-2.6.44-5.99 1.08-7.48 1.4-2.3.5-2.76.57-2.9.36a1 1 0 0 1-.17-.32c0-.1 7.1-1.37 11.13-1.97 2.92-.44 4.5-.59 4.28-.39"/><path d="M415.74 262.64c-.04.05-1.84.58-3.98 1.18-2.15.6-4.93 1.41-6.15 1.81-1.89.61-2.27.7-2.4.55a1 1 0 0 1-.17-.25c0-.09 5.83-1.76 9.15-2.6 2.41-.62 3.72-.88 3.55-.69"/><path d="M414.38 256.15c-3.8 1.56-11.44 8.24-11.22 9.81.03.24 1.92-1.25 4.13-3.35 2.22-2.1 5.2-4.52 6.64-5.46a18 18 0 0 0 2.42-1.67c-.08-.02-.97.28-1.97.67"/><path d="M417.2 257.98c-3.79.25-12.4 4.12-12.65 5.68-.04.24 2.04-.56 4.58-1.84s5.86-2.61 7.4-3.04c1.51-.4 2.66-.76 2.6-.8s-.94-.05-1.92 0z"/><path d="M417.09 258.4c-9.71 8.16-15.17 12.15-17.1 11.3-.3-.12 3.56-2.34 6.86-4.45 3.3-2.1 7.23-5.1 8.83-6.62 1.56-1.53 2.82-2.64 2.82-2.53s-.63 1.16-1.41 2.3m-10.39 2.55c1.95-3.18 2.93-4.1 7.11-6.73 2.68-1.7 3.62-2.21 3.63-1.94 0 .18-.38.56-.86.84-2.37 1.39-7.8 6.21-9.71 8.63a6 6 0 0 1-1.33 1.4c-.1-.04.42-1.03 1.16-2.2m1.06-9.17c.34-3.56 6.43-15.45 7.72-15.63.2-.03-1.44 2.35-2.58 4.7a53 53 0 0 0-2.76 6.84 69 69 0 0 1-2.63 6.53c-.03-.07.17-1.52.25-2.44m-2.56-13.72c-1.03-2.41-1.06-3.34-.32-6.75.48-2.18.7-2.92.9-2.81.12.08.15.44.05.83-.5 1.88-.48 6.9.03 8.97.17.7.24 1.3.15 1.32-.08.04-.45-.66-.82-1.56zm1.86 13.04c-.54-1.7-2.05-3.73-4.13-5.58-2.1-1.88-2.74-2.18-.9-.42a24 24 0 0 1 4.59 6.2c.32.7.63 1.26.7 1.2.1-.03-.03-.66-.26-1.4m-9.34 2.74c1.92-6.9 3.44-5.7 3.44-5.7 4.2 3.95 2.13 17.53 2.13 17.53-.03-27.8-5.57-11.83-5.57-11.83"/><path d="M399.27 253.36c1.92-6.9 2.43-6.6 2.43-6.6 3.47.7 3.25 15.93 3.25 15.93-1.52-26.12-5.68-9.33-5.68-9.33m-1.83 5.36c-.08-4.96.9-4.22.9-4.22 2.8 2.51 3.85 12.17 3.85 12.17-4.35-19.49-4.75-7.95-4.75-7.95m8.51-14.57c-.84-2.66-3.2-5.87-6.48-8.78-3.3-2.95-4.3-3.43-1.4-.66 2.66 2.54 6 7.06 7.19 9.76.5 1.1 1 1.97 1.11 1.89.14-.06-.05-1.05-.42-2.2z"/><path d="M405.67 241.82c-.65-2.05-2.47-4.52-5-6.76-2.52-2.28-3.3-2.64-1.07-.5 2.05 1.94 4.62 5.42 5.54 7.5.39.84.77 1.52.85 1.46.11-.05-.03-.81-.32-1.7M391.7 269.3c-.2 1.5-1.8 4.83-2.35 4.89-.08 0 .26-.8.78-1.78a23 23 0 0 0 1.63-3.88c.01.03-.01.37-.06.77m-1.38.87c-.2 1.5-1.8 4.83-2.35 4.89-.09 0 .25-.8.77-1.78a23 23 0 0 0 1.64-3.88c.01.03-.01.38-.06.77m2.08.11c-.2 1.5-1.8 4.83-2.35 4.89-.08 0 .26-.8.78-1.78a23 23 0 0 0 1.64-3.88z"/></g><path fill="#00873f" d="M341.2 232.3c.02.75.22.94.55 1.41l.09-1.45c-.27-.17-.38-.03-.63.04z"/><g fill="none" stroke="#006300" stroke-width=".63" transform="translate(-25)scale(.8)"><path d="m455.17 303.94-.87-.7m1.78-4.62c-.7-1-.74-1-.74-1m-1.77 13.46c-.26-2.12-1.47-2.73-1.47-2.73m11.34 29.99c-5.4-5.97-7.17-16.77-7.17-16.77 1.77-4.52 4.1-5.56 4.1-5.56m-4.09 5.51c-1.77-6.96-1.32-14.23-1.32-14.23.62-8.93 3.45-16.82 3.45-16.82m-3.51 19.31c1.43-6.54 6.87-5.75 6.87-5.75"/><path d="M454.83 310.99c4.88-1.98 4.3-6.29 5.18-8.04 1.32-2.64 2.27-3.41 2.27-3.41m-2.58 32.83c-1.66-4.2.31-4.98.31-4.98m-.98 3.63c-2.13-2.75-4.83-2.54-4.83-2.54m3.89-10.28c1.3-2.39-.05-4.78-.05-4.78m.69 16.3-3.8-4.93m2.28-30.43c.51-1.95-1.03-2.83-1.03-2.83"/><g transform="translate(442.05 224.22)scale(.1567)"><path id="b" fill="red" stroke-width="2" d="M91.38 425.97a5.97 5.97 0 1 1-11.95 0 5.97 5.97 0 0 1 11.95 0z"/></g><use xlink:href="#b" transform="matrix(.1567 0 0 .18128 444.57 235.35)"/><use xlink:href="#b" transform="translate(443.69 248.32)scale(.1567)"/><use xlink:href="#b" transform="translate(440 252.04)scale(.16899)"/><use xlink:href="#b" transform="translate(438.74 256.23)scale(.16899)"/><use xlink:href="#b" transform="translate(440.29 257.84)scale(.16899)"/><use xlink:href="#b" transform="translate(463.22 286.05)scale(.12289)"/><use xlink:href="#b" transform="translate(464.3 287.3)scale(.12289)"/><path d="M458.76 316.61a1.8 1.8 0 0 0-1.1-1.25m14.74 24.17c1.6 1.16 2.08.43 2.08.43"/></g><g fill="#006300"><path d="M354.5 274.35c-.78-2.79-.58-3.43-.58-3.43m-6.1-1.6s-.46-1.09.3-1.71c.45-.37 2.4.69 3.4-3.67 0 0-.6-.07-2 .57v-.35s-.31-.97-.17-2.18c0 0 .66-1.02.68-1.43 0 0-1.26-.47-3.71 2.7 0 0-.23-.68-2.03-1.9 0 0-.97 2.77-.48 4.33.38 1.22.4 1.65 1.7 2.53 0 0 1.03.45 1.17 1.84.49 0 1.12-.09 1.12-.09s.06.02.02-.64m-1.82 3.22c-.4.23-.58.43-1.29.52-3.17.41-4.95-3.77-4.95-3.77-.1-.83.28-.4.93-.16.87.31 1.13.07 2.1-.05 1.28-.15 2.72 1.1 2.72 1.1.81.72.88 2.14.88 2.14-.09.22-.4.22-.4.22zm-3.78-7.54c-3.31-1.4-5.28.17-5.28.17-.13.21.2.3.2.3 2.07.26 1.4.17 2.27 1.35 1.48 2.04 4.1 1.6 4.1 1.6.54.13 1.08.78 1.08.78-.22-1.81-2.37-4.2-2.37-4.2m-5.74-13.14c-.64-.44-.5.44-.5.44-1.36-2.4-4.98-2.58-4.98-2.58-.3-.01-.47-.24-.47-.24-.6 0 .14 1.21.14 1.21 1.09 2.91 2.13 3.24 2.13 3.24-1.24.7-3.22-.83-2.77.3 1.92 2.02 3.22 2.3 3.22 2.3 2.42.59 3.5 0 3.5 0 .55 1 .91 1.14.91 1.14 2.2.66 2.68 1.92 2.68 1.92 0-2.4-.9-5.37-.9-5.37-.69-1.03-2.96-2.36-2.96-2.36"/><path d="M353.6 275.18c-1.18.37-1.27 1.2-1.27 1.2-1.15 1.57-5.3.08-5.3.08-1.26-.35-1.02-.69-1.02-.69 1.15-.59 1.54-1.05 1.54-1.05a8 8 0 0 1-2.52-4.56c3.43-.68 4.48-.04 4.48-.04-.22-1.33-1.35-1.35-1.35-1.35-.26-.42.32-.44.32-.44 3.01.3 4.63 2.18 4.63 2.18 1.13 1.59.78 3.16.78 3.16.27 1.59-.29 1.51-.29 1.51m-14-13.8c-1.66-.5-2.62.05-2.62.05-.87.34-2.44-.66-2.44-.66-2.08-1.73-2.48-2.8-2.48-2.8 0-.32 1.83-.25 1.83-.25 2.42-.05 2.97.44 2.97.44 1.25.71 1.12 1.36 1.57 1.62 1.08.63 1.25.93 1.25.93.3.41.44.82-.07.67zm3.24.84c1.14-1.31 2.7-.41 2.7-.41 2.39.28 3.15-2.43 3.15-2.43.56-1.1.97-1.62.97-1.62.14-.63-1.04-.1-1.04-.1-2.04.51-2.11.72-2.11.72l.35-3.25c.03-.52-.56-.14-.56-.14-2.94 1.7-3.29 2.94-3.29 2.94l-1.2-2.28c-.39-.94-.67.1-.67.1-.55 2.77-.34 3.01-.34 3.01.38 1.49.76 1.9.76 1.9.7.9.7 1.25.7 1.25z"/><path d="M360.16 269.8c-.47.12-1.69 2.06-1.69 2.06-1.47-2.77-3.43-3.21-3.43-3.21-.39.17.05.8.05.8a3.1 3.1 0 0 1-.1 2.63c-.22 1.07.03 1.32.03 1.32-2.33-1.2-2.47-1.08-2.47-1.08-.03 1.5 1.76 4.29 1.76 4.29 3.87-1.03 4.16-.96 4.16-.96 1.44-.22 1.4-.24 1.4-.24 1.17-3.33.29-5.61.29-5.61m-18.96-15.23c1.5.73 1.6 1.71 1.6 1.71.38 1.28 3.86 1.57 3.86 1.57 2.84-.3 2.55-.8 2.55-.8-1.64-1.45-1.17-1.34-1.86-2.02-1.24-1.2-2.87-1.25-2.87-1.25-2.18.35-2.64-.1-2.64-.1-.79.42-.64.89-.64.89m-3.37-4.99c-.7-2.56 1.62-5.73 1.62-5.73 1.93 3.6 1.56 4.6 1.56 4.6-.68 2.4-1.63 4.16-1.63 4.16-.35-1.81-1.29-2.1-1.55-3.03"/><path d="M336.6 250.58c-2.46.07-4.8-2.71-4.8-2.71 3.66-.95 4.48-.4 4.48-.4 2 1.14 3.38 2.38 3.38 2.38-1.7-.08-2.17.7-3.07.73z"/><path d="M334.7 247.13c-1.55.24-2.9-1.28-2.9-1.28-2.08-2.77-1.39-3.67-1.39-3.67.17-.1.42.24.42.24a4 4 0 0 0 1.83.73c-3.32-2.08-1.14-6.69-1.14-6.69.41-.45.55.66.55.66.45 1.21 1.77 1.94 1.77 1.94.7.93.7 1.32.7 1.32.34-1.56.72-1.15.72-1.15.41 1.25 1.8 2.12 1.97 2.98.49 2.32.1 2.63.1 2.63a15 15 0 0 0-.29 2.37c-1.26-.46-2.34-.08-2.34-.08m7.83 5.57c.8-1.07 0-3.08 0-3.08-.31-2.14 2.9-4.19 2.9-4.19.94 1.73.84 2.77.84 2.77a67 67 0 0 0 3.01-.76c.1 1.39-1.21 3.4-1.21 3.4 2 .58 2.7-.39 2.7-.39-.97 4.47-5.23 3.57-5.23 3.57-1.77-1.14-3.01-1.32-3.01-1.32"/><path d="M335.85 239.68c.24-2.7.73-2.8.73-2.8.3.12.43 1.31.82 1.5 1.7.77 1.68 2.57 1.68 2.57-.05 2.16-.36 1.96-.36 1.96-2.36-.03-2.87-3.23-2.87-3.23m7.79.54c.82-3.06.33-3.36.33-3.36-.37 0-1 1.25-1.5 1.3-2.17.16-2.89 2.14-2.89 2.14-.82 2.39-.4 2.3-.4 2.3 2.6.92 4.17-1.3 4.46-2.38"/><path d="M335.95 234.63c.29-3.15.86-3.26.86-3.26.34.12.5 1.52.96 1.73 1.97.91 1.96 3.02 1.96 3.02-.05 2.52-.42 2.3-.42 2.3-2.75-.04-3.46-2.67-3.36-3.79m8.79.75c.9-3.03.4-3.35.4-3.35-.36 0-1.03 1.24-1.52 1.26-2.17.12-2.94 2.09-2.94 2.09-.87 2.36-.45 2.29-.45 2.29 2.58.98 4.2-1.2 4.51-2.29m3.62 8.48c2.5-1.93 2.3-2.47 2.3-2.47-.3-.22-1.56.39-1.98.12-1.83-1.18-3.6-.04-3.6-.04-2.1 1.4-1.71 1.59-1.71 1.59 1.5 2.3 4.1 1.5 4.99.8"/><path d="M348.28 245.52c2.38-1.1 2.3-1.55 2.3-1.55-.2-.21-1.35.06-1.65-.21-1.3-1.2-2.95-.6-2.95-.6-1.96.76-1.68.96-1.68.96.86 2.01 3.13 1.79 3.98 1.4m-8.22-14.46c-.95-2.82 1.9-6.56 1.9-6.56.6 1.76.94 3.14.94 3.14 2.27-2.31 4.29-2.67 4.29-2.67l-.08 1.78c1.52-.14 2.15-.49 2.15-.49-.32 2.27-3.18 4.56-3.18 4.56-1.08.68-2.4.44-2.4.44-2.07.59-2.55 2-2.55 2-.2-1.23-.35-.04-1.07-2.2m4.16 9.45c1.29-1.7 3.33-.97 3.33-.97 1.83.14 3.4-1.76 3.4-1.76a5 5 0 0 1 1.34-1.67c-.07-.45-.52-.38-.52-.38-1.1.25-1.1.28-1.1.28.83-3.08.38-3.22.38-3.22-.28 0-.45.2-.45.2-.49 1.43-2.46 1.36-2.46 1.36-.1-2.04-.56-1.77-.56-1.77-.3.52-.97.83-.97.83-1.94 1.94-1.94 2.77-1.94 2.77a16 16 0 0 1-.45 4.33"/></g><g fill="#00863d"><path d="M343.86 251.72c.25-.3.84-.74 1.28-1 .45-.25.3-.14.52-.63.2-.46.15-.36.47-.68l-.29.87c.45-.26.62-.4 1.26-.75.05.25-.42.48-.8.73-.34.23-.64.43-1 .64l-1.73 1.47c1.64-.38 1.35-.1 2.17-.24 1.75-.3 2.58-2.77 3.18-4.22-1.2.22-2.45.5-3.34 1.09-1.12.76-1.04 1.45-1.72 2.72m-4.48 6.26c-.1-.27-.41-.72-.58-1.01-.47-.84-.52-1.08-1.13-2.04-.4-.62-.25-.3-.5-.98.23.02.55.71.81 1v-1.02c.28.03.2.27.21.58.06.99-.04.82.57 1.9l1.24 2.04c-.08-.32-.24-.6-.32-.94-.37-1.32.46-2.9-2.81-4.85l-.81-.49c.06 1.6.24 4.26 1.71 5.1.26.14.56.2.84.31.3.13.5.28.77.4m-.76-20.14c-.12-.41-.32-.78-.44-1.24-.12-.42-.05-.32-.35-.52l-.38-.47.49.25a3 3 0 0 0-.4-.76c-.3-.43-.16-.14-.47-.7.56-.07 1.15 1.6 1.27 2.03.39 1.28.37 1.12 1.13 2.15 0-.17-.28-.49-.35-.75-.2-.7.56-1.66-.2-3.17-.44-.9-1.37-1.05-1.82-1.81l-.4-.78a7 7 0 0 0-.4 1.7c-.06 1.1.2 2.55.98 3.29.27.26.96.64 1.34.78m4.18-7.98c.15-.1.45-.54.73-.77l.8-.67-.12-.74c.15.05.09-.07.25.5.2-.18.68-.99.9-1.3.15.21-.32.9-.46 1.1-.23.38-.45.64-.8.9l-1.52 1.88c.32-.1.55-.22.9-.28 1-.2 1.38-.29 2.07-1.4.66-1.04.84-2.33 1.1-3.54-1.42.57-2.92 1.15-3.65 2.47-.28.5-.16.91-.2 1.85m-8.96 13.42c-.4-1.05-1.52-2.27-1.64-2.8l-.16-1.25c.23.03.12-.06.2.16 0 0 .06.7.14.9l.5.91c.02-.6-.08-.3.16-.83.24.32-.13.85.23 1.46.2.31.45.81.69 1.09-.01-.87.58-2.2-.4-3.46-.34-.43-.74-.58-1.16-.94l-.82-1.3c-.67 1.41-.54 4.27.78 5.22.26.18.49.24.76.4l.37.2q.17.13.35.24m6.4-5.58c.57-.47.4-.65 1.72-1.65.33-.25.57-.53.85-.84.41-.44.28-.36.82-.88.13.24-.74 1.15-1.02 1.48l.53.07c-.08.32-.38.08-.81.2-.4.1-1.42 1.27-1.7 1.56.25-.07.49-.18.8-.23.82-.17 1.33.05 2.22-1.08.75-.95 1.02-2.15 1.38-3.3a8 8 0 0 0-3.15 1.46c-.92.88-.84 1.64-1.18 2.43-.14.3-.34.5-.46.78m-4.44 8.6c-.14-.2-.59-.54-.8-.7-.46-.33-.52-.33-1.16-.38l-1.9-1.06c.23-.12.35.16.8.4l.9.38-.12-.5c.17.02.19.04.26.23l.05.31c.86.07.72.09 1.57.63-.1-.39-.14-.36-.39-.56-.2-.16-.25-.3-.42-.52-.27-.37.03.17-.43-.52-.74-1.12-1.55-.63-2.08-.76l-1.36-.56c.23 1.31.93 2.3 1.6 2.93.36.33.78.7 1.43.82.2.03 1.78-.1 2.04-.14zm-.78 7.12a6 6 0 0 0-.88-.72c-.24-.17-.35-.15-.67-.18l-.61-.2.7-.04c-.09-.05-.23-.18-.33-.26-.49-.39-.58-.38-.9-.86.14-.12.23.04.42.18.56.44 1.65 1.32 2.2 1.7l1.02.56c-.05-.55-.98-2.3-1.74-2.64l-3.41-.94c.17.58 1.02 2.16 1.37 2.64 1 1.35 1.1.9 1.82.8.37-.06.65-.03 1.01-.04m1.64-7.68-1.3-4.26c.24.07.2.36.35.84l.34.88c.17-.37-.07-.05.3-.63.16.19-.03.59-.1.83-.13.45-.12.28.06.74l.6 1.58c.04-.36 0-.55.07-.92.2-1.03.36-1.6-.13-2.68-.43-.94-1.15-1.64-1.8-2.37-.1.18-.31 1.4-.35 1.7-.16 1.1-.07 2.6.8 3.3.69.57.29.12 1.16 1zm2.54 5.52c.03-.44-.05-2.47-.03-3.39v-.59c.01-.31-.02-.2.15-.44q.1.16.08.39l-.02 1.4.4-.69c.27.1.05.35-.07.6-.1.18-.3.54-.34.71l.07 2 .03-.03c.02.03.22-.52.34-.72.42-.71.9-1.72.7-2.63l-1.12-3.22c-.23.4-.52 1.06-.72 1.5a7 7 0 0 0-.5 1.77c-.22 1.5.19 1.8.65 2.58q.2.37.38.76m1.8-19.12c.02-.38.17-2.35.13-2.52-.02-.05-.14-.28-.17-.37l-.18-.8c.28.04.16.21.32.5l.1.15.05-.58c.03-.39-.02-.2.14-.58.16.1.07-.06.11.18.01.03-.01.26-.02.3-.13 1.3-.19 2.75-.25 4.07.13-.21.17-.56.31-.82.34-.67.93-1.82.87-2.6l-.74-3.86c-.27.41-.53 1.06-.75 1.52-.5 1.03-.97 2.6-.66 3.77l.66 1.52c.04.08.03.06.08.12m-10.3 22.19a6 6 0 0 0 3.95 2.02l1.73-.32-.27-.8c-.32 0-.57.14-.93.15a13 13 0 0 1-2.04-.25c-.6-.12-.39-.03-.83-.34l1.81.27c-.47-.37-.3-.18-.65-.66.27-.02.8.5 1.04.66l1.55-.08-.12-.91a4 4 0 0 0-2.67-.03c-1.61.55-1.04.42-2.57.29m2.05 4.03c.1.3 1.73 2.17 2.12 2.3l3.58.15c-.44-.25-1.07-.5-1.58-.7-.69-.29-.73-.14-1.84-.02.06-.25.27-.2.86-.34-.25-.14-1.34-.44-1.35-.45l-.16-.17c.07-.08.02-.09.18-.07.06 0 .21.06.28.08 1.66.54 2.13.76 3.7 1.4-.5-.38-.62-.51-1-1-1.45-1.83-2.96-1.24-4.79-1.18m12.45-19.99.56-1c.27-.57-.16-.59.03-1.35.2.06.14.04.24.7l.66-1.52c.19.5-.86 2.46-1.08 2.93l-.36.98c.86-.95 1.9-1.4 2.08-2.2l.12-3.84a10 10 0 0 0-1.87 2c-.62 1-.57 1.92-.37 3.3zm-1.65 22.69c.32-.14.55-.33.92-.48 1.41-.39.85.29 1.75-.96l-.24.66c.64-.21.8-.6 1.28-1.08.12.24-.25.63-.43.82-.8.78-1.6.53-2.07.7l-.93.47c1.07-.17.95.03 1.83.16 1.8.27 2.3-1.52 2.92-2.58l.42-.75a9 9 0 0 0-4.25 2.06c-.16.15-.36.35-.55.5-.27.2-.47.25-.65.48"/><path d="M343.42 251.54c.63-.6.5-2 .97-2.86.08-.16.15-.24.26-.37.17-.22.1-.18.33-.17.08.16-.26.34-.4.64l-.28.9.1-.08.1-.12c.43-.63.83-.79 1.47-1.19l-.61-2.27-1.12.97c-.3.26-.7.75-.94 1.16-.8 1.4.07 2.06.12 3.39m-.32 9.31 1.47-2.42v-1.13c.22.04.14-.08.29.67.5-.72.15-.64.71-1a6 6 0 0 1-.65 1.44c-.62.87-.93 1.42-1.47 2.35.35-.14.83-.65 1.09-.89.2-.19.32-.3.55-.44l.64-.37.62-3.45a10 10 0 0 0-2.52 1.86c-.92 1.17-.97 1.53-.73 3.38m3.3-8.47 1.92-.17c-.06.25-.33.25-.87.33-.87.14-2.46.12-3.39.14.27.15.54.24.81.4.28.17.48.3.76.45.6.3 1.34.28 1.98.03l2.52-2.33c-1.32.3-.6.35-2.38-.01-.27.24-.4.53-.97.91-.11.08-.27.16-.38.25m-13.63-4.64c.54 1.12 2.12 2.45 3.55 2.27.63-.08.75-.28 1.13-.65-.08-.1.02-.02-.1-.09l-.17-.05c-1.09-.21-1.22-.12-2.33 0l.5-.26-.87-.22c-.45-.13-.39-.1-.74-.36.13-.12.1-.1.32-.03 1.46.47 1.8.44 3.38.69-.15-.48-1.4-1.08-2.07-1.17-1.05-.13-1.42.4-2.6-.13m9.4 12.76-.49-3.1c.26.07.18.17.3.82l.56 2.8c.04-1.06.4-1.82.09-2.92l-1.1-2.12c-.21.5-.36 1.93-.32 2.54.07.94.26 1.22.76 1.8.1.1.09.1.2.18m4.2-31.64q.23-.16.42-.44l.46-.35c.01.26-.37.57-.62.89-.36.46-.59.53-.77.75-.7.9-.63.75-1.76 1.24 2.32.14 3.57-2.3 4.56-3.96-2.19.3-1.79.46-2 1.09q-.17.4-.3.78zm.75 9.77.63-1.04c.38-.56.62-.17 1.22-.76-.16-.14-.1-.1-.77.16l1.05-1.43c-.57.1-1.8 2.12-2.12 2.58l-.72.85c.42-1.3.27-2.5.92-3.1l3.47-2.17a10 10 0 0 1-.84 2.8c-.59 1.11-1.46 1.55-2.84 2.11m-8.67 4.11c-.2-.58-.88-1.17-1-1.49l-.5-2.01c.28.03.28.56.33.8l.27.86c.17-.61-.11-.18.27-.77.2.37-.22 1 .03 1.35.26.35.28.3.69.9.23-.92.27-2.1-.3-2.74l-1.61-1.77c-.41.6-.37 2.28-.08 3.13.33.96.7 1.07 1.3 1.39.24.12.37.24.6.35m1.4-.23c.4-.54 1.36-.92 1.6-1.21l1.27-1.96c-.3-.07-.5.5-.64.73l-.6.82c.04-.71.18-.15-.01-.92-.34.33-.13 1.14-.53 1.42s-.4.22-1.06.72c.1-1.07.49-2.34 1.32-2.81l2.36-1.29c.22.78-.44 2.56-1.06 3.36-.7.9-1.13.87-1.89 1-.3.04-.48.12-.76.14m4.25.24c.63-.03 2.34-.06 2.87-.34l.73-.33c0 .19 0 .09-.28.37.7-.04.4-.08 1.06.03-.08.14.13.12-.55.16-.78.06-1.19.14-1.88.21l-2.56.26c1.64.6 1.9 1.5 3.76.81 1.48-.55 1.77-1.15 2.7-2.28-2.3.54-2.55-1.41-4.8.08-.28.18-.9.8-1.05 1.03"/><path d="M347.17 244.17c.6.07.35-.01.85.22-.23.2-1.24-.05-1.63.04l-1.66-.04c.53.74 1.42 1.1 2.67.96 1.24-.13 1.56-.45 2.55-1.05l-1.87-.62zm-.69 10.77a3 3 0 0 0-.82-.46c-1.05-.4-1.87-.02-2.4-.03l-1.2-.14c.32.35 1.6.82 2.23.93 1.6.26.52.68 2.19-.3m.17 1.18.48.43c-.13.06-.3-.05-.5-.15l-.1 1.09 2.19-.28a16 16 0 0 0-1.95-2.04c-.06.33-.16.58-.12.95m-2.8.62 1.3-.99c-.33-.26-.93-.25-1.4-.39l-1.25-.5c.3.42.31.32.67.94.2.34.35.7.68.94m6.31-19.31c-.57.33-.96.85-1.6 1.11-.85.35-1.77 0-2.3.56 1.44-.09 2.39.46 3.5-.57.7-.63 1.3-1.6 1.86-2.42a3 3 0 0 0-1.13.37c-.08.08-.18.33-.27.46-.25.41-.08.1-.06.5zm-4.76 32.82 1.05 2.13 1.45 1.78c.3-.14.64-.38.98-.56l1.16-.4c-.65-.29-.68-.6-1.05-.64-.9-.06-.37.09-1.56-.11.1-.2.06-.1.68-.12l.75-.02c-.44-.4-.99-.69-1.48-1.05l1.56.8-.05-1.04c.38.04.15.63.32 1.2.08.26.58.6.85.73.52.26.7.2 1.24.33l1.21.39c-.5-.7-.27.09-1.11-1.66a3 3 0 0 0-1.24-1.5c-1.41-.87-3.15-.28-4.76-.26m1.77-2.1c.01-.86-.05-1.64.02-2.51.03-.41-.16-1.46-.23-2.06.2.06.17.15.22.4l.16.56c.2-.9.24-.88.73-1.52.08.2-.48.9-.58 1.93l-.1 2.55c.1-.12.1-.16.22-.3l.26-.26c.18-.19.3-.36.48-.63 1.21-1.9.47-2.98.5-3.55l.35-1.83c-.38.15-1.42.9-1.66 1.15-.94.95-1.87 2.63-1.28 4.07l.47.95c.15.33.26.76.44 1.05"/><path d="M346.52 275.44c.2.13 1.38.5 1.69.6 1.12.35 2.87.48 3.65-.56.42-.58.68-.73 1.22-1.16-.83.02-1.4.34-2.13.5-.54.13-.58.5-1.02.93l-.41.28c0-.27.52-.77.76-1.06l-1.63-.01c.06-.27.5-.14 1.21-.2 1.41-.12 1.65-.5 3.18-.68a1 1 0 0 0 .3-.08c-2.29-.01-2.78-1.55-5.52.4zm10.43-1.41v-1.14c-.5-.38-.5-.5-.8-1.09.27.02.38.45.79.74-.05-.55-.27-1.46-.4-2.05.26.05.4.78.45 1.04.32 1.33.05 2.36.28 2.8l.65.87c.22-.93 1.18-1.53.04-3.81-.7-1.4-1.25-1.63-2.42-2.51.14.64.3.86.2 1.65-.08.54-.3.96-.35 1.5-.15 1.22.23 1.15.47 1.3q.62.34 1.1.7zm-11.29-2.17-.34-.76c-.96.01-1.25.4-2.59-.5-.35-.23-.3-.2-.49-.57l1.49.83c-.08-.17-.26-.34-.56-.95.05-.03-.03-.1.14 0q.1.06.13.13l.72.96.98-.11c-.02-.17-.19-.45-.26-.62-.14-.33-.07-.38-.32-.57a2.5 2.5 0 0 0-1.25-.52c-.62-.06-.99.15-1.55.2l-1.51-.32c.06.3.63 1.24.79 1.46.64.9 2.34 2.22 3.78 1.65.2-.08.67-.21.84-.3zm-7.88-7.01.08.04.12.05c.43.18.8.38 1.11.73.4.44.42.65 1.01 1.15.96.8 2 .77 3.27.93a7 7 0 0 0-.58-.7c-1.02-1.08-.84-1.02-1.5-.93l-1.06.08c.05-.22.7-.26 1.16-.36-.24-.1-.43-.17-.69-.22-.54-.1-.16.04-.77-.19.28-.37 1.65.12 2.29.72.47.43 1.06 1.13 1.51 1.66l-.74-1.6c-.76-1.38-2.76-1.87-4.23-1.6-.24.03-.77.11-.98.24m8.91 3.65c-.53-1.69-1.4-2.4-1.64-3.42-.15-.7-.1-.77.03-1.4.34.47-.29.79.7 2.46-.05-.54-.18-.78-.09-1.43.04-.27.36-1.27.36-1.3-.05-.27-1.26-1.38-1.59-1.73-.17 1.49-.56 2.81-.07 4.3.5 1.52 1.32 1.17 2.3 2.52m8.04 7.57 1.06-.28a6 6 0 0 1-.69-.85c-.46-.67-.4-.73-.22-1.07.05.1.01 0 .04.14.02.18-.02.23.11.46.1.18.18.28.3.44.27.35.44.56.77.8-.02-.52-.12-.78.03-1.1.2.08.06-.06.14.15l.06.91 1.18-.31c-.8-1.4-2.32-1.9-3.71-2.46l.38 1.65c.15.63.32.99.55 1.52m-1.87-3.02c-.12-.32-.35-.66-.52-1.02-.38-.82-.32-1.2-1.08-1.98-.14-.14-.24-.27-.4-.4-.08-.05-.28-.18-.31-.26l-.01-.03v-.11c.27-.06.8.55.96.71.45.44 1.5 2.66 1.86 3.35-.05-.3-.2-.67-.1-.96.3-.88-.54-2.24-.96-2.52l-3.3-1.46c.4.38.63.6.9 1.2.22.48.32.06 1.18.98.9.96.83 2.15 1.78 2.5"/><path d="m358.91 273.04.18-.49c.1-.3.02-.17.27-.42.12.2 0 .3-.14.72-.27.8-.44 1.47-.67 2.29.74-.1.7-.12 1.01-.66a4 4 0 0 0 .41-1.23l-.09-3.1-.95 1.24c-.5.71-.18.33-.02 1.65M349 266c.24-.13.8-.8 1.03-1.05.14.25-.5.9-.63 1.05-.54.5-.2 0-.9.83 1.41.21 2-1.65 2.45-2.6-.28 0-1.17.3-1.4.44-.18.1-.13.05-.18.3l-.1.37q-.12.34-.26.67z"/></g><g fill="#ce1126" stroke="#000"><path stroke-width=".22" d="m362.17 283.71 1.78.92-1.02 2c.74-.13 3.42-1.05 4.3-1.32-.22-.63-.3-.7-.22-1.47l-.3-1.42-2.16.72c-.82.25-1.5.42-2.38.57zm23.32-.31-1.78.92 1.01 2c-.74-.13-3.42-1.05-4.29-1.33.22-.62.3-.7.22-1.47l.3-1.42 2.16.73c.82.25 1.5.42 2.38.57z"/><path stroke-width=".22" d="M368.62 286.54c2-.29 3.78-1.34 3.78-1.34.3.32 1.9.09 1.9.09.74-.14 1.07-.26 1.07-.26a10 10 0 0 0 3.52 1.46c1.77-.1 1.82-1.46 1.82-1.46-.07-1.2-.2-1.25-.2-1.25a2.2 2.2 0 0 0-.06-2.65c-.47-.54-3.2.33-3.2.33-1.84.87-1.95.49-1.95.49-.52-.82-2.44-.67-3.27-.05a16 16 0 0 1-2.3-.59c-2.05-.77-2.38-.3-2.38-.3-.73.87-.5 1.79-.5 1.79 0 .51.17.96.17.96-.45 2.63 1.6 2.78 1.6 2.78z"/><path stroke-width=".18" d="M375.36 284.31c4.4 1 4.09 1.62 4.09 1.62-.27.46-1.56-.13-1.56-.13-3.43-1.2-2.53-1.49-2.53-1.49zm-2.73.02c-4.4.99-4.09 1.61-4.09 1.61.27.46 1.56-.13 1.56-.13 3.43-1.2 2.53-1.48 2.53-1.48z"/><path fill="#aa241e" stroke-width=".16" d="M372.82 281.34c-1.9.34-.4 1.75-.34 2.62 0 .47-.46 1.28.04 1.48.46.2 1.46-.03 1.99-.03.73-.04 1.22.03 1.12-.91-.06-.7-.3-.94-.3-1.85-.03-.63.1-1.34-.6-1.4-.42-.04-1.48.03-1.91.1z"/><path fill="none" stroke-width=".18" d="M375.42 282.4c5.02-.03 4.65-.83 4.65-.83m-4.56 2.35c4.97.67 4.3 1.39 4.3 1.39"/><path fill="none" stroke-width=".17" d="M372.4 283.78c-4.63 1.02-4.21 1.76-4.21 1.76m3.7-3.25c-4.73.34-4.25-.46-4.25-.46"/></g><path d="M354.14 276.64c-2.5.82-4.15 1.4-6.54 2.8-.91-1.38-2.16-3.4-3.04-4.58a6 6 0 0 0-2.05-1.75c-1.35-.63-1.85-.44-2.7.3l-.61-1.15c-1.22-2.14-2.49-3.12-3.84-4.85l-1.21-1.42c-.17-.2-.23-.33-.45-.44.53 1.72.9 3.36 1.25 5.23-.75-.41-1.44-.82-2.21-1.15a8 8 0 0 0-2.8-.47l.89.8a11 11 0 0 1 3.12 5.12 15.4 15.4 0 0 0 3.84 6.05 7 7 0 0 0 1.88 1.4c1.82.66 1.74-.03 2.4-.36a28 28 0 0 0 3.93 5.37c1.74 1.84 4.47 2.33 6.96 1.75 1.1-.27 1.8-.57 2.65-1.06 3.23-1.87 1.68-3.32 1.3-4.8a94 94 0 0 1 6.63-1.84c5.2-.97 14.86-1.1 21.02-.2.56.09 6.78 1.74 7.39 2.1a5 5 0 0 0-.55 2.67c.1 1.05 1 1.6 1.8 2.07a9.2 9.2 0 0 0 6 1.2c2.32-.38 3.53-1.73 4.53-2.93 1.65-1.89 2.16-3.03 3-4.36 0 0 .48.44.81.55.32.1 1.35-.08 1.63-.19.8-.3 1.3-.9 1.85-1.42a14.3 14.3 0 0 0 3.84-6.11c.83-2.74 1.96-4.03 3.98-5.8-2.6.08-3.5.79-4.98 1.6l.56-2.68c.16-.73.58-1.83.66-2.54-1.19 1.26-2.24 2.58-3.29 3.75-.5.66-1.05 1.2-1.54 1.92-1.05 1.6-.85 1.66-1.25 2.19-3.66-2.04-5.31 2.92-7.79 5.97-4.6-2.59-8.6-3.4-14-4.38-1.21-.13-2.3-.3-3.29-.41-6.8-.8-14.28-.77-21.05.24-3.5.44-5.65 1.09-8.73 1.81"/><g fill="#ce1126"><path d="M349.42 287.2c.42-1.2.94-1.46 1.98-1.96 3.35-1.54 5-2.17 8.82-3.18a49 49 0 0 1 6.7-1.26c1.18-.19 1.46-.2 3.52-.33 3.04-.16 4.8-.16 7.84 0 1.32.01 2.44.15 3.51.33 2.26.27 4.67.68 6.8 1.26 3.42.88 5.69 1.7 8.78 3.15 1.4.66 1.21.68 2.02 1.97 1.02-.68 1.76-2.16 2.34-3.15.3-.52.75-1.23.94-1.83.33-1.02-.3-1.35-.77-1.73-1.71-1.48-4.92-2.77-7.65-3.53-11.74-3.26-27.9-3.4-39.61-.03-2.85.82-5.75 1.97-7.63 3.48q-.38.28-.72.66c-.66.76.43 2.28.78 2.93.34.64.64 1.27 1 1.75.42.58.94 1.08 1.35 1.48z"/><path d="M337.82 276.75c1.32.25 1.8.63 2.65 1.78 1.9 2.63 1.99 4.5 5.22 8.05.74.83 1.3 1.48 2.43 1.98 1.19.52 2.43.68 3.84.49a8 8 0 0 0 3.31-1.1s1.2-.68 1.5-1.1c.32-.42.38-1.42.38-1.42-.96-.3-2.7 1.6-3.84 2.33-2.07 1.37-2.87.88-4.33-.4-1.28-1.1-1.74-2.28-2.57-3.7-.33-.58-.94-1.46-.72-2.36l1.55-1.59c-.62-1-1.38-2.12-1.94-2.99-.77-1.17-1.21-1.97-2.2-2.73-.59-.47-1.75-1.15-2.58-.66-.7.54-1.19 1.18-1.8 1.92a5 5 0 0 0-.9 1.5"/><path d="M335.6 271.7c-.3-.1-1.4-.95-1.98-1.2l-2.43-.82c.33.4.66.65 1.32 1.48 1.55 1.97 1.55 3.56 2.77 5.91.41.8 1.13 1.84 1.74 2.55.41.52 1.81 1.85 2.18 2.16.85.7 1.74.8 2.22.22.1-.41-1-1.15-1.61-1.45a10 10 0 0 1-1.94-1.34c-1.43-1.45-.33-3.23.78-4.5l.74-.87c.17-.6-1.04-2.28-1.68-3.12-.67-.8-2.35-2.69-3.1-3.54.11.69.34 1.62.47 2.33.11.5.5 1.81.53 2.2zm21.47 13.3-.58-1.38c-.8.08-4.72 1.81-5.63 2.39-.28.16-1.38 1.04-.86 1.58 1.52 1.65 3.81-.76 5.17-1.8.47-.39 1.07-.83 1.9-.8z"/><path d="M341.9 281.82c-.24-.08-.19-.57-1.07-1.23-.33-.27-2.33-1.31-2.68-1.7 0 0-.65-.46-.57-1.14.06-.51.48-.6.48-.6 1.8.05 3.93 4.45 3.84 4.67m69.13-4.99c-1.32.25-1.8.63-2.65 1.78-1.9 2.63-1.99 4.5-5.22 8.05-.75.83-1.3 1.48-2.43 1.98a7 7 0 0 1-3.84.49 8 8 0 0 1-3.32-1.1s-1.19-.68-1.5-1.1-.37-1.42-.37-1.42c.96-.3 2.7 1.6 3.84 2.33 2.07 1.37 2.87.88 4.33-.4 1.27-1.1 1.74-2.28 2.57-3.7.33-.58.94-1.46.72-2.36l-1.55-1.59c.61-1 1.38-2.12 1.94-2.99.77-1.17 1.21-1.97 2.2-2.73.59-.47 1.75-1.15 2.57-.66.7.54 1.2 1.18 1.8 1.92.33.38.72.93.91 1.5"/><path d="M413.25 271.8c.3-.12 1.4-.97 1.99-1.21l2.43-.82c-.33.4-.67.65-1.33 1.47-1.55 1.98-1.55 3.56-2.76 5.92-.41.8-1.13 1.83-1.74 2.55a28 28 0 0 1-2.18 2.16c-.85.7-1.95.7-2.22.22-.1-.41 1-1.15 1.6-1.45a9 9 0 0 0 1.94-1.34c1.44-1.46.33-3.24-.77-4.5l-.75-.87c.23-1.13 1.05-2.28 1.69-3.12.66-.8 2.35-2.69 3.1-3.54-.12.69-.34 1.62-.48 2.33q-.28 1.1-.52 2.2m-21.47 13.28.58-1.37c.8.08 4.73 1.8 5.64 2.38.28.17 1.38 1.04.86 1.6-1.52 1.64-3.82-.78-5.17-1.82-.47-.38-1.08-.82-1.9-.79z"/><path d="M406.95 281.9c.25-.08.2-.57 1.08-1.23.33-.27 2.33-1.31 2.67-1.7 0 0 .66-.46.58-1.14-.06-.51-.49-.6-.49-.6-1.8.05-3.92 4.45-3.84 4.67"/></g><path fill="#eac102" d="M353.51 279.28c-.2 0-.38.07-.57.12q-.42.19-.85.35c-.11.04-.14.17 0 .18.16.13.12.36.2.53l.17.57.2.74.18.72c.01.11-.2.33.01.27s.4-.2.63-.21c.08 0 .23-.15.06-.15-.2-.1-.13-.38-.23-.55l-.14-.55c.05-.2.33-.06.35.1q.18.24.4.42c.19.12.36.28.59.32q.25.06.49-.04c-.22-.2-.48-.35-.65-.6l-.4-.6c.21-.2.4-.44.45-.73a.9.9 0 0 0-.41-.8q-.23-.09-.48-.09m-.26.27c.17 0 .31.13.4.27q.15.27.14.59a.5.5 0 0 1-.3.42c-.12.1-.44.31-.46.03-.08-.32-.19-.63-.24-.95-.05-.2.15-.27.3-.32zm1.35-.71c.03.15.23.22.2.39q.07.34.17.69c.01.2.08.4.11.61l.1.44.13.62c.04.09-.2.27-.03.26l1.7-.45c.14.02.19-.09.16-.22v-.51c-.17 0-.16.24-.3.31-.2.22-.48.32-.75.4-.16.02-.24-.13-.27-.27-.05-.13-.03-.27-.08-.4l-.12-.6q.31-.14.64-.08c.11 0 .2.22.3.11 0-.18-.07-.35-.1-.52-.04-.08-.06-.35-.17-.27-.06.12-.08.28-.23.32q-.22.12-.46.16c-.1-.1-.1-.34-.13-.5.02-.18-.1-.44.14-.48a.7.7 0 0 1 .76.03c.09.06.28.25.29.04-.1-.17-.11-.4-.25-.54-.15-.02-.3.08-.45.1q-.68.17-1.35.36zm3.78-1.04q-.35.04-.68.13l-.73.22c-.2.1.18.18.17.33q.03.25.09.48l.09.49q.09.36.14.71c.02.22.12.43.12.66.04.14-.04.29-.08.4q.37-.08.73-.18c.12 0 .18-.17.03-.18-.1-.15-.1-.35-.15-.53q-.05-.3-.12-.57c.34-.08.69-.19.96-.4.19-.16.34-.38.34-.63a1 1 0 0 0-.18-.65 1 1 0 0 0-.34-.23q-.2-.05-.4-.04zm-.27.27c.2 0 .4.15.47.34q.12.3.08.62-.06.23-.26.32c-.14.06-.26.19-.43.16-.1-.1-.02-.28-.1-.4q-.07-.37-.16-.73c-.03-.15.1-.27.23-.29zm3.05-.84q.16.13.25.28c.08.12.05.27.1.4.06.2.05.4.1.6q.06.24.07.48.09.31.05.64a.6.6 0 0 1-.67.47.4.4 0 0 1-.31-.24 1 1 0 0 1-.16-.42l-.11-.63-.1-.65-.09-.5c-.03-.1.22-.3.02-.28l-.74.14c-.18.12.14.17.13.32.03.15.02.3.06.45q.1.49.16.99c.02.15.07.3.07.45q.07.23.22.42c.14.13.31.26.51.27.36.06.75-.02 1-.29q.17-.2.23-.45.01-.36-.06-.71c-.02-.24-.02-.49-.1-.72l-.08-.6a.5.5 0 0 1-.02-.3c0-.1.18-.2.1-.27-.16 0-.3.06-.46.06a.2.2 0 0 0-.17.1zm2.42-.45c-.34-.01-.66.07-.99.12-.13.05-.35.04-.43.15.1.1.2.2.19.35l.15 1.02c0 .22.08.42.09.64q.05.38.05.75c.01.09-.18.28 0 .24.14-.05.28-.02.42-.07q.28-.06.55-.08.35-.05.66-.17.18-.12.32-.28a.5.5 0 0 0 .15-.36c.01-.24-.02-.5-.22-.66-.12-.1-.27-.14-.42-.2-.1-.02-.24-.12-.07-.16.17-.1.33-.26.38-.46a.6.6 0 0 0-.12-.54c-.07-.18-.26-.23-.42-.26l-.3-.03zm-.45.24c.21-.05.46.03.57.22.12.16.08.36.06.53 0 .2-.22.27-.37.33-.11.07-.39.15-.36-.07.04-.15-.02-.3-.04-.45l-.01-.43zm.25 1.36c.16-.01.37-.02.48.13.16.13.2.35.2.55 0 .16 0 .36-.14.46s-.34.19-.53.16c-.17-.08-.16-.31-.18-.48q-.06-.24-.08-.5c-.04-.11-.07-.34.12-.3zm1.53-1.88c-.02.12.18.13.17.27.03.17 0 .34.05.5.03.17 0 .34.05.5.05.2 0 .42.07.61.03.2-.02.42.05.61.04.18.02.4-.11.53-.06.1.16.06.23.04q.36-.02.72-.07.23-.01.42-.05l.5-.05q.06-.31.08-.62c.01-.08.02-.2-.08-.14q-.1.2-.23.36a1 1 0 0 1-.26.14q-.18.06-.36.07c-.14.03-.29-.02-.3-.18-.03-.2-.01-.4-.06-.59q-.06-.56-.08-1.12c-.03-.23-.08-.45-.05-.68.01-.1.25-.27.05-.24q-.18.05-.36.05c-.18 0-.25.05-.38.04zm2.33-.26c-.03.11.13.06.15.17.06.12 0 .27.06.4l.04.43.1 1.42q.05.18.04.37c.02.1-.15.19-.13.26q.45 0 .9-.08c.1-.02 0-.13-.07-.14-.09-.1-.08-.24-.1-.36q0-.34-.06-.67c-.02-.18 0-.36-.04-.53-.04-.24 0-.5-.06-.74-.02-.15-.06-.32 0-.47.02-.06.2-.19.05-.17q-.42 0-.83.1zm3.7 1.91c-.17-.01-.22.15-.31.25-.1.16-.28.22-.45.26-.2.05-.36-.1-.5-.21a2 2 0 0 1-.25-.5q-.07-.25-.11-.5a3 3 0 0 1 0-.76c.05-.17.12-.37.27-.49.19-.12.45-.06.6.1.14.12.19.29.26.44.11.18.17-.08.18-.18.02-.12.1-.25.06-.37-.1-.13-.27-.18-.42-.23a1.1 1.1 0 0 0-1.06.22q-.16.13-.26.3a1 1 0 0 0-.16.37q-.07.26-.1.52-.03.58.2 1.1c.1.18.26.31.39.47.11.16.31.2.5.22q.34.04.64-.17.23-.16.36-.43a1 1 0 0 0 .15-.36v-.05zm1.28-2.33c-.14.03-.32-.02-.42.04q-.06.36-.14.7-.06.23-.09.48-.15.6-.26 1.22l-.23.58c-.1.05-.07.18.05.13l.58-.01c-.02-.13-.19-.18-.2-.31-.05-.15.01-.28.02-.42 0-.16.25-.05.36-.09h.5c-.03.18.14.32.12.51.03.1-.2.31 0 .3.23.01.46-.07.68-.06.21-.02-.05-.2-.06-.3l-.22-.7q-.16-.5-.28-.99l-.25-.87c-.02-.1 0-.24-.15-.21zm-.32.71.36 1.2c.06.16-.11.12-.21.13q-.19.03-.38.03c-.09-.12.03-.3.04-.45.01-.18.1-.35.1-.54.04-.12 0-.26.1-.37zm3.98-.83-.9.06c-.06.1.16.12.12.25q.02.36 0 .73l-.04 1.97c-.01.1-.25.28-.05.26.45.02.9.06 1.33-.05a1 1 0 0 0 .36-.22q.22-.2.35-.47a2.5 2.5 0 0 0 .13-1.28q-.06-.27-.17-.54c-.1-.11-.15-.26-.26-.36q-.18-.17-.4-.27c-.16 0-.3-.1-.47-.08m.07.25c.19-.01.38.09.44.27q.1.19.14.4c.04.14 0 .3.04.44.06.28 0 .56-.03.84q-.01.3-.17.58c-.05.14-.22.19-.34.25-.15.04-.37.03-.4-.16q-.03-.27-.02-.53-.01-.94.05-1.9c-.01-.17.15-.22.3-.2zm2.75-.15a.7.7 0 0 0-.53.15c-.18.13-.28.33-.4.5q-.2.37-.22.79c0 .23-.04.46 0 .68q.1.26.18.53a1 1 0 0 0 .86.7c.32.04.62-.16.8-.4.14-.2.3-.4.33-.65q.08-.3.1-.6 0-.22-.03-.44-.04-.3-.19-.57c-.13-.2-.23-.43-.44-.56a1 1 0 0 0-.46-.13m0 .2c.23 0 .38.24.41.46q.07.25.09.52 0 .44-.02.86c-.05.18-.02.38-.1.56a1 1 0 0 1-.23.48c-.13.09-.3.13-.4.01-.15-.08-.16-.25-.23-.39-.08-.23-.05-.48-.06-.73l.04-1.03q.05-.27.15-.52.1-.22.35-.22m1.2 3.2c.2-.02.38.07.58.06.14-.12-.16-.23-.12-.4q-.01-.29.08-.58l.07-.54c.05-.18.05-.36.1-.54.02-.15.03-.4.08-.49.1.16.04.35.1.52q.03.3.08.58l.08.62.08.56c.04.13-.04.4.19.34.2.07.13-.2.22-.32l.2-.86q.08-.23.14-.5.1-.4.25-.8c0 .78.06 1.56 0 2.34-.03.08-.24.23-.02.24q.3.01.59.07c.19.04.16-.12.04-.2-.12-.2-.05-.43-.06-.65l-.02-1.14q0-.52.03-1.06c.04-.06.22-.2.05-.21l-.7-.03c-.02.19-.1.36-.13.55l-.18.66-.14.6c0 .08-.07.17-.07.03 0-.18-.1-.35-.07-.53 0-.14-.08-.28-.06-.43-.01-.3-.11-.6-.11-.92-.04-.14-.25-.07-.37-.12l-.38-.02c.05.2.1.4.06.6q-.06.27-.08.52-.12.6-.2 1.2c-.06.14-.05.3-.11.44-.05.13-.08.25-.2.33q-.02.03 0 .08m3.08.34c.17.06.36.05.53.1.08 0 .29.1.3-.03-.07-.1-.17-.2-.13-.35q.05-.27.05-.53c0-.17.06-.32.06-.49a21 21 0 0 1 .13-1.48c0-.1.08-.15.14-.2.05-.17-.17-.1-.27-.12-.19-.02-.37-.07-.56-.06-.05.08.12.14.1.24.03.14 0 .27 0 .4-.07.2-.05.41-.07.61q-.01.3-.05.58-.07.22-.05.45 0 .26-.04.52 0 .2-.13.3zm1.08.23c.15-.01.3.07.44.06.08.03.25.08.17-.07a.7.7 0 0 1-.12-.45q0-.4.07-.8 0-.3.06-.57.01-.26.07-.52c.1.09.11.28.18.4l.74 1.92c.06.12.09.3.23.35.19.07.14-.14.15-.25.01-.16.1-.3.06-.48q.05-.26.06-.52.07-.27.06-.53.06-.25.06-.52.02-.27.1-.54c0-.13.32-.25.12-.33-.17 0-.4-.11-.54-.05.04.14.16.25.13.41.03.36-.07.72-.07 1.07q-.05.28-.07.55c-.1-.14-.14-.34-.21-.5q-.1-.3-.24-.59c-.04-.16-.13-.31-.17-.48l-.27-.66a3 3 0 0 1-.6-.12c-.16.09.09.23.06.36.05.27 0 .53-.03.79l-.06.51q.01.28-.06.55-.03.3-.09.58c0 .16-.16.24-.23.36zm2.81-2.7c.02.12.16.2.1.32q-.01.24-.05.46-.02.23-.06.43-.05.36-.07.7c0 .15-.06.28-.06.42 0 .11-.05.22-.06.33q-.01.15-.05.29-.05.09-.14.12c-.07.13.2.12.29.14l.45.1c.11.05.16-.08.06-.14-.11-.14-.03-.33-.02-.5q.01-.18.05-.37c.03-.16.02-.33.06-.5.02-.12.01-.26.06-.38.03-.17 0-.34.06-.5q0-.23.06-.42-.01-.21.16-.34l-.36-.1c-.13-.01-.25-.07-.37-.09q-.06 0-.1.03zm.99 2.21a1.7 1.7 0 0 0 .31 1.15c.08.16.25.22.39.32.17.1.4.09.58.01.1-.05.24-.08.3-.19.12-.15.27-.28.32-.47-.08-.17-.2.08-.27.13-.18.14-.46.2-.66.07a1 1 0 0 1-.27-.42c-.03-.15-.1-.3-.08-.46l.02-.62c.08-.16.03-.36.1-.52.07-.14.1-.3.2-.43a.4.4 0 0 1 .34-.17c.14.02.23.16.32.26q.15.2.14.46c-.03.12.1.27.18.13.05-.17.16-.33.17-.5-.02-.15-.17-.22-.27-.32l-.34-.2c-.21-.05-.48-.08-.67.06a1 1 0 0 0-.34.26c-.16.15-.23.36-.3.55q-.14.3-.17.63zm3.23-1.21-.55 1.24-.2.46q-.12.33-.3.64c-.09.14-.12.35-.28.42-.13.03-.1.17.03.17.16.02.31.12.46.13.13-.08-.07-.18-.05-.3a1 1 0 0 1 .1-.43c.12-.12.3-.01.43.01.1.07.27.03.34.11v.66c-.13.06-.1.21.04.21l.44.12c.08.04.25.07.15-.07-.1-.21-.07-.45-.08-.68q0-.28-.03-.56c-.04-.16 0-.32-.02-.48q.02-.53-.02-1.04l-.01-.48q-.21-.07-.43-.12zm-.07.68.03 1.45c-.19 0-.36-.08-.54-.12-.1-.15.13-.27.12-.43l.29-.67c.04-.07.04-.17.1-.23m1.45 3.05c0-.18-.15-.34-.09-.54-.01-.24.07-.46.12-.69 0-.16.08-.32.09-.49.03-.2.1-.39.12-.6.07-.17.13.06.14.15l.27 1 .12.43c.1.27.14.56.24.83-.01.17.08.38.28.34.08-.19.1-.4.15-.6.05-.18.03-.37.12-.53.06-.3.08-.62.18-.91l.17-.72c.05-.1.34-.23.13-.31-.16-.03-.34-.17-.5-.13.04.13.12.25.11.4 0 .18-.06.37-.07.56l-.12.48-.1.57c-.14-.12-.09-.33-.17-.49q-.1-.32-.17-.65-.1-.3-.17-.64a2 2 0 0 1-.14-.5c-.1-.15-.33-.16-.5-.23-.14-.08-.26.01-.14.15.08.33 0 .66-.07.98-.06.29-.15.57-.18.85-.07.18-.07.37-.12.56-.06.15-.11.32-.26.41-.18.16.18.17.27.22q.13.09.3.1zm3.16-2.13c-.1.24-.25.46-.36.7q-.16.33-.35.65l-.68 1.17c-.12.04-.27.2-.06.23.16.05.3.16.47.2.11-.06-.08-.22-.05-.32q.02-.25.14-.47c.1-.06.25.08.37.1.12.09.4.07.36.26q.03.3-.06.6c-.1 0-.15.07-.05.13l.36.15c.12.02.24.14.35.08-.03-.14-.1-.3-.08-.46l.02-.75c0-.17.06-.33.05-.5q0-.83.03-1.64c-.17.01-.3-.14-.46-.13m-.1.66-.02 1.47c-.12-.03-.24-.1-.36-.13-.09-.07-.33-.1-.2-.23l.31-.58q.13-.28.27-.53"/></svg>