<svg xmlns="http://www.w3.org/2000/svg" viewBox="0 0 1000 500"><path fill="#ea0437" d="M0 0h1000v500H0z"/><path fill="#4189dd" d="M0 500h1000V250"/><path fill="#12ad2b" d="M0 0h1000v250"/><path fill="#ffc726" d="M230.25 369.16c-10.81 2.99-17 11.37-16.85 19.29l53.21-.22c.48-8.5-6.52-16.36-17.17-19.46 52.1-1.08 97.36-20.6 105.59-33.11-8.14-3.54-17.55 2.15-24.26.84 15.93-7.36 63.64-38.25 55.89-71.36-6.03 18.4-24.3 33.61-32.08 37.7 17.82-27.07 42.16-55.25 21.04-77.07 1.07 12.64-8.03 26.56-12.05 27.6 10.34-28.6 20.2-64.5-2.2-88.17 2.94 8.56 1.75 32.7-2.3 33.78-1.24-19.45-4.56-60.36-25.04-59.77 6.5 5.79 9.35 21.6 9.5 37.56-4.68-10.94-9.98-19.18-21.33-27.25-9.17-17.6-25.5-32.19-41.84-42.64 1.84 12.82 3.35 22.93 21.24 36.21-9.32-.58-18.65-18.26-28.62-18.75-7.93-.38-14.15 7.19-27.1 2.83 1.43 4.28 7.48 6.17 8.75 9.34-2.77 1.91-9.36-.3-14.84-3.15 7.53 10.26 19.2 16.3 29.12 14.26 11.79-2.27 24.42-1.07 36.48 5.79-3.08 1.58-15.06 1.57-22.75.6 6.99 7.08 11.68 11.77 23.83 11.7 10.85-.08 16.54-5.8 19.33-2.25 6.81 8.06 11.4 16.13 17.09 25.63-12.58 1.38-8.8-14.23-22.8-22.22-7.87 16.3 9.05 35.6 20.57 43.64.16 12.24 1.95 22.49 7.14 31.81 3.5 6.58 8.03 13.3 6.33 28.14-6.9-5.02-13.64-21.96-11.16-35.41-8.63 2.35-12.01 17.53-7.94 25.18 3.04 5.81 5.07 16.95 1.56 21.92-3.41 4.64-3.77 4.12-3.73 14.07.12 5.96-3.2 13-8.62 17.91 1.13-4.2 2.42-11.41 1.17-15.93-4.29 7.27-15.03 14.79-18.41 22.6-3.33 7.83-4.17 21.39-20.25 24.52-20.69 4.1-27.83 7.69-41.14 13.13-1.47-10.1 2.95-31.19 11.4-29.99 8.26 1.47 33.28-8.62 24.33-29.7-1.77 6.64-7.67 13.13-14.04 13.41 6.89-8.94 19.18-18.2 13.2-33.17-3.34 6.37-8.57 14-16.5 18.3 8.5-16.3.98-21.18-9.13-7.75-3.81 5.18-6.12 15.57-8.54 28.76-3.97-10.73-3.71-24.85-8.42-36.32-4.91-12.4 6.53-15.67 11.9-14.67 13.18 3.51 35.2 3.51 33.57-18.26-5.7 7.37-15.67 9.64-26.45 6.99 12.1-8.84 21.66-25.46 8.17-34.14-.45 9.2-7.57 19.52-17.08 24.27-2.23-7.76-2.23-16-.32-25.04-5.3 5.59-9.19 17.22-12.27 30.44-.23-13.07 2.24-22.48 4.07-29.51 2.78-10.27 9.69-3.6 20.26-2.83 10.19.57 24.2-5.06 21.53-18.86-3.48 5.46-10.62 7.58-17.9 7 8.77-5.31 24.07-14.76 15.68-29.3-3.52 5.5-4.67 10.22-14.87 11.9 2.68-6.14 3.12-14.83 11.04-18.27-14.13-2.81-22.21 6.46-26.32 20.97-1.67-10.06-3.65-13.77-4.05-21.13 7.64-8.48 8.44-25.06-8.1-28.77-.97 8.55-.68 10.6 1.2 17.56-7.76-4.61-18.7-7.15-25.97-.64 4.93 5.33 12.56 10.01 24.33 4.2-2.78 9.1-10 7.54-19.94 4.08 6.07 11.4 13.73 13.43 22.19 12.11 4.42 11.67 4.62 20.54-8.32 37.54.6-10.56-.15-18.43-8.54-26.97-7.2-7.05-13.04.3-1.8 15.96-6.82-5.02-14.54-15.21-16.86-25.4-2.25 12.59-.23 27.42 6.74 35.74-3.3 3.52-7.04-.37-12.59-9 2.1 27.58 13.87 32.9 29.68 26.76.45 15.13.45 29.15 1.35 47.43-9.22-13.26-20.9-23.15-27.43-25.62-2.02 7.41 5.62 17.08 9.9 22.48-6.53-1.35-20.69-12.14-20.69-12.14-1.42 12.29 14.46 23.68 24.73 28.77-12.06-.52-17.39-5.1-25.18-12.59.15 34.1 36.94 28.18 43.84 22.93.9 16.79 2.18 36.2 3.08 52.98-10.4-1.82-9.59-4.94-18.49-5.77-24.7-.96-44.29-29.65-50.78-50.75-1.86 3.47-.38 7.1-2.09 11.37-4-10.36-9.13-23.74-16-29.96 1.75 6.04 1.93 12.17 1.33 23.46-2.36-7.31-4.56-9.56-4.71-18.14.15-6.59 6.35-11.45 6.01-20.72-.25-6.77-6.43-21.44-7.33-32.8-3 11.7-4.87 24.01-9.45 31.25 2.28-12.48 1.55-21.1 5.4-29.5 4.44-8.84 8.22-16.73 5.26-25.65-2.84 3.44-1.86 6.57-9 14.95-1.54-9.1 9.23-23.69 19.68-29.55 7.37-3.88 16.67-17.77 10.61-27.3-6.93 4.98-10.04 11.71-19.84 23.2 6.99-27.3 25.14-34.44 46.87-34.54 4.8-.02 14.5-1.76 17.22-8.12-6.13 2.37-13.37 2.67-19.81 1.38 4.69-6.89 14.57-6 23.77-6.03 7.22-.04 18.49-1.02 23.04-11.3-8.8 3.82-22.54 4.61-31.18 1.9 13.75-7.12 35.29-7.88 46.34-17.24-12.6-9.4-44.1 2.2-64.01 15.84 5.56-5.08 14.35-14.1 19.2-21.39-10.88-5.22-38.4 25.28-47.9 43.4-9 5.09-12.6 13.06-16.1 18.63 4.8-16.22 5.3-28 9.31-41.35-30.88 10.63-18.04 67.68-24.76 81.33.8-15.07.15-34.43-6.05-44.4-9.51 7.25-10.28 49.95-1.35 85.5-3.22-9.51-9.31-18.4-11.26-29.97-14.08 25.67 8.25 55.96 26.92 79.88-14.06-7.32-27.95-23.07-37.08-36.27 2.52 45.95 50.5 55.5 57.95 66.79-10.11-4.7-29.44-14.02-37.64-4.26 13.35 3.08 24 6.64 32.58 12.27 12.45 15.54 36.03 22.34 77.1 24.06"/></svg>