<svg xmlns="http://www.w3.org/2000/svg" xmlns:xlink="http://www.w3.org/1999/xlink" viewBox="0 0 500 300"><defs><g id="c"><g id="b"><path id="a" fill="#fcd116" d="M0-1v1h.5" transform="rotate(18 0 -1)"/><use xlink:href="#a" transform="scale(-1 1)"/></g><use xlink:href="#b" transform="rotate(72)"/><use xlink:href="#b" transform="rotate(144)"/><use xlink:href="#b" transform="rotate(216)"/><use xlink:href="#b" transform="rotate(288)"/></g></defs><path fill="#ce1126" d="M0 0h500v300H0z"/><path fill="#007a5e" d="M42 42h416v216H42z"/><path fill="#fcd116" d="M42 42h416L42 258h416z"/><circle cx="250" cy="150" r="36" fill="#ce1126"/><use xlink:href="#c" transform="matrix(33 0 0 33 250 150)"/><use xlink:href="#e" x="-100"/><use xlink:href="#c" id="e" transform="translate(250 21)scale(19.5)"/><use xlink:href="#e" x="100"/><use xlink:href="#e" x="-100" y="258"/><use xlink:href="#e" y="258"/><use xlink:href="#e" x="100" y="258"/><path fill="#ce1126" d="M67.75 150.41c4.5 8.39 13.26 17.52 20.91 20.73.13-8.52-2.9-19.44-7.03-28.14z"/><path fill="#fcd116" d="M60.11 121.63c6.53 13.61-16.93 46.08 22.16 53.69-4.82-6.58-7.93-17.44-6.76-26.16 8.2 3.12 16.83 12.25 20.32 19.23 10.23-37.15-26.24-34.89-35.72-46.76"/></svg>