<svg xmlns="http://www.w3.org/2000/svg" xmlns:xlink="http://www.w3.org/1999/xlink" viewBox="0 0 512 256"><path fill="#da000c" d="M0 0h512v256H0z"/><path fill="#fff" d="M0 0h512v171.5H0z"/><g stroke="#000"><g id="a" fill="#da000c" stroke-linecap="square"><path fill="#000" stroke="none" d="M196.57 116.3h64v43.99h-64z"/><path d="M229.82 153.86h-39.07l-8.66 5.7v6.04h47.73m-16.35-37c5.62 0 10.22 4.68 10.22 10.46v14.78h7.34v-56h-40.28v56h12.5v-14.78c0-5.55 4.51-10.47 10.22-10.47z"/><path fill="#000" stroke="none" d="M204.53 59.96h18.52v33.96h-18.52z"/><path d="M223 88.66h-16.2V82.9h-11.9v5.75h-8.06V82.9h-4.8v10.43H223m-36.16-.03h34.97v4.53h-34.97zm13.88-45.67V82.9h6.07v-9.7c0-3.62 2.56-6.6 6.15-6.77h.34a6.8 6.8 0 0 1 6.78 6.78v9.69h5.78V47.63zm-2.19-4.79v4.78h29.25v-4.78zm-3.75-9.15v9.15h35.1V33.7h-5.41v4.65h-6.53V33.7h-9.97v4.65h-6.53V33.7zm-12.69 125.87H230m31-2.75h-32.44l-9.78 4.72v7.03H261"/><path stroke-linecap="butt" d="M218.77 161.52H262"/></g><use xlink:href="#a" transform="matrix(-1 0 0 1 512 0)"/><g fill="#f8d80e"><g stroke-linecap="round"><path stroke-width=".77" d="M273.3 150.03c-2.66.88-5.06 2.37-7.47 3.75a73 73 0 0 0-8.9 6.1 12 12 0 0 0-2.7 2.28c-1.02.87-2.06 2.05-1.86 3.5.05.65.87-.75 1.41-.81a4.4 4.4 0 0 1 3.14-.48c1.27-1.33 2.91-2.23 4.33-3.4 3-2.24 6.23-4.17 9.52-5.96 1.15-.6 2.3-1.19 3.53-1.6z"/><path d="M260.4 157.4v3.9m2.42-5.61v3.88m2.41-5.39v3.86m2.42-5.34v3.97"/><path stroke-width=".77" d="m238.9 150.16-1.2 3.3a87 87 0 0 1 15.8 8.07c1.7 1.15 3.47 2.27 4.8 3.84.29.82-.52 1.5-1.32 1.25-.73-.25-1.45-.53-2.22 0-1.11.5-2.1 2.14-.43 2.69 2.32 1.55 6.08.88 7.2-1.85.58-1.4.61-3.2-.51-4.34-2.06-2.37-4.8-4.01-7.42-5.68a89 89 0 0 0-14.7-7.28z"/><path d="m254.05 158.04-.31 3.33m3.09-1.63-.86 3.27m3.83-1-1.8 2.54m2.72 3.63-2.61-1.4m3.42-1.35-3 .28m-.87 4.05-.2-2.63m-.89-.37-2.47 1.82m-9.42-15.64v3.11m6.28.19v3.54m-3.14-5.18v3.31"/></g><path d="M235.78 227.56v8.03h5.03v-4.03h6.85v4.03h5.4v-8.03zm0 11.06v8.07h17.28v-8.06h-5.4v4.03h-6.85v-4.03z"/><path d="M253.05 193.65h4.99v58.12h-4.99z"/><path d="M253.05 198.68h4.99v50.06h-4.99z"/><path stroke-width="1.02" d="m255.55 179.4 10.62 6.2-10.62 6.15-10.63-6.16zm-14.22 3.97h-2.78v4.44h2.78l14.22 8.25 14.22-8.25h2.78v-4.44h-2.78l-14.22-8.25z"/><path stroke-width="1.02" d="M255.34 164.28a5 5 0 0 0-4.09 5.14q-.02 5.6.01 11.2a4.93 4.93 0 0 0 4.68 4.6 4.9 4.9 0 0 0 4.81-2.78l-1.72-1.03a2.9 2.9 0 0 1-2.97 1.78c-1.63.04-2.96-1.55-2.81-3.14.01-3.71-.02-7.42.01-11.14a2.85 2.85 0 0 1 3.05-2.6c.63-.18 1.49.68 1.88-.06.58-.83-.42-1.48-.97-1.94-.61-.08-1.26 0-1.88-.03zm5.79 3.9c-.4.75-1.22 1.2-1.88 1.59v7.51l2 1.16q.02-4.8-.01-9.61c-.03-.2 0-.5-.11-.64z"/></g><g fill="#da000c"><path fill="#000" stroke="none" d="M240.8 38.35h29.33V91.6H240.8z"/><path d="M238.75 38.38v44.56h9.31V69.72c0-3.05 1.96-7.28 7.94-7.28s7.94 4.23 7.94 7.28v13.22h9.31V38.38zm15.81 5h2.88v15.24h-2.88zm-8.25 3h2.9v11.15h-2.9zm16.47 0h2.9v11.15h-2.9zM235.6 31.97v6.34h40.8v-6.34z"/><path d="M231.75 24.6v7.37h48.5v-7.38h-6.1v4.07h-6.87v-4.07h-7.84v4.07h-6.88v-4.07h-7.84v4.07h-6.88v-4.07zm-9 73.24v4.6h66.5v-4.6zm-2.72-14.94v14.94h71.94V82.91h-6.81v5.75h-9.07V82.9h-12.15v5.75h-15.88V82.9h-12.15v5.75h-9.07V82.9z"/><path stroke-linejoin="round" d="M228.69 102.44v54.34h12.84v-20.34c0-9.59 6.4-14.1 14.47-14.1 7.76 0 14.47 4.51 14.47 14.1v20.34h12.84v-54.34z"/></g></g></svg>