<svg xmlns="http://www.w3.org/2000/svg" xmlns:xlink="http://www.w3.org/1999/xlink" viewBox="0 0 1200 600"><path fill="#171796" d="M0 0h1200v600H0z"/><path fill="#fff" d="M0 0h1200v400H0z"/><path fill="red" d="M0 0h1200v200H0z"/><path fill="red" d="M600.04 455.19c64.15 0 116.63-52.5 116.63-116.64v-138.6H483.4v138.6c0 64.15 52.49 116.64 116.63 116.64z"/><path fill="#fff" d="M600.04 453.32c62.93 0 114.4-51.49 114.4-114.41V202.2H485.63v136.7c0 62.93 51.49 114.42 114.42 114.42"/><g fill="red"><path d="M533.92 206.5h-44.03v48.38h44.03zm0 96.75h44.03v-48.37h-44.03zm-44.03 35.39q.01 6.59.77 12.98h43.26v-48.37h-44.03zm132.09-35.39h-44.03v48.37h44.03zm0 96.75h44.03v-48.38h-44.03zm44.03 26.46A112 112 0 0 0 691.15 400H666zM533.92 400h44.03v-48.38h-44.03zm-25.18 0a112 112 0 0 0 25.18 26.49v-26.5zm98.89 48.37q7.31-.51 14.35-1.96V400h-44.03v46.42q7 1.44 14.3 1.95 7.69.46 15.38 0"/><path d="M709.22 351.62q.77-6.41.78-13.03v-35.34h-44v48.38zm-87.24-48.37h44.03v-48.37h-44.03zm0-96.75h-44.03v48.38h44.03zM710 254.88V206.5h-44v48.38z"/></g><path fill="#fff" d="m712.46 198.54 27.3-61.89-20.8-33.59-34.45 12.76-24.2-27.66-31.88 18.27L600 83.15l-28.42 23.28-31.88-18.27-24.2 27.66-34.46-12.76-20.8 33.6 27.26 61.9A272 272 0 0 1 600 174.33c40.05 0 78.12 8.66 112.47 24.2z"/><path fill="#0093dd" d="m516.26 118.55-.05.06-34.17-12.65-19.13 30.87 7.33 16.66 18.56 42.12a275 275 0 0 1 43.22-14.95z"/><path fill="#fff" stroke="#000" stroke-width=".35" d="M514.3 149.08a16.6 16.6 0 0 1 1.9 7.76c0 9.2-7.5 16.7-16.7 16.7-8.1 0-14.89-5.83-16.39-13.51a16.8 16.8 0 0 0 14.62 8.55 16.82 16.82 0 0 0 16.56-19.5z"/><path d="m498.98 125.97-.05.28-1.17 6 4.6 4.01.21.19-.26.09-5.77 2-1.19 5.98-.05.28-.21-.19-4.61-4-5.78 1.97-.27.1.06-.29 1.16-5.99-4.6-4.02-.21-.19.27-.09 5.77-1.98 1.18-6 .06-.27.2.18 4.62 4 5.78-1.96z"/><path fill="#f7db17" d="m492.05 134.49 4.3 3.76 5.4-1.86zm.03-.19 9.71 1.9-4.3-3.76zm-10.42-2.04 9.7 1.9-4.3-3.76zm9.67 2.09-9.7-1.9 4.29 3.75zm.54-.37 6.5-7.45-5.4 1.84zm-6.97 8.01 6.5-7.46-5.42 1.86zm6.64-7.33-6.5 7.46 5.4-1.84zm6.98-8-6.5 7.45 5.41-1.85zM491.5 134l-3.21-9.35-1.1 5.6zm3.44 10.05-3.2-9.35-1.1 5.61zm-3.02-9.41 3.2 9.35 1.11-5.6zm-3.45-10.05 3.21 9.36 1.1-5.62z"/><path fill="#171796" d="m571.87 109.26-.06.04-31.6-18.11-23.95 27.36 15.76 62.11a275 275 0 0 1 45.15-7.54z"/><path fill="red" d="M528.11 165.25a290 290 0 0 1 47.75-7.98l-1.34-16.14a307 307 0 0 0-50.4 8.41zm-7.92-31.22a323 323 0 0 1 53-8.85l-1.31-15.85a338 338 0 0 0-55.6 9.29z"/><g transform="scale(.00296)"><path fill="#0093dd" d="m212105 36890-23 13-9517-7794-9497 7778 1788 21560c2543-210 5113-322 7709-322 2608 0 5190 113 7744 325l1795-21560z"/><g id="a"><path d="M202545 46585c-18-2-44 10-69 45-186 250-359 469-545 720-195 61-242 180-167 348-261-26-291 193-302 432-250-379-522-482-814-307-11-230-187-338-439-392-180-10-319-65-436-145-60-42-110-64-170-106-126-88-226-5-172 74 267 434 535 868 802 1302-14 80 6 151 88 204 47 133 93 265 140 397-11 38-21 75-32 113-221-105-443-118-664-133-170-8-287-50-361-137-54-63-91-26-92 82-3 534 162 1014 599 1492-231 4-462 11-694 21-79 6-95 39-73 104 126 304 339 579 822 766-208 112-327 285-357 520-9 224-75 382-212 455-60 32-81 65-24 106 253 185 565 193 895 112-157 270-226 553-198 850 208 56 412 15 614-52-29 61-44 175-52 309-7 115-41 229-104 343-32 33-65 84 4 102 336 91 648 52 915-47 0 243 2 487 76 727 18 58 70 102 125 26 155-214 322-396 527-517 31 90 75 168 156 215 96 55 147 170 153 343 0 30-2 60 35 90 149 7 514-380 589-597 206 121 284 246 439 461 55 76 99 29 128-25 62-243 67-481 66-724 267 99 579 138 915 47 69-19 36-70 4-102-62-114-105-250-113-365-9-133-14-226-43-287 202 68 405 108 614 52 29-297-53-579-211-850 330 80 655 73 908-112 57-41 35-74-24-106-136-73-203-231-212-455-30-235-149-409-357-520 483-187 696-463 822-766 22-66 6-99-73-104-231-10-480-24-711-27 437-478 606-961 604-1495-1-108-38-146-92-82-74 87-179 137-348 146-222 15-435 24-656 128-11-38-21-75-32-113 46-132 106-260 153-393 82-53 102-123 88-204 267-434 513-868 781-1302 54-79-46-162-171-74-60 42-110 64-170 106-117 80-257 134-437 145-251 54-417 167-428 397-293-175-564-73-814 307-11-239-41-457-302-432 75-168 17-291-178-352-186-250-458-470-644-720-31-35-51-47-69-45z"/><g fill="#f7db17"><path d="M205075 47978c-51-26-124 17-162 95s-33 170 19 196c40 20 84-6 119-56l22-36c2-3 4-6 5-9 38-78 49-163-2-188zm-5008 0c52-26 124 17 162 95s39 165-13 191-103-24-141-102-60-158-9-184zm4539 905c-32 0-59 27-59 59s26 59 59 59 59-26 59-59c0-32-26-59-59-59m-4032 0c-32 0-59 26-59 59 0 32 26 59 59 59s59-26 59-59-26-59-59-59m4294-304c-754-91-1506-133-2260-133s-1509 41-2269 115c-26 8-21 90 14 86 756-73 1507-113 2256-113 743 0 1485 40 2228 129 39 4 54-80 32-84z"/><path d="M200319 48495c768-75 1530-117 2289-116 754 0 1507 42 2261 133l111-184c-32 10-62 9-90-5-76-38-92-161-36-274 56-114 164-175 240-138 39 19 62 62 68 114l446-739c-204 130-328 214-581 252-281 41-409 139-368 307 38 156-57 133-201 54-314-171-541 71-652 353-73 186-159 181-168-13-4-70 0-131-7-200-21-223-89-286-216-224-161 78-175 25-137-58 28-60 86-128 66-221-9-67-66-92-151-98-182-244-467-483-649-727-182 244-374 483-556 727-86 5-142 30-152 98-20 93 52 157 80 217 38 82 23 135-137 57-127-61-186-3-207 220-7 69-10 139-13 209-9 194-95 199-168 13-111-282-352-524-667-353-145 79-203 102-182-54 23-172-107-266-388-307-253-37-377-122-581-252l419 682c12-25 29-45 53-57 76-38 184 24 240 138 56 113 40 237-36 274-10 5-21 8-32 10l100 163zm4389 911c-7 3-7 4-24 11-46 19-80 66-134 124-57 60-128 125-211 188-12 10-25 19-44-6s-7-35 6-44c80-62 149-124 204-182 30-32 56-63 77-92-95-11-190-21-284-30-79 24-157 55-222 95-59 35-107 77-137 125-8 14-16 27-44 11-27-16-19-30-11-44 35-58 91-107 158-147 33-20 69-38 106-54-107-9-214-18-321-25-22 13-42 29-61 47-20 19-39 42-56 67-9 13-18 26-44 8s-18-31-8-44c19-29 41-54 64-77l9-9c-80-5-161-10-241-14-2 2-5 5-8 7-21 18-40 38-55 59s-28 43-38 67c-6 15-12 29-41 18-29-12-23-26-17-41 12-29 27-55 45-81 8-11 18-22 27-33-115-5-230-9-344-12-4 5-9 8-14 11q-37.5 22.5-66 51c-28.5 28.5-35 40-48 63-8 14-16 28-43 12-28-16-20-29-12-43 16-28 35-54 59-77 7-7 14-13 21-19-122-2-244-4-365-4q-180 0-360 3c8 7 15 13 22 20 23 23 42 49 59 77 8 14 16 27-12 43s-35 2-44-12q-19.5-34.5-48-63c-28.5-28.5-41-36-66-51-6-3-12-7-15-12-115 2-230 6-345 11 11 11 20 23 29 35 19 25 33 52 45 81 6 15 12 29-17 41s-35-3-41-18c-9-24-22-46-38-67-15-21-34-41-55-59-4-3-7-6-10-10-81 4-162 8-243 13 4 4 9 8 13 12 24 23 45 48 64 77 9 13 18 26-8 44s-35 5-44-8c-18-26-36-48-56-67s-41-35-64-49c-1-1-3-2-5-3-110 7-220 14-330 23 43 18 85 38 122 61 67 40 124 89 158 147 8 14 16 27-11 44-27 16-35 3-44-11-29-48-78-90-137-125-72-44-159-77-246-102h-2c-90 7-179 15-268 24 22 33 51 68 86 106 55 58 124 120 204 182 13 9 25 19 6 44s-32 15-44 6c-83-64-155-128-211-188-37-38-99-111-135-140-196-90-354-127-575-147-153-14-318-9-458-79 36 85 75 164 126 229 53 68 120 121 209 147 8 2 21 16 22 25 28 157 84 286 169 386 52 60 114 110 188 149-75-81-132-166-172-251-67-142-90-286-77-420 1-16 3-32 34-29 32 3 30 19 29 35-11 123 9 256 72 387 56 118 159 237 291 346 24 19 0 63-29 55-154-44-290-123-383-231-89-104-149-237-180-397-94-32-165-90-222-164-47-60-85-131-118-205 28 428 182 801 456 1137 61 75 165 182 255 216 92 35 95 100-20 101-34 1-69 1-105 1 84 31 164 66 233 105 127 73 217 162 224 273 1 16 2 32-29 34-32 2-33-14-34-29-6-86-82-160-192-223-113-65-259-117-402-160-154 0-312-1-459 3 39 28 80 57 131 84 82 44 188 86 343 122 89 21 166 52 233 91 71 42 130 93 177 150 10 12 20 25-5 45s-34 8-45-5c-42-52-95-98-159-135q-91.5-54-216-84c-161-38-272-81-358-128-75-40-131-82-184-123 180 393 450 573 835 689 23 7 43 13 61 19 3 1 6 1 9 2 86 21 175 40 266 55 92 15 166 28 261 37 16 1 32 3 29 34-3 32-19 30-34 29-99-9-174-22-266-38q-87-15-171-33c-26 6-64 9-107 12-232 14-420 225-435 494 0 5 0 11-1 16 88-80 179-157 273-212 117-68 239-103 364-69 15 4 31 8 22 39-8 31-23 27-39 22-106-28-212 3-316 63-108 63-213 158-315 253-24 147-82 285-205 377 61 34 104 65 163 45 86-39 172-78 261-108 91-31 184-52 282-57 16-1 32-1 33 31s-14 32-31 33c-91 4-179 24-264 53-75 26-149 58-222 91 221 47 460-1 667-79 60-22 105-42 133-41 51-30 112-53 172-79 66-28 132-51 182-57 16-2 32-4 35 28 4 32-12 33-28 35-112 13-127 21-222 79 0 21-66 57-126 96-36 24-70 52-87 67-95 86-144 181-188 287-29 70-52 145-68 224 55-108 121-211 201-303 94-108 208-201 345-265 14-7 29-13 42 15 13 29-1 35-15 42-129 60-236 147-324 250-90 103-161 222-219 345-31 64-8 1-42 86 110-122 212-224 323-307 132-100 283-157 418-133 15 3 31 6 26 37s-21 28-37 26c-116-21-250 32-369 121-121 92-244 223-366 361 184 26 366-26 542-85 91-30 183-135 239-152 19-24 38-46 57-67 33-37 67-71 102-100 12-10 24-20 45 4s8 34-4 45c-33 28-65 60-96 94-32 35-62 73-92 113-6 8-13 17-24 16-60 70-151 162-172 240-57 210-25 370-122 576 71-38 128-81 175-134 53-60 94-135 128-230 37-104 95-195 167-270 75-77 165-136 261-172 15-5 30-11 41 19s-4 35-19 41c-87 32-169 86-238 157-66 68-119 151-153 247-37 102-81 183-141 250-44 50-95 91-156 127 52-3 78-10 121-7 79-6 211-66 279-119 66-51 116-120 154-206 6-15 13-29 42-16s23 27 16 42c-42 96-99 174-173 231-56 43-121 75-196 93 161-5 311-42 467-100 65-24 87-168 127-208 32-58 66-112 105-158 47-56 101-101 164-127 15-6 29-12 41 18 12 29-3 35-17 41-52 21-98 60-139 108-36 42-68 93-98 147 10 73-51 228-53 305-7 205-2 409 53 612 53-71 107-134 162-192 0-5 0-10 1-15 18-106 33-219 40-332 7-112 7-223-6-329-2-16-4-32 27-35 32-4 34 12 35 28 14 111 14 226 7 340-6 90-16 180-30 269 54-51 53-51 77-103 37-80 59-159 67-237 9-80 5-157-13-230-4-15-7-31 24-38s35 8 38 24c19 80 25 165 14 252-8 65-24 132-49 199 56-42 114-82 178-122-4-75-5-153-3-227 2-68 7-134 18-190 4-20 7-40 47-33s37 27 33 48c-9 50-14 111-16 177-2 78 0 162 4 243 5 82 49 185 125 230 103 62 158 163 186 274 16-145 17-280 3-400-17-143-55-267-114-368-8-14-16-27 12-44 27-16 35-2 43 12 63 110 104 241 122 393 17 146 13 310-13 488 102-82 381-258 352-594-7-27-16-52-28-75-7-14-14-28 14-42s35 0 42 14c17 33 30 69 39 110 5 24 8 49 11 76 13-7 45-43 51-39 24 16 58 38 80 54-21-60-35-120-42-178-10-87-5-172 14-252 4-15 7-31 38-24s27 23 24 38c-18 73-22 151-13 230 9 77 31 157 67 237 4 8 8 16 5 25 24 21 47 42 70 65-13-84-22-170-28-255-8-115-7-230 7-341 2-16 4-32 35-28s29 20 27 35c-13 106-13 217-6 329 7 113 22 225 40 332 1 2 1 5 1 7 54 59 95 120 152 196 55-203 73-407 66-612-2-76-69-227-65-302-30-55-63-107-100-151-41-49-87-87-139-108-15-6-29-12-18-41 12-29 27-24 41-18 62 26 117 71 164 127 38 45 72 98 103 154 57 7 78 179 143 212 154 57 298 94 453 100q-112.5-28.5-195-93c-74-57-131-135-173-231-6-15-13-29 16-42s35 2 42 16c38 86 88 156 154 206 85 66 289 124 400 127-61-37-113-78-157-128-59-67-104-148-141-250-34-95-87-179-153-247-68-71-150-124-238-157-15-6-29-11-19-41 11-29 26-24 41-19 96 36 186 94 261 172 72 74 130 166 167 270 34 95 75 169 128 230 47 54 105 98 177 135-98-207-66-367-122-577-35-129-232-277-193-320 45-51 133 88 248 127 175 59 357 111 540 85-122-138-244-269-366-361-119-90-237-140-352-120-16 3-31 6-37-26-5-31 10-34 26-37 135-24 269 32 401 132 111 84 201 175 311 298-18-47 0-14-30-77-59-123-130-241-220-345-89-102-196-189-324-250-14-7-28-13-15-42 13-28 28-22 42-15 137 65 251 157 345 265 81 93 147 198 203 307-15-81-39-157-68-227-44-106-93-201-188-287-62-56-209-140-208-179-29-15-33-11-63-24-61-26-121-46-164-52-16-2-32-4-28-35 4-32 19-30 35-28 50 6 115 28 182 56 33 14 66 43 98 60 53 4 139 47 208 74 206 78 446 126 666 79-73-33-147-65-223-91-85-29-172-49-264-53-16-1-32-1-31-33s17-31 33-31c98 4 191 26 282 57 89 30 175 69 261 108 59 27 101-7 163-45-123-92-181-230-205-376l-2-2c-102-95-207-190-315-253-104-60-210-91-316-63-15 4-31 8-39-22-8-31 7-35 22-39 125-33 247 1 364 69 94 55 186 132 274 213 0-6-1-11-1-17-15-270-203-480-435-494-78-5-189 21-186-32 4-59 97-44 234-86 385-116 655-296 836-690-54 41-110 83-186 124-86 47-198 91-358 128-82 19-154 48-216 84-64 38-117 84-159 135-10 12-20 25-45 5s-14-32-5-45c47-57 106-108 177-150 67-39 145-70 233-91 155-36 261-78 343-122 51-27 92-55 131-84-148-4-305-3-459-3-143 44-289 96-402 160-110 63-186 136-192 223-1 16-2 32-34 29-32-2-31-18-29-34 8-111 97-200 224-273 69-39 149-74 233-105-35 0-70 0-104-1-116-2-112-66-20-101 90-34 190-141 251-216 271-334 412-714 456-1130-33 72-69 140-115 198-57 73-128 131-222 164-31 160-91 293-180 397-92 108-216 185-369 230-29 8-52-35-29-55 132-109 221-226 278-344 62-131 83-264 72-387-1-16-3-32 29-35 31-3 33 13 34 29 12 134-10 278-78 420-40 85-97 170-172 251 73-39 136-89 187-149 85-100 141-229 170-386 1-8 14-22 22-25 89-27 155-79 209-147 51-65 90-143 126-228-140 69-304 64-457 78-213 19-369 68-554 152z"/><path d="M204649 49231c-680-88-1359-113-2041-114-684 0-1369 40-2058 112-20 6-15 33-14 46 2 28 37 35 121 27 643-60 1285-93 1932-93 674 0 1351 21 2038 102 33 9 77-85 22-81z"/><path fill-rule="evenodd" d="M200570 49160c683-71 1362-110 2038-110 675 0 1349 40 2025 127l31-127c-17 9-37 15-58 15-67 0-123-55-123-123s55-123 123-123c51 0 94 31 113 75l60-170c-724-84-1446-122-2171-122-729 0-1459 38-2193 107l58 164c22-32 59-54 101-54 68 0 123 55 123 123s-55 123-123 123c-12 0-25-2-36-6l33 94-2 7zm3067-416c-68 0-123 55-123 123s55 123 123 123 123-55 123-123-55-123-123-123m0 64c-33 0-59 27-59 59s26 59 59 59c32 0 59-27 59-59s-26-59-59-59m-1082-91c-67 0-123 55-123 123s55 123 123 123 123-55 123-123-55-123-123-123m0 64c-32 0-59 26-59 59s26 59 59 59 59-26 59-59c0-32-26-59-59-59m-1064-40c-68 0-123 55-123 123s55 123 123 123c67 0 123-55 123-123s-55-123-123-123m0 64c-33 0-59 26-59 59s26 59 59 59c32 0 59-26 59-59 0-32-26-59-59-59"/></g><path d="M202601 47974c-14-68-49-129-100-175-51-47-116-78-187-88-33-4-39-58-7-68 60-20 114-67 157-133 45-69 79-157 95-256 5-34 64-35 69-1 15 84 51 153 97 208 55 66 125 112 193 138 31 12 25 63-8 68-59 9-105 42-141 87-50 62-81 145-100 221-8 33-62 31-69-2zm33-118c20-52 47-103 81-146 28-34 60-64 99-84-51-30-100-70-143-120-28-34-53-73-73-116-19 59-45 112-75 158-31 47-67 86-108 116 50 19 95 47 134 82 34 31 63 68 85 110m799 5115-515 206c-17 7-35 14-48-21-14-34 4-41 21-48l515-206c17-7 35-14 48 21 14 34-4 41-21 48m59-326-604 328c-16 9-33 18-51-15s-1-42 15-51l604-328c16-9 33-18 51 15s1 42-15 51m-1826-65 604 328c16 9 33 18 15 51s-34 24-51 15l-604-328c-16-9-33-18-15-51s34-24 51-15m51 322 515 206c18 7 35 14 21 48-14 35-31 28-49 21l-515-206c-17-7-34-14-21-48 14-35 31-28 48-21zm224 434c137 33 261 48 358 31 88-16 155-60 191-146v-493c-107-1-212-15-303-41-109-31-170-98-201-178-41-107-27-235-4-329 5-18 9-36 45-27s32 27 27 45c-20 82-33 194 1 284 23 60 69 110 152 133 91 25 198 38 307 38 107 0 214-13 304-40 82-24 148-69 192-123s65-117 57-176c-5-36-24-62-49-80-34-24-82-35-128-37-47-2-94 7-142 16-25 5-50 9-77 13-19 2-37 5-42-32s14-40 32-42c23-3 48-8 73-12 52-10 105-20 159-18 60 2 121 18 168 51 42 29 72 72 80 131 11 80-16 163-73 233-53 65-131 119-229 147-83 24-178 38-274 42v483c3 5 3 11 2 16 37 82 102 125 188 141 97 18 221 2 358-31 18-5 36-9 45 27 8 37-9 41-28 45-146 35-279 51-388 32-92-17-165-58-215-132-49 74-124 115-215 132-109 20-242 4-388-32-18-4-37-8-28-45 8-36 27-32 45-27zm356 210 402-9c19 0 38-1 38 37 1 38-18 38-37 38l-402 9c-19 0-37 1-38-37s18-38 37-38m593-3082c151-125 293-227 423-297 133-72 254-111 359-106 19 1 37 1 36 39-1 37-20 37-39 36-92-4-200 32-322 97-125 67-263 166-410 289-14 12-29 24-53-5s-9-41 5-53zm-605 56c-141-130-298-240-445-314-139-71-268-108-363-100-19 2-37 4-40-34-4-37 15-39 34-40 110-10 252 31 404 107 152 77 315 191 461 325 14 13 28 25 2 53-25 27-39 15-53 2zm-213 1004c37-83 83-155 136-219 53-63 112-119 174-170 14-12 29-24 52 5 24 29 9 41-5 53-59 48-114 101-164 160-49 59-91 125-125 201-8 17-15 34-49 19s-27-32-19-49m371-1734c49 66 88 139 114 223 26 82 40 175 39 279 5 80 6 165-7 249-13 86-42 170-97 246-43 60-101 97-165 113-53 13-109 10-164-7 29 100 51 208 6 308-8 18-33 27-51 18-43-22-86-43-128-62s-84-36-127-51l-1-1c-95-37-173-73-236-112-65-39-115-80-150-124l1 2c-44-49-72-106-88-170-14-55-20-114-22-174-72-39-138-78-194-116-64-43-118-87-161-131-13-14-26-27 1-53s40-12 53 1c39 40 89 80 150 121 60 40 128 81 204 121 124 13 247 51 370 109 106 50 211 115 317 192 13 7 19 16 27 20 8 6 16 13 25 19 51 22 104 28 152 16 47-11 90-39 122-84 48-66 72-139 84-214 12-77 11-157 6-234v-2c1-97-12-183-35-258-24-76-58-142-102-201-11-15-22-30 7-52s41-7 52 7zm-375 1047c-104-77-207-141-311-190-105-49-210-83-314-98q3 72 18 135c13 52 35 99 71 138l1 1c30 37 73 72 130 107 60 36 134 71 225 106l-1-1c45 16 89 34 133 54 31 14 61 28 93 44 19-83-10-179-37-267-2-8-5-15-9-29zm776-1003c-44 59-79 125-102 201-24 76-36 161-35 258v2c-5 77-6 158 6 234 12 75 37 148 84 214 32 45 75 72 122 84 48 12 101 6 152-16 8-6 17-13 25-19 6-4 13-12 27-20 105-77 211-143 317-192 123-58 246-95 370-109 75-40 144-80 204-121s111-81 149-121c13-13 26-27 53-1s14 39 0 53c-43 44-97 88-161 131-57 38-122 77-194 116-2 61-8 119-22 174-16 63-44 121-88 170l1-2c-35 44-85 85-150 124-63 38-141 75-237 112l-1 1c-43 15-85 32-127 51-43 19-85 40-128 62-18 9-43 0-51-18-45-100-23-208 6-308-55 18-111 20-164 7-64-15-122-53-165-113-55-76-84-160-97-246-13-85-12-169-7-249-1-104 13-196 39-279 26-84 65-158 114-223 11-15 22-30 52-7 30 22 19 37 7 52zm940 715c-105 15-209 49-314 98-104 49-207 113-311 190-4 13-6 21-8 29-27 88-56 184-37 267 31-15 62-30 93-44 44-20 87-38 133-54l-1 1c91-35 165-70 225-106 58-34 100-70 131-107l1-1c35-39 57-86 71-138 11-42 16-87 19-135z"/><path fill-rule="evenodd" d="M203459 50602c-119 0-216 97-216 216s97 217 216 217 216-97 216-217c0-119-97-216-216-216m0 69c-81 0-147 66-147 147s66 147 147 147 147-66 147-147-66-147-147-147m0 60c-48 0-87 39-87 87s39 87 87 87 87-39 87-87-39-87-87-87m-1697-124c119 0 217 97 217 216s-97 217-217 217c-119 0-216-97-216-217 0-119 97-216 216-216m0 69c81 0 147 66 147 147s-66 147-147 147-147-66-147-147 66-147 147-147m0 60c48 0 87 39 87 87s-39 87-87 87-87-39-87-87 39-87 87-87"/></g><use xlink:href="#a" transform="rotate(-2.17 -55532.79 156275.84)"/><use xlink:href="#a" transform="rotate(2.18 459865.83 156275.82)"/></g><path fill="#171796" d="m683.87 118.58-.07.03-24-27.42-31.54 18.08-5.32 63.86a275 275 0 0 1 45.14 7.56z"/><path d="M634.48 122.52c1.1-.27 2.18-.32 3.23.32q.69.28 1.02.74.72-.57 1.49-1.03c.72-.53 1.45-1 2.25-1.27a9 9 0 0 1 3.39-1.02c1.2-.2 2.4-.21 3.6-.14q1.5.08 2.88.86l2.5 1.25q1.33.75 2.65 1.31c1.12.44 2.38.59 3.72.64.66.02 1.3.02 1.94-.15.5-.13.83.2.26.54-4.14 2.55-7.4.28-10.17-.73q1.53 1.04 2.67 2.12a14 14 0 0 0 4.32 3 10.5 10.5 0 0 0 6.35.91q.51-.1.51.16c0 .12-.03.37-.24.51a6 6 0 0 1-3.2.98c-2.13.14-4.42-.57-6.51-1.69-1.67-.9-2.8-2-4.14-2.98a9.4 9.4 0 0 0-3.71-1.78 7.4 7.4 0 0 0-3.65.1q.52.12.79.43c.57.34 1.3.48 2.37.6.55.07.38.45-.47.91a2.2 2.2 0 0 1-2.07.93c-1.22.81-1.65.32-2.06-.2q-.07.5-.3.97.1.26-.01.54.31.45.22.91.03.27.27.5.4.34.45.82c0 .22.13.4.3.55.25.2.5.39.75.7.73.26 1.08.83 1.2 1.56.55.18.78.58.9 1.06.31.13.6.3.77.57 1.13 0 2.25 0 3.29.12.97.1 1.76.7 2.47 1.5.48.07.97.1 1.47-.02.51-.22 1.05-.4 1.64-.45a9 9 0 0 1 2.88.1 3 3 0 0 1 1.53.93c.58.67 1.47.58 2.24.25a3.4 3.4 0 0 1 2.96.04q.67-.28 1.36-.21c.39-.42.8-.53 1.22-.54.7-.02 1.2.09 1.06.97a.8.8 0 0 1-.36.56c-.31.68-.92.88-1.69.82q-.12.7-.58 1.04c.35 1.09.02 1.52-.79 1.5-.17.32-.42.52-.85.46q-.47.55-1.09.64c.05.28.17.42.37.72.55.83-.28 1.17-1.03 1.18.2.55.22 1.1.15 1.64.77.47.87.96.16 1.44q.8 1.34-.65 2.06c-.02.5-.07 1.01-.4 1.3-.24.2-.57.23-.35.6.4.65.31 1.47-.27 1.5-.13-.02-.24 0-.25.2q0 .1-.17.2-1.06.56-1.96 1.3c-.09.06-.18.1-.27.02a12 12 0 0 1-2.15 2.9q-.21 1.08-1.22 1.46a.5.5 0 0 1-.4.4c.37.42.52.82.15 1.22-.45.49-1.03.97-1.62 1.12-1.26.32-2.04.26-2.55-.22-.44-.42-.27-.74.02-.88-.78.06-.93-.34-.91-.89.04-.27.13-.24.4-.23.43.01.8-.21 1.2-.34q.24-.4.6-.68c.15-.88.7-1.36 1.45-1.65.6-.23 1.19-.82 1.75-1.58l1.05-1.79a1.5 1.5 0 0 1-.32-.95q-.47-.28-.7-.64c-.54-.04-.77-.29-.85-.63q-.19.01-.4-.05c-.27.17-.54.32-.88.3q-.66.68-1.36 1.14c-.16.45-.49.63-.88.7-1.12.12-1.79 1.52-2.4 2.09q-.36.29-.52.9c-.05.73-.18 1.3-.58 1.32-.36-.02-.42-.05-.43-.1a2 2 0 0 0-.47.03c.3.33.35.75.07 1.12-.28.36-.68.47-1.06.5-.8.05-1.45-.02-2.04-.27-.58-.23-.64-.57-.63-.9-.4-.2-.5-.4-.45-.58.06-.25.29-.38.57-.3q.37-.18.75-.25a6.5 6.5 0 0 1 2.29-1.76q.35-.44.85-.76c.09-.7.55-1.25 1.11-1.77q.07-.38.28-.75c-.04-.16 0-.23 0-.37-.22-.42-.36-.93-.19-1.36-.06-.2-.09-.47-.06-.67-1.34.8-1.76.53-1.91-.12-.5.41-.95.6-1.28.01-.48.14-.96.3-1.44.11q-.44.2-.98.26-.21.42-.6.86-.03.9-.62 1.81-.32.97-.87 1.94.02.3-.13.62c.1.74-.15 1.1-.55 1.29q-.16.45-.53.9l-.03.3c.17.43.2.87-.25 1.3q-.55.36-1.12.66c-.45.22-.86.11-1.24-.02-.66-.24-.61-.47-.52-.7a.8.8 0 0 1-.66 0c-.16-.1-.26-.21-.42-.31-.14-.26-.19-.5.16-.68.43-.2.73-.33 1.07-.69.12-.26.27-.46.49-.52.2-.48.46-.81.8-.9.26-.6.53-1.27.85-1.84.12-.18.2-.36.15-.55-.01-.17 0-.32.14-.41.08-.07.21-.13.04-.22a1.7 1.7 0 0 1 .2-1.44c.35-.53.74-1.8.37-2.43a4 4 0 0 1-.09-1.08c-.12 0-.22.02-.35-.07-.28-.18-.52-.01-.73.3-.16.4-.32.75-.48.75-.14 1.03-.65 1.82-1.17 2.03-.12.47-.2.94-.13 1.41.05.51 0 .86-.24.92-.26.07-.5.22-.66.64q-.07.17-.09.42c.36.37.25.83-.1 1.18-.77.77-1.75.66-2.77.35-.75-.29-.93-.6-.85-.92-1.06-.09-.85-.9.03-1.14a4.3 4.3 0 0 0 2.32-1.72c.06-1.02.3-1.71.84-1.82.05-.63.25-1.2.51-1.72.28-.49.45-1.02.35-1.66q-.88-.55-.07-1.13.26-.15-.07-.32c-.35-.03-.3-.37-.28-.7q-.03-.24-.26-.25c-.79-.11-.6-.44-.26-.78.15-.16.24-.4.1-.5-.13-.07-.21-.34-.24-.58-.48-.36-.27-.74 0-1.1q-.4-.35-.44-.96c-.9-.04-1.23-.5-.74-1.16q.3-.42.79-.8c.2-.34.4-.67.3-1-.25-.66.57-1.16 1.27-1.67a1 1 0 0 1-.15-.51c-.4-.38-.3-.74.14-1.08q-.14-.26-.16-.52c-.99.2-.98-.4-.52-1.34-.57-.33-.41-.91.62-1.8q.03-.3.12-.47-.74.03-1.25.38c-.4.26-.79.22-1.18.06q-.2-.3-.52-.51a.8.8 0 0 1-.28-.79c-1.16.07-1.38-.8-.69-1.3q.62-.45.78-.98c.32-.8.98-1.34 1.63-1.9q0-.34.12-.69-.42-.3-.92-.35c-.12-.3-.34-.62-.72-.8-.21-.13-.28-.25-.15-.55-.62-.55-.46-.88-.3-1.2z"/><g fill="#f7db17"><path d="M655.55 152.43h-.22c-.3.31-.66.62-.99.88-.29-.33-.71.03-.3.23l-.21.15c-.14.36-.26.52-.66.58q-.1 0-.19.03a4 4 0 0 1 .1-.97q.03-.05-.04-.08c-.07-.03-.07.02-.08.05a6 6 0 0 0-.11 1.04c-1.02.32-1.6 1.38-2.3 2.13a2 2 0 0 0-.56 1c-.05.19-.08 1.1-.28 1.11h-.31q-.16-.25-.45 0a6 6 0 0 0-1.25.04c-.25.28.46.17.83.4q.27.16.18.6c-.35.82-2.28.56-2.92.22-.3-.16-.32-.34-.3-.6q.2 0 .4-.03.35-.04.69-.23c.06-.03.12-.07.05-.2s-.13-.09-.2-.05q-.28.15-.58.2-.3.03-.6.01h-.05c-.12-.06-.2-.14-.15-.2.04-.07.23 0 .26 0 .3-.13.56-.22.89-.28a7 7 0 0 1 2.31-1.79q.41-.5.95-.85c.13-.8.53-1.24 1.12-1.78.07-.33.15-.57.32-.87-.04-.18-.01-.3 0-.5-.23-.42-.36-.79-.18-1.27-.11-.34-.1-.58-.06-.9v-.18a9 9 0 0 1 1.06-.71q-.04.48.05 1-.16.17-.25.33a1 1 0 0 0-.1.35q-.02.05.07.06t.07-.06q0-.15.07-.29a2 2 0 0 1 .25-.33c.32 0 .62-.17.93-.42q.41-.34.82-.82l-.01 1.33q-.4.36-.68.88-.03.04.03.09.08.03.09-.03.25-.48.6-.81h.02q.07 0 .06-.07l.13-.1q.46-.35 1.02-.56-.1.6-.01 1.14a2 2 0 0 0 .67 1.13"/><path d="M636.2 141.16c.05-.1.18-.2.22-.2h.02q.21-.4.44-.73.3-.43.62-.75.03-.04.1 0c.04.05.01.07 0 .1a5 5 0 0 0-1.04 1.43q.06.1.04.22c.04.4.1.63.28.87l.06-.04q.11-.28.3-.49.23-.25.57-.44a2 2 0 0 0 .61-.8q0-.06.09-.03.07.03.03.08-.09.23-.25.44t-.4.42h-.02q-.31.18-.53.42-.16.18-.27.4c.1.07.14.26.05.38-.27.39-.59.61-.08.95a.8.8 0 0 0 .23.64c.12.12.1.54-.18.85-.26.26-.06.2.22.23l.06.02q.15-.3.35-.54.18-.24.4-.45.3-.3.47-.63.17-.3.19-.63-.02-.06.07-.06c.07 0 .06.04.06.07q-.02.33-.2.69-.18.34-.5.65a5 5 0 0 0-.72.95c.33.2.22.57.27.9q.1 0 .17.05 0-.02.02-.02l.2-.31.3-.49q.01-.06.09-.02.06.05.02.09l-.31.49-.2.3v.02c.2.17.21.47-.04.7-.5.37-.35.49.11.78.06.44.06.79-.03 1.16v.03l.03.37.03.37q.01.05-.06.07c-.07.02-.06-.03-.07-.06l-.03-.37v-.1l-.08.18c-.33.73-.68 1.32-.75 2.14-.8.19-.68.97-.72 1.66a5 5 0 0 1-2.37 1.87c-.19.06-.65.17-.7.41 0 .09.32.27.52.17.55-.54.83-.24.2.3q-.08.16.1.32c.57.52 2 .69 2.65.28.49-.3.74-.64.32-1.1.02-.65.28-1.29.97-1.47.08-.15.05-.42.02-.57-.07-.57.02-1.07.16-1.62q.02-.1.19-.15c.26-.06.76-.81.91-1.54l.1-.48q.07-.37.26-.15c.12-.16.12-.26.2-.44.26-.4.65-.7 1.1-.48a4 4 0 0 1-.08-2.33q.01-.12.14-.1l.38-.93.4-.93q0-.06.08-.03c.08.03.05.05.03.08l-.39.93-.39.92c.06.04.04.1.03.15q-.18.57-.13 1.17.04.68.3 1.2.02.04.02.1c.21.12.21.15.2.43q0 .32.08.71c.42.78-.02 2.1-.43 2.75q-.3.47-.17 1.04c.26.24.09.5-.14.67v.19q.03.37-.2.68c-.34.62-.6 1.29-.89 1.94-.5.14-.6.43-.8.9-.3.09-.33.17-.45.44-.34.34-.66.55-1.1.74-.35.17 0 .32.25.5.22.16.52-.2.71-.48.2-.3.41-.22.28.02-.15.27-.26.65-.27.84-.08.22.73.38.87.39.5.02 1.12-.46 1.5-.7.33-.34.28-.63.14-1.03v-.02q-.3 0-.6-.06a4 4 0 0 1-.7-.23q-.04 0-.03-.09.04-.07.09-.03.34.15.67.22.29.06.59.05l.03-.3q.38-.46.58-1.01c.54-.26.55-.53.47-1.11.12-.24.15-.38.14-.65q.54-.95.9-2c.44-.57.64-1.11.6-1.8q.04-.4.33-.4.21-.29.38-.64h.07v-.04q.06-.24.13-.41a1 1 0 0 1 .18-.28q.12-.3.09-.57a1.4 1.4 0 0 0-.2-.55l-.14-.24q-.04-.14.08-.27.03-.04.1 0 .05.06 0 .1-.08.06-.05.14t.12.18v.01q.18.3.22.62c.04.32 0 .42-.1.64l-.02.02a1 1 0 0 0-.16.25q-.07.16-.12.39v.02q.44-.01.86-.24l.02-.02q.23-.18.43-.53.17-.3.25-.72 0-.06.08-.05t.05.07q-.08.45-.26.76-.16.28-.34.46c.48.14.89 0 1.34-.14a6 6 0 0 1 .01-1.5 2 2 0 0 1 .39-.92c.02-.02.04-.05.09 0q.06.05.01.08-.25.3-.36.87-.1.53-.01 1.43h.02c.19.32.29.55.68.3q.22-.14.4-.31c.05-.05.04-.08.07-.12q.56-.6 1.12-1.08a8 8 0 0 1 1.12-.84q.03-.05.08.02c.05.07.01.07-.02.09q-.54.34-1.1.82-.48.42-.95.92.03.08.04.3c.03.44.1.7.73.46.35-.13.39-.14.71-.34q.25-.15.38-.2a10 10 0 0 1 1.21-.8q.05-.36.17-.69.3-.85.92-1.6l.02-.01q.5-.28.83-.65t.51-.82q0-.06.09-.03.07.03.03.08a3 3 0 0 1-1.39 1.53 5 5 0 0 0-.9 1.54l-.14.6q.03 0 .04.03.03.08-.03.09l-.02.01q-.06.48.03 1.01.4-.02.83-.4c.3-.23.6-.57.9-.9l.02-.03q.1-.37.3-.63.19-.27.5-.4.03-.05.08.03.02.08-.04.08-.26.12-.44.37t-.28.6l-.02 1.4.05-.04q.51-.4 1.16-.62c.04-.01.1.03.08.07-.06.42-.1.83-.03 1.21q.08.54.54.98a4 4 0 0 1 .59-.77l.01-.01q.18-.19.38-.34l.28-.27.28-.26q.03-.04.1 0c.07.04.02.07 0 .1l-.3.26-.28.26q-.18.14-.35.32l.02.36v.2c.28.07.44.07.72.07.09.55.14.63.61.64q0-.3.02-.57.03-.32.14-.61 0-.06.09-.04.07.03.03.08-.1.27-.13.58-.03.27-.02.56h.04c.19.4.41.59.82.76q.16-.27.25-.53.08-.3.07-.6-.02-.05.06-.06t.07.05q.01.33-.08.64c-.1.31-.17.43-.31.64q-.02.03-.05.03.02.33.14.57.08-.2.2-.37.14-.26.34-.46.02-.06.1 0c.04.04.01.07 0 .09q-.2.19-.33.43-.13.22-.23.46l.16.24c-.76 1.3-1.57 3.1-3.06 3.7-.78.3-1.11.7-1.27 1.52-.29.22-.5.45-.68.77-.5.17-.96.42-1.5.4 0 .35.11.5.46.5.68-.33.83-.4.89-.35.08.07-.1.55-.65.95q-.13.06-.04.17c.47.74 1.7.47 2.37.3a3 3 0 0 0 1.57-1.16c.1-.22-.12-.5-.32-.73-.95.14-.77-.77.04-.39.28-.08.32-.08.4-.39.72-.28 1.02-.59 1.19-1.36.73-.8 1.46-1.6 1.99-2.55.14-.18.23-.5.19-.65q.19-.25.25-.53.07-.3.07-.57-.01-.05.06-.07.09-.01.07.07 0 .3-.07.6l-.16.46c.05.12.08.2.18.17.63-.51 1.27-.87 1.96-1.3q.07-.41.52-.44.15.01.2-.14c.16-.4-.04-.67-.24-1-.18-.5.14-.62.46-.85.33-.25.3-.9.32-1.28l-.04-.19-.11-.4q-.03-.05.04-.08t.08.04q.08.21.12.41l.03.16c.32-.16.65-.35.78-.7.1-.4-.1-.76-.3-1.1l-.25.12-.5.2q-.03.04-.07-.03c-.04-.07 0-.08.03-.09l.86-.37q.22-.14.4-.33c.22-.33-.4-.63-.6-.76v-.03l-.92-.85q-.06-.02 0-.09c.05-.07.06-.02.08 0l.86.78a4 4 0 0 0-.1-1.42l-.16-.46-.03-.01a1.4 1.4 0 0 1-.57-.49 1.3 1.3 0 0 1-.2-.62q-.02-.05.07-.07.07 0 .07.07.01.3.17.55t.52.44c.26.13.8.07 1.11-.09.44-.24-.13-.74-.26-1.03-.1-.21-.12-.43-.16-.65l.11-.02-.17-.19-.23-.14c-.03-.01-.07-.02-.04-.08.02-.07.05-.05.08-.04q.15.05.28.16.12.12.23.26l.13-.02c.43-.09.66-.33.92-.64a5 5 0 0 0-.46-.48l-.54-.45c-.02-.02-.05-.04 0-.09s.06-.03.09 0l.54.45a5 5 0 0 1 .5.57c.4.03.46-.05.66-.4a2 2 0 0 0-.23-.51 3 3 0 0 0-.4-.48q-.04-.04 0-.1.06-.04.1 0 .23.24.4.5.17.27.25.55c.19 0 .39.01.54-.08.35-.2.06-.94-.03-1.23h.01l-.13-.1-.25-.15q-.05-.02-.02-.09.05-.06.1-.02l.23.16.18.1.08-.05c.25-.2.34-.47.42-.75.12-.43.14-.24.64-.31.54-.08.83-.14 1.14-.77.17-.08.25-.15.28-.36.06-.37.03-.56-.4-.6-.59-.04-.95.08-1.35.47l.16.24q.05.04-.02.1-.07.03-.09-.02l-.15-.23c-.54-.06-.97.03-1.47.22l-.15-.06q.16.2.25.4.13.3.13.55.01.06-.06.07c-.07 0-.06-.03-.07-.06q0-.23-.12-.5c-.12-.27-.2-.36-.37-.55q-.63-.24-1.2-.22l.45.44q.04.02 0 .09c-.05.05-.07.02-.1 0l-.5-.5-.03-.03q-.5.04-1.06.28-.37.16-.73.22.27.26.45.59.19.33.28.74c0 .04.02.07-.05.08s-.07-.02-.07-.05q-.09-.4-.27-.71c-.18-.31-.27-.4-.44-.57q-.04-.02-.03-.06-.33.06-.66 0l.27.44q.03.04-.03.09-.08.02-.09-.03l-.24-.51a2 2 0 0 1-.6-.24q.1.36.15.76.07.52.09 1.12.02.06-.07.07c-.09 0-.06-.04-.06-.07q-.02-.59-.08-1.1-.06-.48-.2-.9l-.26-.24a3 3 0 0 0-.7-.56 1.2 1.2 0 0 1-.27.91q-.02.06-.1.01-.04-.05 0-.09a1 1 0 0 0 .22-.9q-.61-.27-1.32-.32a7 7 0 0 1 .69 1.1q.26.23.34.53.06.3.07.63.02.05-.06.07c-.08.02-.07-.03-.07-.07q0-.3-.07-.6a1 1 0 0 0-.3-.47l-.02-.02a7 7 0 0 0-.74-1.17h-.01l-.47-.01.08.11q.09.15.1.3.01.06-.06.08c-.07.02-.06-.03-.07-.06l-.09-.26-.14-.17q-.48.02-.96.07a6.4 6.4 0 0 1 1.25 2.82q.03.06-.05.07t-.07-.05a6 6 0 0 0-1.28-2.83h-.05q-.38.04-.75.15a3 3 0 0 1 .57.47q.05.04-.01.1c-.06.06-.07.01-.1-.01l-.26-.26-.37-.26-.38.14-.21.08a6 6 0 0 1 1.3 1.32q.05.04-.02.09c-.07.05-.07 0-.09-.02a5 5 0 0 0-1.36-1.35 3 3 0 0 1-.8.06q.24.5.42 1 .18.54.23 1.1.01.05-.06.06-.09 0-.07-.05-.05-.55-.23-1.07-.17-.53-.44-1.04l-.5-.06a12 12 0 0 1 .45 2.08q.01.05-.05.07c-.07 0-.07-.02-.08-.06a12 12 0 0 0-.47-2.14c-.47-.5-.99-1-1.62-1.26a2.2 2.2 0 0 1 .47 1.4q.02.05-.07.06-.07 0-.06-.06a2 2 0 0 0-.6-1.5q-.2-.06-.44-.09-.62-.05-1.25-.08c.32.3.57.56.55.88q.02.06-.07.06c-.1 0-.06-.04-.06-.07.02-.3-.28-.57-.62-.88l-.75-.01q.2.21.35.42.2.27.26.56v.01q.04.44.23.77.19.3.56.49.06 0 .04.08c-.02.08-.06.05-.09.03q-.4-.18-.62-.53-.2-.34-.24-.82a2 2 0 0 0-.25-.52 3 3 0 0 0-.43-.5h-.83q.17.5.25 1.01.1.64.1 1.29.01.06-.06.07-.09-.01-.07-.07 0-.65-.1-1.26a6 6 0 0 0-.26-1.04h-.07c-.18-.3-.35-.42-.61-.54l-.02.08a1 1 0 0 1-.12.27q-.02.06-.09.02c-.07-.04-.04-.07-.02-.1a1 1 0 0 0 .12-.33l-.14-.06c-.13-.55-.26-.78-.7-.97q0 .23-.04.47-.05.3-.22.6-.02.06-.1.03-.06-.06-.01-.1.15-.26.2-.55.04-.26.04-.5l-.08-.03c-.12-.78-.26-1.21-1.07-1.52q.02.15 0 .3 0 .27-.1.54-.01.06-.09.04c-.08-.02-.04-.05-.03-.08q.09-.26.1-.5l-.02-.46c-.18-.2-.42-.38-.63-.59q0 .43-.12.86-.14.53-.48 1.04-.01.06-.09.02-.06-.04-.02-.09.33-.5.47-1 .14-.48.1-.97a1 1 0 0 1-.22-.32l-.02.04-.1.21q0 .06-.08.04-.07-.04-.04-.09l.1-.21.07-.17-.01-.11a1 1 0 0 0-.34-.6V131a2 2 0 0 1-.32.6q-.02.04-.09 0-.06-.05-.01-.09.13-.16.2-.33.07-.15.1-.29a1 1 0 0 1-.18-.3l-.13.2q-.09.13-.24.25-.03.04-.09 0c-.06-.05-.01-.08 0-.1q.14-.11.23-.22c.09-.11.1-.15.12-.22.04-.11.06-.04.02-.23.07-.36-.07-.58-.27-.89l.02-.02q-.18 0-.4.1-.26.13-.57.33-.03.05-.09-.02-.03-.07.02-.08.31-.22.6-.34.26-.13.49-.12.05-.13.01-.28-.88.31-1.43.34-.59.03-.95-.14-.06-.01-.03-.09t.08-.03q.35.16.9.13.54-.02 1.4-.34v-.02q.16-.36.25-.7-.31.07-.63.05h-.04q-.05.02-.06-.07 0-.07.06-.06h.04q.33.01.66-.06l.04-.23c.03-.26.33-.32.55-.1.17.2.34.4.51.48.36.17.76.02 1.04-.21l-.26-.09q-.06 0-.04-.08.03-.07.08-.04l.34.1.07-.07c.74.06 1.22-.1 1.69-.57q-.63.02-1.12-.03a3 3 0 0 1-.86-.22q-.06-.02-.03-.09c.03-.06.06-.04.08-.03q.31.15.83.2.51.07 1.22.04l.13-.15q.31-.1.55-.34a7 7 0 0 1-2.44-.66q-.32-.32-.84-.43a3 3 0 0 0-1.68.34l-.37-.36c-.2-.02-.38-.13-.57-.15-.27-.03-.54.02-.8 0q-.05 0-.05-.08c0-.07.03-.06.07-.06.26.03.53-.02.79.01.25.03.5.14.74.17a6 6 0 0 1 2.14-.46 7 7 0 0 1 2.13-.3c-.08-.09-.04-.13 0-.17q.58-.6.36-1.1-.21-.52-.98-.96c-.52.06-1.03-.09-1.6-.02q-.51.05-1.02.22.42.15.73.5.37.45.52 1.2c.01.06.02.13-.1.15s-.13-.04-.14-.1a2.3 2.3 0 0 0-.47-1.09c-.23-.33-.77-.46-.94-.53q-.85.08-1.59.24-.55.14-.92.41.56-.12 1.06.1.48.23.74.92c.02.06.04.11-.07.15s-.14-.01-.16-.07q-.22-.6-.61-.78c-.52-.25-1.57-.03-2.02.3q-.39.3-.78.74c-.05.06-.1.1-.2.01-.12-.1-.07-.15-.02-.2q.4-.46.82-.78.42-.3.85-.42.46-.47 1.24-.65.76-.19 1.63-.25a1.3 1.3 0 0 0-.63-.66 2 2 0 0 0-.9-.1c-.7.24-1.3.6-1.9 1.02h.16c.18.02.33 0 .48.05.06.02.11.04.07.15-.05.14-.43.06-.56.05q-.23-.01-.5.05h-.09c-.72.45-1.23.9-1.83 1.4l-.1.04q-.8-.03-1.12.22c-.2.15-.21.39-.18.7-.09.3-.2.63-.23.98-.63.54-1.32 1.08-1.65 1.86q-.11.35-.34.6.2.04.31.13l.08.08.07-.4q.06-.28.2-.49c.01-.02.03-.05.08-.01q.07.04.02.09-.11.18-.18.45-.07.3-.08.63c0 .07-.12.07-.13 0a.4.4 0 0 0-.14-.24 1 1 0 0 0-.34-.11q-.2.21-.43.4-.21.13-.27.37c-.02.28.33.33.66.36.76.04.16.47.57.85q.31.2.53.5c.29.1.47.08.66-.01.04-.52 0-.78.22-.78h.02a1 1 0 0 1 .23-.48c.02-.02.04-.05.1 0s.02.06 0 .08a1 1 0 0 0-.2.47q.04.1.02.5a3 3 0 0 1 1.26-.28c.82-.96 1.17-.72.45-.02l-.11.22c-.13.24-.2.42-.23.75-.21.18-1.25 1.03-.86 1.34.27-.03.44-.02.33.18-.12.27-.5.83-.38 1.14.05.1.21.1.38.06l.03-.03q.41-.33.82-.77.4-.42.7-1c.04-.04.06-.1.14-.08a11 11 0 0 1 .65-1.8q.05-.08.11-.02.17.25.33.36.15.1.3.1c.14 0 .19-.03.28-.1q.17-.1.33-.33 0-.06.09-.02c.09.04.03.07.01.1q-.17.24-.35.37c-.18.13-.24.12-.37.12a.6.6 0 0 1-.36-.13q-.15-.1-.3-.3a15 15 0 0 0-.6 1.7c.06.06.03.12 0 .17q-.32.6-.75 1.05a7 7 0 0 1-.7.67q.05.32.2.64.67-.58 1.23-1.18.54-.6.94-1.26 0-.06.09-.02c.09.04.03.06.02.08q-.2.34-.44.67.03.06-.02.08c-.04.04-.07.2-.08.39-.02.27 0 .6.03.84q.01.06-.06.08c-.07.02-.07-.03-.07-.06-.04-.25-.05-.6-.04-.87l.02-.2-.3.35q-.56.62-1.25 1.2l-.02.01.05.07c-.4.3-.72.4-.28.78l.44-.32.48-.34q.04-.05.09.01c.05.06.01.07-.01.1l-.48.33-.46.33q0 .25.11.46l.1-.01 1-.73q.03-.04.09.02c.06.06 0 .07-.02.1l-.96.7-.12.14c-.32.23-1.46.94-1.34 1.42q.4-.1.8-.3t.79-.58q.02-.04.09 0 .04.06 0 .1a3 3 0 0 1-.81.6v.14l-.01.13q.02.06-.07.06c-.1 0-.07-.03-.07-.06l.01-.14v-.07q-.34.15-.7.25c.1.46-.14.85-.39 1.25-.14.11-1.27 1.03-.8 1.3q.2.1.41.11z"/><path d="M636.72 125.14a3 3 0 0 0-.84-.38 2 2 0 0 0-.63-.7c-.22-.14-.22-.13-.14-.29q.36-.05.36-.16.2 0 .33.05.17.06.26.18.01.06.09.01.06-.05 0-.1a1 1 0 0 0-.3-.21 1 1 0 0 0-.47-.06h-.04a1 1 0 0 0-.41-.06c-.17-.16-.31-.35-.24-.58l.04.02q.2.05.36.12t.25.17c.02.02.04.05.09 0s.03-.07 0-.09a1 1 0 0 0-.28-.2l-.29-.1a3.6 3.6 0 0 1 2.73.33c.46.2.67.41.92.75l-.25.2q-.86-.02-1.25.28c-.24.17-.29.5-.3.81z"/></g><path d="M656.15 152.19c-.2.12-.35.2-.55.23l.02-.02q.2-.36.44-.64l.07-.07v.23zm2.45 5.24q-.2.3-.47.54-.27.23-.6.45-.04.05-.1-.02c-.05-.07 0-.07.03-.09q.3-.2.58-.44.26-.22.45-.51 0-.06.09-.02.05.05.02.1m1.62-1.94-.25.38q-.01.05-.1.01-.05-.05 0-.08.1-.2.24-.38 0-.05.09-.02.05.05.02.1zm-.89-.12q-.05.28-.22.52c-.17.24-.3.31-.55.43q-.04.03-.09-.04c-.05-.07 0-.07.04-.08q.34-.16.5-.38.14-.23.2-.48-.01-.07.08-.05c.09.02.05.04.04.08m1.59-1.94a1 1 0 0 0-.3.5c0 .02-.02.06-.08.03s-.05-.05-.04-.08a1.4 1.4 0 0 1 .33-.54q.02-.05.09 0 .04.06 0 .1zm1.3.13q-.08.28-.18.55-.1.29-.26.56 0 .06-.09.03c-.09-.03-.04-.07-.02-.1q.15-.26.25-.53l.17-.55q0-.06.08-.04c.08.02.06.04.05.08m-.59-7.6c.4.6.5 1.2.5 1.82l.16-.67.01-.02q.25-.36.33-.7c.08-.35.05-.48.01-.71q-.02-.06.06-.08.08 0 .07.06a2 2 0 0 1-.35 1.5q-.15.62-.27 1.24l-.01.08c-.01.06-.13.05-.13-.01v-.14c.01-.78.02-1.55-.48-2.29q-.05-.03.02-.09.07-.03.09.02zm-.99 1.27-.01.15-.01.15q.01.07-.07.06c-.08 0-.07-.04-.06-.07v-.15l.02-.15q-.02-.05.07-.06c.1 0 .07.04.06.07m-.27 1.73a8 8 0 0 1 .3 1.72l.1-.13q.15-.2.41-.34.04-.05.1.02c.05.07 0 .07-.03.09q-.24.14-.38.32a1 1 0 0 0-.19.4c0 .06-.13.05-.13-.01a6 6 0 0 0-.3-2.03q-.03-.05.04-.08.09-.03.08.04m1.37.61q.1.4.1.77s0 .49-.02.72q.02.06-.07.06c-.1 0-.06-.04-.06-.08a4 4 0 0 0-.08-1.44q-.02-.05.05-.08.1 0 .08.05m1.18-.21q.08.37.06.7-.01.34-.15.67-.12.36-.05.73t.25.75q.04.03-.03.08c-.07.05-.08 0-.09-.03a3 3 0 0 1-.26-.78q-.07-.4.05-.8.13-.3.14-.62.03-.33-.05-.68-.02-.05.05-.07c.07-.02.07.02.08.05m.57-1.96-.1.37-.08.37q0 .06-.08.05c-.08-.01-.06-.05-.05-.08l.1-.37q.03-.19.09-.37-.01-.05.08-.05.07.03.04.08m-.59-3.25.11.34c0 .03.02.06-.04.08q-.1.02-.08-.04l-.1-.34q-.04-.05.03-.08c.07-.03.07.01.08.04m.3-2.46v.97a1 1 0 0 0-.3.47q-.08.3 0 .73.01.06-.06.08-.09.01-.08-.05-.07-.46.02-.79.08-.33.33-.54l-.03-.41v-.46q-.01-.06.06-.07.09.01.07.07zm-2.44-.86q.57.37.93.85.34.48.34 1.15-.01.07-.1.05l-.64-.27q.22 1.37-.09 2.22a2 2 0 0 1-1.17 1.23.06.06 0 0 1-.09-.08 5 5 0 0 0 .16-2.1q-.02-.05.05-.07c.07-.01.07.02.08.05a4.4 4.4 0 0 1-.12 2.02q.69-.33.97-1.1.3-.83.07-2.27 0-.09.09-.07l.66.29q-.02-.56-.32-.98a3 3 0 0 0-.9-.81q-.05-.02-.02-.1.06-.06.1-.01m6.41-1.26-.05.12-.06.13q0 .06-.08.04c-.08-.02-.05-.06-.03-.09l.05-.12.05-.13q0-.06.08-.04c.08.02.05.06.04.09m-1.51-.04q.2.08.3.2.14.13.2.28.05.04-.02.09-.07.03-.09-.03-.06-.13-.17-.24a1 1 0 0 0-.27-.17q-.06-.01-.03-.09c.03-.08.05-.05.08-.03zm-2.24.65q.24.27.33.63.07.35.03.77.02.06-.07.06c-.09 0-.06-.04-.05-.07a2 2 0 0 0-.04-.73 1.3 1.3 0 0 0-.3-.57c-.01-.03-.04-.05.01-.1.05-.04.07-.01.1 0zm-7.57.73-.02.25-.03.25q.02.07-.07.06c-.09 0-.06-.03-.05-.07l.02-.25q0-.13.03-.26-.02-.05.07-.06c.09 0 .06.04.06.08zm1.41-.75.1.37.04.1c0 .04.02.07-.04.09s-.08-.01-.08-.05l-.04-.1-.1-.37q-.04-.05.04-.08c.08-.03.07.01.08.04m2.88 1.93.02.17v.15q.02.07-.07.06c-.09 0-.06-.04-.06-.07v-.14l-.02-.13q-.03-.05.04-.08.09-.03.08.05zm.99-2.18q.09.1.12.2a.3.3 0 0 1-.03.2q-.01.06-.1.03-.05-.04-.02-.09.03-.06.02-.12-.02-.08-.08-.14-.06-.02 0-.09.06-.05.09 0zm-6.87.34q0 .23.07.44t.24.4q.22.24.27.5t.06.5q.02.06-.07.07c-.09.01-.06-.03-.06-.06q-.01-.24-.05-.48-.05-.23-.24-.45a1.3 1.3 0 0 1-.35-.92q-.02-.06.06-.07c.08 0 .07.03.07.07m2.78 1.88q.23.42.27.85.05.42-.03.87-.08.52.2 1 .28.45.81.84a4 4 0 0 1-.16-1.13q.01-.64.45-1.22.19-.25.27-.52.09-.26.12-.52-.02-.05.07-.06c.07.01.06.04.06.08q-.04.27-.12.55c-.08.28-.16.37-.3.54q-.4.56-.42 1.16t.2 1.26c.03.05-.04.1-.09.07q-.68-.45-1-.99-.3-.51-.22-1.08.07-.44.03-.84c-.04-.4-.11-.53-.26-.8-.01-.03-.03-.06.03-.09q.08-.03.09.03m-1.12 1.7q0 .47-.24.93-.18.36-.47.72l.3-.12a3 3 0 0 0 .87-.62q.18-.19.37-.45.02-.05.09-.01c.07.04.03.06.01.1a5 5 0 0 1-.71.75l.08.43q.03.05-.05.07-.08.01-.07-.05l-.05-.23-.03-.14q-.23.16-.46.27-.27.12-.53.2c-.06.03-.11-.05-.07-.1q.38-.45.6-.88.23-.44.23-.87-.02-.05.07-.06c.09-.01.06.03.06.06m-1.36-.11v.3q.01.05-.06.06-.09 0-.07-.06v-.3q-.02-.05.07-.06c.09-.01.06.03.06.06"/><path d="M653.7 142.07q.27.65.17 1.22t-.52 1.06v.01q-.4.35-.6.8-.14.29-.23.64.1-.16.23-.28.25-.26.64-.38a6 6 0 0 0 1.44-1.13q.03-.06.1 0c.06.05.02.06 0 .08a5 5 0 0 1-1.49 1.17h-.01q-.36.11-.59.35c-.23.24-.28.35-.4.55-.03.06-.13.02-.12-.04q.09-.55.31-1.03c.22-.48.35-.6.62-.82q.4-.48.49-1a1.7 1.7 0 0 0-.15-1.16c-.01-.02-.03-.05.03-.08q.08-.02.09.03zm2.77 4.43c-.04.12.05.23.22.45l.12.16q.33.47.33 1.03-.02.55-.14 1.1c0 .07-.12.06-.12 0q-.1-.6-.49-1.07-.4-.47-.98-.87-.06-.01-.02-.1.04-.05.09 0 .61.38 1.01.89.31.37.44.82.08-.4.08-.76 0-.53-.3-.96l-.12-.15c-.2-.27-.3-.4-.24-.58.02-.03.02-.06.09-.04s.05.05.04.08zm1.18-.08.15.16.14.15q.06.04 0 .1c-.06.05-.07.02-.1 0l-.14-.16-.14-.16c-.02-.02-.05-.04 0-.09s.07-.02.1 0m1.44.47-.27.87-.28.87q.01.06-.08.04-.07-.03-.04-.08l.27-.87.28-.87q-.01-.06.08-.04.07.03.04.08m.81 4.85a.3.3 0 0 0 0 .21q.04.05-.03.09-.08.02-.09-.04a.4.4 0 0 1 0-.31q0-.06.09-.04.07.03.03.08zm-.85-1.43-.12.46-.12.46q0 .06-.08.05-.08-.03-.05-.08l.12-.46.12-.46q-.01-.06.08-.05.07.03.05.08m-1.24-.01.11.12q.04.02 0 .1-.07.04-.1 0l-.1-.12q-.06-.02 0-.1.06-.04.09 0m-1.46-.69-.09.26-.1.26q.01.06-.07.04-.07-.05-.04-.09l.09-.26.1-.25q-.01-.07.07-.04c.08.03.05.05.05.08zm-2.08 2.2a1 1 0 0 0-.17.28q-.05.15-.08.31.01.07-.07.06c-.07-.01-.06-.04-.06-.08l.09-.33q.05-.18.2-.32.02-.06.09 0c.07.05.02.06 0 .09zm-5.96 5.84-.13.2q-.07.1-.2.2-.03.03-.09-.02-.04-.06.01-.1a1 1 0 0 0 .29-.33q0-.06.09-.04.06.05.03.09m.93-.49a.4.4 0 0 1-.12.16l-.2.12q-.06.03-.09-.04t.04-.08q.1-.04.16-.1l.1-.11q0-.06.08-.04c.08.02.05.06.03.09m1.25-.76-.08.1-.14.11q-.03.05-.09-.02c-.06-.07 0-.07.03-.09l.17-.16q.01-.06.08-.02c.06.03.04.06.03.09zm1.86-4.85q-.09.27-.12.52c-.03.25 0 .35.03.52q.02.05-.05.07c-.07.02-.07-.02-.08-.05q-.06-.28-.03-.55c.03-.27.06-.37.12-.55.02-.03.02-.06.09-.04s.05.05.04.08m1.26-12.89q0 .22-.11.43a2 2 0 0 1-.3.42c-.01.02-.04.05-.08 0s-.03-.06 0-.09q.17-.2.26-.39.1-.19.1-.37-.02-.06.07-.07c.1 0 .06.04.06.07m-1.29-1.14q.16.3.22.59.06.3.03.59.01.05-.06.06-.09 0-.07-.07.01-.28-.03-.55-.05-.28-.2-.56-.05-.03.02-.09c.07-.06.07 0 .09.03m-1.72 2.12q-.35-.25-.5-.52a1 1 0 0 1-.12-.54q-.01-.05.07-.06c.07.02.06.05.06.08q-.05.22.1.46.14.24.47.48.05.02.01.1c-.04.07-.06.03-.09 0m1.9 3.23v.28q.01.06-.06.07-.09-.01-.07-.07v-.28q-.02-.06.07-.07c.09 0 .06.04.06.07m-2.42-2.44q.55.55.73 1.28.1.45.11.94h.02q.25-.09.4-.46a3 3 0 0 0 .16-1.11q.2-.33.28-.67c.08-.34.08-.45.1-.68 0-.06.08-.08.12-.03q.34.46.57.99c.23.53.25.72.29 1.12q.02.05-.06.07c-.08.02-.07-.03-.07-.06a4 4 0 0 0-.28-1.08 5 5 0 0 0-.45-.82q-.03.26-.1.52-.07.34-.27.7-.02.7-.17 1.1-.15.43-.47.54h-.06l-.02.49q.01.05-.08.06c-.09 0-.06-.04-.05-.07q.07-.82-.09-1.52a2.5 2.5 0 0 0-.7-1.22q-.05-.02 0-.09c.05-.07.07-.02.1 0zm1.41 6.07-.07.52-.08.5q.01.07-.08.06t-.05-.07l.08-.51.08-.51q-.01-.07.07-.06c.07.02.06.04.06.08m-2.73 1.16.07.38c0 .04.01.07-.06.08q-.08 0-.07-.06l-.07-.38c0-.04-.02-.07.05-.08q.08 0 .07.06zm2.36-3.14a3 3 0 0 1-.63 1.44q-.35.4-.39.8c-.04.4 0 .56.08.86q.03.05-.05.08-.08 0-.08-.05-.13-.45-.08-.9.04-.46.42-.87a2.6 2.6 0 0 0 .6-1.37q-.02-.07.07-.06.08.02.05.07zm-.62-.92q.06.37-.1.75-.16.36-.48.72-.33.3-.5.6-.18.33-.32.67 0 .06-.08.03t-.04-.08q.14-.35.32-.68c.18-.33.3-.43.53-.63q.3-.35.45-.68t.1-.67q-.03-.05.04-.08.1 0 .08.06zm-3.02 1.43q.1.75-.18 1.3-.3.56-.84.98-.03.05-.09-.01t.01-.1q.53-.4.8-.93c.27-.53.25-.75.18-1.22q-.01-.05.06-.08c.07-.03.07.03.07.06zm-3.84 2.13.23.48c.01.03.03.06-.03.09q-.07.02-.09-.03l-.11-.25-.11-.23q-.04-.05.03-.08t.08.03zm-1.52.03q0 .45.09.87.1.4.39.8v.01q.14.3.2.6l.05.45q.27-.3.43-.61.18-.37.19-.76-.01-.06.06-.06.09 0 .06.06 0 .42-.2.81-.18.39-.55.75c-.04.04-.11.01-.11-.04q-.01-.3-.06-.58a2 2 0 0 0-.18-.55q-.3-.41-.4-.85c-.1-.44-.1-.6-.1-.9q-.01-.05.06-.06.09 0 .07.06m.2 5.21a3 3 0 0 1 .23-.95q0-.06.08-.04.07.04.04.08a3 3 0 0 0-.22.92q.02.05-.07.06-.07-.01-.06-.07m-.17 1.46.08-.58q-.02-.07.07-.06c.09.01.06.04.06.08l-.08.57q.01.07-.08.06c-.09-.01-.06-.04-.05-.07m-1 2.43q.14-.15.27-.33l.25-.42q.02-.05.1-.02.06.05.02.09a5 5 0 0 1-.55.77q-.03.04-.1 0c-.07-.04-.02-.07 0-.1zm-1.44-8.16v.24q.02.05-.07.06c-.09.01-.07-.03-.07-.06v-.24q-.02-.06.07-.07c.09 0 .07.03.07.07m-2.45 5.62v-.18l-.02-.18q-.01-.06.06-.07.09 0 .07.06l.01.18.01.18q.01.05-.06.07c-.07.02-.07-.03-.07-.06m6.13-10c-.12.43-.22.88-.21 1.26q-.02.58.38.85c.3.2.44.5.57.8l.03.05a3 3 0 0 0 .08-1q-.02-.05.05-.07.08 0 .07.05.04.27.01.58-.03.34-.14.64c-.01.05-.1.06-.11 0l-.1-.2c-.12-.28-.25-.57-.53-.75q-.44-.32-.44-.95.02-.62.22-1.3 0-.06.08-.04c.08.02.05.04.04.08m-.43-1.64q.06.5-.02.95a5 5 0 0 1-.3.96 3 3 0 0 0 .12 2.49q.04.04-.02.09-.08.02-.1-.03a3.2 3.2 0 0 1-.11-2.6q.2-.49.28-.93t.02-.91q-.01-.05.06-.08.08 0 .07.06m-2.84 4.05q-.14.3-.08.59.06.3.25.6.03.04-.02.09-.08.03-.1-.02a2 2 0 0 1-.25-.65 1 1 0 0 1 .08-.66q.01-.06.09-.03c.08.03.04.05.03.08m-1.24-.44q.03.17.01.39-.01.17-.09.33a.5.5 0 0 0-.05.34 1 1 0 0 0 .17.35q.04.03-.02.09c-.06.06-.07 0-.1-.02q-.13-.2-.18-.4a.6.6 0 0 1 .06-.41 1 1 0 0 0 .08-.3q.01-.18-.01-.35-.02-.05.05-.07c.07-.01.07.02.08.05m7.25-10.75a3 3 0 0 0 .4 1.83c.01.03.03.06-.03.1s-.07 0-.09-.03q-.25-.43-.36-.9c-.1-.48-.09-.66-.04-1.01q-.02-.07.07-.06.08.01.05.07m-.91.88a5 5 0 0 1 .64 2.14q.02.06-.06.07c-.08.01-.07-.03-.07-.06a5 5 0 0 0-.62-2.09q-.03-.04.02-.08c.05-.04.08 0 .1.02m-4.51.14a3 3 0 0 0-.67 1.56q-.03.63.26 1.12v.01a3 3 0 0 1-.04 2.06q0 .06-.08.03t-.04-.08q.18-.49.2-.98 0-.49-.16-.98c-.18-.35-.3-.74-.26-1.2s.23-.98.68-1.62c.02-.02.04-.05.1-.01q.06.04 0 .09zm4.2-1.78q.06.28-.07.57-.1.26-.4.5t-.38.6q-.08.38.02.88.02.05-.05.07-.1 0-.08-.05a2 2 0 0 1-.02-.93q.09-.4.42-.68.27-.21.37-.44a1 1 0 0 0 .06-.5q-.02-.05.05-.07.08 0 .08.05m-4.45.38q.13.4 0 .81-.1.4-.47.79H640q-.34.3-.47.73t-.14.92q.02.05-.07.06c-.09 0-.06-.04-.06-.07q.02-.5.15-.95c.13-.45.25-.57.5-.78q.35-.37.45-.73.1-.38 0-.74-.04-.06.03-.08.09-.03.08.04zm2.54.13v.3q.02.12.11.26.05.03-.01.09-.08.03-.1-.02a1 1 0 0 1-.13-.32 1 1 0 0 1 0-.32q-.01-.07.08-.06c.09 0 .06.04.05.07m-.12-.67q-.34.14-.54.5-.19.36-.22.9l.02.05q.2.25.27.6.09.37.07.82.02.06-.07.07c-.09 0-.06-.04-.06-.07q.01-.44-.07-.8-.07-.3-.22-.52-.72.67-.74 1.5-.02.84.63 1.83.05.04-.02.1c-.07.05-.07 0-.08-.03a3.4 3.4 0 0 1-.66-1.91q.02-.87.8-1.6.03-.6.24-1t.6-.56c.03 0 .06-.02.1.04q0 .08-.04.08zm-.72-.93-.02.13c-.03.31-.06.66-.3.87q-.17.17-.27.4-.09.22-.1.48.01.06-.08.06-.08-.01-.05-.08.02-.27.11-.51.1-.25.31-.45c.2-.18.23-.5.26-.78l.01-.14q-.01-.07.08-.06c.09.01.06.04.05.08m7.08 7.55q.11.24.18.49c.07.25.06.34.05.52q.02.06-.07.07c-.09 0-.06-.04-.06-.07a2 2 0 0 0-.22-.96q-.04-.05.03-.08c.07-.03.07 0 .09.03m.02 2.32q.08.4 0 .8c-.07.4-.14.56-.29.84l-.3.7q0 .06-.08.04c-.08-.02-.05-.06-.04-.09l.3-.7q.22-.41.3-.8a2 2 0 0 0-.02-.77q-.02-.05.05-.07t.08.05m-1.48-2.16q.64.7.83 1.49.2.78-.04 1.65 0 .06-.08.04c-.08-.02-.05-.05-.04-.08a3 3 0 0 0-.77-3.02q-.05-.04.01-.1c.06-.05.07-.01.1.01zm-.13 2.6a7 7 0 0 1-1.08 1.65 3 3 0 0 0-.68 1.18c-.01.06-.13.04-.12-.03q.01-.3-.06-.58c-.07-.28-.15-.4-.27-.6v.01a1.7 1.7 0 0 1-.32-1.05 2 2 0 0 1 .41-1.04 3 3 0 0 0 .43-1.47q-.02-.05.07-.06c.1-.01.06.03.06.07a3 3 0 0 1-.45 1.52v.01q-.35.5-.39.98-.02.48.3.97a3 3 0 0 1 .34.92 3 3 0 0 1 .59-.9 6 6 0 0 0 1.06-1.63q.01-.06.09-.03c.08.03.04.06.03.08zm-3.86-1.24q-.01.48.08.9.1.43.32.8.04.03-.02.08-.07.04-.09-.02a3 3 0 0 1-.33-.82q-.1-.45-.1-.94-.01-.06.07-.06t.07.06m-2.2 1.18v.38q.02.05-.07.06c-.09.01-.07-.03-.07-.06v-.38q-.02-.06.07-.07c.09 0 .07.03.07.07m.72-2.01q.02.33-.09.64-.1.3-.34.6-.02.04-.1 0-.04-.06 0-.1a1.6 1.6 0 0 0 .4-1.14q-.02-.06.07-.07c.09-.01.06.03.06.06zm-1.98 3.9a4 4 0 0 1-.35-2.16c.09-.58.36-1.02.7-1.37q.37-.34.58-.78c.2-.44.2-.65.14-1.13q-.01-.05.06-.07c.07-.02.07.03.07.06q.07.74-.16 1.2-.21.45-.6.8c-.32.35-.57.77-.66 1.31a4 4 0 0 0 .35 2.1c0 .02.02.05-.04.08s-.07 0-.08-.04zm-1.14-1.46a1 1 0 0 0-.06.43q.03.23.16.44.04.03-.02.09-.08.03-.09-.02-.15-.24-.17-.5a1 1 0 0 1 .06-.48q0-.06.08-.04c.07.03.05.06.04.08m5.62-3.99q.35.5.4 1.03c.05.53-.06.72-.26 1.1q-.01.06-.08.03c-.06-.03-.04-.06-.03-.09q.28-.54.24-1.03a2 2 0 0 0-.37-.96q-.05-.03.01-.1c.06-.06.07 0 .1.02zm1.76-1.37a3 3 0 0 1 .09 2.09c-.02.06-.13.04-.13-.02q-.02-.5-.2-.88a1.5 1.5 0 0 0-.54-.67c-.02-.02-.05-.04 0-.09s.06-.03.08 0a2 2 0 0 1 .75 1.25 3 3 0 0 0-.17-1.63c-.01-.03-.03-.06.03-.1q.08 0 .09.04zm1.04-1.43q.35.34.5.9.14.55.11 1.3a3 3 0 0 0 0 .6q.02.3.16.52.05.04-.01.1-.08.03-.1-.03a1.3 1.3 0 0 1-.19-.57q-.02-.3.01-.63a4 4 0 0 0-.11-1.25q-.15-.52-.46-.85c-.02-.02-.05-.04 0-.09s.07-.02.1 0zm-2.77-.27q-.22.28-.28.64t0 .8q.02.05-.05.07-.08 0-.08-.05-.07-.46 0-.85.07-.4.31-.7c.02-.02.04-.05.1 0s.02.06 0 .09m-5.42 3.65q-.04.8-.43 1.34-.39.53-1 .88-.04.05-.1-.03c-.05-.08 0-.07.03-.08q.6-.34.96-.85.37-.5.41-1.27-.02-.05.07-.06c.1 0 .06.04.06.07m-.14-1.87q.04.3-.03.6-.06.28-.22.58 0 .06-.08.03-.07-.04-.03-.09.15-.28.2-.55c.06-.27.06-.36.04-.55q-.02-.05.05-.07.09-.01.08.06zm3.67-.27v.19l.07.95v.09q.01.05-.06.07h-.02q0 .02-.05.02-.09-.01-.07-.07v-1.05l-.01-.26q-.02-.06.05-.07.09 0 .08.06v.02zm.89-1.63q-.38.47-.37.92c0 .45.08.6.22.9q.44.74.38 1.47c-.03.5-.2.98-.41 1.47q-.01.06-.09.03c-.08-.03-.04-.05-.03-.08q.34-.71.4-1.43.06-.7-.36-1.4v-.01a2 2 0 0 1-.24-.96q-.01-.5.4-1c.02-.02.04-.05.09 0s.03.06 0 .08zm-5.7-10.16q.63-.5 1.3-.56.64-.07 1.38.28h.49l.5-.01q.05-.02.06.06c.01.08-.03.07-.06.07h-.95l-.01.02q-.79.68-1.38.8-.61.13-1.09-.24c-.03-.02-.07-.04-.02-.11s.08-.04.11-.02q.43.3.97.21a3 3 0 0 0 1.2-.68 2.4 2.4 0 0 0-1.18-.23q-.61.07-1.22.53-.04.06-.1-.01c-.06-.07-.03-.09 0-.11"/><path d="M639.45 126.22c.18 0 .32.15.32.33 0 .17-.14.32-.32.32s-.33-.14-.33-.32.15-.33.33-.33m2.24 1.97a3 3 0 0 0 .93-.8q.02-.05.1 0c.07.04.03.06 0 .09a3 3 0 0 1-.97.83c-.03.01-.06.03-.08-.03q-.03-.07.02-.09m4.62-1.91a1 1 0 0 1 .36 0q.18.05.35.2.06.01.01.08c-.05.07-.06.03-.09.01q-.15-.12-.3-.16c-.15-.04-.2-.03-.3 0-.03 0-.06.01-.07-.05q-.02-.08.04-.08m-2.64.1q.15-.35.47-.53.33-.17.82-.13.05-.02.06.07c0 .1-.04.06-.08.06q-.45-.04-.74.12a1 1 0 0 0-.41.47q-.01.06-.09.03c-.08-.03-.05-.06-.03-.09m.3.44a.5.5 0 0 1 .14-.3 1 1 0 0 1 .34-.19q.05-.02.08.05c.03.07-.02.07-.04.08a1 1 0 0 0-.28.15.4.4 0 0 0-.1.23q0 .05-.08.05c-.08 0-.06-.04-.05-.07zm-4.4 1.46-.19.35q-.06.19-.05.42.01.05-.06.06-.09 0-.07-.05-.02-.27.06-.47t.2-.38q.01-.06.08-.02c.06.03.04.06.03.09m1.26.56v.2q.02.06-.07.07c-.09 0-.06-.04-.06-.07v-.2q-.01-.05.06-.06.09 0 .07.06m-.82-1.41q.2.08.39.08.2 0 .4-.05.03-.02.07.05c.04.07-.02.07-.05.08q-.2.05-.43.05-.2 0-.43-.08-.06-.01-.04-.09c.03-.06.06-.04.09-.04m.81-2.36a.4.4 0 0 0-.26.08.5.5 0 0 0-.16.24q0 .06-.08.04c-.08-.02-.06-.05-.05-.08q.05-.17.21-.3.13-.11.34-.1.07-.02.07.06t-.07.06m-1.32.13-.22.14a.3.3 0 0 0-.1.14q-.01.06-.1.04c-.08-.02-.04-.05-.03-.08l.14-.2q.1-.09.27-.16.05-.03.08.04t-.03.08m-.81.03q-.12.08-.2.18c-.08.1-.1.14-.14.23q0 .06-.08.04-.07-.05-.04-.09.06-.14.16-.26c.1-.12.14-.15.23-.21q.03-.05.09.01c.06.06.01.07-.02.1m-1.04.83a2 2 0 0 0-.47.49q-.02.05-.1.01c-.08-.04-.03-.06-.01-.1a3 3 0 0 1 .5-.5q.03-.05.1 0 .03.08-.02.1m.1 1.14-.18.2-.2.2q-.02.06-.08.01c-.06-.05-.03-.07 0-.1l.18-.2.19-.2q.02-.05.1 0c.07.05.02.07 0 .1m-1.06.29v.41q.02.06-.06.07c-.08 0-.07-.04-.07-.07v-.4q-.02-.06.07-.07c.09 0 .06.04.06.07m1.35 1.77-.06.66v.06c-.01.04-.01.07-.08.06s-.06-.04-.06-.07v-.06l.07-.66q-.02-.06.07-.06c.1 0 .06.04.06.07m-.79-.58-.02.42q.02.06-.06.07c-.08 0-.07-.04-.07-.07l.02-.43q-.02-.06.07-.06c.09 0 .06.03.06.06m-.73-5.61a1 1 0 0 1 .58.58q.03.06-.04.09c-.07.03-.07-.01-.09-.04a1 1 0 0 0-.2-.32 1 1 0 0 0-.3-.19q-.06 0-.04-.08.03-.07.08-.04zm6.45 8.42q.18.42.2.84 0 .42-.18.84 0 .06-.08.04c-.08-.02-.05-.06-.04-.09a2 2 0 0 0-.02-1.58q-.04-.05.03-.09c.07-.04.07 0 .09.04m-2.11 2.43q.15-.48.38-.85c.23-.37.33-.48.5-.7a2.2 2.2 0 0 0 .44-1.78q-.03-.06.05-.08.08 0 .07.05.1.5-.02 1-.1.47-.43.9a8 8 0 0 0-.5.68q-.22.36-.36.82 0 .06-.08.04c-.08-.02-.05-.05-.04-.08zm-2.7-.72q.06-.17.2-.31a1 1 0 0 1 .33-.23q.05-.04.08.03t-.03.08a1 1 0 0 0-.3.2 1 1 0 0 0-.16.28q0 .06-.09.04-.07-.04-.03-.09m-.53-.19q.15-.2.32-.35.18-.16.4-.27.06-.03.09.04t-.04.08a1 1 0 0 0-.36.24q-.17.16-.3.34-.03.06-.1.01-.06-.05 0-.09zm2.81-2.77q.16.07.32.07c.16 0 .2 0 .3-.04q.05-.02.08.05c.03.07-.01.07-.04.08q-.16.05-.34.04a1 1 0 0 1-.37-.09q-.06 0-.04-.08c.02-.08.06-.05.09-.03m-1.4-.18.1-.12.01-.01q.03-.06.1 0 .04.06 0 .08l-.01.02-.1.11c-.02.02-.04.05-.1 0q-.05-.05 0-.08m30.17 8.7.16.21q.06.12.1.25.04.05-.03.08c-.06.02-.07-.02-.08-.04l-.1-.22-.15-.2q-.04-.02 0-.09c.05-.07.08-.02.1 0m-33.49 15.72q.21.2.45.34.24.13.54.13.06-.01.07.06-.01.09-.07.07-.33 0-.6-.15a2 2 0 0 1-.48-.35c-.02-.02-.05-.04 0-.09s.06-.03.09 0z"/><g fill="red"><path d="M661.02 124.48c.74.03 1.46 0 2.07-.1-.65.47-1.49.79-2.38.94a1 1 0 0 0 .33-.43.5.5 0 0 0-.02-.41m-1.78-.18q.73.12 1.48.16l.02.04q.12.15.07.32-.06.18-.34.37c-.05.03-.1.07-.03.17a7 7 0 0 1-1.51.02l.05-.04q.28-.28.32-.59.04-.22-.06-.45m-13.11-3.77q1.26-.16 2.55-.12.43.18.63.5.22.38.13.99c0 .06-.02.12.1.14.13.01.13-.05.14-.1q.1-.7-.16-1.14a1 1 0 0 0-.32-.37l.23.01c1 .05 1.77.34 2.63.77l.02.02q.28.3.22.6-.05.32-.37.69c-.04.05-.08.09.01.17.1.08.14.03.18-.01q.35-.42.42-.82.03-.23-.04-.43 1.1.53 2.19 1.08l.04.03.01.04a.6.6 0 0 1-.06.53q-.16.24-.6.4c-.05.02-.11.04-.07.16s.1.1.16.07q.5-.2.7-.49a.8.8 0 0 0 .14-.57q.72.4 1.44.76.14.27.04.47-.1.23-.5.43c-.05.02-.11.05-.06.16s.11.08.17.06q.47-.24.6-.54a.7.7 0 0 0 .06-.44 10 10 0 0 0 2.17.65l.01.02q.17.23.13.45a1 1 0 0 1-.27.46c-.04.05-.08.09 0 .17l.04.04c-1.85-.2-3.5-1.08-5.22-1.74l-.62-.24c-.63-.24-1.28-.57-1.92-.83l-.08-.04-.13-.04-.08-.03h.01a11 11 0 0 0-1.77-.4 8 8 0 0 0-2.03-.03l-.12-.02q.1-.54-.16-.96-.19-.3-.6-.52z"/><path d="M643.1 121.34q1.27-.54 2.6-.75.6.24.81.59t.13.8a5.5 5.5 0 0 0-2.3.28q-.29-.6-.76-.8-.23-.09-.48-.12m9.32 4.72q-.34-.23-.7-.42a9 9 0 0 0-3.8-1.08l.04-.02c.47-.48.57-.94.41-1.36a2 2 0 0 0-.8-.91q.64-.03 1.31.07c.66.09 1.5.3 2.27.62q.28.62.16 1.09t-.72.81c-.05.03-.1.06-.05.17s.12.07.17.04q.68-.38.83-.96.12-.45-.07-1.02c.52.23.99.51 1.32.82l1.27.9c0 .53-.16.83-.41.99q-.41.22-1.1.14c-.05 0-.11-.01-.13.1z"/><path d="M654.96 127.97c-.77-.6-1.52-1.23-2.33-1.78q.68.08 1.15-.18.45-.26.52-1 .72.55 1.38 1.19l.68.62v.01q.08.28.06.49a.6.6 0 0 1-.14.33 1 1 0 0 1-.34.2q-.33.08-.85.03c-.05-.01-.11-.02-.13.09"/><path d="M657.62 129.72a14 14 0 0 1-2.46-1.6q.5.04.84-.05.3-.08.45-.26a1 1 0 0 0 .2-.47q.03-.12 0-.27a13 13 0 0 0 2.64 1.79v.06q.04.35-.35.5a4 4 0 0 1-1.21.19c-.06 0-.11 0-.12.1z"/><path d="M660.45 130.83q-1.36-.38-2.56-.98a4 4 0 0 0 1.14-.2q.51-.18.51-.65.8.4 1.6.68.14.32 0 .53c-.1.18-.34.33-.63.45-.05.03-.11.05-.06.16z"/><path d="M666.37 130.23c.07-.01.55-.14.3.04-1.74 1.14-3.95 1.14-6.03.6q.5-.21.72-.54.15-.24.07-.55.98.33 2.03.46 0 .15-.11.32-.16.2-.6.4c-.06.02-.12.05-.07.16s.1.09.16.06q.51-.22.7-.47a.7.7 0 0 0 .16-.44q1.28.14 2.67-.04m-12.05 30q-.2.2-.34.47c-.51.16-.96.42-1.5.4 0 .34.11.5.46.5.68-.34.83-.4.89-.35.08.07-.1.55-.65.94-.09.06-.09.09-.04.18.47.74 1.7.47 2.37.3a3 3 0 0 0 1.57-1.16c.1-.22-.12-.5-.32-.73-.53.08-.7-.17-.63-.34a5 5 0 0 0-1.8-.21m-18.94-5.97a4 4 0 0 1-1.32.73c-.19.06-.65.18-.7.42 0 .08.32.27.52.16.55-.53.83-.24.2.3q-.08.18.1.32c.57.52 2 .69 2.65.28.49-.3.74-.64.32-1.1l.03-.3-.8-.08-.49-.29zm12.46 4.34-.15.02c-.25.28.46.17.83.4q.27.16.18.6c-.35.82-2.28.56-2.92.22-.3-.16-.32-.34-.3-.6q.2 0 .4-.03.35-.04.69-.23c.06-.03.12-.07.05-.2-.07-.12-.13-.09-.2-.05q-.28.15-.58.2-.3.03-.6.01h-.05c-.12-.06-.2-.14-.15-.2.04-.07.23 0 .26 0 .3-.13.56-.22.89-.28l.13-.14c.59.05 1.15.14 1.52.28m-8.95-.5c-.11.06-.15.16-.24.35-.34.34-.66.55-1.1.74-.35.16 0 .32.25.5.23.16.53-.2.71-.48.2-.31.41-.22.28.02-.15.26-.25.64-.27.84-.08.21.74.38.88.38.49.03 1.11-.46 1.5-.7.32-.33.27-.62.13-1.02v-.02q-.3 0-.6-.06a4 4 0 0 1-.7-.24q-.04 0-.03-.08.03-.05.06-.05l-.86-.2zm3.47-32.98h.4c.26.04.5.15.75.18a6 6 0 0 1 2.14-.47 7 7 0 0 1 2.13-.3c-.09-.08-.04-.13 0-.17.4-.4.49-.76.36-1.1s-.49-.66-.98-.96c-.53.06-1.03-.08-1.6-.02q-.52.06-1.03.23.43.15.73.5.38.45.52 1.2c.02.06.03.12-.1.14s-.12-.04-.14-.1a2.3 2.3 0 0 0-.46-1.08c-.24-.34-.77-.47-.94-.53q-.85.06-1.6.24-.54.14-.91.4.55-.11 1.06.1.48.23.74.92c.02.06.04.12-.08.16s-.13-.02-.15-.08q-.22-.6-.62-.77c-.51-.26-1.57-.04-2.01.3q-.4.29-.78.73-.04.07-.1.07c.96.07 1.93.12 2.68.41zm-2.85-.54q-.01-.07.05-.13.4-.46.82-.78.42-.31.85-.41.46-.48 1.24-.66.76-.19 1.63-.25a1.3 1.3 0 0 0-.63-.66 2 2 0 0 0-.9-.1c-.7.24-1.3.6-1.9 1.03h.16c.18.01.33-.02.48.04.06.02.11.04.07.16-.05.14-.43.05-.56.04q-.23-.01-.5.05h-.09c-.62.39-1.08.78-1.58 1.2q.57.2.86.47"/></g><path fill="#0093dd" d="m711.17 195.6 25.92-58.76-19.12-30.88-34.1 12.63-15.79 62.1a274 274 0 0 1 43.09 14.9z"/><path fill="#fff" d="M678.11 141.24a315 315 0 0 1 49.48 17.13l-10 22.68A290 290 0 0 0 672 165.27z"/><path fill="red" d="m719.2 177.4 6.68-15.14a311 311 0 0 0-48.81-16.9l-3.94 15.5a295 295 0 0 1 46.3 16.03z"/><path d="M681.88 157.17c.45-.28.92-.22 1.4-.14q.6-.21 1.32-.18.32-.16.72-.24.22-.16.02-.36a1 1 0 0 1-.2-.44c-.77-.45-1.05-1.13-1.34-1.8q-.64-.18-.7-.44l-.63-.06c-1 .1-1.25-.22-1.6-.48-.3-.1-.56-.26-.73-.57l-.33-.42c-.27-.34-.19-.8.23-.78.29.04.57.04.84-.08.31-.14.78-.13 1.13-.1.42-.03.68-.3 1.09-.68l-.01-.48q-.1-.27.25-.23c.54.02.86.27 1.08.63q.95.16 1.47.94c.83 0 1.4.32 1.47.64.05.22-.2.48-.58.76v.17q.34.3.46.59.7.25 1.34.78c1.2-.14 3.22.73 5.96 2.47q2.66.46 5.15 1.53l1.04.03c2.97-.44 5.84-.1 8.5 1.94 1.01.12 1.92.43 2.79.8.65.26 1.3.37 1.97.43q1.63.13 3.26.87c1.22.27 2.35.66 3.06 1.5.5.61.38 1.17-.26 1.4-.38.81-1.15.85-2.3.45-.79.14-1.66-.49-2.45-1.09-1.1-.35-2.11-.98-3.1-1.66a4 4 0 0 0-1.56-.74c-.4-.09-.76-.14-1 0q-.17.09 0 .2.43.36.54 1c.05.37 0 .8.01 1.25q.06.7.8 1.12c.32.2.72.42 1.28.5.27.05.35.2.34.41.15.72.29 1.45.55 2.1.08.2.22.28.43.44.73.53.35 1.12-.31 1.24-.59.52-1.09.87-1.69 1-.47.16-.67-.03-.83-.27a.6.6 0 0 1-.55-.3c-.59-.44-.09-1.18 1.3-.86q.07-.24.27-.21c-.08-.36-.13-.77.03-1.14-.13-.08-.23-.18-.41-.24-.5-.16-.98-.4-1.36-.75-.71-.67-1.83-1.23-2.9-1.8-.9-.04-1.55-.45-2.25-.8h-.94c-.28-.1-.5 0-.67.2-.28.33-.6.27-.98.23-.44-.05-.88-.02-1.32-.02-.22.05-.43.12-.67.12-.5-.03-.97-.03-1.3.24-.28.29-.55.27-.82.16q-.3-.15-.44-.3-.51-.1-.64-.26c-.58-.16-.74-.33-.71-.49-.77-.18-.4-.79.1-.8.58-.03 1.11.08 1.69.16a1.6 1.6 0 0 0 1.47-.3c.26-.23.35-.43.66-.6a5 5 0 0 1-2.26-.58c-1.45-.91-2.61-1.14-3.54-.36-.24.14-.44.2-.7.1-.22-.1-.5-.1-.73-.04q-.78.16-1.56-.14-1.16.31-2.3.08-.98.51-1.43.12-.42-.23-.8-.5-.61-.1-.61-.3c-.53-.06-.6-.25-.6-.46-.21-.26-.13-.45.09-.61.39-.16.8-.22 1.25 0q.39.2.63.39.44-.05.78.08c.17-.26.64-.27 1.15-.24a2 2 0 0 1 .96-.33l-.03-.19c-.52-.13-.79-.5-1.04-.89a3.7 3.7 0 0 1-1.94-.7c-.47.04-.85-.11-1.21-.33q-.45.05-.94-.05a3 3 0 0 1-1.75 0c-.38.04-.7 0-1.02-.03q-.54.62-1.22.28-.37-.46-1.03-.63c-.34-.11-.44-.26-.5-.41-.4-.25-.33-.5.07-.7.3-.13.66-.16 1.23.12q.27.1.62.13z"/><path fill="#fff" d="M701.4 163.12c-.03-.07-.11-.24-.41-.07-.93-.05-1.97-.04-2.74-.5-.82-.47-1.65-.97-2.55-.93q.4-.38.98-.53a4 4 0 0 1 1.8-.04c.95.16 1.79.34 2.43.58q.96.35 1.26.9l.05.06a4 4 0 0 1 1 .9q-.45.03-.89-.05a4 4 0 0 1-.92-.32z"/><path d="m703.54 118.37.06.28 1.16 6.04-4.64 4.05-.21.18.27.1 5.81 2 1.19 6.05.05.28.22-.19 4.65-4.03 5.82 2 .27.09-.05-.28-1.17-6.04 4.64-4.05.22-.19-.27-.09-5.82-2.01-1.18-6.05-.06-.27-.21.18-4.66 4.04-5.82-2z"/><path fill="#f7db17" d="m700.7 128.67 4.33-3.78 5.46 1.88zm10.51-2.04 4.35-3.79 5.44 1.88zm9.83-1.71-4.34 3.78-5.45-1.88zm-10.52 2.04-4.35 3.78-5.43-1.88zm-6.36-8.03 5.44 1.86 1.1 5.66zm7.02 8.07 5.45 1.88 1.1 5.65zm6.4 7.66-5.45-1.86-1.1-5.66zm-7.03-8.08-5.45-1.88-1.09-5.64zm3.78-9.53 1.1 5.64-4.35 3.79zm-3.49 10.12 1.1 5.66-4.35 3.77zm-3.44 9.37-1.1-5.65 4.35-3.78zm3.5-10.13-1.1-5.66 4.34-3.77z"/></svg>