<svg xmlns="http://www.w3.org/2000/svg" viewBox="0 0 600 300"><path d="M0 0h600v300H0z" style="fill:#cf142b;fill-opacity:1;fill-rule:nonzero;stroke:none"/><path d="M419.1 546.46c.3-.87.88-9.94.59-9.94s-13.75-15.8-13.46-15.8c.3 0 17.26 3.8 17.26 3.22s6.73-16.67 6.73-16.96c0-.3 8.19 19.6 8.19 19.6l16.67 7.3-11.7 9.66s2.63 18.72 2.63 19.01-11.7-11.11-11.7-11.11l-12.87 1.46s-1.75-5.85-2.34-6.44z" style="font-size:12px;fill:#f9dd16;fill-opacity:.98823499;fill-rule:evenodd;stroke:#000;stroke-width:2.40245399pt" transform="translate(163.24 23.83)scale(.3498)"/><path d="M328.48 300.67c-11.11 5.73-53.77 54.48-59.62 62.09-4.9 11.04-14.48 25-24.36 34-10.54 7.96-16.4 18.86-14.94 29.17-.12 12.83 7.07 21.57 12.8 30.6 3.4 4.13 7.96 6.8 12.82 7.12 9.95 1.31 10.84 4.38 15.82 6.28 19.63 26.72 48.9 46.43 70 62.04 13.44 7.09 22.79 14.17 25.99 18.04 6.17 11.79 5.04 23.28 4.2 28.93l-15.67 59.07c-2.63 16.09 11.35 12.47 12.1 9.25 6.31-8.19 15.73-2.43 29.18-49.82l18.5-24.9s7.12-2.85 7.12-3.56c10.83-13 2.59-20.44-3.56-22.78l-13.52-4.98s-15.66-15.65-16.37-15.65c-7.44-21.65-43.96-67.85-52.44-74.29-5.87-6.12-8.67-8.72-14.24-12.13-8.57-4.1-11.33-5.43-16.58-7.53-4.37-1.75-1.26-6.55 1.52-8.74 28.92-15.75 51.85-33.25 79.6-51.04l4.28-2.84-9.97-56.94-46.26-16.37c-2.42 1.66-4.26 3.32-6.4 4.98z" style="font-size:12px;fill:#fff;fill-rule:evenodd;stroke:#000;stroke-width:3.71638179;stroke-miterlimit:4;stroke-opacity:1;stroke-dasharray:none" transform="translate(163.24 23.83)scale(.3498)"/><path d="M367.19 600.43c.14-.59 28.95-5.85 28.95-5.85s-3.36 10.67-3.51 10.67l-28.66 8.63z" style="font-size:12px;fill:#f9dd16;fill-opacity:1;fill-rule:evenodd;stroke-width:1pt" transform="translate(163.24 23.83)scale(.3498)"/><path d="M292.11 491.96c5.56-14.77 20.99-26.47 31.35-29.7" style="font-size:12px;fill:none;stroke:#000;stroke-width:2.40245399pt" transform="translate(163.24 23.83)scale(.3498)"/><path d="M366.15 600.69c1.86-.53 10.12-2.94 12.52-3.31q3.87-.88 7.59-2.07c2.85-.58 4.63-1.12 7.59-1.65 2.31-.89 4.6-1.5 7.08-2.07m-40 26.91a21 21 0 0 1 3.62-2.9c1.66-.52 7.33-2.93 9.48-3.3a79 79 0 0 0 6.78-2.07c2.54-.58 4.13-1.12 6.77-1.66a44 44 0 0 1 6.33-2.07" style="font-size:12px;fill:none;stroke:#000;stroke-width:2.65663357pt" transform="translate(163.24 23.83)scale(.3498)"/><path d="M372.63 496.14h-.41c1.3 0 .5-.11-1.24 2.07-.62 1.67-5.93 5.37-9.93 5.37-1.93.21-4.9.42-6.83.42-.55 0-1.3-.42-1.86-.42m19.86 77.77h2.06c2.15 0 4.3.38 6.21.41 2.07 0 4.14.59 6.2.59 2.1.3 4.6.2 6.77.5 2.42.09 4.36.56 6.88.56 2.04.08 3.13.42 5.38.42l-5.38-.42c2.04.08 3.13.42 5.38.42m-47.57 47.97c.23-.31 2.02-2.05 3.31-2.89 1.52-.52 6.72-2.93 8.69-3.3q3.17-.9 6.2-2.07c2.33-.58 3.79-1.12 6.2-1.66 1.9-.88 3.78-1.49 5.8-2.07m8.54-59.9c-1.17 3.4.35 4.25.97 5.72 1.1 1.42 3.88 3.58 8.28 4.96 1.7.46 3 .9 4.96 1.66 1.3.12 1.94.44 2.9.82M233.24 435.33h.41c-1.3 0-.52.09 1.66-1.65 1.34-1.5 2.46-2.18 3.72-3.72m20.99 34.84c.28 0 24.06-11.99 26.6-14.55 1.8-1.3 3.16-2.68 5.35-4.16 1.4-.74 2.41-1.67 3.73-2.48 1.09-1.59 2.52-2.54 3.3-4 1.46-1.26.84-2.63 2.02-4.16.56-1.56 1.6-4.19 1.95-5.62m30.3 17.79c.12.86-.38 3.5-.35 5.5-.08 2.33-3.07 9.5-6.69 11.65" style="font-size:12px;fill:none;stroke:#000;stroke-width:2.40245399pt" transform="translate(163.24 23.83)scale(.3498)"/><path d="M290.53 447.36c.14 0 3.76 1.17 9.81 3.04 7.29 2.61 22.44 12.16 23.94 13.48 1.54 1.2 4.28 2.28 5.33 3.72 1.65 1.42 2.86 3.06 4.14 4.55 1.51 1.84 2.8 3.4 3.72 4.96 4.6 3.73 16.98 29.56 17.37 31.02.7 1.37 1.56 3.27 2.07 4.55.92 1.06 1.54 2.55 2.48 4.14.87 2.06 1.84 3 2.9 4.55 1.37.95 3.22 2.76 4.97 3.72 1.86 1.6 3.6 2.25 4.96 3.31 1.95.83 23.75 14.61 24.76 15.3 2 1.6 8.07 7.9 3.8 12.49-1.8 1.55-3.44 3.6-4.99 4.48-1.57 1.57-3.77 2.28-5.58 3.1-9.82 2.9-14.82 1.86-16.75 1.86h-2.07M242.38 398.62c2.8 1.1 1.67.29 4.18 1.43 1.69.74 2.8.76 4.46 1.37 1.76.56 6.68 1.45 9.05 3.82 1.73 1.57 3.06 2.9 4.96 4.03 2.25 1.56 3.88 2.25 6.67 3.42 2.36.88 5 1.86 7.38 1.94 2.48.14 3.07.02 5.45.02h5.79-5.8 5.8" style="font-size:12px;fill:none;stroke:#000;stroke-width:2.40245399pt" transform="translate(163.24 23.83)scale(.3498)"/><path d="M241.72 426.23c6.2-.41 16.54 1.45 16.75 1.45l13.65-.2c7.17-.7 8.75-3.45 9.92-5.38 2.7-4.14 4.56-5.59 6.62-8.69 3.31-2.48 7.86 3.31 8.07 3.31 11.58 10.96 2.27 24.4 1.65 24.82-5.79 5.3-7.03 5.65-10.54 2.27-3.52-4.13-4.55-6-7.45-7.44-5.58-2.7-17.16-.62-17.37-.62-.2 0-6 2.27-6 2.27-2.83 1.04-4.62 3.52-9.51 4.34-4.97.35-6.62-.13-9.1-4.13-3.31-5.17-1.66-11.38 3.3-12z" style="font-size:12px;fill:#ffe606;fill-rule:evenodd;stroke:#000;stroke-width:2.40245399pt" transform="translate(163.24 23.83)scale(.3498)"/><path d="M565.57 175.36c-.91.18-9.1 4.1-8.96 4.36s-7.03 19.73-7.17 19.47c-.15-.25-5.15-16.9-5.66-16.62-.5.29-17.82 2.31-18.08 2.45s13.07-16.74 13.07-16.74l-1.8-18.11 14.15 5.46s15.03-11.47 15.28-11.6c.26-.15-3.95 15.64-3.95 15.64l7.58 10.5s-4.24 4.4-4.46 5.19z" style="font-size:12px;fill:#f9dd16;fill-opacity:.98823499;fill-rule:evenodd;stroke:#000;stroke-width:2.40245457pt" transform="translate(163.24 23.83)scale(.3498)"/><path d="M395.73 374.81c10.44 6.88 73.84 20.17 83.33 21.54 12.03-1.14 28.9.38 41.57 4.58 12.12 5.28 24.49 5.04 32.76-1.28 11.25-6.18 15.34-16.74 20.4-26.16 1.94-4.98 2.02-10.26-.07-14.65-3.74-9.33-1.5-11.6-2.29-16.87 13.68-30.2 16.5-65.4 19.78-91.42-.41-15.2 1.18-26.81 2.99-31.5 7.25-11.16 17.82-15.8 23.16-17.83l59.17-15.3c15.3-5.6 5.3-16 2.13-15.09-10.23-1.48-9.83-12.5-57.73-1.02l-30.78-3.92s-5.97-4.8-6.59-4.46c-16.63-3.06-19.07 7.76-18.1 14.27l2.28 14.22s-5.97 21.32-5.62 21.94c-15.22 17.1-37.88 71.99-39.33 82.53-.69 9.91-4.43 8.12-3.43 17.76.04 7.53-.84 2.83 1.68 18.33.61 4.67-5.1 4.31-8.37 2.97-27.9-17.5-54.4-28.91-83.5-44.39l-4.58-2.32-44.74 36.58 8.4 48.35c2.63 1.3 4.99 2.1 7.48 3.14z" style="font-size:12px;fill:#fff;fill-rule:evenodd;stroke:#000;stroke-width:3.71638179;stroke-miterlimit:4;stroke-opacity:1;stroke-dasharray:none" transform="translate(163.24 23.83)scale(.3498)"/><path d="M638.05 194.17c-.58.16-19.29-22.37-19.29-22.37s10.95-2.3 11.03-2.18l21.56 20.76z" style="font-size:12px;fill:#f9dd16;fill-opacity:1;fill-rule:evenodd;stroke-width:1pt" transform="translate(163.24 23.83)scale(.3498)"/><path d="M580.29 312.77c-15.6 2.39-33.35-5.32-41.24-12.78" style="font-size:12px;fill:none;stroke:#000;stroke-width:2.40245457pt" transform="translate(163.24 23.83)scale(.3498)"/><path d="M638.78 194.94c-1.37-1.36-7.51-7.38-9.02-9.3a97 97 0 0 0-5.52-5.6c-1.9-2.19-3.24-3.48-5.16-5.8a54 54 0 0 1-5.27-5.15m43.06 21.67c-.4-.05-2.88-.91-4.3-1.73-1.27-1.2-6.15-4.96-7.53-6.65a79 79 0 0 0-5.12-4.89c-1.76-1.93-3-3.06-4.77-5.1a44 44 0 0 1-4.9-4.5" style="font-size:12px;fill:none;stroke:#000;stroke-width:2.65663414pt" transform="translate(163.24 23.83)scale(.3498)"/><path d="m544.47 240.53.2.36c-.63-1.13-.33-.38 2.42.07 1.76-.28 7.59 2.53 9.55 6.02a76 76 0 0 1 3.7 5.75c.27.47.29 1.34.56 1.82m58.05-55.42-.2-.36-.81-1.44c-1.05-1.87-1.78-3.93-2.68-5.61-1.02-1.8-1.52-3.9-2.53-5.7-.77-1.96-2.09-4.1-2.88-6.14-1.11-2.15-1.65-4.08-2.88-6.28-.93-1.8-1.17-2.93-2.28-4.9l2.28 4.9c-.93-1.8-1.17-2.93-2.28-4.9m65.14 17.96c-.39-.04-2.78-.75-4.15-1.47-1.2-1.06-5.85-4.41-7.14-5.95a68 68 0 0 0-4.84-4.39c-1.65-1.75-2.83-2.75-4.48-4.6a38 38 0 0 1-4.64-4.03m-56.4 21.91c3.53-.64 3.53-2.38 4.5-3.65.7-1.65 1.23-5.13.27-9.64-.43-1.7-.68-3.06-.99-5.14-.53-1.2-.56-1.9-.7-2.93m-31.47 225.07-.2-.36c.63 1.13.32.4-2.26-.63-1.97-.44-3.1-1.08-5.07-1.42m20.09-35.38c-.14-.24-22.25-15.1-25.72-16.06-2.02-.93-3.89-1.44-6.25-2.62-1.33-.86-2.64-1.28-4-2.03-1.9-.18-3.44-.95-5.09-.93-1.82-.65-2.7.57-4.62.28-1.63.28-4.44.66-5.85 1.06m.66-35.13c.68-.53 3.23-1.38 4.96-2.4 2.06-1.06 9.8-1.97 13.43.13" style="font-size:12px;fill:none;stroke:#000;stroke-width:2.40245457pt" transform="translate(163.24 23.83)scale(.3498)"/><path d="M542.19 336c-.07-.12-.82-3.85-2.16-10.04-1.29-7.63-.4-25.52.02-27.47.3-1.93-.1-4.85.63-6.47.43-2.13 1.27-3.99 1.94-5.84.86-2.22 1.59-4.1 2.5-5.68 1-5.83 17.45-29.28 18.53-30.34a64 64 0 0 1 2.95-4.04c.47-1.31 1.47-2.59 2.39-4.19 1.37-1.76 1.71-3.06 2.55-4.75.15-1.66.82-4.16.8-6.15.48-2.4.2-4.25.46-5.95-.23-2.1 1.1-27.86 1.2-29.08.42-2.52 2.93-10.91 9.02-9.44 2.24.82 4.83 1.24 6.35 2.16 2.15.6 3.84 2.16 5.44 3.34 7.34 7.14 8.88 12.01 9.83 13.7l1.01 1.8M523.2 401.02l-.2-.36c.54.98.24.5-.46-1.64-.18-1.84-.75-4.32-1.03-6.06-.38-1.81-1.22-3.88-1-5.14-.64-1.84-.23-3.36-.06-5.18.51-2.28.75-3.93.81-6.15.25-2.73.05-4.66.2-7.24-.71-2.12-.86-3.9-1.95-6.01-.98-2.03-1.72-3.9-2.89-5.97l-2.84-5.05 2.84 5.05-2.84-5.05" style="font-size:12px;fill:none;stroke:#000;stroke-width:2.40245457pt" transform="translate(163.24 23.83)scale(.3498)"/><path d="M547.7 388.9c-3.4-5.2-6.85-15.13-6.95-15.3l-6.87-11.8c-4.12-5.92-7.3-5.94-9.55-6.02-4.92-.32-7.1-1.23-10.82-1.51-3.78-1.67-.96-8.48-1.07-8.66 3.88-15.46 20.16-13.94 20.83-13.6 7.46 2.44 8.37 3.36 7.15 8.08-1.88 5.1-3 6.9-2.84 10.14.39 6.18 7.87 15.26 7.97 15.45s4.92 4.1 4.92 4.1c2.3 1.97 5.33 2.31 8.45 6.17 2.74 4.16 3.13 5.84.86 9.96-2.89 5.42-9.1 7.02-12.08 3z" style="font-size:12px;fill:#f9dd16;fill-opacity:1;fill-rule:evenodd;stroke:#000;stroke-width:2.40245457pt" transform="translate(163.24 23.83)scale(.3498)"/><path d="M238.86 224.5c.12-.36.37-4.14.24-4.14-.12 0-5.72-6.57-5.6-6.57s7.19 1.58 7.19 1.34 2.8-6.94 2.8-7.06 3.4 8.15 3.4 8.15l6.95 3.05-4.87 4.02s1.1 7.79 1.1 7.91-4.88-4.63-4.88-4.63l-5.36.61s-.73-2.43-.97-2.68z" style="fill:#f9dd16;fill-opacity:.98823499;fill-rule:evenodd;stroke:#000;stroke-width:1pt;stroke-linecap:butt;stroke-linejoin:miter;stroke-opacity:1" transform="rotate(117.44 234.63 155.13)scale(.84038)"/><path d="M201.14 122.2c-4.62 2.38-22.38 22.67-24.81 25.84a47 47 0 0 1-10.14 14.15c-4.4 3.32-6.83 7.85-6.23 12.14-.04 5.35 2.95 8.98 5.34 12.74a7.7 7.7 0 0 0 5.33 2.96c4.14.55 4.51 1.83 6.58 2.62 8.17 11.12 20.36 19.32 29.14 25.82 5.6 2.95 9.49 5.9 10.82 7.5 2.57 4.92 2.1 9.7 1.74 12.05l-6.51 24.59c-1.1 6.7 4.72 5.19 5.03 3.85 2.63-3.4 6.55-1.01 12.15-20.74l7.7-10.36s2.96-1.19 2.96-1.48c4.5-5.41 1.08-8.51-1.48-9.48l-5.63-2.08s-6.51-6.51-6.8-6.51c-3.1-9.01-18.4-28.43-21.93-31.1-3.46-2.28-2.04-3.27-5.74-4.87-2.74-1.53-.86-.88-7-3.14-1.82-.73-.52-2.72.63-3.64 12.04-6.55 21.59-13.83 33.14-21.24l1.78-1.19-4.15-23.7-19.25-6.8c-1.01.68-1.78 1.38-2.67 2.07z" style="fill:#fff;fill-opacity:1;fill-rule:evenodd;stroke:#000;stroke-width:1.54691064;stroke-miterlimit:4;stroke-opacity:1;stroke-dasharray:none" transform="rotate(117.44 234.63 155.13)scale(.84038)"/><path d="M217.25 246.97c.06-.25 12.05-2.44 12.05-2.44s-1.4 4.45-1.46 4.45l-11.93 3.59z" style="fill:#f9dd16;fill-opacity:1;fill-rule:evenodd;stroke:none" transform="rotate(117.44 234.63 155.13)scale(.84038)"/><path d="M186 201.82c2.32-6.15 8.74-11.02 13.05-12.36" style="fill:none;stroke:#000;stroke-width:1pt;stroke-linecap:butt;stroke-linejoin:miter;stroke-opacity:1" transform="rotate(117.44 234.63 155.13)scale(.84038)"/><path d="M216.82 247.07c.78-.21 4.21-1.22 5.21-1.37q1.61-.37 3.16-.86c1.19-.25 1.93-.47 3.16-.7.96-.36 1.92-.61 2.95-.85m-16.65 11.2c.1-.14.92-.86 1.5-1.2.7-.22 3.06-1.23 3.95-1.38q1.44-.37 2.82-.86c1.06-.25 1.72-.47 2.82-.7a18 18 0 0 1 2.63-.85" style="font-size:12px;fill:none;stroke:#000;stroke-width:1.10579996pt" transform="rotate(117.44 234.63 155.13)scale(.84038)"/><path d="M219.52 203.56h-.17c.54 0 .2-.05-.52.86-.26.7-2.47 2.24-4.13 2.24-.8.08-2.04.17-2.84.17-.23 0-.55-.18-.78-.18m8.27 32.37h.86c.89 0 1.79.16 2.58.18.86 0 1.72.24 2.58.24.87.12 1.92.08 2.82.21 1 .04 1.81.23 2.86.23.85.04 1.3.18 2.24.18l-2.24-.18c.85.04 1.3.18 2.24.18m-19.79 19.97a7 7 0 0 1 1.37-1.2c.63-.22 2.8-1.23 3.62-1.38a28 28 0 0 0 2.58-.86c.97-.25 1.57-.47 2.58-.7a17 17 0 0 1 2.41-.85m3.56-24.94c-.5 1.42.14 1.77.4 2.38.46.6 1.61 1.5 3.45 2.07.7.19 1.24.37 2.06.69.54.05.8.18 1.2.34m-75.23-57.33h.17c-.54 0-.22.03.69-.7.56-.62 1.02-.9 1.55-1.54m8.74 14.5c.11 0 10.01-4.99 11.07-6.05.75-.55 1.31-1.12 2.23-1.74.58-.3 1-.7 1.55-1.03.45-.66 1.04-1.06 1.37-1.66.61-.53.35-1.1.84-1.73.24-.65.67-1.75.81-2.34m12.61 7.4c.06.36-.15 1.45-.14 2.29-.03.97-1.28 3.96-2.78 4.85" style="fill:none;stroke:#000;stroke-width:1pt;stroke-linecap:butt;stroke-linejoin:miter;stroke-opacity:1" transform="rotate(117.44 234.63 155.13)scale(.84038)"/><path d="M185.35 183.25c.05 0 1.56.5 4.08 1.27 3.03 1.09 9.34 5.06 9.96 5.6.64.51 1.79.96 2.22 1.56.69.59 1.19 1.27 1.72 1.89.63.77 1.17 1.42 1.55 2.07 1.92 1.55 7.07 12.3 7.24 12.9.28.58.64 1.37.86 1.9.38.44.64 1.07 1.03 1.73.36.85.76 1.24 1.2 1.89.57.4 1.34 1.15 2.07 1.55.78.66 1.5.93 2.07 1.38.8.34 9.88 6.08 10.3 6.36.83.67 3.36 3.3 1.59 5.2-.76.65-1.44 1.5-2.08 1.87-.66.65-1.57.95-2.32 1.29-4.1 1.2-6.17.77-6.98.77H219m-53.37-69.38h.17c-.46 0-.23-.01.69.17.7.3 1.72.6 2.41.86.73.23 1.65.35 2.07.69.8.14 1.26.6 1.89 1.03.72.65 1.27 1.07 2.07 1.55.93.65 1.68.97 2.58 1.55.91.17 1.59.48 2.58.52.93.06 1.77.17 2.76.17h2.4-2.4 2.4m35.99-26.69h-.34c.63 0 .45-.02-.52.17-1.02.53-2.37.93-3.27 1.38-1.03.34-2.13.72-3.1 1.2-1.1.65-2.1 1.17-3.1 1.9-1 .53-1.96 1.19-2.93 1.72-.96.52-1.75 1.03-2.58 1.72-.7.39-1.64.93-2.41 1.55-.73.26-1.25.78-1.72 1.2-.91.82-1.47 1.24-2.41 2.08q-.76.67-1.9 1.72c-.77.52-1.62 1.51-2.23 2.06-.4.52-.98 1.13-1.55 1.55-.44.56-.95 1.29-1.55 1.72-.36.53-.98 1.22-1.55 1.9-.47.57-1.1 1.14-1.55 1.72-.6.66-1.06 1.33-1.72 1.9-.12.4-.37.6-.52.85" style="fill:none;stroke:#000;stroke-width:1pt;stroke-linecap:butt;stroke-linejoin:miter;stroke-opacity:1" transform="rotate(117.44 234.63 155.13)scale(.84038)"/><path d="M165.03 174.46c2.58-.17 6.88.6 6.97.6l5.68-.08c2.99-.3 3.64-1.44 4.13-2.24 1.12-1.72 1.9-2.33 2.76-3.62 1.37-1.03 3.27 1.38 3.36 1.38 4.82 4.56.94 10.16.68 10.33-2.4 2.2-2.92 2.35-4.39.95-1.46-1.73-1.89-2.5-3.1-3.1-2.32-1.12-7.14-.26-7.23-.26-.08 0-2.5.95-2.5.95-1.17.43-1.92 1.46-3.95 1.8-2.07.15-2.76-.05-3.8-1.72-1.37-2.15-.68-4.73 1.39-5z" style="fill:#f9dd16;fill-opacity:1;fill-rule:evenodd;stroke:#000;stroke-width:1pt;stroke-linecap:butt;stroke-linejoin:miter;stroke-opacity:1" transform="rotate(117.44 234.63 155.13)scale(.84038)"/><path d="M332.3 290.15c-2.27-2.07 42.81 16.34 49.02 16.54 8.48-3.1 43.43-32.67 43.43-32.67.34 2.9 1.58 10.4 4.96 12-13.51 10.96-25.78 21.5-39.3 32.46.97 17.38-2.2 35.78 6.62 55.22 0 0-10.54.2-10.54 0-9.3-9.3-12.62-54.18-12.62-54.18-14.82-6.62-29.64-13.03-44.46-19.65 2.13-1.38 3.86-5.65 2.9-9.72z" style="font-size:12px;fill:#f9dd16;fill-opacity:.98742095;fill-rule:evenodd;stroke:#000;stroke-width:2.40244999pt" transform="translate(163.24 23.83)scale(.3498)"/><path d="M375.2 336.15c.72-.52-8.13 4.12-10.4 5.28-40.97 21.85-62.05 53.63-63.36 54.84-.71 1.35-2.01 3.16-3.2 4.92-.97 1.49-2.34 3.02-3.25 4.52a88 88 0 0 1-5.34 6.7c-.18.98.69-.34.4.31m113.14-102.53c-.8-.4 7.37 5.35 9.45 6.84 38.17 26.43 76.07 30.63 77.74 31.25 1.53.01 3.73.35 5.85.6 1.76.17 3.75.7 5.5.82a87 87 0 0 1 8.4 1.68c.95-.3-.62-.46.1-.5" style="font-size:12px;fill:none;stroke:#000;stroke-width:2.40244999pt" transform="translate(163.24 23.83)scale(.3498)"/></svg>