<svg xmlns="http://www.w3.org/2000/svg" xmlns:xlink="http://www.w3.org/1999/xlink" viewBox="0 0 600 300"><defs><clipPath id="c"><path d="M0 0v75h350v75h-50zm300 0H150v200H0v-50z"/></clipPath><clipPath id="b"><path d="M0 0h300v150H0z"/></clipPath></defs><path fill="#fff" d="M0 0h600v300H0z"/><path id="a" fill="#002b7f" d="M600 260.88c-6.72 4.05-12.5 13.5-30.36 13.5-35.71 0-44.64-19.9-71.43-19.9-17.85 0-26.78 19.9-44.64 19.9-35.71 0-44.64-19.9-71.43-19.9-17.85 0-26.78 19.9-44.64 19.9-35.71 0-44.64-19.9-71.43-19.9-17.86 0-26.78 19.9-44.64 19.9-35.72 0-44.64-19.9-71.43-19.9-17.86 0-26.79 19.9-44.64 19.9-35.72 0-44.65-19.9-71.43-19.9-17.86 0-23.22 14.18-33.93 14.18v25.62c10.71 0 16.07-14.18 33.93-14.18 26.78 0 35.71 19.9 71.43 19.9 17.85 0 26.78-19.9 44.64-19.9 26.78 0 35.72 19.9 71.43 19.9 17.86 0 26.78-19.9 44.64-19.9 26.79 0 35.72 19.9 71.43 19.9 17.86 0 26.79-19.9 44.64-19.9 26.79 0 35.72 19.9 71.43 19.9 17.86 0 26.79-19.9 44.64-19.9 26.79 0 35.72 19.9 71.43 19.9 17.86 0 23.64-5.64 30.36-9.68z"/><use xlink:href="#a" transform="translate(0 -49.75)"/><use xlink:href="#a" transform="translate(0 -99.5)"/><use xlink:href="#a" transform="translate(0 -149.26)"/><use xlink:href="#a" transform="translate(0 -199.01)"/><use xlink:href="#a" transform="translate(0 -248.77)"/><path fill="#fff" d="M0 0h300v152H0z"/><g clip-path="url(#b)"><path fill="#00247d" d="M0 0h300v150H0z"/><path stroke="#fff" stroke-width="30" d="m0 0 300 150m0-150L0 150"/><path stroke="#cf142b" stroke-width="20" d="m0 0 300 150m0-150L0 150" clip-path="url(#c)"/><path stroke="#fff" stroke-width="50" d="M150 0v200M0 75h350"/><path stroke="#cf142b" stroke-width="30" d="M150 0v200M0 75h350"/></g><path d="m814.96-301.18-17.72 708.66c0 37.3 80.1 37.3 88.59 0L868.1-301.18z" style="fill:#a24300;stroke-width:6.935;stroke:#fff" transform="matrix(.12095 0 0 .28726 347.84 166.05)"/><g transform="matrix(.43857 0 0 .37683 122.2 25.06)"><g transform="matrix(-.31451 .10485 -.1383 -.30323 1046.47 373.32)"><g id="d" style="fill:none;stroke-width:1;stroke:#000"><path d="m496.06 549.21 17.72 70.87 35.43-53.15-17.71 88.58 35.43-35.43-35.43 88.58 35.43-35.43-35.43 88.58 35.43-35.43-35.43 106.3 35.43-35.44-35.43 106.3 35.43-35.43-35.43 106.3-17.72 53.15-17.72 17.72-17.71-17.72-17.72-53.15-35.43-106.3 35.43 35.43-35.43-106.3 35.43 35.44-35.43-106.3 35.43 35.43-35.43-88.58 35.43 35.43-35.43-88.58 35.43 35.43-17.72-88.58 35.44 53.15z" style="fill:#006d00;stroke-width:8.25;stroke:#fff" transform="translate(177.17 -224.05)"/><path d="M673.23 325.16v496.07m-70.87-177.17 70.87 106.3 70.86-106.3"/><path d="m602.36 573.2 70.87 106.3 70.86-106.3"/><path d="m602.36 502.33 70.87 106.3 70.86-106.3"/><path d="m602.36 449.18 70.87 88.58 70.86-88.58"/><path d="m602.36 396.03 70.87 88.58 70.86-88.58"/><path d="m620.08 342.88 53.15 106.3 53.15-106.3"/></g></g><use xlink:href="#d" transform="matrix(.23652 -.28186 .29496 .22762 354.57 204.65)"/><use xlink:href="#d" transform="matrix(.15164 .33524 -.3329 .1673 907.54 -153.47)"/><use xlink:href="#d" transform="matrix(-.20952 .30246 -.3147 -.19945 1141.36 167.58)"/><use xlink:href="#d" transform="matrix(-.20772 -.25838 .23618 -.23515 689.99 567.28)"/><g transform="matrix(-.36218 -.09947 -.2098 .31773 1222.41 -24.23)"><g id="e" style="fill:none;stroke-width:1;stroke:#000"><path d="m460.63 549.21 28.64 70.87 42.23-53.15-10.19 88.58 27.9-35.43-17.71 88.58 25.25-35.43-25.25 88.58 35.43-35.43-35.43 106.3 35.43-35.44-35.43 106.3 35.43-35.43-35.43 106.3-17.72 53.15-17.72 17.72-17.71-17.72-17.72-53.15-35.43-106.3 35.43 35.43-35.43-106.3 35.43 35.44-35.43-106.3 35.43 35.43-45.62-88.58 45.62 35.43-53.15-88.58 42.97 35.43-25.25-88.58 35.43 53.15z" style="fill:#006d00;stroke-width:8.25;stroke:#fff" transform="translate(283.46 -124.02)"/><path d="m750.67 460.63 28.86 124.02v336.61"/><path d="m719.7 761.81 59.83 88.58 60.68-88.58"/><path d="m718 690.94 61.53 88.59 60.68-88.59"/><path d="m718.85 620.08 60.68 88.58 59.83-88.58"/><path d="m716.3 566.93 63.23 70.86 53.15-70.86"/><path d="m708.66 513.78 70.87 70.86 45.4-70.86"/><path d="m719.59 469.22 53.15 86.89 35.33-95.48"/></g></g><use xlink:href="#e" transform="matrix(.36088 .10411 .01321 .38053 452.76 -239.27)"/><g style="fill:none;stroke-width:1;stroke:#000"><path d="m354.33 531.5 88.58 88.58 17.72-53.15v88.58l35.43-35.43-17.71 88.58 35.43-35.43-17.72 88.58 35.44-35.43-17.72 106.3 35.43-35.43-35.43 106.3 35.43-35.44-17.71 106.3-17.72 53.15-17.72 17.72-17.71-17.72-17.72-53.15-53.15-82.3 35.43 11.43-35.43-106.3 35.43 35.44-53.15-106.3 35.44 35.43-53.15-88.58 53.15 35.43-70.87-88.58 53.15 35.43-70.87-70.86 70.87 35.43z" style="fill:#006d00;stroke-width:8.25;stroke:#fff" transform="matrix(.04613 -.36474 .32602 .0648 386 315.21)"/><path d="m378.96 560.02 63.95 95.5 17.72 53.14 8.86 45.2 8.86 78.82 9.31 70.86 8.4 141.74" transform="matrix(.04613 -.36474 .32602 .0648 386 315.21)"/><path d="m425.2 903.54 63.66 70.87 50.75-88.58" transform="matrix(.04613 -.36474 .32602 .0648 386 315.21)"/><path d="m417.08 814.96 70.58 88.58 50.75-88.58" transform="matrix(.04613 -.36474 .32602 .0648 386 315.21)"/><path d="m407.48 752.44 70.87 80.24 45.94-88.58M372.05 637.8l88.58 70.86 25.83-70.86" transform="matrix(.04613 -.36474 .32602 .0648 386 315.21)"/><path d="m360.62 602.36 82.3 53.15 10.5-53.15m-63.66 88.59 81.1 70.86 33.94-70.86" transform="matrix(.04613 -.36474 .32602 .0648 386 315.21)"/></g></g><path d="M52.5 257.67 151.04 240l102.64 17.68-47.62 19.8-87.86 1.42z" style="fill:#9d9d9d;stroke-width:1.008;stroke:#000" transform="translate(412 157.18)scale(.25333)"/><path d="M151.79 98.45c-17.22 5.98-36.3-8.43-67.36 15.09 0 0-54.14-23.16-58.26 30.37-.16 2.17 8.57 15.22 9.79 14.29 6.8-5.22-3.23 5.07-3.23 6.56 0 1.5 1 2.33 1.33 3s1.17 1.66 1.33 4.49-6.13 10.54-3.47 13.37 2.82 10.98 2.82 13.31 1.67 8.82 2.83 10.15 3.16 4.66 3.16 7.48 1.16 10.65.66 12.64 3 4.5 6.16 5.5c3.16.99 43.94 1.7 101.16.7s76.33 8.06 99.98-.54c3.65-1.33 4.32-4.33 3.99-6-.34-1.65 0-6.97 1-8.3s7.65-11.98 6.31-13.98c1.26-1.13 10.6 5.4 4.65-.43-1.52-1.5.85-17.22 1.67-20.53.83-3.32 2.1-9.55 3.62-10.7 1.53-1.16-2.6-5.5-2.3-6.28s1.4-3.22 2.96-4.34c0 0 2.89-13.52 1.1-20.17-1.76-6.66-8.26-36.59-48.86-30.6 0 0-54.34-20.9-71.04-15.09z" style="fill:#c00;stroke-width:1.629;stroke:#000" transform="translate(412 157.18)scale(.25333)"/><g transform="translate(413.75 163.8)scale(.27506)"><g stroke-width="1.24" transform="matrix(.49697 -.0446 .08947 .72677 44.7 100.54)"><g id="f"><path d="M49.75.13c-5.1.88-15.16 29.24-12.6 38.74 1.75 6.59 4.49 11.13 6.04 13.91-3.4-4.68-11.38-13.75-22.25-13.75-13.67 0-15.43 29.95-15.1 31.88v.03l.04.03h.03c.6-.72 6.14-13.1 19.65-13.1 8.9 0 15.83 7.04 18.38 10.04q0 1.4.03 2.78c-2 2.83-3.28 9.53-9.47 17.97C27.02 98.86 4.13 99.9.28 100h99.44c-3.85-.1-27.18-1.15-34.66-11.34-6.19-8.44-7.03-15.14-9.03-17.97l.03-2.78c2.55-3 9.48-10.03 18.38-10.03 13.51 0 19.04 12.37 19.65 13.09h.03l.04-.03v-.03c.33-1.93-1.43-31.88-15.1-31.88-10.87 0-18.84 9.07-22.25 13.75a69 69 0 0 0 5.72-13.9C65.12 29.22 55.1.13 50 .12zm-6.44 52.84q.53.73.9 1.28l.56 2.98c0 .07 2.62 10.19 2.62 10.25-.26-.39-3.74-13.91-4.08-14.51zm13.38 0c-.34.6-4.03 14.12-4.3 14.51 0-.06 3.4-13.14 3.4-13.2l-.45 2.95c.25-.36 1-3.77 1.35-4.26z" style="fill:#f7d917;stroke-width:1.241;stroke:#000"/><path d="M42 67.58s4-1.86 8-1.86 8 1.86 8 1.86v4.95s-4-1.86-8-1.86-8 1.86-8 1.86z" style="fill:#f7d917;stroke-width:1.241;stroke:#000"/></g></g><use xlink:href="#f" transform="matrix(.49538 .0597 -.0636 .7295 168.92 96.59)"/><g style="fill:#f7d917;stroke-width:.715;stroke:#000"><path d="m24.3 134.56 9.7-11.81s.9 1.16 0 0C14.13 97.07 13.13 82.33 15.36 74.87S22.07 59.33 34 49.37c11.92-9.94 20.15-4.41 31.33-4.41s14.17 2.48 23.86 3.73c9.69 1.24 35.77 2.49 35.77 2.49v-6.84s1.03.19 0 0c-11.51-2.15-26.08 0-35.77-2.5-9.7-2.48-17.9-3.1-28.33-3.1s-17.92-3.04-24.63 1.31-14.9 11.81-20.87 18.03C9.4 64.3 6.42 76.74 7.16 84.82s3.73 14.92 8.2 21.14c4.48 6.22 3.73 11.19 5.22 15.54 1.5 4.36 3.73 13.68 3.73 13.06zm214.96 0-9.7-11.81s-.9 1.16 0 0c19.87-25.68 20.88-40.42 18.64-47.88s-6.7-15.54-18.63-25.5c-11.93-9.94-20.16-4.41-31.34-4.41s-14.16 2.48-23.85 3.73c-9.7 1.24-35.78 2.49-35.78 2.49v-6.84s-1.03.19 0 0c11.52-2.15 26.09 0 35.78-2.5 9.69-2.48 17.88-3.1 28.32-3.1s17.92-3.04 24.63 1.31 14.9 11.81 20.87 18.03c5.96 6.22 8.94 18.66 8.2 26.74s-3.73 14.92-8.2 21.14-3.73 11.19-5.22 15.54c-1.49 4.36-3.72 13.68-3.72 13.06z"/><path d="M115.55 38.7h34.56v70.89h-34.56z" style="stroke-width:.835"/></g><g style="fill:#f7d917;stroke-width:.5;stroke:#000"><path d="M119.68-23.8s3.72 3.03 6.58 6.92a49 49 0 0 1 4.84 8.65s-4.75-1.98-8.65-4.84-6.92-6.58-6.92-6.58v26.3s3.03-3.71 6.92-6.57 8.65-4.85 8.65-4.85-1.53 3.93-2.52 8.66c-.89 4.25-8.18 14.06-8.18 14.06l21.3 1.43s-3.54-11.24-4.97-15.5c-1.53-4.57-2.16-8.64-2.16-8.64s4.75 1.98 8.65 4.84a43 43 0 0 1 6.92 6.58v-26.3s-3.03 3.71-6.92 6.57a49 49 0 0 1-8.66 4.85s2-4.76 4.85-8.66A43 43 0 0 1 146-23.8z"/><path d="M149.98 23.08a17.14 17.14 0 1 1-34.29 0 17.14 17.14 0 1 1 34.29 0z"/><path d="M116.07 25.53h34.1s.5-6.6-1.97-9.06h-10.6l-.17-9.89h-10.05l-.17 9.9s-7.13.35-10.41.35c-1.5 4.04-1.26 4.38-1.26 4.38z"/></g><g style="fill:#f7d917;stroke-width:.75;stroke:#000"><path d="M110.88 107.22s6.2 5.06 10.98 11.56a81 81 0 0 1 8.09 14.44s-7.95-3.32-14.45-8.09-11.56-10.97-11.56-10.97v43.91s5.06-6.21 11.56-10.98a81 81 0 0 1 14.45-8.09s-3.33 7.95-8.1 14.45S110.89 165 110.89 165h43.91s-6.2-5.06-10.98-11.56a81 81 0 0 1-8.09-14.45s7.95 3.32 14.45 8.1a72 72 0 0 1 11.56 10.97v-43.91s-5.06 6.2-11.56 10.97a81 81 0 0 1-14.45 8.1s3.33-7.95 8.1-14.45a71 71 0 0 1 10.97-11.56zm-83.64 74.56 21.63-3.81s-7-3.9-12.82-9.48-10.48-12.82-10.48-12.82 8.4 1.9 15.63 5.46a72 72 0 0 1 13.29 8.8l-7.63-43.24s-3.9 6.99-9.47 12.81-12.82 10.48-12.82 10.48 1.89-8.4 5.45-15.63 8.81-13.29 8.81-13.29l-21.62 3.81zm199.6-60.72s5.24 6.06 8.8 13.29a81 81 0 0 1 5.46 15.63s-7.25-4.65-12.82-10.48-9.47-12.81-9.47-12.81l-7.63 43.24s6.06-5.24 13.29-8.8 15.63-5.46 15.63-5.46-4.65 7.25-10.48 12.82a72 72 0 0 1-12.81 9.48l21.62 3.81 10.03-56.9z"/><path d="m27.46 179.53.15 31.5s52.65-17.92 105.3-17.92 105.3 17.93 105.3 17.93v-31.5s-52.69-17.94-105.37-17.94c-52.7 0-105.38 17.93-105.38 17.93z"/></g><g fill="#fff" stroke="#000"><g transform="translate(21.25 -360.32)scale(.66123)"><path id="g" d="M2.02 723.05a12.12 12.12 0 1 1-24.24 0 12.12 12.12 0 1 1 24.24 0z"/></g><use xlink:href="#g" transform="translate(10.97 -378.6)scale(.66123)"/><use xlink:href="#g" transform="translate(8.82 -400.03)scale(.66123)"/><use xlink:href="#g" transform="translate(15.25 -420.03)scale(.66123)"/><use xlink:href="#g" transform="translate(28.82 -436.46)scale(.66123)"/><use xlink:href="#g" transform="translate(47.4 -447.89)scale(.66123)"/><use xlink:href="#g" transform="translate(68.1 -446.46)scale(.66123)"/><use xlink:href="#g" transform="translate(88.82 -443.03)scale(.66123)"/><use xlink:href="#g" transform="translate(109.54 -440.89)scale(.66123)"/><use xlink:href="#g" transform="matrix(-.66123 0 0 .66123 242.32 -360.32)"/><use xlink:href="#g" transform="matrix(-.66123 0 0 .66123 252.6 -378.6)"/><use xlink:href="#g" transform="matrix(-.66123 0 0 .66123 254.74 -400.03)"/><use xlink:href="#g" transform="matrix(-.66123 0 0 .66123 248.31 -420.03)"/><use xlink:href="#g" transform="matrix(-.66123 0 0 .66123 234.74 -436.46)"/><use xlink:href="#g" transform="matrix(-.66123 0 0 .66123 216.17 -447.89)"/><use xlink:href="#g" transform="matrix(-.66123 0 0 .66123 195.45 -446.46)"/><use xlink:href="#g" transform="matrix(-.66123 0 0 .66123 174.74 -443.03)"/><use xlink:href="#g" transform="matrix(-.66123 0 0 .66123 154.03 -440.89)"/><g transform="translate(1.04)"><use xlink:href="#g" transform="translate(138.47 -378.32)scale(.66123)"/><use xlink:href="#g" transform="translate(138.47 -392.6)scale(.66123)"/><use xlink:href="#g" transform="translate(138.47 -404.03)scale(.66123)"/><use xlink:href="#g" transform="translate(138.47 -414.46)scale(.66123)"/><use xlink:href="#g" transform="translate(138.47 -447.89)scale(.66123)"/><use xlink:href="#g" transform="translate(138.47 -446.46)scale(.66123)"/><use xlink:href="#g" transform="translate(138.47 -439.03)scale(.66123)"/><use xlink:href="#g" transform="translate(138.47 -428.89)scale(.66123)"/></g></g><g fill="#fff" stroke="#000"><g transform="translate(-.46 -2)"><path id="h" d="M143.57 136.3a10.36 10.36 0 1 1-20.71 0 10.36 10.36 0 1 1 20.71 0z"/></g><use xlink:href="#h" transform="translate(-108.71 16.79)"/><use xlink:href="#h" transform="translate(107.29 16.79)"/></g></g><path d="M134.79 210.1h34.76v15.15h-34.76z" style="fill:#002b7f;stroke-width:.841;stroke:#000" transform="translate(412 157.18)scale(.25333)"/><path d="M16.04 233.11a23 8.56 0 1 1-45.99 0 23 8.56 0 1 1 46 0z" style="fill:#3e8225;stroke-width:1.5;stroke:#000" transform="matrix(-.1718 -.01744 .00604 .24262 461.52 156.97)"/><path d="m36.94 229.29-8.71 8.7 10.1 5.84 23.5-6.3-4.2-13.3zm230.46 0 8.72 8.7-10.1 5.84-23.5-6.3 4.19-13.3z" style="fill:#c00;stroke-width:1.086;stroke:#000" transform="translate(412 157.18)scale(.25333)"/><path d="M16.04 233.11a23 8.56 0 1 1-45.99 0 23 8.56 0 1 1 46 0z" style="fill:#3e8225;stroke-width:1.5;stroke:#000" transform="matrix(.1718 -.01744 -.00604 .24262 439.58 156.97)"/><g fill="#fff" stroke="#000" transform="translate(412 157.18)scale(.25333)"><g transform="translate(1.07 -3.48)"><path id="i" d="M126.2 214.7a4.28 4.28 0 1 1-8.55 0 4.28 4.28 0 1 1 8.55 0z"/></g><use xlink:href="#i" transform="translate(2.4 10.16)"/><use xlink:href="#i" transform="translate(-52.4 6.15)"/><use xlink:href="#i" transform="translate(-47.06 18.98)"/><use xlink:href="#i" transform="matrix(-1 0 0 1 303.07 -3.48)"/><use xlink:href="#i" transform="matrix(-1 0 0 1 301.74 10.16)"/><use xlink:href="#i" transform="matrix(-1 0 0 1 356.55 6.15)"/><use xlink:href="#i" transform="matrix(-1 0 0 1 351.2 18.98)"/></g><path d="M238.54 280.6c3.27-.56 22.97-5.25 27.13-7.76-2.68-4.82-7.49-8.6-3.75-7.01 2.01.85 3.6-5.8-2.24-10.89-16.97 5.57-57.68 15.74-108.83 15.74-52.34 0-93.56-10.7-110.53-16.27-5.85 5.08-4.03 10.86-4.38 13.02 0 .02 0 2.72 1.07 4.88 5.75 6.25 24.4 9.33 27.66 9.9 15.35 2.66 30.7 6.7 86.15 6.7 51.29 0 72.37-5.64 87.72-8.3z" style="fill:#fff;stroke-width:1.714;stroke:#000" transform="translate(412 157.18)scale(.25333)"/><g transform="translate(391.4 139.67)scale(.27506)"><path d="M132.9 289.65c-3 .53-22.14 7.3-25.96 9.62v.06c.32 1.98-3.32 11.25 2.06 15.93 15.63-5.13 59.53-20.4 106.63-20.4 48.21 0 88.14 15.27 103.78 20.4 5.38-4.68 1.73-13.95 2.06-15.93v-.06c-3.82-2.31-22.96-9.1-25.97-9.62-14.14-2.45-28.77-11.58-79.84-11.58-47.23 0-68.61 9.13-82.75 11.58z" style="fill:#fff;stroke-width:1.578;stroke:#000"/><g transform="matrix(1.38439 -.14324 .15642 1.26776 -86.63 -64.76)"><g id="k" fill="#000" stroke="#000"><g transform="translate(56.86 150.9)scale(.4996)"><path id="j" d="M115.5 301.56a1.87 1.87 0 1 1-3.73 0 1.87 1.87 0 1 1 3.74 0z"/></g><use xlink:href="#j" transform="translate(55.53 153.3)scale(.4996)"/><use xlink:href="#j" transform="translate(57.4 154.91)scale(.4996)"/><path d="m113.52 303.67 8.52-3.17-4.18 2.4 2.69-.09-2.5 1.17 4 .27z"/></g></g><use xlink:href="#k" transform="matrix(1.38439 -.14324 .15642 1.26776 -45.03 -76.66)"/><use xlink:href="#k" transform="matrix(1.37843 .19234 -.15163 1.26835 100.17 -120.86)"/><use xlink:href="#k" transform="matrix(1.38439 .14324 .15642 -1.26776 54.43 659.46)"/><use xlink:href="#k" transform="matrix(1.38439 .14324 .15642 -1.26776 96.41 670.42)"/></g></svg>