<svg xmlns="http://www.w3.org/2000/svg" xmlns:xlink="http://www.w3.org/1999/xlink" viewBox="0 0 30 18"><path fill="#fff" d="M0 0h30v18H0z"/><path stroke="#df112d" stroke-width="2" d="m0 0 30 18M0 18 30 0"/><g stroke="#000" stroke-width=".02"><path fill="#e8112d" d="M16.57 2.7c.39 1.55.17 3.48-1.57 4.55-1.74-1.07-1.95-3-1.56-4.56.4-.37 2.27-.6 3.13 0z"/><path fill="#f9dd16" d="M15 2.38c.64 0 1.23.17 1.58.39.07-.54.32-1.08.6-1.49-.3 0-.43.16-.43.32-.08-.2-.37-.2-.46-.08.32.22.07.62-.23.53q-.2-.05-.24-.27a.16.16 0 1 0-.06-.01c-.1.15-.27.2-.39.16a.3.3 0 0 1-.22-.3c0-.33.31-.38.4-.33 0-.22-.34-.4-.45-.21a.6.6 0 0 0-.1-.71c-.21.2-.22.5-.1.71-.1-.18-.45 0-.46.21.1-.05.41 0 .41.32 0 .13-.07.27-.22.31a.35.35 0 0 1-.39-.16.16.16 0 1 0-.06 0q-.04.23-.24.28a.29.29 0 0 1-.23-.53c-.09-.12-.38-.13-.46.08 0-.16-.13-.32-.43-.32.28.41.53.95.6 1.49.35-.22.94-.39 1.58-.39z"/><g id="a"><g fill="#f9dd16"><path d="M16.32 3.91c-.03.01-.03.06-.05.06q.14 0 .17-.08-.01.04 0 .07c.07-.03.1-.1.08-.13q.03.03.08.03c-.06-.04-.02-.13-.1-.18q.06 0 .1.07-.01-.12-.1-.18h.06a.1.1 0 0 1-.05-.1q0-.06-.07-.04l-.22.02c-.13 0-.24 0-.35-.08.16.07.37-.07.37-.18 0-.13-.16-.24-.48-.17s-.7.04-.7-.06.27-.13.41-.1c.15.02.25.03.52-.06a1 1 0 0 1-.45-.02c-.17-.04-.58-.04-.59.18 0 .22.44.2.83.15q.33-.05.34.06c0 .07-.2.1-.36.08a1 1 0 0 0-.51.04c-.16.05-.26 0-.44.03-.08.01-.28 0-.38-.17-.06.05-.25.14-.28.23q-.06.12.04.25c.08.1-.03.08-.11.09-.11 0-.26-.02-.33-.1s-.16-.14-.23-.08c-.04.03 0 .07.03.05l.1.03a.1.1 0 0 0-.13.01c-.03.03 0 .08.04.06q.05-.02.12.01-.06 0-.1.02-.02.04.04.05c.07 0 .08.04.15.03a.1.1 0 0 0-.08.05c.07-.03.14.05.22.03q-.06.02-.08.07c.05-.06.38.04.39-.08a.1.1 0 0 1-.02.1c.04-.03.18-.04.22-.14q0 .05-.03.08.07.02.17-.11.03-.05.02-.08a.2.2 0 0 0 .15-.06c.05-.04.1.04.18-.01s.15-.01.2-.04c.04-.02.1.01.15-.02s.12.02.2-.05c.12.05.27.13.62.07.2-.04.27.03.27.12 0 .07-.04.07-.07.08-.1 0-.16-.05-.2-.03q-.06.03 0 .08-.05.03-.02.06.03.01.1-.01c-.04.02-.09.05-.06.08q.03.05.08 0 .07-.08.14-.08zm-2.26-.97q-.15-.07-.11.04 0 .07.06.11c0-.03.01-.13.05-.15z"/><path d="M14.38 2.94q.15-.07.12.04l-.06.11c0-.03-.02-.13-.06-.15z"/><path d="M14.22 2.88c.2 0 .22.1.22.21 0 .12-.06.08-.1.24q-.04.07-.12.06-.09.02-.1-.06c-.05-.16-.11-.12-.11-.24s.02-.2.21-.2z"/><path d="M13.72 3.34q-.07-.03-.1 0c.07 0 .07.1.21.13h-.08q.08.08.27.1c.08 0 .03.04-.02.02.05.05.16 0 .23.1 0-.07-.13-.2-.07-.29-.2 0-.21-.11-.33-.2-.09-.07-.1-.15-.14-.28q-.05-.1-.13-.09-.05.03-.02.07.06.02.08.08-.07-.07-.12-.03-.03.04.02.06c.06 0 .02.07.09.12q-.09-.1-.15-.03-.02.05.04.05c.06 0 .13.15.22.19zm1.6.56c-.03 0-.02.06-.06.06q.14 0 .2-.06-.04.03-.04.07c.06-.05.18-.05.25-.04q.08 0 .1-.06t-.04-.1-.04-.16c-.17-.23-.49-.12-.5-.02.12.14.14.12.23.14q.17.01.1.07-.06.02-.2.02c-.15 0-.23-.12-.27-.05q-.05.07.08.07c-.06 0-.13 0-.12.04.02.09.1-.01.14.02q-.06 0-.07.04c0 .03.06.06.13 0z"/><path d="M15.46 3.54a.3.3 0 0 0-.18-.02m-.68 0c-.05.1-.03.15-.02.2m-.48-.68c.02.01.04-.03.09.02-.01-.02-.03.03-.07 0m.24-.02c-.04.01-.06-.03-.1.02.01-.02.03.03.06 0m-.06 0q-.02-.01 0 .03c0 .08.03.12-.04.12-.06 0-.04-.04-.03-.12v-.03"/></g><path fill="#ff0016" stroke-width=".01" d="M14.22 3.36q.1.02.08-.07.02-.03.02-.1c.01.07-.1.06-.1.03 0 .03-.1.04-.1-.02l.03.09q0 .09.07.07zm-.04-.15-.13-.03m.13.04h-.14m.14.01-.12.03m.21-.05.13-.03m-.13.04h.14m-.14.01.12.03"/><path fill="#0051ba" stroke-width="0" d="M13.57 2.84c-.03-.05-.12-.01-.13.05.03-.04.08.01.11 0q.04-.01.02-.05zm-.04.1c-.04-.04-.13 0-.13.05.03-.03.08.02.1 0q.04-.01.03-.05zm-.03.15c-.04-.04-.13 0-.12.06.03-.04.08.01.1 0q.05-.02.02-.06zm.05.45c-.05-.04-.13.02-.12.08.02-.05.08 0 .1-.02q.03-.04.02-.06zm-.01.1c-.05-.02-.11.06-.08.1 0-.04.08-.02.1-.05q0-.03-.02-.05zm.07.06c-.05-.01-.11.07-.08.12 0-.05.08-.03.1-.05q0-.04-.02-.06zm1.44.15c-.06-.02-.12.06-.09.11 0-.05.08-.03.1-.05q.02-.04-.01-.06zm.07.07c-.06-.02-.1.07-.07.12 0-.05.07-.04.09-.07q0-.03-.02-.05zm-.05-.16c-.05-.03-.12.04-.1.09.01-.05.08-.01.1-.03q.02-.04 0-.06zm1.02.11c-.06-.01-.1.07-.07.12 0-.05.07-.04.09-.06q0-.04-.02-.06zm.01-.09c-.06-.03-.13.05-.1.1 0-.05.07-.02.1-.04zm.03.17c-.06 0-.1.08-.07.12 0-.04.08-.04.09-.06q.01-.04-.02-.06zm-1.9-.63q.05-.02.05.07.01.2-.05.2-.05 0-.04-.16v-.07q-.01-.05.04-.04z"/></g><use xlink:href="#a" transform="matrix(.9 0 0 .9 1.45 1.67)"/><use xlink:href="#a" transform="matrix(.67 0 0 .75 4.9 3.35)"/></g></svg>