<svg xmlns="http://www.w3.org/2000/svg" xmlns:xlink="http://www.w3.org/1999/xlink" viewBox="0 0 660 440"><path fill="#00785e" d="M0 0h660v440H0z"/><path fill="#fbd116" d="m330 82.96-14.21 43.73L353 99.67h-45.99l37.2 27.02z"/><g id="a"><path fill="#fff" d="M330 303.99h-93.94q-1.78-1.8-3.49-3.67H330a1.95 1.95 0 0 1 0 3.67m0-28.73a11.4 11.4 0 0 0 0-10.41 75 75 0 0 1-29.78 17.4 74 74 0 0 1-21.55 3.18h-57.88q2.56 3.76 5.37 7.33h55.94a74 74 0 0 0 47.9-17.5m-100.46-22.63a30 30 0 0 1-8.89 1.92 74.2 74.2 0 0 0 55.72 25.15c21.07 0 40.1-8.78 53.63-22.87a404 404 0 0 0 0-116.03c-6.04 5.42-17.37 17.13-22.71 35.08a74 74 0 0 0-3.07 21.2 74 74 0 0 0 12.54 41.33 74 74 0 0 1-15.52-45.45 74 74 0 0 1 7.13-31.79 30 30 0 0 1-6.9-11.9 74 74 0 0 0-9.63 36.58 74 74 0 0 0 14.56 44.18 87.2 87.2 0 0 0-67.24-27.01c2.5 2.33 4.6 5.09 6.18 8.16a87.2 87.2 0 0 1 62.97 26.95 87 87 0 0 0-56-20.3 87 87 0 0 0-33.6 6.69 74.4 74.4 0 0 0 75.7 47.82 75 75 0 0 1-13.22 1.17 74 74 0 0 1-51.65-20.88M330 334h-48.68a132 132 0 0 0 48.68 9.28 10 10 0 0 0 0-9.28m0-22.46h-85.83a132 132 0 0 0 7.17 5.73H330c.2-.2 1.17-1.23 1.17-2.86s-.97-2.67-1.17-2.87m0 11.46h-70.3q6.38 4.04 13.24 7.33H330a6.9 6.9 0 0 0 0-7.33"/><path fill="#fbd116" d="m237.64 150.67-13.44 28.84 27.82-15.43-31.58-3.88 23.27 21.7zm23.02-38.4 9.31 30.43 10.36-30.09-26.07 18.25 31.82.55z"/></g><use xlink:href="#a" transform="matrix(-1 0 0 1 660 0)"/></svg>