<svg xmlns="http://www.w3.org/2000/svg" xmlns:xlink="http://www.w3.org/1999/xlink" viewBox="0 0 900 600"><path fill="#cf142b" d="M0 0h900v600H0z"/><path fill="#fff" d="M0 0h450v600H0z"/><path fill="#e60d2e" d="M22.22 82.83v45.46h45.46c0 7.57 7.57 15.15 15.15 15.15v45.45h45.45v-45.45c7.58 0 15.15-7.58 15.15-15.15h45.46V82.82h-45.46c0-7.58-7.57-15.15-15.15-15.15V22.22H82.83v45.46c-7.58 0-15.15 7.57-15.15 15.15z"/><path fill="#96877d" d="M25.25 85.86v39.4h45.46c0 7.57 7.57 15.14 15.15 15.14v45.46h39.39V140.4c7.58 0 15.15-7.57 15.15-15.15h45.45v-39.4H140.4c0-7.57-7.57-15.14-15.15-15.14V25.25h-39.4v45.46c-7.57 0-15.14 7.57-15.14 15.15z"/><path fill="#ccc" d="M26.77 87.37v36.37h45.45c0 7.57 7.58 15.15 15.15 15.15v45.45h36.37V138.9c7.57 0 15.15-7.58 15.15-15.15h45.45V87.37h-45.45c0-7.57-7.58-15.15-15.15-15.15V26.77H87.37v45.45c-7.57 0-15.15 7.58-15.15 15.15z"/><g id="a" fill="#d0d0d0"><path fill="#96877d" d="M84.54 71.68c2.66 2.66 1.94 7.7-1.61 11.25s-8.59 4.27-11.25 1.6c-2.66-2.65-1.94-7.7 1.6-11.24 3.56-3.55 8.6-4.27 11.26-1.6"/><path d="m71.14 79.72 1.07-1.08 4.29 2.15-2.14-4.29 1.07-1.07L79.7 84zm6.43-6.43 1.07-1.07 6.43 6.42L84 79.72z"/></g><use xlink:href="#a" transform="rotate(90 105.56 105.56)"/><use xlink:href="#a" transform="rotate(180 105.56 105.56)"/><use xlink:href="#a" transform="rotate(270 105.56 105.56)"/><g fill="none" stroke="#96877d" stroke-width=".51"><circle cx="105.56" cy="105.56" r="31.82"/><circle cx="105.56" cy="105.56" r="24.25"/></g><circle cx="93.43" cy="131.31" r="1.51"/><circle cx="117.67" cy="131.31" r="1.51"/><path d="M104.55 131.31v1.58h-2.02c-2.02 0-2.02 1.58 0 1.58h2.02v1.58c0 1.64 1.76 1.84 1.9.14l.12-1.71h2.02c2.02 0 2.02-1.58 0-1.58h-2.02v-1.58c0-1.58-2.02-1.58-2.02 0zm-28.6-17.91 2.09-.5-.23-.96q-.08-.33-.27-.45-.18-.12-.62-.07l-.04-.15 1.8-.42.03.14q-.3.08-.43.19a.5.5 0 0 0-.17.26 1 1 0 0 0 .02.42l.23.97 1.67-.4q.4-.1.52-.18.09-.06.13-.2a1 1 0 0 0 0-.38l-.04-.2.14-.03.55 2.27-.15.04-.04-.19q-.09-.33-.3-.43-.16-.07-.63.05l-3.43.82a2 2 0 0 0-.52.17q-.09.07-.13.2a1 1 0 0 0 0 .39l.04.18-.15.04-.94-3.95 1.16-.32.03.13q-.35.2-.49.37a1 1 0 0 0-.17.4q-.03.2.07.62zm-1.34-9.4q.06-1.05.91-1.8.85-.72 2.05-.66 1.24.07 2.02.9.77.83.7 1.94a2.5 2.5 0 0 1-.9 1.85q-.84.73-2.1.64a2.8 2.8 0 0 1-2.07-1 2.6 2.6 0 0 1-.6-1.87m.29.1q-.05.72.48 1.2.63.57 1.94.65 1.33.08 2.08-.45.58-.4.61-1.13.05-.75-.52-1.3-.57-.52-1.86-.6-1.4-.07-2.12.43-.57.41-.61 1.2m7.9-9.96-.52 1.36-3.04.82-.2.53 1.48.56q.48.2.63.13.22-.09.33-.37l.08-.2.14.05-.83 2.19-.14-.06.07-.19q.12-.32-.03-.54-.1-.12-.53-.29l-3.29-1.25q-.48-.18-.63-.12-.22.08-.34.37l-.07.19-.14-.05.7-1.86q.31-.8.58-1.15t.69-.49c.43-.15.56-.09.86.02q.45.18.7.62.22.44.12 1.13l1.86-.5q.65-.16.9-.36.27-.2.48-.6zm-4 2.62.08-.2q.28-.74.1-1.23a1 1 0 0 0-.66-.67 1.1 1.1 0 0 0-.89 0q-.4.18-.6.68-.07.22-.15.61zm11.6-18.05 1.05 1.36-.12.08a2.4 2.4 0 0 0-.99-.51q-.66-.14-1.3.28-.87.57-.88 1.55 0 .83.52 1.64.42.66 1.02 1.03.6.38 1.18.36a2 2 0 0 0 1.45-.67q.2-.22.33-.49l-.85-1.32a2 2 0 0 0-.35-.41.4.4 0 0 0-.27-.06q-.14 0-.42.2l-.08-.14 1.77-1.14.08.13-.08.05q-.27.17-.25.4.02.18.25.55l.91 1.4q-.26.45-.57.8a4 4 0 0 1-.77.64q-1.33.85-2.57.45A2.7 2.7 0 0 1 88 83.76q-.39-.6-.46-1.35-.07-.88.3-1.62.3-.62 1-1.06a3 3 0 0 1 1.16-.45q.24-.06.3-.1a.2.2 0 0 0 .07-.13q.02-.08-.09-.26zm8.87.61-2.04.54-.14.93q-.05.35 0 .5.02.1.16.17c.14.07.27.04.53 0l.04.13-1.66.45-.04-.15q.32-.14.39-.26.15-.24.24-.88l.7-4.82.13-.04 3 3.9q.36.46.59.57t.55.04l.03.15-2.07.55-.04-.14q.3-.1.4-.22a.3.3 0 0 0 .05-.25 2 2 0 0 0-.3-.5zm-.19-.26-1.46-1.89-.35 2.37zm9.62-.03.14.04-.53 1.46-4.21-.17v-.15l.2.01q.35.01.51-.2.1-.13.1-.6l.14-3.5q.03-.52-.08-.65-.16-.18-.46-.2h-.2v-.15l2.46.1v.14q-.44-.02-.61.06a.5.5 0 0 0-.25.2q-.07.14-.09.61l-.13 3.43q-.02.33.05.46.03.08.14.13.1.04.62.06l.4.02q.63.02.88-.06.26-.09.48-.31.22-.23.45-.73m7.26 1.95.12.06-.9 1.26-4.01-1.32.04-.14.2.06q.33.1.54-.06.12-.09.26-.54l1.1-3.33q.17-.49.1-.65-.09-.22-.39-.31l-.19-.06.05-.15 2.34.78-.05.14a2 2 0 0 0-.6-.11.5.5 0 0 0-.3.12q-.1.1-.25.57l-1.07 3.25q-.1.3-.09.45.03.1.1.17.1.06.59.23l.38.13q.6.2.86.19.27-.02.54-.17.28-.16.63-.57m5.85 3.1-1.72-1.23-.8.5q-.3.17-.39.3-.06.1-.03.25.05.15.35.4l-.08.12-1.4-1 .08-.12q.31.15.45.13.28-.04.83-.38l4.15-2.55.12.08-1.07 4.8q-.13.57-.07.82.06.23.32.45l-.1.12-1.75-1.24.09-.13q.27.18.42.17t.23-.12q.1-.15.19-.55zm.08-.31.52-2.34-2.05 1.25zm6.46 1.19.88 1.19-1.3 5.1 2.53-1.87q.4-.3.44-.46.04-.22-.15-.48l-.11-.15.12-.09 1.13 1.53-.12.08-.12-.15q-.2-.28-.46-.27-.15 0-.52.28L127 92.4l-.09-.11 1.39-5.5-2.7 2q-.4.3-.44.46-.05.22.15.47l.11.16-.12.09-1.12-1.53.11-.08.12.15q.2.28.46.27.16 0 .52-.28l3.05-2.25q.08-.36.08-.51t-.08-.39a1 1 0 0 0-.19-.3zm6.87 12.66-1.18.48-.05-.14q.3-.16.41-.28a1 1 0 0 0 .22-.42q.04-.24-.08-.55l-.26-.73-3.92 1.4q-.47.15-.56.3-.1.2 0 .5l.06.18-.14.05-.77-2.18.14-.05.07.18q.12.33.36.4.16.04.58-.12l3.93-1.38-.22-.62q-.13-.36-.24-.5a1 1 0 0 0-.4-.23 1 1 0 0 0-.6.02l-.05-.14 1.22-.37zm-4.3 9.67-.08-1.46 2.44-1.97-.03-.57-1.58.08q-.51.03-.63.15-.17.16-.15.46v.22h-.14l-.12-2.33h.15v.2q.03.34.26.48.12.08.6.05l3.5-.18q.52-.03.64-.14.17-.17.15-.48v-.2l.14-.01.1 1.98q.04.86-.06 1.29-.1.4-.42.72-.33.3-.8.33-.5.02-.89-.29-.38-.3-.57-.98l-1.5 1.2q-.53.42-.68.7c-.15.28-.17.44-.2.74zm2.59-4.02v.23q.05.78.4 1.16.37.37.88.35.5-.03.82-.37.3-.33.27-.86 0-.23-.1-.62zm1.5 11.21-.5 1.84-.13-.03.02-.1q.03-.1-.01-.32a1 1 0 0 0-.16-.43 4 4 0 0 0-.45-.53l-1.66-1.8-1.33-.34q-.48-.13-.63-.05-.2.1-.29.42l-.04.17-.14-.04.58-2.24.15.04-.05.19q-.09.33.08.53.1.1.54.23l1.25.33 2.59-.87q.46-.16.57-.22.13-.06.34-.32l.1-.21.14.03-.6 2.26-.14-.04.03-.12a1 1 0 0 0 0-.35.3.3 0 0 0-.21-.22q-.14-.05-.57.1l-1.99.65 1.36 1.46q.3.33.48.38a.4.4 0 0 0 .39-.13 1 1 0 0 0 .13-.3z"/><g fill="#96877d" stroke="#000" stroke-width=".2"><path d="M122.85 110.19c.53-.13 1.4-.03 1.4-.03s.09.37-.14.5c.25.14 1.17.1 1.17.1s-.35.27-.53.38c.33.03.74.46.74.46s-.77.13-1.1-.05c.2.4.18.77.18.77s-1.25-.31-1.7-1.13m-2.1-1.7c-.3.74-2.51-.64-2.51-.64s.97 1.54 2.43 1.72m-27.51 13.09h25.88l2-1.59-3.33-1.8-5.13-1.73-2.05-1.13-3.79.2-3.18 1.7-4.35.5L98.2 121l-3.23.25-5.07-.1 8.46 1.33-6.97-.36z"/><path d="M107.12 116.23c-3.24-1.74-4.19 2.55-5.59 3.59 1.89.32 3.31-1.45 4.92-2.3 1.23 3.32 3.16 1.12 3.16 1.12s2 3.19 4.68 1.74c.73.55 1.54.05 1.54.05s.97.18 1.18-.25c.51.17 1.08-.47 1.08-.47s1.11.02 1.33-.56c1.65.3 3.84-3.38 3.84-3.38l.67-1.28.97-.2s.06-.65-.46-.62c-.01-.39-.35-.6-.82-.51.09-.24-.26-.41-.26-.41-.92.23-.97 2.56-.97 2.56s-1.61 1.23-2.2 1.53c-.03-1.33-2.26-3.13-1.8-4 .46-.85 1.91 1.33 3.18.93s1.9-2.05 1.95-3.33c-.36-.87-1.23-2.3-1.23-2.3l-.82-.06-.72-1.74s-1.51.99-1.49 1.84 1.6 1.6 1.6 1.6-.9.56-1.75.3c-.08.87 1.03.7 1.44.72.2.63.82.97.82.97s.38.96-.62.87-2.18-2.39-3.59-1.33c-1.5 1.13.67 3.18.67 3.18s-1.32.69-2.1 2.46c-3.2-2.7-5.06-1.44-8.61-.72z"/><path d="M102.46 111.67c1.33 1.26.4 3.34.92 3.74.55.42 1.33-.2 1.33-.2 1.4.37 3.9-.41 3.9-.41 1.1.61.66-.3 1.33-.26.6 1.51 2.56 1.23 2.56 1.23s-1.8-1.85-2.92-2.36c-.86.51-3.35.6-3.79.51-.48-.08-.18-.67-.4-1.02.9-.9.18-3.11-.32-3.95-2.03-1.35-4.47.97-2.61 2.72zm-8.86-3.75c-1.68.45-4.58-2.16-5.94-1.16s-.73 3.48.18 4.71c.88 1.2-1.3 1.64-1.89 2.36-.55.67.18 1.45.18 1.45l.62.4-.1.9.32 1.09s.3.26.4-.08c.28.29.03 1.1.72 1.2-.25-.52.18-1.96.18-1.96s1.22.1 1.52-.43-.29-1.67-.29-1.67h.37c-.41-.28-.55-1.12-.55-1.12s1.69-.54 1.67-1.81c-.02-1.28-2.74-2.64-1.74-3.3 1.1-.73 3.03 1.9 4.68.69 1.63-1.2.57-.04.57-.04s.75-1.68-.9-1.23zm8.65-17.95c-2.24-.93-6.82-1-9.38-2.25-1.12.07-1.62.95-1.66 1.3-1.17-.05-1.97 1.79-1.8 2.16-2.13-.87-3.12 2.5-2.43 3.2-1.82.07-1.6 2.4-1.77 3.05-.58 1.41.13 1.89 1.28 1.38.18.62-.07.96-.59 1.08 3.16 3.61 4.95-2.23 7.72-2.2 3.45-1.02 4.81-2.72 4.81-2.72l1.36.18z"/><circle cx="105.14" cy="87.38" r="3.31"/><path d="M99.33 113.41c-2.05-.37-5.44-2.5-5.79-5.28 1.9-7.5 11.75-3.58 12.6-9.22-.21-3.71.45-7.4 2.52-10.5.96-1.22 2.2-1.54 2.2-1.54s.22.79-.1 1.33c1.62-.18 3.85.73 5.38.82.45.9.4 1.24.3 1.8-.1.54-.71.4-.71.4-.4.38-.88.76-1.95.57-.8.61-2.51.76-2.51.76s3.56 3.76 2.97 4.92c.74.35 1.85 2 1.85 2s2.43-1.28 3.22-2.46c1.41 0 3.72 1.48 4.87 1.64l2.82 2.3s-1.68 1.11-2.4-.35c-.9.08-2.8-2.04-5.44-1.38-.08 2.34-2.66 4-2.66 4s2.41-.35 3.74.45c1.37 1.16 3.38 2.72 3.38 2.72l1.8 3.07s-1.65.29-2.26-1.84c-.62 1.72-.64-1.06-3.08-2.36-.74.1-1.11.14-1.74-.36-1.75.48-3.83 1.5-6.3 1.23-1.76.55-3.04 2.01-4.82 2.82-1.78.8-2.3.41-2.3.41l-1.44.05c-.2.87-.09 2.18-.87 2.41.5.54-.36 2.83-1.23 3.23.4 1.47 1.61 1.92 2.87 2.66 0 0 1.11-.5 1.84.16s1.49 2.56 1.49 2.56-1.52.1-2-.1-.52-.7-1.08-.57c-3.47-3.08-5.3-1.86-5.63-2.56-.34-.72.82-2.6.46-3.79z"/><path d="M90.99 99.66c.18-.23 1.45.25 1.45.25l2.32 1.45 4.7 3.04 1.68 2.43-3.01-.98-4.17-3.59-2.25-1.45s-.9-.93-.72-1.16zm27.86 7.71c-1.63-.41-5.64 4.46-5.64 4.46l3.03 3.28s.09-5.59 2.61-7.74z"/><path d="M99.02 93.79c-.88 1.14-.96 3.43.2 4.35.1 1.4 1.28 4.2 2.21 4.46 1.02.29 5.07 1.23 6.66.98-.3 2.57 1.72 4.64 3.59 6-.01.22-.02.5.2.79.2.28 1.2.33 1.23.18.44.6 2.55.88 2.7.6.15-.26-3.1-2.53-3.82-3.22a20 20 0 0 1-2.05-5.74c-1.6-1.9-4.34-1.86-4.34-1.86l.08-3.72.16-4.2-1.49-.77s.3-.14.46-.31c.36.15 1.04-.57 1.13-.78.34.13.65.12.71-.06.05-.16.12-.88.24-1.25 1.12-.99-.16-3.08-1.88-3.11-1.7-.04-2.07 2.02-2.04 2.18.16.64.12.97 0 1.12-.13.16-.72.52-.72.52s-.95-.45-2.1 0-2.45 1.05-2.51 1.79c-.53.08-1.38.76-1.54 1.33-.46-.09-1.06.3-2.05 1.9-1.77.78-1.87 4.56-1.87 4.56s-.48.7-.5 1.06.17.7.4.64c.03.25.35.46.49.39.05.24.4.38.61.34.02.17.7.13.76-.02.06-.17-.07-1 .01-1.07.07-.06.64.37.8.26.15-.12-.04-.49-.12-.63-.08-.13-.56-.27-.68-.87s.3-1.43.3-1.43 1.93-1.52 2.15-2.81c1.44.14 2.21-1.12 2.62-1.6z"/><path d="M95.68 88.37c.44-1.07 2.02-.97 2.02-.97s.57-1.5 2.7-.6c.81-.63 2.93.26 2.93.26s.79-1.05 1.83-.93c1.92.22 2.24 1.99 2.13 2.3-1.06.26-2.88-.87-4.27-.55-.81.46-2.12.94-2.61 1.6-1.29.14-2.66-1.18-4.73-1.11zm4.01 1.78c.48-.3 1.66-.81 2.46-.18.84.9 2.13 1.74 2.13 1.74l1.46.62.66.4-.43 6.7c-1.36-1.39-2.62-1.63-3.6-3.26-.51-.7-.11-2.37-1.02-3.48-.9-1.11-1.86-1.86-1.66-2.54z"/><path d="M103.2 92.08s.77-.14.98.04c.27.09.52.17.6.4.29.08.49.23.49.45.27.07.38.56.38.56l-.26.38s-.29-.27-.32-.56c-.19-.09-.6-.19-.7-.45q-.47-.06-.57-.47c-.3.06-.6-.35-.6-.35z"/><path d="M109.68 87.72c-.44-.49-1.2-.13-1.2-.13l-2.05 3.53-.9.75-.08 2.76.75 2.6-.26 2s1.03-.98 1.15-1.52c.12-.52-.38-2.2-.38-2.2s-.62-1.05.13-3c.74-1.95 2.43-3.56 2.84-4.8z"/><path d="M114.74 90.87s-3.2 4.57-8.44 6.2c-1.45.34-.92-3.38-.92-3.38l-.36.1s-.8 3.65 1.13 3.69c5.26-1.04 9.21-6.58 9.21-6.58zm2.17 26.29s-.49.36-1.13 0c-.33-.77-1.23-.82-1.23-.82s-.57-1.66-1.48-1.18c-.14-.86-1.13-.4-1.13-.4s-.03-1.25-1.18-1.08c.39-1.43-1.59-1.34-1.59-1.34s-.06-1.6-2.97-1.28c6.26-2.8 11.22 4.4 11.22 4.4m2.46 2.31s1.45 1.63 2.2 1.64.82-1.59.82-1.59.25.7.62.51c-.04.49.46.62.46.62s-1.3 3.03-5.02.15m-10.41-.71-.51 2.1s-.66.59-.46.72c.19.13 1.23-.2 1.23-.2s1.61-.2 2.1-.67c.33.75 1.07.82 1.07.82s.05-.32-.05-.52c.36.07.67-.05.67-.05s.2-.59-.26-.82c.05-.43.27-.82-.51-.77-.58.62-2 1.32-2.36 1.08s1.41-1.02.92-2.05"/></g></svg>