<svg xmlns="http://www.w3.org/2000/svg" viewBox="0 0 900 600"><path d="M0 0h900v600H0z"/><path fill="#fff" d="M0 0h900v206.25H0z"/><path fill="#007168" d="M0 0h900v187.5H0z"/><path fill="#fff" d="M0 393.5h900V600H0z"/><path fill="#fce100" d="M0 412.5h900V600H0z"/><path fill="#d21034" d="M0 0v600l393.75-300z"/><path fill="#fce100" d="m204.37 412.48-73.15-53.55-73.06 53.57 28.33-86.12-73.52-52.93 90.66.33 27.61-86.28 27.7 86.33 90.6-.4-73.55 53.02z"/><path fill="#fff" fill-rule="evenodd" stroke="#000" stroke-linecap="round" stroke-linejoin="round" stroke-width="1.57" d="M67.72 352.43h52.7c4.24 4.75 13.7 6.7 22.71-.06 16.52-9.04 48.48.06 48.48.06l6.29-6.69-15.34-50.34-5.5-5.9s-11.8-7.08-34.22-4.72-30.28-.78-30.28-.78-19.67 2.36-25.17 5.11c-.6.49-6.3 6.3-6.3 6.3z"/><path fill="none" stroke="#000" stroke-linecap="round" stroke-linejoin="round" stroke-width="1.57" d="M78.34 339.45s50.34-6.3 64.9 12.98c-8.22 5.62-15.46 6.08-23.21.4 1.23-2.07 18.1-19.67 60.96-13.77"/><path stroke="#000" stroke-linecap="round" stroke-linejoin="round" stroke-width="1.57" d="m132.22 289.11-.4 55.45m45.23-54.66 9.44 44.04M87.91 289.2l-5.24 22.72"/><path fill-rule="evenodd" stroke="#000" stroke-linecap="round" stroke-linejoin="round" stroke-width="1.57" d="M33.5 358.47 45.89 373c1.46.86 2.75.8 4.04 0l18.37-22.04 7.7-9.56a6 6 0 0 0 1.47-4.4l14.75-13.1c1.2.08 1.92.21 3.13.3-1.42-.38-2.47-1.07-1.35-2.63l3.3-2.57 2.58 3.3s-3.67 4.78-4.04 4.78H91.8l-7.72 6.98 3.38 2.98 5.07 13.92 6.25-4.41-4.04-14.33 8.81-9.55-3.3-5.14 2.2-2.94s30.51 19.2 42.27 14.07c.32.11.71-13.7.71-13.7s-31.59-3.31-32.33-9.56 6.98-6.97 6.98-6.97l-3.3-4.78.73-2.57 5.51 6.98 12.5-10.66 73.46 83.76c4.01-1.63 4.87-2.6 5.14-6.61l-72-82.66 5.52-5.87c1.08-1.23 1.46-1.75 1.46-3.68l8.45-7.34a10.5 10.5 0 0 1 5.51 4.4l23.23-19.68c.61.61 2.47 1.22 3.73.53l38.4-36.86-41.85 29.57-1.47-1.1c0-1.23 1.52-1.53 0-3.68-1.62-1.95-4.04 1.84-4.4 1.84s-6.06-2.01-7.3-4.56l-.42 6.76-10.65 9.92-8.08-.37-11.76 11.39-1.47 4.4 1.84 3.68s-6.25 5.51-6.25 5.14c0-.36-1.26-1.62-1.31-1.78l5.36-4.83.73-3.3-1.79-2.8c-.54.4-7.4 7.57-7.76 6.84L112 248.1l1.1-4.04-12.48-13.6c-4.56-1.57-11.76-1.83-13.23 8.09-1.14 2.33-10.65.37-10.65.37l-5.15 1.1-29.02 41.14 16.17 19.47 33.06-41.88.98-11.86 6.94 7.75c2.31.3 4.51.33 6.6-.73l19.6 21.86-3.26 3.19c1.1 1.22 1.86 2 2.96 3.23 1.1-.74 2.15-1.62 3.25-2.36.37.5.98 1.43 1.35 1.92-1.64.89-2.8 2.08-4.43 2.97-2.63-1.7-5.16-3.84-4.97-7.23l-11.02 9.18-.37 1.84-32.7 27.18-2.93.37-.74 8.45 21.31-17.64v-2.57l2.2 1.84 16.53-13.22s1.1 1.46.74 1.46-14.7 13.23-14.7 13.23l-.36 1.47-2.57 2.2-1.47-1.1-19.84 17.63h-2.94l-11.02 11.02c-2.84.25-5.3.55-7.71 2.2z"/></svg>