<svg xmlns="http://www.w3.org/2000/svg" xmlns:xlink="http://www.w3.org/1999/xlink" viewBox="0 0 900 450"><title>Flag of New Caledonia</title><path fill="#009543" d="M0 0h900v450H0z"/><path fill="#ed4135" d="M0 0h900v300H0z"/><path fill="#0035ad" d="M0 0h900v150H0z"/><circle cx="300" cy="225" r="147.48" fill="#fae600" stroke="#000" stroke-width="5"/><path stroke="#000" stroke-width="6" d="M275 247h50m-50-37h50M300 78v252"/><path d="M240.62 360.42c60.2 24.58 116.6 1.5 116.6 1.5s-21.29-23.04-32.2-32.04c-10.66-8.78-42-8.43-52.7 0-8.92 7.04-34.51 32.97-31.7 30.54"/><ellipse cx="300" cy="293" rx="16.5" ry="24"/><ellipse cx="300" cy="228.5" rx="20" ry="12.66"/><circle cx="300" cy="170" r="20"/><path d="M324 95.5c0-.01 1.73 2.87-1.91 9.44-17.43 31.38-34.92 32.06-38.23 34.76-3.66 2.98-5.2 2.77-5.2 2.77.25-2.68.5-13.68.69-14.73 2.64-14.67 24.8-14.46 42.13-29.48 2.7-2.34 2.51-2.77 2.51-2.77Z"/><path id="a" d="M265.5 163s3.91 11.23 4.5 22.5c.94 18 18.18 18.5 30 18.5v-10c-8.86 0-16.55-1.32-23-14.5-3.18-6.5-11.5-16.5-11.5-16.5m-.5 145s6.3-7.77 13.66-25.97C282.5 272.53 291.61 267 300 267v-14c-19.03 0-28.15 7.06-29.11 17.36C268.9 291.54 265 308 265 308"/><use xlink:href="#a" transform="matrix(-1 0 0 1 600 0)"/></svg>