<svg xmlns="http://www.w3.org/2000/svg" viewBox="0 0 920 460"><path fill="#007934" d="M0 0h920v460H0z"/><path fill="#fff" d="M280 0h360v460H280z"/><path fill="#007934" d="m463.32 30.58-2.41 26.11-8.85 1.33s6.14 3.45 7.22 6.91q.24.85-.15 1.36-.13.17-.32.32c-1.78 1.37-7.04.72-7.04.72s6.97 5.88 7.5 8.02l.04.14v.14l-.06.12q-.08.16-.23.32c-1.64 1.51-9.37 1.94-9.37 1.94s8.57 6.1 9.1 9.57c.49 3.14.08 4.98 0 5.3-.6-.52-14.41-12.13-23.32-8.74q-.66.34-.82.66a.6.6 0 0 0-.03.35c.63 1.93 13.23 3.9 22.02 11.51-.22 1.9-25.05-6.05-25.97-1.07.77 1.4 26.73 5.15 28.65 8.53-9.56.36-29.3-2.1-28.65 1.04-2 3.63 18.65 1.58 27.3 4.54 2.55 2.87 2.3 5.28-2.11 5.59-8.35-3.97-27.04-6.92-27.08-1.86v.03l.03.03.02.06.15.09c2.11 1.05 19.51.54 26.06 4.86-9.29 2.1-40.78-4.27-40.98-1.16.9 1.45 5.88 7.81 14.46 7.55 8.57-.27 28.4 3.46 29.75 6.13q.05.13.03.23c-.58 1.86-26.13-5.67-35.95-1.04-10.18 4.8 29.2 1.89 35.63 7.75s-12.86-.55-12.86-.55-26.78-3.72-30.8-1.85c-4.02 1.86-8.58 6.13-8.58 6.13s2.67 5.32 5.35 4.25q.61-.23.85-.14h.03l.02.03.03.02.03.03.03.03.03.12c.06.8-1.83 3.12-1.83 3.12s37.53 9.04 45.84 17.04c8.3 7.99-47.7-12.53-47.7-12.53s-22.51 8.26 1.34 8.8c-2.66 3.86 1.1 6.24 1.33 6.39 0 0 39.67 8.26 43.69 14.66s-27.06-6.14-34.03-9.6c-6.72-3.34-25.43 1.77-26.5 3.32l-.03.06v.15l.03.02v.03l.06.1.03.02c1.2 1.31 9.55 3.12 9.8 5.38v.03q0 .2-.08.37c-1.06 2.03-11.02 2.9-11.44 4.8l-.02.12c0 2.13 50.12 12.52 63.52 23.72s-39.38-13.34-39.38-13.34 2.94 4 0 5.06c-2.95 1.07-13.42-14.92-30.57-5.06-3.13 4.06 14.97 7.28 19.57 7.72-1.57 4.02-2.94 5.35 3.5 9.35q1.04.64 1.24.83l.03.03.03.03v.06h-.06c-1-.15-12.55-6.06-13.75-6.3h-.09c0 .53 1.34 6.94 1.34 6.94-5.94-4.8-13.12-6.25-19.84-1.33-.01.28-.06 4.88 6.69 7.72-3.8 7.73 4.3 5.33 17.16 12.52-19.12-4.97-20.65 4.26-6.98 6.4s51.19 3.46 60.03 14.92c1.87 2.41 2.37 3.63 2.01 4.02-1.47 1.32-15.04-8.43-17.02-8.8h-.02l-.03.03-.1.15c-.47 1.06-.92 5.67-.92 5.67-5.72-3.3-10.96-6.25-17.8-7.64-.54 1.07-.43 2.58-.96 3.64-6.2-4.44-11.61-7.57-20.62-8l-1.08 4.27s-7.51-9.32-22.25 0c-8.23 5.87 31.09 2.13 37.52 9.06 6.43 6.92 1.34 7.98 1.34 7.98l-16.06-5.84s-19.04-3.49-24.4.78c-5.36 4.26 78.24 14.66 80.65 26.11 1.63 6.22-19.64-6.5-38.04-11.97l-2.15 6.1c-.44-.43-7.56-7.31-15.53-8.5l-.03.03v.06c0 .87 1.62 7.11 1.62 7.11s-20.6-9.6-31.06-4.54 36.43 7.73 40.72 12.52q.7.79.64 1.16-.01.08-.06.15c-1.03 1.5-15.01-4.07-16.4-1.3-1.6 3.2-24.38-5.86-24.11-1.6s3.23 6.65 3.23 6.65 47.43 4.53 49.03 10.13-26.26-3.18-26.26-3.18-2.7 3.97-.55 5.84l.17.17v.03h-.03c-.97-.32-16.07-10.15-14.6-2.6-5.9-2.34-21.16-9.59-19.02-4 2.11 5.52 41.9 13.37 43.08 13.6-1.06.08-17.89 1.48-17.1 5.87-22.56-13.66-22.5-5.47-22-4.83v.03c-1.26-.2-29.01-7.07-6.95 4.8 11.84 6.37 14.72 8.85 14.78 9.8v.1l-.03.08-.03.03-.03.05-.03.03-.03.03-.03.03-.02.03c-.46.3-1.57.17-1.9.17h-.05l-.03.03.03.03c.31.47 2.04 5.17 1.95 5.99l-.03.06v.03h-.03v.02h-.06c-.97-.24-15.58-8-20.6-8.53-5.09-.53-29.21 6.66-3.49 17.85s41.53-2.67 55.73-1.07 20.92 4 19.58 8.53-14.53-14.85-28.39 1.9c-15.77-3.1-26.46-4.89-18.32 6.63-25.75-9.57-41.47 2.92-9.05 7.98 31.86.94 51.45-7.72 51.45-7.72s5.38 9.88 13.15 2.95c7.4-6.6 7.99 1.8 8.26 2.6q0 .03.03.03v.03h.03c.57-.14 7.47-3.2 7.47-3.2h1.9v63.94l25.97.26s-8.31-55.68-3.76-63.14c4.42-7.23 8.6-6.45 8.85-6.39 0 0 16.88 5.05 18.76 4.25l.08-.03.06-.03.12-.08.03-.03c1.37-1.25-.03-6.16 8.55-5.41 2.65-.96 1.64-5.16 3.34-6.19l.12-.06.23-.08q.17-.04.35-.06c2.68-.27 54.4 14.37 65.65.52-2.95-7.73-13.15-.53-15.83-.26-2.4 0-12.6-4.8-18.5 0-5.35-4-29.72-6.65-29.72-6.65-3.21-3.2 58.15 1.58 61.63-.81 7.24-7.2-13.39-6.4-16.6-4-5.72-3.46-12.9-3.2-17.28-.8-2.1-5-22.03-2.83-33.1-4.26-3.55-2.06-2.96-3.25-.55-4.54 23.13.98 46.15 3.98 69.4 2.95 6.28-8.14-7.92-11.21-16.61-4.28-5.11-8.35-15.55-.27-22.52-1.07s-3.75-9.31 5.1-7.98 24.65-.54 27.6-4.54c2.94-4-1.76-8.04-16.35-4.25-4.94-4.8-15.8 0-20.88 1.59-6.78-3.76-22.54-.52-27.9.8-5.24-3.23 27.6-8.52 27.6-8.52 12.68-.23 19.84-2.4 23.86-3.47 19.16-10.22-.27-11.3-10.33-3.88-6.24-4.84-12.17.42-17.8 2.29-5.28 1.74-15.03 3.02-16.23 2.51l-.06-.03-.03-.03-.03-.02v-.06l.03-.06c.8-1.22 15.24-10.04 15.24-10.04s18.76-1.34 22.52-1.88c2.28-.32 10.3-4.1 10.3-5.5-.08-.86-3.41-.78-13.53 1.77-9.11.8-14.47.29-17.95.55-5.6-.57-7.96-1.16-8.43-1.67l-.06-.1c-.04-.08-.02-.2.06-.28l.08-.09c1.38-1.09 10.24-1.88 10.24-1.88s27.06-2.47 28.85-3.87l.03-.03.03-.06.03-.03c.56-11-22.96-5.92-23.59-5.84.07-7.74-21.22-.11-22.22 0h-.03c-.91-.54-1.31-1.1-1.4-1.62q-.03-.31.07-.6c.53-1.6 3.75-2.84 3.75-2.84 5.9-1.42 14.7-1.87 17.01-3.73 0 0 16.64-.15 18.62-4.54-4.09-11.2-35.22 1.98-39.38 3.99q-1.24-.02-1.6-.55c-1.37-1.99 5.38-8.54 5.6-8.76l.04-.03c1.03-.3 25.88-1.56 37.75-17.56.84-9.9-14.2 5.58-14.2 5.58-1.12-12.83-16.34.82-25.18 1.88-8.84 1.07-9.1-4-2.94-4.8s13.13-.27 16.61-9.6 13.95.54 15.82-2.92c1.82-3.36-3.42-6.22-3.75-6.4 0 0 7.77-8-4.83-7.74-12.46.26-28.58-1.56-28.9-1.6.77-.29 13.47-5.05 25.41-4.8 12.33.27 5.63-8.79-6.16-8.79-11.8 0-17.95-3.99-17.95-3.99l20.1-7.46-1.34-5.58s11.79-9.33-4.83-7.2-18.5 2.4-18.5 2.4-32.7 4.98-33.47 5.06h-.03c-.32-.05-3.56-1.05-4.16-2.29l-.06-.14-.03-.17v-.2c.14-.66 1.14-1.36 3.72-2 8.58-2.13 38.87-8.25 43.43-6.65q.88.28 1.28-.06c1.7-1.54-3.98-11.34-17.92-12.73-16.08-1.6-25.97 4-25.97 4s-10.46-3.75-.82-6.95 24.93 1.07 24.93 1.07 17.14-5.07 2.94-7.2-18.68 1.92-25.2 2.14c-2.59-3.22 22.3-3.98 23.86-6.65-2.63-4.8-18.03 0-27.05 0-3.84-1.62-4.1-4.25.26-5.87 9.2-.35 17.85.18 27.05-.17-.27-4.89 0-10.68-.26-15.56-11.67-2.12-25.36 1.55-31.9 1.24 1.74-5.33 26.94-6.7 29.75-8.15 5.79-7.2-24.17-.12-24.9 0-5.32-.79-5-4.13-1.63-6.14 7.77-.88 25.2 1.14 23.88-4.1-1-4.91-12.08-2.28-16.64-1.22-4.55 1.07-11.25.26-11.25.26-2.92-3.9 26.27-2.3 26-5.32-.38-3.46-18.5-1.07-24.66-.8-4.75-3.26 22.28-5.42 23.55-5.85l.03-.03c1.01-8.86-18.76 0-22.5 0q-.97-.01-1.5-.43l-.22-.23c-1.3-1.5-.15-4.92-.15-4.92s7.05-3.15 7.48-3.9l.02-.03v-.06l-.02-.03-.1-.09c-.82-.63-5.67-2.23-6.3-2.28h-.03l-.03-.03-.03-.03-.03-.03c-.37-.74.09-6.04.09-6.04s5.58-4.16 5.93-5.82v-.26l-.03-.05v-.03l-.03-.03-.03-.03-.03-.06-.03-.03-.08-.06-.06-.03c-1.41-.67-7.24 1.34-7.24 1.34v-5.33s5.1-.55 5.64-2.95q.04-.2 0-.4 0-.1-.03-.17-.04-.17-.15-.32-.02-.04-.05-.06c-1.17-1.5-5.94-1.7-5.94-1.7zm-4.77 91.33v3.67s-6-.3-7.13-1.24l-.03-.03-.02-.03-.03-.03-.03-.03-.03-.06v-.03l-.03-.02v-.15l.03-.09.03-.03.06-.08.02-.03.06-.06.15-.11c2.01-1.4 6.04-1.37 6.83-1.6h.03l.03-.02h.03zm8.52 4.88c.21 0 11.97.1 13 1.62l.03.06.03.09v.14l-.03.09c-.9 1.9-12.8 3.04-12.8 3.04zm-.67 7.26h.06c.7.19 5.57.34 6.17 1.16l.03.03v.03l.03.03v.14l-.03.03v.03l-.03.06-.03.03v.03c-1.01 1.22-5.5 1.56-5.73 1.56h-.03v-.03l-.03-.03c-.2-.42-.4-3.07-.4-3.07m-35.86 9.66c3.84-.2 11.46.7 25.77 4.63 0 .3.29 4 .17 4.6l-.02.03v.03l-.03.03c-.23-.12-26.03-7.49-28.4-7.38h-.2l-.17-.03-.2-.08-.1-.03-.02-.03a1 1 0 0 1-.2-.2l-.03-.03-.03-.06v-.03l-.03-.06v-.14l.03-.12q.06-.13.17-.26c.4-.38 1.39-.77 3.29-.87m13.38 10.9c4.11-.14 13.97 2.22 14.51 2.09 0 .78.44 4.47-.06 5.23l-.02.03-.03.03-.03.03-.06.03h-.12c-.84-.2-15.38-4.8-15.94-6.68v-.12q.01-.1.1-.2l.02-.03.03-.03c.28-.22.85-.35 1.6-.37m40.49 10.13c3.92-.08 6.7.26 5.67 1.44-2.8 3.24-22.2 5.9-22.2 5.9l-.34-5.9c.41-.06 10.26-1.31 16.87-1.44m-55.5 18.4c3.3-.18 10.98 1.62 28.07 8.81l.12 4.25s-28.95-8.73-29.96-10.18c-.5-.7-1.42-2.72 1.77-2.89m56.72 6.33c.88-.05 1.5.04 1.71.26l.03.03q.03.04.03.08l.03.09q-.02.2-.26.46c-2.7 3.01-17.16 6.02-17.16 6.02v-3.9h.03c.66-.03 11.28-2.83 15.59-3.04m-63.47.52c4.32-.23 14.08 2.05 35.95 12.35 0 .1.2 3.65.12 3.99h-.03c-1.3-.42-39.35-13.71-39.35-13.71-.04-.15-.62-2.43 3.31-2.63m72.46 16.63c1.1-.05 1.83.05 2 .29q.03.05.03.11 0 .17-.29.44c-3.45 3.1-25.45 6.85-26.23 6.9h-.06l-.03-.02-.03-.06v-.03l-.03-.06c-.14-.71.32-3.23.35-3.58v-.03h.03l.03.03h.03c1.4-.03 18.27-3.75 24.2-4m-64.7 9.69c6.56-.34 26.4 8.7 27.38 8.99h.03c-.1.4-.12 3.67-.2 4.2v.05h-.03c-.54-.28-27.74-11.5-28.94-10.61-.75-1.77.02-2.55 1.77-2.64m58.53 2.37c1.36-.06 2.36 0 2.68.17q.06.04.08.09v.11l-.03.03-.08.09c-2.02 1.78-20.77 5.46-20.77 5.46l-.09-3.78c.53-.12 12.64-1.93 18.2-2.17m-1.51 11.94c1.32-.04 2.25.03 2.47.26l.03.03v.06l.03.03-.03.03v.05l-.03.03-.06.09-.09.09c-2.02 1.73-17.91 5.06-17.91 5.06s-.44-3.8-.44-3.9c.44 0 11.07-1.67 16.03-1.83m-67.07.95c3.83-.24 13.33 1.34 36.79 9.8l.78 4.58S418.4 233.39 417.29 233v-.17q.01-.2.2-.47c.28-.33.9-.71 2.39-.8m51.45 9.92c.47.1 7.02.32 8.23 1.34l.03.02.03.03.03.03.03.06.02.03.03.09v.14l-.03.06v.03l-.02.06c-1.01 1.56-7.86 2.14-7.86 2.14s-.33-3.07-.5-4.02m15.85 8.91c1.52-.03 2.62.14 2.85.58.13.3-.12.74-.84 1.33-5.61 4.58-17.83 5.47-17.83 5.47v-5.03h.03c.69-.09 10.73-2.23 15.79-2.35m15.56 4.69c1.94-.08 2.77.25 3.03.7l.05.14q.04.12.03.26c-.06.57-.68 1.26-1.16 1.7-1.9 1.79-32.31 11.37-32.31 11.37s-.23-6.36-.12-6.91c17.78-5.36 26.47-7.11 30.48-7.26m-19.66 17.99c1.93-.07 3.44.04 3.9.49l.08.11.03.1v.22q-.04.14-.14.3c-2.6 2.53-15.24 2.91-15.24 2.91v-3.15c2.37-.08 7.65-.85 11.37-.98m12.65 5.17c.6-.01.97.09 1.02.26v.06q-.03.23-.58.64c-5.05 3.57-24.03 7.23-24.03 7.23s.24-2.5.35-3.1c.53 0 18.7-4.98 23.24-5.09m10.65 3.97c2.23-.03 3.94.3 4.91 1h.03v.12c-.1.7-1.52 3.95-6.51 5.35-6.24-.55-32.7 7.23-33.22 7.35h-.03v-.06c-.01-.5.35-3.18.35-3.18 9.12-5.42 25.7-10.5 34.47-10.58m-67.74 15.27h.17c11.45 1.22 15.72 5.48 16.93 7.2-2.28 3.98-20.37-4.95-18.47-6.86q.32-.3 1.37-.34m65.58.75q.7-.03 1.17.26.19.13.32.32.16.26.2.69c-1.2 1.84-7.38 1.04-7.77.98.32-.1 3.89-2.17 6.08-2.25m-24.52 12.38c.85-.04 1.56.05 1.95.28l.15.12.06.06.06.09.02.08q.13.34-.14.87c-1.8 3.35-9.66 2.11-9.66 2.11v-2.34h.03c.44.04 4.78-1.16 7.53-1.27m-46.3 8.82c2.42-.12 4.53 1.45 6.75 2.72 4.94-1 15.06.78 15.06.78v4.45l-.02.03h-.03c-.93.16-12.8-.36-15.45-2.03-2.16 0-8.28-3.2-8.75-4.85l-.03-.06v-.23l.03-.06v-.03a6 6 0 0 1 2.44-.72m51.92 2.2c1.86-.1 2.64.47 1.2 2.51-4.05 5.69-14.5 3.36-14.5 3.36l-.43-3.53c3.68.14 10.42-2.17 13.73-2.35m-39.03 11.53c4.22-.2 8.8 1.48 8.8 1.48.12.21 2.28 4.45.36 5.87q-.1.08-.24.14c-2.35 1.23-13.62-.96-14.28-5.46 1.33-1.4 3.3-1.93 5.36-2.03m-43.55 2.2c3.87-.23 8.18 2.14 8.67 2.37h.03l-.14 4.28s-7.65-2.12-10.07-6.39q.74-.2 1.51-.26m73.56.58c4.31-.03 9.52.98 10.27 2.43q.22.45-.17.95c-2.14 2.57-14.26.24-14.26.24v-3.13a16 16 0 0 1 4.16-.49"/></svg>