<svg xmlns="http://www.w3.org/2000/svg" xmlns:xlink="http://www.w3.org/1999/xlink" viewBox="0 0 4320 2880"><path fill="#ed2939" d="M0 0h4320v1440H0z"/><path fill="#fff" d="M0 1440h4320v1440H0zm1481.68-720a541.5 541.5 0 1 1-1083 0 541.5 541.5 0 1 1 1083 0"/><path fill="#ed2939" d="M1651.84 720a511.73 511.73 0 1 1-1023.48 0 511.73 511.73 0 1 1 1023.48 0"/><path id="a" fill="#fff" d="m1007.2 733.06-73.57-56.43-73.54 56.46 28.32-91-73.8-56.08 91.06.19 27.93-91.13 27.97 91.12 91.06-.23-73.78 56.12z"/><use xlink:href="#a" transform="translate(577.19)"/><use xlink:href="#a" transform="translate(288.89 -214.21)"/><use xlink:href="#a" transform="translate(108 342.75)"/><use xlink:href="#a" transform="translate(469.19 342.75)"/></svg>