<svg xmlns="http://www.w3.org/2000/svg" xmlns:xlink="http://www.w3.org/1999/xlink" viewBox="0 0 600 400"><path fill="#3e5eb9" d="M0 0h600v400H0z"/><path fill="#ffd900" d="M0 75h600v250H0z"/><path fill="#b10c0c" d="M0 100h600v200H0z"/><g fill="#ffd900" stroke="#000" stroke-width="1.01"><g id="a"><path fill="#fff" d="m492.85 154.28-24.28 8.57 24.28 8.57 24.29-8.57z"/><rect width="357.13" height="5.71" x="122.85" y="160" rx="3.11" ry="2.86"/><path d="M471.44 165.71a3.1 3.1 0 0 0 2.86-2.86 3.1 3.1 0 0 0-2.86-2.85m-2.86 5.71a3.1 3.1 0 0 0 2.86-2.86 3.1 3.1 0 0 0-2.86-2.85"/><path d="M465.72 165.71a3.1 3.1 0 0 0 2.86-2.86 3.1 3.1 0 0 0-2.86-2.85"/></g><use xlink:href="#a" x="-23.27" y="17.15"/><rect width="485.7" height="8.57" x="59.81" y="195.72" stroke-width="1.08" rx="4.22" ry="4.29"/></g><path fill="#fff" stroke="#000" stroke-width="1.01" d="M442.85 200c-28.57 28.57-66.67 85.71-142.86 85.71-66.67 0-114.28-57.14-142.86-85.71 28.57-28.57 76.19-85.72 142.86-85.72 76.19 0 114.28 57.15 142.86 85.72z"/><path d="M290.02 144.1c7.6 8.55 1.25 12 9.3 12.56 8.49.62 3.68 9.03 10.81 9.32 5 .22-.5 20.15 4.3 26.73 4.9 6.86 9 2.01 9.08 6.96.09 5.13-13.31 4.61-13.55 20.4-.4 9.1-11.3 9.67-11.83 15.53-.65 5.5 21.5 8.6 21.21 13.52-.3 4.91-23.92 4.14-24.95 9.75-.52 5.03 32.45 9.15 35.1 23.7-4.92 1.62-18.92 3.13-29.5 3.14-66.66.05-114.28-57.15-142.85-85.71 28.57-28.58 76.19-85.72 142.86-85.72 0 0-19.79 18.08-9.97 29.81z"/><g stroke="#fff"><g id="d" stroke-width="6.93"><g id="c"><path id="b" stroke-width="6.93" d="M213.93 192.38v-22.86m13.85 0v22.86m13.86-22.86v22.86"/><use xlink:href="#b" y="38.1"/></g><use xlink:href="#c" x="41.56"/></g></g><use xlink:href="#d" x="104.76" stroke="#000"/><g fill="#a70000"><path fill="#3d5da7" stroke="#000" stroke-width=".85" d="M511.35 196.6c-4.33 7.5 3.32-2.5 21.99 10.06 3.45 2.33 6.48 8.49 6.48 12.76-.88-.6-1.53-1.9-2.5-2.75-1.35 1.36 1.3 7.58 1.68 10.52-2.92-1.63-2.64-2.4-3.6-4.41.19 2.42-.5 9.1.65 11.68-2.3-.66-2.14-2.51-3.34-2.88.81 2.9-.72 6.08-.31 9.35-1.34-1.33-2.78-2.37-3.4-2.9-.1 1.55-2.59 5.65-2.64 7.12a3.7 3.7 0 0 1-1.64-2.48c-1.42 1.78-6.46 8.35-6.78 10.36-3.88-3.43-13.82-11.77-15.12-16.2-1.14 2.5-2.8 3.36-6.07 5.2-1.3-7.03-6.13-14.92-3.54-20.94a63 63 0 0 0-5.18 3.51c1.74-10.17 10.6-22.1 23.32-28z"/><path d="M495.21 233.72c1.8-3.6 3.45-4.73 4.61-7.04 2.05-4.07 2.35-7.3 4.13-6.83 1.8.48 1.79 2.14-.53 6.14-2.31 4-3.41 4.85-8.21 7.73m12.15 8.56c-.23-2.73.56-3.88.42-5.64-.25-3.1-1.52-5.22.13-5.37s2.42.9 2.43 4.02c0 3.13-.48 3.95-2.98 7zm9.22 5.36c-.72-3.82-.18-5.51-.64-7.97-.8-4.33-2.4-7.18-.86-7.57 1.52-.4 2.44 1 3.02 5.39s.28 5.6-1.52 10.15m9.59-26.75c-2.25-1.7-3.57-1.82-5.02-2.92-2.56-1.93-3.85-4-4.67-2.97-.83 1.03-.24 2.15 2.44 3.92 2.68 1.78 3.59 1.92 7.25 1.97m-1.59 12.67c-1.19-2.46-2.44-3.09-3.2-4.68-1.36-2.78-1.36-5.2-2.83-4.58-1.48.62-1.6 1.88-.02 4.58 1.57 2.7 2.4 3.19 6.05 4.68"/><path fill="#3d5da7" stroke="#000" stroke-width="1.07" d="M80.78 203.82c-.24-2.18.23-2.44-1.11-4.09 1.95.82 2.02 3 4.4 1.45.87-.45 1.26-.47.2-2.9 2.47.12 10.59 2.9 11.89 2.97 3.41.16 9.64-3.58 13.97 1.02 4.15 4.2 2.76 8.55 2.76 14.36-1.66-.8-.86-1.2-2.63-3.27 1.33 5.08-.07 14.23-.07 19.62-.68-1.3-.58-.73-1.25-2.08-1.77 4.92-3.89 5.93-3.89 11.74-.64-2.28-.02-1.8-.73-3-1.72 3.74-13.26 6.93-8.81 10.7-4.02-2.36-5.78-2.11-7.6-4.23-.78.5-1.4 1.46-2.13 2.78-7.06-3.25-4.54-10.25-10.07-14.93-.95 1.96-.52 1.67-1.55 4.87-1.12-4.44-1.43-7.25-2.69-10.51-1.08 1.8-.98 1.11-2.96 3.84-.81-5.4-2.14-6.68-1.62-10.25-2.1 1.48-.72.88-2.81 2.7 1.98-13.84 10.55-24.07 16.7-20.8z"/><path d="M72.1 226.41c1.82-4.46 3.46-5.85 4.63-8.72 2.08-5.05 2.42-9.08 4.16-8.46s1.71 2.69-.62 7.64c-2.33 4.96-3.42 6-8.17 9.54m6.89 11.15c.72-4 1.87-5.45 2.35-8.02.84-4.53.37-7.9 1.99-7.72s1.98 1.89.9 6.39c-1.07 4.5-1.82 5.56-5.25 9.35m8.24 7.75c.2-3.87 1.11-5.38 1.25-7.88.24-4.39-.6-7.53.94-7.55 1.55-.01 2.1 1.56 1.63 5.96-.48 4.39-1.05 5.49-3.82 9.47m17.68-25.33c-3.38-3.37-5.42-4-7.6-6.16-3.85-3.8-5.7-7.38-7.07-6.11s-.55 3.16 3.5 6.78 5.45 4.15 11.17 5.49M102.84 233c-2.2-3.38-3.82-4.26-5.24-6.43-2.5-3.83-3.37-7.11-4.79-6.3s-1.1 2.53 1.61 6.24c2.72 3.7 3.81 4.39 8.42 6.5z"/><path fill="#3d5da7" stroke="#000" stroke-width=".83" d="M253.8 129.5c-3.96 7.66 6.93-2.55 24 10.27 3.16 2.38 7.7 11.79 7.7 16.15-3.64-.78-10.07-4.36-10.07-4.36s7.55 7.56 7.55 16.28c-2.67-1.67-4-1.42-4.9-3.47 0 2.83 2.38 4.63 2.38 8.99a35 35 0 0 0-5.18-3.46c2.51 4.36-4.6 12.81-1.04 15.64-6.21-.9-12.58-4.88-15.1-9.24-1.33.9-1.47 2.32-1.52 3.82.2.16-9.47-7.17-8.58-9.99-1.3 1.82-1.48 2.82-1.78 4.87-3.54-3.5-6.8-7-7.98-11.53-1.58 2.05-1.68 2.05-3.25 4.1-1.19-7.17-1.19-6.91 1.18-13.06a58 58 0 0 0-4.73 3.59c1.58-10.39 9.68-22.57 21.32-28.6z"/><path d="M244.04 166.9c.63-5.27 2.01-7.26 2.42-10.66.74-5.97-.13-10.34 1.98-10.23 2.12.11 2.73 2.32 1.68 8.28-1.04 5.96-1.93 7.4-6.08 12.61m11.05 9.66c-.43-4.45.4-6.34.12-9.21-.47-5.05-2.03-8.46-.18-8.78s2.78 1.38 2.97 6.47-.29 6.45-2.91 11.52m17.25 7.88c-1.88-3.85-3.49-5-4.7-7.48-2.14-4.35-2.59-7.91-4.24-7.27s-1.55 2.49.83 6.75 3.46 5.14 8.11 8m5.97-34.49c-4.78-2.51-7.23-2.55-10.31-4.16-5.42-2.84-8.58-6.04-9.7-4.28-1.12 1.77.38 3.52 5.97 6.1s7.3 2.7 14.04 2.34m1.75 14.41c-3.48-2.9-5.54-3.32-7.78-5.18-3.95-3.27-5.92-6.48-7.24-5.18s-.44 3.02 3.71 6.1 5.57 3.46 11.31 4.26"/></g></svg>