<svg xmlns="http://www.w3.org/2000/svg" xmlns:xlink="http://www.w3.org/1999/xlink" viewBox="0 0 1800 900"><defs><g id="b"><g id="a"><path d="M1-.32H0v.5z"/><path d="M1-.32.2.26l-.3-.4z"/></g><use xlink:href="#a" transform="rotate(72)"/><use xlink:href="#a" transform="rotate(144)"/><use xlink:href="#a" transform="rotate(216)"/><use xlink:href="#a" transform="rotate(288)"/></g></defs><path fill="#00247d" d="M0 0h1800v900H0z"/><path fill="#fed100" d="M329.38 777.27c-17.94-.15 168.62-99.44 324.77-226.6C858.79 384 1299.55 117.16 1429.12 73.8c13.54-4.54-27.78 23.07-33.14 32.01-138.35 163.74-27.93 472.72 144.97 628.05 51.99 39.76 49.33 41.85 145.7 45.75v9zm-11.25 18.05s-13.17 9.4-13.13 16.41c.04 7.77 14.77 18.05 14.77 18.05l1338.74 14.76 24.61-16.4-34.45-21.33z"/><g fill="#fff"><use xlink:href="#b" transform="matrix(45 0 0 45 342.96 112.58)"/><use xlink:href="#b" transform="translate(521.2 267.53)scale(37.5)"/><use xlink:href="#b" transform="matrix(45 0 0 45 135 321.8)"/><use xlink:href="#b" transform="translate(342.96 652.58)scale(52.5)"/></g></svg>