<svg xmlns="http://www.w3.org/2000/svg" xmlns:xlink="http://www.w3.org/1999/xlink" viewBox="0 0 1200 600"><defs><clipPath id="b"><path d="M0 0v150h700v150H600zm0 300v100h300V0h300z"/></clipPath><path id="a" fill="#ffce00" d="m0-50.08 29.44 90.6-77.07-56h95.26l-77.07 56z"/><use xlink:href="#a" id="c" transform="rotate(36)"/></defs><path fill="#00247d" d="M0 0h1200v600H0z"/><path stroke="#fff" stroke-width="60" d="m0 0 600 300M0 300 600 0"/><path stroke="#cf142b" stroke-width="40" d="m0 0 600 300M0 300 600 0" clip-path="url(#b)"/><path stroke="#fff" stroke-width="100" d="M300 0v400M0 150h700"/><path stroke="#cf142b" stroke-width="60" d="M300 0v400M0 150h700"/><path fill="#5b97b1" d="M0 300h600V0h600v600H0z"/><use xlink:href="#a" x="645.34" y="540.99"/><use xlink:href="#c" x="788.03" y="504.52"/><use xlink:href="#c" x="788.03" y="382.53"/><use xlink:href="#c" x="914.03" y="473.68"/><use xlink:href="#c" x="914.03" y="208.27"/><use xlink:href="#a" x="996.44" y="390.05"/><use xlink:href="#c" x="1019.93" y="172.08"/><use xlink:href="#a" x="1102.84" y="321.55"/><use xlink:href="#a" x="1102.84" y="87.49"/></svg>