<svg xmlns="http://www.w3.org/2000/svg" xmlns:xlink="http://www.w3.org/1999/xlink" viewBox="0 0 840 600"><title>Flag of Kosovo</title><defs><path id="a" fill="#fff" d="m0-36 21.16 65.12-55.4-40.24h68.48l-55.4 40.24z"/></defs><path fill="#244aa5" d="M0 0h840v600H0z"/><path fill="#d0a650" d="M332.1 284.6s1.55-1.05 2.12-1.2c.57-.13 2.59-.76 2.59-.76s1.29-.67 1.97-.67c.72 0 2.13.77 2.59 1.43.41.67 2.7 1.83 2.7 1.83s1.55.52 1.86 0c.3-.53.98-.91 1.7-.91.73 0 .84-.67.84-1.2s.3-1.19.84-1.82c.57-.66 1.7-1.05 1.7-1.05s1.57-.66 1.72-1.57 1.7-1.57 2.58-1.71c.84-.14 0-.53 2.28-.28 2.28.28 2.59-.53 2.7-1.2.15-.66 0-1.32 1.44-1.18 1.45.14 2.13.14 2.13-.67 0-.77 1.3-1.19-.99-1.82-2.28-.66-2.12-.14-2.28-1.19s0-.91-1.55-1.05c-1.56-.14-.73-.91-.84-1.71-.15-.77-.57-1.2-.84-1.72-.3-.52-1.14-.52-1.14-1.3 0-.76-.15-1.18-.98-1.18-.84 0-1.14 0-1.14-.77s.15-1.44.98-1.44c.84 0 1.3-.66 1.14-1.43-.15-.77-.15-2.49-.15-2.49l1.14-1.33s3.42-2.76 3.73-3.29c.3-.52 1.44-.91 1.97.14.57 1.05.84 1.33 1.3 1.82.41.53 1.7.14 1.97-.38.3-.53.42-2.45 1.18-3.5.76-1.02 1.29-1.54 1.48-2.38s.57-1.54 1.48-1.54 1.48-1.2 1.48-1.9.38-1.36 1.49-1.53c1.1-.18 1.67-.84 2.05.17.38 1.02.76 1.02 1.48 1.37.76.35 1.86.84 2.4.35.56-.53.83-1.37 1.67-.84.8.52 1.36 0 1.55-1.02.2-1.01.38-2.38.38-2.38s.2-.7 1.49-.7.38-.84 1.1-1.36c.76-.53.76-1.02 1.67-.7.91.35 2.4-.42 1.67-1.26-.76-.84-2.4-2.21-1.48-3.26.91-1.01 1.3-2.73.38-2.9-.91-.18-2.24.17-2.4-.84-.18-1.02-.56-1.72.58-1.9 1.1-.17 2.96-.17 3.53-.7s2.4-.83 2.4-2.37.56-1.72.75-2.56c.2-.84.2-2.62-.57-3.46-.76-.84-1.86-2.07-2.05-2.56a3.3 3.3 0 0 0-2.05-1.71c-1.1-.35-2.05-.53-2.05-1.37s.76.18.76-2.06c0-2.21-1.48-2.56-1.48-2.56l-2.25-1.36s-3.95-1.05-5.01-1.05c-1.07 0-2.28-1.12-1.07-1.82 1.22-.7 1.52-1.96 1.07-2.94-.46-.98-.76-1.68-2.43-2.1s-2.13-.84-1.37-1.82.91-1.68 1.82-.98 2.43.98 3.65.42 1.67-.98 2.28-.42 1.37 1.12 2.28.28 2.58-.98 3.34-.56 2.59.28 3.2 0c.6-.28 1.82-1.26 1.82-1.82s.76-1.54 1.52-1.96 1.67-1.82 2.43-1.82 1.07-.84 1.07-1.4.6-1.68.76-2.1c.15-.42 1.67-1.02 2.73-.14a6 6 0 0 0 4.71 1.12c.76-.28 1.83-.56 2.9.14s2.58.7 2.58.7.3-1.12.3-1.68.3-1.54-.3-1.96c-.61-.42-1.37-.98-.16-1.82s1.22-.7 2.44-.7c1.21 0 1.97.14 2.88.14.92 0 2.44.84 2.44 1.68s.6 1.4 1.36 1.82 1.68.84 1.37 1.54-.3 1.26.61 1.12 1.22.42 1.22 1.12.3 1.12 1.21 1.4 1.37.84 1.37 1.54-.15 1.12.15 1.82 1.22 1.82 1.22 1.82 1.67 1.96-.46.98-2.58-1.4-3.34-1.26-1.22.56-1.22.56-1.06.28-1.82.28-1.52 1.54-.3 1.82c1.21.28 1.67.56 1.67 1.54s-.46.7-1.07 1.4c-.6.7-1.06.28-2.13.28s-1.36.84-1.36 1.68.45.7.9 1.4c.46.7 1.22.84 1.98.14s1.37-1.12 1.83.14 1.06 1.26 1.97 1.26c.92 0 1.22 0 1.98-.42s1.67 0 1.82 1.12.92 1.26 1.68 1.68 1.21.7 1.36 1.4.61.98 1.37.56 1.98-.7 2.43-.14 1.22 1.68 1.22 1.68l.15 1.4 2.89.98s.3.7.3 1.26.46.84 1.22.7 2.13 0 2.13 0 1.06-.42 1.06-1.26.46-1.12 1.22-1.12 2.43.56 2.89-.28 1.82-1.12 2.88-.7c1.07.42 3.8 1.54 3.8 1.54s-.3.14.61 1.54a3.3 3.3 0 0 0 2.59 1.4s.15 1.26.45 1.82 1.67.84 2.43.28 1.83-1.26 2.74-1.26 1.52 0 1.52-.56-.91-.98-.91-1.82.91-.84 1.06-1.68 1.07 0 1.67.42c.61.42 1.37 1.12 1.37 1.68s1.22 2.52 1.98 2.8 2.73.42 3.34-.28 2.13-.98 1.98.7-.46 1.82.6 2.38c1.07.56 1.22 2.52.31 3.08s-1.22.7-1.22 1.68-.3 2.1.46 2.66 1.22.98 1.22 1.54.9 3.08.9 3.08.46 2.52.31 3.08-.45 1.54.91 1.4c1.37-.14 1.68-.14 1.68.98s.45 1.54-.3 1.96c-.77.42-1.22 1.82-.46 2.1s1.36.7 1.52 1.26 1.36 1.54 2.12.98.92-.84 1.52-.98c.61-.14 1.07-.56.46-1.26-.6-.7-.76-1.4-.15-1.82.6-.42.91-1.82.91-1.82s.91-1.26 1.98 0 1.21.84 1.97.84 1.07.7 1.07 1.4 1.52.56 1.52 1.68.3 3.78.3 3.78 0 1.54.91 2.1.76.7.3 1.4c-.45.7-.3 1.82-.3 2.38s.3.84-.45 1.4c-.76.56-1.07 1.26-.61 2.1.45.84.3 1.4 1.52 2.38 1.21.98 1.06 1.4 1.06 2.1s1.22 1.68 1.22 2.38.91 1.54 1.67 1.68 1.67 1.4 1.67 2.1.15 2.52.15 2.52-.15.42.76.42c.92 0 1.52.98 1.83-.14.3-1.12 1.21-1.26 1.82-1.54s1.83-.84 2.43-.42 1.37.42 1.98.42 3.5.14 3.5.14.76-.14 1.21.98c.46 1.12 1.83 2.38 1.07 2.94s-.76 1.68.15 1.68 1.82 0 1.82.7.15 1.26.91.84 1.22-.56 1.52 0 .92.56 1.68.98 1.06.14 1.52-.42 2.28-1.12 2.28-1.12 2.43-.56 3.34-.28 2.13.84 2.13.84.6 1.4.3 2.24-.6.7-.3 1.96-.3 1.4-.91 1.26-1.22-.14-1.22.98-.6 1.4-.6 2.38 0 .84-.62 1.26c-.6.42-.76 1.12.16 1.26.9.14.6 1.12.6 1.68s-.15 1.82-.15 1.82.15.7-.91.7-1.98-.14-2.13.56-1.37 1.82-.3 2.52c1.06.7.76 1.12.15 1.4-.6.28-1.06 1.68.15 2.1 1.22.42 1.07.84.3 1.4-.75.56-2.27.98-2.27 1.82s-.3.84-1.22.98-1.37 1.26-.3 2.66c1.06 1.4 1.36 1.12 2.12 1.12s.76-1.12.76-1.12 2.59.14 3.35.14 1.82 0 2.43-.42c.6-.42 2.28-1.12 2.28.14s.3 1.12 1.06 1.68.92.14 1.52.98c.61.84.76.14 1.22-.84s1.37-1.96 2.13-.84.76.84 1.67.84 1.22.42 1.22 1.12.9.7 1.97.56 1.22.56 1.67 1.26c.46.7.61.56 1.22.56.6 0 1.22 0 1.67-.56.46-.56 1.07-1.26 1.67-.42.61.84 1.83.7 2.13-.28s1.67-1.82 2.43-.7 1.37 1.12 2.13 1.26 1.83.14 2.28.84c.46.7 1.98 1.82.91 2.66s-2.28 1.96-1.36 2.24c.9.28 1.52.56 2.12 1.26s2.59.98 3.5 1.12 1.67.28 2.74-.56c1.06-.84 2.12-.84 1.97.28a5 5 0 0 0 .46 2.38s.76 1.82.76 2.52-.15.84 1.21 1.68c1.37.84 1.22 1.4 2.28.56 1.07-.84 1.37-1.26 1.37-1.96v-2.24s1.52-.28 2.13-.7 3.04-1.68 3.65-1.12 1.37.42 1.97.14c.61-.28 1.83-.28 2.44-.28s1.67.14 2.88-.84c1.22-.98 1.22-.7 1.98 0s.76 1.54.3 2.1c-.45.56 0 1.82 1.07 1.82 1.06 0 1.37.56 1.37 1.26s.15 1.68.3 2.24.15.84 1.82 1.26 1.37 1.4 1.68 2.1.3 1.26-.61 1.26-1.22.42-1.37 1.12-1.52.98-1.52.98l-1.37-.28s-.91 0-1.37.56c-.45.56-1.36 1.68-.76 2.66s.61 1.54 0 1.96c-.6.42-.9 2.52-1.52 2.1-.6-.42-1.36.14-1.97.42s-.46 2.24.76 2.94c1.21.7 1.52 1.68 1.52 1.68l1.37 2.1s-.46.42-.76 1.12-1.22 2.1-.3 2.38c.9.28.45 1.82-.46 1.82-.92 0-1.98-.42-2.13.7s-.61.84-1.52.7-3.2-.7-3.8.42c-.61 1.12-.76 1.54-1.83 1.4-1.06-.14-.6 1.68-.3 2.38s1.37 1.68 1.37 1.68.91.7.91 2.1-.6 1.26-1.22.28c-.6-.98-1.82-.84-1.97.28s-.3 2.8-1.37 2.8c-1.06 0-1.52.28-1.98.84s-1.21 1.54-1.21 2.1-.15 1.12-.91 1.26-.92 1.68-.92 1.68-1.82.28-1.97.98.15 1.82-1.37 1.96a3.9 3.9 0 0 0-2.89 1.82c-.45.7-.6 1.26 0 1.96.61.7 1.07 2.94 1.83 3.36s1.36.56 1.21 1.68-1.06 1.96.15 1.96c1.22 0 1.98.28 1.52 1.26s-.45 1.12-1.36 1.54-1.37.42-1.37 1.54.3 1.12-.46 1.54-.76.98-.76 1.82-.3.56-1.21 1.54a2.7 2.7 0 0 1-2.9.7c-.75-.28-.9-.28-1.06-1.12-.15-.84-1.52-.84-2.28-.7s-1.82.98-1.82.98-1.37.84-.76 1.54c.6.7.3 1.82-.76 1.68s-3.5 1.12-4.26-.14-2.88-2.1-3.19-.42c-.3 1.68.91 1.54.76 3.22s-.45 1.68-1.06 2.24-.61.98-.76 1.68-.3 2.24.76 2.8 1.52 2.1 1.52 2.94 0 1.68 1.06 1.68c1.07 0 1.98-.14 2.13-1.12s2.28-1.54 2.43.42.15 2.94.91 3.78 1.37 1.96 1.98 2.38 1.63 3.99 1.63 3.99c-1.48.31-1.86 2.24-2.8 2.62-.54.21-1.11.04-1.6.39-.38.28-.38.8-.92 1.05-1.1.49-.9-1.23-2.24-.6-1.21.56-1.33 1.96-3.08 1.37-.9-.32-1.48-3.89-1.74-4.73a18 18 0 0 0-1.41-2.41c-1.03-1.54-3.08 0-3.72-.46-1.03-.7-.57-1.89-2.13-2.03-3.16-.21-.91 1.93-2.24 2.42-2.55.9-2.55-2.38-4.45-.88-.72.56 1.14.91.68 1.89-.38.8-2.24 2.03-2.12 2.98.15 1.29 1.55 1.68 1.97 2.76 1.14 2.87-.76 4.87-3.6 2.63-1.6-1.26-1.9-3.61-4.38-3.43-.57.03-.76.63-1.33.7-.57.03-1.02-.53-1.63-.35-.91.31-.12.94-.3 1.47 0 0-1.22 1.01-1.41 1.29-.69.91-.46 1.72-1.45 2.45-.83.63-1.48.25-2.39 1.23-.95 1.01-1.03 2.52-2.24 3.5-.61.49-1.03-1.47-1.79-.18q-.18.27-.3.53c-.2.38-.23.56-.04.98 1.6 3.08-1.75 4.23-2.77 6.4-.46.91.8 1.75.3 2.45-.34.53-1.82 1.96-1.94 2.28s-.26 1.01-.53 1.26c-.27.28-1.18.14-1.25.56-.08.49.95.87 1.21 1.19.34.38-.15.9-.04 1.01 1.71 1.72.69 1.19 1.56 2.7.12.2.65-.18.84.38.19.53-.42.49-.2 1.09.05.17 1.26 1.75 1.26 1.78.08.53-2.32 1.61-2.85 1.61-1.44.04 1.26-2.97-1.1-2.97-1.03 0-1.1 2.34-1.37 2.59-.11.1-1.06 0-1.29 0-1.52 0-2.5 1.89-3.12 2.06-.38.14-1.21-.21-1.86-.1-.6.1-1.33.7-1.9.7-.38 0-.57-.25-.87-.42-.69-.39-1.94-.56-2.7-.81-.42-.14-1.22.53-1.48.35-.5-.31.34-1.19-.8-1.82a10 10 0 0 1-.95-2.2c.38-1.33.8-2.77.6-4.17-.22-1.43-2.46-2.66-3.07-3.81-.46-.88-.87-3.19-1.75-3.78a8 8 0 0 1-2.32-2.8c-.15-.28.3-.77-.03-1.26-.38-.53-1.1-.74-1.3-1.44-.15-.56 0-2.38-.64-2.76-.72-.42-5.36-.98-6.5-1.09-.6-.03-1.06-.03-1.52-.49-.19-.17-.5-.91-.65-.91-.45-.03-.98.21-1.44.25-.34.03-.91-.21-1.22 0-1.48 1.01-1.86 2.3-3.26 3.39-1.45 1.09-3.04 1.05-4.49 2.31-.91.8-1.52 2.73-2.43 3.64-.38.39-.99 0-1.14.18-.76.94-1.82 1.5-2.58 2.38-.16.17-.12.52-.3.66l-1.64.42c-.42.07-1.22-.03-1.56.07-.76.25-.72 1.05-3.3 1.58a2 2 0 0 0-.69.31c-.3.21-.53.53-.84.74-.19.14-.76-.11-1.1-.07-.64.1-1.02.66-1.63.73-1.37.18-3.57-.63-4.64-.21-.64.25-2.43 2.24-3.08 2.45-.41.14-.72-.03-1.17-.21-.23.28-.76 2.45-.95 2.94 0 .04-2.93 2.49-3.16 2.77-.38.42-.53.87-.99 1.33-.3.31-.8.59-1.29.59-.6 0-1.52-.45-2.09-.56-1.1-.17-4.4-.31-5.4-.1-1.02.2-.72 3.15-3.26 3.43-1.48.17-2.85.45-4.37.59-.15 0-1.07-.63-1.98-.38-.34.1-1.44 1.22-1.44 1.57v.63c0 .1.3.49.26.53-.57.66-1.86 1.71-2.28 2.48-.11.21-.26.46-.45.6-.34.24-2.1.9-2.24 1.22-.42 1.05 1.21 2.03 1.06 2.45-.46 1.37-2.28 2.66-2.85 3.92-.23.53.6 2.28.57 2.87-.19 1.65-.76 3.75-.68 5.36 0 .31.22 1.96.34 2.13.19.32.6.49.87.77s2.28 4.2 2.36 4.62c.38 2.9-3.84 1.89-1.4 4.8.37.45.68.94 1.1 1.33.53.52 3.64 2.8 3.68 3.04.08.42-2.5.84-2.96 1.3-1.22 1.19-2.25 3.39-3.42 4.62-.73.77-1.37-.07-2.32 1.71-.34.67 0 2.17-.42 2.59-.6.63-1.1-.21-1.71.07-.27.1-.42.88-.68 1.09-.69.59-6.77 3.81-7.34 3.53-.3-.14-.64-1.15-.68-1.47a3 3 0 0 0-.76-1.36c-1.56-1.33-3.95-1.58-5.47.03-.38.42-.42 1.05-.92 1.47-.83.7-1.78 1.33-2.58 2.03-.15.14-.6.67-.8.63-.6-.07-2.09-1.75-2.47-2.2-.68-.81-2.66-2.73-2.85-3.64 0-3.12-2.43-6.37-3.46-9.42l1.52.04c1.71-1.16 1.22-4 4.3-2.87.38-.53.34-1.09 1.06-1.47.27-.14.76-.28.91-.53 1.03-1.57 2.25-7.6 1.18-9.13-.95-1.4-1.94-1.33-2.7-3.64-.22-.63.2-1.37 0-2.07a65 65 0 0 0-1.33-4.13c-.19-.28-.83-.63-.87-.8-.04-.28-.27-3.89-.15-4.17-1.03-2.8-4.49-4.58-4.68-4.9-.41-.66-.83-1.54-1.29-2.27-.53-.88-.53-1.33-.83-2.17-.12-.39-.69-.7-.73-1.12-.07-.74 2.02-2.28 1.94-3.57-.04-.42-1.33-1.68-1.06-2.38.26-.74 1.6-2.38 1.56-3.19-.08-1.08-2.1-3.43-2.36-4.58-.11-.56.8-1.02.57-1.4-.27-.5-2.4-2.42-2.74-2.98-.26-.42.8-.98.04-1.75-.68-.7-.11-.45-.3-1.05-.23-.66-.99-1.26-1.3-1.96a86 86 0 0 1-2.05-7.56c-.3-.45-.83-.84-1.1-1.3-.26-.45-.38-1.32-.6-1.67-.04-.04-2.06-.63-2.44-1.23-.3-.49-.38-2.1-.91-2.9-.27-.39-.68-.32-.99-.6-.26-.21-.23-.6-.42-.84-.6-.84-1.82-.07-2.66-3.15-1.1-.77-2.12-1.43-3.07-2.38-.2-.17-.3-.38-.54-.49-.76-.31-1.9-.42-2.54-.98-.38 0-2.4-.07-2.62-.21s-.46-1.01-.61-1.05c-1.07-.21-2.81-.1-3.73-.87-.72-.63-.87-3.68-2.16-3.26a1 1 0 0 0-.53-.1c-.84-1.09-3.73-1.23-4.9-1.93-.35-.21-1.45-.03-1.45-.35.27-.6.19-1.08.23-1.68-.65-.63-1.07-1.36-1.52-1.82-1.1-.24-.69-.35-1.37-.77-1.9-.14-2.09.18-3.3 1.3-.31.28-.92.35-1.3.56-.64.35-.83 1.5-1.75.98-.3-.18-.49-.46-.72-.67-.53-.45-.83-.21-1.1-1.05-1.56-.84-5.85 2.07-6.88.04-.72-.39-1.25.1-1.86-.53-.3-.31.84-3.81-2.28-5.25.72-.56 1.48-.94 2.17-1.47.19-.38-.04-.98-.04-1.36 0-.6.38-1.75.26-2.17s-.57-.77-.72-1.26c-.19-.5.04-1.12-.23-1.65a3 3 0 0 0-.98-.49c-.8-.66-1.68-1.08-2.32-1.89-.15-.17-.27-.49-.46-.63-.57-.42-2.43-.98-2.35-1.85.03-.28.41-.32.53-.6.11-.35.04-.8.3-1.12.88-1.19 2.81-.66 2.51-2.87-.15-.98-.84-1.82-1.03-2.87-.34-.24-.38-.66-.68-.91-1.9-.17-1.63-2.13-2.32-2.59-2.01-1.36-3.57-.52-1.33-3.22.3-.87-1.94-2.27-2.4-2.76-.79-.77-.41-2.38-.71-3.22-.16-.42-1.49-1.16-1.9-1.75-.12-.18-.46-1.09-.65-1.2l.04-.27c.42-.32.19-.95.07-1.37-.26-.24-.83-.17-1.02-.35-1.83-1.64-4.03-2.38-6.42-3.32-.65-.25-.46-.77-1-1.02-.45-.21-3.68-1.64-3.9-1.57-.39-.11-.65-1.54-.92-2-.23-.42-1.14-1.19-1.14-1.22.08-1.33-.76-1.51-1.78-2.21.07-.17-.12-.6-.12-.8 0-.18.69-2.49.8-2.8.19-.5.84-.95.72-1.51-.15-.87-.26-2.24-.57-3.01-1.02-2.73-2.24-2.38-1.6-5.95.16-.73-.1-1.15.46-1.82-.07-.03.27-.38.3-.45.35-.32 1.3-.84 1.49-1.09.57-.77.91-2.52 1.63-3.08.53-.42 2.05-1.22 2.32-1.57.23-.28.57-1.16.38-1.51-.53-.31-1.06-.17-1.6-.24-.19-.04-.87-.53-1.4-.63-.15-.18-.42-.39-.42-.63l-.23-.21c-.6-.07-1.29-.46-1.82-.63-.69-.28-1.64-.32-2.28-.7-1.22-.7-2.59-2.63-3.76-2.91-1.6-.35-2.63.14-4.15.21-.98.07-.98-.52-1.78-.77-1.07-.31-.27.56-2.7-.21-.3-.24.15-1.08.19-1.4-.38-.1-.84.1-1.3 0-2-.49-1.25-2.31-1.78-3.5-.23-.28-1.06-.21-1.44-.24-.12-.04-.15-.21-.12-.28l.2-.14c.34-.53-.88-1.86-.84-2.03.07-.42 2.54-.81 2.89-.84.11-.32-.23-.6-.27-.91-.08-.7.38-1.61.6-2.24l-.07-.21c-.68-.39-.91-.95-1.52-1.4.04-.32.46-.53.53-.84 1.18-3.26 3-.67 4.6-3.68.15-.28.61-1.01.76-1.5l.3-.07c.31.07.73.31 1.03.2.23-.31.72-.41 1.1-.52l.57.14c2.97-.63 2.28-1.71 4-2.94.45-.31 1.78-.45 2.39-.66.64.28 1.56 1.29 2.77 1.75.88.35 3.88.98 4.37 1.26.65.35.76 1.19 1.33 1.5 1.71.91.72-.63 2.36-.31 1.67.35 3.04 1.71 4.6 2.38.26.1.9-.04 1.21-.11.5-.1 3.16-.6 3.42-.49.3.1.76.39 1.07.46.38.07.68-.74.95-.7 1.14.17 1.17.63 2.7.49.07 0 .8-4.27 1.51-4.48.42-.11 1.56 1.01 1.9 1.08.57.14-.03-.87-.07-.94a24 24 0 0 1-.91-3.22c.03-.14.76.2 1.1.1.83-.28 1.97-.49 2.58-1.15a49 49 0 0 0 1.4-2c.08-.31-.33-1.05-.14-1.3.19-.2.9-.48 1.25-.83.5-.5.57-1.33 1.25-1.68 2.7-.25 3.65-2.35 6.08-2.63.16 0 .69-.1.8-.07l.5.8c.15.22 1.78 1.2 2.05 1.13.23-.04.34-.42.57-.5.5.08 1.86-.76 2.01-1.18.04-.07-.3-.5-.15-.77.11-.21 1.82-1.47 2.09-1.61.6 0 1.25-.14 1.82.07.35.14.38.66.76.73.42.04 1.18-.14 1.49-.07.34.07.49-.63.9-.66z"/><g id="b"><use xlink:href="#a" x="461.83" y="121.83"/><use xlink:href="#a" x="544.23" y="136.36"/><use xlink:href="#a" x="622.86" y="164.97"/></g><use xlink:href="#b" x="-840" transform="scale(-1 1)"/></svg>