<svg xmlns="http://www.w3.org/2000/svg" viewBox="0 0 2100 1400"><path fill="#198a00" d="M0 0h2100v1400H0z"/><path fill="#ef7d00" d="M1850 500h250v900h-250z"/><path d="M1600 500h250v900h-250z"/><path fill="#de2010" d="M1350 500h250v900h-250z"/><g fill="#ef7d00" stroke="#000" stroke-linecap="round" stroke-linejoin="round" stroke-width="2.25"><path d="M1916.42 168.33s86-33.7 94.34-40.65c3.79 4.17-34.48 46.56-108.73 62.2 67.43-14.6 125.02-60.46 136.77-59.07 3.4.7 2.65 44.82-151.93 83.05 106.84-25.72 168.97-72.98 168.22-67.76.75 1.04-10.61 37.18-104.19 65.32 26.14-5.56 96.99-45.17 96.23-37.53 2.27 3.13-68.57 86.53-196.63 59.43 102.3 24.32 168.6-34.4 178.07-33.36 1.9.34-18.95 51.42-147.76 54.55 61.76-5.9 43.95-.35 43.95-.35s-36.37 26.06-80.32 8.34c34.48 8.7 38.27 9.04 39.02 11.82-2.27 3.47-30.68 8.69-57.96-4.87 21.97 8.34 41.67 9.73 42.05 12.86-.38 1.04-14.4 8.34-26.9 3.13s-127.67-70.2-127.67-70.2l196.25-49.34zM1685.71 344.1c-17.25 0-17.73 14.09-17.73 14.09s-1.42 1.02-.47 7.84c2.84-4.64 4.27-6.1 4.27-6.1 1.9.3 9.82 2.47 22.32-6.53-11.4 10.89-4.59 14.96-4.59 14.96s-2.69 8.56 6.02 10.3c-2.7-3.48-1.1-6.53-1.1-6.53s12.18-1.16 11.39-14.8c.48 12.33 7.76 15.38 7.76 15.38s0 6.83 7.91 7.4c-4.27-3.48-3.32-8.85-3.32-8.85s10.3-6.83 1.58-18.44c5.23-2.76 9.5-10.46 9.5-10.46s-7.12-2.76-10.45-5.08c-1.58-3.05-.15-19.75-.15-19.75l-4.28-21.64-12.2 33.7c.48-4.8.8 14.52-16.46 14.52"/><path d="M1770.94 295.51c.38.35 12.89 13.21 25 12.51 4.55-3.47-9.46-11.12-9.46-12.85 4.92 4.17 25.76 20.5 39.02 14.6 5.3-6.96-9.47-5.92-25.76-24.68 11.36 6.95 39.78 22.24 53.04 16.33 5.68-5.56-29.56-22.93-41.3-36.49l-30.3-14.24-41.3 30.93zm-46.6-105.63s14.02-7.65 70.1-3.82c6.06.7 38.26-10.08 48.49-13.2 16.29-2.79 68.19-13.21 82.2-22.94 9.86-1.04-2.65 16.68-15.15 20.85-13.26 5.56-61.37 20.85-78.42 18.76 20.46.35 9.1 15.64-25 8.34 16.29 8.34 10.23 9.73 10.23 9.73s-28.8 1.39-36.37-4.52c19.32 6.6 11.36 9.04 11.36 9.04s-19.7 1.73-28.8-2.09c14.02 3.82 6.83 6.26 6.83 6.26s-11.37 1.73-20.84-1.4-23.87-25.01-24.63-25.01m22.49 112.84 2.06 33.98s-1.11 1.74-2.06 2.76-26.29-3.63-22.8 14.08c0 7.26.16 9.15 5.54 13.22-1.43-4.8-.95-8.13-.95-8.13s7.12 3.92 14.1-6.83c-4.76 10.6-1.44 14.38-.33 14.67 1.11 1.89-1.9 10.45 7.6 10.3-3.64-3.19-1.9-7.83-1.9-7.83s9.98-1.45 6.5-18.01c3.64-3.34 5.06-.15 5.06-.15s1.11 9.88 9.82 7.85c3.96 2.03-.63 7.4-.63 7.4s6.33.15 8.23-4.79 4.11-13.8-6.34-17.43c-1.26-3.48 4.12-3.77 4.12-3.77s6.65 2.03 8.55 5.08 1.27-7.99-6.96-9.15c-10.14-.29-10.77-2.18-10.77-2.61 0-.44-1.74-24.69-2.53-31.66z"/><path d="M1782.07 331.67c.12-1.55-17.29-23.05-12.87-25.83 4.41.83 11.66 10.61 17.52 7.44-1.78-3.82-7.02-1.67-12.97-11.43-5.95-11.03-6.81-27.6-27.65-45.66 13.49 19.12 44.09 30.33 45.39 24.75s-26.95-26.65-25.5-31.73c5.61 10.43 33.97 33.68 54.86 31.75 1.44-4.47-17.1-13.5-21.88-21.94-13.34-8.22-49.06-36.46-49.78-43.01-13-17.39-21.1-22.65-24.89-24.65-1.46-1.58-1.82-3.09-2.1-4.04-8.08-17.45 2.61-23.12 8.86-23.95 5.15-.53 6.65.18 10.35-1.47-4.39-1.57-8.77-3.04-13.15-4.62 5.71 3.85 20.32.46 17.15 11.54 6.4-2.23 20.03-17.1-15.44-20.45-11.54-12.15-59-19.13-70.89 33.88.95.75 1.45 1.36 4.47 3.42-15-6.66-55.43-11.8-70-13.96-39.36-10.41-80.24-35.52-84.17-32.43-5.26 2.14 23.78 26.92 22.27 27.47-25.18-13.47-48.18-23-69.58-31.69-15.06-5.16-30.14-17.18-31.8-14.9-5.54 10.54 24.14 37 29.66 40.12 5.52 2.97 48.95 21.45 48.3 21.68-65.4-27.23-76.37-32.17-79.65-35.3-5.76-1.2-19.8-18.59-23.72-17.47-2.14 1.93 2.16 29.41 33.37 41.75 5.08 3.4 66.9 23.73 66.3 25.33-.16.4-70.8-26.74-73.55-27.71-13.62-4.9-30.34-22.08-33.46-20.14-2.98 1.75 7.7 20.33 21.47 26.16 7.21 2.92 34.89 15.5 59.82 23.5 1.59.52-44.82-16.15-67.13-24.7-10.12-5.15-14.88-11.57-16.42-10.18-2.28 1.38 3.68 28.83 75.38 44.33 1.89.73 25.24-5.08 24.08-4.3-.28.19-23.18 4.76-25.41 4.6-1.99-.28-14.53 1.36-14.76 1.96-.75 1.86 4.55 11.69 41.57 9.64 4.73-.26 30.41-8.58 28.26-6.8-1.08.9-34.98 11-37.56 11.2-2.24.3-14.15 1.44-14.59 2.6-.54 1.58 8.82 8.58 28.7 9.7 17.6.86 51.05-9.86 50.37-9.17-.67.7-32.24 10.62-33.07 11.22-1.14.6-12.7 1.17-13.1 1.99-.95 2.02 16.67 17.13 68.78 1-5.23 6.5-30.5 10.93-30.46 12.1-.11.84 5.57 5.88 14.4 7.68 4.41.9 10.46.72 15.98-.08 9.92-1.82 20.37-5.42 33.65-16.68 1.59 3.53-33.17 19.67-31.54 21.2 7.54 6.42 32.58-.82 34.22-1.66s48.21-24.93 48.05-27.72c.72 3.57-60.04 33.86-59.39 35.1 3.9 5.71 24.66-.3 25.65-.82 1-.53 26.5-13.16 27.2-13.54s-29.98 16.47-27.25 19.03c-1.32 10.93 47.9-7.54 51.76-9.85 1.93-1.15-23.64 10.32-23.71 15.76 8.23 12.77 34.6 8.72 38.67 5.91 2.03-1.4-2.4 9.49-.97 8.5.5-.2 5.74-5.89 7.75-10-.64 3.57-3.53 9.2-5.22 15.64s-2.17 13.73-4.49 21.46c-.53 3.4 16.25-6.64 13.81-30.63 1.44 12.48-5.3 35.81-3.54 37.02 3.53 2.43 13.28-11.62 14.26-21.12 2.9 4.8 8.97 14.82 14.2 17.12-.58-7.26.1-6.92-2.26-14.06 1.36-9.47 1.55-22.58 1.88-37.38 14.2 24.95 19.86 35.48 15.89 54.59 4.22 1.61 10.97-13.34 10.42-21.03 5.42 21.38 28.83 24.59 29.2 23.96"/><path d="M1545.57 173.29s-9.66 6.7-21.69 6.3c3.01 11.03 27.92 2.56 27.92 2.56s-12.02 12.21-20.61 14.18c5.15 3.94 26.84 2.56 30.5.6 3.64-1.97 10.09-9.66 10.09-9.66s-22.34 23.64-25.56 23.44c-.43 2.76 23.4 1.78 28.35-2.36 4.94-4.14 17.4-10.24 17.4-10.24s-32.65 20.88-34.15 20.88c12.24 2.95 36.72-3.55 52.4-12.41-23.2 14.18-25.34 16.74-37.16 21.47 10.53 2.16 15.9 8.66 51.55-5.52 20.4-8.86 32-25.01 32-25.01-12.68 15.56-32.65 28.76-54.77 41.76-1.29 2.36 23.62 12.01 55.4-18.32m61 18.12s2.15 9.26 10.74 16.35 9.23 13.98 9.23 13.98m-24.26-90.61s3 8.28 11.8 13.6c9.03 5.31 22.56 22.06 23.63 25.01 1.04 3.58 6.23 29.35 5.8 32.1"/><path d="M1659.18 191.6c.65 3.16-12.67 19.11 5.59 37.83-16.54 18.51-16.54 20.88-16.54 20.88s9.23 4.72 25.77-8.28c27.28 30.73 18.19 44.8 18.19 44.8"/><path d="M1690.01 265.13s-2.5-3.3 1.97-15.63c4.03 4.46 8.52 5.41 10.49 7.22 1.96 1.8 22.55 4.53 23.86 17.16m-12.11-124.45c0-.93-4.14-9.09-19.61 1.12 8.29.46 16.48 4.82 19.61-1.12m147.65 37.32c.76.35 46.22 9.38 61.37 4.87-19.32 23.63-57.96 7.64-57.96 7.64 18.94 5.21 19.7 4.87 25.76 9.73 1.9 4.52-34.85 2.43-46.98-3.82 33.72 9.73 34.48 9.03 35.62 12.85 1.51 5.22-55.32-1.39-60.24-8.33 15.15 10.77 23.49 12.85 31.82 17.72-10.23 4.17-29.17 8.34-64.03-14.25 45.84 38.22 87.14 35.8 93.58 42.74-15.9 21.55-77.66-12.86-106.08-30.23-28.41-17.37 62.13 42.05 70.47 41-4.17 5.91-34.1.7-36-2.08"/><path d="M1873.61 226.71c-5.3.7-21.21.7-23.48.35m-317.87-60.08s34.58 16.75 49.18 15.57c-3.87 3.34-9.67 4.72-9.67 4.72 3.66 1.38 13.75 6.3 29 3.15-3.65 3.35-8.38 7.1-8.38 7.1s13.1 4.53 27.92-2.56c-4.5 5.12-7.09 8.86-7.09 8.86l10.31.59"/></g></svg>