<svg xmlns="http://www.w3.org/2000/svg" xmlns:xlink="http://www.w3.org/1999/xlink" viewBox="0 0 950 570"><path fill="#d21034" d="M0 0h950v285H0z"/><path fill="#009543" d="M0 285h950v285H0z"/><path d="m0 0 552.81 285L0 570z"/><path d="M0 234h950v102H0z"/><path fill="#fdce12" d="M0 40.5 474.25 285 0 529.5z"/><path fill="#fdce12" d="M0 270h950v30H0z"/><path d="M0 74.25 408.78 285 0 495.75z"/><path fill="#fdce12" d="M115.48 339.52V372c28.25 0 83.7-21.65 83.7-91.36 0-69.7-59.14-82.64-76.83-82.64-17.7 0-72.35 12.67-72.35 69.7s53.6 62.32 64.16 62.32 50.17-9.5 45.68-52.28c0 12.14-13.73 37.76-42.51 37.76S70.6 294.1 70.6 272.99c0-21.13 17.42-49.38 47.79-49.38s52.54 26.93 52.54 54.13-21.39 61.78-55.45 61.78"/><g id="a" fill="#fdce12"><path stroke="#fdce12" d="m90.73 297.25 1.68 1.08s13.37-30.5 49.31-52.18c-4.56 2.48-28.61 14.46-51 51.1z"/><path d="M94.2 292s-4.17-8.52-.5-12.28 1.98 10 1.98 10l1.58-2.28s-2.47-10.4.3-12.57c2.77-2.18 1.39 10 1.39 10l1.68-2.18s-1.78-10.1.89-11.98 1 9.5 1 9.5l1.97-2.27s-1.48-9.6 1.78-11.88c3.27-2.28.4 9.1.4 9.1l2.18-2.37s-1-8.81 1.78-10.8c2.77-1.97.4 8.32.4 8.32l1.98-2.08s-.6-8.21 2.07-10.1c2.68-1.88.2 7.83.2 7.83l2.08-1.98s-.5-8.22 2.87-9.8c3.37-1.59-.59 7.72-.59 7.72l2.28-1.98s.69-9.6 3.56-10.5c2.87-.89-1.29 8.52-1.29 8.52l2.08-1.69s1.1-8.22 4.26-9.2c3.17-1-1.98 7.52-1.98 7.52l2.08-1.58s2.28-8.22 5.25-9.11c2.97-.9-3.07 7.72-3.07 7.72l1.98-1.39s3.27-7.42 5.94-7.92-2.97 6.14-2.97 6.14l2.48-1.48s4.25-7.73 5.74-5.35c1.48 2.38-5.94 5.84-5.94 5.84l-2.48 1.39s9.01-4.26 10.1-2.08-12.38 3.56-12.38 3.56l-2.17 1.49s9-2.48 7.92-.2c-1.1 2.28-10 1.78-10 1.78l-2.08 1.49s9-2.18 7.82-.1c-1.19 2.08-10 1.88-10 1.88l-2.18 1.78s8.81-2.28 7.53.4c-1.3 2.67-11.3 2.57-11.3 2.57l-2.47 2.28s9.31-3.17 8.52-.7c-.8 2.48-11.39 3.77-11.39 3.77l-2.37 2.38s10-3.37 7.03-.3-10.2 3.86-10.2 3.86l-2.87 3.46s9.9-5.94 8.51-2.57-11.09 5.65-11.09 5.65l-1.98 2.37s8.91-5.15 8.02-2.28-10.4 5.94-10.4 5.94l-1.58 2.18s10.5-6.24 9.6-3.07c-.89 3.17-10.89 5.45-10.89 5.45l-1.28 1.98s9.7-5.55 9.8-2.87-11.39 5.34-11.39 5.34z"/></g><use xlink:href="#a" transform="matrix(-1 0 0 1 238.5 0)"/></svg>