<svg xmlns="http://www.w3.org/2000/svg" xmlns:xlink="http://www.w3.org/1999/xlink" viewBox="0 0 1400 700"><path fill="#060" d="M0 0h1400v700H0z"/><path fill="#fff" d="M0 0h1400v500H0z"/><path fill="#c00" d="M0 0h1400v200H0z"/><g fill="#f8c300"><path d="M672 340.7a12.5 12.5 0 0 1 23.3 5.9v50h9.4v-50a12.5 12.5 0 0 1 23.3-5.9 29.5 29.5 0 1 0-56 0"/><path fill="#fff" d="M678.7 327.65a20 20 0 0 1 21.3 9.55 20 20 0 0 1 21.3-9.55 21.5 21.5 0 0 0-42.6 0"/><path id="a" d="M695.3 376.63a38 38 0 0 1-63.84 24.31 39.5 39.5 0 0 1-59.74 17.47c3.65 36.43 58.25 28.99 62.32-6.43 17.15 30.12 54.87 21.5 65.91-15.4z"/><use xlink:href="#a" transform="matrix(-1 0 0 1 1400 0)"/><path id="b" d="M658.84 441.31c-7.62 16.45-22.84 19.27-36.16 6 0 0 5.35-3.79 11.08-4.83-1.07-4.58 1.13-10.9 4.24-14.32 3.25 2.22 7.8 6.68 8.96 11.87 8.03-1.04 11.88 1.28 11.88 1.28"/><use xlink:href="#b" transform="rotate(9.37 700 804)"/><use xlink:href="#b" transform="rotate(18.74 700 804)"/><path fill="none" stroke="#f8c300" stroke-width="16" d="M603 478a340 340 0 0 1 194 0"/><g transform="translate(700 380)"><g transform="translate(0 -140)"><path id="c" d="m0-513674 301930 929245-790463-574305h977066l-790463 574305z" transform="scale(.00005)"/></g><g id="d"><use xlink:href="#c" transform="translate(-70 -121.24)"/><use xlink:href="#c" transform="translate(-121.24 -70)"/><use xlink:href="#c" transform="translate(-140)"/></g><use xlink:href="#d" transform="scale(-1 1)"/></g></g></svg>