<svg xmlns="http://www.w3.org/2000/svg" viewBox="0 0 1200 600"><clipPath id="a"><path d="M0 0v150h700v150H600zm600 0H300v350H0v-50z"/></clipPath><path fill="#00247d" d="M0 0h1200v600H0z"/><path stroke="#fff" stroke-width="60" d="m0 0 600 300m0-300L0 300"/><path stroke="#cf142b" stroke-width="40" d="m0 0 600 300m0-300L0 300" clip-path="url(#a)"/><path stroke="#fff" stroke-width="100" d="M300 0v350M0 150h700"/><path stroke="#cf142b" stroke-width="60" d="M300 0v350M0 150h700"/><path fill="#00247d" d="M0 300h600V0h200v400H0z"/><path fill="#cc3" d="M780.58 154.04c0 148.83 11.88 201.67 52.6 242.48 40.74 40.8 56.18 47.23 67.53 53.48 13.1-7.21 28.2-15.13 65.12-52.05 36.51-36.52 54.17-89.15 54.17-246.45-26.56 11.37-39.79 15.11-63.01 15.05-17.2 1.68-43.74-9.34-59.61-16.55-10.37 6.6-25.42 14.48-52.45 15.36-31.23 1.3-41.12-3.74-64.35-11.32"/><path fill="#fff" d="M787.78 163.44c0 46.04-2.73 108.8 7 145.1 9.77 36.46 12.01 41.8 19.36 54.53l171.2-1.27c10.58-18.32 11.12-29.67 18.96-58.94 7.81-29.16 9.79-94.18 10.02-142.6-17.22 8.72-39.77 14.9-61.65 12.2-17.54-1.28-33.75-5.1-52.62-15.27-16.38 9.35-22.09 13.62-49.12 14.72-21.05.98-38.1 2.61-63.15-8.47"/><path fill="#9cf" d="M814.51 362.06c12.18 24.44 69.63 71.3 86.43 81 19.17-11.07 69.85-57.37 83.98-81z"/><path fill="#f90" d="M904.22 231.6c5.41 12.15 22.77 25.55 27.54 32.12-6.07 6.57-7.28 5.85-6.49 18.06 10.56-10.53 10.75-11.63 17.54-10.04 14.88 14.16 2.67 44.56-9.63 51.17-12.3 7.05-10.06-.24-28.49 8.6 8.45 6.88 18.24-1.02 26.24 1.1 4.34 4.91-2.07 13.87 1.31 22.31 7.07-.65 6.22-14.25 7.87-19.19 5.16-18.07 36.21-30.68 37.79-47.26 6.55-2.93 13.09-.92 21.05 3.34-3.97-15.53-17.08-15.36-20.6-20.21-8.36-12.2-15.78-26.1-33.65-29.71-13.57-2.74-12.56.82-21.25-4.83-5.41-4.02-21.86-11.62-19.23-5.45"/><path fill="#f90" d="M860.84 283.1c8.73-10.23 13.05-31.12 16.92-38.21 8.93 2.05 8.83 3.4 19.78-2.97-14.7-3.98-15.81-3.62-17.5-10.1 6.17-19.15 40.07-23.06 51.95-15.78 12.28 7.07 4.47 8.6 21.28 20 2.44-10.34-9.46-14.9-11.24-22.63 2.53-5.96 13.84-4.74 20.08-11.53-3.9-5.66-16.12 1.42-21.47 2.33-19.17 4.1-45.37-16.19-61.48-9.77-5.78-4.15-6.97-10.61-6.74-19.31-12.55 10.6-6.27 21.57-9.13 26.8-7.4 12.75-16.83 25.5-11.82 42.25 3.8 12.72 6.63 10.2 5.44 20.17-1.2 6.44-.56 23.85 3.93 18.76"/><path fill="#f90" d="M931.76 290.3c-13.7-1.83-34.7 5.45-43.06 5.97-2.77-8.35-1.5-8.97-12.89-14.6 4.03 14.05 4.92 14.77-.01 19.5-20.4 4.87-41.43-20.77-41.04-34.23-.01-13.68 5.4-8.1 6.94-27.7-10.54 3.35-8.48 15.42-14.5 20.87-6.66 1.02-11.41-8.84-20.74-10.42-3.06 6.1 9.61 12.42 13.2 16.3 13.6 13.54 8.94 45.4 23.03 55.24-.74 6.85-5.92 11.16-13.85 15.48 16.01 4.76 22.61-6.05 28.79-6.42 15.27-.56 31.6.54 44.04-12.2 9.45-9.68 5.72-10.69 15.29-14.88 6.4-2.36 21.7-11.88 14.8-12.9"/><circle cx="266.24" cy="122.1" r=".81" fill="#fff" transform="matrix(3.50845 0 0 3.34488 6.33 -163.01)"/><circle cx="266.24" cy="122.1" r=".81" fill="#fff" transform="matrix(-1.639 -2.95744 3.10207 -1.56258 914.32 1224.33)"/><circle cx="266.24" cy="122.1" r=".81" fill="#fff" transform="matrix(-1.80698 2.86712 -3.00733 -1.72273 1749 -240.21)"/></svg>