<svg xmlns="http://www.w3.org/2000/svg" xmlns:xlink="http://www.w3.org/1999/xlink" viewBox="0 0 2800 1400"><path d="M0 0h2800v1400H0z" style="fill:#cc0001"/><path id="a" d="M0 1300h2800v100H0z" style="fill:#fff"/><use xlink:href="#a" transform="translate(0 -200)"/><use xlink:href="#a" transform="translate(0 -400)"/><use xlink:href="#a" transform="translate(0 -600)"/><use xlink:href="#a" transform="translate(0 -800)"/><use xlink:href="#a" transform="translate(0 -1000)"/><use xlink:href="#a" transform="translate(0 -1200)"/><path d="M0 0h1400v800H0z" style="fill:#010066"/><path d="M576 100c-166.15 0-301 134.4-301 300s134.85 300 301 300a300 300 0 0 0 162.93-47.78 267 267 0 0 1-87.27 14.6c-147.33 0-266.9-119.17-266.9-266.01S504.33 134.8 651.66 134.8a267 267 0 0 1 92.6 16.47A300 300 0 0 0 576 100" style="fill:#fc0"/><path d="m914.29 471.43-99.54-53.25 29.43 108.98L777.6 436l-20.77 110.96-20.43-111.03-66.85 90.96L699.3 418l-99.7 52.94 74.07-85.19-112.8 4.44 103.7-44.62-103.56-44.94 112.78 4.8L600 220l99.54 53.25-29.43-108.98 66.57 91.16 20.77-110.96 20.43 111.03 66.86-90.96-29.77 108.89 99.7-52.94-74.06 85.19 112.8-4.44-103.7 44.62 103.56 44.94-112.79-4.8z" style="fill:#fc0" transform="matrix(1.2738 0 0 1.2423 -89.44 -29.48)"/></svg>