<svg xmlns="http://www.w3.org/2000/svg" xmlns:xlink="http://www.w3.org/1999/xlink" viewBox="0 0 600 300"><path fill="#ce1126" d="M0 0h600v300H0z"/><g fill="#fcd116" stroke="#bd9c08" stroke-width="1.2"><path stroke-width="1.5" d="M349.39 141.29c8.76 2.35 22.01 1.76 27.96 8.71-8.75-2.35-19.55 11.81-27.96 8.71 7.43 5.2-108.04 0-98.78 0-8.76-2.35-22.01-1.76-27.96-8.71 8.75 2.35 19.55-11.81 27.96-8.71-7.43-5.2-20.31-9.23-23.3-17.75 7.43 5.2 22.54-4.44 29.26 1.38-5.2-7.42-16.07-15.57-15.83-24.64 5.2 7.43 22.71 3.45 27.02 11.3-2.34-8.76-9.41-20.05-6.44-28.57 2.35 8.76 19.98 10.93 21.53 19.86.79-9.03-2.4-22.1 3.72-29.05-.79 9.03 15.13 17.1 13.43 26.03 3.83-8.22 5.95-21.5 13.43-26.03-3.83 8.22 8.67 21.2 3.72 29.05 6.41-6.4 12.6-18.29 21.53-19.86-6.41 6.41.42 22.74-6.44 28.57 8.21-3.83 17.91-12.88 27.02-11.3-8.22 3.83-7.41 21.54-15.83 24.64 9.04-.79 21.17-5.91 29.26-1.38-9.03.79-14.04 17.75-23.3 17.75z"/><path stroke-linejoin="round" stroke-width="1.5" d="m258.36 150-31.59-12.91 34.1-1.33-25.27-22.94 32.5 10.42-15.9-30.2 26.98 20.9-4.61-33.8 18.2 28.86L300 75.65l7.23 33.35 18.2-28.87-4.61 33.81 26.97-20.9-15.89 30.2 32.49-10.42-25.26 22.94 34.09 1.33L341.64 150l31.58 12.91H226.77z"/><circle cx="300" cy="150" r="41.36" stroke-width="1.8"/><path d="m313.6 49.86 22.18.15c.14-.94-1.9-2.8-3.65-3.08-5.61-.88-9.82.94-16.64 1z"/><path d="M269.43 44.64c5.21 6.58 15.31 11.16 24.95 11.22 13 .08 27.42-10.44 44.85-13.67l-56.91-1.17c-7.37-5.04-12.96-4.4-16.77-1.27l-10.88.32c-1.54.84 1.27 4.35 3.55 4.48z"/><path d="M295.16 40.87c-2.07-9.52-9.71-13.62-18.89-14.84-10.61-1.4-35.02-2.85-51.24-7.5 7.02 6.9 21.71 10.34 31.92 11.9 10.81 1.65 21.33 4.05 29.67 10.35z"/><path stroke-linecap="round" d="M288.27 47.22c3.39 4.35 8.65 4.1 14.31.31 5.64-3.79 11.77-14.45 14.73-14.62 20.69-1.2 45.72-9.94 57.66-16.68-15.14 2.14-30.14 4.57-45.41 4.63-26.05.1-29.13 11.97-39.75 20.29"/><path fill="none" stroke-linecap="round" d="M292.31 42.1c5.55-3.53 10.06-8.15 15.26-12 8.61-6.38 18.55-6.57 29.23-6.7 9.46-.12 26.04-4.07 35.04-6.18"/><path fill="none" d="M286.53 40.44c-1.63-8.51-9.6-11.07-19.66-12.6-10.95-1.66-22.12-2.59-33.04-5.6-2.71-.75-5.23-2.07-7.85-3.11"/><path fill="none" stroke-linecap="round" d="M290.02 52.98c10.28.76 17.91-2.33 26.68-6.7m-62.07-4.45h12.96"/><circle cx="271.75" cy="40.44" r="1.62" fill="#bd9c08" stroke="none"/></g><path fill="#003f87" d="M0 165h600v135H0z"/><path id="a" fill="#fff" d="M0 257.14c20 0 40 12.86 60 12.86s40-12.86 60-12.86S160 270 180 270s40-12.86 60-12.86S280 270 300 270s40-12.86 60-12.86S400 270 420 270s40-12.86 60-12.86S520 270 540 270s40-12.86 60-12.86v-21.43c-20 0-40 12.86-60 12.86s-40-12.86-60-12.86-40 12.86-60 12.86-40-12.86-60-12.86-40 12.86-60 12.86-40-12.86-60-12.86-40 12.86-60 12.86-40-12.86-60-12.86-40 12.86-60 12.86-40-12.86-60-12.86z"/><use xlink:href="#a" y="-42.86"/><use xlink:href="#a" y="-85.71"/></svg>