<svg xmlns="http://www.w3.org/2000/svg" viewBox="0 0 30 15"><clipPath id="a"><path d="M0 0v75h350v75h-50zm300 0H150v200H0v-50z"/></clipPath><path fill="#00247d" d="M0 0h30v15H0z"/><path stroke="#fff" stroke-width="1.5" d="m0 0 15 7.5M15 0 0 7.5"/><path stroke="#cf142b" stroke-width="20" d="m0 0 300 150m0-150L0 150" clip-path="url(#a)" transform="scale(.05)"/><path stroke="#fff" stroke-width="2.5" d="M7.5 0v10M0 3.75h17.5"/><path stroke="#cf142b" stroke-width="1.5" d="M7.5 0v10M0 3.75h17.5"/><path fill="#00247d" d="M15 0v7.5H0V15h30V0z"/><g fill="#f7e017" stroke="#000" stroke-width=".01"><path d="M20.02 7.95c-.32.27-.63.67-.7 1.03-.21 1-.5 1.23-.92 1.01 0 .54.47.59.68.27q-.02.76.6 1.32c.17.16.2.05.12-.12-.08-.18-.08-.74-.25-1.07.27.2.66.09.63-.44-.34.2-.68.2-.72-.28-.04-.56.18-1.37.56-1.72zm-.41-4q.05-.31-.16-.54c-.29-.24-.56-.16-.77.04-.3-.17-.47.42-.82.32q.07.3.33.21c-.19.17 0 .37-.22.57.4.12.6-.1.58-.47.15.13.39.12.51-.03-.2-.06-.2-.24-.12-.41.12-.25.7-.24.67.3z"/><path fill="#337321" d="M20.52 6.84c-.45.23-1.25.13-1.33-.44-.07-.57.49-.83.64-.9.23-.12.41.09.34.33.25-.1.31-.4.19-.57.34.03.65-.23.79-.6-.12.12-.45.04-.72.02.09-.09.09-.27.06-.36-.28.3-.69.16-1.23 1l.35-1.37c.04-.55-.55-.56-.67-.31.13.15.06.33.01.6-.06.33-.18 1.08-.29 1.33-.03-.4-.29-.42-.34-.6-.08.04-.12.18-.1.27-.1-.1-.4.02-.52-.13-.13.25.07.5.28.6-.12.02-.15.16-.28.16q.25.3.57.31c.21.02.37.1.5.35.2.42 1 .69 1.75.31z"/><path d="M21.61 6.33a2.2 2.2 0 0 1-1.24 1.26c-.52.13-1.59.65-1.87.91l-.12-.04c-.14-.1-.26-.43-.01-.7.78-.74 1.62-.42 2.15-.92-.44.23-1.25.13-1.33-.44.48.13 1.34.13 2.02-.6.09.1.35.42.4.53z"/><path fill="#337321" d="M20.02 7.95c-.4.34-.6 1.16-.56 1.72q.02.23.12.32c.03-.31.25-1.13.81-1.5.47-.3 1.21-1 1.49-1.78a.6.6 0 0 0-.3-.34c-.26.74-1 1.1-1.56 1.58z"/><path fill="#316d3a" d="M21.36 6.01c-.14.22-.46.5-.77.62a.4.4 0 0 0 .1-.24c-.4.15-1.18.13-1.5.01a2 2 0 0 0 2.01-.6q.11.11.16.21z"/><path fill="#337321" d="M18.37 7.76c-.64.6-.22 1.11.03 1.23-.06.41.33.36.32.71.16-.09.2-.33.17-.52.2.21.71-.03.82.37.07-.44-.27-.88-.7-.84.18-.16.08-.41-.09-.48-.03.32-.4.32-.54.23-.14-.1-.26-.43-.01-.7z"/><path d="M19.75 11.54c-.07.04-.07.13-.03.19.1.11-.06.38.22.43q.13.02.18-.13c.1-.26-.19-.29-.21-.41-.03-.13-.1-.11-.16-.08z"/><path d="M19.98 12.03c-.09.04-.17.1-.13.4.01.13 0 .43-.1.43.06.04.2.07.26 0 .06.09.18.06.23-.06.07.06.16-.03.16-.11.06.04.18-.02.15-.2q.12.03.2-.07c-.11-.02-.37-.16-.43-.27-.07-.12-.23-.17-.34-.12z"/><path fill="none" d="m18.54 3.62.14-.17m1.44 1.27q.13-.06.31-.04m-.42 8.17c-.03-.04-.04-.21-.02-.32m.26.27a.5.5 0 0 1-.15-.26m.3.15a1 1 0 0 1-.23-.33m.38.14a1 1 0 0 1-.37-.3"/><path d="M24.38 7.77c1.03.85 1.1 1.53.93 1.93-.08-.37-.5-.95-.94-1.1z"/><path fill="#337321" d="M22.55 7.28h1.9v2.25a4 4 0 0 1-2.15 3.64 4 4 0 0 1-2.14-3.64V7.28h1.33c0 .12.01.3.15.47.31-.03.67-.27.91-.47z"/><path fill="#006ec7" d="M24.45 7.28v2.25q-.01.86-.26 1.52L22.3 7.6l-1.88 3.45a4 4 0 0 1-.26-1.52V7.28z"/><path stroke="none" d="m24.24 10.89-.14.37-1.8-3.35-1.8 3.35-.14-.37 1.94-3.6z"/><path d="m23.16 12.12.18.09c.1-.2.12-.49.08-.74-.1.28-.47.27-.57.44l.17.1a2 2 0 0 1-.59.39v-1.8l-.04-.33V9.9c0-.08-.01-.2-.09-.2s-.09.12-.09.2v.37l-.04.33v1.79c-.1-.27-.45-.18-.62-.44l.2-.01c-.12-.43-.46-.46-.53-.58 0 .17-.07.58.04.75l.12-.09c.14.3.77.3.92.82.12-.2.56-.4.86-.73z"/><path d="m22.3 10.63.76-.04q.06-.01.07-.14c.01-.13-.03-.14-.07-.14-.17 0-.61-.05-.76-.05-.14 0-.59.05-.75.05q-.07.01-.08.14c0 .13.04.14.08.14zm-.09-.73-.11-.04q-.16.01-.17.16.01.15.17.16.16-.01.17-.16c0-.07.1-.07.1 0 0 .14-.12.24-.27.24s-.27-.1-.27-.24.12-.24.27-.24l.12.02z"/><path d="M21.55 10.59q.07-.02.08-.14-.01-.16-.08-.14"/><path d="M21.61 10.59q.08-.02.08-.14-.01-.16-.08-.14m.41.31q.1-.02.1-.17-.01-.16-.1-.17m.1.34q.09-.02.1-.17-.01-.16-.1-.18m.32.36c.05 0 .1-.09.1-.18q-.01-.16-.1-.18"/><path d="M22.54 10.62q.09-.02.1-.17-.01-.17-.1-.18m.45.32q.07-.01.07-.14c0-.13-.03-.15-.07-.15m-1.61 1.73.17-.07m1.52.09-.05-.04m.14.11q.17-.2.27-.43"/><path fill="#fff" d="M21.92 8.87q0-.05.07-.09.06-.05.11-.05h.55q.05 0 .05.05v.74q0 .05-.05.05h-.73v-.7"/><path fill="#e5e5e5" d="M22.51 9.63c.08 0 .06 0 .11-.05s.05-.05.05-.1v-.67q.01-.05-.05-.05h-.5q-.05 0-.1.05-.06.03-.07.08v.74z"/><path fill="#fff" d="M22.57 9.62q0 .05-.05.05h-.55q-.05 0-.05-.05v-.74q0-.05.05-.05h.55q.05-.01.05.04z"/><path fill="#96877d" d="M23.63 6.85q.16.2.08.43h-.16c.07-.2.02-.39-.26-.41-.42-.04-.91.78-1.65.88-.22-.26-.2-.75.07-.98a3 3 0 0 0-.65-1.06 2 2 0 0 0-.4-.02c.11-.24.42-.48.67-.58l.12-.17c.03-.32 1.55-.17 1.87.03 0 .36.15 1.55.3 1.88z"/><path fill="#000" stroke="none" d="M21.78 7.07a2 2 0 0 0-.57-1.33c.15.05.45.05.66-.1.27-.19 1-.5 1.25-.37.02.05.04.15.02.22-.06-.17-.75.09-.95.17s-.27.2-.2.46c-.11-.09-.07-.18-.19-.24.05.1.09.3.1.46-.04-.11-.12-.35-.28-.5.14.28.26.94.2 1.29.12 0 .37-.11.47-.2-.1.13-.34.22-.5.25a1 1 0 0 0-.12.44c-.02-.16.03-.53.11-.55m1.85-.22c-.14-.16-.4-.24-.73-.15q.1-.05.26-.08c-.02-.09-.1-.47-.1-.56l.08-.03c.05.22.1.48.15.58.02.01.1.02.15.05l-.16-.78.12-.07c.05.35.13.84.23 1.04"/><path fill="#96877d" d="M23.55 7.28c.07-.2.03-.39-.26-.41-.22-.02-.45.2-.73.41zm-1.84-1.79c-.12.02-.4 0-.54-.05q0-.06.04-.12c-.09.06-.25.17-.32.25.2.04.61.06.82-.08z"/><path fill="none" d="M21.7 6.77q.07.2.09.37m-.46-2.04q-.12.19-.16.34c.14.04.42.07.54.05"/><path fill="none" d="m21.06 5.71.15.03c.15.05.45.05.66-.1.2-.15.77-.62 1.41-.67"/><path fill="none" d="M20.9 5.57c.2.04.6.06.81-.08a3 3 0 0 1 1.42-.55"/><path fill="#337321" d="M24.38 7.77c.7.48 1.22.94 1.37 1.7.15.74.43.94.78.74-.08.43-.52.48-.88.15.03.5-.17 1.1-.68 1.31-.04-.3.16-.53.1-.78-.02-.1-.03-.36.11-.47a.6.6 0 0 1-.75-.5c.32.16.73.18.88-.22s.1-1.08-.93-1.93zm.88-3.9c.22-.56.79-.5.98-.26.55-.32.63.4 1.1.26 0 .13-.16.25-.34.24.18.17-.07.42.32.57-.34.17-.8 0-.93-.47-.1.22-.5.22-.65.05.34-.1.31-.41.12-.54-.19-.12-.53-.07-.6.15zm-1.68 1.25c.15.5.47.96.82 1.28.4.37 1 .27 1.34-.07 0 .7-.71.75-1.12.53-.17-.1-.32-.05-.15.1.26.24.83.41 1.5.55 1.16.25.74 1.18.4 1.17.1 0 .18-.1.04-.23-1.01-.91-3.07-.55-3.03-2.58-.22.53-1.11.32-.7-.31.14.1.37.12.44-.05.05-.13.02-.35-.22-.55.04 0 .13 0 .12-.1 0 .06.06.15.19.12q.04.1.13.07s.04-.02.03-.07c0 .1.14.15.2.14z"/><path d="M24.62 6.86c.49.31 1.03.31 1.53-.27.16-.18.41-.34.59-.36s.16-.18.3-.21c-.09-.03-.12-.13-.25-.11.32-.11.22-.36.38-.48-.13.04-.32-.14-.5.1.04-.11-.02-.24-.06-.3.01.13-.25.16-.3.47-.03.18-.12.17-.14-.1-.01-.2-.1-.76-.22-1.04s-.15-.67.01-.73l-.1-.1c-.19-.13-.53-.08-.6.15-.21.56.4.89.35 1.5-.1-.46-.84-.57-.83-1.02-.24.1-.2.3-.11.46-.15-.23-.5.15-.79-.16-.03.41.34.57.64.59-.15.26.05.49.25.56 0-.46.96-.27.97.53 0 .68-.73.73-1.12.52zm1.34.66c1.17.24.75 1.17.41 1.16-.22 0-.42-.19-.44-.35-.25.14-.18.4.01.5-.52-.06-.74.29-.76.66.1-.17.4-.18.5-.15.1.04.39.06.5-.06-.1.08.06.26-.07.4.43-.02.62-.42.55-.6.57-.52.46-1.36-.7-1.57zm-.88 3.95c.07.04.06.14.01.2-.1.13.05.43-.26.48q-.15.02-.2-.15c-.08-.3.23-.31.26-.45.04-.14.12-.12.19-.08z"/><path d="M24.79 12c.1.06.19.13.14.46-.03.14-.03.47.09.48-.08.03-.24.07-.3-.02-.07.1-.2.07-.26-.07-.07.06-.17-.05-.17-.13-.06.04-.2-.03-.15-.23-.08.03-.18-.03-.22-.08.12-.02.42-.17.5-.3.07-.11.25-.17.37-.1z"/><path fill="none" d="M24.72 12.92c.04-.04.06-.24.04-.36m-.3.3a.6.6 0 0 0 .18-.3m-.34.16a1 1 0 0 0 .26-.36m-.42.14a1 1 0 0 0 .42-.32"/><path d="M23.38 5.87c-.02.85.34 1.28.83 1.56-.19-.1-.1-.48-.35-.6.06 0 .15.08.3.04-.08-.15-.2-.4-.46-.43.07 0 .22.02.32-.02-.14-.21-.52-.11-.64-.55zm-.09-.81q-.05-.02-.08-.08c-.13.03-.18-.06-.2-.11.01.1-.07.09-.1.1.23.19.26.41.2.54-.06.17-.29.16-.42.05-.02.35.44.47.6.03 0 .07.1.06.12.16.12-.19.03-.46-.12-.7z"/><path fill="#337321" d="M22.56 3.37a1 1 0 0 1-.3-.7c.01-.18.08-.38.35-.3-.08 0-.02.17-.11.19.07.03.16-.03.18-.07.01.06.12.04.13.1.04-.03 0-.19-.07-.22.05-.03.08-.16.05-.22q-.08.02-.11.15c.02-.07 0-.23-.12-.26-.03.05-.04.16 0 .22-.1-.02-.26.05-.3.14a1 1 0 0 1 .09-.37c.02-.03-.03-.09-.08 0-.08-.17-.3-.25-.39-.17s-.22-.04-.3.09c-.08.12-.35.14-.34.27.01.08 0 .2-.05.24-.1.11.05.19.07.29-.01-.32.5-.93 1-.7q-.09.14-.1.43c-.03.29.02.69.29.92z"/><path fill="#cf142b" d="M22.7 2.38c0-.07.13-.17.3-.17.22 0 .38.2.55.18.16-.02.08.07.05.1q-.06.03-.05.1.02.09-.07.04c-.15-.1-.3.03-.5-.04-.17-.06-.27-.1-.27-.21z"/><path fill="#96877d" d="M21.85 4.34c-.08-.26-.4-.55-.55-.61l-.01-.14c.08-.04.28-.2.37-.28.63.3 1.48-.13 1.87-.57l.15.1-.08.1-.08-.05c-.1.12-.45.45-.56.53a2 2 0 0 0 .4.05c.35-.25.62-.47.76-.49l.1.15-.1.07-.07-.04a4 4 0 0 0-.97 1.43c-.23-.05-1.06-.02-1.23-.25z"/><path fill="none" d="m22.96 3.42-.13-.05q-.12.1-.44.13"/><path fill="none" d="M21.88 4.25c-.05-.3.04-.65.2-.76.34.23.93.23 1.28-.02"/><path fill="none" d="M21.88 4.09c.27 0 .85.04.99.06s.38.08.34.15M22 4.05l.08-.08-.07-.08-.08.08z"/><path fill="#337321" d="M22.19 2.5c-.1-.14-.36-.18-.42 0q-.03.13-.12.2c-.07.04-.05.15-.02.2.06.12 0 .24.13.32 0-.1.14-.2.26-.22.13-.03.3-.14.33-.26s.07-.22-.16-.24z"/><path fill="#96877d" d="M21.59 3.7h.03v.22l.02.01.2-.11.02.03-.2.11v.02l.2.12-.02.02-.2-.1h-.02v.23h-.03v-.23h-.02l-.2.1-.02-.02.2-.12v-.02l-.2-.11.02-.03.2.11h.02v-.24z"/><path fill="#96877d" d="M21.88 4.25a.4.4 0 1 1 .03-.52l-.04.21a.27.27 0 1 0-.27.3q.2-.02.27-.2z"/><path fill="#337321" d="M21.44 4.63q-.06-.06-.07-.17.08 0 .14.05c0-.04-.02-.13 0-.17.04.02.13.07.17.13l-.01-.21c.05.02.13.1.15.16 0-.09.03-.22.06-.26q.07.05.13.12c0-.06.04-.14.09-.16q.08.07.1.24c.04 0 .1-.07.12-.1q.04.05.02.16.08-.07.12-.15c.03.02.1.08.1.15l-.01-.2q.1.05.12.15l.09-.19q.06.11.06.22.04-.1.09-.14c.03.05.02.15.02.2l.11-.1v.1c.04-.01.1-.13.12-.18.06.03.12.13.12.18a.4.4 0 0 0 .15-.14v.17l.06-.1c.02.05 0 .15-.01.2q.07-.05.12-.05c0 .07-.04.2-.09.28-.4-.1-1.23-.15-2.07-.2z"/><path stroke="none" d="M22.83 2.42c0-.03.07-.1.19-.1.15 0 .28.11.4.1s.06.04.03.05q-.04 0-.03.04t-.05.01c-.1-.03-.21.02-.35-.01q-.19-.03-.19-.09"/><path d="M21.57 4.88c-.13.15-.25.12-.28.02-.02-.1.07-.14.04-.22s.05-.12.1-.08c.03.03.17-.09.23.04q.1.18.07.26c-.04.05-.14.02-.16-.03zm.53-.23c-.02-.05.1-.16.18-.08.06.07.17-.09.22.03l.11.25c.03.07-.16.1-.21.04 0 .04-.17.07-.21-.04zm.87.07c-.03-.06.12-.14.2-.04.02-.04.17-.05.18.08q0 .19.02.25c0 .05-.1.1-.16-.03-.13.03-.18-.04-.2-.12z"/><path fill="#337321" d="M21.65 4.64c-.02-.05.1-.13.19-.07.08.07.2-.05.25.06.1.23.11.24.08.29s-.16.03-.2-.03c0 .04-.12.03-.18 0-.07-.04-.11-.18-.14-.25zm.87.01c-.03-.07.17-.13.26-.01.04-.04.13-.04.19.08q.08.18.02.22c-.03.02-.13.04-.16-.02-.05.03-.19 0-.22-.07zm.83.12c0-.06.1-.09.14 0s.17 0 .18.15c0 .03-.02.13-.06.18s-.23 0-.24-.1z"/><path fill="none" d="M21.57 4.88c-.05-.07-.11-.17-.19-.06m.59.07-.07-.14m.5.15-.1-.11m.06-.11c.07 0 .12.07.14.1q.04.07.11.1m.22.05-.06-.1m.01-.19.05.1m.37.24a.3.3 0 0 0-.12-.14m.12-.09c0 .12.16.13.17.22m.13-.2.02.11"/></g></svg>