<svg xmlns="http://www.w3.org/2000/svg" xmlns:xlink="http://www.w3.org/1999/xlink" viewBox="0 0 250 150"><clipPath id="d"><circle r="25"/></clipPath><path fill="#e8112d" d="M0 0h250v150H0z"/><g transform="translate(125 75)"><g id="c" transform="scale(.25)"><g id="b"><path id="a" fill="#ffef00" d="M-8.4 108C0 130-18 164 0 180c-6-24 14-50 8.4-72s-25.2-22-16.8 0"/><use xlink:href="#a" transform="rotate(90)"/><use xlink:href="#a" transform="rotate(180)"/><use xlink:href="#a" transform="rotate(270)"/></g><use xlink:href="#b" transform="rotate(18)"/><use xlink:href="#b" transform="rotate(36)"/><use xlink:href="#b" transform="rotate(54)"/><use xlink:href="#b" transform="rotate(72)"/></g><use xlink:href="#c" transform="rotate(9)"/><circle r="27" fill="#e8112d"/><circle cy="-1.5" r="22.5" fill="#ffef00"/><g id="e" fill="#e8112d" clip-path="url(#d)"><path d="M-23.06 18a37.76 37.76 0 1 1 75.52 0h.3a36.26 36.26 0 1 0-72.52 0z"/><path d="M-17.6 18A35.3 35.3 0 1 1 53 18h.42a33.92 33.92 0 1 0-67.84 0z"/><path d="M20.7-15.05a33.05 33.05 0 1 0 0 66.1l1.8-1.23a31.82 31.82 0 1 1 0-63.64z"/></g><use xlink:href="#e" transform="scale(-1 1)"/></g></svg>