<svg xmlns="http://www.w3.org/2000/svg" xmlns:xlink="http://www.w3.org/1999/xlink" viewBox="0 0 600 400"><clipPath id="a"><ellipse cx="300" cy="201" rx="85.85" ry="88.19"/></clipPath><path fill="#ce1126" d="M0 0h600v400H0z"/><path fill="#fff" d="M0 100h600v200H0z"/><g clip-path="url(#a)"><path fill="#ff9c10" d="m277.29 191.02-14.57-.42v-5.76zm-.06-1.68-14.51-7.38v-9.6s-1.7.23-1.46-1.69c.08-4 10.66 7.3 16.09 10.99zm-62.86 25.03 30.6.24v-18.97L210 193.97zm-1.46-26.17 32.55 3.12-.24-13.44-31.82-12.49zm6.56-26.88 25.02 12 3.57-3.68s-2.3-1.57-2.18-3.01c.04-1.46 2.31-1.68 2.35-3.26.05-1.46-2.57-1.64-2.6-3.1-.17-1.58 2.02-3.27 2.02-3.27l-22.6-19.45zm164.21 53.29h-32.3l-.25-18.48 35.46-2.65zm.79-26.7c-.4-3-.84-6-1.53-8.94a92 92 0 0 0-3.56-11.6c-.11-.27-.27-.53-.38-.8l-27.62 11.56.25 13.69zm-18.88-44.44-16.53 12.5c.03 1.2 1.22 2.12 1.55 3.26.76 1.6-.76 3.03-1.7 4.16-.76 1.05.88 1.58 1.43 2.2 1.2 1.23.15 3.16-1.12 3.88 1.53.92 2.31 2.64 2.65 4.34l24.75-12.87a85 85 0 0 0-11.03-17.47m-46.03 47.97 13.85-.6.24-5.52zm-.01-3-.06-6.24s13.12-11.7 15.91-13.87c0 2.4-1.52 4.27-1.52 4.27v9.12zm-85.01-52.57 14.72 16.14c.4-1.5 3.74-1.74 7.14-1.5s6.11-.22 6.11 2.18-1.72 2.06-1.72 3.74 2.58 1.54 2.58 3.7-1.87 1.72-1.88 3.4c0 1.37 1.96 1.45 1.96 1.45l13.78 13.2.06-14.1-28.42-44.05zm22.74-16.68c.22.64 19.25 38.9 19.25 38.9s.22-35.9 3.46-37.83l-5.4-9.83zm62.13-4.13-7.19 24.84q3.36.4 6.76.22c2.02.17.45 2.07.55 3.2l-.03 15.27 20.32-35.87c-4.67-2.44-9.63-4.25-14.62-5.9a67 67 0 0 0-5.79-1.76m25.28 10.38-25.12 38.63-.04 14.87q8.42-7.96 16.8-15.96c1.06-1.5-3.36-2.23-1.15-4.06 2-.63 2.34-3.86.23-4.48-1.74-2.55 1.57-3.9 3.65-3.62 2.9.13 5.9-.63 8.73.17 1.56 1.5 3-2.25 4.53-3.1q4.55-4.56 9.06-9.17a81 81 0 0 0-16.69-13.28"/><g fill="#083d9c" stroke="#083d9c" stroke-width="1.93"><path stroke-width="2.06" d="M279.88 275.41c-6.18.35-12.33 4.52-15.22 6.75a83 83 0 0 0 16.6 5.25c9.37 1.57 18.75 1.56 28.12 1.56q2.3-.28 4.53-.65l19.75-6.66s-9.5-6.27-17.03-6-12.61 7.64-18.69 7.1c-6.07-.55-8.5-7.35-17.25-7.35z"/><path d="m244.01 270.31 112.23.48s-9.72-10.32-21.13-10.56c-11.42-.24-8.26 4.8-17 5.52s-10.94-5.28-18.96-5.04c-8.01.24-12.63 5.04-18.7 5.28s-13.84-6-18.46-5.76-21.13 7.2-21.13 7.2zm-14.33-13.21 138.46.48c2.19-3.12-6.8-10.56-15.06-11.28-6.8.24-11.66 6.96-17.25 7.2s-11.9-6.96-18.22-6.72-12.87 6.72-19.19 6.72c-6.31 0-10.93-6.96-18.94-6.96s-11.66 7.68-17.74 7.2-11.41-7.68-17.24-7.68-15.55 8.64-17.5 8.16c-1.93-.48 2.44 3.6 2.68 2.88zm53.53-13.24 30.9-.02c.25-.24-6.91-10.55-15.44-9.82-9.5.24-15.96 9.84-15.46 9.84zm98.56-.74h-42.3s5.48-3.2 6.97-6.15c2.74 1.48 2 2.95 7.47 3.2 5.47.24 10.7-6.15 15.92-5.9 5.22.24 11.94 9.1 11.94 8.85zm-166.67 0h42.3s-5.48-3.2-6.97-6.15c-2.74 1.48-2 2.95-7.47 3.2-5.47.24-10.7-6.15-15.92-5.9-5.22.24-11.94 9.1-11.94 8.85zm3.16-13.14 30.12.24s-1.94-4.08-2.18-9.12c-7.78-2.64-14.1 5.76-19.68 6s-11.42-6-11.42-6zm160.81 0-30.12.24s1.94-4.08 2.18-9.12c7.78-2.64 14.1 5.76 19.68 6s11.42-6 11.42-6zm-88.18.24 15.3-.48s.25-4.56-7.77-4.56-7.29 5.28-7.53 5.04z"/></g><path fill="#ce1126" stroke="#630810" stroke-linejoin="round" stroke-width="1.93" d="m282.87 181 31.82 8.4v-44.9c-14.57.73-26.72-27.36-.97-29.28-25.26-3.6-28.18 2.88-31.1 9.84zm7.07 40.58c-6.92 11.33-25.42 7.97-29.75.06-1.3-.36-.53-48.8-.53-48.8s-2.07-.93-2.16-2.42c-.1-1.5 2.8-1.64 2.8-3.57 0-1.92-2.96-1.17-3.02-3.1.01-1.85 3.17-1.6 3.03-3.3-.17-1.94-3.54-1.65-3.68-3.43-.1-1.41 2.4-2.64 3.1-3.28-.44.02-2.33-.03-2.34-.03l-5.3.1c-3.77 0 .06.82 0 2.96-.03 1.4-1.9 2.34-2.07 3.56-.06 1.25 2.68 2.13 2.72 3.63.03 1.34-2.7 1.43-2.6 2.68.17 2.1 2.42 2.57 2.38 3.85-.03 1.27-3.02 1.76-3.03 2.78.1 1.97.44 49.8.44 49.8 4.75 24.37 32.22 30.57 40.01-1.5zm18.11 0c6.92 11.33 25.42 7.97 29.75.06 1.3-.36.53-48.8.53-48.8s2.07-.93 2.16-2.42c.1-1.5-2.63-1.64-2.63-3.57 0-1.92 2.8-1.17 2.85-3.1-.01-1.85-2.93-1.72-2.78-3.43.16-1.93 2.45-1.7 2.58-3.48.1-1.53-1.44-2.46-2.14-3.1.46.02 2.22-.03 2.23-.03l5.3.1c3.77 0-.06.82 0 2.96.03 1.4 1.9 2.34 2.07 3.56.06 1.25-2.68 2.13-2.72 3.63-.03 1.34 2.7 1.43 2.6 2.68-.17 2.1-2.42 2.57-2.38 3.85.03 1.27 3.02 1.76 3.03 2.78-.1 1.97-.44 49.8-.44 49.8-4.75 24.37-32.22 30.57-40.01-1.5z"/><g fill="#630810" stroke="#630810" stroke-linecap="round" stroke-width="2.79"><path d="M281.66 223.73c2.67-1.44 5.1-2.88 6.8-6.24l-10.44.24s-4.86 2.88-7.3 6zm33.76 0c-2.67-1.44-5.1-2.88-6.8-6.24l10.44.24s4.86 2.88 7.29 6zm-52.71-10.08 71.9.24"/><path id="b" d="m266.11 196.61 8.5 11.28m-8.5 0 9.23-11.04m-4.37-.97-.24 6.96"/><use xlink:href="#b" x="13.6"/><use xlink:href="#b" x="27.45"/><use xlink:href="#b" x="41.78"/><use xlink:href="#b" x="55.63"/></g></g></svg>