<svg xmlns="http://www.w3.org/2000/svg" xmlns:xlink="http://www.w3.org/1999/xlink" viewBox="0 0 450 300"><path d="M0 0h450v300H0z"/><path fill="#ce1126" d="M0 0h450v150H0z"/><g fill="#f9d616"><path d="M231.12 91.82a58.5 58.5 0 1 1-43.2 103.42l-8.56 10.44A72 72 0 1 0 232.53 78.4z"/><g id="b"><path id="a" d="M302.62 142.35a78 78 0 0 1 0 15.3l-14.92-1.47a63 63 0 0 0 0-12.35z"/><use xlink:href="#a" transform="rotate(22.5 225 150)"/><use xlink:href="#a" transform="rotate(45 225 150)"/></g><use xlink:href="#b" transform="rotate(-67.5 225 150)"/><use xlink:href="#b" transform="rotate(67.5 225 150)"/><path d="M199.32 114.66h51.36l-41.55 30.18L225 96l15.87 48.84zm88.56 101.65c3.84 3.72 9 7.38 12.75 10.7 3.75 3.33 6.62 6.1 8.95 9.88 3.4 5.54-.42 11.81-5.73 8.13-2.86-2-4.67-7.37-9.06-11.82-3.26-2.77-5.82-5.67-14-7.07-.4-.07-.51-.9-.2-1.26z"/><path fill="#000" d="m231.36 197.85 20.25 11.97 4.4 17.08 23.24-1.77 10.21-11.97-37.85-26.23z"/><path d="M279.66 223.69c-26.03-17.31-42.59-26.66-67.54-40.85-9.8-5.57-25.02-19.58-13.01-43.02.75 15.39 61.56 57.62 87.26 75.99z"/><path fill="none" stroke="#000" stroke-linecap="round" stroke-width="1.5" d="M216.09 167.52c20.04 18.89 45.29 34.3 67.8 51.33"/><circle id="c" cx="290.4" cy="222.3" r="1.01" fill="#000"/><use xlink:href="#c" x="7.42" y="6.47"/><use xlink:href="#c" x="13.94" y="13.09"/></g></svg>