<svg xmlns="http://www.w3.org/2000/svg" xmlns:xlink="http://www.w3.org/1999/xlink" viewBox="0 0 10080 5040"><defs><path id="a" d="m0-360 69.42 215.84 212.04-80.3L155.99-35.6 350.97 80.1 125.1 99.77l31.1 224.59L0 160l-156.2 164.35 31.1-224.6-225.87-19.64L-156-35.6l-125.47-188.86 212.04 80.3z"/><path id="b" d="M0-210 54.86-75.5l144.86 10.6L88.77 28.85l34.66 141.05L0 93.33l-123.43 76.56 34.66-141.05-110.95-93.73 144.86-10.62z"/></defs><path fill="green" d="M0 0h10080v5040H0z"/><circle cx="5040" cy="2520" r="1050" fill="#ffe000"/><circle cx="5367.4" cy="2520" r="864" fill="green"/><circle cx="1730" cy="1470" r="1100" fill="#ffe000"/><path fill="#802000" stroke="#7b3100" stroke-width="23.33" d="M1654.1 2299.4h274.67s12.4-25.18-2.77-37.77-74.22-15.36-58.27-59.89c32.81-91.55 37.39-63.32 57.99-280.77s30.52-558.49 30.52-558.49h-39.68s7.63 106.05-15.26 244.15-29.75 150.3-54.93 256.35-29 115.21-51.88 177.01-25.18 64.85-61.04 122.07-22.89 35.86-42.72 70.2c-9.92 17.16-22.13 12.58-28.8 25.08s-7.83 42.05-7.83 42.05z"/><path fill="green" d="M1863.7 668.6c2.28 42.66-2 99.14-19.69 145.1-17.93 51.22-37.42 102.27-36.46 155.31-28.5 9.7-57.87-61.68-85.3-19.69 20.62 58.02 68.23 103.95 100.85 156.22 5.5 16.2 52.44 58.52 25.28 68.36-68.54-23.46-85.16-110.31-127.68-163.05-49.38-88.76-141.44-151.49-244-155.82-38.52 1-163.78-9.55-131.19 56.42 48 32.63 107.14 53.9 154.53 90.54 35.31 3.3 99.31 62.24 95.58 84.52-62.1-25.16-91.17-55.3-158.08-81.76-90.66-35.02-216.06-13.96-266.25 76.02-9.36 23.43-23.17 91.73 6.26 98.24 34.38-53.69 83.57-113.7 156.45-97.6 57.24 4.47-63.88 106.64-17.55 86.08 14.68-6.51 48.59-28.77 72.1-31.1 23.52-2.32 36.66 15.29 54.5 17.73 35.69 4.87 45.52 19.83 42.2 28.53-3.9 10.27-15.23 1.5-51.51 13-18.14 5.76-27.62 21.7-48.78 29-21.15 7.3-65.17 7.81-81.62 1.34-57.54-25-151.89-20.65-169.83 51.47-.01 31.7-28.23-3.5-41.27 10.2-9.78 34.6-12.31 70.13-63.64 66.98-31.15 32.69-63.06 66.53-102.62 89.78 23.22 53.29 115.2-53.51 110.9-8.48-40.2 54.83 20.7 66.37 47.35 24.17 45.09-47.64 100.93-105.63 168.21-57.62 32.04 30.17 50.66-15.95 73.86-13.48 14.61 37.47 33 1.84 49.58-8.75 27.15-3.38 19.51 33.9 51.77 10.94 64.3-42.56 143.4-6.8 206.2-48.2 66.85-30.46 9.39 24.53-9.06 46.03-29.38 56.97-3.9 131.76-67.62 167.14-25.59 67.9 30.24 157.4-26.7 207.63-8.29 31.5 73.23 27.89 96.1 40.83 40.1 1.59-1.71-91.76 38.06-104.27 53.35 33.02 50.85-59.05 39.83-87.45 5.17-64.55 8.82-135.13 40.9-193.6 34.1-71.66 65.66 29.19 27.49 57.56-21.69 65.9-53.25 148.36-3.95 209.64 14.22 3.18 25.88 37.62 44.28 48.21s43.53-2.68 48.12-34.02c23.6-94.37 11.71-195.85 45.42-287.63 23.78-28.43 56.6-4.58 71.35 21.56 47.23 54.83 80.43 123.38 137.61 168.56 52.06 24.36 98.1 61.21 122.1 114.8-.32 41.36 117.45 47.7 82.26 1.74-33.77-44.75-11.49-89.5 22.71-119.26 18.32 4.51 12.9-28.3-1.45-15.32-23-5.42-24.47-47.5 7.5-27.5 53.83 17.38-4.2-38.96-23.66-40.7-45.52-28.2-97.82-60.67-120.2-109.71 59.25.6 120.77 32.56 181.32 12.74 48.54-24.94 97.77 2.08 114.72 44.86 37.52-5.99 21.52-43.61 0-56.14 27.44-11.33 46.42-34.81 13.14-55.52-17.57-22.93 23.57-62.05-27-60.42 1.66-38.63-13.55-73.97-55.66-87.32-42.17-35.72-165.95 52.62-162.36-27.89-12.47-43.82 50.28-5.85 67.82-27.7 18.11-46.2-86.34-41.7-51.87-77.5 22.5-14.5 128.15-35.32 45.3-50.83-41.35 11.37-76.83 2.95-109.37-17.51-29.66 49.6-114.34-26.94-99.25 61.25-11.59 33.23-87.28 119.57-107.76 53.42 17.42-51.84 107.1-68.8 79.3-138.7-4.28-43.63-40.46 7.6-57.5 4.34-8.63-27.16 26.1-59.18 50.31-65.63 48.04 36.95 49.5-46.61 95.18-39.81 33.36-7.41-10.77-21.72-20.07-28 9.14-24.41 60.34-36.9 10.13-58.1-44.3-32.86-77.14 32.73-113.68 36.23-35.07-39.6 31.84-58.63 50.31-79.48 1-15.55-39.01-4.7-26.97-18.23 10.45-18.7 81.3-20.08 48.12-48.13-49.96-17.15-114.44-12.87-162.38 9.35-30.2 9.78-39.09 78.07-65.12 75.24-12.24-30.4 3.98-90.38-37.92-99.17zm236.25 667.19c38.07-6.45.8 57.82-17.5 56.88 1.62-23.1-55.06-20.87-19.9-41 11.4-7.36 24.11-12.98 37.4-15.88"/><g fill="#ffe000"><use xlink:href="#a" x="7560" y="4200"/><use xlink:href="#a" x="6300" y="2205"/><use xlink:href="#a" x="7560" y="840"/><use xlink:href="#a" x="8680" y="1869"/><use xlink:href="#b" x="8064" y="2730"/></g></svg>