<svg xmlns="http://www.w3.org/2000/svg" xmlns:xlink="http://www.w3.org/1999/xlink" viewBox="0 0 1000 500"><path fill="#0021ad" d="M0 0h1000v500H0z"/><path fill="#1c8a42" d="M0 0h1000v500z"/><circle cx="500" cy="250" r="90.32" fill="#ffc639"/><path fill="#1c8a42" d="M444.84 209.43c6.18 8.48 15.54 22.69 23.07 18.98 5.88.02 8.91.43 9.7 4.34 13.87 2.36 37.16-3.48 51.66-22.36 0 0 1.22.16.8-7.02.07-3.12 4.27-2.5 4.37-1.48.58 1.55.48 2.71 1.27 2.75 1.78-.6 4.22-4.6 6.27-7.13.55-1.12.25-2.3.38-3.71 1.08-2.65 3.77-2.08 4.33-.69.52.9.53 1.58 1.03 2.48 2.73 1.83 7.66.12 8.04.12.49-2.23 1.92-2.01 1.92-2.01 1.82-.4 1.1-.25 2.3.38-1.05 12 2.37 12.54 2.08 18.7.12 6.87-2.07 8.83-2.07 11.45.7 3.2 10.83 3.31 7.26 6.02-3.13 1.68.01 4.81-4.7 6.03-13.73 6.97-16.36 12.94-16.36 12.94s-3.45 6.51-3.83 6.51c-2.3 4.35-5.21 1.98-6.84 4.1-.8 2.66-1.7 8.55-.1 11.62.81 4.21-.1 6.51-1.1 10.72-.91 8.8-4.4 10.12-4.8 13.2-1.62 3.3.34 18.78-1.2 18.78-10.21.2-18.04-1.95-22.09-2.76 3.94-16.98 2.41-31.9 2.41-33.43-1-12.15-18.19-9.2-20.82-10.8-2.18-.47-3.55-2.24-4.32-3-2.42-.27-3.33-.83-5.76-1.08-1.21.6-.48 1.23-3.19 2.07-6.85.83-9.87-5.98-9.87-5.98.33-2.29-15.41.47-23.97-1.52-3.51 1.96-5.04 7.74-7.91 8.43-.09 1.79-4.73-1.48-5.67-3.24-.2-5.13 4.48-7.4 4.48-7.4 3.7-2.6 5.9-3.03 7.69-4.84.9-4.46.44-7.77 2.34-11.12 1.62-2.56 4-1.36 5.6-2.51 1.74-1.15 2.48-8.67.88-10.73 0 0-6.94-6.26-7.32-6.64-2.26-6.47 2.64-10.64 4.04-10.17"/><path fill="#ffc639" d="M877.93 97.56c-4.1-16.2-40.72-51.08-68.25-73.27-6.57-4.48-10.85-1.81-10 4.57 3.43 5.72 6 12 9.43 17.72.96 3.8 2.76 6.48 3.72 10.29 0 0 .28 6.57.85 7.14 8.57 9.43 9.72 17.43 9.72 17.43 4.95 9.53 9.33 16.48 18 24.3 9.72 6.09 2.57 25.04 2.86 35.14 0 6.38-4.57 5.62-8.57 4.86-31.53-28.96-62.78-29.05-90.3-37.44-10.77-1.14-10.96 4-7.43 6.86 19.24 20.58 37.33 34.58 61.15 46.29l12 7.44 13.71 11.43c10.58 6.85 11.44 13.14 11.44 13.7.28 12.87-6.58 22.87-8.57 26.87-3.61 13.63-10.86 16-10.86 16-58.87 39.73-89.74 50-185.18 37.72-1.43-.76-10.57.77 0 4.58 24.3 8.09 83.96 21.07 141.69-6.26 13.86-9.72 23.13-6.53 33.17-12.35 16.5-10.17 40.04-22.83 44.32-24.25 12.86-6.87 48.87-14.58 57.16-21.44 9.52-.77 19.4-2.02 20.06-10.2 3.12-2.03 7.7-.54 11.1-7.22 7.54-1.3 6.27-4 6.27-4-1.9-5.34-8.96-7.54-14-11.44-7.43-2.48-12.57-3.24-18-.57l-5.15 2.28s-8-1.14-8-1.7c-17.78-.99-16.05-59.91-22.34-84.49z"/><path fill="#1c8a42" d="M919.63 194.01a4.4 2.75 15.95 0 1-8.4-2.64 4.4 2.75 15.95 0 1 8.4 2.64"/><g fill="#fff"><path id="a" d="M188.16 190.94 175.41 179l-12.9 11.77 1.38-17.4-17.25-2.75 14.47-9.78-8.6-15.2 16.67 5.22 6.51-16.2 6.31 16.29 16.74-5.01-8.8 15.09 14.35 9.96-17.29 2.53z"/><path d="m233.39 335.53-13.75-9.17-13.4 9.67 4.72-15.57-13.58-9.42 16.66-.44 5-15.5 5.59 15.3 16.66-.15-13.2 9.9z"/><use xlink:href="#a" x="2.52" y="269.06"/><use xlink:href="#a" x="-112.07" y="123.22"/><use xlink:href="#a" x="108.43" y="85.03"/></g></svg>