<svg xmlns="http://www.w3.org/2000/svg" xmlns:xlink="http://www.w3.org/1999/xlink" viewBox="0 0 700 500"><path fill="#e41e20" d="M0 0h700v500H0z"/><path id="a" fill="#000" d="M300.1 97.2c-4.87-.08-12.94 1.55-12.76 5.29-13.54-2.33-14.95 3.27-14.15 8.25 1.29-1.98 2.86-3.05 4.06-3.25 1.8-.3 3.7.28 5.63 1.46a23 23 0 0 1 5 4.29c-4.78 1.14-8.48.4-12.22-.25a17 17 0 0 1-5.97-2.44c-1.54-1.08-2.02-2.09-4.44-4.56-2.85-2.92-5.88-2.1-4.94 2.43 2.19 4.21 5.84 6.1 10.44 6.85 2.21.36 5.51 1.15 9.25 1.15s7.94-.54 10.22-.06c-1.37.86-2.93 2.35-6 2.94-3.13.6-7.88-1.86-10.78-2.53.37 2.44 3.44 4.71 9.5 5.9 9.95 2.17 18.22 3.82 23.69 6.78 5.46 2.97 8.9 6.69 11.37 9.6 4.9 5.8 5.16 10.24 5.47 11.22 1 9.25-2.22 14.46-8.22 16.06-3 .8-8.33-.7-10.28-3s-3.85-6.24-3.31-12.4c.52-2.43 3.3-8.74.93-10.04A285 285 0 0 0 269 125.2c-2.6-.98-4.76 2.56-5.6 3.94-16.2-1.97-30.82-12.94-37.4-24.62-4.48-7.96-11.87.01-10.62 7.53 2 8.39 8.39 14.45 16.06 18.75 7.87 4.33 17.7 8.6 27.65 8.37 5.36 1.02 5.31 7.95-1.12 9.25-12.58.08-22.62-.23-32.1-9.37-7.18-6.56-11.23 1.25-9.15 5.69 3.52 13.65 23 17.48 42.72 13.06 7.63-1.27 3.06 6.91.9 7-8.23 5.9-22.98 11.68-35.96-.06-5.95-4.55-9.96-.73-7.75 5.84 5.76 17.13 27.8 13.53 42.93 5.1 3.9-2.18 7.43 2.87 2.69 6.71-18.82 13.15-28.23 13.3-36.72 8.25-10.63-4.19-11.56 7.6-5.25 11.47 7.02 4.3 24.87 1.08 37.97-7.16 5.62-4.17 5.87 2.36 2.31 4.94-15.54 13.44-21.67 16.97-37.87 14.78-8.04-.62-7.92 9.28-1.6 13.16 8.63 5.3 25.49-3.5 38.57-14.34 5.5-2.95 6.4 1.88 3.68 7.59-7.99 10.08-15.49 16.03-22.71 18.78s-14.18 2.31-19.1.62c-6-2.06-6.75 4.18-3.44 9.85 2 3.42 10.28 4.51 19.22 1.34s18.54-10.6 25.13-19.31c5.73-5.02 5.02 1.72 2.4 6.47-13.19 20.86-25.26 28.6-41.15 27.28-7.05-1.2-8.65 4.28-4.16 9.34 7.89 6.54 17.75 6.34 26.38-.12 7.66-7.4 22.33-23.31 30.03-31.85 5.42-4.32 7.15-.06 5.56 8.72-1.45 5.03-5.07 10.33-14.94 14.2-6.74 3.84-1.68 9.14 3.38 9.24 2.78.06 8.43-3.2 12.75-8.06 5.68-6.4 6.02-10.7 9.15-20.66 2.97-4.85 8.25-2.59 8.25 2.5-2.53 9.98-4.71 11.77-9.84 15.85-4.9 4.6 3.42 6.14 6.22 4.25 8.11-5.47 11.07-12.54 13.78-18.97 1.96-4.64 7.63-2.4 5 5.18-6.29 18.12-16.61 25.25-34.69 28.91-1.83.33-2.95 1.4-2.31 3.53 2.43 2.52 4.86 4.8 7.28 7.31-11.17 3.26-20.25 5.09-31.44 8.35-5.48-3.6-9.92-6.65-15.4-10.25-1.45-3.38-2.12-8.55-10.22-4.9-5.49-2.54-8.02-1.61-11.06.93 4.4.16 6.3 1.34 8.03 3.34 2.25 5.93 7.44 6.5 12.75 4.82 3.45 2.9 5.3 5.14 8.75 8.06-6.45-.22-10.94-.34-17.38-.53-6.14-6.6-11.04-6.23-15.43-1.06-3.35.51-4.77.58-7.07 4.65 3.6-1.48 5.88-1.92 7.44-.31 6.53 3.78 10.8 2.94 14.03 0 6.3.38 11.98.71 18.28 1.12-2.31 1.97-5.5 3.02-7.81 5-9.46-2.7-14.4.94-16.06 8.66-1.27 3.12-1.86 6.32-1.31 9.66.91-3.05 2.38-5.67 5.09-7.32 8.43 2.15 11.6-1.3 12.06-6.34 4.07-3.32 10.2-4.05 14.25-7.4 4.74 1.51 7.04 2.45 11.81 3.96 1.7 5.16 5.55 7.2 11.79 5.88 7.42.23 6.11 3.28 6.71 5.72 1.98-3.5 1.92-6.9-2.65-10-1.67-4.53-5.36-6.58-10.19-3.97-4.55-1.3-5.75-3.15-10.28-4.44 11.47-3.65 19.6-4.48 31.06-8.12 2.87 2.7 5.14 4.64 8.03 7.06 1.53.9 2.98 1.14 3.88 0 7.18-10.4 10.39-19.55 17.06-26.4 2.55-2.84 5.77-6.67 9.34-7.6 1.79-.47 3.98-.18 5.38 1.34 1.4 1.53 2.5 4.34 2.03 8.53-.67 6.02-2.12 7.93-3.81 11.53-1.7 3.61-3.76 5.83-5.88 8.6-4.24 5.53-9.84 8.74-13.15 10.9-6.63 4.33-9.43 2.43-14.57 2.16-6.63.75-8.4 3.98-2.96 8.44 5.07 2.64 9.63 2.96 13.34 2.28 3.18-.59 6.9-4.7 9.56-6.9 2.99-3.46 7.94.64 4.56 4.65-6.14 7.3-12.27 12.1-19.84 12-7.95 1.07-6.47 5.54-1.19 7.72 9.5 3.92 18.08-3.43 22.44-8.25 3.36-3.68 5.75-3.82 5.16 1.87-3.34 10.32-7.9 14.3-15.35 14.82-6.04-.56-6.1 4.1-1.68 7.25 10.06 6.96 17.34-4.9 20.75-12.07 2.42-6.46 6.14-3.39 6.53 1.94.05 7.12-3.17 12.93-11.78 20.22 6.59 10.5 14.27 21.18 20.87 31.72L370 180l-20-35.21c-2.08-1.92-9.12-10.22-10.96-11.37-.67-.72-1.08-1.23-.1-1.6.96-.36 3.19-.76 4.7-1.03-4.25-4.25-7.89-5.61-15.92-7.94 1.96-.83 3.86-.35 9.63-.62a31.5 31.5 0 0 0-14-10.63c4.36-3.1 5.2-3.3 9.53-6.93a90 90 0 0 1-20.31-3.91c-4.07-1.9-9.72-3.52-12.47-3.56m.71 8.72c3.96 0 6.4 1.36 6.4 3 0 1.68-2.44 3.03-6.4 3.03-3.94 0-6.43-1.48-6.43-3.15 0-1.65 2.5-2.88 6.43-2.88"/><use xlink:href="#a" transform="matrix(-1 0 0 1 700 0)"/></svg>