<svg xmlns="http://www.w3.org/2000/svg" xmlns:xlink="http://www.w3.org/1999/xlink" viewBox="0 0 1200 600"><defs><linearGradient id="a" gradientUnits="userSpaceOnUse"><stop offset="0" stop-color="#a43907"/><stop offset="1" stop-color="#fff"/></linearGradient><linearGradient xlink:href="#a" id="d" x1="826.45" x2="786.12" y1="419.93" y2="396.11"/><linearGradient xlink:href="#a" id="f" x1="851.57" x2="763.03" y1="436.07" y2="419.67"/><linearGradient xlink:href="#a" id="g" x1="1016.15" x2="974.92" y1="398.54" y2="400.94"/><linearGradient xlink:href="#a" id="h" x1="1033.34" x2="945.9" y1="421.22" y2="428.64"/><linearGradient xlink:href="#a" id="i" x1="1023.36" x2="776.65" y1="445.13" y2="445.13"/><linearGradient xlink:href="#a" id="j" x1="783.43" x2="1144.09" y1="462.5" y2="465.42"/><linearGradient xlink:href="#a" id="k" x1="1032.13" x2="1002.94" y1="442.29" y2="444.03"/><linearGradient xlink:href="#a" id="l" x1="775.75" x2="803.91" y1="471.72" y2="476.18"/><linearGradient xlink:href="#a" id="m" x1="803.18" x2="755.31" y1="466.89" y2="440.32"/><clipPath id="b"><path d="M0 0v150h700v150H600zm600 0H300v350H0v-50z"/></clipPath></defs><path fill="#00247d" d="M0 0h1200v600H0z"/><path stroke="#fff" stroke-width="60" d="m0 0 600 300m0-300L0 300"/><path stroke="#cf142b" stroke-width="40" d="m0 0 600 300m0-300L0 300" clip-path="url(#b)"/><path stroke="#fff" stroke-width="100" d="M300 0v350M0 150h700"/><path stroke="#cf142b" stroke-width="60" d="M300 0v350M0 150h700"/><path fill="#00247d" d="M0 300h600V0h600v600H0z"/><g stroke="#000" stroke-width="1.8"><use xlink:href="#c" stroke="#fff" stroke-width="12"/><g id="c" stroke-linejoin="bevel"><path fill="url(#d)" d="M826.45 427.74s-8.54-13.89-15.65-12.9-13.75 9.92-14.23 10.41c-.47.5-10.9-11.4-10.43-11.9s10.9-26.28 16.6-27.27c5.69-.99 17.98 1.9 17.98 2.9 0 .98 5.73 38.75 5.73 38.75z"/><path fill="url(#f)" d="M845.42 412.86c0 1-2.85 37.68-15.18 50.58s-32.24 20.82-39.36 18.84-23.23-39.17-23.23-39.17 17.07 17.85 29.87 14.87c12.8-2.97 20.4-25.29 22.76-36.2 2.38-10.9.48-32.23.48-32.23z"/><path fill="url(#g)" d="M973.58 427.74s8.53-13.89 15.65-12.9c7.1 1 13.75 9.92 14.22 10.41s10.9-11.4 10.44-11.9c-.48-.5-10.91-26.28-16.6-27.27s-17.98 1.9-17.98 2.9c0 .98-5.73 38.75-5.73 38.75z"/><path fill="url(#h)" d="M954.6 412.86c0 1 2.85 37.68 15.18 50.58s32.25 20.82 39.36 18.84c7.12-1.98 23.24-39.17 23.24-39.17s-17.07 17.85-29.88 14.87c-12.8-2.97-20.39-25.29-22.76-36.2-2.37-10.9-.47-32.23-.47-32.23z"/><path fill="url(#i)" d="M788.95 407.48c-5.7 6.94-8.73 12.31-11.1 16.28-2.38 3.96-.98 9.48 4.5 17.36 5.9 8.49 54.44 41.66 117.67 41.66s111.77-33.17 117.68-41.66c5.47-7.88 6.83-13.4 4.46-17.36-2.37-3.97-5.37-9.34-11.07-16.28 0 10.41-40.2 48.04-111.07 48.04s-111.08-37.63-111.08-48.04z"/><path fill="url(#j)" d="M1008.25 476.74c.95-1.49 10.9-18.84 10.9-18.84l-5.45-4.03c-1.68 4.91-7.82 6.5-8.77 12.46s4.27 11.9 3.32 10.41z"/><path fill="url(#k)" d="M1018.15 471.37s1.9-8.43-4.27-9.42-9.43 4.72-8.53 2.48c.99-2.49 4.74-4.96 5.21-13.39.48-8.43-.47-12.9-.47-12.9s2.37-10.9 12.33-9.41c9.96 1.48 10.43 9.42 10.43 12.4 0 2.97-.95 4.46-.95 4.46z"/><path fill="url(#l)" d="M791.77 476.74c-.95-1.49-10.9-18.84-10.9-18.84l5.46-4.03c1.67 4.91 7.81 6.5 8.76 12.46s-4.27 11.9-3.32 10.41z"/><path fill="url(#m)" d="M781.87 471.37s-1.9-8.43 4.27-9.42 9.43 4.72 8.54 2.48c-1-2.49-4.75-4.96-5.22-13.39s.47-12.9.47-12.9-2.37-10.9-12.33-9.41c-9.95 1.48-10.43 9.42-10.43 12.4 0 2.97.95 4.46.95 4.46z"/></g><path stroke="none" d="m813.43 438.57-5.17-3.56-.6.95 1.02.84.09.5-6.5 10.35-.49.11-1.14-.65-.6.96 5.17 3.56c1.77 1.22 3.28 1.84 4.97 1.66q3.32-.34 5.5-3.8c2.58-4.08 1.86-8.1-2.25-10.92m-2.16.07 1.03.71c2.82 1.94 3.06 4.65.76 8.31s-4.8 4.51-7.6 2.57l-1.03-.7zm3.9 18.63 10.27 5.14 1.72-3.77-1.3-.65-1.34 2.07-.4.21-4.44-2.22 2.5-5.47 2.48 1.25.13.42-.5 1.61 1.13.57 2.23-4.88-1.13-.57-.88 1.42-.4.16-2.49-1.24 2.28-5 3.8 1.9.13.4-.55 1.99 1.33.67 1.51-3.3-9.64-4.82-.47 1.03 1.12.69.17.44-5.11 11.22-.46.18-1.22-.48zm13.62 5.73a12 12 0 0 0 3.66 2.04c3.31 1.12 5.94-.1 6.75-2.74.4-1.31.12-2.73-.8-3.95-.93-1.24-1.9-1.93-2.39-2.57-.85-1.07-1.21-1.92-.9-2.94.38-1.22 1.56-1.8 3.03-1.3.64.2 1.07.48 1.38.8l.18.4-.36 2.43 1.45.49 1.1-3.6a11 11 0 0 0-3.56-2.03c-2.88-.97-5.34.3-6.1 2.77a4.5 4.5 0 0 0 .48 3.51c.63 1.12 1.47 1.82 2.14 2.54 1.18 1.28 1.67 2.32 1.3 3.52-.38 1.22-1.62 1.78-3.25 1.23a6 6 0 0 1-1.68-.9l-.16-.43.5-2.77-1.54-.52zm10.71 4.15 6.04 2.04.33-1.1-1.31-.56-.22-.46 3.63-11.83.42-.2 1.39.34.33-1.09-6.03-2.03-.33 1.09 1.3.56.22.42-3.63 11.83-.43.24-1.37-.33zm12.96-12.33-.23 1.12 1.2.38.27.4-2.5 12.16-.41.29-1.25-.16-.23 1.12 5.84 1.3.23-1.13-1.24-.39-.26-.44 1.06-5.13.35.08c2.1.46 2.43 1.56 2.63 3.87.1 1.17.08 2.23.97 3.39.4.54 1.11.98 2 1.18q.98.21 2.11.27l.23-1.1-.27-.05c-1.39-.3-1.94-.79-2.12-2.14-.16-1.23-.07-2.5-.5-3.64a3.6 3.6 0 0 0-1.89-1.9c2.44.04 3.94-1.01 4.37-3.11.52-2.53-.85-4.27-4.06-4.98zm3.98 2.24.95.21c2.01.44 2.85 1.73 2.47 3.6-.44 2.1-1.7 2.82-3.9 2.33q-.35-.07-.75-.19zm9.15 16.83 11.36.56.18-4.17-1.44-.07-.47 2.45-.29.36-4.9-.24.26-6.06 2.75.14.28.34.14 1.69 1.25.06.23-5.4-1.24-.07-.29 1.67-.3.3-2.76-.13.24-5.54 4.21.2.27.32.22 2.07 1.48.07.16-3.66-10.66-.52-.05 1.14 1.29.18.32.34-.54 12.42-.36.36-1.3.05zm19.97-13.19-.04 4.13 1.5.02.37-2.5.35-.3 2.61.04-.12 12.69-.37.36-1.42.1v1.15l6.5.07v-1.14l-1.4-.13-.38-.38.12-12.69 2.61.04.33.3.34 2.5 1.5.02.04-4.13zm13.21.45.02 1.14 1.26.1.35.36.22 12.39-.34.38-1.26.13.02 1.15 6.15-.11-.02-1.14-1.3-.1-.36-.36-.1-5.88 6.27-.11.1 5.88-.31.37-1.3.14.02 1.15 6.13-.11-.02-1.14-1.27-.1-.35-.36-.22-12.39.34-.38 1.26-.14-.02-1.14-6.13.1.02 1.15 1.3.1.34.36.09 5.11-6.28.11-.09-5.1.34-.39 1.3-.14-.01-1.14zm17.3 15.26 11.63-1.06-.36-4.16-1.47.14-.16 2.5-.25.39-5.02.46-.51-6.04 2.8-.26.34.3.36 1.65 1.28-.12-.46-5.39-1.28.12-.07 1.7-.28.35-2.81.25-.47-5.53 4.3-.39.31.28.5 2.01 1.51-.14-.3-3.64-10.92 1 .1 1.13h1.33l.38.3 1.05 12.38-.31.4-1.31.23zm16.49-18.06.17 1.13 1.37-.11.41.26 1.94 12.26-.3.43-1.34.35.18 1.13 6.44-1.1-.18-1.13-1.41.12-.42-.3-.82-5.18.39-.07c2.3-.4 3.05.5 4.1 2.56.54 1.04.91 2.05 2.24 2.76.62.35 1.5.48 2.5.31q1.06-.19 2.24-.57l-.17-1.1-.3.04c-1.53.26-2.27.04-2.95-1.15-.61-1.07-.99-2.29-1.85-3.18a4 4 0 0 0-2.63-1.02c2.5-.92 3.64-2.48 3.3-4.6-.4-2.56-2.44-3.63-5.98-3.02zm4.88.52 1.05-.18c2.21-.38 3.54.48 3.84 2.37.34 2.11-.67 3.28-3.12 3.7q-.37.07-.82.11zm14.37 11.73 6.6-2.07-.33-1.1-1.5.36-.47-.25-3.58-11.89.26-.42 1.45-.58-.33-1.1-6.6 2.08.32 1.1 1.5-.35.44.2 3.58 11.9-.25.46-1.42.57zm13.73-12.86.31 1.1 1.68-.4.44.2 1.3 4.55q-.84.34-1.19.45c-3.41 1.07-6.17-.63-7.32-4.65-1.13-3.91.25-6.87 3.55-7.9q.95-.3 1.94-.22l.45.3 1.1 2.23 1.61-.5-1.09-3.8q-2.68.04-4.88.72c-4.92 1.54-7.2 5.6-5.9 10.17 1.34 4.65 5.41 6.89 10.06 5.43a16 16 0 0 0 4.7-2.46l-1.5-5.21.27-.42 1.25-.52-.31-1.1zm3.42-9.35.5 1.02 1.24-.53.5.16 5.34 11.06-.17.5-1.14.74.5 1.02 5.83-3.08-.5-1.02-1.28.55-.5-.16-2.53-5.25 5.96-3.15 2.54 5.25-.15.5-1.18.75.49 1.02 5.82-3.07-.5-1.02-1.24.53-.5-.16-5.34-11.06.17-.5 1.14-.74-.5-1.02-5.81 3.07.5 1.02 1.28-.55.47.17 2.2 4.56-5.96 3.15-2.2-4.56.17-.5 1.19-.77-.5-1.02zm14.62-8.45 2.03 3.54 1.37-.85-.9-2.34.16-.46 2.38-1.49 6.23 10.9-.15.53-1.23.9.56.99 5.93-3.7-.56-.99-1.35.7-.52-.1-6.23-10.9 2.38-1.49.45.08 1.56 1.93 1.37-.86-2.03-3.54z"/></g><path fill="#0072c4" stroke="#fff" stroke-width="6" d="M900.01 448.34s-114.46-33.73-113.8-162.07l.88-169.65h225.84l.88 168.67c.67 128.35-113.8 163.05-113.8 163.05z"/><g fill="#bcbcbc"><path d="M802.8 155.04c.2 0 1.58-1.32 2.85-2.48 1.77-.89 3.41-2.14 5.22-2.97 1.34-.78 4-1.38 5.21-1.99 1.6-.83 2.9-1.8 4.27-3.47.17-2.22.48-3.81.48-6.44 1.88-.91 3.56-1.8 5.21-2.48 2.38-.67 2.89-1.62 5.22-1.99 1.5-.52 3.98-.5 6.16-.5 2.36 0 3.85 1.68 5.97 2.08a17 17 0 0 1 5.7 3.47c1.12 1.43 1.83 2.6 3.76 3.68 1.53.78 2.96 1.97 4.74 2.48 1.96 1.13 3.7 1.79 5.22 3.47 1.39.99 1.97 2.46 3.32 3.47a37 37 0 0 0 4.74 3.47c2.03 1.36 4.05 2.4 7.34 2.1 1.74-.1 3.61-.3 5.69.08 2.32 0 4.58-.04 6.64.5 2.42 0 4.37.33 6.64.5 2.12.4 4.28.5 6.63.5 2.06.53 4.32.49 6.64.49h13.28a33 33 0 0 1 6.64.5c2.4 0 4.45-.23 6.64-.5 2.58 0 4.54-.47 7.11-.5h8.07c2.07.57 4.71.96 6.16 1.99 1.9.54 2.84 1.44 4.74 1.98 1.46.74 3.66 1.93 4.75 3.47a26 26 0 0 1 3.79 5.45c1.32 1.9 1.82 4.09 2.84 6.45.55 2.27.92 4.42.95 6.94.52 2.15.48 4.52.48 6.94-.54 2.27-.66 4.78-1.43 6.95-.08 2.42-.56 4.6-.94 6.44-.43 2.03-.92 3.34-.95 5.95v6.95c-.17 2.27-.67 3.95-.95 6.44a73 73 0 0 0-3.32 7.44 15 15 0 0 0-3.8 3.97c-1 .62-1.6 1.57-1.42 1.98 1.9.66 1.43 1.98 1.43 4.46.24 1.91.43 4.29.94 6.45.18 2.37.68 3.81 1.43 5.45.74.98.9.5-.95.5-1.37 1.07-2.76.51-3.32-1.49-1.1-1.33-1.47-2.95-1.9-5.45-.26-2.3-.63-4.54-1.42-5.95-.24-2.8-.99-2.77-3.8-2.98-1.33-1.18-3.1-1.49-5.69-1.49-2.58 0-2.8-.26-2.84 2.48v6.95c-.45 2-1.43 3.64-1.9 5.45-1.41 1.04-2.15 2.78-3.8 3.97-.77 2.25-1.91 2.64-4.26 2.97-.82-1.02-2.16-2.36-2.85-3.47 1.33-2.23 2.5-2.56 3.33-4.96 1-1.97 1.6-3.25 2.37-4.96-1.02-1.55-1.93-2.26-2.85-4.46a27 27 0 0 1-2.37-5.45c-1.56-.55-4-.63-5.22-1.5-2.3-.53-2.94 2-5.69 2h-6.64c-2.93 0-3.66 1.63-6.16 1.48-.73.24-2.51-.1-5.22 0-1.98.7-4.37.5-6.64.5-2.4-.03-4.37-.59-6.16-1-2.18-.6-4.35-1.2-6.64-1.48-2.79 0-3.82.22-5.7 1.48-1.47.88-3.62 2.89-5.2 3.97-.68 1.65-1.03 4.43-1.9 6.45-.5 1.93-1.33 3.16-1.9 4.96a19 19 0 0 0-1.42 5.95c-.17 3.34-.9 2.93-2.85 1.98-.81-1.38-2.11-2.9-2.84-4.46.43-2.53.91-3.78.94-6.45-.46-1.92-1.54-1.86-2.84-.5 0 2.6.12 4.6-.95 5.96a6.2 6.2 0 0 1-2.85 3.96c-.7 1.84-2.28 2.69-3.79 3.47-.24-.08 0-.66 0-1.98-1.14-2.27-.08-4.15-.08-6.94.03-2.5-.12-4.17.61-6.45 0-2.4-1.11-4.69-1.48-6.44-.88-1.85-1.39-2.76-3.8-3.48-1.68-.67-4.11-1.57-5.2-2.97a10 10 0 0 0-4.28-3.47c-2.18-.8-3.24-1.52-4.74-2.48-1.46-1.62-2.66-2.32-3.32-4.46-.99-1.53-1.16-4.36-1.9-6.45-.16-2.18-.78-4.2-1.42-5.95a25 25 0 0 0-1.42-5.95c-.26-2.04-.85-4.17-1.42-6.45 0-2.42.04-4.8-.48-6.94v-6.94c-.34-2-.46-4.94-.95-6.45a15 15 0 0 0-.94-5.95c-1.09-1.75-1.18-2.54-2.85-2.97-1.2 1.54-3.2 2.17-5.69 2.48-1.74-.4-4.2-.66-6.17-1.5-1.9-.46-3.2-1.21-4.74-1.98a44 44 0 0 0-2.84-3.96c-.3-2.6-.86-3.93-.95-6.45 0-1.9.04-.89 1.9-3.47"/><path fill="#fefefe" d="M830.89 172.9c3.01-1 9.58-5.87 13.36-9 4.3-2.73 13.12.1 13.47-7.29-.54 2.23-5.63 7.75-8.12 11.1-5.49 3.48 2.69 7.04 4 2.05 2.85-5.1 6.47-10.28 12.16-12.28-1.03 3.67-1.8 7.25.67 10.52.9-1.61 1.12-8.22 1.02-2.78-1.8 3.1 2.66 12.1 2.77 5.1.71-4.44.44 4.79 1.8 6.18 2.83 5.47 2.58-5.03 3.21-7.11.48-3.94.68-2.9.1-.06-.57 3.56.61-7.43.83-1.37.39 3.17-.04 11.78 3.02 4.94 2.45-4.06 3.03-4.12.36-.51-.87 1.36 4.02-7.4 2.08-1.3-.13 4.4.04 10.93 2.42 13.8 1.83-2.26.76-14 2.6-5.93.7 2.27.03 8.6 3 3.74 3.2-3.78 4.98-7.06 4.63-12.25.4-2.65 2.01-6.9 3.43-2.22-.97 6.12 5.4 10.01 4.61 15.9 2.86-4.5 1.58-11.2-.33-15.5-.4-5.09 7.75-2.05 5.72 2.44-.23 3.23 4.4 11.53 4.77 3.85.62-3.65 2.63-3.97 2.19.1.84 2.64 4.42 10.4 4.03 3.64.32-3.67-.6-7.55 1.06-11.01 1.17 2.21 1.3 5.61 2.68 1.4 2.83-.09 1.12 7.78 4.7 9.47 1.44 2.82 5.01 7.43 4.01 1.36.56-3.3-2.4-10.1-1.11-10.98 3.74 4.76 5.13 11.04 10.18 14.87 4.8 2.44.6-6.74.33-9.11-2.87-1.58-5.2-7.7-1.15-2.92 2.34 4.25 9.46 7.97 11.69 8.9-2.12-1.57-4.06-2.16-.46.02 2.67 1.09-1.58-6.65-3.13-7.96-1.37-2.47-8.07-6.07-6.17-7.78 5.24 1.13 6.77 6.86 9.95 10.44 1.98 1.66 6.76 5.19 4.1-.08 1.49-.62 8.86 7.56 7.1 1-1.21-2.82-7.67-7.91-6.96-8.22 2.2 3.19.87.9-.88-.76 6.38.7 10.14 7.08 14.15 11.14.5 1.93 1.96 11.33 0 5.16-4.16-1.77 1.6 8.43-2.94 7.1-.2-2.25-4.21-7-2.27-2.3 3.33 6.84.82 14.35 1.12 21.57.08 3.55-.09 7.08-.34 10.62.24-2.6.44-6.95.02-1.25-.15 3.96-1.61-5.72-3.59-6.21-.41-1.8-1.97-10.9-3.28-5.47.01 5.32 5.14 10.9 1.04 15.59-1.38 1.29-2.1 5-2.85 1.11-2.01-4.6-3.3-9.46-6.84-13.22-1.5-2.92-6.62-10.01-5.2-2.57.88 3.37 1.48 6.78 1.25 10.27-1.99-5.16-4.7-9.96-7.38-14.73.39 2.23 3.1 11.79.74 5.6-1.62-5.09-4.25-10.16-9.3-12.41-1.4-.18 3.4 8.93 1.54 9-.44-2.94-3.1-9.48-5.75-8.28.12 5.24 2.26 10.13 1.04 15.48.26 5.22-3.22-5.19-4.36-6.58-5.13-3.14.37 8.84-3.69 4.2-3.27-2.3-5.01-4.83-4.7-9.11-6.08-1.04-3.73 5.4-4.02 9.05-.51 2.77-2 8.04-3.7 8.85-.7-4.01-.14-8.2-.32-12.3.97-2.34-.1-8.37-2.95-5.5-.48 5.3 2.97 12.01-.96 16.34-2.08 2.37-5.93-3.72-9.57-2.09-4.62-2.37-2.73-9.77-5.87-13.66-3.11-3.26-1.65 13.08-3.7 5.33 1.47-4.93-7.52-6.85-5.76-1.6 2.2 2.24 2.6 5.05 2.32 8.02.62 3.5-1.98 4.54-2.58.61-.25-4.33-7.66-6.12-6.14-.43-3.88-2.5-.24 9.85-5 6.06-5.36-3.75-8.8 3.3-14.67 1.92-3.34.56-11.33 1.43-6.49-3.42 4.53-2.73 6.45-10.99 12.76-6.77 4.82-.28 9.95-3.68 13.89-6.84 3.22-2.17 1.78-7.7-2.17-4.27-3.28 4.92-12.7 4.92-15.52 4.53 2.8-2.65 11.36-3.04 9.23-7.68-3.14.25-8.66 4.96-10.43 2.22 1.1-1.2 4.71-4.56.55-3.1-5.27 1.72-10.92 1.3-16.35.87-5.44-5.32 7.92-3.86 7.73-7.36-1.32-.11-6.52.6-4.25-1.32 4.4.09 8.84.42 12-3.75 1.9-1.99 8.54-6.54 6.92-8.14-4.9 2.82-10.04 7.61-16.18 4.82 5.27-3.93-2.04-4.27-5.38-3.88-2.42.74-9.16-2.01-3.4-1.84 3.93.84 7.84-4.6 1.79-3.56-1.27-.4-2.63-.15-3.93-.22m-29.03-7.94c-.23-2.56-1.27-5.11-.84-7.7 1.26-1.84 3-3.19 4.63-4.7 2.9-1.62 5.67-3.59 8.95-4.39a12 12 0 0 0 5.75-4.04c.74-2.21-.56-5.76 1.52-6.95 2.55-1.4 5.32-2.3 7.93-3.59a21 21 0 0 1 8.87-.7c2.36 1 4.76 1.93 7.1 2.99 2.12 1.03 3.68 2.78 5.11 4.59 1.68 1.52 3.77 2.52 5.74 3.6 1.64.12 1.1 2.24.06 2.16-.67 3.14-4.59.47-5.34-1.38.66-1.21.4 2.79-.86 2.84-2.21.98-2.14-2.78-2.47-4.22.28-1.21-.68-2.66-1.18-.75-1.48 1.64 1.6 5.14-1.62 4.18-2.4-.32-5.08-.81-7.16.78-1.75 1.81 1.88 2.56 3.02 3.44 1.52 1.44 3.56.02 5.34-.16 2.43-.84 5.16-.4 7.41.72 1.05 2.25-1.04 4.49-3.03 5.4-1.86 1-3.94 1.44-6.01 1.7-3.04.13-2.45 3.9-5.41 4.2-1.9.8-4.02.98-6.04.72-.4-1.09 2-2.81 2.26-4.47 2.17-2.59-3.12-2.11-2.35.35.36 1.67-3.3 4.14-2.06 1.3.06-1.53 1.64-3.9-1.02-2.8-1.46-.01-4.45-.06-3.63 2.2-1.8.39-4.13.43-5.68-.47-.92-2.47-3.8-3.56-5.62-1.31-1.8 2.38-4.3-.75-6.1.49-.02 2.24 2.29 3.4 4.33 3.39 2.06-.19 4.18-.57 6.27-.23 1.91 2.29-1.83 3-3.61 2.7-2.4-.1-4.54-1.46-6.98-1.28-1.17-.16-3.82 1.29-1.32 1.48 1.86.38 5.67.25 4.82 3.17-1.46.68-3.26-.06-4.91.64-.97-.25-3.88.53-2.26-.3-.85-1.48-2.51-2.32-3.61-3.6"/><path d="M812.45 153.27c-.11 0-1.12.7-2.02 1.4-1.47.79-3.04 2.13-4.02 2.8-.77.62-.76.9-1.67 1.06 1.6-.23 2.3-.63 3.68-1.4 1.74-.21 3.43-.58 4.36-1.4.87-.31-.06-1.7-.33-2.46m15.42-16.48c.2 0 .59 1.1 1.34 1.75.49 1.35.93 2.3 1 3.86.42-1.71 1.12-3.1 1.35-4.91-.52-.92-.56-1.36-2.01-1.4 0 .94.1.33-1.68.7m6.03.35v.35c0-.95-.01-.46.34 1.4.56 1.18.67 2.44.67 4.21a7 7 0 0 0 2.02-3.15c0-2.77-.38-2.61-3.02-2.81m12.41 40.32h.33c-.99 0-.43.06 1.34-1.05 1.15-.8 2.09-1.98 3.7-2.45a13 13 0 0 1 4.35-2.46c.79-.37 1.48-1.03 2.35-.35-.25 1.73-.54 2.39-2.02 3.16-.76 1-1.96 1.58-3.01 2.1-1.1.5-2.3.53-2.69 1.75-1.82.84-2.04.7-4.35-.7m6.37 10.17c.6-.47 2.7-2.66 3.68-3.5a15 15 0 0 1 3.36-3.51c.98-1.5 2.23-2.51 3.02-3.86.93-1.18 1.61-2.18 2.68-3.5 0 1.53-.14 3.56.33 4.55 0 2.12-.23 2.7-1 4.21-.76 1.24-1.33 2.06-3.02 2.8-1.52.85-2.44 1.15-3.69 2.11q-1.42.94-3.02 1.75c-.96.43-.52.25-2.34-1.05m-10.39 8.07h.33c-.99 0-.44.06 1.34-1.06 1.43-1.5 2.57-2.01 4.36-2.8 1.36-.11 3-.46 4.02-1.05.81-.15 1.38-.67 2.01 0 1.06 1.48 1.35 1.9-.33 2.8a10 10 0 0 1-3.35 1.76c-.84.72-2.5.76-4.03 1.05-1.37 0-2.13.16-2.68-.7l2.68.7c-1.37 0-2.13.16-4.36-.7m14.42 0v-.35c0 .97-.04.46.67-1.4 1.26-1.97 1.73-3.05 3.35-3.51.76-.97 2.08-1.21 3.7-1.76.6 1.06.13 2.28 0 3.5-.45 1.32-1.64 2.24-2.35 3.17-1.05.74-1.48 1.45-3.02 1.75-1.28 0-.6-.03-2.35-1.4"/><path fill="#c4c4c2" stroke="#000" stroke-width="1.36" d="M817.48 151.17c-.75 0 1.32-.79 2-1.06.56-1.21 1-2.08 2.02-2.8 1.68.13 2.5.64 3.35 1.75 1.42.4 1.92 1.1 3.7 1.4.65.58 1.54.65 0 1.06-1.06.58-2.38.7-4.03.7-1.73.13-2.97.53-4.03 1.05-2.24 0-1.88.08-3.01-2.1z"/><circle cx="138.11" cy="302.6" r="1.1" fill="#000" transform="matrix(1.5175 0 0 1.58678 612.6 -330.05)"/></g><g fill="#005121" stroke="#002b0e" stroke-width="1.94"><path d="M827.87 247.94h1.34c-4.2 0-1.69-.29 5.37 5.61 2.95-2.57 2.92-2.92 5.36 1.4 1.42 2.47 1.83-.24 4.03-2.8 1.06 5.1 1.73 10.44 5.36 5.61 4.15 0 8.49-.36 10.73 1.4 2.72 5.28 1.83-.9 4.03 1.4 5.9.75 5.8-5.29 12.22-6.85 4 5.22 5.75 1.2 10.74-1.4 3.7 1.08 7.18 6.95 7.89 1.24 3.03-5.16 3.29-4.72 5.36 0 2.95 2.78 4.19-1.38 6.7-2.8 4.5 2.75 9.5 3.13 16.1 1.4 1.12 4.67 3.94 2.65 6.71 1.4 5.93 2.61 8 3.4 14.76 0 3.34-4.13 1.45.12 4.02 2.8 5-1.61 3.62-1.96 9.39-1.4 5.8 0 6.27-.14 8.05-4.2 2.9 3.05 3.96 5.24 8.04 1.4 6.26.2 4.32.83 8.05-1.4 2.76 6.39 3.4 1.77 6.7 4.2-2.17 5.77-5.5 8.47-9.38 11.23-2.58 4.46-4.2 9.29-9.39 11.22-3.79 4.04-7.83 6.38-12.07 9.82-5.82 1.52-12.22 1.4-18.78 1.4h-56.33c-4.01 2.1-10.56 3.09-16.1 4.2-6.18 0-13.2.08-17.44-1.4-2.87-3-7.92-6.36-10.73-9.82-2.84-2.4-2.92-7.07-5.36-9.81-2.25-4.02-2.94-10.3-5.37-14.03z"/><path d="M957.98 260.57v1.4c0-3.92.16-1.84-2.68 5.6-.58 1.82-1.84 2.24-4.03 2.81m-5.37-4.2h1.35c-4.97 4.9-8.31 7.16-9.4 12.62l9.4-12.62c-4.97 4.9-8.31 7.16-9.4 12.62m-10.72-19.63c0 .12-.2 5-1.34 7m-4.03 2.81v1.4zm-10.73-8.41h1.34zm-75.11 0c.64 0 3.28 4.45 6.7 7-.85 4.11-2.16 8.86 0 12.63m4.03-11.22c.64 0 3.28 4.46 6.7 7.02l-6.7-7.02c.64 0 3.28 4.46 6.7 7.02v1.4c0-4.34-.34-8.87 1.35-11.22 1.49 2.64 3.37 6.88 4.02 2.8 7.55-.28 11.2-2.5 16.1-4.2 0 2.06-.32 1.07 1.34 2.8m91.21-5.61h1.34c-2.53 2.2-4.47 6.7-6.7 9.82m-49.64-14.03h10.73"/></g><path fill="#fff" d="M824.72 268.43c-16.13 0-21.48 16.86-37.61 16.86q-.46-.01-.9-.04v1.02c-.07 11.68.85 22.57 2.52 32.73 14.89-1.08 20.41-16.86 35.99-16.86 16.13 0 21.51 16.9 37.64 16.9 16.14 0 21.52-16.9 37.65-16.9s21.52 16.9 37.65 16.9 21.51-16.9 37.64-16.9c15.54 0 21.08 15.66 35.87 16.82a195 195 0 0 0 2.65-33.67v-.04l-.9.04c-16.14 0-21.49-16.86-37.62-16.86s-21.51 16.86-37.64 16.86-21.52-16.86-37.65-16.86-21.51 16.86-37.65 16.86-21.51-16.86-37.64-16.86m0 65.8c-12.55 0-18.59 10.18-28.24 14.7 3.37 9.3 7.45 17.76 11.98 25.52 4.59-3.46 9.46-6.46 16.26-6.46 16.13 0 21.51 16.86 37.64 16.86 16.14 0 21.52-16.86 37.65-16.86s21.52 16.86 37.65 16.86 21.51-16.86 37.64-16.86c6.65 0 11.46 2.87 15.95 6.23a157 157 0 0 0 12.02-25.4c-9.5-4.59-15.53-14.59-27.97-14.59-16.13 0-21.51 16.86-37.64 16.86s-21.52-16.86-37.65-16.86-21.51 16.86-37.65 16.86-21.51-16.86-37.64-16.86m75.29 65.81c-16.13 0-21.51 16.9-37.65 16.9-15.25 0-20.9-15.1-35.1-16.75 18.98 21.16 40.52 33.97 55.21 41.01 4.97-3.85 10.12 4.69 17.54 4.69 7.37 0 12.5-8.59 17.43-4.76 14.52-7.08 35.8-19.9 54.69-40.86-13.75 2-19.45 16.67-34.47 16.67-16.13 0-21.52-16.9-37.65-16.9"/><g stroke="#522108"><g fill="none"><path stroke-width=".74" d="M800.15 342.75c2.64-.92 15.44-5.07 15.88-4.6l24.7 24.9-20.3 4.15z"/><g stroke-width=".75"><path d="M848.36 374.79c.37-5.8 11.2-38.71 11.2-38.71m-7.46 39.1c0-.37 8.59-38.74 8.59-38.74m-5.65 38.8c.37-2.17 7.14-38.8 7.14-38.8"/><path d="M851.35 364.3c1.87 0 5.6-1.45 5.6-1.45m-4.48-2.9c0-.36 5.6-1.45 5.6-1.45m-4.85-3.97 5.97-1.09m-3.36-3.62c0 .37 4.11.37 4.11.37"/></g><g stroke-width=".74"><path d="M914.9 400.38c-.44-9.92-13.24-66.29-13.24-66.29m8.83 64.43c0-.62-10.15-63.8-10.15-63.8m5.73 58.84c-.44-3.72-7.5-58.85-7.5-58.85"/><path d="M914.46 392.32c-2.21-1.86-8.83-4.33-8.83-4.33m5.74-5.58c-2.2 0-6.62-2.48-6.62-2.48m5.29-4.95c0-.62-6.61-2.48-6.61-2.48m5.73-6.81-7.06-1.86m3.97-6.2c0 .62-4.85.62-4.85.62m3.53-8.05c-.88 0-4.85 1.24-4.85 1.24"/></g><g stroke-width=".74"><path d="M948.8 372.68c-2.2 0-6.62-1.85-6.62-1.85"/><path d="M952.33 386.05c-.45-7.38-13.24-49.35-13.24-49.35m8.83 47.97c0-.46-10.15-47.5-10.15-47.5m5.73 43.81c-.44-2.77-7.5-43.82-7.5-43.82"/><path d="M947.47 367.14c0-.46-6.61-1.84-6.61-1.84m5.74-5.08-7.07-1.38m3.97-4.61c0 .46-4.85.46-4.85.46m3.53-5.99c-.88 0-4.85.91-4.85.91"/></g></g><g fill="#dd8b59" stroke-width=".74"><path d="m895.43 391.65 1.32-115.77s3.97-.47 3.97 0-.44 115.3-.88 115.77-4.86.92-4.41 0zm43.23-110.7-.89 97.32-3.09 3.69.89-101.01zM861.9 369.5c.44-2.76.44-86.25.44-86.25l-2.64-.46-.44 85.33z"/><path d="M845.14 338.14c1.77 0 31.76-5.07 31.76-5.07l-.44 5.07-29.55 3.23zm.44-26.75c1.77.46 36.17-9.69 36.17-9.69s0 3.23-.44 3.23-35.73 9.69-35.73 9.69zm1.32-13.38c-.44 1.85.45 4.16.45 4.16l28.67-10.15s1.32-2.3 0-2.3c-1.33 0-29.56 9.22-29.11 8.3zm37.94-6.45c.88 0 29.55-9.69 29.55-9.69s.44 4.15 0 4.15-26.9 8.3-26.9 8.3zm-2.21 11.99s-.88 4.15-.44 4.15 37.5-10.15 37.5-10.15v-2.76zm1.33 32.75v3.22l31.76-4.6-.88-2.31zm36.61 2.3.44 2.77s31.76-4.15 31.76-4.61 0-3.23-.44-3.23-31.32 5.53-31.76 5.07zm-.44-29.52.44 3.23 37.5-10.6s.88-2.77.43-2.77c-.44 0-37.49 11.53-38.37 10.14zm3.97-14.76s-.44 2.77 0 2.77 27.79-6.92 27.79-7.38 2.64-3.23.44-2.77c-2.2.47-27.35 8.77-28.23 7.38z"/></g><path fill="#fecf3e" stroke-width=".74" d="M864.1 303.55c3.98-1.38 1.33-4.61 2.21-4.61.89 0 3.97 2.3 5.74.46 1.76-1.85 3.09-7.38 2.2-6.92-.8.41-19.8 7.55-23.92 7.63 2.58 1 10.34 4.64 13.78 3.44zm61.32-6.45s2.2 5.53 4.41 4.6c2.2-.92 4.41-2.76 4.41-2.76s1.77 4.6 4.86 3.69c3.08-.93 4.85-6 4.85-6s3.08.92 4.4.46 3.1-7.84 3.1-7.84zm-2.64 44.73c-.45.92 2.2 3.23 4.4 3.23s3.1-3.23 3.53-2.3c.45.92.45 5.07 6.18 3.68 5.74-1.38 5.74-5.53 5.74-5.53s-1.77 1.38 2.2 1.84 7.94-6 7.5-6-28.67 5.54-29.56 5.08zm0-29.98s-4.42 5.07-3.1 12c1.33 6.91 3.1 12.9 3.54 12.9s5.29-9.22 10.58-9.68 15 5.08 15 5.08-1.32-11.08-.88-16.15 7.94-13.83 7.94-13.83zm-76.32 29.98c.45 0 0 4.15 3.53 3.23s4.41-3.23 4.41-3.23.89 5.07 5.74 4.61 7.5-6 7.5-6 .44 4.16 3.53 2.78 3.97-4.62 3.97-4.62l-27.8 4.15zm0-27.21s-3.97 1.38-2.64 9.68c1.32 8.3 4.4 12.92 4.85 12.92s3.97-7.84 9.26-9.22c5.3-1.39 14.56 4.15 14.56 4.15s-.88-7.38.44-14.3 5.73-12 5.73-12-30.87 8.77-32.2 8.77zm39.26-21.68c1.77.46 4.85 5.07 6.62 4.15 1.76-.92 4.41-3.69 4.41-3.69s-.44 5.54 3.09 4.61 3.97-4.6 3.97-4.6 2.64 1.38 4.85 0c2.2-1.4 4.41-8.31 3.53-8.31s-25.58 8.3-26.47 7.84zm-.88 13.38c0 .92-4.41 8.3-3.09 15.22s3.97 13.37 4.41 13.37 7.06-7.38 12.8-8.76c5.73-1.38 14.11 4.61 13.67 4.61s-2.2-6.92-2.2-11.99 6.61-20.76 6.61-20.76zm0 33.21c0 .46 1.32 3.69 4.41 3.69s3.53-3.23 3.53-3.23-.44 5.53 4.41 5.07 6.62-5.53 6.62-5.53.44 2.76 4.4 1.38c3.98-1.38 9.27-6 8.83-6s-31.76 6-32.2 4.62z"/><g fill="#dd8b59" stroke-width=".74"><path d="M846.46 372.73s4.42 47.51 55.14 46.13c50.73-1.39 64.84-47.97 64.84-47.97s-21.61-.92-22.05-.92-17.65 22.14-39.7 21.68-29.11-6-33.97-10.61c-4.85-4.62-9.26-11.53-9.26-11.53l-25.58-10.61 1.32 10.14zm136.95-4.93c-.44-1.38-1.53-6.14-1.53-6.14v-5.53l2.44-5.6s-38.37 5.74-38.37 6.2c0-.53-.24 10.93-.24 10.93z"/><path d="m976.15 356.13-.88 9.69h6.17l-.44-9.69zm-6.62.47-.44 10.14 3.97-.46.44-9.69zm-6.61 10.14v-7.84l3.97-1.39.44 7.84zm-7.5-.46.88-6.92 4.4.46.45 7.38zm-8.38 0 .44-6 4.4-.46v6.92zm-4.41 3.69 41.9.92.44-3.23-43.23-.46zm1.76-11.53c4.85 0 41.46-7.38 41.46-7.38s1.33-4.62 0-4.62c-1.32 0-41.46 8.77-41.46 8.77zM798.83 342.3l33.52 17.06-.88 2.3s-32.2-15.68-32.2-16.14.44-2.3-.45-3.23z"/><path d="M814.26 337.22c0 1.38 4.86 29.52 4.86 29.52s3.08.46 3.08 0-5.29-29.06-5.29-29.06z"/></g><g fill="none"><g stroke-width=".75"><path d="M882.04 389.32c.45-7.67 13.24-51.29 13.24-51.29m-8.82 51.8c0-.48 10.14-51.32 10.14-51.32m-6.67 51.4c.44-2.87 8.44-51.4 8.44-51.4"/><path d="M882.49 383.08c2.2-1.43 8.82-3.35 8.82-3.35m-5.74-4.31c2.2 0 6.62-1.92 6.62-1.92m-5.29-3.83c0-.48 6.61-1.92 6.61-1.92m-5.73-5.27 7.06-1.44m-3.97-4.79c0 .47 4.85.47 4.85.47m-3.53-6.22c.88 0 4.85.95 4.85.95"/></g><g stroke-width=".74"><path d="M919.47 388.99c.45-7.38 13.24-49.35 13.24-49.35m-8.82 47.96c0-.46 10.14-47.5 10.14-47.5m-5.73 43.81c.44-2.76 7.5-43.81 7.5-43.81"/><path d="M919.92 383c2.2-1.4 8.82-3.24 8.82-3.24m-5.74-4.15c2.2 0 6.62-1.84 6.62-1.84m-5.29-3.69c0-.46 6.61-1.85 6.61-1.85m-5.74-5.07 7.07-1.38m-3.97-4.62c0 .46 4.85.46 4.85.46m-3.53-5.99c.88 0 4.85.92 4.85.92"/></g><g stroke-width=".74"><path d="M877.16 384.07c-.45-7.43-13.24-49.65-13.24-49.65m8.82 48.26c0-.47-10.14-47.8-10.14-47.8m5.73 44.08c-.44-2.78-7.5-44.08-7.5-44.08"/><path d="M876.71 378.04c-2.2-1.4-8.82-3.25-8.82-3.25m5.74-4.18c-2.2 0-6.62-1.86-6.62-1.86m5.29-3.71c0-.46-6.61-1.85-6.61-1.85m5.73-5.11-7.06-1.39m3.97-4.64c0 .46-4.85.46-4.85.46m3.53-6.03c-.88 0-4.85.93-4.85.93"/></g></g><path fill="#b6b6b4" stroke-width=".74" d="M835 359.36s-8.83-1.38-8.39.92c.45 2.3 4.42 4.61 4.86 6s-1.33 6.45 1.32 6c2.65-.47 5.3-2.31 5.3-3.7s-.45-7.84-.45-7.84z"/><g fill="none" stroke-width=".74"><path d="M844.7 372.27c1.32 0 11.47 2.31 11.47 2.31l10.58 14.76"/><path d="M852.2 374.12c.44.46 9.26 31.36 51.6 31.36s52.5-35.05 52.5-35.05"/><path d="M962.92 371.35s-20.3 46.13-59.11 42.9-45-18.45-48.08-26.3c-3.1-7.84-4.85-14.3-4.85-14.3m101.01-39.66c.44-1.38 1.76-29.06 1.76-29.06m29.12 42.9-27.35-45.2m-55.58-25.37c0-.46 13.67 6 13.67 6.45 0 .47 48.52 67.8 48.96 67.8m-24.26-67.8 12.36 5.54 3.96 10.15m-93.07-16.6c-.44 0 13.68 11.06 13.68 11.06l1.76 9.23m-63.52 47.04c6.18-2.76 48.96-41.97 48.96-41.97m-60.43 34.59c5.3-4.6 48.08-42.43 48.08-42.43m32.21 6.46 45.43 78.87m-5.36-46.25s5.36 18.58 10.65 21.34 11.47 7.38 11.47 7.38"/><path d="M921.66 339.78s3.76 21.89 9.05 26.04 10.6 8.76 10.6 8.76m-56.24-36.33s5.29 30.44 15.88 37.36 19.4 12.92 19.4 12.92"/><path d="M884.63 337.79s11.46 23.99 21.17 31.37c9.7 7.37 22.94 14.3 22.94 14.3m-81.17-43.82c3.1 5.53 2.65 16.14 6.18 19.83s8.82 12 8.82 12"/><path d="M848.46 340.1c1.76 2.76 6.68 16.54 9.7 20.75 2.2 3.7 24.7 27.22 24.7 27.22"/></g><g stroke-width=".47"><ellipse cx="872.05" cy="389.22" rx="3.31" ry="3.46"/><ellipse cx="888.82" cy="396.6" rx="2.87" ry="3"/><ellipse cx="909.55" cy="398.44" rx="2.87" ry="3"/><ellipse cx="928.07" cy="391.29" rx="2.65" ry="2.54"/><ellipse cx="942.19" cy="382.3" rx="2.43" ry="3"/></g><path fill="#ff0101" stroke-width=".74" d="M859.48 283.36c-1.32.93-23.38 6.46-20.29 6s20.73 4.61 20.3 3.23c-.45-1.39 0-8.3 0-9.23zm37.5-6.91c-.89 0-13.68 5.07-13.24 5.07s14.56 4.15 14.12 3.23-.44-6.92-.88-8.3zm38.37 4.61c-.88.46-15.88 4.15-13.23 4.61s12.8 4.15 12.8 3.23 0-7.38.43-7.84z"/><g fill="#be1017" stroke-width=".58" transform="matrix(.04915 -1.29622 1.23825 .05145 0 0)"><circle cx="-216" cy="726.38" r="1.89"/><circle cx="-212.22" cy="739.05" r="1.89"/><circle cx="-219.25" cy="732.92" r="1.89"/><circle cx="-208.97" cy="732.51" r="1.89"/><circle cx="-214.11" cy="732.71" r="1.89"/></g></g></svg>