<svg xmlns="http://www.w3.org/2000/svg" xmlns:xlink="http://www.w3.org/1999/xlink" viewBox="0 0 900 600"><path fill="#de2910" d="M0 0h900v600H0z"/><g id="a"><path fill="#fff" d="M449.96 299.91c-105.26-44.48-58.6-181.58 42.07-174.69-20.36 10.47-23.31 30-11.68 48.1 13.02 20.25-1.2 52.84-18.8 60.76-28.94 13.02-34.74 47.75-11.59 65.83"/><path fill="#de2910" d="m444.27 200.92-5.92 9.3-2.14-10.82-10.68-2.76 9.62-5.39-.67-11 8.09 7.49 10.25-4.04-4.6 10 7 8.51zm6.29 97.84c-12.73-6.54-23-20.16-27.47-36.43a69.2 69.2 0 0 1 8.08-55.04l-2.2-1.4a72 72 0 0 0-8.39 57.13c4.73 17.22 15.21 31.1 28.79 38.06z"/></g><use xlink:href="#a" transform="rotate(72 450 300)"/><use xlink:href="#a" transform="rotate(144 450 300)"/><use xlink:href="#a" transform="rotate(216 450 300)"/><use xlink:href="#a" transform="rotate(288 450 300)"/></svg>