<svg xmlns="http://www.w3.org/2000/svg" xml:space="preserve" width="411" height="274" viewBox="79.46 52.64 411 274"><path fill="#fff" d="M79.5 139.36h411v101.29h-411z"/><path fill="#cf2029" d="M79.5 53h411v91.29h-411z" style="fill:#ce1126;fill-opacity:1"/><path fill="#020202" d="M79.5 235.71h411V327h-411z" style="fill:#000;fill-opacity:1"/><g fill="#119b4a" style="fill:#007a3d;fill-opacity:1"><path d="M325.52 173.18a5 5 0 0 1-1.39-1.06c-.31-.44-.13-.45 1.16-.1 2.32.63 3.82.38 5.3-.87l1.3-1.1 1.55.78c.85.43 1.75.72 2 .65.67-.17 2.06-1.95 2.01-2.56-.05-.76.59-.57.9.26.61 1.63-.28 3.5-1.87 3.92-.77.2-1.49.13-2.66-.28-1.43-.5-1.68-.5-2.4.06a5.4 5.4 0 0 1-5.9.3m5.74-5.24c-.57-.72-1.24-3.43-1.02-4.1.19-.57.39-.68.91-.52.92.29 1.13.92 1 3.06-.11 1.75-.37 2.21-.9 1.56M263.74 166c-.18 1.3 2.33 4.56 3.46 5.15-.77.34-1.73.19-2.43.58-3.95 3.94-18.37 18-21 21.36 7.8.16 16.45-.1 23.76-.44 0-5.3 5.02-5.57 8.38-7.5 1.73 2.72 6.07 2.51 6.62 6.62v17.64h-66.62c-1.17 5.18-5.84 9.13-12.35 7.5 2.01-2.1 5.4-2.82 6.62-5.73 1.02-6.37-2.05-10.3-4.03-13.9 3.28-1.2 3.78-1.5 7.12-3.75-2.35 7.12 6.09 6.34 12.35 6.18.21-2.42.09-5.27-1.77-5.62 2.4-.87 2.8-1.17 6.62-4.42v9.6c14.89 0 30.95-.12 46.14-.12 0-3 .8-7.82-1.58-7.82-2.27 0-.1 6.17-1.87 6.17h-35.63l-.03-6.1c1.5-1.51 1.33-1.38 11.64-11.7 1.03-1.03 8.27-7.57 14.6-13.7m89.06-.26c2.5 1.33 4.46 3.19 7.5 3.97-.35 1.26-1.47 1.76-1.76 3.08v26.91c3.4.75 4.11-1.17 5.73-2.2.45 4.3 3.19 8.53 3.1 11.91H352.8zm-19.4 14.41s5.29-4.47 5.29-4.64v23.48h3.81c0-8.95-.12-18.03-.12-26.34 1.55-1.55 4.58-3.8 5.34-5.36v42.06l-33.44.01c-.5-8.73-.58-17.77 9.6-15.83v-3.56c-.31-.6-.87.15-1-.64 1.62-1.62 2.16-2.03 6.54-5.86 0 4.62.08 15.5.08 15.5h3.86zm-12.56 18.6c.71 1.08 3.15 1.06 3.04-.75-.41-1.5-3.62-.93-3.04.75" style="fill:#007a3d;fill-opacity:1"/><circle cx="224.03" cy="214.37" r="2.04" style="fill:#007a3d;fill-opacity:1"/><path d="M287.05 165.78c2.49 1.34 4.45 3.19 7.5 3.97-.35 1.26-1.48 1.76-1.77 3.09v26.9c3.4.76 4.12-1.17 5.74-2.2.44 4.3 3.18 8.53 3.09 11.91h-14.56z" style="fill:#007a3d;fill-opacity:1"/></g></svg>