<svg xmlns="http://www.w3.org/2000/svg" xmlns:xlink="http://www.w3.org/1999/xlink" viewBox="0 0 1200 600"><clipPath id="a"><path d="M0 0v150h700v150H600zm600 0H300v350H0v-50z"/></clipPath><path fill="#00247d" d="M0 0h1200v600H0z"/><path stroke="#fff" stroke-width="60" d="m0 0 600 300m0-300L0 300"/><path stroke="#cf142b" stroke-width="40" d="m0 0 600 300m0-300L0 300" clip-path="url(#a)"/><path stroke="#fff" stroke-width="100" d="M300 0v350M0 150h700"/><path stroke="#cf142b" stroke-width="60" d="M300 0v350M0 150h700"/><path fill="#00247d" d="M0 300h600V0h600v600H0z"/><g stroke="#000" stroke-width="1.44"><g stroke="#fff" stroke-linejoin="round" stroke-width="9.6"><use xlink:href="#b"/><use xlink:href="#c"/><use xlink:href="#d"/><use xlink:href="#f"/><use xlink:href="#g"/><use xlink:href="#h"/><use xlink:href="#i"/></g><g id="c" fill="#fcea83"><path d="M754.42 449.56c2.87 7.67 23.48 17.73 47.44 4.8 16.3-9.11 26.84-22.05 36.9-45.05 2.88-5.75 4.32-12.94-2.4-17.26-5.27-3.83-13.9-8.14-17.73-11.98-1.91-1.91-3.83-3.35-5.27-4.79.96.96 1.92 1.92 2.88 3.36 9.58 11.5-.48 28.27-11.02 38.33-7.67 7.2-21.57 24.93-41.7 8.15-4.31-3.83-14.37 11.98-9.1 24.44zm291.37 0c-3.35 7.67-23.96 17.73-47.44 4.8-16.3-9.11-26.84-22.05-37.38-45.05-2.4-5.75-3.84-12.94 2.87-17.26 5.27-3.83 13.9-8.14 17.73-11.98 1.92-1.91 3.36-3.35 5.27-4.79-.95.96-1.91 1.92-2.87 3.36-9.59 11.5.48 28.27 10.54 38.33 7.67 7.2 22.05 24.93 42.17 8.15 4.32-3.83 13.9 11.98 9.11 24.44z"/><path d="M900.1 490.78c38.34 0 97.29-17.25 128.92-77.64 5.27-10.06 0-15.33-6.23-18.69-6.71-2.87-14.86-9.58-19.17-13.9 7.67 7.67 6.23 12.94.96 21.57-24.44 40.73-57.99 61.34-104.47 61.34-46.5 0-80.04-20.6-104.48-61.34-5.27-8.63-6.7-13.9.48-21.57-3.83 4.32-12.46 11.03-19.17 13.9-6.23 3.36-11.5 8.63-6.23 18.7 31.63 60.38 91.06 77.63 129.4 77.63z"/></g><path id="d" fill="#db161c" d="M811.45 409.79c-.96-4.8-7.2-2.88-9.1 2.87-2.4-3.35-4.8-6.7-6.72-10.54-5.75-8.63-6.7-14.38 1.44-22.52 3.83-3.84 11.5-8.15 16.77-3.36 11.02 9.1 5.27 23.96-2.4 33.55zm176.83 0c.96-4.8 7.67-2.88 9.59 2.87 2.4-3.35 4.8-6.7 6.7-10.54 5.76-8.63 6.72-14.38-1.9-22.52-3.36-3.84-11.03-8.15-16.78-3.36-10.55 9.1-5.27 23.96 2.4 33.55zm-233.86 39.77c-4.8-7.19-8.63-25.88-9.59-30.67-1.44-4.31-1.91-8.15 3.36-10.06s10.06 4.79 12.46 10.54 6.23 14.38 10.54 24.92c-10.54-6.23-19.17-1.92-16.77 5.27zm291.37 0c4.31-7.19 8.15-25.88 9.58-30.67.96-4.31 1.92-8.15-3.35-10.06s-10.06 4.79-12.46 10.54-6.23 14.38-10.54 24.92c10.54-6.23 18.69-1.92 16.77 5.27z"/><g fill="#00493d" stroke="none"><path d="m782.21 406.43-3.83 1.92c-.96.48-.96 1.44-.96 1.92h-.48l-1.92-4.32h.48c0 .48.48.96 1.44.48l8.15-4.31c.96-.48.96-.96.48-1.44l.48-.48 2.4 4.8h-.49c-.48-.48-.95-.96-1.91-.48l-3.36 1.91 1.44 2.88 3.83-1.44c.96-.48.48-1.44.48-1.92h.48l1.92 4.32c-.48-.48-.96-.96-1.92-.48l-8.14 4.31c-.96.48-.96.96-.48 1.44l-.48.48-2.4-4.32.48-.48c.48.48.96.96 1.92.48l3.83-1.91zm8.15 6.23c.96-.48.96-.96.48-1.91h.48l4.8 7.18-3.36 2.4v-.48c1.91-1.44 1.91-3.35 1.43-3.83s-.95-.96-.95-1.44c-.48 0-.48-.48-1.44.48a50 50 0 0 1-3.36 2.4c.48.47.96 1.91 3.36.47h.48l-5.27 3.84v-.48c2.4-1.92 1.43-3.36.95-3.84l-3.35 2.4c-.96.48-.96.96-.96 1.44.48 0 .48.48.96.96.48.96 1.92 1.91 4.31.96l.48.47-3.83 1.44-4.8-7.67h.48c.48.48.96.96 1.92.48zm7.67 18.21-3.36 2.88a1.46 1.46 0 0 0 0 1.92h-.48l-3.35-3.36.48-.48c.48.48.96.96 1.91 0l6.23-6.23c.96-.48.96-.96.48-1.92l3.36 3.84a1.46 1.46 0 0 0-1.92 0l-2.87 2.87 2.4 2.4 2.87-2.4c.96-.95.48-1.43 0-1.91l.48-.48 3.35 3.83h-.48c-.48 0-.96-.48-1.91.48l-6.23 5.75c-.96.96-.96 1.44-.48 1.92v.48l-3.36-3.84c.48 0 1.44.48 1.92 0l3.35-3.35zm7.19 10.07 1.43 1.43 1.92-4.3s-1.44.47-3.83 1.9zl-.48.48-.96-.96c-.48.48-.96.48-1.44.96-1.44.95-.96 1.43-.48 1.91v.48l-2.4-2.4h.48l1.92-.47 9.59-5.27.48.47s-.48.48-4.8 10.07c0 .96-.48 1.44 0 2.4l-3.83-3.36.48-.48c.48.96 1.44.96 1.92 0 0-.48.47-1.44.47-1.92l-1.43-1.43zm3.83 9.58.48-.48c.48.48.96.48 1.92 0l6.23-8.14-.48-.48c-.96-.48-2.4-.48-3.84.95v-.47l1.92-2.4 7.19 5.27-2.4 2.88h-.48c1.44-1.44.96-3.36 0-3.84v-.48l-6.23 8.15c-.96.48-.48 1.44 0 1.92h-.48z"/><path d="m821.51 452.44-2.4 3.35c-.48.96 0 1.44.48 1.92l-.48.48-3.83-2.88v-.47c.96.47 1.44.47 1.92-.48l5.27-7.2c.48-.95 0-1.43-.48-1.91l.48-.48 3.83 2.88v.48c-.96-.48-1.44-.48-1.91.48l-2.4 3.35 2.87 1.92 2.4-3.36c.48-.96 0-1.44-.48-1.91l.48-.48 3.83 2.87v.48c-.47-.48-1.43-.48-1.91.48l-4.8 7.67c-.95.48-.47.96 0 1.44v.47l-4.3-2.87h.47c.48 0 .96 0 1.44-.48l2.4-3.83zm9.59 13.42.47-.48c.48.48 1.44.48 1.92-.48l3.84-8.15c.47-.96 0-1.44-.48-1.92l8.14 3.84-1.91 3.83-.48-.48c1.43-1.91 0-3.83-.48-4.31-.48 0-.96-.48-1.44-.48s-.48 0-.96.96c-.48.48-1.92 3.35-1.92 3.35.48.48 1.44 1.44 3.36-.95h.48l-2.88 5.75-.48-.48c1.44-2.88-.48-3.36-.95-3.36l-1.92 3.84c-.48.95 0 1.43.48 1.43v.48zm13.9 6.71c-1.45-.96-1.45-3.84 0-6.71.95-2.88 2.87-5.27 4.78-4.32 1.44.48.96 3.36 0 6.23-1.43 3.36-3.35 5.28-4.79 4.8h-.48c3.36 1.43 5.75-.48 7.2-3.84 1.43-2.87.95-6.23-1.93-7.66-2.87-1.44-5.75.47-7.18 3.83-1.44 3.35-.96 6.7 1.91 7.67zm14.85.96 1.92-5.76c.48-.95 0-1.43-.48-1.91l2.4.48v.48c-.49 0-.97 0-1.44.95l-1.92 5.75c-.96 2.4-2.4 4.32-5.27 3.36-1.92-.48-3.36-2.88-2.4-5.27l2.4-6.23c.48-.96 0-1.44-.48-1.92v-.48l4.31 1.92v.48c-.48-.48-1.44-.48-1.44.48l-2.4 6.23c-.47 1.91-.47 3.83.97 4.31 1.43.48 2.87-.48 3.83-2.88"/><path d="M864.16 467.3c0-.48 0-.48-.48-.48l3.36.48 2.87 9.1 1.44-5.75c.48-.96 0-1.44-.48-1.92l2.88.48-.48.48c-.48 0-.96 0-1.44.96l-2.4 10.54h-.48l-3.83-11.5-2.4 7.67c0 1.44.48 1.44.96 1.92v.48l-2.87-.96v-.48c.48.48 1.44 0 1.44-.96l2.4-8.63z"/><path d="M880.46 476.88c-.96 4.31-2.88 5.27-3.84 5.27h-.96s-.48-.48 0-.96l1.44-9.58c.48-.48.48-.96.96-.48h.96c.96 0 1.92 1.92 1.44 5.75l1.43.48c.96-4.8-.95-6.71-3.35-7.19-1.92-.48-4.8-.96-4.8-.96v.48c.49.48 1.44.48.97 1.92l-1.44 8.62q-.72 1.44-1.44 1.44h-.48l4.8.96c2.39.48 4.79 0 5.74-5.27zm4.31-3.83c0-.96-.96-1.44-1.44-1.44v-.48l8.63.96-.48 3.83c0-2.4-1.44-3.35-2.4-3.35-.48-.48-.96-.48-1.44-.48-.47 0-.47 0-.47 1.44 0 .47-.48 3.83-.48 3.83.48 0 1.91.48 2.87-2.4l-.48 6.23h-.48c0-2.87-1.43-2.87-1.91-2.87l-.48 4.31c0 .96 0 .96.48.96l.95.48c1.44 0 2.88-.48 3.84-3.36h.48l-.96 3.84-9.1-.96c.95 0 1.43-.48 1.91-1.44zm15.81 5.75c0 4.31-1.43 5.75-2.87 5.75-.48-.48-.48-.48-.96-.48l-.48-.48.48-10.06c0-.48 0-.48.48-.48h.96c.96 0 2.4 1.43 2.4 5.75h1.91c0-4.8-2.4-6.23-4.8-6.23-1.9-.48-4.78-.48-4.78-.48v.48c.48 0 1.43.48 1.43 1.43l-.48 9.11c0 .96-.47 1.44-.95 1.44v.48h4.3c2.4 0 4.8-.96 5.28-6.23zm13.9 3.83c0 .96.48.96 1.44.96v.48l-5.27.48c.48-.48 1.44-.96 1.44-1.92l-.96-9.1c-.48-.96-.96-.96-1.92-.96v-.48l5.27-.48c-.48.48-1.44.96-.96 1.92zm4.79.96v-.48c.48 0 .96-.48.96-1.44l-1.91-10.06h-.48c-.96.48-1.92 1.44-1.44 3.35h-.48l-.48-3.35 8.63-1.44.48 3.36h-.48c0-1.92-1.44-2.4-2.88-2.4h-.48l1.92 10.06q0 1.44 1.44 1.44v.48zm20.61-9.59-1.92-5.75c0-.96-.95-.96-1.43-.96v-.47l2.4-.96v.48c-.49.48-.49.48-.49 1.43l1.92 6.23c.48 1.92.48 4.8-2.4 5.75-1.91.48-4.3-.47-4.79-3.35l-1.92-6.23c-.47-.96-.95-.96-1.43-.96l-.48-.48 4.79-1.44v.48c-.48.48-.96.96-.48 1.92l1.44 6.23c.48 1.92 1.92 2.88 3.35 2.88 1.44-.48 1.92-2.4 1.44-4.8m5.27-3.35c2.4-.96 1.92-2.4 1.44-3.83s-1.44-2.4-2.4-1.92c-.47 0-.95.48-.47.96zl.48.48.96 3.83c.48.96 1.44.96 1.92.48v.48l-4.32 1.92-.47-.48c.95-.48.95-.96.95-1.92l-3.35-8.14c-.48-1.44-.96-.96-1.92-.96v-.48l4.8-1.92c1.91-.48 3.83 0 4.79 1.92.48 2.4-.48 3.83-2.4 4.79-.48 0-.96.48-.96.48zm11.98 1.44c-1.43.48-3.35-1.44-4.79-4.8-1.44-2.87-1.44-5.75 0-6.23 1.44-.47 3.36 1.44 4.8 4.32s1.43 5.75 0 6.7c2.87-.95 3.83-4.3 2.39-7.66-1.44-2.88-4.31-4.8-7.19-3.83-2.87 1.43-3.83 4.79-2.4 7.66 1.44 3.36 4.32 5.27 7.2 3.84m.47-13.42h-.96l2.88-1.92 8.63 4.8-2.88-5.28c-.48-.96-1.44-.96-1.92-.96v-.47l2.4-.96c-.48.48-.96.96 0 1.91l4.8 9.59-.49.48-10.54-5.75 3.83 7.19c.48.95 1.44.95 1.92.47v.48l-2.4 1.44v-.48c.48-.48.48-.96 0-1.91l-3.83-7.67zm21.57 1.43v-.47c0-.48.48-.96 0-1.92l-5.75-8.15h-.48c-.96.48-1.44 2.4 0 3.84l-.48.48-1.92-3.36 7.19-4.79 1.92 2.88c-1.44-1.44-2.88-1.44-3.84-.96l-.48.48 5.75 8.14c.48.96 1.44.96 1.92.48v.48z"/><path d="m984.45 448.6 2.88 3.36c.47.48 1.43.48 1.91 0v.48l-3.83 3.35v-.48c.48-.47.48-.95 0-1.91l-5.75-7.2c-.48-.95-.96-.47-1.92-.47l3.83-3.36v.48c0 .48-.47.96 0 1.92l2.4 2.88 2.88-1.92-2.4-3.36c-.48-.95-1.44-.47-1.92-.47l3.84-3.36v.48c-.48.48-.48.96 0 1.92l5.75 7.19q.72.72 1.44 0l.47.48-3.83 3.35-.48-.48c.48-.48.96-.96.48-1.92l-2.87-3.35zm4.31-10.06a1.46 1.46 0 0 0-1.91 0v-.48l6.23-5.75 2.87 2.88h-.48c-1.44-1.92-3.35-.96-4.31-.48 0 .48-.48.48-.96.96 0 0 0 .47.48 1.43l2.88 2.88c.47-.48 1.91-1.44 0-3.84h.47l3.84 4.32v.48c-2.4-2.4-3.36-.96-3.84-.48l2.88 2.87c.48.96.96.96.96.96l1.44-1.44c.48-.48.95-1.91 0-4.79h.48l1.91 3.36-6.23 6.23-.48-.48c.48-.48.96-.96 0-1.92zm11.5-13.42c-.48.48-.48 1.44.48 1.92.96.96 1.92.96 3.83 0 .96-.48 2.88-.96 4.32.48 2.4 2.4 1.43 4.31.95 5.27-.47.48-1.43.96-1.91 1.44-.48 0-.48 0-.48.48v.48l-3.36-2.88h.48c1.92.96 3.84 1.44 4.8 0 .95-.96 0-1.92-.48-2.4-.96-.95-1.92-.95-3.36 0a5.7 5.7 0 0 1-4.8-.47c-1.9-1.92-1.9-3.36-.95-4.8.48-.48 1.44-.96 1.92-1.43.48 0 .48 0 0-.96l3.35 2.4h-.48c-2.4-.97-3.83-.49-4.31.47m4.32-3.83c-.96-.48-1.44 0-1.92.48h-.48l5.28-7.67 3.35 2.4-.48.47a3.4 3.4 0 0 0-4.31 0c0 .48-.48.96-.48 1.44-.48 0-.48.48.48.96.48.48 3.35 2.4 3.35 2.4.48-.48 1.44-1.44-.48-3.36v-.48l4.8 3.84c-2.88-1.44-3.36 0-3.84.48l3.36 2.4c.95.47 1.43.47 1.43.47 0-.48.48-.96.96-1.44.48-.95.96-2.4-.96-4.3l.48-.49 2.4 2.88-4.8 7.19h-.47c.48-.96.48-1.44-.48-2.4zm12.94-8.63-1.44 2.4c-1.91-1.92-2.87-3.36-2.87-3.36zh.96c.48 0 1.44.48 1.92.48 1.43.48.95.96.47 1.92h.48l2.4-4.31c-.96.95-1.44.47-2.4.47-10.06-1.91-11.02-2.4-11.02-2.4v.49l7.67 8.62c.48.48.48 1.44.48 1.92h.48l1.44-2.4-.48-.47c-.48.95-.96 1.43-1.92 0l-.96-.96 1.44-3.36zm-2.88-10.54c-.48.48-.48 1.44.96 1.92s1.92 0 3.35-.96 2.88-1.92 4.8-.96c2.87 1.44 2.4 3.83 1.91 4.8-.48.47-.96 1.43-1.44 1.9v.97l-3.83-1.92c2.4.48 4.31 0 4.8-1.44.47-.96-.49-1.91-.97-2.4-.95-.47-1.91 0-3.35.96-1.44 1.44-2.88 1.92-4.8.96-1.9-.96-2.87-2.4-1.9-3.83 0-.96.95-1.44 1.43-1.92 0-.48 0-.48-.48-.96v-.48l3.83 1.92h-.48c-2.4-.48-3.83.48-3.83 1.44"/></g><g id="f" fill="#073163"><path fill="#fff" d="M863.2 232.47c-6.23 1.44-10.54 1.92-16.3-3.35-3.82-3.84-2.87-10.55.97-12.94 4.31-2.88 8.14-4.8 13.42-3.36s19.17 14.38 15.81 14.86c-3.35 0-8.63 3.35-13.9 4.79zm14.86-23c1.92-1.44 4.31-2.4 10.54-2.88 5.75-.48 10.07-.48 11.5 3.83 1.92 5.28 3.36 11.5 7.2 14.38-2.4 1.44-14.38 2.88-18.7.48-5.75-2.87-7.19-13.9-10.54-15.81zm41.21.48c1.92-1.44 4.32-1.44 10.55-.96s8.62.96 10.06 5.27c1.44 4.8 0 11.02 2.88 15.33-2.88.96-12.46.96-15.82-2.4-5.27-3.83-4.8-14.85-7.67-17.24z"/><path d="M948.03 212.82c-4.32-.96-7.2-1.44-9.1 0 2.39 2.88.47 14.38 5.26 18.21 3.36 2.4 11.99 2.88 13.9-2.4 2.4-4.79 2.4-11.98-10.06-15.8zm-49.36-4.79c1.43-1.44 4.31-1.92 10.06-1.92 6.23 0 10.06.96 11.98 4.8 1.92 4.79 1.44 11.02 4.8 14.85-1.44 1.92-14.38 1.92-18.22-.96-5.27-3.35-5.75-14.37-8.62-16.77zm-40.74 4.31c0-2.4 3.36-2.87 11.98-3.35 8.63-.96 9.1-.48 11.98 5.75 1.44 3.35 3.36 9.1 7.2 11.02-10.55 2.4-13.9 3.83-19.66.48-4.3-2.4-9.1-8.15-10.06-10.54-.48-1.44-.48-2.88-1.44-3.36z"/></g><g fill="#f9d050" stroke-width=".65"><g id="h"><path d="M880.94 163.46c-10.07-7.67-22.05-14.86-33.07-16.3 7.19 4.32 27.31 20.13 32.59 25.4"/><path d="M886.69 156.27c-11.98-8.15-25.88-17.25-39.3-18.21 10.06 5.27 24.92 17.73 33.07 27.8m21.56-23.01c6.71-14.85 13.9-23 23.48-32.1-4.79 10.06-10.06 30.67-12.46 38.81"/><path d="M912.57 140.46c4.79-10.55 11.98-19.65 24.44-25.4-6.23 6.23-15.82 24.92-18.21 34.98"/><path d="M916.88 150.04c5.75-8.15 17.25-23.48 37.86-31.63-11.98 11.98-29.71 34.03-34.03 42.65m2.88-.48c8.62-4.79 25.88-12.46 38.34-10.06-7.67 2.88-30.68 13.42-40.74 23"/><path d="M921.67 157.23c8.15-8.63 23-21.57 38.82-26.84-11.5 11.03-35.94 35.95-39.3 39.78m-22.52-18.21c-5.75-17.73-14.38-34.5-27.32-39.78 7.19 10.54 16.3 25.88 21.09 48.88m-4.8-9.58c-9.58-11.5-22.52-23-37.38-25.4 10.07 5.75 26.84 22.52 33.07 38.82"/><path d="M892.92 151c-11.98-21.57-21.09-25.4-26.36-29.71 4.31 8.14 14.85 29.71 21.08 38.82"/><path fill="none" d="M868.95 149.56c5.75 3.36 14.38 11.5 17.26 16.78"/><path d="M868.95 159.63c2.88 2.4 8.15 5.27 12.94 9.58m44.09-2.4c4.8-3.83 15.34-10.06 20.61-11.98m-23.96 8.63c4.8-6.23 14.38-14.86 17.73-17.73m-4.31-11.98c-4.32 4.79-14.38 16.77-18.21 22.52m5.75-26.84c-3.36 4.32-10.07 16.78-11.98 21.09m-25.88-20.12c2.87 7.66 8.14 20.6 10.06 25.87m-14.38-17.73c1.92 2.88 5.75 9.58 7.2 14.38"/></g><g id="i"><path d="M897.7 136.14c0-4.31 2.88-9.1 5.76-9.1 3.35 0 5.75 5.75 5.75 9.1 0 3.84-2.88 7.2-5.75 7.2s-5.75-2.88-5.75-7.2z"/><path d="M891.48 139.98c.48-4.8 3.83-8.63 6.7-8.15s4.32 6.23 3.84 9.58c-.48 3.84-3.83 6.71-6.23 6.23-2.4 0-4.8-3.35-4.31-7.66zm12.94 1.44c-.96-4.32.96-9.11 3.83-9.59s5.75 4.31 6.23 8.15c.96 3.83-1.44 7.67-3.83 7.67-2.4.47-5.75-1.92-6.23-6.24z"/><path d="M897.23 145.25c0-4.8 2.87-9.1 5.75-9.1 3.35 0 5.75 5.27 5.75 9.1s-2.87 7.19-5.75 7.19-5.75-2.88-5.75-7.2z"/><path d="M888.6 147.65c0-4.32 3.36-9.11 6.23-9.11s5.75 5.75 5.75 9.1c0 3.84-3.35 7.2-5.75 7.2-2.87 0-6.23-2.88-6.23-7.2zm17.74-1.92c0-4.32 2.87-9.1 5.75-9.1 3.35 0 5.75 5.74 5.75 9.1 0 3.83-2.88 7.19-5.75 7.19s-5.76-2.88-5.76-7.2z"/><path d="M904.42 149.56c0-4.79 3.35-9.1 6.23-9.1s5.75 5.27 5.75 9.1-2.88 7.2-5.75 7.2-6.23-2.88-6.23-7.2z"/><path d="M896.75 153.88c0-4.8 2.88-9.11 5.75-9.11 3.36 0 5.75 5.75 5.75 9.1 0 3.84-2.87 7.2-5.75 7.2s-5.75-2.88-5.75-7.2zm-11.98 0c0-4.8 2.4-9.11 4.8-9.11s4.3 5.75 4.3 9.1c0 3.84-2.4 7.2-4.3 7.2-2.4 0-4.8-2.88-4.8-7.2zm26.83-.96c0-4.32 2.4-8.63 4.8-8.63s4.8 5.27 4.8 8.63c0 4.31-2.88 7.19-4.8 7.19-2.4 0-4.8-2.88-4.8-7.2z"/><path d="M914.48 161.06c.96-4.79 3.84-8.62 5.75-8.14s2.4 6.23 1.44 9.58c-.48 4.31-3.35 6.71-5.27 6.23s-2.88-3.83-1.92-7.67z"/><path d="M905.38 159.63c.48-4.32 3.35-8.63 5.75-8.15 2.87 0 4.31 5.75 3.83 9.1-.48 4.32-2.87 7.2-5.27 6.71-2.4 0-4.8-3.35-4.31-7.66zm-13.42 1.43c-1.44-4.79-4.32-8.14-6.23-7.66s-2.4 6.23-1.44 9.58c.96 3.83 3.83 6.23 5.75 5.75 1.44-.48 2.88-3.83 1.92-7.67z"/><path d="M888.6 160.1c0-4.3 2.4-8.62 4.8-8.62 2.87 0 4.79 5.27 4.79 8.63 0 4.3-2.4 7.18-4.8 7.18-1.91 0-4.79-2.87-4.79-7.19z"/><path d="M895.8 162.02c0-4.79 2.87-9.1 5.74-9.1 3.36 0 5.75 5.27 5.75 9.1s-2.87 7.2-5.75 7.2-5.75-2.88-5.75-7.2zm2.39-52.72c-.96 3.84-4.32 7.2-1.92 12.47-4.31-1.44-8.15-1.92-11.5 1.91 4.31-.48 8.15.96 10.06 3.84-3.83-.48-5.75 1.43-6.7 3.83 3.35-.96 6.7-1.92 8.14-1.44-1.44 1.44-3.83 3.84-4.31 5.75 2.87-2.4 6.23-1.91 8.14-3.35-1.43 3.35 1.44 6.7 3.84 10.06-.48-4.79 2.4-8.14.96-10.54 4.31.96 4.79 4.8 11.02 4.8-2.4-1.45-3.83-6.24-6.71-6.24 1.44-.48 7.19-.96 8.15 0-.96-1.91-4.32-3.83-6.23-3.83 1.91-1.92 5.27-5.75 7.67-6.71-3.36.48-8.63.96-10.55 3.83 4.8-3.83 3.84-11.02 9.1-11.98-2.87-.48-7.18 1.44-10.54 4.8 1.44-2.88 1.44-6.71 3.36-7.67-3.84.96-8.15 5.75-9.59 8.14 0-2.4-1.43-6.23-2.4-7.66z"/><path d="M900.58 116.97c0 1.44 0 4.32-.48 5.28m6.71-5.75c-.95.95-2.87 4.3-2.87 7.18"/><path fill="none" d="M909.69 122.25c-1.44.95-2.88 2.4-3.36 4.3"/></g></g><g id="g" fill="#059334"><path d="M858.89 169.69c-3.35 0-6.23-1.44-8.15-3.83-3.35-4.32-12.46-6.23-16.3-2.4-1.43.96-3.35.96-4.78 1.44-2.4 0-5.27 2.4-4.32 7.19 1.92-1.44 2.4 0 3.84 0 .96-.48.48.48.48 1.43 0 2.4 5.27 7.2 10.06 6.71 5.27 0 7.67 1.92 8.63 2.88 1.43 1.44.48.96 1.43 3.35 1.44 1.44 1.92 1.92-.47 3.84-3.36 2.87-5.76 9.58 0 14.85 6.23 4.8 22.04 11.98 39.77-1.91 17.25-13.42 44.1-5.75 46-.96 2.4 4.79 3.36 7.67 3.84 10.06.48 1.92 2.88 3.84 6.23 3.36a17 17 0 0 1 9.1 2.87c2.4 1.44 5.76.96 4.8-3.35-1.92-13.42-10.06-15.34-11.02-21.57 4.79.48 8.14.48 10.06-1.44 1.44-1.91 3.36-5.27 5.27-6.23 1.44-.95 1.44-1.91-.48-1.43-2.4.48-3.83 1.43-8.14.95-22.05-2.4-83.87-19.16-95.85-15.81z"/><path fill="#000" d="M956.65 185.98c-2.4 1.44-4.79 3.84-9.1 9.59-4.8 6.23-19.17 12.46-36.9 12.46-17.26 0-27.8-2.88-35.47-9.1a61 61 0 0 0-10.54-6.72c-5.27-2.4-6.23-7.66-4.8-11.98-1.43 2.4-2.39 4.8-5.26 4.32-1.92 0-5.75 0-4.8 1.91-.47-.96-.47-2.4-.95-2.87l-.96-.96c1.44.96 4.79-1.92 7.19-1.92 1.91.48 4.3-1.91 3.83-4.79-.48-2.4-.96-4.31-1.44-6.23 3.84-1.92 54.16 7.19 64.22 8.15 10.06.48 38.82 4.79 34.98 8.14z"/><path d="M865.6 167.77c4.8-4.79 10.54-7.19 16.3-5.75h1.43c2.88-2.4 9.59-2.87 13.42-.96h1.92c5.75-1.91 16.77 0 20.6 3.84l1.44.96c12.94-.96 20.6 4.79 29.71 13.9.96.95 2.4 2.87 4.8 3.35 2.87.48 3.35 1.92.96 3.35-2.88 1.44-5.28 3.84-10.07 9.1-4.31 5.76-18.2 11.51-35.46 11.51-16.78 0-26.84-2.88-34.5-8.63-4.32-3.35-7.67-5.27-10.07-6.7-2.88-.96-6.71-4.8-5.27-8.63.96-3.84-1.44-8.63-3.36-13.42 1.44-.96 5.27-2.4 7.2-1.44z"/><g fill="#00493d"><path d="M950.42 179.75c-9.1-9.1-16.77-14.85-29.7-13.9 0 .49 0 1.92-.49 2.88 7.67 2.88 18.7 11.5 23.48 17.73 1.92-1.91 5.28-4.31 6.71-6.7zm-31.15-14.85c-3.83-3.84-14.85-5.75-20.6-3.84 0 1.92 0 4.8-.96 6.71 3.35 1.44 6.23 4.8 9.1 8.15 1.92-.48 6.71-1.92 9.1-2.4.97-1.91 2.88-6.23 3.36-8.62zm-22.52-3.84c-3.83-1.91-10.54-1.43-13.42.96-.96 1.92-1.44 5.75-1.44 7.67 1.92 0 4.8 1.44 5.75 2.4 2.88-.96 6.71-2.88 8.15-4.32.48-1.91 1.44-4.79.96-6.7zm-31.15 6.71c4.8-4.79 10.54-7.19 16.3-5.75-.96 1.44-1.44 4.32-1.44 7.2-5.28-.49-11.98.95-14.86 2.87z"/><path d="M941.8 187.42c-4.32-6.23-14.86-13.42-22.05-16.77 0 .48-.96 2.4-1.43 3.83 2.87 4.32 8.62 13.9 11.02 19.17 2.4-.96 9.1-3.83 12.46-6.23zm-36.42 10.55a179 179 0 0 0 1.43-19.65c2.4-.48 7.2-1.92 9.1-2.4 2.4 3.83 8.16 13.9 10.55 18.69-5.75 1.44-15.33 3.83-21.08 3.36zm-16.78-23.01c2.4-.96 5.75-2.87 8.15-4.8 1.92 1.45 5.75 4.8 7.19 6.72 0 4.31-1.44 16.77-1.92 21.08-3.83 0-10.06-.95-13.42-2.87.48-7.19.96-15.34 0-20.13zm-23.96 5.75c.48-.96.96-4.31.96-5.75 3.83-2.4 13.42-4.8 20.6-.96.49 4.8 0 16.78-.47 19.65-6.23-4.8-16.3-11.5-21.09-12.94z"/></g><g fill="none"><path fill="#000" stroke="none" d="M840.68 172.09c-.96 0-1.44-2.88-3.36-2.88-.47 0-1.91.48-2.4 0 0 .96.49 1.92.97 2.4.48 1.43 2.87.48 4.79.48"/><path d="M840.68 180.23c5.75 0 6.7-7.19 9.58-7.66m-6.23 8.14c4.32 1.92 7.67-8.15 11.03-7.67m-19.66-4.79c1.45 0 2.4-1.91 4.8.48.96.96 2.4 1.44 3.36 1.44m-.96 5.27c-1.92 2.88-5.28 4.8-7.2 3.83m-.95-15.81c-1.44.96-2.4 2.88-3.36 4.31m-1.43 2.88v2.4"/></g></g><g stroke="none"><path id="b" fill="#fff" d="M989.72 232.95v93.45c0 81-38.34 108.79-89.62 130.83C848.84 435.2 810 407.4 810 326.4v-93.45z"/><path fill="#cf142b" d="M900.1 312.02c4.32 0 11.03-3.83 16.78-9.58 6.23-6.71 16.77-9.1 27.8 0 11.02 9.1 17.73 5.27 23.48 0s10.54-7.19 21.56-7.19v-62.3H810.01v62.3c11.02 0 15.81 1.92 21.56 7.19 5.76 5.27 12.46 9.1 23.49 0 11.5-9.1 21.56-6.71 28.27 0 5.27 5.75 11.98 9.58 16.78 9.58"/><path fill="#0b50a0" d="M900.1 359.95c5.76 0 17.26-6.23 20.13-7.67 10.55-6.23 18.21-.48 24.44 2.4 6.71 2.87 19.17 6.22 26.84 0 7.67-6.24 11.98-5.76 17.25-5.76.96-7.18.96-14.37.96-22.52v-5.75c-6.7-1.44-10.06.48-17.25 6.7-7.19 6.24-15.34 4.8-25.88.97-10.06-4.32-20.13-11.98-30.2 0-2.87 3.35-9.58 8.14-16.28 8.14-7.2 0-13.42-4.79-16.3-8.14-10.54-11.98-20.13-4.32-30.2 0-10.53 3.83-19.16 5.27-26.35-.96-6.7-6.23-10.06-8.15-17.25-6.71v5.75c0 8.15.48 15.33 1.44 22.52 5.27 0 9.1-.48 16.77 5.75s20.6 2.88 26.84 0c6.7-2.87 14.37-8.62 24.92-2.4 2.87 1.45 13.9 7.68 20.13 7.68m-.01 20.6c7.2 0 15.82-2.87 23.49-7.19 9.58-5.27 16.3-2.87 25.88 1.92 10.06 4.8 18.2 3.36 23.96 0 2.87-1.92 5.27-5.75 11.5-4.31-2.88 11.98-7.19 22.52-12.46 31.15-9.59 2.4-14.86 2.4-24.92-1.92-10.06-4.8-22.52-7.67-29.23-3.35-6.23 3.83-12.94 5.75-18.22 5.75s-11.98-1.92-18.2-5.75c-6.72-4.32-19.18-1.44-29.24 3.35-10.06 4.31-15.33 4.31-24.92 1.92-5.27-8.63-9.58-19.17-12.46-31.15 6.23-1.44 8.63 2.4 11.5 4.31 5.27 3.36 13.9 4.8 23.48 0 10.07-4.8 16.78-7.19 26.36-1.92 7.67 4.32 16.3 7.2 23.48 7.2m0 76.67c19.17-8.15 36.9-17.25 51.28-29.71-3.83-1.44-6.23-.48-9.58-2.88-3.36-2.4-13.42-3.35-22.05 1.44-9.1 4.31-12.94 5.27-19.64 5.27s-10.55-.96-19.65-5.27c-8.63-4.8-18.7-3.83-22.05-1.44s-5.75 1.44-9.58 2.88c14.37 12.46 31.63 21.56 51.28 29.71"/><g stroke="#000"><path fill="#f9d050" d="M887.64 256.43c.48.96-.48 3.36 0 4.32.96 1.91.96 2.87 2.4 3.83h3.35c10.55 0 23-4.31 33.55-4.31 10.07 0 16.3 3.35 22.05 3.35 3.35 0 6.23-2.4 6.23-4.8s-3.84-3.83-11.98-3.83c-11.5 0-17.74 2.88-27.32 2.88-14.38 0-16.77-5.27-16.77-7.67s2.4-5.75 10.06-5.75c2.4 0 4.31-.48 5.27-1.44.48-.96 1.92-2.87 4.8-4.31 3.35-1.92 10.06 0 13.41-2.4 0 1.92-2.87 4.8-5.27 5.75 4.8-1.43 10.06-1.43 11.02 2.4-2.4-1.44-6.23-.48-7.66 0-1.92.48-2.88.96-4.8 1.44 1.92-.48 2.88 3.35 5.75 3.35-2.87 2.4-7.66 2.4-12.46.48-1.43-.48-5.27-1.91-7.66-1.91-4.8 0-7.67.95-7.67 2.87 0 2.4 2.87 3.84 11.5 3.84s13.42-2.4 26.36-2.4c-.96-1.44.48-2.88-1.44-4.31 4.8 0 10.06 1.43 11.98 4.79-.48-3.36 2.4-6.23 1.44-9.1 2.87.47 5.27 3.35 5.75 5.74 0-1.43 1.92-1.43 1.92-2.87a7.4 7.4 0 0 1 3.83 7.67c1.44-2.4 2.88-1.44 3.83-4.32.96 1.92.48 7.67-2.87 9.59a7.57 7.57 0 0 1 10.06 1.44c-2.87-.48-4.31.95-5.75 1.43-5.75 3.36-15.33 5.27-22.52 4.8-7.67-.48-8.63-1.92-13.42-1.92 2.87.48 8.63 6.23 13.9 6.23 3.35 0 5.75 0 7.19-.48 1.43-.48 3.83 0 5.75.96 1.43 1.44 4.3 2.87 6.23 2.4-.48 1.91-1.44 2.87-2.88 3.35 2.4 1.44.96 2.4 3.36 4.31-.96 0-1.92.96-3.36.48 1.44 1.44 1.44 3.36 2.88 4.31-.48 0-1.92.48-2.88 0 1.44 1.92 0 4.32 1.44 5.28 1.44 1.91-1.44 4.3-3.84 2.4.48 1.43-.95 2.87-2.4 2.39-1.43-.48-2.39-1.92-1.9-2.4 0-.48 0-.48.47-.96-.96 1.44-2.87 1.44-3.83.96-.48-.48-.96-.96-.96-1.44-3.36.96-4.8-1.91-4.31-3.35.47-1.44 3.35-1.92 4.3-1.44.97.48 1.93.96 2.88 0a2.6 2.6 0 0 0 1.44-2.4c0-1.43-1.44-5.75-7.67-5.27-7.18.48-18.69-1.43-24.44-3.35-.48-.48-.96-.48-1.43-.96 0 1.92-1.92 2.88-1.92 4.8 0 2.39.96 4.3 3.83 5.26-1.44 2.4-3.83 1.92-4.79.48 0 1.44-1.92 2.4-1.92 4.32-.48-.96-.96-1.44-1.43-2.4-1.44 3.36-5.28 5.27-7.2 4.31-2.39 1.92-5.27 1.44-6.22-.48-1.44.96-3.36.96-4.32 0 0 1.44-.96.96-1.43 2.88 0 .96-1.92 1.44-2.88.96s-1.44-2.4-.48-3.36c-1.44.96-2.87.96-3.83 0 0-.95 0-2.4.96-2.87h.95c-.95-.48-2.4 0-3.35-.48-.96-.96-.96-1.92-.48-2.88.48-.48 1.92-1.43 2.88-.48l.47.48c0-.95.48-1.91.96-1.91.96-.48 2.4-.48 3.84.96.96 1.43 1.91 1.43 4.79.95 2.4 0 6.23-2.4 9.1-4.79-8.14-1.44-3.35-6.7-.95-8.62-1.92-.48-4.8-.48-6.71.47-10.07 5.28-20.61 11.5-27.32 9.59 0 .96.48 1.92.96 2.87-1.44 0-4.31 0-5.27-1.43-.48.96-1.44 3.35-.48 5.27-.96-.96-3.84-1.92-5.27-2.4.96.96 0 2.88.48 4.32-1.44-1.44-3.84-2.4-4.8-1.44s-2.87 1.44-4.3.96a7.5 7.5 0 0 1-3.84 2.87c0-.96 0-2.4-.48-2.87a8.2 8.2 0 0 1-3.84 4.3c0-.95 0-2.39-.48-3.35 0 1.92-3.83 2.88-4.3 4.32.47-1.44.47-2.88.47-3.84a7.4 7.4 0 0 1-4.8 3.36c.49-.96.97-1.92.49-2.88-.48 1.92-3.36 2.88-5.75 2.4 0 .96-1.92 2.4-4.32.96-1.43-.48-2.4-1.92-1.43-2.88-1.92 0-3.84-1.91-2.88-3.35 0-.48.48-.96.48-1.44-1.44-.96-1.92-2.88-.48-4.31.48-.48 1.92-.48 2.88-.48 0-3.84 3.35-3.84 4.79-.96.96 1.44 3.83 3.83 6.23 3.35.96 0 1.44-.48 2.4-.48 2.87-.95 8.62-3.35 11.98-6.23.47-1.43.47-2.4.47-3.35-1.91.96-3.83 1.92-4.79 3.35v-1.43c-1.44 0-3.83-.48-4.79-.48.48-.48.96-2.88 1.92-3.36-2.4.48-4.8 0-6.71-.48.96-.95.96-2.4 1.44-3.83-.96.48-3.36-.48-5.28 0 .48-1.44.96-3.35 2.4-3.83-1.92.48-4.31 0-6.71-.96 1.92 0 2.88-2.4 4.31-2.4-3.83 0-4.79-1.92-6.7-2.87 1.43.48 2.39-.96 3.83-.96-1.44-.48-3.84-2.88-2.88-4.32-.48.48-.96 1.44-1.91 1.92-.96.48-2.88 0-4.32-1.44-.96-1.91-.48-4.31 1.44-4.79a2.3 2.3 0 0 1-1.44-3.83c.48-.96 2.4-2.4 3.36-.96.48.48.96 1.44 1.44 1.92-.48-.96-.48-2.88-.48-4.32.48-1.44 1.43-1.44 2.87-1.91 1.44 0 2.4 1.43 2.4 2.87s.48 2.4.96 4.31c0-.47.48-1.43.48-1.91 0-1.92 2.4-1.44 3.83-.96s1.92 3.35 0 4.8c-.96.95-.48 2.39.48 3.35 3.35 5.27 9.1 9.58 13.9 10.06a7.7 7.7 0 0 1 2.4-5.27c0-.96.47-2.4.95-3.36.48-2.87 1.92-4.31 3.83-3.35-.47-.48-.95-.96-.95-1.44-1.44-1.44-2.88-3.83-1.92-5.75s3.83-1.44 4.8-.48c-.49-2.87 2.87-5.27 2.87-6.7.48 1.43 1.43 3.35.96 4.78.47-1.91 3.83-4.3 6.23-5.27-.96 1.44 1.91 3.84 1.43 5.27.96-2.4 4.8-3.83 7.67-3.83-.96.96-.96 2.88-.96 3.83 1.44 0 3.84-.48 4.8-1.91 0 1.91-.96 3.83-1.92 4.79.48-.48 2.4-.48 3.83-.48-1.44 1.44-.96 2.88-2.4 3.83 1.92-.95 4.32-.95 4.8.96.96 1.44-.48 3.84-1.44 5.27-.96.48-1.92 1.44-2.4 1.44z"/><g fill="none"><path d="M857.93 262.18c-3.35 1.44-4.31 4.8-4.79 6.71"/><path d="M857.45 265.54c-4.79 2.87-6.7 5.27-5.75 10.54m8.15 3.83c2.87-.95 4.8-1.91 7.19-6.23"/><path d="M865.6 275.6c-.96 1.92 0 5.27-1.44 6.71 2.4-1.44 4.32-3.35 4.8-6.7"/><path d="M866.56 280.87c1.91-.96 4.79-3.83 6.23-7.19-.48 1.44 0 3.84-.96 5.28 2.4-2.4 3.35-3.84 3.83-6.23 0 .47.48 1.43.48 1.91.96-.96 1.92-1.91 1.92-3.83m0 1.44v2.4c1.92-1.45 2.4-3.36 2.4-5.76"/><path d="M879.98 271.77c2.87-1.92 3.35-4.8 3.35-9.1m0 4.78c1.92-1.43 2.4-2.4 2.4-6.7m-6.23-12.95c-.96 0-1.92.48-1.92 1.92 0 .96-1.44 2.4-1.44 3.84-.48 1.91-1.44 2.4-2.87 1.91-1.44-.96-1.44-.96-1.44-2.4 0-1.91 2.4-2.39 2.4-4.3.47-.96.95-2.4 1.43-2.4-2.4 1.44-5.75.48-6.23-2.4"/><path d="M883.81 249.24c-.96.48-1.92-.96-3.35-.48-.48 0-1.92.48-2.4 0"/><path d="M877.1 251.64c.48.48 2.88 1.44 5.27.48-1.91.48-3.35-1.92-1.44-3.36m-8.14-1.91c-1.92 0-3.36 1.43-2.88 2.87s2.4 1.44 3.84.48m-4.32 20.6c.48-.47.96-1.43.96-1.9.96 0 1.92-.49 2.4-.97a4.2 4.2 0 0 0 3.83-2.87c.96 0 1.44-2.4 1.92-3.36.48.48 1.44 0 1.92-1.91.95.48 2.4 0 2.87-1.44M863.68 255c0 .47-.96 1.43-1.91 1.91.48.96 0 3.36-.96 3.83.48.96 0 2.4-.48 3.36 0 .48.48 1.92.48 2.4m4.79-21.1c-.96 2.4-.48 5.28 1.44 5.76"/><path d="M866.56 253.08c-.48 2.4-.48 5.75-.96 7.19-.48.95-1.44 4.3 2.4 5.27 4.3.96 6.7.48 9.1-6.71m7.19 18.69c0 .48-.48 1.44-1.44 1.44m4.79-2.4c0 .96-.95 2.4-1.43 2.87m4.79-3.83c0 .96 0 2.4-.96 2.88m-28.27-32.59c.48 0 .95.96 1.43 1.91-1.43-.95-2.87 1.44-1.91 2.88m-.96 3.36c-.48.47-1.44.95-1.92 1.43m.48 2.88c-.48 0-.96.48-1.44.48m-21.56-9.11c0-.48 0-.48.48-.96m-4.8-.48c-.48 0-.48 0-.95-.48m1.43 7.2h.96m-2.87-2.88a5.3 5.3 0 0 0-2.88-1.44m29.24 19.17c-3.36 2.88-4.8 5.27-5.28 8.63m8.63-6.23a11.3 11.3 0 0 1-3.83 4.3m-14.86 10.07c-3.83.96-6.71.48-9.59-1.43-.47-.48-.95-.48-1.43-.96m25.4-4.32c-.48 1.92-.96 4.32-1.92 4.8 3.83-1.92 7.19-4.8 7.67-9.1m-33.55 13.41c1.44-.48 2.88.48 3.83-.48m79.56-15.34c.96.48 2.4.96 2.87 1.44.48-.96 2.4-2.4 3.84-2.87m-40.74 11.5c-.48-1.92.48-4.31 3.36-5.27m-22.05 13.42c.48-.96.48-2.4.96-3.36m-22.04 4.79c-.48.96-1.44 1.92-1.44 2.88m-5.75-1.92s0-.48.48-.48c.95-.48 2.4-1.43 2.87-2.4m61.82-3.83c-.96.48-1.44 0-1.91-.48m1.43 2.88s-.48.48-.96.48m3.36 1.92c-.48.47-.96.95-1.44.95m15.34 0c.96-.48 1.43-1.43 1.91-3.35m-8.14 2.87c1.43-.48 2.4-1.43 3.83-2.87m9.59-.96c0-.96 0-1.92.47-2.88m34.99 7.19c-.96-.96-.96-2.4.48-3.35.96-.48 1.44-.96 2.4-1.44"/><path d="M924.55 276.08c-7.67-3.35-7.2-7.67-13.42-7.19m47.44 22.05c.48.48 0 1.91 0 2.4m4.31-2.4c-.48 1.43-.48 1.91-.48 3.35m-36.42-48.4h-3.83m-36.42 16.29c0 .96 1.43 2.88 5.27 2.88-.48 0-.96-.48-.96-.48m-2.4-8.15c-.48.48-.95 0-.95 0-.96-.96.47-2.87 1.91-3.83-1.44.48-2.4.48-3.35.48-.96 2.87-3.84 4.31-5.75 2.4-.48 1.91-2.88 4.3-4.8 3.83-1.91-.96-2.4-2.4-1.91-3.84-2.4 2.88-5.27.96-6.23 0-.48-.95 0-3.35.96-6.23"/></g><path stroke="none" d="M918.32 274.64c-1.44.96-2.88 0-4.32 1.44-.96.96.48 1.44 1.44 1.44-.48 1.44-.48 1.91 1.92 1.91-.96 1.44 1.91 1.92 1.43 3.84a4.6 4.6 0 0 0 .96-4.8c-.48-1.43-2.87-2.39-1.43-3.83"/><path fill="#073163" stroke="none" d="M874.7 259.3c-1.91-.95-2.4-2.39-1.91-3.83a2.6 2.6 0 0 1-2.4 1.44c-1.92 4.31-4.31 8.15-7.19 8.15-3.35.48-2.87 3.83-.48 3.83 5.28.96 7.67-.96 11.99-9.58m-47.45-11.51c1.44-1.43.48-2.87-.48-3.35a5.3 5.3 0 0 0-5.75 2.4c1.44-.48 2.88-.48 3.36.48.47.95 1.43 1.91 2.87.47m2.4-8.62c3.35 0 4.31.48 4.79 1.92.48.95-.48 2.4-1.44 2.4-1.44 0-2.87-.97-2.4-1.45.48-.95.48-2.4-.95-2.87m9.58 7.67c2.4.48 3.36-.96 1.92-2.88-.48-1.44-1.92-2.4-4.31-1.92 2.4 1.44 0 3.84 2.4 4.8M821.51 255c1.44 2.39 3.83 2.39 4.8 1.91 1.43-.48 1.9-1.92 1.43-2.87-.96-1.44-2.4-1.92-2.88 0-.95 1.91-2.4 1.43-3.35.95m7.19 29.24c-.96-1.92-3.84-1.92-6.23 0 .96-.48 2.87 0 3.35.96.48.95 1.44.95 1.92.95.48-.48 1.44-.95.96-1.91m3.83-2.88c0-2.4-3.35-2.87-5.27-1.91.96 0 2.4.95 2.4 1.91.48.96 1.43 1.44 1.91 1.44.96-.48 1.44-.96.96-1.44m-4.79 8.63c-2.88-.48-4.31 2.87-4.31 5.27.48-1.44 1.91-2.4 3.35-1.92 1.44 0 1.92-.48 1.92-1.44.48-.95 0-1.43-.96-1.91m.48 8.15c.96.47 1.92-.48 2.4-1.92 0-.96 1.91-.96 2.4-.48.95.48.95 2.4-.49 3.35-.96.48-3.35.96-4.31-.95m66.61-14.38c-.96-.48-3.35-1.44-5.27 0 1.44-.48 2.4.48 2.88 1.44 0 .95 1.43 1.43 1.91.47.48-.47.96-1.43.48-1.91m-4.31 3.35c-1.92-.96-4.31 1.44-4.8 3.36a7 7 0 0 1 3.36-1.44c.96.48 1.92 0 1.92-.96.48-.48.48-.96-.48-.96m2.4 3.84c-1.44 0-3.36 1.91-3.36 3.83.48-.96 1.44-1.44 2.4-.96.96 0 2.4-.48 2.4-1.44s-.49-1.43-1.44-1.43m4.31 3.83c-.96-.48-2.4 0-2.4 1.44s0 2.87-.48 3.35a10 10 0 0 1 2.88-1.91c.48-.48.96-1.92 0-2.88m54.15-4.31c-.96-.96-2.4-.48-2.87.48a6.6 6.6 0 0 0 0 5.27c0-.96.96-2.4 1.91-2.4 1.44-.48 1.92-2.4.96-3.35m2.88 1.91c-1.92.96-1.92 4.32-.48 6.23 0-.95.48-2.4 1.44-2.87 1.43 0 1.91-1.92 1.43-2.88-.95-.96-1.91-.48-2.4-.48m5.75 1.93c-.95-.49-1.9.47-1.9 1.43-.49 1.44.47 3.35 1.9 4.31 0-.96.49-1.92.97-2.4 1.44-.95.96-2.87-.96-3.35m4.31-.48c-.96 0-1.91 1.44-.96 2.88.48.96 1.44 1.44 3.36.96-.48 0-1.44-1.44-.96-1.92.48-.96 0-1.92-1.44-1.92"/></g><g id="j"><path fill="#f9d050" d="m831.1 383.43 23.96-73.8 23.96 73.8-62.78-45.53h77.63z"/><path fill="#024919" d="m835.89 376.72 49.84-36.42h-61.34l49.36 36.42-18.7-58.47z"/></g><use xlink:href="#j" x="90.1"/><use xlink:href="#j" x="45.05" y="52.24"/><path fill="none" stroke="#000" d="M989.72 232.95v93.45c0 81-38.34 108.79-89.62 130.83C848.84 435.2 810 407.4 810 326.4v-93.45z"/></g></g></svg>