<svg xmlns="http://www.w3.org/2000/svg" viewBox="0 0 450 300"><path fill="#009543" d="M0 0h450v300H0z"/><path fill="#fff" d="M0 0h450v210H0z"/><path fill="#00209f" d="M0 0h450v90H0z"/><g fill="#fff"><path fill="#000" stroke="#000" d="M224.76 95.57c-1.71.04-3.38 1.93-3.38 1.93l.15 20.23-6.39 6.7h5.17l-.04 11.6-30.6 41.2-4.51-1.57-7.9 16.86s19.54 12.24 47.92 11.9c31.14-.36 48.06-12.47 48.06-12.47l-8.17-16.64-4 1.74-30.98-40.98-.04-11.95h5.17l-7.04-6.6.04-20.17s-1.75-1.82-3.46-1.78z"/><path fill="none" stroke="#000" stroke-width="5" d="M235.43 144.01h-21.15s-7.68-16.18-6.44-27.48c1.27-11.52 7.85-16.97 16.6-17.06 10.35-.12 15.77 5.07 17.4 16.6 1.63 11.42-6.41 27.94-6.41 27.94z"/><path d="M187.79 182.57c-.35.46-2.88 5.53-2.88 5.53l4.38-.92zm2.53 6.57-4.61 1.5 5.53 2.19zm2.08-6.46 2.3 6.8 5.65-1.61-1.5-3.23zm3.57 9.23.8 2.77 7.5 1.84-3-6.34zm8.3-5.77 2.65 6.34 5.65-2.2-1.85-2.76zm3.69 8.65.92 2.42 8.76 1.27-3.69-5.76zm8.41-6.8 3.23 5.65 8.18-3-.92-2.19zm4.73 7.72 1.73 3 10.14-.35-3.8-5.65zm10.72-7.49 2.77 4.73 6.45-3.12-1.73-2.53zm10.6 3.57-6.45 3.23 1.72 2.76 8.65-1.38zm2.08-4.96 3.34 4.15 5.42-4.27-1.84-1.95zm9.91 2.19-5.19 3.92 1.39 2.42 7.14-1.84zm7.15-8.18 1.27 1.84-3.58 5.3-3.68-4.72zm2.42 4.61 2.19 4.38-4.38 1.5-.35-2.08z"/></g></svg>