<svg xmlns="http://www.w3.org/2000/svg" viewBox="0 0 1000 500"><path fill="#0071bc" d="M0 0h1000v500H0z"/><g fill="none" stroke="#000" stroke-width="1.93"><path fill="#fff" d="M557.82 395.54s17.63-18.65 34.58-15.09c5.09-19.66 24.25-21.19 24.25-21.19s-1.87-21.7 22.71-26.44c.68-14.75 15.6-26.96 15.6-26.96s-3.05-22.89 12.55-28.14c-9.5-18.14 3.22-31.37 3.05-31.7-.17-.35-16.1-28.66-1.87-36.8-15.08-12.71-10.17-27.12-10.17-27.12s-16.44-4.24-10.5-23.9c-13.57-2.38-16.28-24.25-16.28-24.25s-20.86 4.24-23.4-13.9c-13.73 2.2-15.26-11.36-15.43-11.36s-27.3 7.29-32.72-13.23c-10.51 5.43-15.09-4.24-15.09-4.24s-15.09 7.46-24.07-6.95c-17.97 11.2-27.98-.5-27.98-.5s-23.56 15.6-31.36 3.56c-13.9 14.07-26.28 7.96-26.28 7.96s-10.51 18.65-27.46 13.9c-3.9 17.3-23.4 17.64-23.4 17.64s2.03 15.26-21.36 19.32c-3.05 17.98-15.26 21.03-15.26 21.03s1.19 17.46-9.83 23.05c3.9 9.84-6.28 21.87-6.28 21.87s10.85 13.57-3.9 28.83c14.25 3.73 3.9 28.3 3.9 28.3s19.67 8.82 7.3 25.1c14.07 4.58 9.66 15.77 9.83 22.38 8.98 4.07 16.95 2.03 13.05 20.17 27.64 3.06 14.58 18.31 14.58 18.31s12.89.51 7.8 10.68c23.57-.5 26.96 17.64 26.96 17.64s21.87-5.77 24.75 2.7c2.88 8.49-9.5 65.62-9.5 65.62s-18.47 0-32.2-14.75c-32.22-.85-25.1-22.04-25.6-22.04-.52 0-10.69 3.9-15.94-13.73-21.53 4.4-20.86-13.73-21.03-13.9s-9.66-4.41-6.1-13.4c-22.2 2.04-20.51-19.66-20.51-19.66-4.86-1.98-6.67-6.5-5.94-11.02-2.88-1.02-22.55-1.36-12.37-27.3-18.82-11.36-7.12-24.41-7.12-24.41s-25.94-13.4-5.94-28.82c-14.92-22.04 1.19-33.06 1.19-33.06s-20.68-21.03.34-35.95c-3.4-31.87 15.6-39.5 15.6-39.5s-10-25.94 17.12-36.79c1.7-26.28 20.68-26.95 20.68-26.95s.51-20.86 30.35-18.82c5.76-18.65 26.1-14.92 26.1-14.92s6.28-22.55 33.92-11.7c14.07-27.46 34.92-13.4 34.92-13.4s13.22-8.64 19.84-5.93c8.4-14.43 26.27-.56 37.82 2.24 4.2-1.63 19.14-12.92 30.67 1.32 15.26-10 28.31 7.97 28.31 7.97s21.02-10.68 30.86 13.73c44.59-4.06 38.14 25.1 38.14 25.1s35.1-7.97 27.47 26.95c31.87 2.2 28.65 23.23 28.65 23.23s20.18 15.26 11.36 28.99c17.97.85 11.36 18.14 11.36 18.14s13.73 5.26 2.37 26.62c26.28 21.02 5.09 41.87 4.92 41.7s14.07 16.96 1.19 36.62c3.9 31.2-11.87 39.17-11.87 39.17s4.07 20.17-13.57 25.94c-.33 23.73-22.71 26.61-22.71 26.61s5.93 10.31-16.28 21.16c-.87 15.89-24.07 17.16-24.07 17.16s-2.2 29.16-31.7 21.36c-7.17 23.4-41.71 16.45-42.4 16.1-.67-.33-6.6-50.18-6.6-50.35z"/><path d="M599.01 420.07s-2.62 5.03 7.85 9.46m13.08-21.34s11.67-2.82 19.52 0m15.3-29.38c0 .2-1.61 5.23 7.65 12.48m-1.01-25.56s6.84 5.03 18.32 4.83m-87.35 9.86s.4 13.28-6.44 19.52m29.38-40.05s11.27 2.82 20.53-1.81m51.72-17.71s2.42 3.42 14.9 2.82m-63.6-10.67c.4.2 14.7 4.83 23.75.6m4.82-55.35s.6-.8 5.03 14.7m6.04-58.37s-.6 8.25-7.25 11.87m49.72-45.68s-9.66 7.85-7.85 11.07m-40.25-16.71s5.03 8.45-3.22 14.29m-21.13-50.51s8.65-.4 12.48 7.04m5.63-61.78c0 .2 1.81 1.81-1.61 5.23m-60.18-4.43s4.63 7.25 3.82 16.1m22.95-40.65c2.01-.2 8.86-3.22 8.86-3.22m-38.65-25.56c-.2 0-2.62 9.05 1.81 12.27m-12.88 28.99c0 9.66 7.65 7.24 2.42 16.5m-21.13-24.55c-.2 0-12.07 9.25-12.07 10.86m-18.93-15.9s5.03 5.03 3.82 11.88M499.58 73.3c-.2.4-4.23 9.05-7.04 10.66M462.96 73.5c.2 0 4.03 8.05-1 13.88m-64.21 19.53c.2.4 10.26 2.01 10.26 2.01m-35.42 21.33c.2-.2 12.28-3.82 12.28-3.82m-31.8 18.92c.4 0 8.45 1.4 10.47.4m-16.11 7.04s2.62 1.4.4 14.9m-39.64-50.32 4.83 7.25m-21.34 29.98c0-.2 4.83 7.25 11.27 8.65m26.77 29.19c.2 0 7.85-1.61 9.06-2.42m-12.48 29.79c.2 0-.2-5.03 6.04-8.45m-14.29 20.93c0 .2 5.84 7.45 9.86 8.45m-13.28 5.44c.6-.2 6.84-5.64 14.09-5.23m-16.11 23.94s.2 6.24 18.72 4.63m-16.9 17.31c0-.2 5.43-12.48 16.5-17.1m-1.61 32.8s1.61-5.23 10.87-8.86m-.61 29.59s6.64-5.43 9.06-6.24m-.8 22.34s4.03 4.23 14.09-3.02m-62.6 6.44c1.2-.2 15.9-3.62 20.93 4.03m-15.09 8.05s15.5-2.01 17.51-.4m37.83 3.62s-2.01 4.23 17.1-2.82m6.65 10.47c-3.42 5.84.8 10.47-3.62 13.08m-54.54-5.03c.6-.4 7.04-2.62 6.04-11.87m-.2 25.75c.8-.2 11.47-4.83 13.69-2.42m7.24 15.91s1.4-9.46 4.43-10.46m11.67 24.75s8.86-.2 12.68-3.02m4.42-28.98c.2.2 8.25 4.43 25.36.2m-18.92 38.24s2.42 12.28 2.21 15.1m237.49-303.11h6.64M526.35 75.3s-2.62 7.66-6.04 9.67M454.5 31.84c.2.2.8 6.23-3.02 11.47m-33.2 2.21c0 .2 1.61 6.85-9.06 9.06"/></g><g fill="#f7df73" fill-rule="evenodd" stroke="#000" stroke-linejoin="round"><path stroke-width="2.42" d="M561.72 423.68s100.53-28.4 130.89-151.78c-17.63 126.65-127.63 166.79-127.63 166.79z"/><path stroke-width="2.43" d="M429.95 421.01s-99.61-28.9-129.69-154.51c17.46 128.92 126.46 169.79 126.46 169.79z"/></g><g fill="#8c1800"><path d="M572.03 431.37c3.1 0 10.8-8.5 15.21-9.49 4.42-.98 4.9-5.4-.16-5.56s-9.49 5.73-9.49 5.73-4.42 3.76-9 4.25-1.63 6.21 3.44 5.07m21.42-15.7s-3.1-1.14 4.9-4.25c8.02-3.11 7.53-6.7 10.15-8.18 2.61-1.47 8.17-5.4 9.32-3.1 1.14 2.28-5.89 6.86-7.52 7.35-1.64.5-9.65 7.85-11.94 8.5-2.3.66-3.93.33-4.91-.32m-173.71 13.17c-3.08 0-10.7-8.66-15.07-9.66s-4.86-5.5.16-5.66 9.4 5.83 9.4 5.83 4.38 3.83 8.91 4.33 1.62 6.33-3.4 5.16m-21.23-15.98s3.08-1.17-4.86-4.33-7.46-6.82-10.05-8.32-8.1-5.5-9.24-3.17 5.84 7 7.46 7.5 9.56 7.99 11.83 8.65 3.89.34 4.86-.33"/><path stroke="#8c1800" stroke-width="2.42" d="M629.92 388.19s-10.47 6.05-9 7.52c1.48 1.48 10.8-5.72 10.96-5.88s3.93-4.75-1.96-1.64z"/><path stroke="#8c1800" stroke-width="2.43" d="M362.37 384.89s10.37 6.16 8.91 7.66-10.7-5.83-10.85-6c-.17-.16-3.9-4.82 1.94-1.66z"/></g><g fill="none" stroke="#8c1800" stroke-linecap="round"><path stroke-width="3.14" d="M645.46 372.82c-6.87 7.69-6.87 7.52-6.87 7.52"/><path stroke-width="2.9" d="m655.76 360.23-6.54 8.01"/><path stroke-width="2.66" d="m666.07 343.87-7.36 11.78"/><path stroke-width="2.42" d="m674.74 327.19-6.05 12.1m9.97-20.93-1.96 4.25"/><path stroke-width="1.45" d="m683.08 306.75-1.64 5.07"/><path stroke-width="3.16" d="M346.98 369.24c6.8 7.83 6.8 7.66 6.8 7.66"/><path stroke-width="2.91" d="m336.77 356.42 6.48 8.16"/><path stroke-width="2.67" d="m326.56 339.77 7.3 11.99"/><path stroke-width="2.43" d="m317.97 322.79 6 12.32m-9.89-21.31 1.94 4.33"/><path stroke-width="1.46" d="m309.71 301.98 1.62 5.16"/></g><path fill="#217900" stroke="#000" stroke-linejoin="round" stroke-width="1.93" d="M343.56 115.74c.09 0 7.48 6.41 6.1 16.07s-6.96 23.09-5.84 33.1c.68 4 .42 11.2.42 11.2s-6.7-9.53-6.78-19.7 7.25-19.85 7.25-27.35-1.32-13.5-1.15-13.32zm-3.66 2.88s-9.7 9.26-10.95 18.26c-.92 4.63-1.28 26.24-1.39 35.83-.21 2.95-1.43 14.56-1.7 18.79-.25 4.23 7.14-7.22 7.56-16.53-.23-9.64-.23-29.95.75-33 .87-3.93.68-8.26 2.03-12.2 1.79-5.46 3.79-11.06 3.7-11.15z"/><g fill="none" stroke="#6b18b5" stroke-linejoin="round"><path stroke-width="1.93" d="M276.41 180.31s6.57 9.1 7.75 14.33c1.18 5.22 3.38 15.5 6.24 19.72s19.22 27.64 20.06 37.42c.17 6.4-6.74 17.36-17.03 17.53-6.4-.17-22.92-4.38-23.6-18.54s5.06-14.5 5.74-23.1c.67-8.6.84-47.2.84-47.36z"/><path d="M389.35 56.36s-6.8.49-12.05 3.33c-4.06 2.5-10.93 6.1-15.74 12.77-12.22 9.52-30.61 13.97-36.41 21.89-3.47 5.38-3.26 18.34 5.44 23.82 5.56 3.18 21.86 8.16 29.8-3.58 7.93-11.75 3.2-15.02 7.1-22.71 6.41-17.64 21.77-35.38 21.86-35.52zm165.09-17.19s-5.08-4.56-10.77-6.34c-4.62-1.18-12.32-.67-20.29-1.45-15.34-2.15-31.17-13.25-40.89-11.91-6.28 1.25-15.44 10.41-13.33 20.48 1.58 6.2 8.53 18.77 22.48 16.3 13.96-2.48 13.84-5.53 22.08-8.08 20.08-11.27 40.56-8.97 40.72-9zM718.18 198.3c1.15-2.62-.96-7.54-2.46-13.31-1.46-4.54-3.63-11.6-8.95-17.86-6.31-14.15-5.23-33.56-11.52-41.1-4.4-4.66-17.02-7.56-24.43-.43-4.43 4.63-13.18 19.26-3.68 29.78s13.64 6.56 20.18 12.18c15.58 10.47 23.21 28.82 30.86 30.74zm-5.59 123.64c2.13-2.95 5.94-8.62 5.49-13.35-.36-3.75 1.71-15.1 1.94-20.06 1.4-15.43 11.07-27.96 8.44-41.37-1.55-6.22-10.66-15.08-20.6-12.49-6.14 1.88-19.77 9.38-16.63 23.2 3.15 13.83 7.61 13.6 10.57 21.7 8.48 16.75 3.05 36.64 10.79 42.37z"/></g><g fill="#6b18b5"><path d="M491.8 26.96c0-2.18-2.45-3.94-5.47-3.94s-5.47 1.76-5.47 3.94 2.45 3.94 5.47 3.94 5.47-1.76 5.47-3.94m2.34 9.17c0-2.09-2.52-3.78-5.63-3.78s-5.63 1.7-5.63 3.78 2.52 3.78 5.63 3.78 5.63-1.69 5.63-3.78m7-10.86s-6.44 4.83-3.78 6.76c2.65 1.93 9.98-4.18 9.98-4.18zM690.31 135.8c0-1.37-.64-2.64-1.69-3.33a3 3 0 0 0-3.38 0 4 4 0 0 0-1.68 3.33c0 1.37.64 2.64 1.68 3.33 1.05.68 2.34.68 3.38 0s1.7-1.96 1.69-3.33m-2.45-9.21c0-2.29-1.58-4.14-3.53-4.14s-3.53 1.85-3.53 4.14 1.58 4.14 3.53 4.14 3.53-1.85 3.53-4.14m1.69 18.73c0-1.19-.62-2.15-1.38-2.15s-1.38.96-1.38 2.15.62 2.15 1.38 2.15 1.38-.96 1.38-2.15m5.68-16.73c0-1.36-.62-2.46-1.38-2.46s-1.38 1.1-1.38 2.46.62 2.46 1.38 2.46 1.38-1.1 1.38-2.46m-15.51 1.69c0-1.1-.62-2-1.38-2s-1.38.9-1.38 2 .62 2 1.38 2 1.38-.9 1.38-2m2.46 13.2c0-1.78-1.3-3.22-2.92-3.22-1.6 0-2.91 1.44-2.91 3.22s1.3 3.22 2.91 3.22 2.92-1.44 2.92-3.22m-7.68-5.84c0-1.53-1.1-2.76-2.46-2.76s-2.45 1.23-2.45 2.76 1.1 2.76 2.45 2.76 2.46-1.23 2.46-2.76m-1.22-7.82c0-.82-.4-1.58-1.07-2a2 2 0 0 0-2.15 0 2.3 2.3 0 0 0-1.08 2c0 .82.41 1.58 1.08 2 .66.4 1.48.4 2.15 0a2.3 2.3 0 0 0 1.07-2m34.99 39.8c-3.17-4.18-8.25-5.95-11.34-3.94s-3.02 7.03.15 11.22c3.17 4.18 8.24 5.94 11.33 3.94 3.1-2.01 3.03-7.04-.14-11.22m9.01 77.19c.61-5.13-1.89-9.66-5.6-10.1s-7.2 3.36-7.81 8.5c-.62 5.13 1.89 9.65 5.6 10.1s7.2-3.37 7.81-8.5m1.9 44.94c1.06-5.06-1.05-9.78-4.7-10.54-3.65-.77-7.47 2.72-8.52 7.78-1.06 5.07 1.05 9.79 4.7 10.55s7.46-2.73 8.52-7.79m8.66-42.06c0-2.03-1.37-3.68-3.07-3.68s-3.07 1.65-3.07 3.68 1.37 3.68 3.07 3.68 3.07-1.65 3.07-3.68m-7.52 8.44-6.3 7.14s-5.9.15-5.6 2.07 8.14 7.67 8.06 9.98c-.07 2.3 5.22-.54 5.22-.54s4.22-12.82 4.22-12.9c0-.07-.23-8.9-2.53-8.74-2.3.15-2.93 2.83-3.07 3m-413.94-2.83a3 3 0 1 0-5.99 0 3 3 0 0 0 5.99 0m2.83-9.15a3.1 3.1 0 0 0-3-3.16c-1.65 0-2.99 1.41-2.99 3.16s1.34 3.16 3 3.16a3.1 3.1 0 0 0 2.99-3.16m-24.6-43.53c-1.12-2.52-3.46-3.92-5.23-3.13-1.76.78-2.28 3.46-1.15 5.98s3.46 3.92 5.22 3.13c1.77-.78 2.28-3.46 1.16-5.98m7.43 27.12c-1.54-3.26-4.76-5.08-7.18-4.06s-3.13 4.49-1.59 7.75 4.76 5.08 7.18 4.06 3.13-4.49 1.59-7.75m7.95 19.88c.5-4.08-1.19-7.82-3.77-8.36-2.59-.55-5.09 2.32-5.58 6.4s1.18 7.81 3.77 8.36 5.08-2.32 5.58-6.4m-12.76 2.91c1.6-3.78 1-7.85-1.34-9.08s-5.52.84-7.12 4.63c-1.6 3.78-1 7.84 1.34 9.07s5.52-.84 7.12-4.62"/><path d="M281.42 243.99c0-1.93-1.49-3.5-3.33-3.5s-3.33 1.57-3.33 3.5 1.5 3.5 3.33 3.5a3.4 3.4 0 0 0 3.33-3.5m-2.66-8.65c0-1.75-1.34-3.16-3-3.16s-2.99 1.41-2.99 3.16 1.34 3.16 3 3.16a3.1 3.1 0 0 0 2.99-3.16m2.82-16.64c0-2.94-1.3-5.32-2.91-5.32s-2.91 2.38-2.91 5.32 1.3 5.32 2.9 5.32 2.92-2.38 2.92-5.32m8.96-1.28c.39-2.92-.59-5.45-2.18-5.66s-3.2 1.98-3.6 4.9c-.38 2.9.6 5.44 2.2 5.65 1.59.22 3.2-1.97 3.58-4.89m63.85-127.38c1.19-4.13-.04-8.28-2.73-9.27-2.7-.99-5.85 1.56-7.04 5.69-1.18 4.13.04 8.28 2.74 9.26 2.7 1 5.84-1.55 7.03-5.68m-12.12 18.38c3.56-3.03 5.08-7.21 3.4-9.35s-5.94-1.41-9.5 1.61-5.07 7.22-3.39 9.35 5.93 1.42 9.49-1.61m-7.08-10.2c3.52-2.6 5.02-6.2 3.36-8.03-1.67-1.83-5.87-1.21-9.38 1.39s-5.02 6.19-3.36 8.02c1.66 1.84 5.86 1.22 9.38-1.38m27.27-17.94c2.37-1.81 3.39-4.32 2.26-5.6s-3.95-.85-6.32.97-3.39 4.32-2.27 5.6 3.96.84 6.33-.97"/><path d="M348.25 97.66c1.62-2.5 1.73-5.2.24-6.04-1.48-.82-4 .54-5.63 3.05s-1.73 5.2-.24 6.03 4-.53 5.63-3.04m20.51-10.74c2.55-2.15 3.54-5 2.22-6.36s-4.47-.72-7.02 1.42c-2.55 2.15-3.54 5-2.22 6.36s4.47.73 7.02-1.42m-37.07 25.05c2.38-.12 4.18-1.3 4.02-2.65s-2.23-2.34-4.61-2.22-4.19 1.3-4.02 2.65c.16 1.34 2.23 2.34 4.61 2.22m44.88-38.37c1.62-2.5 1.73-5.2.24-6.03-1.48-.83-4 .54-5.63 3.04s-1.73 5.21-.24 6.04c1.49.82 4-.54 5.63-3.04"/></g><g fill="#ffd200" stroke="#ef8a10" stroke-width="1.93"><path d="M553.24 88.38s12.57-5.8 16.17-16.6-10.88-10.91-12.8-7.48c-1.9 3.43 1.64 11.98.72 14.24s-6.03 7.72-4.09 9.83z"/><path stroke-width="2.42" d="M441.8 92.32s8.16-11.19 6.05-22.38-14.82-4.23-14.82-.3 7.26 9.68 7.56 12.1-1.51 9.67 1.21 10.58zm-22.07 6.65s8.16-11.19 6.05-22.37-14.82-4.24-14.82-.3 7.26 9.67 7.56 12.09-1.51 9.67 1.21 10.58zm-24.49 7.56s8.16-11.19 6.05-22.37-14.82-4.23-14.82-.3 7.26 9.67 7.56 12.09-1.51 9.67 1.21 10.58zm-17.23 17.23s8.16-11.19 6.05-22.37-14.82-4.23-14.82-.3 7.26 9.67 7.56 12.09-1.51 9.67 1.21 10.58zm-18.14 16.63s8.16-11.19 6.05-22.37-14.82-4.23-14.82-.3 7.26 9.67 7.56 12.09-1.51 9.67 1.21 10.58z"/><path d="M401.57 43.52s-10.87 8.58-11.84 19.92 13.13 8.06 14.19 4.28-4.39-11.27-4.03-13.68 4.06-8.92 1.68-10.52zm36.28-11.19s-10.87 8.58-11.84 19.93 13.13 8.06 14.19 4.27-4.39-11.27-4.03-13.68 4.06-8.91 1.68-10.52zm-135.19 97.94s2.3 13.66 11.78 19.96 13.38-7.64 10.57-10.38-12-1.58-13.94-3.05-5.86-7.84-8.41-6.53zm-18.12 46.37s.11 13.85 8.48 21.57 14.42-5.43 12.07-8.59c-2.34-3.15-11.59-3.44-13.27-5.2-1.69-1.77-4.55-8.67-7.28-7.78zm41.8 51.8s-4.94-12.94-15.48-17.25-11.61 10.13-8.31 12.27 12.06-.83 14.25.24c2.2 1.06 7.3 6.53 9.54 4.74zm-8.68-22.39s8.38-11.02 6.48-22.25-14.73-4.52-14.8-.6c-.08 3.94 7.06 9.82 7.32 12.25.25 2.42-1.7 9.64 1 10.6zM578.94 99.56s12.57-5.8 16.17-16.6-10.88-10.9-12.8-7.47c-1.9 3.43 1.64 11.98.72 14.24s-6.03 7.71-4.09 9.83zm38.03 18.97s7.4-11.7 4.54-22.73-15.07-3.23-14.8.7c.26 3.91 7.88 9.16 8.35 11.55s-.87 9.76 1.91 10.48zm103.77 107.74s-4.96-12.93-15.5-17.23-11.6 10.15-8.3 12.28 12.06-.84 14.26.22 7.3 6.52 9.54 4.73zM670 234.3s.29-13.84 8.75-21.46c8.46-7.61 14.35 5.61 11.97 8.74-2.39 3.13-11.64 3.3-13.34 5.04-1.71 1.74-4.67 8.6-7.38 7.68zm-8.17-146.82s-12.94-4.91-23.17.08-.17 15.4 3.62 14.37 7.41-9.55 9.66-10.48c2.26-.94 9.73-1.1 9.89-3.97zM632.21 62.7s-12.94-4.92-23.17.07-.17 15.4 3.62 14.37 7.41-9.55 9.66-10.49 9.73-1.1 9.89-3.96zm-44.19-23.65s-10.97 8.45-12.08 19.78 13.03 8.22 14.13 4.45-4.25-11.33-3.86-13.73 4.17-8.86 1.8-10.5zm-28.75-6.92s-5 12.91-.08 23.18 15.4.27 14.4-3.53c-1.02-3.8-9.51-7.48-10.43-9.74s-1.03-9.73-3.89-9.9zm-81.61 49.76s8.95-10.57 7.65-21.88-14.47-5.3-14.75-1.37c-.29 3.92 6.53 10.17 6.66 12.6.13 2.44-2.2 9.55.44 10.65z"/></g><g fill="#de2010" stroke="#000" stroke-width="2.38"><path d="M701.62 233.11c-.5-4.05-2.45-7.6-5.12-9.33s-5.63-1.35-7.79.97-3.17 6.26-2.66 10.3c.5 4.06 2.45 7.61 5.12 9.34a5.8 5.8 0 0 0 7.79-.98c2.15-2.32 3.17-6.25 2.66-10.3z"/><path d="M699.95 212.66c-.5-4.05-2.45-7.6-5.12-9.33s-5.63-1.35-7.79.97-3.17 6.26-2.66 10.3c.5 4.06 2.45 7.61 5.12 9.34a5.8 5.8 0 0 0 7.79-.98c2.15-2.32 3.17-6.25 2.66-10.3z"/><path d="M695.8 190.82c-.86-3.99-3.11-7.36-5.92-8.85s-5.73-.85-7.67 1.66c-1.95 2.5-2.61 6.5-1.75 10.5s3.11 7.36 5.92 8.84 5.73.86 7.67-1.65c1.95-2.51 2.61-6.51 1.75-10.5z"/><path d="M688.23 168c-1.84-3.64-4.89-6.33-7.98-7.05a5.8 5.8 0 0 0-7 3.56c-1.24 2.92-.86 6.96 1 10.6 1.84 3.64 4.88 6.32 7.97 7.04a5.8 5.8 0 0 0 7-3.55c1.24-2.92.86-6.96-.99-10.6z"/><path d="M680.14 149.69c-1.84-3.64-4.89-6.33-7.98-7.05a5.8 5.8 0 0 0-7 3.56c-1.24 2.92-.86 6.96 1 10.6 1.84 3.64 4.88 6.32 7.97 7.04a5.8 5.8 0 0 0 7-3.55c1.24-2.92.86-6.96-.99-10.6z"/><path d="M668.64 131.28c-2.15-3.47-5.4-5.89-8.54-6.34s-5.69 1.12-6.68 4.13c-.99 3.02-.27 7.01 1.88 10.48s5.4 5.89 8.55 6.34a5.8 5.8 0 0 0 6.67-4.13c.99-3.02.27-7.01-1.88-10.48z"/><path d="M655.85 113.54c-2.47-3.25-5.95-5.34-9.12-5.49a5.8 5.8 0 0 0-6.24 4.76c-.7 3.1.4 7 2.89 10.25 2.47 3.24 5.94 5.34 9.11 5.49a5.8 5.8 0 0 0 6.24-4.77c.7-3.1-.4-7-2.88-10.24z"/><path d="M640.59 97c-2.92-2.86-6.66-4.42-9.82-4.11a5.8 5.8 0 0 0-5.48 5.61c-.24 3.17 1.42 6.87 4.34 9.72s6.66 4.42 9.81 4.11a5.8 5.8 0 0 0 5.49-5.62c.24-3.16-1.42-6.87-4.34-9.71z"/><path d="M623.41 81.78c-3.17-2.58-7.04-3.8-10.15-3.2s-5 2.93-4.95 6.1 2.04 6.71 5.22 9.28c3.16 2.58 7.03 3.8 10.15 3.19 3.11-.6 5-2.92 4.94-6.1s-2.04-6.7-5.21-9.27z"/><path d="M605.21 69.63c-3.55-2.01-7.57-2.57-10.54-1.46s-4.45 3.71-3.87 6.83 3.13 6.28 6.69 8.29c3.55 2 7.57 2.56 10.54 1.45 2.97-1.1 4.44-3.71 3.86-6.83s-3.13-6.28-6.68-8.28z"/><path d="M584.84 58.84c-3.72-1.68-7.77-1.86-10.63-.49a5.8 5.8 0 0 0-3.23 7.16c.87 3.05 3.69 5.96 7.41 7.64s7.77 1.87 10.63.5a5.8 5.8 0 0 0 3.23-7.17c-.86-3.05-3.69-5.96-7.41-7.64z"/><path d="M564.86 50.8c-3.82-1.43-7.88-1.34-10.64.22s-3.8 4.37-2.74 7.36 4.08 5.7 7.9 7.12c3.83 1.43 7.88 1.35 10.64-.22 2.77-1.56 3.81-4.37 2.74-7.35s-4.08-5.71-7.9-7.13z"/><path d="M544.56 44.43c-3.92-1.13-7.96-.74-10.6 1.03a5.8 5.8 0 0 0-2.16 7.55c1.29 2.9 4.5 5.37 8.42 6.5s7.96.74 10.6-1.03a5.8 5.8 0 0 0 2.16-7.55c-1.29-2.9-4.5-5.38-8.42-6.5z"/><path d="M522.21 40.62c-4.05-.51-7.98.5-10.3 2.65a5.8 5.8 0 0 0-.99 7.79c1.72 2.67 5.28 4.62 9.33 5.13s7.97-.5 10.3-2.65a5.8 5.8 0 0 0 .99-7.8c-1.73-2.66-5.28-4.61-9.33-5.12z"/><path d="M500.15 39.38c-4.08-.17-7.9 1.17-10.04 3.51a5.8 5.8 0 0 0-.32 7.85c1.94 2.5 5.65 4.15 9.73 4.31 4.08.17 7.9-1.17 10.04-3.52a5.8 5.8 0 0 0 .32-7.84c-1.94-2.51-5.65-4.15-9.73-4.32z"/><path d="M479.94 40.09c-4.08-.17-7.9 1.17-10.04 3.52a5.8 5.8 0 0 0-.32 7.84c1.94 2.51 5.65 4.16 9.73 4.32s7.9-1.18 10.04-3.52a5.8 5.8 0 0 0 .32-7.85c-1.94-2.5-5.65-4.15-9.73-4.31z"/><path d="M456.25 42.9c-3.98.9-7.32 3.2-8.77 6.02s-.78 5.74 1.75 7.65 6.54 2.53 10.52 1.62 7.32-3.2 8.77-6.02c1.45-2.83.78-5.75-1.75-7.66s-6.54-2.53-10.52-1.61z"/><path d="M434.7 48.3c-3.89 1.23-7.03 3.8-8.24 6.73s-.31 5.78 2.37 7.48 6.73 1.98 10.62.74c3.89-1.23 7.03-3.8 8.24-6.73s.3-5.78-2.37-7.48-6.73-1.98-10.62-.74z"/><path d="M415.04 56.72c-3.72 1.68-6.53 4.6-7.38 7.66a5.8 5.8 0 0 0 3.24 7.15c2.87 1.36 6.92 1.16 10.63-.53s6.53-4.6 7.39-7.66-.39-5.79-3.25-7.15-6.92-1.17-10.63.52z"/><path d="M395.43 66.77c-3.56 2-6.11 5.14-6.7 8.26-.6 3.12.87 5.73 3.84 6.85s7 .57 10.55-1.44 6.11-5.14 6.7-8.26c.6-3.12-.87-5.73-3.84-6.85s-7-.57-10.55 1.44z"/><path d="M376.88 79.35c-3.32 2.37-5.52 5.78-5.77 8.94a5.8 5.8 0 0 0 4.57 6.39c3.08.79 7.01-.2 10.33-2.57s5.52-5.78 5.77-8.94a5.8 5.8 0 0 0-4.57-6.39c-3.08-.79-7.01.2-10.33 2.57z"/><path d="M359.71 92.36c-3.1 2.64-5.01 6.23-4.99 9.4s1.96 5.45 5.1 5.97c3.12.53 6.96-.78 10.07-3.43 3.1-2.64 5-6.23 4.98-9.4a5.8 5.8 0 0 0-5.09-5.98c-3.13-.52-6.97.79-10.07 3.44z"/><path d="M344.56 108.19c-2.91 2.86-4.55 6.57-4.3 9.73a5.8 5.8 0 0 0 5.5 5.6c3.16.3 6.9-1.28 9.8-4.15 2.92-2.86 4.56-6.57 4.3-9.73a5.8 5.8 0 0 0-5.5-5.6c-3.16-.3-6.9 1.29-9.8 4.15z"/><path d="M331.51 125.79c-2.66 3.1-3.98 6.93-3.47 10.06s2.78 5.08 5.95 5.11 6.77-1.85 9.42-4.95c2.67-3.1 3.99-6.93 3.48-10.06s-2.79-5.08-5.96-5.11-6.76 1.85-9.42 4.95z"/><path d="M319.58 143.81c-2.32 3.36-3.22 7.31-2.38 10.37a5.8 5.8 0 0 0 6.47 4.45c3.16-.3 6.53-2.56 8.84-5.93 2.31-3.35 3.22-7.31 2.38-10.37a5.8 5.8 0 0 0-6.47-4.45c-3.16.3-6.53 2.57-8.84 5.93z"/><path d="M309.64 164.24c-1.7 3.7-1.92 7.76-.56 10.63a5.8 5.8 0 0 0 7.13 3.27c3.06-.84 6-3.65 7.7-7.36 1.7-3.7 1.91-7.76.55-10.63a5.8 5.8 0 0 0-7.13-3.27c-3.06.84-6 3.65-7.69 7.36z"/><path d="M301.77 185.59c-1.36 3.85-1.2 7.9.4 10.64 1.61 2.73 4.44 3.72 7.4 2.6s5.64-4.17 7-8.02 1.2-7.9-.4-10.63c-1.62-2.74-4.44-3.73-7.41-2.62s-5.64 4.18-6.99 8.03z"/><path stroke-width="2.13" d="M294.94 226.01c-.38 3.26.76 6.38 2.99 8.19s5.21 2.03 7.82.58a10 10 0 0 0 4.81-7.6c.38-3.26-.76-6.39-2.99-8.2s-5.2-2.03-7.81-.58a10 10 0 0 0-4.82 7.61z"/><path d="M296.76 207.14c-.91 3.98-.3 7.99 1.62 10.52a5.8 5.8 0 0 0 7.66 1.74c2.82-1.45 5.11-4.8 6.02-8.77.9-3.98.29-7.99-1.62-10.52a5.8 5.8 0 0 0-7.66-1.75c-2.82 1.46-5.12 4.8-6.02 8.78z"/></g><path fill="#ffe300" d="M685.33 197.47c2.49-2.66 4.8-3.41 7.72-2.44-1.03-7.02-3.25-9.4-5.95-8.56-2.71.85-3.94 4.46-1.77 11m3.8 21.19c2.68-2.47 5.04-3.04 7.89-1.85-.5-7.08-2.54-9.62-5.3-8.98s-4.26 4.14-2.59 10.83m-8.99-40.52c1.73-3.2 3.77-4.52 6.85-4.32-2.78-6.53-5.53-8.27-7.94-6.77-2.4 1.5-2.67 5.31 1.09 11.09m-9.43-19.28c1.73-3.2 3.77-4.52 6.85-4.32-2.78-6.53-5.53-8.27-7.94-6.77-2.4 1.5-2.67 5.31 1.09 11.09m-22.61-35.32c1.2-3.44 3-5.07 6.07-5.37-3.8-6-6.8-7.27-8.92-5.4s-1.79 5.67 2.85 10.77m-14.78-15.39c1.06-3.48 2.8-5.18 5.86-5.6-4.02-5.84-7.06-7-9.12-5.05s-1.57 5.73 3.26 10.65m-31.06-26.21c-.06-3.65 1.07-5.8 3.85-7.13-5.62-4.33-8.87-4.5-10.23-2-1.36 2.48.27 5.93 6.38 9.13m16.16 12.12c.57-3.6 2.06-5.52 5.03-6.36-4.8-5.23-7.97-5.96-9.73-3.74s-.76 5.9 4.7 10.1m-34.61-22.3c-.44-3.62.47-5.87 3.1-7.49-6.04-3.72-9.3-3.55-10.39-.94-1.1 2.62.89 5.88 7.29 8.43m-18.85-8.23c-.95-3.52-.37-5.88 2-7.85-6.52-2.82-9.71-2.2-10.42.55s1.72 5.7 8.42 7.3m-20.31-6.29c-1.25-3.43-.87-5.83 1.32-8-6.73-2.26-9.85-1.35-10.33 1.44-.47 2.8 2.2 5.52 9.01 6.56m-19.95-3.87c-1.5-3.32-1.29-5.74.74-8.06-6.87-1.77-9.93-.65-10.2 2.18-.27 2.82 2.59 5.34 9.46 5.88m-21.13-1.62c-1.83-3.15-1.88-5.58-.1-8.1-7.02-1.04-9.94.4-9.92 3.23.03 2.83 3.13 5.05 10.02 4.87m-41.36 3.12c-2.53-2.62-3.17-4.96-2.05-7.84-7.06.68-9.55 2.78-8.85 5.52.71 2.75 4.25 4.15 10.9 2.32m20.36-2.68c-2.16-2.94-2.47-5.35-.97-8.04-7.1-.29-9.84 1.45-9.51 4.27s3.65 4.69 10.48 3.77m-40.34 7c-2.88-2.23-3.85-4.46-3.15-7.47-6.9 1.69-9.06 4.12-7.96 6.74 1.09 2.61 4.8 3.5 11.11.73m-38.25 17.58c-3.25-1.64-4.62-3.64-4.52-6.72-6.44 2.96-8.1 5.76-6.53 8.12s5.38 2.52 11.05-1.4m18.44-9.42c-3.03-2.02-4.15-4.18-3.67-7.22-6.75 2.15-8.74 4.73-7.47 7.27s5.03 3.15 11.14-.05m-52.75 33.31c-3.52-.92-5.28-2.6-5.82-5.64-5.69 4.25-6.73 7.33-4.7 9.31s5.79 1.34 10.52-3.67m16.37-13.4c-3.44-1.2-5.06-3-5.36-6.07-6 3.78-7.28 6.78-5.41 8.9 1.87 2.14 5.66 1.8 10.77-2.83m-30.91 27.73c-3.6-.6-5.5-2.11-6.3-5.08-5.28 4.74-6.04 7.9-3.84 9.7 2.2 1.78 5.88.8 10.14-4.62m-13.04 16.91c-3.63-.27-5.67-1.6-6.74-4.5-4.83 5.21-5.3 8.43-2.94 10.01s5.93.28 9.68-5.51m-10.9 17.3c-3.63.29-5.84-.72-7.35-3.4-3.97 5.87-3.94 9.13-1.37 10.33s5.9-.64 8.72-6.93m-9.58 18.47c-3.56.76-5.89.05-7.73-2.42-3.18 6.34-2.72 9.57-.02 10.42 2.7.86 5.78-1.4 7.75-8m-7.66 18.95c-3.4 1.31-5.8.98-8.02-1.17-2.13 6.77-1.17 9.88 1.64 10.3s5.48-2.3 6.38-9.13m-5.13 21.13c-3.3 1.54-5.73 1.37-8.08-.63-1.67 6.9-.5 9.94 2.32 10.17 2.83.23 5.32-2.66 5.76-9.54m-2.09 17.58c-3.1 1.65-5.53 1.84-8.07.6-.92 5.62.56 7.84 3.38 7.64s4.98-2.8 4.69-8.24m355.57-83.65c1.24-3.42 3.07-5.02 6.15-5.28-3.7-6.05-6.68-7.37-8.84-5.53s-1.87 5.64 2.69 10.81m29.15 98.44c2.68-2.47 5.04-3.04 7.89-1.85-.5-7.08-2.54-9.62-5.3-8.98s-4.26 4.14-2.59 10.83"/><path fill="#ffd200" stroke="#ef8a10" stroke-width="1.01" d="M646.9 149.66s7.4-11.7 4.54-22.73-15.07-3.23-14.8.7c.26 3.91 7.88 9.16 8.35 11.55s-.87 9.76 1.91 10.48z"/><g fill="#217900" stroke="#000" stroke-linejoin="round" stroke-width="2.42"><path stroke-width="1.93" d="M663.67 124.92c-.09 0-8.02 7.94-6.64 17.6s7.5 21.56 6.38 31.56-2.93 16.65-2.93 16.65 9.31-10.6 9.4-20.79-6.38-23.54-6.38-31.05c0-7.5.34-14.14.17-13.97zm14.75 32.43s-6.21 4.57-5.6 15.1c.6 10.52 11.47 29.84 11.47 29.84s7.93 16.3 7.67 20.53c-.26 4.22 1.47-4.06.7-13.37-.78-9.32-12.77-29.85-12.77-29.85s-2.6-4.22-2.33-11.2c.26-7 .95-10.96.86-11.05z"/><path d="M505.65 52.3s26.65 1.03 26.83 18.28c-.1 2.67 0 5.86-.95 13.54 5.26-2.85 8.8-10.78 8.1-15.87.09-17.51-23.8-29.5-33.98-15.96z"/><path d="M488.75 51.52s21.48-4.49 21.65 12.76-6.81 20.01-6.81 20.01 16.47-3.53 16.56-21.04-21.22-25.27-31.4-11.73zm208.63 197.67c.5 7.74 8.07 15.15 5.1 28.65-3.78 15.32-17.12 51.7-14.82 58.13-3.95-5.44-3.29-10.54-3.62-18.11s11.03-35.74 12.02-45.29c0-8.56.83-20.25 1.32-23.38z"/><path d="M697.38 249.36s12.35 15.64 11.7 28c-.67 12.34-7.58 26.83-5.28 33.25-3.95-5.43-4.94-8.89-5.27-16.46s6.1-15.97 4.78-24.2c-1.32-8.24-6.1-20.6-5.93-20.6zm-404.56 3.45c-.5 7.74-6.26 14.66-3.3 28.16 3.8 15.31 17.3 34.74 15.16 56.97 3.95-5.43 5.1-11.52 5.43-19.1.33-7.57-14.98-33.1-15.97-42.65 0-8.56-.83-20.25-1.32-23.38z"/><path d="M292.82 252.98s-12.02 15.15-11.36 27.5c.16 8.23 15.31 42.65 13 49.07 3.96-5.43 5.11-4.78 4.95-13.01-4.45-21.08-12.35-34.58-11.04-42.81s4.62-20.75 4.45-20.75z"/></g><g fill="none" stroke="#000" stroke-width="1.93"><path fill="#8c8a8c" d="M526.38 104.56s21.46 1.35 22.5 13.66c1.06 12.3-5.1 19.8-5.1 19.8s2.7 26.56-18.3 34.36c-22.5 2.7-57.77.6-57.77.6s-10.35 2.55-14.55-18.9c-4.2-21.46-5.4-36.61-5.4-36.61s2.1-12 17.25-12.76 61.22.15 61.37-.15z"/><path stroke-linecap="round" d="M543.63 137.87s-11.55 14.4-10.35 20.26"/><path fill="#8c8a8c" d="M528.18 171.63c2.85 2.4 5.55 5.1 6.15 13.96l1.2 17.7 15 135.05 13.21 97.68.9 15.16s-3.15 11.1-12 12c-6.45 13.5-41.42 17.4-44.87 17.26-3.15-.15-14.25-4.8-21-4.2s-18.46 5.1-23.71 4.35-17.1-4.8-19.2-13.35c-14.71-4.66-17.11-15.91-17.11-15.91l15.9-112.99 15.46-142.85s1.8-19.06 9.45-21.9c7.95-.76 49.06.74 60.62-1.96z"/><path d="M447.15 367.15 444 467.08m100.23-86.73 8.85 82.38"/><path fill="#fff" stroke-linejoin="round" stroke-width="2.02" d="m498.19 114.45 29.92 92.1h96.82l-78.32 56.92 29.91 92.1-78.33-56.92-78.33 56.91 29.92-92.1-78.33-56.91h96.82z"/></g></svg>