<svg xmlns="http://www.w3.org/2000/svg" xmlns:xlink="http://www.w3.org/1999/xlink" viewBox="0 0 600 400"><path fill="red" d="M0 0h600v400H0z"/><path fill="#060" d="M0 0h240v400H0z"/><g fill="#ff0" fill-rule="evenodd" stroke="#000" stroke-linecap="round" stroke-linejoin="round" stroke-width=".57"><path d="M318.24 262.04c-30.21-.91-168.74-87.38-169.69-101.15l7.65-12.76c13.74 19.97 155.36 104.06 169.27 101.08z"/><path d="M154.59 146.4c-2.71 7.3 36.15 31.32 82.9 59.75 46.75 28.44 87.07 46.01 90.06 43.49.18-.33 1.47-2.54 1.35-2.52-.56.84-1.93 1.1-4.05.5-12.63-3.65-45.58-18.77-86.38-43.51s-76.3-47.55-81.8-57.23a6 6 0 0 1-.6-2.85h-.14l-1.18 2.05zm164.36 116.04c-.51.93-1.47.96-3.28.76-11.3-1.25-45.6-17.92-86.16-42.21-47.21-28.26-86.2-54.01-81.97-60.74l1.15-2.04.22.07c-3.8 11.4 76.95 57.58 81.7 60.53 46.73 28.94 86.12 45.85 89.6 41.45z"/><path d="M240.17 169.23c30.24-.24 67.55-4.13 89.02-12.69l-4.62-7.52c-12.7 7.03-50.21 11.65-84.66 12.34-40.73-.38-69.49-4.17-83.9-13.84l-4.36 8c26.48 11.21 53.62 13.6 88.52 13.71"/><path d="M330.44 156.71c-.74 1.18-14.74 6.01-35.37 9.58a366 366 0 0 1-55 3.97 390 390 0 0 1-52.7-3.33c-21.65-3.4-32.82-8.12-36.96-9.79.4-.79.65-1.34 1.03-2.07 11.9 4.74 23.13 7.6 36.28 9.62 13.3 1.8 30.75 3.36 52.28 3.34 22.66-.03 40.7-1.99 54.62-4.06 21.15-3.4 32.7-7.8 34.33-9.84zm-4.06-7.62c-2.3 1.84-13.72 5.9-33.82 9.1a364 364 0 0 1-52.26 3.67c-20.7.02-37.62-1.38-50.49-3.25-20.41-2.67-31.28-7.48-35.2-8.88l1.2-2.01c3.05 1.53 13.53 5.79 34.22 8.72 12.72 1.8 29.67 3.15 50.27 3.12a359 359 0 0 0 51.88-3.68c20.2-2.78 31.08-7.95 32.73-9.25zm-185.5 56.57c18.6 10 59.9 15.04 99 15.4 35.59.05 81.95-5.51 99.3-14.7l-.49-10.01c-5.42 8.48-55.1 16.6-99.2 16.27s-85.04-7.14-98.69-15.95z"/><path d="M340.12 204.22v2.39c-2.6 3.11-18.95 7.82-39.44 11.14-15.6 2.39-35.92 4.2-61.26 4.2-24.07 0-43.26-1.72-58.15-4-23.53-3.43-38.58-9.43-41.6-11.22l.02-2.79c9.07 6.03 33.66 10.45 41.91 11.8 14.8 2.27 33.87 3.97 57.82 3.97 25.22 0 45.44-1.79 60.93-4.16 14.7-2.13 35.65-7.65 39.77-11.33m.01-8.5v2.4c-2.6 3.1-18.95 7.82-39.44 11.14-15.6 2.39-35.92 4.19-61.26 4.19-24.07 0-43.26-1.71-58.15-4-23.53-3.43-38.58-9.43-41.6-11.22l.02-2.78c9.07 6.03 33.66 10.44 41.91 11.8 14.8 2.26 33.87 3.97 57.82 3.97 25.22 0 45.44-1.8 60.93-4.17 14.7-2.12 35.65-7.65 39.77-11.32zm-100.34 64.6c-42.77-.25-79.42-11.66-87.16-13.54l5.64 8.83c13.67 5.75 49.43 14.32 81.93 13.37s60.91-3.46 80.93-13.21l5.78-9.16c-13.64 6.43-60.06 13.64-87.12 13.71"/><path stroke-width=".55" d="M323.3 253.72q-1.28 1.95-2.6 3.83c-9.44 3.33-24.32 6.82-30.6 7.84-12.82 2.65-32.66 4.6-50.27 4.6-37.89-.55-68.9-7.97-83.5-14.3l-1.17-2.02.2-.3 1.99.77c25.95 9.29 55.09 12.99 82.7 13.66 17.53.06 35.1-2.01 49.29-4.55 21.77-4.37 30.57-7.65 33.27-9.14zm5.02-8.28.06.08q-.95 1.62-1.96 3.26c-5.04 1.8-18.7 5.8-38.66 8.6-13.15 1.79-21.32 3.52-47.48 4.03-49.01-1.25-80.75-10.83-88.29-13.2l-1.11-2.14c28.4 7.42 57.42 12.6 89.4 13.12 23.93-.5 34.12-2.27 47.16-4.05 23.27-3.62 35-7.45 38.51-8.55l-.15-.2z"/><path d="M328.83 197.76c.14 28.14-14.26 53.39-25.86 64.53-16.4 15.75-38.16 25.9-63.57 26.36-28.37.52-55.12-17.98-62.3-26.1-14.02-15.89-25.44-36.06-25.8-63.24 1.73-30.71 13.79-52.1 31.26-66.77s40.74-21.82 60.12-21.3c22.36.59 48.48 11.55 66.52 33.33 11.83 14.26 16.95 29.74 19.63 53.19m-89.19-96.34c54.49 0 99.3 44.34 99.3 98.7s-44.81 98.7-99.3 98.7-98.92-44.33-98.92-98.7 44.44-98.7 98.92-98.7"/><path d="M239.91 101.08c54.53 0 99.01 44.48 99.01 99.02s-44.48 99.02-99.01 99.02-99.01-44.48-99.01-99.02 44.48-99.02 99.01-99.02m-96.83 99.02c0 53.26 43.73 96.84 96.83 96.84s96.83-43.58 96.83-96.84-43.73-96.84-96.83-96.84-96.83 43.58-96.83 96.84"/><path d="M239.99 109.31c49.73 0 90.7 40.82 90.7 90.7s-40.97 90.7-90.7 90.7-90.7-40.81-90.7-90.7 40.97-90.7 90.7-90.7m-88.51 90.7c0 48.69 39.97 88.53 88.51 88.53s88.52-39.84 88.52-88.53-39.98-88.52-88.52-88.52-88.51 39.84-88.51 88.52"/><path d="M243.98 100.68h-8.49l.01 198.96h8.52z"/><path d="M243.13 99.55h2.16l.02 201.25h-2.16zm-8.42 0h2.18V300.8h-2.18z"/><path d="M338.99 203.94v-7.36L333 191l-34-9-49-5-59 3-42 10-8.48 6.28v7.36L162 194l51-8h49l36 4 25 6z"/><path d="M239.95 184.77c23.38-.04 46.07 2.22 64.07 5.72 18.56 3.71 31.63 8.36 36.1 13.57v2.58c-5.4-6.49-22.98-11.25-36.52-13.97-17.86-3.47-40.4-5.71-63.65-5.67-24.54.05-47.39 2.37-64.98 5.8-14.12 2.8-32.95 8.37-35.3 13.86v-2.69c1.29-3.8 15.3-9.48 34.98-13.41 17.73-3.46 40.62-5.75 65.3-5.79m.01-8.5c23.38-.03 46.07 2.23 64.06 5.73 18.57 3.71 31.64 8.35 36.11 13.57v2.58c-5.4-6.49-22.98-11.25-36.52-13.97-17.86-3.47-40.4-5.71-63.65-5.67-24.54.05-47.28 2.37-64.88 5.8-13.62 2.59-33.22 8.37-35.4 13.86v-2.69c1.28-3.76 15.59-9.64 34.98-13.42 17.73-3.45 40.62-5.74 65.3-5.78m-.48-43.32c36.85-.18 68.99 5.15 83.7 12.69l5.36 9.27c-12.78-6.88-47.46-14.05-89-12.97-33.86.2-70.03 3.72-88.18 13.4l6.4-10.7c14.9-7.73 50.02-11.65 81.72-11.69"/><path d="M239.97 140.62c21.02-.06 41.33 1.13 57.48 4.04 15.04 2.8 29.38 7 31.43 9.26l1.6 2.81c-5-3.25-17.4-6.88-33.35-9.9-16-3.01-36.3-4-57.2-3.95-23.72-.08-42.15 1.17-57.97 3.93-16.72 3.13-28.33 7.6-31.2 9.72l1.57-2.97c5.56-2.84 14.39-6.26 29.22-8.93 16.36-2.99 34.98-3.88 58.42-4.01m0-8.48c20.1-.06 39.96 1.06 55.44 3.85 12.21 2.37 24.29 6.08 28.7 9.39l2.33 3.7c-3.95-4.4-18.83-8.57-31.97-10.9-15.36-2.65-34.4-3.7-54.5-3.87-21.12.06-40.62 1.36-55.76 4.11-14.44 2.75-23.76 6-27.7 8.54l2.04-3.08c5.44-2.87 14.23-5.5 25.3-7.65 15.25-2.78 34.88-4.04 56.11-4.1m49.19 109.13c-18.22-3.4-36.47-3.9-49.22-3.74-61.4.71-81.24 12.6-83.66 16.2l-4.6-7.48c15.64-11.33 49.08-17.68 88.6-17.03 20.51.33 38.22 1.7 53.11 4.58z"/><path stroke-width=".55" d="M239.58 236.46c17.08.25 33.85.96 50.03 3.98l-1.17 2.07c-15.03-2.78-31.05-3.84-48.8-3.75-22.67-.18-45.59 1.94-65.54 7.66-6.3 1.76-16.72 5.8-17.79 9.15l-1.16-1.92c.33-1.98 6.63-6.08 18.41-9.4 22.86-6.54 44.24-7.64 66.02-7.8zm.78-8.6c17.7.33 35.97 1.15 53.74 4.67l-1.23 2.16c-16.04-3.19-31.36-4.25-52.41-4.57-22.74.04-46.85 1.66-68.78 8.03-7.08 2.06-19.3 6.52-19.7 10.05l-1.17-2.06c.27-3.2 10.84-7.4 20.36-10.16 22.1-6.42 46.27-8.07 69.19-8.12"/><path d="m327.58 247.38-7.38 11.45L299 240l-55-37-62-34-32.19-11.01 6.86-12.72L159 144l20 5 66 34 38 24 32 23 13 15z"/><path d="M148.65 158.29c5.65-3.83 47.14 14.66 90.56 40.83 43.3 26.26 84.67 55.92 80.94 61.48l-1.23 1.93-.57.44c.13-.08.75-.84-.06-2.9-1.84-6.07-31.2-29.5-79.89-58.9-47.47-28.3-87.04-45.37-91-40.5zm180.44 88.93c3.57-7.06-34.92-36.05-82.63-64.28-48.81-27.66-84-43.95-90.42-39.09l-1.43 2.6c-.01.14.05-.18.35-.41 1.17-1.02 3.1-.95 3.98-.97 11.07.17 42.67 14.71 87 40.13 19.44 11.32 82.08 51.5 81.84 62.79.02.97.08 1.17-.28 1.65z"/></g><path fill="#fff" stroke="#000" stroke-width=".67" d="M180.6 211.01a58.7 58.7 0 0 0 17.46 41.74c10.81 10.78 25.5 17.58 41.8 17.58a59.4 59.4 0 0 0 42.02-17.39 59 59 0 0 0 17.45-41.88v-79.19l-118.74-.14v79.28z"/><path fill="red" stroke="#000" stroke-width=".51" d="M182.82 211.12v.05a56.4 56.4 0 0 0 16.77 40 57 57 0 0 0 40.22 16.72 57 57 0 0 0 40.22-16.63 56.4 56.4 0 0 0 16.7-40.04v-76.83l-113.84-.02-.07 76.75m91.02-53.75v48.9l-.04 5.17a33.2 33.2 0 0 1-9.99 23.94 34 34 0 0 1-24.04 9.94c-9.33 0-17.64-3.94-23.83-10.1a34 34 0 0 1-10.03-23.95l-.01-54.02z"/><g id="e"><g id="d" fill="#ff0" stroke="#000" stroke-width=".5"><path stroke="none" d="M190.19 154.43c.13-5.52 4.05-6.83 4.08-6.85s4.23 1.41 4.22 6.9z"/><path d="m186.81 147.69-.68 6.34 4.14.01c.04-5.25 3.97-6.12 4.07-6.1.09 0 3.99 1.16 4.1 6.1h4.14l-.75-6.39zm-.96 6.37h16.95c.35 0 .65.35.65.78s-.3.79-.65.79h-16.95c-.36 0-.65-.36-.65-.79s.3-.78.65-.78z"/><path d="M192.01 154.03c.02-3.31 2.26-4.25 2.27-4.25 0 0 2.35.97 2.36 4.25h-4.63m-5.8-8.98h16.25c.34 0 .62.32.62.7 0 .4-.28.7-.63.7h-16.24c-.34 0-.62-.3-.62-.7 0-.38.28-.7.62-.7zm.34 1.42h15.54c.33 0 .6.32.6.7 0 .4-.27.7-.6.7h-15.54c-.33 0-.6-.3-.6-.7 0-.38.27-.7.6-.7zm5.02-10.59h1.23v.87h.9v-.89h1.25v.9h.9v-.9h1.25v2.01c0 .32-.25.53-.55.53h-4.4c-.3 0-.58-.24-.58-.53zm4.62 2.69.28 6.45-4.3-.01.28-6.46 3.74.02"/><path id="a" d="m190.94 141.56.13 3.48h-4.12l.11-3.48z"/><use xlink:href="#a" x="10.61"/><path id="b" d="M186.3 139.04h1.2v.88h.88v-.9h1.23v.9h.88v-.9h1.23v2.02c0 .31-.25.52-.54.52h-4.32c-.29 0-.56-.24-.56-.53z"/><use xlink:href="#b" x="10.61"/><path fill="#000" stroke="none" d="M193.9 140.61c-.03-.63.88-.63.87 0v1.54h-.87z"/><path id="c" fill="#000" stroke="none" d="M188.57 142.84c0-.6.84-.62.83 0v1.19h-.83z"/><use xlink:href="#c" x="10.64"/></g><use xlink:href="#d" y="46.32"/><use xlink:href="#d" transform="rotate(-45.2 312.77 180)"/></g><use xlink:href="#d" x="45.71"/><use xlink:href="#e" transform="matrix(-1 0 0 1 479.8 0)"/><g id="f" fill="#fff"><path fill="#039" d="M232.64 202.4a8.4 8.4 0 0 0 2.2 5.69 7.3 7.3 0 0 0 5.31 2.38 7.2 7.2 0 0 0 5.3-2.37 8.3 8.3 0 0 0 2.2-5.69v-10.77l-14.99-.01z"/><circle cx="236.07" cy="195.74" r="1.49"/><circle cx="244.39" cy="195.74" r="1.49"/><circle cx="240.22" cy="199.74" r="1.49"/><circle cx="236.07" cy="203.92" r="1.49"/><circle cx="244.38" cy="203.91" r="1.49"/></g><use xlink:href="#f" y="-26.02"/><use xlink:href="#f" x="-20.8"/><use xlink:href="#f" x="20.75"/><use xlink:href="#f" y="25.78"/></svg>