<svg xmlns="http://www.w3.org/2000/svg" viewBox="0 0 600 330"><path fill="#0038a8" d="M0 0h600v330H0z"/><path fill="#fff" d="M0 0h600v220H0z"/><path fill="#d52b1e" d="M0 0h600v110H0z"/><g fill="none" stroke="#000"><circle cx="300" cy="165" r="42.2" stroke-width="1.08"/><circle cx="300" cy="165" r="34.67" stroke-width=".48"/><circle cx="300" cy="165" r="26.56" stroke-width=".44"/></g><path d="m277.53 181.28-4.9 2.9-1.49-2.51a4 4 0 0 1-.52-1.15q-.1-.45.1-.86.18-.42.65-.7.42-.24.8-.24.4 0 .77.2.24.12.51.4a2 2 0 0 1-.05-.5q0-.1.11-.39.1-.27.18-.39l.98-1.57 1.02 1.7-1.02 1.7q-.2.32-.21.5-.02.23.1.44l.08.13 1.99-1.18zm-3.81.21-.38-.64-.3-.36a.5.5 0 0 0-.3-.15.5.5 0 0 0-.34.07q-.24.15-.28.37c-.04.22.05.36.2.64l.4.66zm-4.61-3.78-1.49-4.47 1.16-.38.93 2.8.85-.3-.86-2.59 1.1-.36.87 2.6 1.06-.36-.96-2.88 1.23-.4 1.5 4.54zm-1.95-6.65-.33-2.9q-.11-.96.29-1.48t1.23-.62q.85-.1 1.4.37.53.45.66 1.51l.1.96 2.1-.24.2 1.75zm2.2-2.03-.04-.43q-.06-.51-.26-.69a.6.6 0 0 0-.47-.15.6.6 0 0 0-.43.23q-.17.2-.1.69l.05.5zm-2.38-8.65.19-1.74 3.37.36q.51.06.93.26t.73.57c.3.37.33.5.4.75q.12.53.05 1.25-.04.4-.16.9-.11.47-.31.78a2 2 0 0 1-1.25.85q-.56.11-.97.06l-3.38-.36.2-1.75 3.45.38a1 1 0 0 0 .75-.18q.29-.23.33-.69a1 1 0 0 0-.18-.73q-.22-.29-.7-.34zm.76-4.17 1.09-3.1q.26-.79.8-1.07.53-.27 1.1-.08.47.16.7.58.17.28.17.7.33-.51.77-.68.44-.16.95.03a1.6 1.6 0 0 1 1.02 1.17q.05.25-.04.7-.12.57-.19.76l-1 2.87zm2.7-.94.24-.72q.14-.38.06-.59t-.33-.28q-.24-.09-.42.02c-.18.11-.23.23-.32.48l-.26.74zm2.1.74.3-.85q.15-.42.06-.65a.5.5 0 0 0-.35-.32q-.24-.1-.44.04c-.2.14-.26.27-.36.56l-.3.84zm-2.11-6.64.9-1.5 3.68 2.21 1.42-2.35 1.2.73-2.33 3.85zm3.44-5.21 1.13-1.35 4.37 3.64-1.13 1.35zm7.65-2.94 1.47-.65q.3.6.34 1.14.03.54-.2 1.04a3 3 0 0 1-.81.99q-.71.6-1.33.78t-1.39-.06q-.77-.23-1.46-1.04-.92-1.07-.84-2.14.07-1.06 1.12-1.96a3 3 0 0 1 1.56-.77q.75-.07 1.56.42l-.95 1.27q-.23-.14-.38-.18a1 1 0 0 0-.9.23q-.45.39-.39.96.06.44.55 1.01.62.72 1.07.8t.84-.26q.37-.33.4-.71 0-.39-.26-.87m6.06-2.18-1.77.94.2.96-1.58.85-.8-6.03 1.7-.9 4.56 4.01-1.62.87zm-.9-.91-1.52-1.51.4 2.1zm5.37-5.83 2.57-.44q.76-.15 1.27-.01.5.13.88.46.36.34.6.82.22.5.32 1.06.16.9.04 1.43-.12.54-.43.93-.3.4-.7.58-.55.25-1 .33l-2.58.45zm1.95.97.53 3.06.43-.07q.53-.1.75-.25c.22-.15.23-.27.28-.49q.08-.31-.03-1-.15-.89-.5-1.16-.36-.28-1.03-.16zm5.36-1.95 4.7.2-.04 1.22-2.95-.13-.04.9 2.73.12-.05 1.16-2.73-.12-.05 1.12 3.04.13-.06 1.29-4.8-.2zm6.85.54 1.7.42-1.01 4.16 2.66.66-.33 1.36-4.37-1.07zm9.13 3.03 2.52 1.49q.82.48 1 1.12.17.63-.25 1.35-.44.75-1.13.9-.7.15-1.61-.4l-.83-.48-1.08 1.82-1.52-.9zm.29 2.99.37.22q.43.26.7.2a.6.6 0 0 0 .4-.28q.15-.23.09-.48t-.49-.5l-.43-.26zm4.93 6.63-1.47-1.36-.84.5-1.31-1.23 5.44-2.7 1.4 1.3-2.3 5.62-1.35-1.25zm.57-1.15.93-1.93-1.85 1.07zm.68 3.78 4.7-3.22 1.65 2.42q.45.67.59 1.1t-.03.87-.62.74q-.39.27-.78.3-.4.02-.78-.15-.24-.1-.53-.38.1.32.08.5 0 .12-.08.4t-.15.4l-.88 1.64-1.13-1.64.9-1.76q.18-.34.19-.51 0-.24-.14-.43l-.09-.13-1.9 1.3zm3.79-.46.42.61q.06.1.33.34.13.13.3.14.2 0 .34-.1.23-.15.25-.38.03-.23-.25-.63l-.44-.63z"/><path d="m327.36 155.2-.74-1.86-.98.1-.66-1.68 6.07-.12.72 1.78-4.5 4.1-.68-1.71zm1-.8 1.67-1.34-2.13.18zm1.49 6.22 1.17-.18.4 2.7-2.4.35a6 6 0 0 1-.92-1.26 4.7 4.7 0 0 1-.3-3.06q.25-.68.87-1.13.63-.46 1.5-.58.92-.15 1.66.14.75.28 1.2.96.36.53.5 1.5.15.94.04 1.42t-.4.84q-.32.36-.84.6l-.55-1.64q.3-.15.44-.42.13-.27.07-.66a1.2 1.2 0 0 0-.53-.85q-.45-.29-1.31-.15-.91.14-1.25.54t-.25 1.02q.04.29.17.54.12.25.37.56l.53-.08zm3.72 8.26-.16 1.75-3.37-.3a3 3 0 0 1-.94-.24 2 2 0 0 1-.74-.57q-.3-.36-.4-.74-.15-.52-.08-1.24.04-.42.13-.9.1-.48.3-.8a2 2 0 0 1 1.24-.87q.56-.1.97-.08l3.38.3-.16 1.75-3.46-.3a1 1 0 0 0-.75.19 1 1 0 0 0-.32.69q-.04.45.2.73.23.29.7.32zm-6.29 6.02.63-1.9-.81-.56.56-1.7 4.74 3.8-.6 1.83-6.07.25.57-1.75zm1.28.03 2.14.05-1.74-1.24zm2.04 4.63-1 1.67h-2.24l1.06 1.98-1 1.66-1.7-3.6-2.05-1.22.91-1.51 2.04 1.22z"/><g fill="#009b3a" stroke="#000" stroke-width=".1"><path d="M305.58 145.3s16.05 6.92 13.25 21.2-11.74 14.2-15.24 15.78-5.93 3.84-7.31 3.53-3.21-1.39-3.21-1.39-.15 2.35 2.67 2.78 6.51-3.7 8.29-4.17 12.69-1.64 15.34-16.18c3.1-15.52-13.69-21.1-13.79-21.55z"/><path d="M313.68 148.34a2.2.52 75.1 0 1-1.06.08 2.2.52 75.1 1 1 1.06-.08z"/><path d="M313.13 148.49a2.27.5 63.34 1 1-.96.35 2.27.5 63.34 0 1 .96-.35zm-1.61 1.06a2.15.53 17.05 0 1-.1 1.09 2.15.53 17.05 0 1 .1-1.09z"/><path d="M311.76 148.96a2.26.5 34.23 1 1-.46.92 2.26.5 34.23 1 1 .46-.92z"/><path d="M312.44 148.68a2.3.5 46.2 1 1-.7.72 2.3.5 46.2 0 1 .7-.72z"/><path d="M313.56 150.7c0 .01-.62.35-.76.4s-.34-.19-.75.02-.69.6-.78.82c-.08.22.12.32.62.08.49-.24.62-.62.86-.77s.64-.37.86-.45c.1-.22.42-.68.59-.95s.81-.7 1.05-1.2c.2-.43.13-.79-.15-.64-.27.15-.63.58-.8.88-.16.3-.02.7-.2.98-.15.2-.5.83-.54.83zm4.97 1.64a3.3.74 88.42 1 1-1.5-.36 3.3.74 88.42 1 1 1.5.36z"/><path d="M317.7 152.31a3.44.71 77.49 1 1-1.44.07 3.44.71 77.49 1 1 1.44-.07z"/><path d="M315.13 153.11a3.2.76 34.91 1 1-.5 1.51 3.2.76 34.91 1 1 .5-1.51z"/><path d="M315.65 152.38a3.43.71 50.9 0 1-.94 1.1 3.43.71 50.9 1 1 .94-1.1z"/><path d="M316.69 152.28a3.5.7 61.84 1 1-1.2.71 3.5.7 61.84 1 1 1.2-.71z"/><path d="M317.57 155.67c.01.02-.97.22-1.19.23s-.4-.42-1.03-.3a2.3 2.3 0 0 0-1.36.82c-.2.28.06.5.82.39.77-.13 1.08-.61 1.46-.72s1-.24 1.34-.26c.21-.26.8-.78 1.12-1.08s1.37-.64 1.86-1.27c.43-.5.44-1.06 0-.97a3.5 3.5 0 0 0-1.4.9c-.32.36-.25.98-.6 1.3-.27.24-.97.98-1.02.96zm3.57 3.33a.74 3.32 8.74 1 1-1.4-.64.74 3.32 8.74 1 1 1.4.64z"/><path d="M320.35 158.8a3.46.7 87.95 1 1-1.42-.2 3.46.7 87.95 1 1 1.42.2z"/><path d="M317.69 159.1a3.22.76 46.03 1 1-.76 1.4 3.22.76 46.03 1 1 .76-1.4z"/><path d="M318.33 158.48a3.46.7 61.8 1 1-1.12.91 3.46.7 61.8 1 1 1.12-.91z"/><path d="M319.35 158.58a3.53.7 72.54 1 1-1.3.47 3.53.7 72.54 1 1 1.3-.47z"/><path d="M319.61 162.09c0 .02-1 .03-1.2 0-.21-.03-.32-.5-.96-.5s-1.23.31-1.47.55-.04.52.73.54 1.16-.4 1.55-.43a7 7 0 0 1 1.36 0c.25-.21.93-.6 1.3-.85.36-.24 1.44-.37 2.04-.9.5-.41.62-.95.18-.95-.44.01-1.14.33-1.53.62-.39.3-.43.92-.83 1.17-.3.18-1.12.78-1.17.75m1.73 4.33a.74 3.32 31.31 0 1-1.01-1.17.74 3.32 31.31 0 1 1.01 1.17"/><path d="M320.69 165.91a.7 3.49 20.62 0 1-1.2-.78.7 3.49 20.62 0 1 1.2.78m-2.52-.82a3.28.75 69.93 0 1-1.23.98 3.28.75 69.93 0 1 1.23-.98"/><path d="M318.99 164.78a3.51.7 85.14 0 1-1.37.38 3.51.7 85.14 1 1 1.37-.38"/><path d="M319.88 165.3a.68 3.58 5.55 1 1-1.37-.1.68 3.58 5.55 1 1 1.37.1"/><path d="M318.75 168.66c0 .02-.91-.38-1.09-.5s-.1-.58-.67-.86a2.2 2.2 0 0 0-1.55-.09c-.31.12-.23.46.46.8.68.34 1.2.11 1.56.24s.95.38 1.24.57c.3-.1 1.08-.19 1.5-.26s1.45.25 2.2.02c.62-.18.93-.64.53-.81a3 3 0 0 0-1.63-.06c-.46.1-.74.67-1.2.74-.35.04-1.32.25-1.35.21m.59 5.29a.86 3.78 48.46 1 1-.73-1.66.86 3.78 48.46 1 1 .73 1.66"/><path d="M318.79 173.16a.82 3.98 37.47 1 1-1.07-1.3.82 3.98 37.47 1 1 1.07 1.3"/><path d="M316.29 171.34a3.8.86 86.52 1 1-1.68.64 3.8.86 86.52 1 1 1.68-.64"/><path d="M317.29 171.29a.8 4.05 11.63 0 1-1.63-.07.8 4.05 11.63 1 1 1.63.07"/><path d="M318.1 172.18a.8 4.11 22.12 1 1-1.47-.6.8 4.11 22.12 1 1 1.47.6"/><path d="M315.75 175.49c0 .02-.88-.75-1.04-.94-.15-.2.1-.69-.46-1.2a2.5 2.5 0 0 0-1.66-.66c-.4.02-.41.43.23 1.05s1.29.56 1.65.84.92.76 1.17 1.07c.38 0 1.25.18 1.74.25s1.51.8 2.4.82c.75.02 1.24-.37.86-.7a3.6 3.6 0 0 0-1.77-.66c-.54-.04-1.04.47-1.57.38-.39-.08-1.53-.19-1.55-.25m-1.58 5.05a.97 4.17 79.75 1 1 .2-2 .97 4.17 79.75 1 1-.2 2"/><path d="M314.09 179.47a.92 4.37 68.5 0 1-.33-1.85.92 4.37 68.5 0 1 .33 1.85"/><path d="M312.66 176.29a.96 4.18 26.24 0 1-1.97-.36.96 4.18 26.24 1 1 1.97.36"/><path d="M313.66 176.83a.91 4.43 41.82 0 1-1.53-1.01.91 4.43 41.82 0 1 1.53 1.01"/><path d="M313.95 178.15a.9 4.5 52.67 1 1-1.09-1.43.9 4.5 52.67 0 1 1.09 1.43"/><path d="M309.87 179.93c-.02.02-.44-1.22-.48-1.5-.05-.27.45-.6.2-1.4s-.86-1.39-1.25-1.59c-.38-.2-.62.17-.34 1.13.28.97.94 1.28 1.13 1.75.2.47.47 1.26.54 1.7.37.22 1.11.9 1.54 1.25.44.35 1.03 1.64 1.89 2.16.7.46 1.39.37 1.2-.17a4 4 0 0 0-1.35-1.64c-.5-.36-1.26-.16-1.72-.55-.33-.3-1.37-1.07-1.36-1.14"/><path d="M307.4 184.24a1.21 4.22 89.07 0 1 0-2.42 1.21 4.22 89.07 0 1 0 2.42"/><path d="M306.84 180.45a1.17 4.37 37.59 0 1-1.8-1.5 1.17 4.37 37.59 1 1 1.8 1.5"/><path d="M307.43 182.38a1.2 4.27 66.47 0 1-.86-2.24 1.2 4.27 66.47 0 1 .86 2.24m1.15-36.72a2.62.53 41.13 0 1-1 .54 2.62.53 41.13 1 1 1-.54m-1.29 1.09a2.65.53 8.16 0 1 .2 1.09 2.65.53 8.16 1 1-.2-1.09"/><path d="M307.81 146.06a2.78.5 26.82 1 1-.53.86 2.78.5 26.82 0 1 .53-.86m-19.02 34.07s3.54.76 6.61 1.88 7.74 4.95 9 5.16c1.4.07 3.36-.41 4.1-2.45-2.17.58-3.47 1.46-5.54.32-.73-.27-3.12-2.45-5.75-3.62s-7.92-2.5-7.92-2.5l-.5 1.21m3.77-31.97c-.01-.03 4.07-2.15 4.07-2.15l-4.49 1.15-.52.79.94.21"/><path d="M296.42 149.15c-1.58-.29-4-.82-5.54-.94 1.06-1.18 2.53-3.18 3.44-4.4-.6 1.16-1.54 2.7-1.9 3.83 1.08.58 2.79 1.04 4 1.51"/><path d="M291.83 148.41c-.02-.03 3.62-2.8 3.62-2.8l-4.2 1.88-.38.87.96.05"/><path d="M295.69 149.11c-1.59-.3-4.03-.86-5.58-1 1.05-1.2 2.48-3.27 3.37-4.53-.58 1.2-1.49 2.8-1.84 3.95 1.1.61 2.82 1.1 4.05 1.58"/><path d="M291.23 148.64c-.01-.03 4.26-1.78 4.26-1.78l-4.59.75-.59.74.92.29"/><path d="M295.21 149.15c-1.6-.13-4.09-.43-5.63-.4.89-1.35 2.07-3.6 2.8-4.98-.44 1.29-1.15 3-1.36 4.22 1.16.5 2.92.8 4.19 1.16"/><path d="M290.79 148.66c-.02-.02 2.89-3.52 2.89-3.52l-3.66 2.74-.17.93.94-.15"/><path d="M295.19 149.38c-1.72-.03-4.39-.18-6.03-.04a73 73 0 0 0 2.47-5.63c-.32 1.43-.91 3.36-1.01 4.7 1.28.46 3.18.66 4.57.97"/><path d="M290.21 149.49c-.02-.03 3.5-3.36 3.5-3.36l-4.24 2.34-.29 1 1.03.02"/><path d="M294.42 149.49c-1.85 0-4.7-.1-6.5.1 1.2-1.7 2.83-4.53 3.84-6.26-.65 1.6-1.68 3.72-2.07 5.2 1.29.48 3.3.66 4.73.96"/><path d="M289.03 149.74c-.02-.03 4.48-3.8 4.48-3.8l-5.06 2.7-.52 1.11 1.1-.01"/><path d="M293.75 149.6c-1.83.26-4.66.56-6.42 1.01.94-1.84 2.15-4.82 2.9-6.65-.41 1.65-1.13 3.87-1.3 5.36 1.34.3 3.36.18 4.82.28"/><path d="M288.43 150.49c-.03-.03 3.45-4.78 3.45-4.78l-4.3 3.9-.24 1.19 1.09-.31"/><path d="M292.74 150.17c-1.84.17-4.69.33-6.47.69a104 104 0 0 0 3.27-6.5c-.5 1.63-1.35 3.81-1.6 5.3 1.32.35 3.34.34 4.8.51"/><path d="M287.81 150.99c-.02-.03 4.39-3.8 4.39-3.8l-4.98 2.69-.5 1.12 1.09-.01"/><path d="M292.2 150.36c-1.84.39-4.69.88-6.44 1.44.86-1.87 1.94-4.9 2.6-6.75-.34 1.65-.95 3.89-1.05 5.37 1.37.2 3.4-.05 4.89-.06"/><path d="M287.08 151.19c-.03-.02 2.8-5.2 2.8-5.2l-3.8 4.5-.05 1.19 1.05-.49"/><path d="M292.2 150.66c-1.97.51-5.04 1.19-6.9 1.9.71-2.14 1.53-5.56 2.03-7.66-.17 1.85-.57 4.38-.5 6.04 1.54.16 3.74-.2 5.37-.28"/><path d="M286.53 152.39c-.03-.03 3.53-5.22 3.53-5.22l-4.51 4.22-.2 1.32 1.18-.32"/><path d="M291.42 151.25c-1.94.61-4.96 1.44-6.78 2.24.61-2.15 1.26-5.57 1.67-7.67-.08 1.84-.37 4.36-.22 6 1.54.07 3.71-.41 5.33-.57"/><path d="M285.82 153.16c-.03-.02 2.69-5.76 2.69-5.76l-3.82 4.96.01 1.33 1.12-.53"/><path d="M290.68 152.04c-1.98.45-5.07 1.03-6.95 1.68.8-2.1 1.76-5.45 2.35-7.51-.25 1.83-.76 4.32-.76 5.96 1.52.2 3.73-.1 5.36-.13"/><path d="M285.18 153.71c-.02-.04 4.39-4.5 4.39-4.5l-5.17 3.33-.43 1.27 1.21-.1"/><path d="M289.8 152.82c-1.97.26-5.02.55-6.9 1.02.92-2.05 2.06-5.37 2.77-7.41-.36 1.83-1 4.32-1.1 6 1.46.34 3.64.26 5.23.39"/><path d="M284.31 153.26c-.03-.03 2.99-5.64 2.99-5.64l-4.05 4.75-.07 1.34 1.13-.45"/><path d="M290.04 152.15c-2.14.88-5.48 2.1-7.48 3.18.66-2.54 1.35-6.56 1.78-9.04-.08 2.15-.37 5.1-.19 6.98 1.7-.06 4.1-.8 5.89-1.12"/><path d="M283.9 154.97c-.03-.03 3.57-6.47 3.57-6.47l-4.71 5.47-.13 1.53 1.27-.53"/><path d="M289.22 152.95c-2.1.98-5.37 2.38-7.33 3.56.55-2.54 1.06-6.54 1.38-9 .02 2.11-.14 5.03.12 6.88 1.7-.15 4.06-1.02 5.83-1.44"/><path d="M283.17 155.95c-.04-.02 2.6-6.97 2.6-6.97l-3.9 6.23.1 1.5 1.2-.76"/><path d="M288.3 153.53c-2.09 1-5.36 2.42-7.3 3.61.52-2.54 1-6.54 1.3-9 .04 2.11-.1 5.03.18 6.87 1.69-.16 4.05-1.04 5.82-1.48"/><path d="M282.58 156.78a398 398 0 0 1 4.03-6.14l-5.08 5.02-.25 1.53 1.3-.41"/><path d="M288.11 153.21c-1.86 1.49-4.81 3.67-6.5 5.3 0-2.56-.34-6.5-.55-8.94.47 2.01.94 4.84 1.59 6.53 1.64-.58 3.8-2.02 5.46-2.89"/><path d="M282.78 157.07c-.04 0 .47-7.36.47-7.36l-1.95 7.16.55 1.34.93-1.14"/><path d="M287.58 153.89c-1.87 1.48-4.83 3.65-6.51 5.28 0-2.57-.32-6.53-.52-8.96.46 2.02.91 4.85 1.56 6.55 1.64-.58 3.8-2.01 5.47-2.87"/><path d="M282.31 158.32c-.04-.02 1.88-7.2 1.88-7.2l-3.25 6.62.25 1.48 1.12-.9"/><path d="M287.37 154.06c-1.77 1.74-4.58 4.32-6.14 6.2a127 127 0 0 0-1.53-9.13c.7 2.01 1.48 4.86 2.34 6.53 1.63-.8 3.7-2.52 5.33-3.6"/><path d="M282.32 159.24c-.05 0 .35-7.65.35-7.65l-1.88 7.43.59 1.4.94-1.18"/><path d="M286.81 155.33c-1.89 1.56-4.88 3.86-6.58 5.58-.06-2.67-.5-6.77-.77-9.3.53 2.09 1.07 5.02 1.78 6.78 1.68-.63 3.87-2.15 5.57-3.06"/><path d="M281.76 160.11c-.04-.02 2.66-7.2 2.66-7.2l-4 6.38.11 1.58 1.23-.76"/><path d="M286.78 155.36c-1.67 1.77-4.34 4.4-5.82 6.3-.26-2.67-1-6.74-1.45-9.25.66 2.04 1.4 4.93 2.22 6.61 1.55-.8 3.5-2.56 5.05-3.66"/><path d="M281.86 160.48c-.05 0-.32-7.6-.32-7.6l-1.23 7.57.7 1.32.85-1.29"/><path d="M285.96 155.93c-1.62 1.79-4.2 4.44-5.62 6.35-.34-2.67-1.2-6.74-1.73-9.24.73 2.04 1.55 4.92 2.41 6.6 1.52-.82 3.43-2.6 4.94-3.71"/><path d="M281.43 161.24c-.04-.01.85-7.73.85-7.73l-2.27 7.31.46 1.5.96-1.08"/><path d="M285.61 156.23c-1.48 1.93-3.86 4.82-5.13 6.87-.54-2.63-1.7-6.59-2.42-9.03.87 1.96 1.92 4.74 2.9 6.33 1.46-.96 3.23-2.92 4.65-4.17"/><path d="M281.4 161.96c-.04 0-.49-7.74-.49-7.74l-.97 7.68.7 1.35.76-1.29"/><path d="M285.46 156.67c-1.39 2.02-3.63 5.06-4.8 7.18-.69-2.6-2.06-6.54-2.9-8.96.98 1.92 2.17 4.67 3.24 6.22 1.42-1.04 3.1-3.1 4.46-4.44"/><path d="M281.88 162.68c-.04-.01.79-7.77.79-7.77l-2.22 7.3.47 1.53.96-1.06"/><path d="M285.18 157.39c-1.2 2.2-3.15 5.53-4.13 7.8-.9-2.5-2.62-6.2-3.67-8.5 1.14 1.78 2.57 4.35 3.77 5.74 1.31-1.24 2.8-3.52 4.03-5.04"/><path d="M281.61 163.32c-.04.01-2.17-7.37-2.17-7.37l.73 7.77.98 1.1.46-1.5"/><path d="M285.13 158.25c-1.25 2.2-3.28 5.52-4.3 7.78-.92-2.49-2.65-6.2-3.71-8.47 1.16 1.76 2.6 4.33 3.83 5.71 1.36-1.23 2.9-3.5 4.18-5.02"/><path d="M281.71 164.71c-.05 0-.8-7.75-.8-7.75l-.72 7.75.78 1.33.74-1.33"/><path d="M285.26 158.93c-1.28 2.17-3.37 5.44-4.43 7.68a126 126 0 0 0-3.57-8.56c1.13 1.8 2.54 4.39 3.74 5.8 1.38-1.2 2.96-3.44 4.26-4.92"/><path d="M281.64 165.33c-.05 0-1.44-7.61-1.44-7.61l-.07 7.8.88 1.22.63-1.41"/><path d="M284.71 160.03c-1.38 2.08-3.62 5.2-4.78 7.37-.76-2.58-2.25-6.43-3.16-8.8 1.04 1.87 2.32 4.56 3.46 6.05 1.43-1.1 3.1-3.23 4.48-4.62"/><path d="M280.97 166.18c-.04-.01.64-7.78.64-7.78l-2.12 7.38.52 1.5.96-1.1"/><path d="M284.79 160.22c-1.18 2.25-3.12 5.65-4.07 7.96-.99-2.45-2.83-6.08-3.96-8.31 1.21 1.71 2.74 4.21 4 5.54 1.32-1.29 2.8-3.62 4.03-5.19"/><path d="M280.71 166.83c-.04.01-2.39-7.25-2.39-7.25l.92 7.71 1.03 1.05.44-1.51"/><path d="M284.47 160.8c-.83 2.47-2.22 6.23-2.81 8.71-1.34-2.2-3.7-5.36-5.15-7.3 1.45 1.42 3.33 3.54 4.77 4.57 1.11-1.55 2.21-4.17 3.19-5.98"/><path d="M282.83 167.42c-.04.02-2.58-7.15-2.58-7.15l1.12 7.67 1.06 1 .4-1.52"/><path d="M284.45 161.56c-.8 2.48-2.17 6.26-2.75 8.74-1.36-2.18-3.74-5.32-5.2-7.25 1.46 1.4 3.35 3.51 4.8 4.53 1.1-1.57 2.18-4.2 3.15-6.02"/><path d="M282.85 168.64c-.04.02-3.33-6.69-3.33-6.69l1.94 7.43 1.16.83.23-1.57"/><path d="M284.2 162.18c-.52 2.57-1.44 6.51-1.72 9.06-1.6-1.97-4.32-4.74-6-6.44 1.62 1.18 3.74 3 5.3 3.8.9-1.71 1.67-4.48 2.42-6.42"/><path d="M283.07 169.69c-.05 0-1.8-7.5-1.8-7.5l.3 7.79.94 1.16.56-1.45"/><path d="M284.21 162.98c-.27 2.63-.82 6.68-.87 9.25-1.76-1.74-4.72-4.13-6.54-5.6 1.71.96 3.98 2.48 5.6 3.06.74-1.82 1.25-4.68 1.81-6.71"/><path d="M283.16 170.24c-.04.03-4.74-5.41-4.74-5.41l3.57 6.55 1.3.45-.13-1.59"/><path d="M284.31 163.9c-.28 2.63-.85 6.67-.9 9.24-1.76-1.75-4.71-4.16-6.52-5.64 1.7.97 3.97 2.5 5.58 3.1.75-1.82 1.27-4.67 1.84-6.7"/><path d="M283.69 171.49c-.04.02-3.64-6.52-3.64-6.52l2.29 7.32 1.2.78.15-1.58"/><path d="M284.52 164.98c-.17 2.64-.57 6.72-.51 9.3-1.83-1.65-4.88-3.88-6.75-5.25 1.75.87 4.07 2.26 5.7 2.76.68-1.87 1.08-4.75 1.56-6.81"/><path d="M284.15 172.69c-.04.03-4.5-5.7-4.5-5.7l3.28 6.77 1.29.52-.07-1.59"/><path d="M284.57 166.2c-.16 2.65-.53 6.73-.46 9.3-1.84-1.63-4.9-3.83-6.77-5.19 1.75.86 4.08 2.23 5.72 2.71.66-1.87 1.04-4.75 1.51-6.82"/><path d="M284.56 173.66c-.04.02-3.15-6.88-3.15-6.88l1.74 7.53 1.14.9.27-1.55"/><path d="M284.69 166.99c.09 2.66.1 6.77.41 9.32-1.97-1.38-5.21-3.15-7.2-4.25 1.81.61 4.25 1.67 5.93 1.92.48-1.95.58-4.87.86-6.99"/><path d="M285.11 173.39a325 325 0 0 1-5.76-3.94l4.88 5.38 1.36.07-.48-1.51"/><path d="M284.87 167.27c.23 2.64.46 6.74.9 9.27-2.05-1.3-5.39-2.94-7.44-3.96 1.85.54 4.35 1.5 6.04 1.7.38-1.97.34-4.88.5-7.01"/><path d="M285.73 174.86c-.04.03-4.8-5.52-4.8-5.52l3.64 6.63 1.3.48-.14-1.59"/><path d="M285.29 168.28c.34 2.63.74 6.72 1.29 9.23-2.1-1.18-5.5-2.63-7.58-3.52 1.87.43 4.4 1.24 6.09 1.33.3-1.98.13-4.9.2-7.04"/><path d="M286.69 175.79c-.03.04-5.72-4.04-5.72-4.04l4.83 5.46 1.35.1-.46-1.52"/><path d="M285.47 169.4c.51 2.6 1.18 6.65 1.9 9.1-2.17-.97-5.64-2.1-7.77-2.8 1.88.26 4.45.83 6.14.76.16-2.01-.2-4.91-.27-7.06"/><path d="M287.32 176.59c-.04.03-4.73-5.6-4.73-5.6l3.55 6.68 1.3.5-.12-1.58"/><path d="M285.78 170.12c.75 2.53 1.8 6.49 2.72 8.85-2.22-.69-5.76-1.35-7.93-1.77 1.89 0 4.48.23 6.14-.06-.03-2.03-.66-4.89-.93-7.02"/><path d="M287.57 176.6c-.01.05-6.6-1.42-6.6-1.42l6.28 3.13 1.27-.48-.95-1.23"/><path d="M286.21 170.91c.74 2.53 1.77 6.5 2.69 8.86-2.23-.7-5.76-1.38-7.93-1.8 1.89 0 4.48.25 6.14-.04-.02-2.03-.64-4.88-.9-7.02"/><path d="M288.65 177.3c-.02.05-6.32-3.05-6.32-3.05l5.67 4.6 1.36-.13-.71-1.42"/><path d="M285.88 171.35c1.26 2.3 3.1 5.95 4.49 8.05-2.32-.18-5.9-.05-8.1.03 1.83-.41 4.4-.77 5.97-1.42-.45-1.98-1.66-4.63-2.36-6.66"/><path d="M289.65 177.99c-.01.05-6.57-1.81-6.57-1.81l6.17 3.49 1.3-.4-.9-1.28"/><path d="M286.56 172.33c1.27 2.3 3.13 5.93 4.53 8.02-2.31-.16-5.9 0-8.1.1 1.84-.43 4.41-.8 5.97-1.47-.47-1.98-1.68-4.63-2.4-6.65"/><path d="M290.48 178.53c-.02.04-6.12-3.66-6.12-3.66l5.35 5.12 1.37.01-.6-1.47"/><path d="M287.07 172.91c1.47 2.15 3.65 5.55 5.23 7.47-2.29.14-5.79.77-7.94 1.15 1.76-.67 4.25-1.38 5.7-2.25-.64-1.93-2.1-4.43-2.99-6.37"/><path d="M290.93 179.07c0 .05-6.6-.16-6.6-.16l6.53 1.94 1.16-.73-1.09-1.05m3.83-32.01c0-.02 4.75-.8 4.75-.8l-4.73.12-.82.42.8.26"/><path d="M297.37 148.07c-1.38-.42-3.46-1.11-4.88-1.42 1.5-.6 3.73-1.66 5.1-2.31-1.05.66-2.58 1.5-3.4 2.17.79.53 2.22 1.08 3.18 1.56"/><path d="M294.55 147.22c0-.02 4.6-1.26 4.6-1.26l-4.77.6-.71.5.88.16"/><path d="M297.59 148.41c-1.61-.15-4.08-.46-5.67-.48 1.2-1.06 2.87-2.83 3.9-3.92-.7 1.02-1.8 2.38-2.27 3.35 1.08.43 2.82.72 4.04 1.05"/><path d="M292.84 147.55c0-.02 4.78-.54 4.78-.54l-4.66-.15-.87.38.75.31"/><path d="M296.38 148.59c-1.47-.28-3.7-.77-5.17-.94 1.4-.7 3.46-1.88 4.72-2.61-.94.71-2.33 1.64-3.04 2.33.9.45 2.44.85 3.49 1.22"/><path d="M292.43 147.5c-.01-.02 4.2-1.81 4.2-1.81l-4.6 1.22-.55.56.95.03"/><path d="M296.24 149.12c-1.22-.5-3.09-1.36-4.3-1.71.94-.87 2.26-2.4 3.07-3.33-.57.94-1.43 2.14-1.8 3.07.8.69 2.11 1.36 3.03 1.97"/><path d="M292.67 147.81c0-.03 3.27-1.42 3.27-1.42l-3.56.49-.44.64.73.29m-2.74 30.65c0 .05-6.78.05-6.78.05l6.87 1.68 1.12-.74-1.21-.99"/><path d="M291.15 178.9c0 .05-6.89-1.6-6.89-1.6l6.62 3.24 1.3-.42-1.03-1.22"/><path d="M292.28 179.36c0 .05-6.84-.34-6.84-.34l6.84 2.06 1.17-.67-1.17-1.05"/><path d="M287.94 174.53c1.78 1.96 4.45 5.09 6.31 6.82-2.3.34-5.76 1.27-7.88 1.84 1.69-.81 4.11-1.73 5.47-2.72-.92-1.82-2.73-4.13-3.9-5.94"/><path d="M293.22 179.71c-.01.05-6.84-2.24-6.84-2.24l6.43 3.82 1.34-.28-.93-1.3"/><path d="M288.57 174.98c1.94 1.77 4.86 4.6 6.86 6.13-2.2.63-5.47 2-7.48 2.84 1.56-1.03 3.82-2.26 5.04-3.43-1.08-1.73-3.09-3.85-4.42-5.54"/><path d="M293.78 180.13c.01.05-6.49 1.28-6.49 1.28l6.84.46.96-.95-1.31-.79"/><path d="M292.43 179.72c0 .05-6.77.52-6.77.52l6.98 1.2 1.07-.81-1.28-.91"/><path d="M293.68 180.08c0 .05-7-1.12-7-1.12l6.85 2.77 1.26-.5z"/><path d="M294.84 180.46c0 .05-6.85.13-6.85.13l6.98 1.58 1.12-.74z"/><path d="M290.14 175.94c1.92 1.83 4.82 4.76 6.81 6.36-2.27.5-5.65 1.67-7.73 2.38 1.63-.93 3.98-2.01 5.26-3.08-1.05-1.76-3.03-3.93-4.34-5.66z"/><path d="M295.81 180.74c0 .05-7-1.76-7-1.76l6.7 3.37 1.33-.38z"/><path d="M290.81 176.34c2.07 1.63 5.2 4.26 7.31 5.64-2.15.78-5.31 2.37-7.26 3.34 1.48-1.14 3.65-2.51 4.78-3.76-1.21-1.66-3.37-3.63-4.83-5.22z"/><path d="M296.4 181.12c.01.05-6.38 1.72-6.38 1.72h6.86l.89-1.02z"/></g><path fill="#fedf00" stroke="#000" stroke-width=".3" d="m305.21 171.52-5.21-3.6-5.21 3.6 1.95-5.76-4.56-3.6h5.86l1.96-5.77 1.95 5.77h5.87l-4.56 3.6z"/></svg>