<svg xmlns="http://www.w3.org/2000/svg" viewBox="0 0 750 500"><path fill="#006c35" d="M0 0h750v500H0z"/><path fill="#fff" fill-rule="evenodd" d="M323.28 118.09q-.58-.03-1.78.69c-1.83 1.22-5.45 5-5.56 9.34-.11 2.45-.58 2.44 1.03 4 1.16 1.67 2.31 1.5 4.65.28a5 5 0 0 0 2.25-3.28c.56-2.78-2.93 1.32-3.37-1.78-.78-2.88 1.45-4.06 3.56-6.84.05-1.31.07-2.38-.78-2.41m34.06.19c-.65.09-1.45.92-2.56 2.94-.8 2.1-4.23 5.3-1.75 11.87 2.02 4.17 2.86 10.95 1.94 18.5-1.4 2.15-1.73 2.89-3.57 5.03-2.58 2.78-5.38 2.07-7.53 1.03-2-1.35-3.58-2.04-4.5-6.34.17-6.85.57-18.06-.68-20.44-1.85-3.68-4.9-2.36-6.2-1.25-6.24 5.71-9.32 15.36-11.21 23.03-1.73 5.6-3.58 3.98-4.88 1.72-3.15-2.96-3.37-26.08-7.18-22.28-6.1 17.44 3.5 36.54 10.15 34.69 4.8 1.99 7.85-7.15 9.82-17.16 1.34-2.8 2.37-3.13 3.06-1.69-.18 13.31.95 16.28 4.37 20.32 7.63 5.88 13.95.74 14.44.25l5.94-5.94c1.32-1.4 3.07-1.48 4.94-.25 1.81 1.65 1.58 4.5 5.46 6.47 3.28 1.3 10.26.32 11.88-2.5 2.18-3.74 2.7-5.02 3.72-6.44 1.55-2.07 4.22-1.15 4.22-.5-.25 1.15-1.82 2.3-.75 4.37 1.85 1.4 2.28.5 3.37.2 3.87-1.86 6.78-10.26 6.78-10.26.17-3.13-1.6-2.9-2.75-2.25-1.48.91-1.57 1.22-3.06 2.13-1.9.28-5.56 1.53-7.37-1.28-1.86-3.38-1.87-8.1-3.29-11.5 0-.25-2.47-5.36-.18-5.7 1.15.22 3.64.87 4.03-1.21 1.21-2.02-2.62-7.76-5.22-10.66-2.26-2.48-5.38-2.78-8.4-.25-2.12 1.95-1.81 4.13-2.23 6.2a9.7 9.7 0 0 0 1.97 8.43c2.12 4.17 5.96 9.51 4.7 17.06 0 0-2.24 3.6-6.17 3.13-1.63-.36-4.3-1.07-5.71-11.54-1.08-7.92.26-19.02-3.1-24.21-.76-1.97-1.4-3.87-2.5-3.72m-10.78.84c-1.02.09-2.14 1.27-3.06 3.56-.79 1.74-1.75 10.84-1.6 10.84-.62 2.71 2.84 3.86 4.41.38 2.36-6.39 2.37-9.1 2.53-11.81-.36-2.07-1.26-3.06-2.28-2.97m39.81.72c-1.04.1-1.87.7-2.18 2.25-.42 3.63-.2 5.6.4 8.62.47 2.02 3.4 5.39 4.85 7.35a652 652 0 0 1 19.93 28.21 291 291 0 0 1 2.22 21.13c1.04 15.28 1.36 34.3.41 50.4 2.86.12 7.45-4.62 9.06-11.56 1.05-9.6-.37-29.18-.47-34.84-.06-2.35-.2-5.16-.37-8.1A527 527 0 0 1 442 222.57c2.59-1.23 2.01-15.8.5-17.85-5.68-12.23-13.53-24.3-16.03-28.94-.9-1.67-3.98-6.35-7.63-11.75-.67-7.7-1.4-14.22-1.87-16.18-1.17-8.14 3.34.91 2.72-3.82-1.47-8.12-5.95-13.65-11.25-21.1-1.71-2.41-1.68-2.9-4.32.6a15.5 15.5 0 0 0-1.09 9.35c-.7-1.01-1.55-2.2-2.78-3.7-4.58-3.92-4.86-4.13-8.66-7.33-1.2-.85-3.47-2.16-5.22-2zm118 1.22c-.5-.08-1.06.17-1.68 1.09a7.1 7.1 0 0 0-2.44 5.37c.29 4.3 1.05 8.68 1.34 12.97l.32 1.72a17 17 0 0 0-1.1-1.28c-8.36-8.78 3.84-1.43-1.6-8.22-4.59-5.05-5.93-6.65-9.87-9.69-1.97-1.27-3.16-3.7-3.81.44-.26 3.65-.53 7.87-.28 10.94-.02 1.7 1.75 4.92 3.28 6.81a731 731 0 0 1 17 21.75c1.2 15.52 1.53 29.74 2.75 45.28-.17 6.65-2.22 15.48-4.16 16.32 0 0-2.96 1.7-4.93-.2-1.44-.57-7.2-9.59-7.2-9.59-2.93-2.7-4.9-1.92-7 0-5.77 5.58-8.38 16.03-12.3 23.22-1.02 1.6-3.87 2.98-7.03-.12-8.05-11-3.35-26.65-4.35-22.63-7.17 8.08-4 21.47-2.37 24.35 2.36 4.73 4.27 7.75 8.87 10.1 4.2 3.07 7.45 1.15 9.25-1 4.22-4.38 4.27-15.55 6.25-17.76 1.39-4.06 4.87-3.36 6.56-1.56a16 16 0 0 0 6 5.19c3.94 3.46 8.63 4.1 13.25.93 3.17-1.77 5.22-4.07 7.07-8.62 1.98-5.31 1-33.14.56-48.63q4.45 6.3 8.81 12.78a317 317 0 0 1 1.44 39.82c-.3 2.55 8.9-7.62 8.84-12.44-.04-4.22.01-8.04 0-11.6a491 491 0 0 1 12.88 21.72c2.53-1.34 1.66-15.67.06-17.65-4.28-7.18-9.76-14.94-14-20.94a396 396 0 0 0-2.5-19.25c-.8-4.27-1.62-10.68-2.84-15.75-.34-1.98-1.35-8.3-1.03-8.9.5-1.42 2.38.04 3.3-1.6 1.4-1.52-4.81-17.6-7.96-22.19-1.13-2.06-3.18-1.34-5.72 2-2.35 2.2-1.5 7.22-.6 12a661 661 0 0 1 6.07 36.94c-3.05-4.53-6.77-10.02-10.44-15.31l-.47-2.4c0-.23-.5-9.97-.93-12.29-.08-.94-.3-1.21.68-1.1 1.05.89 1.2.93 1.85 1.23 1.05.19 1.98-1.6 1.34-3.25l-9.81-18.13c-.4-.39-.84-.8-1.35-.87m-304.53.3c-1.8-.04-3.8 1.08-3.03 3.26-.45 1.18 3.55 5.2 4.25 7.4.63 1.57-.62 6.63.69 7.1 1.2.52 2.87-3.5 3.5-7.22.35-2.04.09-9-4.66-10.44q-.36-.08-.75-.1m346.91.05c-.4.04-.91.7-1.68 2.34-1.86 3.04-2.5 8.48-1.75 13.28 4.46 30.2 7.78 59.45 8.47 86.22-.39 2.54-.5 3.9-1.7 7.1-2.63 3.37-5.53 7.6-8.27 9.65-2.74 2.04-8.57 3.99-10.47 5.5-6.05 3.5-6.08 7.51-1.19 7.66 8.42-.98 18.39-1.67 25.25-12.03 1.84-2.9 4-10.78 4.1-15.6.64-28.24-.37-55.86-4.6-76.28-.27-1.99-1.15-6.56-.81-7.15.54-1.4 3.3.14 4.28-1.47 1.44-1.47-7.13-12.44-10.13-17.13-.6-1.18-.97-2.14-1.5-2.1m-88.3.47c-.36.06-.87.59-1.82 1.84-2.35 7.7-3.18 13.97-2.28 18.75 6.04 31.53 12.23 60.26 11.25 90.28 2.86.02 6.18-6.55 7.6-13.06.77-8.96-.53-14.42-.76-19.69s-5.96-48.01-7.12-52c-1.4-7.54 5.57-.99 4.81-5.37-2.41-5.53-8.43-13.58-10.31-18.38-.71-1.28-.8-2.47-1.38-2.37m-215.04.59c-.74.13-1.46.74-1.72 1.75-.16.66.29 1.76-.3 2.1-.35.34-1.66.1-1.6-1.72 0-.59-.43-1.2-.7-1.57-.25-.17-.43-.22-.9-.22-.57.03-.56.18-.87.66-.14.49-.32.97-.32 1.53-.07.65-.33.87-.81.97-.54 0-.41.06-.85-.22-.26-.28-.56-.4-.56-.87 0-.5-.13-1.3-.28-1.63-.23-.3-.59-.46-1-.56-2.25 0-2.41 2.59-2.28 3.56-.17.18-.25 4.76 2.8 6.03 4.12 1.96 11.84 1.13 11.5-5.5 0-.59-.12-2.56-.18-3.1-.42-.97-1.2-1.34-1.94-1.21zm55.19.06a9 9 0 0 0-3.75 1.03c-2.73 2.61-3.37 6.8-1.22 9.41 2.1.99 4.18 3.09 2.78 4.25-5.9 6.31-21.28 16.86-22.06 18.78l-.03.06v.1l.03.06.03.03h.03l.03.03h.04l.03.03c.78.53 10.4.52 11.47.03l.03-.03h.03v-.03c3.3-1.22 19-19.15 19-19.15-.82-.7-1.56-1.21-2.38-1.91-.87-.75-.78-1.5 0-2.25 3.89-2.26 2.66-7.24.63-9.5a10 10 0 0 0-4.69-.94m144.25.07c-.41.04-.92.67-1.69 2.3-1.85 3.05-3.11 8.34-2.97 13.29 4.02 27.81 5.25 52.15 7.88 79.97.21 2.69-.18 6.6-1.97 8.15-6.61 6.91-16.15 15.43-26.53 19.35-1.12 1.25 2.78 6.6 7.81 6.6 8.42-.99 15.82-5.71 22.69-18.16 1.83-2.9 5.06-9.12 5.16-13.94.64-28.25-1.43-50.21-5.66-70.63-.27-1.99-.09-4.34.25-4.93.54-.66 2.4.01 3.37-1.6 1.44-1.47-3.84-13.65-6.84-18.34-.6-1.18-.97-2.12-1.5-2.07m-223.47.85c-1.16.13-2.26 1.08-2.78 2.34-.2 4.46-.22 8.92.28 13.03 2.03 7.21 2.67 13.55 3.66 20.94.27 9.89-5.72 4.28-5.44-.63 1.38-6.37 1-16.4-.22-18.94-.97-2.54-2.1-3.16-4.47-2.75-1.88-.11-6.73 5.18-8.1 13.94 0 0-1.12 4.5-1.62 8.5-.66 4.53-3.66 7.73-5.75-.62-1.8-6.07-2.91-21.03-5.94-17.53-.86 11.68-1.89 32.23 8.04 34.34 12 1.15 5.37-20.3 9.71-24.19.83-1.92 2.35-1.96 2.47.47v18.22c-.1 5.92 3.8 7.68 6.82 8.9 3.14-.24 5.23-.15 6.47 2.91l1.5 31.53s7.27 2.1 7.62-17.71c.35-11.64-2.32-21.4-.75-23.66.06-2.22 2.9-2.33 4.88-1.25 3.13 2.21 4.52 4.94 9.4 3.84 7.42-2.04 11.9-5.64 12-11.34-.43-5.42-1.06-10.84-3.4-16.25.32-.99-1.43-3.55-1.1-4.53 1.33 2.09 3.35 1.91 3.81 0-1.26-4.16-3.23-8.15-6.4-9.88-2.63-2.31-6.47-1.82-7.88 3-.65 5.56 2.02 12.15 6.07 17.53.85 2.1 2.06 5.6 1.53 8.75-2.16 1.23-4.3.72-6.1-1.18 0 0-5.9-4.43-5.9-5.41 1.56-10.04.33-11.18-.54-13.97-.6-3.84-2.42-5.06-3.9-7.69-1.48-1.56-3.48-1.56-4.44 0-2.6 4.53-1.38 14.25.5 18.6 1.36 4 3.45 6.5 2.47 6.5-.81 2.26-2.5 1.73-3.72-.88-1.74-5.4-2.1-13.43-2.1-17.06-.51-4.5-1.1-14.1-4.06-16.53-.78-1.08-1.72-1.45-2.62-1.34m42.16.06c-.6.07-1.26.41-2.04.6-2.55.8-4.94 3.01-4.18 7.3 3.01 18.34 4.98 32.33 8 50.66.46 2.15-1.34 4.98-3.66 4.69-3.94-2.67-4.92-8.08-11.65-7.85-4.88.06-10.44 5.37-11.13 10.47-.81 4.06-1.1 8.46 0 12 3.43 4.12 7.53 3.68 11.13 2.75 2.95-1.22 5.39-4.13 6.43-3.43h.03v.03c.65 1.12-.06 10.66-13.93 18.03-8.53 3.83-15.32 4.74-18.97-2.22-2.27-4.35.16-20.93-5.4-17.1-16.48 42.47 38.59 48.4 44.74 1.75.4-1.31 1.61-2.63 2.47-2.3.38.15.72.66.84 1.62-1.27 42.23-42.6 45.13-49.62 31.84-1.74-3.13-2.26-10.1-2.44-14.28-.32-2.53-.95-3.99-1.69-4.56-1.67-1.26-3.92 2.02-4.4 7.72-.7 4.58-.5 5.84-.5 10.25 2.2 33.36 55.38 19.02 64.03-8.53 4.28-14.25-.09-25 1.34-26.32l.06-.03.07-.03.06-.03.19-.03c5.28 5.68 12.68.72 14.3-1.25.7-.99 2.45-1.62 3.66-.35 4.12 2.96 11.34 1.57 12.85-3.65.87-5.1 1.6-10.36 1.78-15.81-2.68.83-4.85 1.45-5.72 2.37-.2.23-.36.48-.4.75l-.7 4.53q-.03.19-.12.35-.18.28-.5.46c-.95.52-2.6.23-2.68-1.15-1.28-5.8-6.53-6.56-9.72 2.44-2.15 1.74-6.07 2.08-6.47-.54.52-6.03-1.91-6.84-6.78-4-1.57-11.95-3.12-23.36-4.7-35.3 2.04-.07 3.9 1.4 5.76-.91-2.01-6.25-6.26-18.97-8.66-20.16l-.06-.03a3 3 0 0 0-.5-.47l-.16-.1a2 2 0 0 0-.96-.18m164.34.1c-2.11-.07-4.44 1.26-3.54 3.9-.52 1.44 4.53 6.32 5.35 9 1.47 4.1-1.12 8.02.4 8.6 1.41.63 3.36-4.25 4.1-8.76.85-3.64-1.75-11.11-5.44-12.65a4 4 0 0 0-.87-.1m-128.03 4.5c.96-.1 2.12.78 2.68 2.02.6 1.33.3 2.6-.68 2.85-1 .24-2.27-.64-2.88-1.97s-.3-2.64.69-2.88zm237.5 6.15c-1.93-.07-4.02 1.39-3.2 4.25-.47 1.56 4.1 6.85 4.85 9.75.67 2.06-1.01 8.7.38 9.31 1.28.69 3.08-4.59 3.75-9.47.37-2.67-1.61-12.05-4.97-13.72a4 4 0 0 0-.81-.12m-131.31 3.25q.28 1.17.46 2.37.58 2.6 1.1 5.16a78 78 0 0 0-3.31-4.38c-3.44-4.08.07-2.67 1.75-3.15m30.25 14.87c-.75.13-1.46.77-1.72 1.78-.17.66.31 1.73-.28 2.07-.35.34-1.68.14-1.63-1.7 0-.57-.43-1.22-.69-1.59-.26-.17-.43-.21-.9-.21-.58.02-.56.17-.88.65-.13.5-.31.98-.31 1.53-.07.66-.3.88-.78.97-.54 0-.44.06-.88-.22-.25-.28-.56-.39-.56-.87 0-.5-.13-1.3-.28-1.63-.23-.3-.59-.42-1-.53-2.25.01-2.38 2.56-2.25 3.53-.17.19-.28 4.8 2.78 6.07 4.11 1.96 11.86 1.1 11.53-5.54 0-.58-.16-2.55-.22-3.09-.42-.98-1.2-1.35-1.93-1.22m-138.12 1.38q-.78-.09-1.94.6c-3.64 1.96-5.05 7.8-2.78 11.21 2.11 3 5.46 1.9 5.9 1.9 3.57.45 5.7-6.68 5.7-6.68s.1-2-4.13 1.78c-1.78.33-2.03-.3-2.47-1.31a9 9 0 0 1 .56-5.6c.4-1.1 0-1.82-.84-1.9m195.25.9c-2.02-.1-4.17 1.21-4.72 3.97 0 1.63.73 2.52.6 4-.22.85-1.09 1.4-3.17.4.33-.29-1.34-2.65-1.34-2.65-1.62-.98-3.78.06-5.19.97a8 8 0 0 0-.47 6.28c2.33 4.3 10.3 11.62 14.1 11.69.07-3.87.45-9.02.65-12.22.1-1.2.38-2.54 1.54-2.84 1.15-.3 3.16 1.16 3.18-.1-.2-2.46-.7-6.1-2.09-7.8a4 4 0 0 0-3.1-1.7m-161.6 13.5q-.09.04-.16.1l-.1.06c-.4.3-.87 1-1.93 1.75-1.8 2.03-2.11 3.45-2 7.53.1.43 3.4 9.6 6.19 16.03 1.88 6.7 3.62 14.36 2.34 21.6-4.4 9.56-13.26 18.15-21.81 22.8-4.36 1.4-8.12.93-9.13-.02l-.03-.04a5.7 5.7 0 0 1-2.4-5.18v-.03l.03-.04c7.21-5.02 15.45-9.09 21.9-22.65 1.9-5.19 2.49-8.3.6-16.31-.74-2.99-1.65-5.45-3.7-7.57l.04-.03c1.23-.58 4.41 1.76 4.9.28-.75-3.82-3.34-8.96-6.27-11.59-2.58-2.33-5.37-2.6-7.72-.47-2.65 1.48-3.22 6.77-1.94 11.4 1.42 3.5 5.24 4.1 7.97 11.13v.03c.05.44.93 5.25-.44 7.2-1.11 3.47-15.42 14.75-16.44 15.43l-.1.06-.02.03-.03.03-.04.04h-.06l-.03-.04v-.03l-.03-.06c-.04-.28.03-1 0-2.16-.1-2.11.78-6.9.72-7.71v-.04l-.03-.03v-.03h-.03c-4.73 3.06-6.3 12.42-7.16 15.19-11.97 8.27-25.57 14.43-33.4 22.81-4.08 6.37 28.1-7.31 31.84-8.97l.1.1c.7.78.76 3.5 2.9 5.97 3.34 4.53 10.45 7.32 17.37 5.59 11.6-4.2 18.3-12.1 25.1-20.88.97-1.41 2.5-2.53 3.9-1.43 4.68 10.47 18.16 17.92 35.6 18.68 4.03-4.9 2.1-7.31.47-8.34-.5-.33-8.67-3.52-9.94-6.69-.8-2.95 1.14-5.56 5.03-7.53 11.2-1.35 22.2-2.85 32.84-6.28.11-3.58 2.22-8.93 3.63-11.25.98-1.61 1.6-1.77 1.84-2l.03-.03.03-.03.04-.03v-.06q.01-.13-.04-.32l-1.8-1.06-35.73-.16a4 4 0 0 1-.97-.5l-.06-.06-.03-.03-.03-.03-.03-.06-.03-.03v-.04l-.03-.03v-.25l.03-.03.03-.06c.17-.24.6-.46 1.12-.66 8.53-1.16 23.69-3.64 24.7-18.22-.17-7.59-3.26-12.56-12.57-13.93-6.84.53-11.73 7.15-10.94 14.43-.33 1.97.67 5.82-1.34 6.25-13.13 1.2-27.46 9.43-27.94 15.32h-.03l-.03.03-.07.03h-.06l-.1.03h-.18l-.12-.03c-.86-.24-1.96-1.65-1.78-3.63a70.6 70.6 0 0 0-9-30.56c-1.86-1.85-2.66-2.6-3.2-2.69zm34.18 5.38c-.74.13-1.46.74-1.71 1.75-.17.66.31 1.76-.29 2.1-.34.34-1.68.14-1.62-1.7 0-.58-.43-1.22-.69-1.59-.26-.17-.4-.22-.87-.22-.58.02-.6.18-.91.66-.13.49-.31.97-.31 1.53-.07.65-.3.87-.78.97-.54 0-.41.06-.85-.22-.26-.28-.6-.4-.6-.88 0-.5-.1-1.3-.24-1.62-.23-.3-.62-.43-1.03-.53-2.25 0-2.38 2.56-2.25 3.53-.17.18-.29 4.79 2.78 6.06 4.11 1.96 13.91.8 11.53-5.53 0-.59-.16-2.56-.22-3.1-.42-.97-1.2-1.34-1.94-1.21m137.97 5.65a1 1 0 0 0-.34.04s-19.06 13.55-19.53 14.03c-1.9 1.68-.95 7.58 0 6.9 1.37.53 20.55-12.48 20.19-14 .83.05 1.24-6.69-.32-6.97M382 181.17a5 5 0 0 1 2.79.75c1.42.83 2.3 2.07 2.18 2.97v.1c0 .02-.05.07-.06.09l-.03.1-.03.06-.03.06q-.09.13-.2.22c-.67.64-2.25.55-3.74-.31-1.41-.82-2.28-2.07-2.19-2.97l.03-.1q.04-.15.13-.31l.06-.12.03-.04q.06-.08.16-.15c.22-.18.55-.3.9-.35m-166.9 3.44c-9.88.18-24.34 12.95-24.72 20.03 10.42-5 20.65-9.82 31.25-15-1.71-2.55-.1-4.85-6.54-5.03m32 4.44c.96.01 1.98.49 2.53 1.84a3.2 3.2 0 0 1-.57 3.19v.03l-.03.06c-.41.54-1.87.32-2.9.32-1.26-.06-1.88-.26-2.63-1.28-.36-1.14.74-2.25 1.22-3.1l.03-.03q.09-.12.22-.25a3.3 3.3 0 0 1 2.12-.78m251.15 3.93c-1.75.22-3.42 1.88-2.65 4.53-.48 1.56 2.38 7.01 3.12 9.9.67 2.07-.86 7.9.53 8.5 1.29.7 4.65-3.45 4.54-8.65.37-2.67-.96-12.52-4.32-14.19q-.59-.15-1.22-.1m-213.3 9.62c-1.56.11-2.94.94-2.32 3.13-.1 1.59 4.39 3.51 4.66 7.19.64 1.51-.96 6.36.37 6.8 1.23.51 2.92-3.34 3.57-6.93.35-1.96-1.54-8.83-4.75-10.06a6 6 0 0 0-1.54-.13m63.84 8.72h.4c3.98 1.08 9.85 1.2 14.94 1.72 4.15.26 6.2 3.51 2.31 4.88-3.83 1.3-7.5 2.33-7.53 7.87.5 2.74.4 4.18-.03 4.85l-.12.15-.03.03-.04.03-.03.04-.03.03-.06.03-.19.1-.18.02c-.92.14-2.24-.73-3.22-1.25-2.37-1.7-9-5.8-9.94-14.62-.14-2 1.35-3.7 3.75-3.88m-155.94 6.78c-.25.01-.75.75-1.4 1.6-5.88 9.36-6.4 23.33-3.16 27.5 1.72 1.97 4.56 2.83 6.65 2.22 3.7-1.6 5.32-9.08 4.44-11.82-1.23-1.92-2.2-2.23-3.44-.59-2.6 5.27-3.68 1.67-3.9-1.28-.4-5.59.14-10.74.75-14.81.32-2.1.3-2.82.06-2.81zM393 230.4a3 3 0 0 0-1.38.28c-.09 0-4.2 2.78-5.53 4.71-.8.62-.71 1.15-.47 2.22.63 1.45 1.74 1 3 .32 1.68-.23 2.48.86 2.35 2.87-.78 2.5.34 3.44.34 3.6 0 .15 1.61 1.53 3.5.43 3.99-1.52 6.48-3 12.06-4.22 1.47-.03 1.38-3.95-.93-4.1-3.03.16-5.82.32-8.85 2.7-1.86.43-2.18-.7-2.6-1.72-.47-2.52 1.07-4.3.76-6.19.08.08-.94-.84-2.25-.9m128.16 4.78c-.74.02-1.53.12-2.66.21-1.22.26-1.65.8-1.87 2.29.08 2.25 1.46 2.14 2.87 3.03.82 1.04 1.35 1.98-.06 3.68-1.34 1.23-2.29 1.9-3.63 3.13-.63 1.08-1.02 2.73.91 3.25 3.56 1 11.81-4.36 11.81-4.47 1.34-1 .9-2.9.78-2.9-.78-.9-2.53-.36-3.71-.5-.57 0-2.41-.28-1.54-1.91.74-1.02 1-1.63 1.5-2.88.56-1.22.07-2.05-1.93-2.72a11 11 0 0 0-2.47-.21m-53.54 108.4-.03.03c-5.93 1.52-5.75 7.67-1.94 10.37-62.6 0-158.65-1.06-179.25-1.06-11.53 0-47.99-1.38-48.69-1.38 7.82 11.44 19.15 13.77 33.97 14 27.8 0 156.62-.34 193.28-.34-2.6 4.63.24 12.07 2.28 13.44l.16.1.25.09h.1c2.42.57 3.49-1.19 4.3-2.47 3.94.34 26.1.66 28.13-.03l.03-.04c1.37 2.02 2.73 3.93 5.34 3.6 4.57-.98 8.17-1.48 8.29-10.75 0 0-.47-15.8-10.85-14.81a311 311 0 0 1-9.34 1.06c-7.97-.95-13.82-1.05-22.78-1.38.82-1.05 2.28-5.3.5-6.84-.47-.39-1.17-.6-2.13-.53h-.09l-.03-.03-.1-.03-.15-.16-.07-.06c-.45-.66-.7-2.28-1-2.69l-.03-.03-.03-.03-.06-.03zm4.25 22.59h.03c9.13.44 17.71.08 26.84.53 1.45 1.23.73 4.05-.22 4.56l-.15.07h-.25c-2.97-.08-4.69-.15-7.66-.22q0-.24-.06-.44c-.7-2.09-5.8-1.95-7-.31l-.06.09-.07.13-.06.15-.03.22c0 .08-.04.17-.03.25-4 .48-7.62-.13-11.63-.28-1.17-1.47-1.03-4.11.35-4.75"/></svg>