<svg xmlns="http://www.w3.org/2000/svg" viewBox="0 0 1200 600"><clipPath id="a"><path d="M0 0v150h700v150H600zm600 0H300v350H0v-50z"/></clipPath><path fill="#00247d" d="M0 0h1200v600H0z"/><path stroke="#fff" stroke-width="60" d="m0 0 600 300m0-300L0 300"/><path stroke="#cf142b" stroke-width="40" d="m0 0 600 300m0-300L0 300" clip-path="url(#a)"/><path stroke="#fff" stroke-width="100" d="M300 0v350M0 150h700"/><path stroke="#cf142b" stroke-width="60" d="M300 0v350M0 150h700"/><path fill="#00247d" d="M0 300h600V0h600v600H0z"/><path fill="#fff" d="M1008.94 170.99v85.17c0 69.93-27.47 133.94-108.95 172.85-81.5-38.9-108.96-102.92-108.96-172.85V171z"/><path fill="#fdc300" d="M1001.61 179.67v79.44c0 65.23-25.62 124.93-101.62 161.22-76-36.29-101.63-96-101.63-161.22v-79.44z"/><g fill="#ff9e3d" stroke="#000" stroke-width=".26"><path d="M852.67 214.49a8.7 8.7 0 0 0-5.27-1.84c.48-5.4-3.44-7.73-6.26-8.7-2.81-.99-3.8-2.1-4.28-4.3-.5-2.2-1.97-3.55-4.54-4.29-2.58-.73-4.78-3.3-5.76-4.53s-1.35-.99-2.09 1.1-3.68 6-.98 6.13c-1.96 1.6-3.06 3.43-1.84 5.88-1.35 1.1-2.33 2.7-.49 3.31 1.84.62 2.33 1.1 2.45 1.6-1.65 0-2.08 3.3 1.84 4.04-.86.13-1.22 2.82.37 2.82-2.2 0-4.05 3.31-6.86 3.31q-4.24 0-4.42 1.84c-.12 1.23-1.6 2.7-2.32 3.31 2.08.25 3.42 0 4.53-.86 1.1-.85 2.94-1.1 4.17-.12a7.7 7.7 0 0 0 5.02 1.23c-2.7 1.84-4.65 4.29-4.9 6.62s-1.84 5.02-3.68 5.76-4.29 2.7-5.14 5.03c2.32 5.76 5.63 7.18 8.94 8.7 5.89 2.7 9.56 4.66 12.02 7.36s3.43.73 7.1 5.4c3.68 4.65 7.12 13.48 10.8 14.95 3.67 1.47 8.33.49 11.02-4.17 2.7-4.66 4.42-51.74-9.43-59.58z"/><path fill="#ff927f" d="M858.92 194.87c-3.43 3.68-7.85 7.36-7.11 13.98s1.47 17.4-4.66 21.08-9.07 13-1.72 18.4 7.6 12 8.83 18.14c1.23 6.13 4.42 11.03 9.32 6.86 4.9.74 7.6-1.22 7.6-5.14 0-3.93.24-6.13 3.92-7.36s4.66-2.45 6.37-5.76c1.72-3.31 2.7-4.78 1.72-6.75s-1.35-6-.61-8.95-.98-4.53-1.96-6.37a8 8 0 0 1-.86-5.89c.49-2.45-.74-4.04-2.45-5.27s-2.46-2.45-2.09-4.41-1.22-3.19-3.06-4.66a7.8 7.8 0 0 1-3.19-6.37c0-2.95-5.64-9.81-10.05-11.53z"/><path fill="#ff9ee1" d="M860.27 274.93c8.2-2.09 7.48-15.57 6.25-21.21s-4.38-13.72-1.96-20.1c3.43-9.08-4.17-17.66-2.21-21.1 1.96-3.43 1.72-5.27 1.47-6.37-.24-1.1-2.08-1.96-2.2.37s-.74 3.19-2.21 4.66-1.1 4.66 0 8.21 3.43 8.95-.25 16.06c-3.67 7.11-2.16 10.28-.73 13.61 2.2 5.15 7.48 23.05 1.84 25.87z"/><path d="M823.49 198.06c.92 0 2.7-.37 2.7.86m-4.54 5.02c1.1-.8 3.07.13 5.03-1.04m-3.06 5.95c1.47 0 3.43-.06 5.27-1.54m-3.44 5.59c1.35 0 3.86-.86 4.48-2.64m-4.11 5.45c2.64-.12 6.13.86 6.62-.06m-6.5 8.77c1.84-1.72 6.2-2.88 7.17-4.66m-2.51-22.68c3.06.98 1.8 2.87 3.31 4.04 2.7 2.09.25 4.42 2.45 5.03s2.17.99 1.6 3.43c-.68 2.88 2.08 3 1.1 4.9m8.34-1.83c-1.23 0-4.84.12-6.38 3.37m-19.8 32c1.42.24 2.12-.56 2.52-1.35.42-.86.6-1.47 1.9-1.53 1.28-.06 3.25-.43 3.67-1.41.43-.98 1.97-.06 3.25-2.64 1.3-2.57 2.15-5.64 5.58-6.74"/></g><g stroke="#000" stroke-width=".26"><g fill="#00a728"><path d="M918.48 301.59c1.38 2.01-.05 4.2 2.3 5.07 2.76 1.02.35 4.64 3.6 5.92 2.89 1.14.02 4.6 3.14 6.16 2.79 1.4-.47 4.65 3.25 6.51s-.7 6.04 2.1 7.67c2.78 1.63-.93 5.81 2.32 7.44s-1.4 4.88 1.63 7.2-.7 5.82 2.32 7.9c3.02 2.1-1.85 4.9 1.16 7.91 2.33 2.33-.83 4.6.93 8.14 1.16 2.32-1.16 11.62-7.67 10.69-2.32 3.95-11.39 7.44-14.64 6.28-3.25 2.32-13.71 5.57-19.06.46-5.34 5.11-15.8 1.86-19.06-.46-3.25 1.16-12.31-2.33-14.64-6.28-6.5.93-8.83-8.37-7.67-10.7 1.77-3.53-1.4-5.8.93-8.13 3.02-3.02-1.86-5.8 1.16-7.9s-.7-5.58 2.33-7.9c3.02-2.33-1.63-5.58 1.62-7.21s-.46-5.81 2.33-7.44-1.63-5.8 2.09-7.67c3.72-1.86.47-5.11 3.25-6.5 3.12-1.56.26-5.03 3.14-6.17 3.25-1.28.85-4.9 3.6-5.92 2.4-.89.87-3.12 2.38-5.17 6.92 2.73 28.34 4.68 37.15.1z"/><path d="M887.54 302.24c-2.55 2.56.47 4.42-2.09 7.44s-.23 4.65-2.32 7.44c-2.1 2.78.93 4.18-1.4 7.2-2.32 3.02.47 4.88-2.09 7.44s.47 4.88-2.1 7.67c-2.55 2.79.48 4.65-2.08 7.2-2.56 2.56.46 5.35-2.1 7.9-2.55 2.57.47 5.82-2.32 8.84s.47 5.35-1.86 7.67c-2.32 2.33-.23 4.65-1.86 6.28-1.62 1.62-1.85 3.9-1.16 4.88m26.26-79.03c-2.32 3.02 1.17 4.42-.93 6.97-2.09 2.56.93 3.49-.7 6.51s1.17 3.72-.92 6.74c-2.1 3.02 1.16 5.35-1.16 8.37-2.33 3.02 1.16 4.65-.93 7.67-2.1 3.02.93 4.65-.93 6.97-1.86 2.33 1.39 4.65-.93 7.44-2.33 2.8.93 4.88-.93 7.44s.7 5.35-.93 7.44 1.16 5.11-1.17 7.9c-2.32 2.79.47 4.65-.92 6.51s-2.5 4.59-1.17 5.35m19.06-82.52c-1.16 4.86 1.63 9.18 0 13.23s1.16 5.67.23 8.9c-.93 3.25 1.17 5.68-.23 9.19s1.86 6.2 0 10.8c-1.86 4.59 1.2 5.73 0 10.26-1.4 5.26 2.32 8.05 0 11.77s2.1 4.65.23 8.83c-1.85 4.19 1.17 5.82-.23 10m12.32-86.7c2.56 2.56-.47 4.42 2.1 7.44 2.55 3.02.22 4.65 2.32 7.44 2.09 2.78-.93 4.18 1.4 7.2 2.31 3.02-.47 4.88 2.08 7.44 2.56 2.56-.46 4.88 2.1 7.67 2.55 2.79-.47 4.65 2.09 7.2 2.55 2.56-.47 5.35 2.09 7.9 2.55 2.57-.47 5.82 2.32 8.84s-.46 5.35 1.86 7.67.23 4.65 1.86 6.28 1.86 3.9 1.16 4.88m-26.26-79.03c2.32 3.02-1.16 4.42.93 6.97 2.1 2.56-.93 3.49.7 6.51s-1.17 3.72.93 6.74c2.09 3.02-1.17 5.35 1.16 8.37 2.32 3.02-1.16 4.65.93 7.67s-.93 4.65.93 6.97c1.86 2.33-1.4 4.65.93 7.44 2.32 2.8-.93 4.88.93 7.44s-.7 5.35.93 7.44-1.17 5.11 1.16 7.9c2.32 2.79-.47 4.65.93 6.51s2.5 4.59 1.16 5.35"/></g><path fill="#fcc300" d="M884.12 313.75a5 5 0 0 1-1 3.37c-2.08 2.78.94 4.18-1.39 7.2-2.32 3.02.47 4.88-2.09 7.44s.47 4.88-2.1 7.67c-2.55 2.79.48 4.65-2.08 7.2-2.56 2.56.46 5.35-2.1 7.9-2.55 2.57.47 5.82-2.32 8.84s.47 5.35-1.86 7.67c-2.32 2.33-.23 4.65-1.86 6.28 2.8-2.1 2.8-5.35 4.88-6.97 2.1-1.63-.7-3.96.47-5.12 1.16-1.16.23-6.04 2.32-8.37 2.1-2.32.24-6.97 2.1-8.6 1.85-1.62.46-6.5 2.78-8.13 2.33-1.63 0-5.58 1.86-7.67 1.86-2.1 0-5.35 1.86-7.9s.09-4.88 1.4-6.98c.58-.93.58-7.67-.88-3.83zm6.68 2.9c-1.63 3.02 1.16 3.72-.93 6.74-2.1 3.02 1.16 5.35-1.16 8.37-2.33 3.02 1.16 4.65-.93 7.67-2.1 3.02.93 4.65-.93 6.97-1.86 2.33 1.39 4.65-.93 7.44-2.33 2.8.93 4.88-.93 7.44s.7 5.35-.93 7.44 1.16 5.11-1.17 7.9c-2.32 2.79.47 4.65-.92 6.51 2.79-.93 1.74-4.77 2.79-5.58 1.04-.81-.35-6.16 1.27-7.55 1.63-1.4-1.04-5.7.47-7.56 2.56-3.14.35-5.23 1.86-7.67 1.5-2.44-.58-5.57.58-7.2 1.97-2.8-.88-5.3.58-7.33 2.09-2.9-.4-5.3 1.04-7.2 2.21-2.9-.23-5.81.7-7.32s2.44-8.02-.46-9.07zm9.06 2.54c-1.62 4.05 1.16 5.67.23 8.9-.93 3.25 1.17 5.68-.23 9.19s1.86 6.2 0 10.8c-1.86 4.59 1.2 5.73 0 10.26-1.4 5.26 2.32 8.05 0 11.77s2.66 4.95.23 8.84c-1.16 1.85.12 6.62 1.98.93s-1.4-6.4.23-8.72-.58-8.49.12-11.74-1.63-7.67-.12-11.16c1.51-3.48-2.32-7.2-.81-10.22s-.7-6.75.7-9.19-1.05-5.7-.47-7.09-.58-6.54-1.86-2.57z"/><path fill="#ef072d" d="M917.3 304.33c0-26.26-3.72-35.33-17.44-35.33s-17.43 9.07-17.43 35.33z"/><path d="M882.43 304.33c0-26.26 3.72-35.33 17.43-35.33-6.27 0-10.1 4.88-11.15 8.14-1.05 3.25-.47 3.02.93 1.74s.7 1.5-.47 3.02c-1.16 1.51-2.32 5.81-.7 4.42 1.63-1.4 2.9.23 1.17 2.67-1.75 2.44-3.26 8.14-1.52 6.16 1.75-1.98 2.1 1.28 1.05 2.9-1.05 1.63-.93 3.03 0 2.33s.82 2.67-.11 3.95zm32.19-1.51c0-20.57-2.55-26.73-7.66-28.82-2.9-1.19-2.98-.93-1.6.93s1.17 4.53-.1 2.67c-1.28-1.86-1.7-2.2-2.24-1.4-.53.82 1.49 4.65 2.98 8.14 1.2 2.8.42 4.18-1.39 1.4-1.8-2.8-1.8-.27-.22 2.09 2.04 3.02 1.98 12.2 1.98 16.04z"/><path fill="#ef072d" d="M899.86 308.17c5.46 0 11.44-.98 15.46-2.54 4.76-1.85 5.02-3.47 3.37-5.55-1.16-1.46-3.72-.58-6.16.49s-9.18 1.75-12.67 1.75c-3.48 0-10.22-.68-12.67-1.75-2.43-1.07-5-1.95-6.15-.49-1.65 2.08-1.4 3.7 3.37 5.55 4 1.56 10 2.54 15.45 2.54z"/></g><g fill="#b95a1e" stroke="#000" stroke-width=".3"><path d="m952.86 273.4 6.2 10.67c2.62 4.5 4.75 5.53 6.65 4.2 1.9-1.34.28-5.01-1.24-6.75s-9.9-9.91-9.9-9.91z"/><path d="m952 273.87 2.47 12.25c1.05 5.16 2.73 6.88 4.94 6.29 2.22-.6 1.86-4.62.97-6.8a445 445 0 0 0-6.18-12.82z"/><path d="M950.5 274.1v12.51c0 5.29 1.31 7.33 3.6 7.24 2.28-.1 2.72-4.11 2.28-6.43-.43-2.33-3.53-13.9-3.53-13.9zm-2.35-.7-6.2 10.67c-2.63 4.5-4.75 5.53-6.65 4.2-1.9-1.34-.3-5.01 1.23-6.75a417 417 0 0 1 9.9-9.91z"/><path d="m949 273.87-2.47 12.25c-1.05 5.16-2.73 6.88-4.94 6.29-2.21-.6-1.85-4.62-.97-6.8s6.19-12.82 6.19-12.82z"/><path d="M950.5 274.1v12.51c0 5.29-1.3 7.33-3.6 7.24-2.27-.1-2.71-4.11-2.28-6.43.44-2.33 3.53-13.9 3.53-13.9zm3.96-55.7s5.83-6.19 16.03-12.38 17.57-10.95 18.93-9.9c0 1.24-8.74 7.43-16.02 12.38a229 229 0 0 0-16.02 12.38zm.68 4.95s5.76-3.63 16.8-8.66c10.88-4.47 26.22-3.72 26.22-2.48-1.45 1.24-14.56 1.24-23.3 4.95-8.35 3.55-16.8 8.67-16.8 8.67zm.06 8.53s5.07-2.45 16.8-6.2c11.66-3.7 27.13-1.23 27.13 0-1.46 1.25-14.01.5-22.75 2.48-9.05 1.94-18.26 6.2-18.26 6.2zm.56 8.66s5.84-4.96 18.29-6.2c12.52-1.23 22.72 6.2 22.72 7.43-1.46 1.24-13.11-5.44-21.85-4.49-9.26.96-16.25 5.73-16.25 5.73zm-2.9-27.24s9.38-6.18 9.38-11.14c0-4.95-4.13-9.9-5.3-12.37 2.34 0 7.65 7.42 7.65 12.37 0 5.41-8.82 13.62-8.82 13.62z"/><path d="M952.86 213.3s-1.18-3.7-1.18-11.14c0-8.66 5.18-14.17 7.04-16.09.49 1.92-4.7 8.67-4.7 16.1 0 5.4 1.75 13.6 1.75 13.6zm-6.32 5.1s-5.83-6.19-16.02-12.38-17.58-10.95-18.94-9.9c0 1.24 8.74 7.43 16.02 12.38a229 229 0 0 1 16.03 12.38zm-.68 4.95s-5.76-3.63-16.8-8.66c-10.87-4.47-26.22-3.72-26.22-2.48 1.46 1.24 14.57 1.24 23.3 4.95a155 155 0 0 1 16.81 8.67zm-.06 8.53s-5.07-2.45-16.8-6.2c-11.66-3.7-27.13-1.23-27.13 0 1.46 1.25 14.02.5 22.76 2.48 9.04 1.94 18.26 6.2 18.26 6.2zm-.55 8.66s-5.85-4.96-18.3-6.2c-12.52-1.23-22.72 6.2-22.72 7.43 1.46 1.24 13.11-5.44 21.85-4.49a39 39 0 0 1 16.25 5.73zm2.9-27.24s-9.4-6.18-9.4-11.14c0-4.95 4.15-9.9 5.32-12.37-2.35 0-7.66 7.42-7.66 12.37 0 5.41 8.82 13.62 8.82 13.62z"/><path d="M948.15 213.3s1.17-3.7 1.17-11.14c0-8.66-5.18-14.17-7.04-16.09-.49 1.92 4.7 8.67 4.7 16.1 0 5.4-1.75 13.6-1.75 13.6z"/><path stroke="#fdc301" stroke-width=".75" d="M981.03 302.42c-3.65-8.54-4.7-23.52-4.7-26 0-6.96 2.18-40.87 2.35-54.45s-8.22-21.04-16.43-21.04c-7.05 0-11.74 4.95-11.74 12.37h3.52c0-4.95 3.52-8.66 8.22-8.66 7.04 0 12.45 5.85 12.9 17.33.51 13.26-1.4 47.71-1.17 56.93a49 49 0 0 0 7.05 23.52zm-61.05 0c3.65-8.54 4.7-23.52 4.7-26 0-6.96-2.19-40.87-2.35-54.45s8.21-21.04 16.43-21.04c7.04 0 11.74 4.95 11.74 12.37h-3.52c0-4.95-3.53-8.66-8.22-8.66-7.04 0-12.46 5.85-12.91 17.33-.5 13.26 1.41 47.71 1.17 56.93a49 49 0 0 1-7.04 23.52z"/><path d="M950.5 273.95c6.57-.1 7.3-2.47 7.3-2.47s1.45-4.95.72-6.19-8.01-1.24-8.01-1.24z"/><path d="M950.5 269c7.05 0 8.22-2.47 8.22-2.47s2.35-4.95 1.18-6.2c-1.18-1.23-9.4-1.23-9.4-1.23z"/><path d="M950.5 264.05c5.88 0 9.4-2.47 9.4-2.47s2.34-4.95 1.17-6.2c-1.17-1.23-10.56-1.23-10.56-1.23z"/><path d="M950.5 257.86c10.58-.1 10.57-3.18 10.57-3.18s2.35-4.95 1.17-6.19c-1.17-1.23-11.73-.53-11.73-.53z"/><path d="M950.5 252.91c10.58-.1 11.74-2.47 11.74-2.47s2.35-4.95 1.18-6.2c-1.18-1.23-12.91-1.23-12.91-1.23z"/><path d="M950.5 246.72c10.58-.1 12.92-2.47 12.92-2.47s2.35-4.95 1.17-6.19c-1.17-1.24-14.08-1.24-14.08-1.24z"/><path d="M950.5 240.54c10.58-.1 14.1-2.48 14.1-2.48s1.17-4.95 0-6.19c-1.18-1.24-14.1-1.24-14.1-1.24z"/><path d="M950.5 234.35c10.58-.1 14.1-2.48 14.1-2.48s0-4.95-1.18-6.19-12.91-1.24-12.91-1.24z"/><path d="M950.5 228.16c10.58-.1 12.92-2.48 12.92-2.48s0-4.95-1.18-6.19c-1.17-1.23-11.73-1.23-11.73-1.23z"/><path d="M950.5 212.63c8.23.01 11.78 7.15 11.76 7l-2.36 2.34c-1.26 1.24-9.4 1.24-9.3 1.23zm0 61.32c-6.56-.1-7.29-2.47-7.29-2.47s-1.45-4.95-.73-6.19c.73-1.24 8.02-1.24 8.02-1.24z"/><path d="M950.5 269c-7.05 0-8.22-2.47-8.22-2.47s-2.35-4.95-1.17-6.2c1.17-1.23 9.39-1.23 9.39-1.23z"/><path d="M950.5 264.05c-5.87 0-9.4-2.47-9.4-2.47s-2.34-4.95-1.17-6.2c1.18-1.23 10.57-1.23 10.57-1.23z"/><path d="M950.5 257.86c-10.58-.1-10.57-3.18-10.57-3.18s-2.34-4.95-1.17-6.19c1.17-1.23 11.74-.53 11.74-.53z"/><path d="M950.5 252.91c-10.58-.1-11.74-2.47-11.74-2.47s-2.35-4.95-1.18-6.2c1.18-1.23 12.92-1.23 12.92-1.23z"/><path d="M950.5 246.72c-10.58-.1-12.92-2.47-12.92-2.47s-2.34-4.95-1.17-6.19 14.09-1.24 14.09-1.24z"/><path d="M950.5 240.54c-10.58-.1-14.09-2.48-14.09-2.48s-1.17-4.95 0-6.19 14.09-1.24 14.09-1.24z"/><path d="M950.5 234.35c-10.58-.1-14.09-2.48-14.09-2.48s0-4.95 1.17-6.19c1.18-1.24 12.92-1.24 12.92-1.24z"/><path d="M950.5 228.16c-10.58-.1-12.92-2.48-12.92-2.48s0-4.95 1.18-6.19c1.17-1.23 11.74-1.23 11.74-1.23z"/><path d="M950.5 212.63c-8.23.01-11.78 7.15-11.76 7l2.37 2.34c1.25 1.24 9.39 1.24 9.29 1.23z"/></g></svg>