<svg xmlns="http://www.w3.org/2000/svg" viewBox="0 0 900 600"><path d="M0 0h900v600H0z"/><path fill="#fcdc04" d="M0 100h900v100H0z"/><path fill="#d90000" d="M0 200h900v100H0z"/><path fill="#fcdc04" d="M0 400h900v100H0z"/><path fill="#d90000" d="M0 500h900v100H0z"/><circle cx="450" cy="300" r="93.5" fill="#fff"/><g stroke="#000"><path fill="#d90000" d="m433.52 228.4-6.06-11.18c2.34-2.34 6.27-4.15 12.55-4.15 0 .43-.64 12.24-.64 12.24z"/><path fill="#fcdc04" d="m439.37 225.41.85-12.34s12.56-.74 19.36 7.45c.11-.1-6.7 9.57-6.7 9.57z"/><path fill="#d90000" d="m453.1 229.99 6.17-9.58c4.14 4.36 5.85 7.45 6.48 12.13.11.1-9.78 2.45-9.78 2.34 0-.1-2.77-4.79-2.87-4.9z"/><path d="M436.6 388.07s11.6-13.3 34.15-10.42c-3.4-5.53-14.36-4.9-14.36-4.9s-3.4-25.85-.74-27.12c2.66-1.28 13.93.1 13.93.1 1.5 0 4.05-4.04 2.03-6.6s-7.98-12.33-5.54-14.25c2.45-1.91 15.75 1.06 15.75 1.06l-37.56-48.08s-3.82-18.09 3.83-26.81c9.26-7.66 8.3-15.96 7.98-15.85-1.27-8.4-14.04-14.47-22.66-6.7-5.1 6.17-1.7 10.85-1.7 10.85s-13.4 3.62-13.93 5.96c-.54 2.34 15.1-.43 15.1-.43l-1.49 10.75s-30.42 27.65-7.13 51.6c.22-.12.75-1.07.75-1.07s8.2 10.1 16.8 12.34c8.1 8.3 7.35 7.02 7.35 7.02s1.6 13.08.1 15.64c-2.02-.64-22.65-1.38-25.74-.22-2.77.86-13.4.32-10.74 17.66l3.82-8.83s-.31 6.28 2.24 8.52c-.43-6.6 2.45-11.07 2.45-11.07s.53 7.24 2.12 8.3c1.6 1.06 1.6-11.7 10.43-10.64s15.21.75 15.21.75 2.98 25 2.02 27.34c-6.38-1.5-21.6.64-22.55 4.46 8.94-.53 13.09.54 13.09.54s-7.24 6.38-5 10.1z"/><path fill="#9ca69c" stroke="#9ca69c" d="M440.2 251.66s-22.15 24.4-12.6 43.08c.51-2.6.29-4.24.61-4.14-.53-.32 2.75 2.25 2.5 1.75.07-1.35-1-4.24-1-4.24l3 .74-1.75-3.24 4.24.5s-1.5-4-1-4 3.5.25 3.5.25c-6.3-11.3-.36-20.68 2.5-30.7zm7.68-20.93s1.17 8.4-3.4 10.85c-.75.53-3.62 1.5-3.2 3.2.54 2.33 1.81 1.9 3.62 1.48 4.79-.85 10.32-11.06 2.98-15.53z"/><circle cx="438" cy="238" r="1.8" fill="#fff" stroke="none"/><path fill="#d90000" d="M432.56 244.99c-1.17.95-7.34 7.34-1.27 9.68 6.27-1.7 4.57-2.87 5.95-4.26.04-2.87-3.12-3.62-4.68-5.42z"/><path fill="#9ca69c" stroke="#9ca69c" d="M445.97 305.3c-.32 1.39-1.7 6.5.2 10.43 5.33-2.23 7.78-1.6 9.58-.42-4.36-3.51-6.06-5-9.78-10z"/><path fill="#fff" stroke="#fff" d="m455.12 329.46.32 11.91s4.14.75 6.06 0c1.91-.74-.1-8.3-6.38-11.91z"/><path fill="#9ca69c" d="M485.22 330.94s-7.66-18.5-27.23-23.19c-19.58-4.68-17.02-25.53-15.43-26.8.85-1.81 1.5-4.58 7.13-1.92s31.6 15.74 35.32 16.38.53 35.96.21 35.53z"/><path fill="#d90000" d="M466.6 307.65c-.31.2 26.18 15.63 18.2 28.93 7.55-5 5.1-13.72 5.1-13.72s6.17 16.06-8.83 23.94c1.6 1.38 2.66 1.06 2.66 1.06l-2.55 2.55s-1.17 1.92 8.94-2.98c-2.77 2.24-2.98 3.83-2.98 3.83s.74 2.13 7.34-3.61c-5.32 5.74-6.5 8.72-6.5 8.61 14.37-1.27 45.65-47.97-9.88-61.8l2.55 2.65z"/><path fill="#fff" d="M467.78 303.07c3.61 2.55 4.89 3.4 5.31 4.68-3.3-.74-6.27-.53-6.27-.53s-7.13-6.8-8.4-7.34c-.96 0-6.5-3.51-6.5-3.51-2.76-1.38-5.31-10.96 4.9-8.2 10.53 5 12.02 5.43 12.02 5.43l12.55 3.94 7.24 8.09s-12.88-6.39-14.47-6.5a24 24 0 0 1 5.53 6.81c-4.08-1.17-7.62-2.23-11.91-2.87z"/><path stroke="#fff" d="M417.67 245.94s12.34-2.97 13.83-2.55"/></g></svg>