<svg xmlns="http://www.w3.org/2000/svg" width="1024" height="1024" preserveAspectRatio="none" style="display:block" viewBox="0 0 2048 2048"><defs><linearGradient id="a" x1="593.958" x2="583.142" y1="1668.71" y2="1688.59" gradientUnits="userSpaceOnUse"><stop class="stop0" offset="0" stop-color="#443C44"/><stop class="stop1" offset="1" stop-color="#4A4B4C"/></linearGradient></defs><path fill="#4F4655" d="m753.14 232.201-.242-105.787c.001-15.743-.077-31.51.169-47.247.057-3.598 2.692-5.498 5.635-6.75 2.037.667 2.451.704 3.465 2.745 3.543 7.13 1.573 109.736 1.582 125.756 32.006.188 64.013.205 96.02.051l2.236-3.61c1.462-38.278-.192-77.415.273-115.75.031-2.503 1.024-4.638 2.3-6.692 3.369-1.756 1.552-1.375 5.727-.604 3.933 3.78 3.533 9.564 3.529 15.33-.027 37.125-.048 74.278.047 111.409l56.506-.002c11.153.01 26.052-.393 36.73 1.006.479-27.869.671-55.742.575-83.615.024-10.616-1.859-36.486 3.105-44.566l2.3-1.129c2.721 1.056 5.895 3.755 5.915 5.746.411 41.879-.4 114.033-.204 153.785l18.977-.117-.139-105.461c.015-8.76-1.52-46.25 2.078-51.889 3.206-2.119 1.536-1.69 5.066-1.739 7.11 5.697 4.21 44.202 4.21 54.845v104.405l27.2.048-.07-104.362c-.01-15.975-.16-31.975.16-47.943.08-4.038 2.91-6.464 6.47-7.627 5.01 1.771 5.49 7.688 5.51 12.552.06 14.791-.2 29.59-.2 44.398l-.12 103.064 61.39-.109-.08-101.751c-.06-14.25-.12-28.506-.19-42.756-.03-5.346-.64-9.617 3.35-13.79 3.67-1.184 1.9-1.246 5.48.206 2 2.334 3.55 4.775 3.55 7.957-.03 11.916-.21 24.229-.21 36.129v85.029l-.21 284.707c29.65-28.091 58.68-53.147 87.99-80.379l-.23-221.102.15-76.272c.03-7.595-1.71-28.082 1.56-33.842 2.61-1.767 2.4-1.681 5.55-1.829 7.53 5.69 5.13 31.663 5.1 41.437l-.06 56.062.25 144.897c.04 26.36-.43 54.95.36 81.079 39.25-30.009 146.12-114.24 193.11-108.771 8.86 1.032 16.53 5.225 21.96 12.345 19.67 25.784 16.4 86.804 11.51 117.811-3.37 21.334-8.12 43.343-14.15 64.068 20.91 2.465 47.48 11.111 67.73 17.433 22.15-8.288 42.68-17.259 65.31-24.984a966.307 966.307 0 0 1 247.35-50.374c24.25-1.462 82.88-5.91 91.73 23.197 7.67 25.234-14.53 64.402-26.1 86.716-37.96 67.268-93.68 140.006-154.98 187.338 43.36 64.559 85.14 133.019 79.83 214.596-5.65 86.721-66.39 167.651-126.14 226.611-3.8 3.75-8.04 7.23-11.57 11.14 41.77-2.84 62.52 8.71 102.57 14.31 11.38 1.59 27.3-3.76 36.9 1.8 7.62 9.7 1.68 17.19-3.57 26.46-29.29 51.68-80.53 81.46-138.34 88.53 17.78 18.12 35.17 34.7 54.35 51.29 2.68 2.32-.38 11.8-3.87 13.86-30.73 18.14-76.2 22.28-109.75 18.75l-2.96-.32c24.67 36.23 41.14 73.93 58.94 113.81 20.29 7.53 40.76 18.15 60.45 27.15 57.75 26.4 167.79 76.21 195 136.32a74.605 74.605 0 0 1 1.86 58.4c-38.03 99.17-262.77 148.64-357.07 164.2-153.16 25.29-314.79 34.47-470.07 33.4-7.37 5.52-18.61 16.02-28.07 14.61-10.84-1.61-19.12-12.05-29.77-14.13-12.76-1.13-27.45-1.43-40.343-1.9-23.578-.76-47.142-1.91-70.684-3.43-90.014-5.87-178.436-14.19-267.005-31.87-10.874-2.17-42.892-7.6-51.238-12.95-1.945-3.17-1.318-1.43-1.384-5.56 3.52-5.44 8.668-3.94 14.388-2.52 8.219 2.03 16.195 4.05 24.505 5.73a1929.861 1929.861 0 0 0 107.867 18.67c89.075 11.96 171.516 15.64 260.614 20.25-46.222-21.13-91.023-44.35-136.867-65.93-10.934-5.15-48.687-26.14-58.345-26.71-32.543-1.91-76.442 5.81-109.989 5.61-35.565-.21-68.175 1.01-103.145-5.91-78.403-16.47-159.602-63.08-217.409-117.91-20.171-19.13-38.419-42.69-54.48-64.71-25.992-8.88-204.216-62.49-210.238-72.19-2.62-12.03 17.663-17.84 27.129-22.74 136.506-70.64 277.756-133.03 419.773-191.72 29.297-12.1 38.302-15.5 70.119-9.14 44.423 8.88 90.592 20.76 127.629 48.12 18.012 13.52 30.969 32.48 46.312 47.76 26.256 2.69 61.182 8.71 86.866 14.92.563-21.38 4.108-40.62 20.21-55.89 16.05-15.22 30.992-16.33 50.184-7.58 3.797-7.96 7.726-16.66 12.087-24.26-25.576-5.15-32.34-6.43-76.867-14.93-118.051-22.54-247.804-47.54-368.73-54.84l-1.895-2.04c-.696-3.99-.899-2.1.649-5.86 15.583-10.17 204.483 21.32 233.801 26.29a6505.246 6505.246 0 0 1 201.66 37.44c5.807 1.22 11.855 2.49 17.572 3.99 13.504-25.63 29.464-50.85 43.324-76.7-63.428-30.47-92.411-58.84-115.629-125.07l-2.591-7.49c-36.441-18.38-68.26-70.43-81.102-107.63-16.843-48.797-8.195-100.051 16.653-144.365 17.1-30.497 35.093-56.356 49.802-88.95l-574.509-.156-154.577.153c-20.415-.005-40.892.31-61.303.272-3.37-.007-10.756-.739-13.365-3.006-1.264-1.099-.808-1.117-.965-3.158a13.597 13.597 0 0 1 9.332-6.083c2.873-.464 18.637.062 22.294.094l41.485-.049 166.08-.389 569.758-.19c6.804-15.623 14.277-33.819 21.822-48.93a12738.046 12738.046 0 0 0-206.509-.675l-377.661.17-161.016.132c-22.99.002-45.998-.059-68.985.256-4.964.067-11.774-.146-15.767-3.311-1.09-.85-.964-1.723-1.252-2.995.95-1.718 1.977-4.091 4.133-4.318 14.551-1.534 36.67-.73 50.899-.719l-.04-242.236c-10.261.356-48.35 4.334-54.575-2.237-.446-.471-.686-1.101-1.029-1.652 3.01-7.805 25.628-4.007 32.849-4.4 13.077-.71 24.987 4.842 21.863-14.022-7.187-8.583-44.729-3.054-53.85-9.744-1.212-3.173-1.194-1.592.176-4.898 8.307-5.83 33.075-1.732 43.142-.214-.128-8.126-1.813-28.955 3.58-34.327 11.61-9.447 38.332-9.602 51.997-9.727 13.498-.124 39.285 1.175 48.23 10.66 5.385 5.711 3.504 38.257 3.483 47.124l-.189 68.008-.277 197.538 21.483.08.045-354.652c-4.347-3.046-11.745-10.23-10.969-14.733 3.562-20.661 55.209-19.153 67.084-18.446 14.708.876 25.067 2.935 34.079 7.711 21.903-12.219 74.013-12.347 95.99.435 21.413-10.909 58.945-9.45 82.355-3.705 16.999 4.172 10.67 16.713 25.537 26.017 7.766 4.86 6.103 34.102 6.092 44.594 24.05-12.402 46.254-26.635 60.397 6.041 7.623 17.612 15.431 35.558 23.002 53.215l38.95 89.97 29.102 66.989c5.798 13.332 11.239 26.278 16.638 39.775 9.421 23.55-7.943 39.558-28.377 48.66a143.725 143.725 0 0 1-23.731 7.988c20.748.893 43.562-.028 64.463-.345 61.556-.934 124.317 1.934 185.751.071 18.041-27.128 33.008-56.503 52.574-82.828 1.371-1.844 10.72-15.798 10.615-17.651-2.849-50.272.382-100.65-1.344-151.098a4122.403 4122.403 0 0 0-72.587 151.933c-12.16 26.194-25.804 56.766-40.037 82.49-17.67 31.936-83.645-13.362-106.467-21.373-13.704-4.81-25.023-23.423-17.432-36.974 47.844-103.091 97.238-205.674 147.577-307.601 2.194-3.701 7.509-14.222 11.837-14.846 10.567-1.523 29.082 7.188 38.693 12.538 19.789 11.018 66.823 26.025 78.733 43.046 25.78.196 51.55.175 77.33-.063l-.1-86.978-666.929 1.327c-80.886.657-161.775.806-242.664.447-13.072-.012-101.2 1.576-106.483-1.748-1.484-3.466-1.366-1.737-.373-5.369 6.788-6.444 34.89-4.317 44.818-4.34l60.281-.229 185.397-.241 465.043-.858c85.751-.113 175.09.808 260.61-.936.17-14.234.17-28.469-.01-42.703-248.554-2.35-499.573 1.473-748.392 1.231l-175.691.366c-12.778.002-83.367 1.141-89.49-1.823-2.109-3.524-1.75-1.716-1.481-5.526 5.123-6.934 37.242-4.282 46.777-4.297l91.529-.167 320.808-1.121-.107-102.18c-.009-10.133-1.841-51.184 2.774-56.02 3.828-1.085 2.024-1.173 5.608.004 4.941 6.181 2.758 33.997 2.788 43.023l.226 83.45c31.34-.284 62.681-.342 94.022-.173l-.179-83.9c-.029-9.59-1.784-34.827 1.535-42.157 3.797-3.147 8.904-1.253 8.951 2.02.751 51.802.195 103.73.393 155.579 27.916-.268 55.833-.389 83.749-.364z"/><path fill="#F3F3F0" d="m859.769 200.969 2.236-3.61c.257 11.512.68 23.367.522 34.853l-98.85.129-.128-22.326 63.551.11c7.286.009 25.645.497 31.559-.756 1.815-2.895 1.251-4.423 1.11-8.4z"/><path fill="#979596" d="M1406.39 309.047c19.91-.531 22.12 21.015 23.92 36.355 5.29 45.083-5.84 92.871-18.87 135.878-48.02-8.813-105.09-5.699-152.39 5.175-11.65 2.678-15 13.04-4.65 19.06 3.31 1.927 24.1-2.266 28.72-2.644 37.55-6.077 75.4-6.841 113.2-3.689 27.36 2.282 51.9 7.765 78.47 14.09-6.26 3.016-13.75 6.852-19.62 10.15-12.63 7.095-2.99 20.631 3.53 18.058 14.54-5.742 29.31-13.002 43.92-19.129a1000.555 1000.555 0 0 1 314.31-76.235c16.92-1.198 52.9-4.025 66.54 5.964 10 7.32-10.47 46.391-15.23 55.78a668.063 668.063 0 0 1-155.6 198.313c-6.33-7.004-28.08-36.749-37.81-27.735-10 9.267 9.23 23.685 14.29 30.28 46.46 60.58 90.3 134.612 94.05 212.556 2.29 78.473-53.11 158.696-104.79 213.456-64.95 68.8-143.97 116.13-233.43 145.42-11.11 3.63-44.99 14.24-55.75 14.55l.62-1.39 4.23-.84c34.03-6.51 81.65-32.5 106.01-55.71 98.37-93.72 81.79-196.49-1.28-290.003-4.2-5.5-24-24.652-29.48-29.656-77.48-70.669-182.01-123.996-279.04-162.43 9.67-2.211 18.62-4.412 28.12-7.375 59.47-18.56 112.3-74.582 101.64-140.631-4.1-26.86-18.94-50.9-41.12-66.594-68.32-48.949-169.41-16.559-215.93 47.635-24.53 33.867-32.84 77.089-10.43 114.327 9.69 16.118 22.03 26.189 37.26 36.753-76.33 45.77-153.041 94.893-196.359 177.008-37.288 70.685-13.135 132.336 10.276 202.386-64.474-74.62-85.985-145.113-30.74-232.928 11.189-17.786 23.403-36.29 32.957-54.936 15.434-30.744 25.488-62.794 42.855-92.705 41.539-71.541 89.491-141.21 148.581-199.582 65.27-64.476 134.17-127.243 211.04-177.71 30.23-19.848 62.78-41.497 97.98-51.272z"/><path fill="#F3F3F0" d="M1307.52 830.951c.32.072.64.145.97.217 78.85 41.491 165.94 102.807 213.07 179.122 25.33 41 31.79 82.67 21.3 123.24-13.68 52.92-54.12 92.71-99.58 118.58-91.49 54.01-242.12 47.54-341.35 22.06 3.86-7.2 12.25-20.78 10.42-28.43-3.87-14.99-28.33-28.23-42.86-25.32-9.45 1.9-21.43 27.77-26.7 36.41-14.12-5.82-27.26-13.19-40.25-21.16-56.597-38.2-60.74-68.38-81.867-127.19-42.18-117.4-37.261-180.768 60.114-269.582 53.643 68.357 95.033 154.642 114.233 239.272.71.53 1.42 1.06 2.14 1.59 7.24-3.22 11.53-22.63 14.04-30.46a494.05 494.05 0 0 1 11.43-31.68c26.91-66.543 71.7-124.778 133.73-162.15 16.41-9.889 33.59-17.041 51.16-24.519z"/><path fill="#4F4655" d="M1336.93 958.551c15.36 2.264 10.21 16.96 6.24 27.047-7.74 19.662-18.2 34.022-39.57 38.972 20.2 36.55 30.4 99.43 5.64 137.02-10.06 15.28-26.01 11.93-38.56 1.22-17.91-18.52-24.01-50.47-26.03-77.38-1.55-20.66.85-77.93 31.33-82.18 7.29-1.02 15.34 5.74 20.72 10.68 35.61-18.794 24.77-41.55 40.23-55.379zM936.863 941.991c23.03 5.554-6.949 37.344 29.186 59.619 45.561-46.844 74.891 101.9 42.521 146.89-15.341 14.43-30.397 2.64-38.478-12.95-17.101-32.99-17.507-83.24-7.423-118.43-13.415-4.63-22.417-11.39-28.783-24.655-6.096-12.704-13.138-43.179 2.977-50.474zM1084.96 1110.26c49.62-8.47 88.95 52.2 27.72 68.52-53.18 8.96-88.88-56.21-27.72-68.52z"/><path fill="#F2A1AD" d="M1086.79 1123.17c34.32-1.93 61.86 28.58 23.47 42.56-32.66 7.27-63.93-32.68-23.47-42.56z"/><path fill="#4F4655" d="M1137.03 1223.17c16.96-2.53 51.13 15.02 63.09 27.37 2.1 2.18.62 5.05-.13 7.54-13.32-.56-36.2-13.29-49.02-19.08-7.2-3.24-15.65-7.14-13.94-15.83z"/><path fill="#F3F3F0" d="M1668.3 1520.28c52.25 18.32 161.48 75.47 203.04 111.1 136.01 116.61-114.11 201.34-199.1 222.69-137.91 34.65-275.63 46.82-417.52 53.72a4114.88 4114.88 0 0 1-146.53 3.15c6.36-5.96 16.89-13.74 24.1-19.46l38.99-31.28 167.63-131.82c14.21 11.24 31 18.66 49.22 19.28 62.12 2.14 110.03-43.45 112.79-104.72 4.73-4.78 7.9-10.3 12.49-15.53 18.6 1.58 37.3 4.59 55.84 6.98 29.19 3.76 58.57 7.34 87.57 12.45 9.88 1.74 42.1 11.81 48.95 9.94 2.76-.75 5.17-3.82 6.26-6.35 5.68-13.12-35.43-110.71-43.73-130.15z"/><path fill="#4F4655" d="M1748.59 1670.15c.71-.04 1.43-.09 2.14-.1 6.47-.11 12.7 3.72 17.07 8.28 11.14 11.6 15.83 31.63 15.31 47.32-.23 6.99-2.38 13.52-7.63 18.36-6.85 6.32-183.91 62.59-201.53 64.61-13.42 1.53-26.78-2.89-40.1-3.71-9.88-.6-20.13 1.15-30.15 1-11.21-1.04-35.84-.72-40-13.09.56-13.4 32.26-29.63 42.83-35.55 11.48-6.43 24.65-21.43 36.54-25.82 50.17-18.57 102.87-31.5 154.08-47.11 16.95-5.12 34.69-10.28 51.44-14.19z"/><path fill="#F2A1AD" d="m1766.59 1713.01 2.33.02c3.7 4.69.16 16.82-1.71 22.17-28.28 7.78-58.05 18.2-86.22 26.98-27.72 8.64-58.54 16.94-85.66 26.69l-.9.12c-.34-.32-.67-.64-1.01-.97 1.91-9.57 3.87-14.16 2.67-23.98 55.53-17.91 114.48-34.53 170.5-51.03zM1748.53 1683.04c10.21-1.68 14.16 10.84 17.53 18.41-18.57 4.52-38.11 10.67-56.56 16.04-38.19 11.1-76.28 22.56-114.25 34.38-.58-.06-1.16-.11-1.74-.16-7.14-7.63-8.94-11.75-18.12-17.22 55.28-18.18 117.02-35.28 173.14-51.45z"/><path fill="#F3F3F0" d="M1557.33 1740.15c26.48 3.86 34.71 38.65 14.23 56.47-4.93-.35-9.89-1.07-14.79-1.71-5.65-.98-12.4-1.66-18.18-2.36 2.28-15.22.26-24.52-10.44-35.83 11.14-7.71 16.71-11.85 29.18-16.57zM1518.84 1766.89c5.86 3.11 8.4 19.29 4.14 24.79-4.7 1.72-10.12 1.42-15.23 1.55l-2.61-.26c-1.57-2.7-2.65-14.32-3.25-18.53l16.95-7.55zM609.156 1349.19c2.99-.26 7.401-.31 10.523.05 45.081 5.07 102.543 20.44 138.882 48.14 15.42 11.76 31.644 32.32 44.115 46.85 9.891 3.19 28.517 5.37 39.3 7.12 20.198 3.28 38.698 6.51 58.54 11.66 2.035 8.82 4.302 14.39 7.602 22.91-39.898-9.71-72.107-15.35-112.767-21.28a347.236 347.236 0 0 0-35.474-39.18 155.853 155.853 0 0 0-31.548-23.06c-23.699-13.18-82.718-35.18-109.284-35.08-13.625.06-73.66 25.2-86.545 30.7-41.682 17.77-325.811 145.64-334.674 155.88.406 5.04 5.336 7.38 9.96 8.69 45.136 12.77 97 23.27 140.324 40.21 17.079 6.67 43.53 45.8 58.107 60.54 50.881 51.02 124.692 98.23 195.307 116.5 52.331 13.53 136.988.28 191.862 1.24 11.343.2 38.029-1.9 47.114 2.37 58.444 27.48 116.453 56.79 172.74 88.48 8.2 4.71 42.44 23.5 51.37 17.53 22.44-15 50.67-38.3 72.15-54.66 37.95-28.11 72.87-57.33 110.09-86.2 24.82-18.88 49.95-37.35 75.38-55.41 2.18 6.72 5.31 14.17 7.93 20.83-73.51 53.14-141 110.14-212.42 165.59-15.78 12.25-36.66 30.85-51.99 41.49-6.84-2.77-18.72-10.06-25.68-13.93a917.163 917.163 0 0 0-33.92-17.72c-40.081-20.11-80.473-39.15-120.95-58.62-17.14-8.24-50.494-27.68-67.195-31.64-8.271-1.96-50.522 2.52-62.011 3.34-51.673 3.66-129.91 7.81-179.853-8.69-75.821-25.04-155.249-73.81-206.356-135.7-8.46-10.24-19.84-23.7-25.881-35.14-6.75-2.88-15.769-6.1-22.815-8.18-58.234-17.2-116.927-38.17-174.816-55.75 24.005-14.46 60.462-31.34 86.471-43.98 62.303-30 125.07-59.04 188.278-87.08a5200.268 5200.268 0 0 1 108.707-48.05c23.17-10.02 55.319-24.47 79.427-30.77zM919.559 339.641c7.101 1.469 93.771 43.085 102.271 48.379L918.006 606.374a3770.67 3770.67 0 0 0-25.455 53.701c-5.434 11.805-18.458 44.552-27.68 51.253-.794.212-1.59.415-2.389.609-18.001 4.248-68.764-25.704-86.99-33.504-2.818-1.206-12.595-10.557-11.525-13.792 9.879-29.873 26.289-59.984 40.002-88.615l61.238-128.075 30.335-63.379c5.627-11.745 16.172-35.729 24.017-44.931z"/><path fill="#4F4655" d="M932.573 367.911c9.309.182 59.556 18.707 55.63 28.752-7.203 18.433-55.558 132.027-64.012 137.768-3.787.677-2.171 1.024-5.173-.184-1.543-3.721-.394-8.704 1.343-12.202 18.937-38.142 35.196-77.655 54.58-115.553l4.867-9.443c-13.248-6.93-29.375-13.424-43.417-18.589-17.374 41.23-40.036 83.44-59.023 124.227-1.66 3.567-4.812 7.513-9 5.699-1.047-2.193-1.306-2.853-1.17-5.267a23.116 23.116 0 0 1 2.124-8.27c6.269-13.377 59.931-123.95 63.251-126.938zM840.693 555.465c1.083.569 2.436 1.723 3.462 2.51.363 1.535.827 2.247.441 3.46-6.218 18.669-15.771 37.548-23.916 55.497-4.58 10.095-18.019 44.826-25.301 49.327-3.952-2.063-4.023-2.144-5.165-5.338.797-9.438 43.873-99.119 50.479-105.456zM894.429 585.708c3.809.197 4.968.006 6.3 3.425-1.694 10.406-38.478 83.34-45.891 95.896-3.145-1.563-4.66-1.946-6.61-4.872-.136-5.034 40.809-88.005 46.201-94.449z"/><path fill="#F3F3F0" d="M983 1684.79a1245.93 1245.93 0 0 1 237.89 71.1c-48.53 39.2-102.23 77.6-149.33 116.78-4.99 4-7.18 5.12-12.66 8.05-25.29-5.76-60.243-29.19-84.591-41.44-43.739-22-88.277-47.8-133.497-66.57 5.558-3.35 11.556-6.43 17.213-9.68 42.63-24.53 83.314-52.07 124.975-78.24z"/><path fill="#4F4655" d="M1042.71 1726.21c12.19 1.33 14.61 4.26 22.75 13.01 13.29-5.96 33.31-10.56 46.15.57 5.19 4.5 4.12 16.09 4.08 22.65 7.95 2.88 14.77 1.08 20.92 6.39 2.1 5.68-2.35 11.73-6.67 15.14-34.17 26.98-69.48.54-106.91 25.2 15.84 1.59 36.7 2.31 49.4 11.9.56 1.92.36 1.86.34 3.95l-1.61.98c-18.2-6.4-30.42-7.91-49.11-9.85 2.23 6.74 5.25 12.65 2.67 19.18l-1.83.67c-6.17-3.63-8.34-15.9-8.03-22.42.36-7.41 8.65-13.61 13.91-17.97-5.15-9.07-9.11-13.71-3.68-24.02 2.15-4.08 3.35-6.55-.04-9.72-15.07-4.32-40.383 7.54-46.076 2.52l.271-1.65c5.081-5.21 23.945-7.78 31.115-8.17.14-.35.29-.69.44-1.04l.77-1.7c6.14-13.9 16.36-22.17 31.14-25.62z"/><path fill="#F3F3F0" d="M1041.4 1732.97c23.54 1.45 19.04 20.31 25.99 33.56 2.84 2.69 4.68 2.75 8.56 3.75l1.49.38c4.16 15.43-31.86 22.02-42.21 24.29l-2.24-.01c-2.33-4.16-1.41-7.34-2.22-9.77-5.63-16.77 9.73-23.07 10.68-35.66-4.64-1.15-10.89 11.86-20.77 5.46-4.04-9.04 14.08-19.09 20.72-22z"/><path fill="#F3F3F0" d="M1082.61 1740.19c7.73-.87 17.5-1.59 22.94 5 2.57 3.1 4.99 11.88 4.69 15.83-2.37 1.47-3.83 1.9-6.41 2.84-.89 1.45-1.62 1.86-1.32 3.54 2.83 15.81 10.46 13.67 22.06 12.88-9.46 5.44-13.29 7.2-23.89 9.56-11.21 1.3-19.25.83-30.48.23 7.05-5.24 18.96-18.52 13.39-27.72-3.3-1.78-6.16-.78-10.03-.22l-3.09-17.28c4.01-1.85 7.98-3.18 12.14-4.66zM1190.49 536.373c27.28-4.026 61.52 6.364 82.3 24.386a83.33 83.33 0 0 1 28.51 57.369c2.51 41.534-24.59 75.212-58.52 95.791-23.5 14.252-46.37 20.14-73.53 21.619-61.61 1.963-125.91-36.947-105.63-106.75 9.33-32.142 35.76-54.756 63.29-71.724 19.73-12.155 40.57-17.943 63.58-20.691z"/><path fill="#4F4655" d="M1226.62 589.074c3.91-.128 7.78.891 11.12 2.931 25.73 15.372 5.34 81.439-28.46 89.91-37.71-.616-23.97-77.503 17.34-92.841zM1122.44 585.024c25.87 2.798 18.17 41.679 11.08 57.662-5.85 13.189-12.39 21.698-25.98 26.995-35.88-2.581-14.98-74.486 14.9-84.657z"/><path fill="#979596" d="M1110.15 747.809c25.24 1.776 147.4 57.995 172.51 71.305-14.4 8.239-28.07 13.518-42.69 23.382-55.98 37.774-94.08 82.97-123.22 143.154-7.95 18.27-12.16 30.07-17.8 49.09-12.87-57.665-65.43-163.314-107.247-204.498 21.497-20.885 52.237-39.597 77.537-55.649 14.22-9.024 27.56-16.022 40.91-26.784zM1497.56 1317.98c2.19 2.39 10.81 17.08 13.82 21.12 14.04 18.84 28.2 28.53 47.48 40.67-2.66 19.73-3.47 42.04-6.39 62.87-6.25 44.56-31.92 139.67-55.23 175.91-6.26-16.62-11.86-27.41-23.55-40.52a102.563 102.563 0 0 0-20.92-17.2c-24.81-15.35-48.98-18.14-76.98-11.58 2.79-8.48 5.73-17.72 8.85-26.02 18.12-48.13 27.48-99.73 42.6-148.46 22.96-15.45 50.72-37.35 70.32-56.79z"/><path fill="#F3F3F0" d="M375.974 1480.85c3.806.11 25.621 6.41 30.752 7.94 34.567 10.34 85.174 18.89 111.96 43.76 11.384 10.57 28.91 40.53 38.396 54.5-47.138 24.17-92.713 48.87-140.656 72.06l-6.297-6.5c-18.377-19.59-37.686-51.14-63.092-60.51-40.532-14.94-83.631-23.61-124.911-37 18.635-11.04 45.948-23.45 65.509-32.79a3023.543 3023.543 0 0 1 88.339-41.46z"/><path fill="#4F4655" d="M398.992 1576.37c8.042 3.06 17.182 7.86 15.261 17.63-8.545-2.4-15.863-8.17-15.261-17.63zM390.024 1526.58c6.112.7 10.639 4 10.472 10.61-7.553-.02-9.695-3.82-10.472-10.61z"/><path fill="#F3F3F0" d="M557.792 1595.9c5.341-.74 32.953 20.03 39.891 24.05 50.762 29.43 99.387 44.8 154.253 63.71-9.447 7.06-28.012 17.28-38.814 24.37-32.396 21.28-65.578 41.14-99.17 60.48-1.204.7-4.246 2.34-5.469 2.06-63.425-14.65-141.147-60.77-186.087-104.7 45.55-22.56 90.182-47.03 135.396-69.97z"/><path fill="#4F4655" d="M571.205 1668.77c-5.599-2.93-16.064-6.69-18.006-13.39-.827-2.85.53-6.14 2.116-8.49 2.484-3.67 6.534-6.86 11.047-7.43 2.249-.28 3.902.32 5.959 1.12 8.793 3.41 77.276 34.07 81.338 37.75 1.924 1.74 3.259 3.83 3.423 6.48.447 7.23-24.681 38.18-31.006 43.74-3.082 2.7-5.457 3.57-9.58 3.08-13.534-1.59-82.56-34.21-89.705-44.52-1.781-2.57-2.209-4.45-2.258-7.54 2.944-8.12 13.479-9.95 20.46-6.55 17.611 8.59 34.297 22.27 53.461 27.17 2.343-1.15 14.952-6.68 15.805-7.46-7.306-4.85-11.18-10.55-16.516-17.41-18.08-7.1-21.878 1.01-39.115 1.74l-.513-.82c4.15-3.8 7.975-5.14 13.09-7.47z"/><path fill="#F3F3F0" d="M575.972 1666.24c-3.986-9.39-20.165-10.63-10.02-18.44 5.359-1.15 75.307 31.72 83.184 36.62-2.47 5.09-29.043 40.35-32.261 39.14-17.838-6.68-71.443-29.21-83.715-41.17l-.172-1.97c.737-.82 1.425-2.19 2.593-1.88 17.192 4.48 33.109 15.45 49.38 22.24 11.29 4.7 20.592 6.54 32.056 12.23l1.827-.52.612-2.2c-3.421-5.86-5.478-3.39-7.076-8.6 3.685-7.88 25.013-9.31 22.032-17.79-4.405-.76-9.743 3.76-17.389 4.42l-2.764 4.41c-7.306-4.85-11.18-10.55-16.516-17.41-18.08-7.1-21.878 1.01-39.115 1.74l-.513-.82c4.15-3.8 7.975-5.14 13.09-7.47 1.326-1.36 2.89-1.74 4.767-2.53z"/><path fill="url(#a)" d="M575.972 1666.24c1.28.23 22.893 1.77 21.649.49 7.424 7.6 10.564 15.05 19.402 21.59l-2.764 4.41c-7.306-4.85-11.18-10.55-16.516-17.41-18.08-7.1-21.878 1.01-39.115 1.74l-.513-.82c4.15-3.8 7.975-5.14 13.09-7.47 1.326-1.36 2.89-1.74 4.767-2.53z"/><path fill="#F3F3F0" d="M1124.66 1590.28c58.2 7.59 111.28 27.47 164.7 50.63-3.51 23.28-3.21 35.49 7.05 56.93a3966.2 3966.2 0 0 1-68.25 52.15c-15.72-6.45-28.78-12.32-44.96-18.07-8.53-3.67-26.89-9.47-36.31-12.71a1198.815 1198.815 0 0 0-155.303-41.7c27.643-21.85 57.713-41.74 87.653-60.3 14.24-8.83 30.65-19.42 45.42-26.93z"/><path fill="#4F4655" d="M1145.98 1622.28c8.92-1.16 12.67-1.51 20.19 4.1 5.51 4.11 19.38 24.11 13.04 30.15-6.17-1.78-12.47-20.65-17.38-25.07-5.15-4.63-16.35-1.88-20.71 2.99-3.57 13.53 23.57 18.36 5.79 54.95 23.1-2.87 36.6-4.06 54.65 13.42 13.36-2.18 21.47-4.54 31.09-15.59 7.59-8.71 15.85-27.5 14.9-38.98l-1.68-1.36c-6.86 1.08-21.16 4.09-26.93 1.66l-.26-1.47c6.83-7.8 44.96-16.04 36.23 10.7-6.29 19.29-10.38 34.68-29.39 45.79-27 15.76-29.34-2.15-50.95-8.9-5.66-1.71-26 2.74-32.94.2-4.87-1.77 4.3-21.13 3.6-25.94 1-21.36-32.16-31.27.75-46.65z"/><path fill="#F3F3F0" d="M1219.68 1355.32c24.73 22.73 50.8 45 83.53 55.14 37.9 11.75 68.55-4.06 101.3-21.48-7.43 34.83-26.49 97.01-39.01 131.26-4.11 11.89-10.43 28.09-15.58 39.43-12.68-4.09-33.4-13.39-46.42-18.6-38.5-15.43-69.39-23.95-110.83-26.58.8-14.3 4.74-36.27 7.07-50.88 5.53-36.29 12.18-72.41 19.94-108.29zM685.832 1525.84c13.63 9.27 39.848 21.67 55.168 28.31 45.24 19.62 92.835 36.82 139.075 54.39-26.998 13.88-55.017 32.2-81.39 47.46-12.53 7.25-23.625 15.16-36.776 22.06-69.858-19.27-134.63-45.68-194.014-87.33 37.187-21.66 79.704-43.68 117.937-64.89zM617.685 434.12c1.968 2.682 15.88 36.184 17.938 40.967l47.507 110.136 27.273 62.228c4.434 10.087 12.865 27.663 15.212 37.769-7.487 22.239-32.919 31.728-54.379 34.501-4.084.333-14.096-.071-16.412-3.931-9.582-15.971-17.044-35.125-24.602-52.146l-42.138-94.782c-6.177-13.863-18.354-40.229-23.465-53.196-1.956-4.961-.889-48.695-.801-56.833 12.405-7.24 39.796-18.525 53.867-24.713zM1396.2 1564.4c7.73-.52 15.5.09 23.05 1.82 20.84 4.99 40.82 19.2 51.91 37.59 10.7 17.73 13.85 39 8.75 59.07-11.93 45.53-59.38 76.22-105.86 64.06-46.65-15.58-28.96-62.84-46.37-65.57-14.66 5.1-4.45 14.25-16.83 23.27l-1.08.77c-9.78-30.38.62-62.81 20.68-86.58a97.706 97.706 0 0 1 65.75-34.43zM145.174 438.6c28.242 5.773 58.372 7.264 86.394-.356l-.386 287.006c-.022.514-.584 2.028-.77 2.597-7.196 2.144-62.507.761-73.026.759-2.507-72.284 2.344-192.549-1.046-268.2-.117-2.612-8.483-7.225-11.373-8.844l.207-12.962zM523.353 1414.83c5.194.43 19.453 8.36 24.907 11.28a641.6 641.6 0 0 1 101.314 66.1c10.591 8.31 22.405 17.42 31.04 27.65-38.389 21.65-77.503 41.77-115.986 63.67l-6.263-9.07c-8.058-11.02-24.622-38.29-32.86-46.3-32.112-31.22-96.279-40.32-137.169-52.23 44.864-21.89 89.928-40.34 135.017-61.1z"/><path fill="#4F4655" d="M455.134 1451.47c4.661.45 9.747 3.62 13.645 6.12 25.204 16.12 35.958 22.11 66.657 17.81 2.141 2.44 1.514 2.44 2.155 6.25a63.748 63.748 0 0 1-6.668 1.65c-22.13 4.11-45.909-4.77-64.065-17.12-6.24-4.24-10.424-7.48-11.724-14.71zM535.253 1458.6c7.918.73 16.6 3.47 14.72 12.8-9.157-.76-16.776-2-14.72-12.8z"/><path fill="#F3F3F0" d="M274.089 446.766c28.827-.216 58.184.171 87.054.266l.065 214.819c-29.067-.417-58.097-.218-87.206-.795l.087-214.29zM467.1 446.857c28.419-.384 57.724.033 86.211.089l-.377 214.796-85.944-.499.11-214.386zM884.698 1682.48c28.654-.26 57.31-.09 85.959.53-47.573 30.95-91.244 57.92-139.347 87.61-42.058-1.19-80.481 2.71-122.13 4.23-31.85.27-56.711.52-88.476-1.48 48.86-27.8 93.472-57.16 141.32-86.48 25.566 1.33 49.576-1.89 74.893-3.42 15.253-.92 32.375-.83 47.781-.99z"/><path fill="#4F4655" d="M774.71 1727.93c2.494-.13 4.993-.16 7.489-.07 3.889.15 5.11.58 7.501 3.16l-.196 2.91c-5.613.22-10.957 1.6-15.015-2.53l.221-3.47z"/><path fill="#F3F3F0" d="m372.36 446.937 84.345-.154.079 214.862c-27.722.536-56.718.134-84.539.157l.115-214.865zM619.024 1379.1c11.56-1.52 33.042 6.49 44.657 9.85 51.685 14.95 84.527 35.11 118.76 77.43-28.334 15.55-57.166 29.56-85.944 45.68l-7.425 3.72c-46.256-41.38-97.395-80.02-154.575-105.13 24.009-11.45 59.179-23.81 84.527-31.55z"/><path fill="#F2A1AD" d="m1527.7 1263.03.3.2.08 1.18c-10.67 10.55-26.98 27.95-38.54 37.96-39.33 34.11-100.29 86.75-153.28 93.62-32.49 4.22-70.33-23.76-93.53-43.18-15.3-13.06-27.03-26.19-40.68-40.79 113.14 8.97 222.98 4.98 325.65-48.99z"/><path fill="#F3F3F0" d="M787.31 1472.74c9.018 4.13 23.956 5.4 33.923 7.38 29.851 5.94 65.37 9.57 92.577 23.47-9.235 28.42-17.15 41.9-18.88 73.1 4.296 6.57 5.27 7.31 12.542 10.32-6.769 7.07-10.341 10.79-18.948 15.48-12.223-3.89-27.949-10.36-40.278-14.97-49.788-18.1-107.919-39.49-153.27-66 30.804-15.81 61.624-32.62 92.334-48.78z"/><path fill="#4F4655" d="M797.074 1519.26c7.81-.75 17.992-.21 17.499 9.89-6.267.56-16.005-3.29-17.499-9.89z"/><path fill="#F3F3F0" d="m1105.58 1589.42 2.21.36c-1.65 3.53-104.21 63.47-114.274 77.16-.636.87-9.991 7.92-11.682 9.22-43.369-4.24-91.152-.77-135.031-.91-21-.06-43.354 3.64-65.053 3.69-2.188-.03-1.751-.03-3.9-.55l.79-1.52c20.591-13.56 46.871-26.87 68.201-40.35 9.139-3.57 36.123-23.95 44.187-25.25 60.484-9.77 158.082-19.98 214.552-21.85z"/><path fill="#979596" d="M1203.05 1339.91c1.17.14.57-.09 1.61 1.09-1.59 12.46-8.97 37-11.5 51.81-6.91 40.38-14.75 82.14-18.47 122.95l-81.58.06c3.73-7.09 6.72-14.54 8.93-22.23 9.84-37.68-1.5-75.35-30.93-100.69 14.84-2.99 30.89-10.25 45.07-16 29.15-11.87 58.11-24.2 86.87-36.99z"/><path fill="#F3F3F0" d="M1576.56 1387.55c4.62 3.97 11.91 17.88 15.33 23.61 28.27 47.42 47.2 96.73 68.84 147.19-25.47 17.96-40.03 25.4-69.49 36.03-24.3 8.18-43.45 11.09-68.55 13.37 27.8-60.41 50.35-125.04 53-192.14.36-8.96-.16-18.2.76-27.11l.11-.95zM1031.98 396.448c25.83.37 51.65.588 77.47.654l-.16 101.765c-7.98 8.48-16.99 17.112-25.31 25.359-.15-15.461 1.44-94.269-1.81-102.984-7.13-5.576-47.23-6.32-53.89-2.803-3.62 3.947-3.76 6.204-3.83 11.508-.39 32.183-.25 64.409-.12 96.595.02 4.869-.51 8.47 3.06 11.892 3.95.896 2.2 1.19 5.5-.455 4.1-6.36 2.1-56.494 2.15-67.479l.1-42.999c12.61-.136 25.22-.035 37.83.303l.06 66.166c.02 12.743-.42 28.408 1.12 40.837-28.27 30.364-45.43 49.889-71.29 83.275l.35-131.534c-.02-9.048-2.72-21.909-.63-30.419 2.16-8.847 22.8-55.783 29.4-59.681zM1013.13 1390.18c14.67-1.78 26.99 2.51 39.33 10.18 36.71 22.77 44.24 76.66 21.82 111.87-10.07 15.82-23.75 22.83-41.37 26.5-19.51 2.56-41.619.8-48.869-19.23-10.983-30.34 14.407-48.41 29.099-69.33-2.05-8.59-17.237-14.39-20.603-24.61-5.735-17.41 2.244-28.31 20.593-35.38z"/><path fill="#F2A1AD" d="M1559.59 1252.69c13.55 7.19 28.28 14.9 40.75 23.77 33.15 23.63 60.23 55.33 89.59 84-37.57 12.2-64.29 16.12-103.41 7.02-37.76-12.01-54.54-29.4-76.02-61.33 4.47-4.68 10.15-9.87 14.9-14.42.71.93 1.44 1.84 2.17 2.75 6.38 7.81 21.84 28.09 31.25 29.03 8.78-6.41-20.59-36.48-25.24-41.81 7.94-5.88 19.39-20.89 26.01-29.01zM1660.15 1195.39c39.14-6.38 83.27 17.22 122.15 15.99-3.89 6.36-8.24 12.43-13.02 18.16-31.18 37.07-73.3 55.37-120.83 59.67l-15.95-11.69c-14.24-10.91-24.6-17.87-40.45-26.38 22.07-.96 44.73-2.86 66.66-5.46 5.54-.66 12.93-2.96 10.23-9.96-.83-.65-1.67-1.31-2.5-1.97-24.4-.06-67.78 3.62-90.27 6.1 3.91-2.77 9.21-5.6 13.55-7.8 19.41-9.83 36.09-24.56 55.46-34.11 3.12-1.54 11.24-2.17 14.97-2.55z"/><path fill="#F3F3F0" d="M563.398 541.771c3.456 3.218 12.659 26.057 15.077 31.616l39.237 89.009c7.507 17.171 15.243 36.776 24.355 53.07 3.716 6.644 7.415 9.046 13.562 13.053a6010.67 6010.67 0 0 0-92.059-.279c-.4-62.156-.457-124.313-.172-186.469z"/><path fill="#F2A1AD" d="M1055.22 1262.2c13.08 2.98 19.01 6.61 29.03 15.06l-54.8 98.72c-26.63-.56-49.4 13.77-51.653 43.09-.964 12.54 5.514 20.55 13.725 29.18-13.677 17.8-19.148 25.77-26.824 46.42-1.229 3.59-2.373 8.09-3.428 11.8-9.922-9.77-17.481-12.35-29.794-18.06 9.76-21.48 23.779-46.97 34.909-67.84a4626.218 4626.218 0 0 1 88.835-158.37z"/><path fill="#F3F3F0" d="M947.278 1546.24c12.383 2.31 24.112 2.1 36.454 3.93 7.175.94 16.688 6.38 23.468 7.49 50.02 8.19 102.73-.09 153.13-1.58-11.54 8.69-27.58 18.7-39.86 26.55-6.84-.3-14.06-.28-20.94-.38-71.06 2.21-128.445 10.74-198.276 19.88 10.368-9.63 36.722-43.76 46.024-55.89zM1091.94 1292.69c23.71 7.79 68.02 13.96 93.19 17.62l6.68 14.42c-16.96 8.45-43.53 19.24-61.19 26.25-15.42 6.39-37.87 15.39-52.2 22.9-9.44-3.92-16-4.86-26-6.52 12.82-25.08 26-49.97 39.52-74.67zM1175.43 1556.08c42.44.14 93.6 22.64 132.77 39.54-9.09 12.87-12.04 22-16.88 36.66l-17.07-7.76c-44.01-19.14-93.11-35.57-140.99-40.98 12.19-9.02 29-20.45 42.17-27.46zM353.14 369.139l8.069 4.95.146 63.715a6066.605 6066.605 0 0 0-80.605-.445c-2.815.034-3.032-.036-5.807-.619-2.048-3.551-.975-54.06-.929-61.93 24.665 3.561 55.982 4.726 79.126-5.671zM447.046 369.049c1.806.291 7.444 4.154 9.399 5.379a4011.345 4011.345 0 0 0-.02 62.826l-75.722.156c-3.418.075-4.904.389-8.043-1.027-1.5-5.938-.756-52.598-.721-61.484 22.867.256 54.766 5.03 75.107-5.85zM541.941 373.292c16.615-1.37 11.073 51.275 11.02 63.729-26.07.283-52.14.422-78.211.419-2.923.079-4.54.426-7.102-.961-1.479-5.608-.687-52.596-.637-61.23 22.724 4.174 52.387 2.622 74.93-1.957z"/><path fill="#F3F3F0" d="M1081.06 1530.87c17.69 5.06 63.12 2.87 83.47 2.1 60.99-2.32 109.73 15.27 165.62 39.57-6.38 5.51-9.72 9.05-15.41 15.34-5.85-2.15-11.76-4.85-17.49-7.35-21.7-9.25-66.44-27.95-89.18-30.78-50.32-6.28-112.32 3.06-163.26 4.23 16.85-5.19 23.64-11.3 36.25-23.11zM273.974 683.865l87.633.033.072 44.896c-28.434.581-59.116-.068-87.731-.127l.026-44.802zM467.388 684.229l85.611-.201-.059 44.729-85.521-.21-.031-44.318zM372.646 683.967l84.19.024c.088 14.841.059 29.683-.086 44.523l-84.333.111c-.028-14.886.048-29.773.229-44.658zM1669.03 1579.15c3.16 3.88 20.15 54.75 22.97 62.77-30.42-7.2-57.43-10.94-88.23-15.01-13.49-2.06-29.02-3.54-42.61-4.69 42.21-6.58 72.56-19.47 107.87-43.07zM643.551 209.476l14.973-.176-.019 23.59-76.005-.134-17.879.034.056-23.244c25.281.898 53.502.236 78.874-.07zM965.794 209.569l.54.278c1.248 3.352.716 17.952.68 22.481l-91.908-.007c-2.098-2.644-1.255-17.904-1.218-22.358 29.982.019 62.098.58 91.906-.394zM173.143 416.41c7.179-.949 62.532-2.708 58.985 10.579-6.027 5.81-19.668 6.761-27.888 7.705-11.526.622-53.295 1.915-60.035-9.273l.458-1.629c6.586-5.51 20.088-6.571 28.48-7.382zM946.772 1398.18c4.998-.23 8.96.83 13.872 1.77-12.583 18.39-25.177 45.39-35.256 65.8-1.324 2.96-.511 2.19-2.772 4.04-1.832-1.71-2.069-2.24-2.596-4.79-5.2-25.2-3.07-59.03 26.752-66.82z"/><path fill="#F2A1AD" d="M931.155 1503.57c8.631 1.52 15.982 6.71 23.081 11.54-7.395 13.3-16.47 26.81-25.176 39.29l-.531.66c-3.255.92-15.985-3.82-20.309-5.17 7.497-18.59 12.273-29.55 22.935-46.32z"/><path fill="#F3F3F0" d="M484.64 351.425c6.835-.555 53.332-1.401 50.611 11.014-5.962 4.978-20.77 5.478-28.501 5.871-9.581.678-45.875.931-50.45-9.639l.944-2.158c7.607-4.831 18.25-4.514 27.396-5.088zM381.61 350.391c11.212-.845 53.951-2.537 60.516 8.127l-.707 1.724c-6.106 4.168-12.056 4.602-19.181 5.452-17.279 1.391-37.944-.131-55.577-1.034-2.365-2.836-4.791-6.423-6.979-9.466 8.271-3.065 13.311-3.853 21.928-4.803zM294.721 351.429c8.146-.449 49.83-2.686 50.71 8.708-5.098 5.357-19.403 6.543-26.676 7.147-8.581.789-51.319 1.83-51.939-9.209 5.197-5.667 20.471-6.02 27.905-6.646zM598.003 411.976c10.992.84 12.93 6.515 16.82 15.553-12.186 4.392-27.438 11.706-39.541 17.155l-11.148 4.76-.076-24.033c10.096-4.566 23.558-9.587 33.945-13.435zM1072.75 1231.74c11.88.95 19.24 6.56 28.27 13.54-2.12 6.13-5.69 16.88-10.62 20.98-10.58-7.89-17.37-11.4-30.27-14.03 3.33-6.14 7.95-15.82 12.62-20.49zM274.066 669.281c18.395-.044 36.789.019 55.183.191 9.261.078 22.065-.174 31.023.79 1.66 2.762 1.074 3.993 1.199 7.719l-56.11.094c-7.724.013-23.296.532-30.34-.624-1.585-2.256-1.031-5.208-.955-8.17zM466.896 669.816c20.293-.684 41.12.291 61.471-.113 7.291-.145 16.201-.282 23.385.683 1.619 2.722 1.103 4.78 1.173 8.335-18.422-.488-37.05-.127-55.475-.352-8.658-.105-20.797.466-29.163-.702-1.658-2.558-1.16-4.31-1.391-7.851zM372.698 669.995c20.96-.449 42.084.143 63.063-.195 6.456-.105 13.464-.296 19.835.59 1.738 2.626 1.175 3.911 1.387 7.593-20.8.624-62.895.968-82.934-.273-1.556-1.904-1.136-4.652-1.351-7.715zM963.252 1523.64c5.074 8.14 8.173 12.02 14.462 19.15l-9.101-1.72-16.993-.56 11.632-16.87zM906.934 1559.11c4.604 1.33 9.419 3.48 13.89 5.31-2.202 3-4.716 6.08-7.025 9.02-2.164 1.73-1.804 1.29-4.544 2.33-3.278-.64-1.901.17-4.009-2.91-1.108-5.61.122-8.35 1.688-13.75zM1046.11 1376.54c3.13 1.75 8.17 3.77 11.57 5.25l-.37 2.04c-4.83-.1-10.22.93-12.68-3.62l1.48-3.67z"/></svg>