<svg xmlns="http://www.w3.org/2000/svg" width="300" height="300" viewBox="0 0 300 300"><path fill="#859db4" d="M189.458 99.778c-.34-4.97-1.946-15.503 2.451-18.696 5.928-4.305 12.908-7.969 19.3-11.646l40.37-23.295c6.386-3.696 17.325-9.632 22.904-13.869-.169-2.08-.942-9.07-.473-10.705C278.558 5.709 292.524 9.67 300 19.31v9.626c-5.591 8.613-8.303 7.361-17.21 9.7-1.194 4.872-1.617 18.543-1.998 24.293l-3.442 50.238c-.472 6.59-.902 18.057-1.826 24.017-4.537 3.356-16.74 8.98-22.18 10.96l.241 1.547c9.111 14.523 11.055 36.214 7.184 52.62-5.562 23.575-21.595 42.648-41.781 55.302q-1.399.866-2.888 1.566c-28.964 20.675-73.357 25.645-106.309 13.343-6.76-2.524-21.767-8.784-27.244-13.42a23 23 0 0 1-1.838-.85c-5.492-2.823-9.744-6.65-14.41-10.596-29.742-25.16-38.847-64.308-20.809-99.366-3.667-1.78-18.006-8.45-19.822-10.386-3.401-3.625-3.93-30.563-4.301-36.001l-4.314-64.324C7.65 37.916 5.23 36.199 0 28.869v-8.513c5.493-8.274 13.11-13.159 22.74-5.712 4.575 3.539 2.415 12.512 2.335 17.776 3.248 2.661 16.106 9.746 20.31 12.155l39.433 22.768c7.519 4.37 19.12 10.805 25.727 16.004.308 6.044.443 9.734-.017 15.863 20.498-7.358 59.246-8.331 78.93.568"/><path fill="#fefefe" d="M196.844 178.418c24.763 13.259 42.825 38.108 24.966 65.471-3.002 4.6-7.997 9.155-11.945 13.073l.383 1.255c-1.039 1.91-3.145 2.999-5 4.161l.25.821c4.413-.047 7.66-6.083 10.602-4.02-28.964 20.675-73.357 25.645-106.309 13.343-6.76-2.524-21.767-8.784-27.244-13.42l2.212-.52c2.656 1.685 7.666 5.577 10.09 5.872l.705-1.28c-.857-.426-1.734-.834-2.537-1.353l1.16-.489c-9.474-7.515-17.455-14.629-22.186-26.154-9.655-23.52 9.206-48.202 30.409-56.636 14.75 6.421 32.442 14.642 47.27 20.173 8.086-2.145 38.108-16.188 47.174-20.297"/><path fill="#667990" d="m209.865 256.962.383 1.255c-1.039 1.91-3.145 2.999-5 4.161l.25.821c4.413-.047 7.66-6.083 10.602-4.02-28.964 20.675-73.357 25.645-106.309 13.343-6.76-2.524-21.767-8.784-27.244-13.42l2.212-.52c2.656 1.685 7.666 5.577 10.09 5.872l.705-1.28c-.857-.426-1.734-.834-2.537-1.353l1.16-.489c2.442.916 6.184 3.275 8.838 4.518 32.924 15.425 77.577 13.034 106.85-8.888"/><path fill="#667990" d="M205.962 203.335c.498.031 1.13.494 1.61.776-.534 2.759-3.802 1.962-4.37 5.076-1.856 10.164.538 33.603-17.648 25.273-6.539-6.742-5.56-15.306-5.588-24.2 9.954-1.1 16.995-2.513 25.996-6.925"/><path fill="#667990" d="M91.745 203.175c2.078-.118 3.068.696 4.938 1.448 8.506 3.42 14.415 4.616 23.318 5.639-.215 8.525.362 14.596-3.77 22.061-13.942 14.323-20.001-8.89-18.934-19.143.759-7.294-3.278-4.394-5.552-10.005"/><path fill="#667990" d="M147.434 230.677a7.369 7.369 0 1 1 5.214 13.783 7.369 7.369 0 0 1-5.214-13.783"/><path fill="#485870" d="M134.587 247.412c12.181 5.381 14.452 9.605 28.597.175l1.204.284.126 1.783q-.408.36-.833.7c-7.566 6.022-30.45 8.406-29.094-2.942"/><path fill="#485870" d="m253.585 149.69-1.819-.078c-2.974-2.35-4.917-6.656-7.25-9.705-13.738-17.955-31.923-29.264-52.635-37.541-.953-.381-.823-.537-1.328-1.425l.91-.15c27.806 9.724 44.77 23.32 60.758 46.582.052.076.99.69 1.123.77z"/><path fill="#fefefe" d="M145.122 132.93c15.945-2.081 28.842 3.887 32.916 20.25-2.782 13.375-9.933 17.966-22.609 20.793-38.725 2.605-45.864-34.76-10.307-41.043"/><path fill="#859db4" d="M161.612 149.805a3.953 3.953 0 1 1 3.295 7.187 3.953 3.953 0 0 1-3.295-7.187"/><path fill="#859db4" d="M135.554 149.833a3.887 3.887 0 1 1 3.142 7.11 3.887 3.887 0 0 1-3.142-7.11"/><path fill="#485870" d="m109.172 99.721.714.651c-1.227 1.657-15.444 7.451-19.028 9.268a110 110 0 0 0-14.952 9.097c-12.923 9.396-18.722 17.334-28.095 29.724l-.918-1.29c.39-2.673 5.004-6.941 6.801-9.413 14.43-19.848 33.466-29.1 55.478-38.037"/></svg>