<?xml version="1.0" encoding="UTF-8" standalone="no"?>
<svg
   height="1024"
   preserveAspectRatio="none"
   style="display: block;"
   version="1.1"
   viewBox="0 0 2048 2048"
   width="1024"
   id="svg93"
   sodipodi:docname="kuromi_map.svg"
   inkscape:version="1.4.2 (ebf0e940d0, 2025-05-08)"
   xmlns:inkscape="http://www.inkscape.org/namespaces/inkscape"
   xmlns:sodipodi="http://sodipodi.sourceforge.net/DTD/sodipodi-0.dtd"
   xmlns="http://www.w3.org/2000/svg"
   xmlns:svg="http://www.w3.org/2000/svg">
  <sodipodi:namedview
     id="namedview93"
     pagecolor="#ffffff"
     bordercolor="#000000"
     borderopacity="0.25"
     inkscape:showpageshadow="2"
     inkscape:pageopacity="0.0"
     inkscape:pagecheckerboard="0"
     inkscape:deskcolor="#d1d1d1"
     inkscape:zoom="0.7890625"
     inkscape:cx="511.36634"
     inkscape:cy="512"
     inkscape:window-width="1920"
     inkscape:window-height="1011"
     inkscape:window-x="0"
     inkscape:window-y="32"
     inkscape:window-maximized="1"
     inkscape:current-layer="svg93" />
  <defs
     id="defs2">
    <linearGradient
       gradientUnits="userSpaceOnUse"
       id="Gradient1"
       x1="593.958"
       x2="583.142"
       y1="1668.71"
       y2="1688.59">
      <stop
         class="stop0"
         offset="0"
         stop-color="rgb(68,60,68)"
         stop-opacity="1"
         id="stop1" />
      <stop
         class="stop1"
         offset="1"
         stop-color="rgb(74,75,76)"
         stop-opacity="1"
         id="stop2" />
    </linearGradient>
  </defs>
  <path
     d="M 753.14 232.201 L 752.898 126.414 C 752.899 110.671 752.821 94.9031 753.067 79.1673 C 753.124 75.5687 755.759 73.6692 758.702 72.4165 C 760.739 73.0841 761.153 73.1209 762.167 75.1624 C 765.71 82.2913 763.74 184.898 763.749 200.918 C 795.755 201.106 827.762 201.123 859.769 200.969 L 862.005 197.359 C 863.467 159.081 861.813 119.944 862.278 81.6088 C 862.309 79.106 863.302 76.9707 864.578 74.9172 C 867.947 73.1612 866.13 73.5424 870.305 74.3126 C 874.238 78.0931 873.838 83.8769 873.834 89.6439 C 873.807 126.768 873.786 163.921 873.881 201.052 L 930.387 201.05 C 941.54 201.06 956.439 200.657 967.117 202.056 C 967.596 174.187 967.788 146.314 967.692 118.441 C 967.716 107.825 965.833 81.9552 970.797 73.8753 L 973.097 72.746 C 975.818 73.8019 978.992 76.5011 979.012 78.4917 C 979.423 120.371 978.612 192.525 978.808 232.277 L 997.785 232.16 L 997.646 126.699 C 997.661 117.939 996.126 80.4489 999.724 74.81 C 1002.93 72.6912 1001.26 73.1194 1004.79 73.0711 C 1011.9 78.7682 1009 117.273 1009 127.916 L 1009 232.321 L 1036.2 232.369 L 1036.13 128.007 C 1036.12 112.032 1035.97 96.0316 1036.29 80.0639 C 1036.37 76.0263 1039.2 73.6 1042.76 72.4371 C 1047.77 74.2081 1048.25 80.1246 1048.27 84.9892 C 1048.33 99.7804 1048.07 114.579 1048.07 129.387 L 1047.95 232.451 L 1109.34 232.342 L 1109.26 130.591 C 1109.2 116.341 1109.14 102.085 1109.07 87.835 C 1109.04 82.4888 1108.43 78.2177 1112.42 74.0444 C 1116.09 72.861 1114.32 72.7987 1117.9 74.2508 C 1119.9 76.5852 1121.45 79.0265 1121.45 82.2083 C 1121.42 94.1241 1121.24 106.437 1121.24 118.337 L 1121.24 203.366 L 1121.03 488.073 C 1150.68 459.982 1179.71 434.926 1209.02 407.694 L 1208.79 186.592 L 1208.94 110.32 C 1208.97 102.725 1207.23 82.238 1210.5 76.4776 C 1213.11 74.7108 1212.9 74.7967 1216.05 74.6494 C 1223.58 80.3396 1221.18 106.312 1221.15 116.086 L 1221.09 172.148 L 1221.34 317.045 C 1221.38 343.405 1220.91 371.995 1221.7 398.124 C 1260.95 368.115 1367.82 283.884 1414.81 289.353 C 1423.67 290.385 1431.34 294.578 1436.77 301.698 C 1456.44 327.482 1453.17 388.502 1448.28 419.509 C 1444.91 440.843 1440.16 462.852 1434.13 483.577 C 1455.04 486.042 1481.61 494.688 1501.86 501.01 C 1524.01 492.722 1544.54 483.751 1567.17 476.026 C 1647.06 448.492 1730.22 431.556 1814.52 425.652 C 1838.77 424.19 1897.4 419.742 1906.25 448.849 C 1913.92 474.083 1891.72 513.251 1880.15 535.565 C 1842.19 602.833 1786.47 675.571 1725.17 722.903 C 1768.53 787.462 1810.31 855.922 1805 937.499 C 1799.35 1024.22 1738.61 1105.15 1678.86 1164.11 C 1675.06 1167.86 1670.82 1171.34 1667.29 1175.25 C 1709.06 1172.41 1729.81 1183.96 1769.86 1189.56 C 1781.24 1191.15 1797.16 1185.8 1806.76 1191.36 C 1814.38 1201.06 1808.44 1208.55 1803.19 1217.82 C 1773.9 1269.5 1722.66 1299.28 1664.85 1306.35 C 1682.63 1324.47 1700.02 1341.05 1719.2 1357.64 C 1721.88 1359.96 1718.82 1369.44 1715.33 1371.5 C 1684.6 1389.64 1639.13 1393.78 1605.58 1390.25 L 1602.62 1389.93 C 1627.29 1426.16 1643.76 1463.86 1661.56 1503.74 C 1681.85 1511.27 1702.32 1521.89 1722.01 1530.89 C 1779.76 1557.29 1889.8 1607.1 1917.01 1667.21 C 1925.54 1685.61 1926.22 1706.7 1918.87 1725.61 C 1880.84 1824.78 1656.1 1874.25 1561.8 1889.81 C 1408.64 1915.1 1247.01 1924.28 1091.73 1923.21 C 1084.36 1928.73 1073.12 1939.23 1063.66 1937.82 C 1052.82 1936.21 1044.54 1925.77 1033.89 1923.69 C 1021.13 1922.56 1006.44 1922.26 993.547 1921.79 C 969.969 1921.03 946.405 1919.88 922.863 1918.36 C 832.849 1912.49 744.427 1904.17 655.858 1886.49 C 644.984 1884.32 612.966 1878.89 604.62 1873.54 C 602.675 1870.37 603.302 1872.11 603.236 1867.98 C 606.756 1862.54 611.904 1864.04 617.624 1865.46 C 625.843 1867.49 633.819 1869.51 642.129 1871.19 C 677.901 1878.43 713.871 1884.66 749.996 1889.86 C 839.071 1901.82 921.512 1905.5 1010.61 1910.11 C 964.388 1888.98 919.587 1865.76 873.743 1844.18 C 862.809 1839.03 825.056 1818.04 815.398 1817.47 C 782.855 1815.56 738.956 1823.28 705.409 1823.08 C 669.844 1822.87 637.234 1824.09 602.264 1817.17 C 523.861 1800.7 442.662 1754.09 384.855 1699.26 C 364.684 1680.13 346.436 1656.57 330.375 1634.55 C 304.383 1625.67 126.159 1572.06 120.137 1562.36 C 117.517 1550.33 137.8 1544.52 147.266 1539.62 C 283.772 1468.98 425.022 1406.59 567.039 1347.9 C 596.336 1335.8 605.341 1332.4 637.158 1338.76 C 681.581 1347.64 727.75 1359.52 764.787 1386.88 C 782.799 1400.4 795.756 1419.36 811.099 1434.64 C 837.355 1437.33 872.281 1443.35 897.965 1449.56 C 898.528 1428.18 902.073 1408.94 918.175 1393.67 C 934.225 1378.45 949.167 1377.34 968.359 1386.09 C 972.156 1378.13 976.085 1369.43 980.446 1361.83 C 954.87 1356.68 948.106 1355.4 903.579 1346.9 C 785.528 1324.36 655.775 1299.36 534.849 1292.06 C 534.217 1291.38 533.585 1290.7 532.954 1290.02 C 532.258 1286.03 532.055 1287.92 533.603 1284.16 C 549.186 1273.99 738.086 1305.48 767.404 1310.45 C 834.815 1321.87 902.044 1334.35 969.064 1347.89 C 974.871 1349.11 980.919 1350.38 986.636 1351.88 C 1000.14 1326.25 1016.1 1301.03 1029.96 1275.18 C 966.532 1244.71 937.549 1216.34 914.331 1150.11 L 911.74 1142.62 C 875.299 1124.24 843.48 1072.19 830.638 1034.99 C 813.795 986.193 822.443 934.939 847.291 890.625 C 864.391 860.128 882.384 834.269 897.093 801.675 L 322.584 801.519 L 168.007 801.672 C 147.592 801.667 127.115 801.982 106.704 801.944 C 103.334 801.937 95.9475 801.205 93.3392 798.938 C 92.0754 797.839 92.531 797.821 92.3735 795.78 C 94.4731 792.512 97.8695 790.299 101.706 789.697 C 104.579 789.233 120.343 789.759 124 789.791 L 165.485 789.742 L 331.565 789.353 L 901.323 789.163 C 908.127 773.54 915.6 755.344 923.145 740.233 C 854.311 739.45 785.473 739.225 716.636 739.558 L 338.975 739.728 L 177.959 739.86 C 154.969 739.862 131.961 739.801 108.974 740.116 C 104.01 740.183 97.1996 739.97 93.2068 736.805 C 92.1174 735.955 92.2431 735.082 91.9553 733.81 C 92.9055 732.092 93.9315 729.719 96.0875 729.492 C 110.639 727.958 132.758 728.762 146.987 728.773 L 146.947 486.537 C 136.686 486.893 98.5971 490.871 92.3723 484.3 C 91.9261 483.829 91.6861 483.199 91.343 482.648 C 94.353 474.843 116.971 478.641 124.192 478.248 C 137.269 477.538 149.179 483.09 146.055 464.226 C 138.868 455.643 101.326 461.172 92.2053 454.482 C 90.9931 451.309 91.0111 452.89 92.3806 449.584 C 100.688 443.754 125.456 447.852 135.523 449.37 C 135.395 441.244 133.71 420.415 139.103 415.043 C 150.713 405.596 177.435 405.441 191.1 405.316 C 204.598 405.192 230.385 406.491 239.33 415.976 C 244.715 421.687 242.834 454.233 242.813 463.1 L 242.624 531.108 L 242.347 728.646 L 263.83 728.726 L 263.875 374.074 C 259.528 371.028 252.13 363.844 252.906 359.341 C 256.468 338.68 308.115 340.188 319.99 340.895 C 334.698 341.771 345.057 343.83 354.069 348.606 C 375.972 336.387 428.082 336.259 450.059 349.041 C 471.472 338.132 509.004 339.591 532.414 345.336 C 549.413 349.508 543.084 362.049 557.951 371.353 C 565.717 376.213 564.054 405.455 564.043 415.947 C 588.093 403.545 610.297 389.312 624.44 421.988 C 632.063 439.6 639.871 457.546 647.442 475.203 L 686.392 565.173 L 715.494 632.162 C 721.292 645.494 726.733 658.44 732.132 671.937 C 741.553 695.487 724.189 711.495 703.755 720.597 C 696.092 723.945 688.151 726.618 680.024 728.585 C 700.772 729.478 723.586 728.557 744.487 728.24 C 806.043 727.306 868.804 730.174 930.238 728.311 C 948.279 701.183 963.246 671.808 982.812 645.483 C 984.183 643.639 993.532 629.685 993.427 627.832 C 990.578 577.56 993.809 527.182 992.083 476.734 C 966.855 526.879 942.655 577.534 919.496 628.667 C 907.336 654.861 893.692 685.433 879.459 711.157 C 861.789 743.093 795.814 697.795 772.992 689.784 C 759.288 684.974 747.969 666.361 755.56 652.81 C 803.404 549.719 852.798 447.136 903.137 345.209 C 905.331 341.508 910.646 330.987 914.974 330.363 C 925.541 328.84 944.056 337.551 953.667 342.901 C 973.456 353.919 1020.49 368.926 1032.4 385.947 C 1058.18 386.143 1083.95 386.122 1109.73 385.884 L 1109.63 298.906 L 442.701 300.233 C 361.815 300.89 280.926 301.039 200.037 300.68 C 186.965 300.668 98.8367 302.256 93.5544 298.932 C 92.0697 295.466 92.188 297.195 93.1811 293.563 C 99.9695 287.119 128.071 289.246 137.999 289.223 L 198.28 288.994 L 383.677 288.753 L 848.72 287.895 C 934.471 287.782 1023.81 288.703 1109.33 286.959 C 1109.5 272.725 1109.5 258.49 1109.32 244.256 C 860.766 241.906 609.747 245.729 360.928 245.487 L 185.237 245.853 C 172.459 245.855 101.87 246.994 95.7466 244.03 C 93.6385 240.506 93.9961 242.314 94.2659 238.504 C 99.3886 231.57 131.508 234.222 141.043 234.207 L 232.572 234.04 L 553.38 232.919 L 553.273 130.739 C 553.264 120.606 551.432 79.5551 556.047 74.7194 C 559.875 73.6339 558.071 73.5455 561.655 74.7229 C 566.596 80.9044 564.413 108.72 564.443 117.746 L 564.669 201.196 C 596.009 200.912 627.35 200.854 658.691 201.023 L 658.512 117.123 C 658.483 107.533 656.728 82.2961 660.047 74.9655 C 663.844 71.8192 668.951 73.7134 668.998 76.9868 C 669.749 128.788 669.193 180.716 669.391 232.565 C 697.307 232.297 725.224 232.176 753.14 232.201 z"
     fill="rgb(79,70,85)"
     transform="translate(0,0)"
     id="path3" />
  <path
     d="M 859.769 200.969 L 862.005 197.359 C 862.262 208.871 862.685 220.726 862.527 232.212 L 763.677 232.341 L 763.549 210.015 L 827.1 210.125 C 834.386 210.134 852.745 210.622 858.659 209.369 C 860.474 206.474 859.91 204.946 859.769 200.969 z"
     fill="rgb(243,243,240)"
     transform="translate(0,0)"
     id="path4" />
  <path
     d="M 1406.39 309.047 C 1426.3 308.516 1428.51 330.062 1430.31 345.402 C 1435.6 390.485 1424.47 438.273 1411.44 481.28 C 1363.42 472.467 1306.35 475.581 1259.05 486.455 C 1247.4 489.133 1244.05 499.495 1254.4 505.515 C 1257.71 507.442 1278.5 503.249 1283.12 502.871 C 1320.67 496.794 1358.52 496.03 1396.32 499.182 C 1423.68 501.464 1448.22 506.947 1474.79 513.272 C 1468.53 516.288 1461.04 520.124 1455.17 523.422 C 1442.54 530.517 1452.18 544.053 1458.7 541.48 C 1473.24 535.738 1488.01 528.478 1502.62 522.351 C 1602.56 480.063 1708.72 454.314 1816.93 446.116 C 1833.85 444.918 1869.83 442.091 1883.47 452.08 C 1893.47 459.4 1873 498.471 1868.24 507.86 C 1829.43 583.238 1776.62 650.54 1712.64 706.173 C 1706.31 699.169 1684.56 669.424 1674.83 678.438 C 1664.83 687.705 1684.06 702.123 1689.12 708.718 C 1735.58 769.298 1779.42 843.33 1783.17 921.274 C 1785.46 999.747 1730.06 1079.97 1678.38 1134.73 C 1613.43 1203.53 1534.41 1250.86 1444.95 1280.15 C 1433.84 1283.78 1399.96 1294.39 1389.2 1294.7 L 1389.82 1293.31 L 1394.05 1292.47 C 1428.08 1285.96 1475.7 1259.97 1500.06 1236.76 C 1598.43 1143.04 1581.85 1040.27 1498.78 946.757 C 1494.58 941.257 1474.78 922.105 1469.3 917.101 C 1391.82 846.432 1287.29 793.105 1190.26 754.671 C 1199.93 752.46 1208.88 750.259 1218.38 747.296 C 1277.85 728.736 1330.68 672.714 1320.02 606.665 C 1315.92 579.805 1301.08 555.765 1278.9 540.071 C 1210.58 491.122 1109.49 523.512 1062.97 587.706 C 1038.44 621.573 1030.13 664.795 1052.54 702.033 C 1062.23 718.151 1074.57 728.222 1089.8 738.786 C 1013.47 784.556 936.759 833.679 893.441 915.794 C 856.153 986.479 880.306 1048.13 903.717 1118.18 C 839.243 1043.56 817.732 973.067 872.977 885.252 C 884.166 867.466 896.38 848.962 905.934 830.316 C 921.368 799.572 931.422 767.522 948.789 737.611 C 990.328 666.07 1038.28 596.401 1097.37 538.029 C 1162.64 473.553 1231.54 410.786 1308.41 360.319 C 1338.64 340.471 1371.19 318.822 1406.39 309.047 z"
     fill="rgb(151,149,150)"
     transform="translate(0,0)"
     id="path5" />
  <path
     d="M 1307.52 830.951 C 1307.84 831.023 1308.16 831.096 1308.49 831.168 C 1387.34 872.659 1474.43 933.975 1521.56 1010.29 C 1546.89 1051.29 1553.35 1092.96 1542.86 1133.53 C 1529.18 1186.45 1488.74 1226.24 1443.28 1252.11 C 1351.79 1306.12 1201.16 1299.65 1101.93 1274.17 C 1105.79 1266.97 1114.18 1253.39 1112.35 1245.74 C 1108.48 1230.75 1084.02 1217.51 1069.49 1220.42 C 1060.04 1222.32 1048.06 1248.19 1042.79 1256.83 C 1028.67 1251.01 1015.53 1243.64 1002.54 1235.67 C 945.943 1197.47 941.8 1167.29 920.673 1108.48 C 878.493 991.08 883.412 927.712 980.787 838.898 C 1034.43 907.255 1075.82 993.54 1095.02 1078.17 C 1095.73 1078.7 1096.44 1079.23 1097.16 1079.76 C 1104.4 1076.54 1108.69 1057.13 1111.2 1049.3 C 1114.65 1038.61 1118.46 1028.05 1122.63 1017.62 C 1149.54 951.077 1194.33 892.842 1256.36 855.47 C 1272.77 845.581 1289.95 838.429 1307.52 830.951 z"
     fill="rgb(243,243,240)"
     transform="translate(0,0)"
     id="path6" />
  <path
     d="M 1336.93 958.551 C 1352.29 960.815 1347.14 975.511 1343.17 985.598 C 1335.43 1005.26 1324.97 1019.62 1303.6 1024.57 C 1323.8 1061.12 1334 1124 1309.24 1161.59 C 1299.18 1176.87 1283.23 1173.52 1270.68 1162.81 C 1252.77 1144.29 1246.67 1112.34 1244.65 1085.43 C 1243.1 1064.77 1245.5 1007.5 1275.98 1003.25 C 1283.27 1002.23 1291.32 1008.99 1296.7 1013.93 C 1332.31 995.136 1321.47 972.38 1336.93 958.551 z"
     fill="rgb(79,70,85)"
     transform="translate(0,0)"
     id="path7" />
  <path
     d="M 936.863 941.991 C 959.893 947.545 929.914 979.335 966.049 1001.61 C 1011.61 954.766 1040.94 1103.51 1008.57 1148.5 C 993.229 1162.93 978.173 1151.14 970.092 1135.55 C 952.991 1102.56 952.585 1052.31 962.669 1017.12 C 949.254 1012.49 940.252 1005.73 933.886 992.465 C 927.79 979.761 920.748 949.286 936.863 941.991 z"
     fill="rgb(79,70,85)"
     transform="translate(0,0)"
     id="path8" />
  <path
     d="M 1084.96 1110.26 C 1134.58 1101.79 1173.91 1162.46 1112.68 1178.78 C 1059.5 1187.74 1023.8 1122.57 1084.96 1110.26 z"
     fill="rgb(79,70,85)"
     transform="translate(0,0)"
     id="path9" />
  <path
     d="M 1086.79 1123.17 C 1121.11 1121.24 1148.65 1151.75 1110.26 1165.73 C 1077.6 1173 1046.33 1133.05 1086.79 1123.17 z"
     fill="rgb(242,161,173)"
     transform="translate(0,0)"
     id="path10" />
  <path
     d="M 1137.03 1223.17 C 1153.99 1220.64 1188.16 1238.19 1200.12 1250.54 C 1202.22 1252.72 1200.74 1255.59 1199.99 1258.08 C 1186.67 1257.52 1163.79 1244.79 1150.97 1239 C 1143.77 1235.76 1135.32 1231.86 1137.03 1223.17 z"
     fill="rgb(79,70,85)"
     transform="translate(0,0)"
     id="path11" />
  <path
     d="M 1668.3 1520.28 C 1720.55 1538.6 1829.78 1595.75 1871.34 1631.38 C 2007.35 1747.99 1757.23 1832.72 1672.24 1854.07 C 1534.33 1888.72 1396.61 1900.89 1254.72 1907.79 C 1205.9 1909.71 1157.04 1910.76 1108.19 1910.94 C 1114.55 1904.98 1125.08 1897.2 1132.29 1891.48 L 1171.28 1860.2 L 1338.91 1728.38 C 1353.12 1739.62 1369.91 1747.04 1388.13 1747.66 C 1450.25 1749.8 1498.16 1704.21 1500.92 1642.94 C 1505.65 1638.16 1508.82 1632.64 1513.41 1627.41 C 1532.01 1628.99 1550.71 1632 1569.25 1634.39 C 1598.44 1638.15 1627.82 1641.73 1656.82 1646.84 C 1666.7 1648.58 1698.92 1658.65 1705.77 1656.78 C 1708.53 1656.03 1710.94 1652.96 1712.03 1650.43 C 1717.71 1637.31 1676.6 1539.72 1668.3 1520.28 z"
     fill="rgb(243,243,240)"
     transform="translate(0,0)"
     id="path12" />
  <path
     d="M 1748.59 1670.15 C 1749.3 1670.11 1750.02 1670.06 1750.73 1670.05 C 1757.2 1669.94 1763.43 1673.77 1767.8 1678.33 C 1778.94 1689.93 1783.63 1709.96 1783.11 1725.65 C 1782.88 1732.64 1780.73 1739.17 1775.48 1744.01 C 1768.63 1750.33 1591.57 1806.6 1573.95 1808.62 C 1560.53 1810.15 1547.17 1805.73 1533.85 1804.91 C 1523.97 1804.31 1513.72 1806.06 1503.7 1805.91 C 1492.49 1804.87 1467.86 1805.19 1463.7 1792.82 C 1464.26 1779.42 1495.96 1763.19 1506.53 1757.27 C 1518.01 1750.84 1531.18 1735.84 1543.07 1731.45 C 1593.24 1712.88 1645.94 1699.95 1697.15 1684.34 C 1714.1 1679.22 1731.84 1674.06 1748.59 1670.15 z"
     fill="rgb(79,70,85)"
     transform="translate(0,0)"
     id="path13" />
  <path
     d="M 1766.59 1713.01 L 1768.92 1713.03 C 1772.62 1717.72 1769.08 1729.85 1767.21 1735.2 C 1738.93 1742.98 1709.16 1753.4 1680.99 1762.18 C 1653.27 1770.82 1622.45 1779.12 1595.33 1788.87 L 1594.43 1788.99 C 1594.09 1788.67 1593.76 1788.35 1593.42 1788.02 C 1595.33 1778.45 1597.29 1773.86 1596.09 1764.04 C 1651.62 1746.13 1710.57 1729.51 1766.59 1713.01 z"
     fill="rgb(242,161,173)"
     transform="translate(0,0)"
     id="path14" />
  <path
     d="M 1748.53 1683.04 C 1758.74 1681.36 1762.69 1693.88 1766.06 1701.45 C 1747.49 1705.97 1727.95 1712.12 1709.5 1717.49 C 1671.31 1728.59 1633.22 1740.05 1595.25 1751.87 C 1594.67 1751.81 1594.09 1751.76 1593.51 1751.71 C 1586.37 1744.08 1584.57 1739.96 1575.39 1734.49 C 1630.67 1716.31 1692.41 1699.21 1748.53 1683.04 z"
     fill="rgb(242,161,173)"
     transform="translate(0,0)"
     id="path15" />
  <path
     d="M 1557.33 1740.15 C 1583.81 1744.01 1592.04 1778.8 1571.56 1796.62 C 1566.63 1796.27 1561.67 1795.55 1556.77 1794.91 C 1551.12 1793.93 1544.37 1793.25 1538.59 1792.55 C 1540.87 1777.33 1538.85 1768.03 1528.15 1756.72 C 1539.29 1749.01 1544.86 1744.87 1557.33 1740.15 z"
     fill="rgb(243,243,240)"
     transform="translate(0,0)"
     id="path16" />
  <path
     d="M 1518.84 1766.89 C 1524.7 1770 1527.24 1786.18 1522.98 1791.68 C 1518.28 1793.4 1512.86 1793.1 1507.75 1793.23 L 1505.14 1792.97 C 1503.57 1790.27 1502.49 1778.65 1501.89 1774.44 L 1518.84 1766.89 z"
     fill="rgb(243,243,240)"
     transform="translate(0,0)"
     id="path17" />
  <path
     d="M 609.156 1349.19 C 612.146 1348.93 616.557 1348.88 619.679 1349.24 C 664.76 1354.31 722.222 1369.68 758.561 1397.38 C 773.981 1409.14 790.205 1429.7 802.676 1444.23 C 812.567 1447.42 831.193 1449.6 841.976 1451.35 C 862.174 1454.63 880.674 1457.86 900.516 1463.01 C 902.551 1471.83 904.818 1477.4 908.118 1485.92 C 868.22 1476.21 836.011 1470.57 795.351 1464.64 C 784.54 1450.7 772.681 1437.6 759.877 1425.46 C 750.368 1416.48 739.769 1408.73 728.329 1402.4 C 704.63 1389.22 645.611 1367.22 619.045 1367.32 C 605.42 1367.38 545.385 1392.52 532.5 1398.02 C 490.818 1415.79 206.689 1543.66 197.826 1553.9 C 198.232 1558.94 203.162 1561.28 207.786 1562.59 C 252.922 1575.36 304.786 1585.86 348.11 1602.8 C 365.189 1609.47 391.64 1648.6 406.217 1663.34 C 457.098 1714.36 530.909 1761.57 601.524 1779.84 C 653.855 1793.37 738.512 1780.12 793.386 1781.08 C 804.729 1781.28 831.415 1779.18 840.5 1783.45 C 898.944 1810.93 956.953 1840.24 1013.24 1871.93 C 1021.44 1876.64 1055.68 1895.43 1064.61 1889.46 C 1087.05 1874.46 1115.28 1851.16 1136.76 1834.8 C 1174.71 1806.69 1209.63 1777.47 1246.85 1748.6 C 1271.67 1729.72 1296.8 1711.25 1322.23 1693.19 C 1324.41 1699.91 1327.54 1707.36 1330.16 1714.02 C 1256.65 1767.16 1189.16 1824.16 1117.74 1879.61 C 1101.96 1891.86 1081.08 1910.46 1065.75 1921.1 C 1058.91 1918.33 1047.03 1911.04 1040.07 1907.17 C 1028.89 1901.03 1017.58 1895.12 1006.15 1889.45 C 966.069 1869.34 925.677 1850.3 885.2 1830.83 C 868.06 1822.59 834.706 1803.15 818.005 1799.19 C 809.734 1797.23 767.483 1801.71 755.994 1802.53 C 704.321 1806.19 626.084 1810.34 576.141 1793.84 C 500.32 1768.8 420.892 1720.03 369.785 1658.14 C 361.325 1647.9 349.945 1634.44 343.904 1623 C 337.154 1620.12 328.135 1616.9 321.089 1614.82 C 262.855 1597.62 204.162 1576.65 146.273 1559.07 C 170.278 1544.61 206.735 1527.73 232.744 1515.09 C 295.047 1485.09 357.814 1456.05 421.022 1428.01 C 457.076 1411.58 493.313 1395.56 529.729 1379.96 C 552.899 1369.94 585.048 1355.49 609.156 1349.19 z"
     fill="rgb(243,243,240)"
     transform="translate(0,0)"
     id="path18" />
  <path
     d="M 919.559 339.641 C 926.66 341.11 1013.33 382.726 1021.83 388.02 L 918.006 606.374 C 909.38 624.207 900.895 642.108 892.551 660.075 C 887.117 671.88 874.093 704.627 864.871 711.328 C 864.077 711.54 863.281 711.743 862.482 711.937 C 844.481 716.185 793.718 686.233 775.492 678.433 C 772.674 677.227 762.897 667.876 763.967 664.641 C 773.846 634.768 790.256 604.657 803.969 576.026 L 865.207 447.951 L 895.542 384.572 C 901.169 372.827 911.714 348.843 919.559 339.641 z"
     fill="rgb(243,243,240)"
     transform="translate(0,0)"
     id="path19" />
  <path
     d="M 932.573 367.911 C 941.882 368.093 992.129 386.618 988.203 396.663 C 981 415.096 932.645 528.69 924.191 534.431 C 920.404 535.108 922.02 535.455 919.018 534.247 C 917.475 530.526 918.624 525.543 920.361 522.045 C 939.298 483.903 955.557 444.39 974.941 406.492 L 979.808 397.049 C 966.56 390.119 950.433 383.625 936.391 378.46 C 919.017 419.69 896.355 461.9 877.368 502.687 C 875.708 506.254 872.556 510.2 868.368 508.386 C 867.321 506.193 867.062 505.533 867.198 503.119 C 867.386 500.254 868.107 497.45 869.322 494.849 C 875.591 481.472 929.253 370.899 932.573 367.911 z"
     fill="rgb(79,70,85)"
     transform="translate(0,0)"
     id="path20" />
  <path
     d="M 840.693 555.465 C 841.776 556.034 843.129 557.188 844.155 557.975 C 844.518 559.51 844.982 560.222 844.596 561.435 C 838.378 580.104 828.825 598.983 820.68 616.932 C 816.1 627.027 802.661 661.758 795.379 666.259 C 791.427 664.196 791.356 664.115 790.214 660.921 C 791.011 651.483 834.087 561.802 840.693 555.465 z"
     fill="rgb(79,70,85)"
     transform="translate(0,0)"
     id="path21" />
  <path
     d="M 894.429 585.708 C 898.238 585.905 899.397 585.714 900.729 589.133 C 899.035 599.539 862.251 672.473 854.838 685.029 C 851.693 683.466 850.178 683.083 848.228 680.157 C 848.092 675.123 889.037 592.152 894.429 585.708 z"
     fill="rgb(79,70,85)"
     transform="translate(0,0)"
     id="path22" />
  <path
     d="M 983 1684.79 C 1064.47 1700.51 1144.16 1724.33 1220.89 1755.89 C 1172.36 1795.09 1118.66 1833.49 1071.56 1872.67 C 1066.57 1876.67 1064.38 1877.79 1058.9 1880.72 C 1033.61 1874.96 998.657 1851.53 974.309 1839.28 C 930.57 1817.28 886.032 1791.48 840.812 1772.71 C 846.37 1769.36 852.368 1766.28 858.025 1763.03 C 900.655 1738.5 941.339 1710.96 983 1684.79 z"
     fill="rgb(243,243,240)"
     transform="translate(0,0)"
     id="path23" />
  <path
     d="M 1042.71 1726.21 C 1054.9 1727.54 1057.32 1730.47 1065.46 1739.22 C 1078.75 1733.26 1098.77 1728.66 1111.61 1739.79 C 1116.8 1744.29 1115.73 1755.88 1115.69 1762.44 C 1123.64 1765.32 1130.46 1763.52 1136.61 1768.83 C 1138.71 1774.51 1134.26 1780.56 1129.94 1783.97 C 1095.77 1810.95 1060.46 1784.51 1023.03 1809.17 C 1038.87 1810.76 1059.73 1811.48 1072.43 1821.07 C 1072.99 1822.99 1072.79 1822.93 1072.77 1825.02 L 1071.16 1826 C 1052.96 1819.6 1040.74 1818.09 1022.05 1816.15 C 1024.28 1822.89 1027.3 1828.8 1024.72 1835.33 L 1022.89 1836 C 1016.72 1832.37 1014.55 1820.1 1014.86 1813.58 C 1015.22 1806.17 1023.51 1799.97 1028.77 1795.61 C 1023.62 1786.54 1019.66 1781.9 1025.09 1771.59 C 1027.24 1767.51 1028.44 1765.04 1025.05 1761.87 C 1009.98 1757.55 984.667 1769.41 978.974 1764.39 L 979.245 1762.74 C 984.326 1757.53 1003.19 1754.96 1010.36 1754.57 C 1010.5 1754.22 1010.65 1753.88 1010.8 1753.53 L 1011.57 1751.83 C 1017.71 1737.93 1027.93 1729.66 1042.71 1726.21 z"
     fill="rgb(79,70,85)"
     transform="translate(0,0)"
     id="path24" />
  <path
     d="M 1041.4 1732.97 C 1064.94 1734.42 1060.44 1753.28 1067.39 1766.53 C 1070.23 1769.22 1072.07 1769.28 1075.95 1770.28 L 1077.44 1770.66 C 1081.6 1786.09 1045.58 1792.68 1035.23 1794.95 L 1032.99 1794.94 C 1030.66 1790.78 1031.58 1787.6 1030.77 1785.17 C 1025.14 1768.4 1040.5 1762.1 1041.45 1749.51 C 1036.81 1748.36 1030.56 1761.37 1020.68 1754.97 C 1016.64 1745.93 1034.76 1735.88 1041.4 1732.97 z"
     fill="rgb(243,243,240)"
     transform="translate(0,0)"
     id="path25" />
  <path
     d="M 1082.61 1740.19 C 1090.34 1739.32 1100.11 1738.6 1105.55 1745.19 C 1108.12 1748.29 1110.54 1757.07 1110.24 1761.02 C 1107.87 1762.49 1106.41 1762.92 1103.83 1763.86 C 1102.94 1765.31 1102.21 1765.72 1102.51 1767.4 C 1105.34 1783.21 1112.97 1781.07 1124.57 1780.28 C 1115.11 1785.72 1111.28 1787.48 1100.68 1789.84 C 1089.47 1791.14 1081.43 1790.67 1070.2 1790.07 C 1077.25 1784.83 1089.16 1771.55 1083.59 1762.35 C 1080.29 1760.57 1077.43 1761.57 1073.56 1762.13 L 1070.47 1744.85 C 1074.48 1743 1078.45 1741.67 1082.61 1740.19 z"
     fill="rgb(243,243,240)"
     transform="translate(0,0)"
     id="path26" />
  <path
     d="M 1190.49 536.373 C 1217.77 532.347 1252.01 542.737 1272.79 560.759 C 1289.56 575.321 1299.82 595.971 1301.3 618.128 C 1303.81 659.662 1276.71 693.34 1242.78 713.919 C 1219.28 728.171 1196.41 734.059 1169.25 735.538 C 1107.64 737.501 1043.34 698.591 1063.62 628.788 C 1072.95 596.646 1099.38 574.032 1126.91 557.064 C 1146.64 544.909 1167.48 539.121 1190.49 536.373 z"
     fill="rgb(243,243,240)"
     transform="translate(0,0)"
     id="path27" />
  <path
     d="M 1226.62 589.074 C 1230.53 588.946 1234.4 589.965 1237.74 592.005 C 1263.47 607.377 1243.08 673.444 1209.28 681.915 C 1171.57 681.299 1185.31 604.412 1226.62 589.074 z"
     fill="rgb(79,70,85)"
     transform="translate(0,0)"
     id="path28" />
  <path
     d="M 1122.44 585.024 C 1148.31 587.822 1140.61 626.703 1133.52 642.686 C 1127.67 655.875 1121.13 664.384 1107.54 669.681 C 1071.66 667.1 1092.56 595.195 1122.44 585.024 z"
     fill="rgb(79,70,85)"
     transform="translate(0,0)"
     id="path29" />
  <path
     d="M 1110.15 747.809 C 1135.39 749.585 1257.55 805.804 1282.66 819.114 C 1268.26 827.353 1254.59 832.632 1239.97 842.496 C 1183.99 880.27 1145.89 925.466 1116.75 985.65 C 1108.8 1003.92 1104.59 1015.72 1098.95 1034.74 C 1086.08 977.075 1033.52 871.426 991.703 830.242 C 1013.2 809.357 1043.94 790.645 1069.24 774.593 C 1083.46 765.569 1096.8 758.571 1110.15 747.809 z"
     fill="rgb(151,149,150)"
     transform="translate(0,0)"
     id="path30" />
  <path
     d="M 1497.56 1317.98 C 1499.75 1320.37 1508.37 1335.06 1511.38 1339.1 C 1525.42 1357.94 1539.58 1367.63 1558.86 1379.77 C 1556.2 1399.5 1555.39 1421.81 1552.47 1442.64 C 1546.22 1487.2 1520.55 1582.31 1497.24 1618.55 C 1490.98 1601.93 1485.38 1591.14 1473.69 1578.03 C 1467.51 1571.4 1460.47 1565.61 1452.77 1560.83 C 1427.96 1545.48 1403.79 1542.69 1375.79 1549.25 C 1378.58 1540.77 1381.52 1531.53 1384.64 1523.23 C 1402.76 1475.1 1412.12 1423.5 1427.24 1374.77 C 1450.2 1359.32 1477.96 1337.42 1497.56 1317.98 z"
     fill="rgb(151,149,150)"
     transform="translate(0,0)"
     id="path31" />
  <path
     d="M 375.974 1480.85 C 379.78 1480.96 401.595 1487.26 406.726 1488.79 C 441.293 1499.13 491.9 1507.68 518.686 1532.55 C 530.07 1543.12 547.596 1573.08 557.082 1587.05 C 509.944 1611.22 464.369 1635.92 416.426 1659.11 L 410.129 1652.61 C 391.752 1633.02 372.443 1601.47 347.037 1592.1 C 306.505 1577.16 263.406 1568.49 222.126 1555.1 C 240.761 1544.06 268.074 1531.65 287.635 1522.31 C 316.856 1508.02 346.306 1494.19 375.974 1480.85 z"
     fill="rgb(243,243,240)"
     transform="translate(0,0)"
     id="path32" />
  <path
     d="M 398.992 1576.37 C 407.034 1579.43 416.174 1584.23 414.253 1594 C 405.708 1591.6 398.39 1585.83 398.992 1576.37 z"
     fill="rgb(79,70,85)"
     transform="translate(0,0)"
     id="path33" />
  <path
     d="M 390.024 1526.58 C 396.136 1527.28 400.663 1530.58 400.496 1537.19 C 392.943 1537.17 390.801 1533.37 390.024 1526.58 z"
     fill="rgb(79,70,85)"
     transform="translate(0,0)"
     id="path34" />
  <path
     d="M 557.792 1595.9 C 563.133 1595.16 590.745 1615.93 597.683 1619.95 C 648.445 1649.38 697.07 1664.75 751.936 1683.66 C 742.489 1690.72 723.924 1700.94 713.122 1708.03 C 680.726 1729.31 647.544 1749.17 613.952 1768.51 C 612.748 1769.21 609.706 1770.85 608.483 1770.57 C 545.058 1755.92 467.336 1709.8 422.396 1665.87 C 467.946 1643.31 512.578 1618.84 557.792 1595.9 z"
     fill="rgb(243,243,240)"
     transform="translate(0,0)"
     id="path35" />
  <path
     d="M 571.205 1668.77 C 565.606 1665.84 555.141 1662.08 553.199 1655.38 C 552.372 1652.53 553.729 1649.24 555.315 1646.89 C 557.799 1643.22 561.849 1640.03 566.362 1639.46 C 568.611 1639.18 570.264 1639.78 572.321 1640.58 C 581.114 1643.99 649.597 1674.65 653.659 1678.33 C 655.583 1680.07 656.918 1682.16 657.082 1684.81 C 657.529 1692.04 632.401 1722.99 626.076 1728.55 C 622.994 1731.25 620.619 1732.12 616.496 1731.63 C 602.962 1730.04 533.936 1697.42 526.791 1687.11 C 525.01 1684.54 524.582 1682.66 524.533 1679.57 C 527.477 1671.45 538.012 1669.62 544.993 1673.02 C 562.604 1681.61 579.29 1695.29 598.454 1700.19 C 600.797 1699.04 613.406 1693.51 614.259 1692.73 C 606.953 1687.88 603.079 1682.18 597.743 1675.32 C 579.663 1668.22 575.865 1676.33 558.628 1677.06 L 558.115 1676.24 C 562.265 1672.44 566.09 1671.1 571.205 1668.77 z"
     fill="rgb(79,70,85)"
     transform="translate(0,0)"
     id="path36" />
  <path
     d="M 575.972 1666.24 C 571.986 1656.85 555.807 1655.61 565.952 1647.8 C 571.311 1646.65 641.259 1679.52 649.136 1684.42 C 646.666 1689.51 620.093 1724.77 616.875 1723.56 C 599.037 1716.88 545.432 1694.35 533.16 1682.39 L 532.988 1680.42 C 533.725 1679.6 534.413 1678.23 535.581 1678.54 C 552.773 1683.02 568.69 1693.99 584.961 1700.78 C 596.251 1705.48 605.553 1707.32 617.017 1713.01 L 618.844 1712.49 L 619.456 1710.29 C 616.035 1704.43 613.978 1706.9 612.38 1701.69 C 616.065 1693.81 637.393 1692.38 634.412 1683.9 C 630.007 1683.14 624.669 1687.66 617.023 1688.32 L 614.259 1692.73 C 606.953 1687.88 603.079 1682.18 597.743 1675.32 C 579.663 1668.22 575.865 1676.33 558.628 1677.06 L 558.115 1676.24 C 562.265 1672.44 566.09 1671.1 571.205 1668.77 C 572.531 1667.41 574.095 1667.03 575.972 1666.24 z"
     fill="rgb(243,243,240)"
     transform="translate(0,0)"
     id="path37" />
  <path
     d="M 575.972 1666.24 C 577.252 1666.47 598.865 1668.01 597.621 1666.73 C 605.045 1674.33 608.185 1681.78 617.023 1688.32 L 614.259 1692.73 C 606.953 1687.88 603.079 1682.18 597.743 1675.32 C 579.663 1668.22 575.865 1676.33 558.628 1677.06 L 558.115 1676.24 C 562.265 1672.44 566.09 1671.1 571.205 1668.77 C 572.531 1667.41 574.095 1667.03 575.972 1666.24 z"
     fill="url(#Gradient1)"
     transform="translate(0,0)"
     id="path38" />
  <path
     d="M 1124.66 1590.28 C 1182.86 1597.87 1235.94 1617.75 1289.36 1640.91 C 1285.85 1664.19 1286.15 1676.4 1296.41 1697.84 C 1273.85 1715.47 1251.1 1732.85 1228.16 1749.99 C 1212.44 1743.54 1199.38 1737.67 1183.2 1731.92 C 1174.67 1728.25 1156.31 1722.45 1146.89 1719.21 C 1096.12 1701.85 1044.23 1687.92 991.587 1677.51 C 1019.23 1655.66 1049.3 1635.77 1079.24 1617.21 C 1093.48 1608.38 1109.89 1597.79 1124.66 1590.28 z"
     fill="rgb(243,243,240)"
     transform="translate(0,0)"
     id="path39" />
  <path
     d="M 1145.98 1622.28 C 1154.9 1621.12 1158.65 1620.77 1166.17 1626.38 C 1171.68 1630.49 1185.55 1650.49 1179.21 1656.53 C 1173.04 1654.75 1166.74 1635.88 1161.83 1631.46 C 1156.68 1626.83 1145.48 1629.58 1141.12 1634.45 C 1137.55 1647.98 1164.69 1652.81 1146.91 1689.4 C 1170.01 1686.53 1183.51 1685.34 1201.56 1702.82 C 1214.92 1700.64 1223.03 1698.28 1232.65 1687.23 C 1240.24 1678.52 1248.5 1659.73 1247.55 1648.25 L 1245.87 1646.89 C 1239.01 1647.97 1224.71 1650.98 1218.94 1648.55 L 1218.68 1647.08 C 1225.51 1639.28 1263.64 1631.04 1254.91 1657.78 C 1248.62 1677.07 1244.53 1692.46 1225.52 1703.57 C 1198.52 1719.33 1196.18 1701.42 1174.57 1694.67 C 1168.91 1692.96 1148.57 1697.41 1141.63 1694.87 C 1136.76 1693.1 1145.93 1673.74 1145.23 1668.93 C 1146.23 1647.57 1113.07 1637.66 1145.98 1622.28 z"
     fill="rgb(79,70,85)"
     transform="translate(0,0)"
     id="path40" />
  <path
     d="M 1219.68 1355.32 C 1244.41 1378.05 1270.48 1400.32 1303.21 1410.46 C 1341.11 1422.21 1371.76 1406.4 1404.51 1388.98 C 1397.08 1423.81 1378.02 1485.99 1365.5 1520.24 C 1361.39 1532.13 1355.07 1548.33 1349.92 1559.67 C 1337.24 1555.58 1316.52 1546.28 1303.5 1541.07 C 1265 1525.64 1234.11 1517.12 1192.67 1514.49 C 1193.47 1500.19 1197.41 1478.22 1199.74 1463.61 C 1205.27 1427.32 1211.92 1391.2 1219.68 1355.32 z"
     fill="rgb(243,243,240)"
     transform="translate(0,0)"
     id="path41" />
  <path
     d="M 685.832 1525.84 C 699.462 1535.11 725.68 1547.51 741 1554.15 C 786.24 1573.77 833.835 1590.97 880.075 1608.54 C 853.077 1622.42 825.058 1640.74 798.685 1656 C 786.155 1663.25 775.06 1671.16 761.909 1678.06 C 692.051 1658.79 627.279 1632.38 567.895 1590.73 C 605.082 1569.07 647.599 1547.05 685.832 1525.84 z"
     fill="rgb(243,243,240)"
     transform="translate(0,0)"
     id="path42" />
  <path
     d="M 617.685 434.12 C 619.653 436.802 633.565 470.304 635.623 475.087 L 683.13 585.223 L 710.403 647.451 C 714.837 657.538 723.268 675.114 725.615 685.22 C 718.128 707.459 692.696 716.948 671.236 719.721 C 667.152 720.054 657.14 719.65 654.824 715.79 C 645.242 699.819 637.78 680.665 630.222 663.644 L 588.084 568.862 C 581.907 554.999 569.73 528.633 564.619 515.666 C 562.663 510.705 563.73 466.971 563.818 458.833 C 576.223 451.593 603.614 440.308 617.685 434.12 z"
     fill="rgb(243,243,240)"
     transform="translate(0,0)"
     id="path43" />
  <path
     d="M 1396.2 1564.4 C 1403.93 1563.88 1411.7 1564.49 1419.25 1566.22 C 1440.09 1571.21 1460.07 1585.42 1471.16 1603.81 C 1481.86 1621.54 1485.01 1642.81 1479.91 1662.88 C 1467.98 1708.41 1420.53 1739.1 1374.05 1726.94 C 1327.4 1711.36 1345.09 1664.1 1327.68 1661.37 C 1313.02 1666.47 1323.23 1675.62 1310.85 1684.64 L 1309.77 1685.41 C 1299.99 1655.03 1310.39 1622.6 1330.45 1598.83 C 1346.99 1579.15 1370.61 1566.78 1396.2 1564.4 z"
     fill="rgb(243,243,240)"
     transform="translate(0,0)"
     id="path44" />
  <path
     d="M 145.174 438.6 C 173.416 444.373 203.546 445.864 231.568 438.244 L 231.182 725.25 C 231.16 725.764 230.598 727.278 230.412 727.847 C 223.216 729.991 167.905 728.608 157.386 728.606 C 154.879 656.322 159.73 536.057 156.34 460.406 C 156.223 457.794 147.857 453.181 144.967 451.562 L 145.174 438.6 z"
     fill="rgb(243,243,240)"
     transform="translate(0,0)"
     id="path45" />
  <path
     d="M 523.353 1414.83 C 528.547 1415.26 542.806 1423.19 548.26 1426.11 C 584.039 1444.9 617.961 1467.04 649.574 1492.21 C 660.165 1500.52 671.979 1509.63 680.614 1519.86 C 642.225 1541.51 603.111 1561.63 564.628 1583.53 L 558.365 1574.46 C 550.307 1563.44 533.743 1536.17 525.505 1528.16 C 493.393 1496.94 429.226 1487.84 388.336 1475.93 C 433.2 1454.04 478.264 1435.59 523.353 1414.83 z"
     fill="rgb(243,243,240)"
     transform="translate(0,0)"
     id="path46" />
  <path
     d="M 455.134 1451.47 C 459.795 1451.92 464.881 1455.09 468.779 1457.59 C 493.983 1473.71 504.737 1479.7 535.436 1475.4 C 537.577 1477.84 536.95 1477.84 537.591 1481.65 C 535.399 1482.32 533.173 1482.87 530.923 1483.3 C 508.793 1487.41 485.014 1478.53 466.858 1466.18 C 460.618 1461.94 456.434 1458.7 455.134 1451.47 z"
     fill="rgb(79,70,85)"
     transform="translate(0,0)"
     id="path47" />
  <path
     d="M 535.253 1458.6 C 543.171 1459.33 551.853 1462.07 549.973 1471.4 C 540.816 1470.64 533.197 1469.4 535.253 1458.6 z"
     fill="rgb(79,70,85)"
     transform="translate(0,0)"
     id="path48" />
  <path
     d="M 274.089 446.766 C 302.916 446.55 332.273 446.937 361.143 447.032 L 361.208 661.851 C 332.141 661.434 303.111 661.633 274.002 661.056 L 274.089 446.766 z"
     fill="rgb(243,243,240)"
     transform="translate(0,0)"
     id="path49" />
  <path
     d="M 467.1 446.857 C 495.519 446.473 524.824 446.89 553.311 446.946 L 552.934 661.742 L 466.99 661.243 L 467.1 446.857 z"
     fill="rgb(243,243,240)"
     transform="translate(0,0)"
     id="path50" />
  <path
     d="M 884.698 1682.48 C 913.352 1682.22 942.008 1682.39 970.657 1683.01 C 923.084 1713.96 879.413 1740.93 831.31 1770.62 C 789.252 1769.43 750.829 1773.33 709.18 1774.85 C 677.33 1775.12 652.469 1775.37 620.704 1773.37 C 669.564 1745.57 714.176 1716.21 762.024 1686.89 C 787.59 1688.22 811.6 1685 836.917 1683.47 C 852.17 1682.55 869.292 1682.64 884.698 1682.48 z"
     fill="rgb(243,243,240)"
     transform="translate(0,0)"
     id="path51" />
  <path
     d="M 774.71 1727.93 C 777.204 1727.8 779.703 1727.77 782.199 1727.86 C 786.088 1728.01 787.309 1728.44 789.7 1731.02 L 789.504 1733.93 C 783.891 1734.15 778.547 1735.53 774.489 1731.4 L 774.71 1727.93 z"
     fill="rgb(79,70,85)"
     transform="translate(0,0)"
     id="path52" />
  <path
     d="M 372.36 446.937 L 456.705 446.783 L 456.784 661.645 C 429.062 662.181 400.066 661.779 372.245 661.802 L 372.36 446.937 z"
     fill="rgb(243,243,240)"
     transform="translate(0,0)"
     id="path53" />
  <path
     d="M 619.024 1379.1 C 630.584 1377.58 652.066 1385.59 663.681 1388.95 C 715.366 1403.9 748.208 1424.06 782.441 1466.38 C 754.107 1481.93 725.275 1495.94 696.497 1512.06 L 689.072 1515.78 C 642.816 1474.4 591.677 1435.76 534.497 1410.65 C 558.506 1399.2 593.676 1386.84 619.024 1379.1 z"
     fill="rgb(243,243,240)"
     transform="translate(0,0)"
     id="path54" />
  <path
     d="M 1527.7 1263.03 L 1528 1263.23 L 1528.08 1264.41 C 1517.41 1274.96 1501.1 1292.36 1489.54 1302.37 C 1450.21 1336.48 1389.25 1389.12 1336.26 1395.99 C 1303.77 1400.21 1265.93 1372.23 1242.73 1352.81 C 1227.43 1339.75 1215.7 1326.62 1202.05 1312.02 C 1315.19 1320.99 1425.03 1317 1527.7 1263.03 z"
     fill="rgb(242,161,173)"
     transform="translate(0,0)"
     id="path55" />
  <path
     d="M 787.31 1472.74 C 796.328 1476.87 811.266 1478.14 821.233 1480.12 C 851.084 1486.06 886.603 1489.69 913.81 1503.59 C 904.575 1532.01 896.66 1545.49 894.93 1576.69 C 899.226 1583.26 900.2 1584 907.472 1587.01 C 900.703 1594.08 897.131 1597.8 888.524 1602.49 C 876.301 1598.6 860.575 1592.13 848.246 1587.52 C 798.458 1569.42 740.327 1548.03 694.976 1521.52 C 725.78 1505.71 756.6 1488.9 787.31 1472.74 z"
     fill="rgb(243,243,240)"
     transform="translate(0,0)"
     id="path56" />
  <path
     d="M 797.074 1519.26 C 804.884 1518.51 815.066 1519.05 814.573 1529.15 C 808.306 1529.71 798.568 1525.86 797.074 1519.26 z"
     fill="rgb(79,70,85)"
     transform="translate(0,0)"
     id="path57" />
  <path
     d="M 1105.58 1589.42 L 1107.79 1589.78 C 1106.14 1593.31 1003.58 1653.25 993.516 1666.94 C 992.88 1667.81 983.525 1674.86 981.834 1676.16 C 938.465 1671.92 890.682 1675.39 846.803 1675.25 C 825.803 1675.19 803.449 1678.89 781.75 1678.94 C 779.562 1678.91 779.999 1678.91 777.85 1678.39 L 778.64 1676.87 C 799.231 1663.31 825.511 1650 846.841 1636.52 C 855.98 1632.95 882.964 1612.57 891.028 1611.27 C 951.512 1601.5 1049.11 1591.29 1105.58 1589.42 z"
     fill="rgb(243,243,240)"
     transform="translate(0,0)"
     id="path58" />
  <path
     d="M 1203.05 1339.91 C 1204.22 1340.05 1203.62 1339.82 1204.66 1341 C 1203.07 1353.46 1195.69 1378 1193.16 1392.81 C 1186.25 1433.19 1178.41 1474.95 1174.69 1515.76 L 1093.11 1515.82 C 1096.84 1508.73 1099.83 1501.28 1102.04 1493.59 C 1111.88 1455.91 1100.54 1418.24 1071.11 1392.9 C 1085.95 1389.91 1102 1382.65 1116.18 1376.9 C 1145.33 1365.03 1174.29 1352.7 1203.05 1339.91 z"
     fill="rgb(151,149,150)"
     transform="translate(0,0)"
     id="path59" />
  <path
     d="M 1576.56 1387.55 C 1581.18 1391.52 1588.47 1405.43 1591.89 1411.16 C 1620.16 1458.58 1639.09 1507.89 1660.73 1558.35 C 1635.26 1576.31 1620.7 1583.75 1591.24 1594.38 C 1566.94 1602.56 1547.79 1605.47 1522.69 1607.75 C 1550.49 1547.34 1573.04 1482.71 1575.69 1415.61 C 1576.05 1406.65 1575.53 1397.41 1576.45 1388.5 L 1576.56 1387.55 z"
     fill="rgb(243,243,240)"
     transform="translate(0,0)"
     id="path60" />
  <path
     d="M 1031.98 396.448 C 1057.81 396.818 1083.63 397.036 1109.45 397.102 L 1109.29 498.867 C 1101.31 507.347 1092.3 515.979 1083.98 524.226 C 1083.83 508.765 1085.42 429.957 1082.17 421.242 C 1075.04 415.666 1034.94 414.922 1028.28 418.439 C 1024.66 422.386 1024.52 424.643 1024.45 429.947 C 1024.06 462.13 1024.2 494.356 1024.33 526.542 C 1024.35 531.411 1023.82 535.012 1027.39 538.434 C 1031.34 539.33 1029.59 539.624 1032.89 537.979 C 1036.99 531.619 1034.99 481.485 1035.04 470.5 L 1035.14 427.501 C 1047.75 427.365 1060.36 427.466 1072.97 427.804 L 1073.03 493.97 C 1073.05 506.713 1072.61 522.378 1074.15 534.807 C 1045.88 565.171 1028.72 584.696 1002.86 618.082 L 1003.21 486.548 C 1003.19 477.5 1000.49 464.639 1002.58 456.129 C 1004.74 447.282 1025.38 400.346 1031.98 396.448 z"
     fill="rgb(243,243,240)"
     transform="translate(0,0)"
     id="path61" />
  <path
     d="M 1013.13 1390.18 C 1027.8 1388.4 1040.12 1392.69 1052.46 1400.36 C 1089.17 1423.13 1096.7 1477.02 1074.28 1512.23 C 1064.21 1528.05 1050.53 1535.06 1032.91 1538.73 C 1013.4 1541.29 991.291 1539.53 984.041 1519.5 C 973.058 1489.16 998.448 1471.09 1013.14 1450.17 C 1011.09 1441.58 995.903 1435.78 992.537 1425.56 C 986.802 1408.15 994.781 1397.25 1013.13 1390.18 z"
     fill="rgb(243,243,240)"
     transform="translate(0,0)"
     id="path62" />
  <path
     d="M 1559.59 1252.69 C 1573.14 1259.88 1587.87 1267.59 1600.34 1276.46 C 1633.49 1300.09 1660.57 1331.79 1689.93 1360.46 C 1652.36 1372.66 1625.64 1376.58 1586.52 1367.48 C 1548.76 1355.47 1531.98 1338.08 1510.5 1306.15 C 1514.97 1301.47 1520.65 1296.28 1525.4 1291.73 C 1526.11 1292.66 1526.84 1293.57 1527.57 1294.48 C 1533.95 1302.29 1549.41 1322.57 1558.82 1323.51 C 1567.6 1317.1 1538.23 1287.03 1533.58 1281.7 C 1541.52 1275.82 1552.97 1260.81 1559.59 1252.69 z"
     fill="rgb(242,161,173)"
     transform="translate(0,0)"
     id="path63" />
  <path
     d="M 1660.15 1195.39 C 1699.29 1189.01 1743.42 1212.61 1782.3 1211.38 C 1778.41 1217.74 1774.06 1223.81 1769.28 1229.54 C 1738.1 1266.61 1695.98 1284.91 1648.45 1289.21 L 1632.5 1277.52 C 1618.26 1266.61 1607.9 1259.65 1592.05 1251.14 C 1614.12 1250.18 1636.78 1248.28 1658.71 1245.68 C 1664.25 1245.02 1671.64 1242.72 1668.94 1235.72 C 1668.11 1235.07 1667.27 1234.41 1666.44 1233.75 C 1642.04 1233.69 1598.66 1237.37 1576.17 1239.85 C 1580.08 1237.08 1585.38 1234.25 1589.72 1232.05 C 1609.13 1222.22 1625.81 1207.49 1645.18 1197.94 C 1648.3 1196.4 1656.42 1195.77 1660.15 1195.39 z"
     fill="rgb(242,161,173)"
     transform="translate(0,0)"
     id="path64" />
  <path
     d="M 563.398 541.771 C 566.854 544.989 576.057 567.828 578.475 573.387 L 617.712 662.396 C 625.219 679.567 632.955 699.172 642.067 715.466 C 645.783 722.11 649.482 724.512 655.629 728.519 C 624.944 728.191 594.256 728.098 563.57 728.24 C 563.17 666.084 563.113 603.927 563.398 541.771 z"
     fill="rgb(243,243,240)"
     transform="translate(0,0)"
     id="path65" />
  <path
     d="M 1055.22 1262.2 C 1068.3 1265.18 1074.23 1268.81 1084.25 1277.26 L 1029.45 1375.98 C 1002.82 1375.42 980.05 1389.75 977.797 1419.07 C 976.833 1431.61 983.311 1439.62 991.522 1448.25 C 977.845 1466.05 972.374 1474.02 964.698 1494.67 C 963.469 1498.26 962.325 1502.76 961.27 1506.47 C 951.348 1496.7 943.789 1494.12 931.476 1488.41 C 941.236 1466.93 955.255 1441.44 966.385 1420.57 C 994.957 1367.2 1024.58 1314.4 1055.22 1262.2 z"
     fill="rgb(242,161,173)"
     transform="translate(0,0)"
     id="path66" />
  <path
     d="M 947.278 1546.24 C 959.661 1548.55 971.39 1548.34 983.732 1550.17 C 990.907 1551.11 1000.42 1556.55 1007.2 1557.66 C 1057.22 1565.85 1109.93 1557.57 1160.33 1556.08 C 1148.79 1564.77 1132.75 1574.78 1120.47 1582.63 C 1113.63 1582.33 1106.41 1582.35 1099.53 1582.25 C 1028.47 1584.46 971.085 1592.99 901.254 1602.13 C 911.622 1592.5 937.976 1558.37 947.278 1546.24 z"
     fill="rgb(243,243,240)"
     transform="translate(0,0)"
     id="path67" />
  <path
     d="M 1091.94 1292.69 C 1115.65 1300.48 1159.96 1306.65 1185.13 1310.31 L 1191.81 1324.73 C 1174.85 1333.18 1148.28 1343.97 1130.62 1350.98 C 1115.2 1357.37 1092.75 1366.37 1078.42 1373.88 C 1068.98 1369.96 1062.42 1369.02 1052.42 1367.36 C 1065.24 1342.28 1078.42 1317.39 1091.94 1292.69 z"
     fill="rgb(243,243,240)"
     transform="translate(0,0)"
     id="path68" />
  <path
     d="M 1175.43 1556.08 C 1217.87 1556.22 1269.03 1578.72 1308.2 1595.62 C 1299.11 1608.49 1296.16 1617.62 1291.32 1632.28 L 1274.25 1624.52 C 1230.24 1605.38 1181.14 1588.95 1133.26 1583.54 C 1145.45 1574.52 1162.26 1563.09 1175.43 1556.08 z"
     fill="rgb(243,243,240)"
     transform="translate(0,0)"
     id="path69" />
  <path
     d="M 353.14 369.139 L 361.209 374.089 L 361.355 437.804 C 334.488 437.477 307.619 437.329 280.75 437.359 C 277.935 437.393 277.718 437.323 274.943 436.74 C 272.895 433.189 273.968 382.68 274.014 374.81 C 298.679 378.371 329.996 379.536 353.14 369.139 z"
     fill="rgb(243,243,240)"
     transform="translate(0,0)"
     id="path70" />
  <path
     d="M 447.046 369.049 C 448.852 369.34 454.49 373.203 456.445 374.428 C 456.274 395.369 456.268 416.312 456.425 437.254 L 380.703 437.41 C 377.285 437.485 375.799 437.799 372.66 436.383 C 371.16 430.445 371.904 383.785 371.939 374.899 C 394.806 375.155 426.705 379.929 447.046 369.049 z"
     fill="rgb(243,243,240)"
     transform="translate(0,0)"
     id="path71" />
  <path
     d="M 541.941 373.292 C 558.556 371.922 553.014 424.567 552.961 437.021 C 526.891 437.304 500.821 437.443 474.75 437.44 C 471.827 437.519 470.21 437.866 467.648 436.479 C 466.169 430.871 466.961 383.883 467.011 375.249 C 489.735 379.423 519.398 377.871 541.941 373.292 z"
     fill="rgb(243,243,240)"
     transform="translate(0,0)"
     id="path72" />
  <path
     d="M 1081.06 1530.87 C 1098.75 1535.93 1144.18 1533.74 1164.53 1532.97 C 1225.52 1530.65 1274.26 1548.24 1330.15 1572.54 C 1323.77 1578.05 1320.43 1581.59 1314.74 1587.88 C 1308.89 1585.73 1302.98 1583.03 1297.25 1580.53 C 1275.55 1571.28 1230.81 1552.58 1208.07 1549.75 C 1157.75 1543.47 1095.75 1552.81 1044.81 1553.98 C 1061.66 1548.79 1068.45 1542.68 1081.06 1530.87 z"
     fill="rgb(243,243,240)"
     transform="translate(0,0)"
     id="path73" />
  <path
     d="M 273.974 683.865 L 361.607 683.898 L 361.679 728.794 C 333.245 729.375 302.563 728.726 273.948 728.667 L 273.974 683.865 z"
     fill="rgb(243,243,240)"
     transform="translate(0,0)"
     id="path74" />
  <path
     d="M 467.388 684.229 L 552.999 684.028 L 552.94 728.757 L 467.419 728.547 L 467.388 684.229 z"
     fill="rgb(243,243,240)"
     transform="translate(0,0)"
     id="path75" />
  <path
     d="M 372.646 683.967 L 456.836 683.991 C 456.924 698.832 456.895 713.674 456.75 728.514 L 372.417 728.625 C 372.389 713.739 372.465 698.852 372.646 683.967 z"
     fill="rgb(243,243,240)"
     transform="translate(0,0)"
     id="path76" />
  <path
     d="M 1669.03 1579.15 C 1672.19 1583.03 1689.18 1633.9 1692 1641.92 C 1661.58 1634.72 1634.57 1630.98 1603.77 1626.91 C 1590.28 1624.85 1574.75 1623.37 1561.16 1622.22 C 1603.37 1615.64 1633.72 1602.75 1669.03 1579.15 z"
     fill="rgb(243,243,240)"
     transform="translate(0,0)"
     id="path77" />
  <path
     d="M 643.551 209.476 L 658.524 209.3 L 658.505 232.89 L 582.5 232.756 L 564.621 232.79 L 564.677 209.546 C 589.958 210.444 618.179 209.782 643.551 209.476 z"
     fill="rgb(243,243,240)"
     transform="translate(0,0)"
     id="path78" />
  <path
     d="M 965.794 209.569 L 966.334 209.847 C 967.582 213.199 967.05 227.799 967.014 232.328 L 875.106 232.321 C 873.008 229.677 873.851 214.417 873.888 209.963 C 903.87 209.982 935.986 210.543 965.794 209.569 z"
     fill="rgb(243,243,240)"
     transform="translate(0,0)"
     id="path79" />
  <path
     d="M 173.143 416.41 C 180.322 415.461 235.675 413.702 232.128 426.989 C 226.101 432.799 212.46 433.75 204.24 434.694 C 192.714 435.316 150.945 436.609 144.205 425.421 L 144.663 423.792 C 151.249 418.282 164.751 417.221 173.143 416.41 z"
     fill="rgb(243,243,240)"
     transform="translate(0,0)"
     id="path80" />
  <path
     d="M 946.772 1398.18 C 951.77 1397.95 955.732 1399.01 960.644 1399.95 C 948.061 1418.34 935.467 1445.34 925.388 1465.75 C 924.064 1468.71 924.877 1467.94 922.616 1469.79 C 920.784 1468.08 920.547 1467.55 920.02 1465 C 914.82 1439.8 916.95 1405.97 946.772 1398.18 z"
     fill="rgb(243,243,240)"
     transform="translate(0,0)"
     id="path81" />
  <path
     d="M 931.155 1503.57 C 939.786 1505.09 947.137 1510.28 954.236 1515.11 C 946.841 1528.41 937.766 1541.92 929.06 1554.4 L 928.529 1555.06 C 925.274 1555.98 912.544 1551.24 908.22 1549.89 C 915.717 1531.3 920.493 1520.34 931.155 1503.57 z"
     fill="rgb(242,161,173)"
     transform="translate(0,0)"
     id="path82" />
  <path
     d="M 484.64 351.425 C 491.475 350.87 537.972 350.024 535.251 362.439 C 529.289 367.417 514.481 367.917 506.75 368.31 C 497.169 368.988 460.875 369.241 456.3 358.671 L 457.244 356.513 C 464.851 351.682 475.494 351.999 484.64 351.425 z"
     fill="rgb(243,243,240)"
     transform="translate(0,0)"
     id="path83" />
  <path
     d="M 381.61 350.391 C 392.822 349.546 435.561 347.854 442.126 358.518 L 441.419 360.242 C 435.313 364.41 429.363 364.844 422.238 365.694 C 404.959 367.085 384.294 365.563 366.661 364.66 C 364.296 361.824 361.87 358.237 359.682 355.194 C 367.953 352.129 372.993 351.341 381.61 350.391 z"
     fill="rgb(243,243,240)"
     transform="translate(0,0)"
     id="path84" />
  <path
     d="M 294.721 351.429 C 302.867 350.98 344.551 348.743 345.431 360.137 C 340.333 365.494 326.028 366.68 318.755 367.284 C 310.174 368.073 267.436 369.114 266.816 358.075 C 272.013 352.408 287.287 352.055 294.721 351.429 z"
     fill="rgb(243,243,240)"
     transform="translate(0,0)"
     id="path85" />
  <path
     d="M 598.003 411.976 C 608.995 412.816 610.933 418.491 614.823 427.529 C 602.637 431.921 587.385 439.235 575.282 444.684 L 564.134 449.444 L 564.058 425.411 C 574.154 420.845 587.616 415.824 598.003 411.976 z"
     fill="rgb(243,243,240)"
     transform="translate(0,0)"
     id="path86" />
  <path
     d="M 1072.75 1231.74 C 1084.63 1232.69 1091.99 1238.3 1101.02 1245.28 C 1098.9 1251.41 1095.33 1262.16 1090.4 1266.26 C 1079.82 1258.37 1073.03 1254.86 1060.13 1252.23 C 1063.46 1246.09 1068.08 1236.41 1072.75 1231.74 z"
     fill="rgb(243,243,240)"
     transform="translate(0,0)"
     id="path87" />
  <path
     d="M 274.066 669.281 C 292.461 669.237 310.855 669.3 329.249 669.472 C 338.51 669.55 351.314 669.298 360.272 670.262 C 361.932 673.024 361.346 674.255 361.471 677.981 L 305.361 678.075 C 297.637 678.088 282.065 678.607 275.021 677.451 C 273.436 675.195 273.99 672.243 274.066 669.281 z"
     fill="rgb(243,243,240)"
     transform="translate(0,0)"
     id="path88" />
  <path
     d="M 466.896 669.816 C 487.189 669.132 508.016 670.107 528.367 669.703 C 535.658 669.558 544.568 669.421 551.752 670.386 C 553.371 673.108 552.855 675.166 552.925 678.721 C 534.503 678.233 515.875 678.594 497.45 678.369 C 488.792 678.264 476.653 678.835 468.287 677.667 C 466.629 675.109 467.127 673.357 466.896 669.816 z"
     fill="rgb(243,243,240)"
     transform="translate(0,0)"
     id="path89" />
  <path
     d="M 372.698 669.995 C 393.658 669.546 414.782 670.138 435.761 669.8 C 442.217 669.695 449.225 669.504 455.596 670.39 C 457.334 673.016 456.771 674.301 456.983 677.983 C 436.183 678.607 394.088 678.951 374.049 677.71 C 372.493 675.806 372.913 673.058 372.698 669.995 z"
     fill="rgb(243,243,240)"
     transform="translate(0,0)"
     id="path90" />
  <path
     d="M 963.252 1523.64 C 968.326 1531.78 971.425 1535.66 977.714 1542.79 L 968.613 1541.07 L 951.62 1540.51 L 963.252 1523.64 z"
     fill="rgb(243,243,240)"
     transform="translate(0,0)"
     id="path91" />
  <path
     d="M 906.934 1559.11 C 911.538 1560.44 916.353 1562.59 920.824 1564.42 C 918.622 1567.42 916.108 1570.5 913.799 1573.44 C 911.635 1575.17 911.995 1574.73 909.255 1575.77 C 905.977 1575.13 907.354 1575.94 905.246 1572.86 C 904.138 1567.25 905.368 1564.51 906.934 1559.11 z"
     fill="rgb(243,243,240)"
     transform="translate(0,0)"
     id="path92" />
  <path
     d="M 1046.11 1376.54 C 1049.24 1378.29 1054.28 1380.31 1057.68 1381.79 L 1057.31 1383.83 C 1052.48 1383.73 1047.09 1384.76 1044.63 1380.21 L 1046.11 1376.54 z"
     fill="rgb(243,243,240)"
     transform="translate(0,0)"
     id="path93" />
  <metadata
     id="metadata93">
    <recraft-signature>{&quot;signed_by&quot;: &quot;recraft&quot;, &quot;signature_b64&quot;: &quot;cljaYI9mO3jPlB9Hd4sX8dyMLD8Oeot7/8IMAit+94hl+MAY0etTvQcSQByBw0Qf11oDP0ChRF8tMVkDPdI9AQ==&quot;, &quot;signing_algo&quot;: &quot;Ed25519&quot;, &quot;generation_timestamp&quot;: 1765537909, &quot;identifier&quot;: &quot;caaebf00-82e9-4cfa-9a16-f46094e91aee&quot;}</recraft-signature>
  </metadata>
</svg>
